<svg version="1" xmlns="http://www.w3.org/2000/svg" width="933.333" height="933.333" viewBox="0 0 700.000000 700.000000"><path d="M134.5 9.4C71.6 19.4 23.6 65.5 10.4 128.5c-1.8 8.7-1.9 17.2-1.9 221.5s.1 212.8 1.9 221.5C23.8 635.6 74.2 682.8 138 691c6 .8 71 1 217.5.8l209-.4 9.2-2.1c60.4-14.3 103.4-58.1 115.9-117.8 1.8-8.6 1.9-17.3 1.9-221.5 0-204.3-.1-212.8-1.9-221.5-9.8-47-39.1-85-81.1-105.5-11.3-5.5-21.4-9.1-34.8-12.3l-9.2-2.1-211-.2c-166.1-.2-212.7 0-219 1zm176 25.8c5.4 5.5 7.2 10.5 14.5 39.3 14.6 57.7 27.4 93.3 42.8 118.9l3.5 5.9-1.6 7.5c-2.4 10.9-10.6 22.5-18.5 26.3-5.7 2.8-16.7 2.8-24.6 0-16.1-5.7-24.7-18-35.7-51.5-3.2-9.7-5.6-15.3-6.1-14.8-1.7 1.7-3 16.4-2.4 26.1.8 12.1 3.7 25.4 8.7 39.8 8.3 24 19.3 40 28.7 41.9 3.6.7 5.8-1.3 7.3-6.9 3-11.3 11.7-21.9 21.6-26.4l5.7-2.6 6.5 1.6c7.7 2.1 18.9 7.4 20 9.6.5.9.9 6.7.9 12.9 0 6.3.6 18 1.2 26 .7 8.1 1 17.2.8 20.2-2.3 27.4-23.3 47-50.3 47-16.7 0-30.9-7-47.8-23.7-27.4-27.1-53.5-78.4-64.3-126.3-5.7-25.4-7.4-40.7-7.4-65.5 0-30.8 1.6-43.1 7.6-58.5 6-15.2 17.8-26 28.3-26 4.5 0 11.7 4.3 15.6 9.4 1.4 1.9 4.2 6.3 6.1 9.8 3.9 7.3 3.9 7.2 1.8-4.5-.8-4.9-1.6-13.1-1.7-18.2-.2-8.1.1-9.7 1.9-12.1 4.9-6.6 11.9-9.2 24.8-9.3l7.9-.1 4.2 4.2zM125 58.9c7 4.2 15.1 14.7 21.9 28.4 5.8 11.9 13.1 31.1 13.1 34.7 0 2.9-2.1 3.8-13.3 6-13.1 2.5-30.1 7.5-34.5 10.1-1.8 1-4.2 1.9-5.3 1.9-7.2 0-28.5-36.8-29.6-51.4-.5-5.8-.3-6.4 3.7-12.3 7.2-10.8 16.3-17 29.1-19.7 7.4-1.6 8.8-1.4 14.9 2.3zm53.9 105.3c3.5 8.2 47 133.4 50.7 145.8 2 6.9 4 13 4.5 13.6.6.7 2.5 1.5 4.3 1.8 4.9.9 7.9 4.8 14.4 18.6 7.4 15.6 17 38.7 17.8 42.8.8 4.2-.8 4.8-14.5 5.6-6.2.4-18.3 1.8-26.9 3.2-19.2 3-22.4 3-28.8 0-6.7-3.1-11.5-9-15.8-19.3-8-19.1-9.9-38.5-4.2-43.2 2.3-2 6.7 2.7 10.8 11.7 2.1 4.6 4.1 8.2 4.4 8 .9-1-5.7-25.9-11.1-41.8-3.2-9.1-9.5-24.6-14.2-34.5-4.7-9.9-12.5-27-17.3-38-12.3-27.8-12.8-29.1-21.4-46.4-4.2-8.5-7.6-16.5-7.6-17.8 0-4 10.9-7.9 33.5-11.7 19.8-3.4 19.3-3.4 21.4 1.6zm329.7 169.3c10.8 5.4 27.5 22.5 33.3 34.1 2.2 4.3 2.4 6 2.6 23.8.4 36.2 7.7 74.8 21.7 115.4 12.5 36.3 26.7 64.5 44.4 88.6 8.1 10.9 8 10.7 4.3 21.4-5.7 16.7-18.9 27.2-35 28-9.3.5-15.9-1.3-24.8-6.5-21.4-12.7-43.5-48.7-53.6-87.3-3-11.4-5.1-16.5-8.4-19.4-2.5-2.3-2.5-2-.6 5.3 2.5 9.6 6.5 63.2 5.5 73.1-1.5 13.9-6.1 26-12.2 31.6-5.2 5-8.9 6.4-16.5 6.4-7.7 0-16.2-3.3-22.5-8.9-3.2-2.8-3.6-3.8-4.3-9.9-4.5-43.5-21.4-100.6-43-144.7-16.8-34.4-43-71.6-55-78.1-2.1-1.1-3.8-2.9-4.2-4.3-.6-2.6 1.1-17.8 2.8-24.7 1-3.8 1.4-4.2 5.8-5.2 13.2-3 26.3-10.6 37-21.3l5.9-5.9 3.5 6.3c12.5 22.5 24.7 52 39.8 96.7 7.2 21.2 10.6 34 15 57.3 1.8 9.7 3.7 17.7 4.2 17.7s.6-8.1.2-18.8c-1.3-35.6 2.9-45.2 19.9-45.2 11.2 0 21.4 7.3 32.5 23.3 12 17.4 16.6 20.1 8.1 4.6-19.6-35.2-33.4-84.6-33.4-119.9 0-10.8.4-15.9 1.7-20.1 4.3-14.2 13.6-19.2 25.3-13.4zm-207.1 33.8c4.4 1.9 10.4 4.6 13.4 6.1l5.3 2.7-.8 6.7c-.5 3.7-.9 11.5-.9 17.4 0 10.2.1 10.8 3 15 1.7 2.3 5.6 6 8.7 8 8.5 5.7 23.2 24 36.5 45.8 3.8 6.2 4.2 7.7 7.2 25.9 4 23.7 8.9 44.1 13.6 56.2 1.9 5 3.5 9.3 3.5 9.6 0 .2-2.1.1-4.7-.3l-4.8-.6 3 3.1c3.2 3.5 11.8 8.6 20.5 12.1 3 1.3 5.8 2.6 6.2 2.9 1.5 1.4 11.8 55.7 11.8 62.6 0 1-4.8 4.8-8.4 6.7-5.4 2.8-15.1 2.1-22.1-1.5-14.6-7.3-29.4-27.4-41.7-56.4-6-14.2-8.6-26-6.9-32 .6-2.3 2.3-5.5 3.6-7.1 1.4-1.7 2.5-3.9 2.5-5v-2l-5.7 2c-4.7 1.6-7.5 1.9-14.8 1.6-4.9-.3-11.2-1.3-13.8-2.2-2.7-1-5.1-1.5-5.4-1.2-.3.2 3.3 4.4 7.9 9.3 9.3 9.8 14.5 18.8 20.3 34.8 3.7 10.1 10.4 24.5 18 38.3 3.7 6.7 4.5 9.2 4.5 13.3 0 7.2-2.2 10.4-10 14.2-12 5.9-24.8 4.8-42.5-3.8-10.1-4.8-21.6-13.2-23.3-17-.9-1.8-.8-4.2.3-10 3.3-17.3 1.1-41.5-5.9-64.7-5.8-19-17.3-46.3-31.2-74-6.5-12.9-8.4-18.9-9.1-29l-.6-8.8h2.9c1.6 0 6 .8 9.7 1.9 11.3 3.1 8.3-.2-7.3-7.9-5.8-2.9-12.1-6.5-14.1-8.1-3.5-2.8-9.9-13.2-8.8-14.3 1.1-1.1 27.6-4.7 40.4-5.5 17.5-1.1 22-3.3 26.4-13.1 2.4-5.2 2.7-11 .7-14.8-.7-1.5-1.7-4.5-2.1-6.7-.3-2.2-1.8-7.1-3.1-10.9-1.3-3.8-2.4-7.1-2.4-7.2 0-.4 11.3 3.9 20.5 7.9z"/><path d="M307.5 462c-1.1 1.2-1.9 4.2-2.2 8.3-1 11.9 4.2 23 14.6 31.5 5.1 4.1 6.9 4.8 5.9 2-.3-.7-.7-1.8-.8-2.3-.1-.6-1.2-2.8-2.3-5-1.6-3.1-2.2-6.7-2.7-16-.7-12.6-2.2-17.5-5.9-19.5-2.9-1.5-4.6-1.2-6.6 1z"/></svg>