<svg width="10.86mm" height="6.1629mm" version="1.1" viewBox="0 0 10.86 6.1629" xmlns="http://www.w3.org/2000/svg" xmlns:xlink="http://www.w3.org/1999/xlink"><defs><linearGradient id="a" x1="63.234" x2="63.234" y1="159.39" y2="162.43" gradientUnits="userSpaceOnUse"><stop stop-color="#f0f" offset="0"/><stop stop-color="#621aff" offset="1"/></linearGradient></defs><g transform="translate(-54.57 -157.94)" stroke-width=".26458"><path d="m61.76 160.1c-0.254-0.27517-0.53975-0.47625-0.762-0.62442-0.43392-0.27516-1.2806-0.83608-1.524-1.3017-0.0635-0.11642-0.15875-0.1905-0.27517-0.22225-0.03175-0.0106-0.07408-0.0106-0.10583-0.0106-0.08467 0-0.16933 0.0212-0.24342 0.0741-0.56092 0.26458-0.75141 1.5134-0.77258 2.0426-0.02117 0.37042 0.20108 0.60325 0.3175 0.73025 0.05292 0.0529 0.10583 0.0952 0.15875 0.13758v0.0952c0 1.1218 0.58208 2.9422 1.9473 2.9422 0.508 0 0.96308-0.37041 1.2594-0.74083 0.33866-0.43391 0.52916-0.9525 0.56091-1.5452 0.03175-0.61383-0.15875-1.1536-0.5715-1.6087z"/><path d="m61.94 161.66c-0.05292 0.75142-0.46567 1.6087-1.2171 1.8732-0.07408 0.0318-0.14817 0.0423-0.23283 0.0423-0.08467 0-0.17992-0.0106-0.26458-0.0318-0.84666-0.16933-1.2171-1.5134-1.2806-2.286-0.01058-0.10584 0-0.21167 0-0.3175 0-0.0423 0.02117-0.0317 0.04233-0.0212 0.10583 0.0423 0.22225 0.0741 0.33867 0.0953 0.01058 0 0.02117 0 0.04233-0.0106-0.09525-0.0635-0.1905-0.11642-0.27517-0.16934-0.14817-0.0952-0.30692-0.17991-0.43392-0.30691-0.11642-0.127-0.22225-0.254-0.21167-0.4445 0.02117-0.51858 0.15875-1.3335 0.55033-1.7251 0.02117-0.0106 0.04233-0.0212 0.0635-0.0317 0.01058-0.0106 0.03175-0.0106 0.04233-0.0106 0.02117 0 0.04233 0.0106 0.05292 0.0423 0.29633 0.55033 1.1324 1.1007 1.6404 1.4288 0.24342 0.15875 0.47625 0.33866 0.67733 0.56091 0.33867 0.37042 0.49742 0.81492 0.46567 1.3335z" fill="url(#a)"/><path d="m60.543 161.82c-0.04233-0.0529-0.381-0.30691-0.46566-0.33866-0.01058-0.0106-0.03175-0.0212-0.04233-0.0106-0.01058 0.0212 0.01058 0.0318 0.02117 0.0423 0.07408 0.0635 0.27517 0.28575 0.27517 0.39158-0.02117 0.16933 0.01058 0.32808 0.127 0.45508 0.03175 0.0317 0.0635 0.0529 0.11642 0.0529 0.11642 0 0.1905-0.10584 0.16933-0.22225-0.02117-0.14817-0.10583-0.26459-0.1905-0.381z"/><path d="m59.726 163.28c-0.02117-0.127-0.05292-0.24341-0.08467-0.34924l-0.02117-0.0529c-0.05292-0.16933-0.15875-0.45508-0.28575-0.58208 0.09525-0.127 0.127-0.29634 0.08467-0.49742-0.08467-0.42333-0.41275-1.0583-0.89958-1.1218h-0.01058v-0.0317c-0.04233-0.0847-0.07408-0.15875-0.09525-0.23283-0.13758-0.45508-0.17992-0.86783-0.14817-1.2594 0.01058-0.11642 0.02117-0.20109 0.05292-0.254 0.127-0.21167 0.0635-0.45508-0.14817-0.58208-0.28575-0.17992-0.56092-0.254-0.889-0.254-0.29633 0.0106-0.56092 0.1905-0.6985 0.46566-0.21167-0.27516-0.49742-0.46566-0.84666-0.46566-0.65616 0-1.016 0.65616-1.1536 1.2171-0.05292 0.23283 0.0635 0.4445 0.28575 0.51858 0.01058 0.0106 0.02117 0.0212 0.03175 0.0318 0.02117 0.0106 0.05292 0.0529 0.08467 0.0952l0.01058 0.0106c0.09525 0.127 0.14817 0.24342 0.16933 0.35983 0.03175 0.17992 0.02117 0.35984 0.01058 0.51859-0.01058 0.17991-0.04233 0.35983-0.08467 0.55033-0.01058 0.0635-0.02117 0.127-0.03175 0.20108-0.02117 0.127-0.01058 0.24342 0.04233 0.34925 0.08467 0.17991 0.21167 0.29633 0.30692 0.381l0.01058 0.0106c0.13758 0.127 0.30692 0.1905 0.49742 0.20108 0.21167 0 0.42333 0 0.635-0.0318h0.04233c0.10583-0.0106 0.20108-0.0212 0.30692-0.0212 0.05292 0 0.11642 0 0.16933 0.0106-0.02117 0.0318-0.04233 0.0635-0.05292 0.0953-0.05292 0.0952-0.09525 0.26458-0.02117 0.48683 0.14817 0.43392 0.47625 1.0054 0.98425 1.0372h0.0635c0.17992 0.0106 0.37042 0.0212 0.56092 0.0212 0.11642 0 0.23283 0 0.34925-0.0106h0.03175c0.3175-0.0317 0.65616-0.0635 0.74083-0.4445 0.02117-0.127 0.02117-0.24342 0.01058-0.35983z"/><path d="m59.345 163.58c-0.01058 0.0635-0.04233 0.0952-0.09525 0.10583-0.20108 0.0423-0.40217 0.0529-0.60325 0.0529-0.21167 0-0.42333-0.0106-0.635-0.0212-0.30692-0.0212-0.56092-0.51858-0.64558-0.77258-0.05292-0.16933 0.02117-0.254 0.15875-0.29633 0.11642-0.0317 0.24342-0.0529 0.35983-0.0847l0.09525-0.0318c-0.01058-0.0212-0.03175-0.0212-0.04233-0.0212-0.1905-0.0423-0.37042-0.11641-0.508-0.27516-0.05292-0.0635-0.10583-0.0847-0.17992-0.0953-0.09525-0.0212-0.1905-0.0212-0.28575-0.0212-0.127 0-0.254 0.0106-0.381 0.0212-0.21167 0.0318-0.42333 0.0318-0.635 0.0318-0.1905 0-0.39158-0.1905-0.47625-0.34925-0.02117-0.0423-0.02117-0.0847-0.01058-0.127 0.05292-0.26458 0.11642-0.52917 0.13758-0.80433 0.01058-0.20108 0.01058-0.40217-0.02117-0.60325-0.03175-0.1905-0.11642-0.35983-0.23283-0.51858-0.05292-0.0635-0.09525-0.127-0.15875-0.17992-0.04233-0.0317-0.08467-0.0635-0.13758-0.0847-0.04233-0.0106-0.05292-0.0318-0.04233-0.0741 0.09525-0.35983 0.30692-0.92074 0.762-0.92074 0.10583 0 0.20108 0.0212 0.29633 0.0847 0.46566 0.27517 0.66675 1.0266 0.6985 1.524 0.01058 0.13758 0.03175 0.27516 0.02117 0.41275-0.03175 0.33866-0.14817 0.43391-0.40216 0.62441 0.09525-0.0212 0.1905-0.0423 0.28575-0.0635 0.127-0.0212 0.254-0.0423 0.381-0.0423 0.04233 0 0.04233-0.0106 0.02117-0.0529-0.127-0.27516-0.20108-0.56091-0.21167-0.86783-0.01058-0.30691-0.02117-0.61383-0.02117-0.92075 0-0.3175 0.07408-0.74083 0.47625-0.76199 0.254 0 0.4445 0.0529 0.66675 0.1905 0.03175 0.0212 0.04233 0.0423 0.02117 0.0741-0.07408 0.127-0.09525 0.26458-0.10583 0.40216-0.04233 0.47625 0.02117 0.94192 0.15875 1.397 0.03175 0.0953 0.07408 0.1905 0.11642 0.28575 0.03175 0.0635 0.05292 0.127 0.0635 0.1905 0.01058 0.0317 0.02117 0.0423 0.04233 0.0423h0.03175 0.05292c0.05292 0 0.09525 0 0.13758 0.0106 0.28575 0.0317 0.53975 0.59267 0.58208 0.8255 0.04233 0.1905-0.02117 0.27517-0.20108 0.27517-0.0635 0-0.11642 0.0106-0.16933 0.0318-0.03175 0.0106-0.03175 0.0212-0.02117 0.0529l0.09525 0.1905c0.01058 0.0212 0.03175 0.0318 0.05292 0.0318 0.15875 0 0.24342 0.0529 0.3175 0.1905 0.08467 0.17992 0.1905 0.508 0.21167 0.6985 0.01058 0.0741 0 0.14817-0.01058 0.22225z" fill="url(#a)"/><g transform="translate(0 .10319)"><path d="m65.412 163.18c-0.02117-0.127-0.05292-0.24341-0.08467-0.34924l-0.02117-0.0529c-0.05292-0.16933-0.15875-0.45508-0.28575-0.58208 0.09525-0.127 0.127-0.29634 0.08467-0.49742-0.08467-0.42333-0.41275-1.0583-0.89958-1.1218h-0.01058v-0.0317c-0.04233-0.0847-0.07408-0.15875-0.09525-0.23283-0.13758-0.45508-0.17992-0.86783-0.14817-1.2594 0.01058-0.11642 0.02117-0.20109 0.05292-0.254 0.127-0.21167 0.0635-0.45508-0.14817-0.58208-0.28575-0.17992-0.56092-0.254-0.889-0.254-0.29633 0.0106-0.56092 0.1905-0.6985 0.46566-0.21167-0.27516-0.49742-0.46566-0.84666-0.46566-0.65616 0-1.016 0.65616-1.1536 1.2171-0.05292 0.23283 0.0635 0.4445 0.28575 0.51858 0.01058 0.0106 0.02117 0.0212 0.03175 0.0318 0.02117 0.0106 0.05292 0.0529 0.08467 0.0952l0.01058 0.0106c0.09525 0.127 0.14817 0.24342 0.16933 0.35983 0.03175 0.17992 0.02117 0.35984 0.01058 0.51859-0.01058 0.17991-0.04233 0.35983-0.08467 0.55033-0.01058 0.0635-0.02117 0.127-0.03175 0.20108-0.02117 0.127-0.01058 0.24342 0.04233 0.34925 0.08467 0.17991 0.21167 0.29633 0.30692 0.381l0.01058 0.0106c0.13758 0.127 0.30692 0.1905 0.49742 0.20108 0.21167 0 0.42333 0 0.635-0.0318h0.04233c0.10583-0.0106 0.20108-0.0212 0.30692-0.0212 0.05292 0 0.11642 0 0.16933 0.0106-0.02117 0.0318-0.04233 0.0635-0.05292 0.0953-0.05292 0.0952-0.09525 0.26458-0.02117 0.48683 0.14817 0.43392 0.47625 1.0054 0.98425 1.0372h0.0635c0.17992 0.0106 0.37042 0.0212 0.56092 0.0212 0.11642 0 0.23283 0 0.34925-0.0106h0.03175c0.3175-0.0317 0.65616-0.0635 0.74083-0.4445 0.02117-0.127 0.02117-0.24342 0.01058-0.35983z"/><path d="m65.031 163.47c-0.01058 0.0635-0.04233 0.0952-0.09525 0.10583-0.20108 0.0423-0.40216 0.0529-0.60325 0.0529-0.21167 0-0.42333-0.0106-0.635-0.0212-0.30692-0.0212-0.56092-0.51858-0.64558-0.77258-0.05292-0.16933 0.02117-0.254 0.15875-0.29633 0.11642-0.0317 0.24342-0.0529 0.35983-0.0847l0.09525-0.0318c-0.01058-0.0212-0.03175-0.0212-0.04233-0.0212-0.1905-0.0423-0.37042-0.11641-0.508-0.27516-0.05292-0.0635-0.10583-0.0847-0.17992-0.0953-0.09525-0.0212-0.1905-0.0212-0.28575-0.0212-0.127 0-0.254 0.0106-0.381 0.0212-0.21167 0.0318-0.42333 0.0318-0.635 0.0318-0.1905 0-0.39158-0.1905-0.47625-0.34925-0.02117-0.0423-0.02117-0.0847-0.01058-0.127 0.05292-0.26458 0.11642-0.52917 0.13758-0.80433 0.01058-0.20108 0.01058-0.40217-0.02117-0.60325-0.03175-0.1905-0.11642-0.35983-0.23283-0.51858-0.05292-0.0635-0.09525-0.127-0.15875-0.17992-0.04233-0.0317-0.08467-0.0635-0.13758-0.0847-0.04233-0.0106-0.05292-0.0318-0.04233-0.0741 0.09525-0.35983 0.30692-0.92074 0.762-0.92074 0.10583 0 0.20108 0.0212 0.29633 0.0847 0.46566 0.27517 0.66675 1.0266 0.6985 1.524 0.01058 0.13758 0.03175 0.27516 0.02117 0.41275-0.03175 0.33866-0.14817 0.43391-0.40217 0.62441 0.09525-0.0212 0.1905-0.0423 0.28575-0.0635 0.127-0.0212 0.254-0.0423 0.381-0.0423 0.04233 0 0.04233-0.0106 0.02117-0.0529-0.127-0.27516-0.20108-0.56091-0.21167-0.86783-0.01058-0.30691-0.02117-0.61383-0.02117-0.92075 0-0.3175 0.07408-0.74083 0.47625-0.76199 0.254 0 0.4445 0.0529 0.66675 0.1905 0.03175 0.0212 0.04233 0.0423 0.02117 0.0741-0.07408 0.127-0.09525 0.26458-0.10583 0.40216-0.04233 0.47625 0.02117 0.94192 0.15875 1.397 0.03175 0.0953 0.07408 0.1905 0.11642 0.28575 0.03175 0.0635 0.05292 0.127 0.0635 0.1905 0.01058 0.0317 0.02117 0.0423 0.04233 0.0423h0.03175 0.05292c0.05292 0 0.09525 0 0.13758 0.0106 0.28575 0.0317 0.53975 0.59267 0.58208 0.8255 0.04233 0.1905-0.02117 0.27517-0.20108 0.27517-0.0635 0-0.11642 0.0106-0.16933 0.0318-0.03175 0.0106-0.03175 0.0212-0.02117 0.0529l0.09525 0.1905c0.01058 0.0212 0.03175 0.0318 0.05292 0.0318 0.15875 0 0.24342 0.0529 0.3175 0.1905 0.08467 0.17992 0.1905 0.508 0.21167 0.6985 0.01058 0.0741 0 0.14817-0.01058 0.22225z" fill="url(#a)"/></g></g></svg>
