<svg width="5.1286mm" height="6.6146mm" version="1.1" viewBox="0 0 5.1286 6.6146" xmlns="http://www.w3.org/2000/svg" xmlns:xlink="http://www.w3.org/1999/xlink"><defs><linearGradient id="a" x1="59.6" x2="59.6" y1="86.666" y2="88.781" gradientUnits="userSpaceOnUse"><stop stop-color="#f0f" offset="0"/><stop stop-color="#621aff" offset="1"/></linearGradient></defs><g transform="translate(-58.228 -85.709)"><g transform="matrix(1.8786 0 0 1.8786 -51.161 -75.307)" stroke-width=".26458"><path d="m60.74 88.912c0.34424-0.46398 0.24696-0.96538-0.05987-1.4069 0.20954-0.46398 0.35921-1.1225-0.0449-1.5266-0.02245-0.02245-0.05238-0.05238-0.0898-0.07484l-0.02245-0.02245c-0.06735-0.05239-0.18709-0.15715-0.38166-0.17212-0.1347 0-0.26192 0.0075-0.38166 0.03742-0.20206 0.03742-0.34424 0.19457-0.35173 0.39663-0.0075 0.08232-0.02245 0.15715-0.05238 0.23199-0.11226-0.08232-0.20206-0.15715-0.29186-0.23199-0.03742-0.03742-0.16464-0.14967-0.35173-0.12722-0.18709 0.02245-0.28438 0.16464-0.3143 0.20954-0.35921 0.53881-0.09729 1.0701 0.30682 1.4743-0.08232 0.15716-0.20206 0.35173-0.34424 0.52385-0.21702 0.26192-0.05238 0.5014 0.14219 0.69597 0.51636 0.51636 0.86809 0.32928 1.3246-0.12722l0.1347 0.1347c0.02994 0.0449 0.05987 0.0898 0.0898 0.11974 0.07484 0.07484 0.14967 0.10477 0.21702 0.11225 0.19457 0.02993 0.30682-0.06735 0.43404-0.19457z"/><path d="m60.276 88.762c-0.01497-0.02993-0.03742-0.05238-0.05987-0.07483-0.02993-0.02993-0.05987-0.05987-0.09728-0.08232-0.07483-0.05987-0.14218-0.12722-0.20954-0.19457l-0.1347-0.1347c-0.02994 0.0449-0.05987 0.0898-0.0898 0.1347l-0.0449 0.0449c-0.05239 0.06735-0.11226 0.12722-0.17212 0.18708-0.27689 0.27689-0.41908 0.35921-0.69597 0.08232-0.0449-0.0449-0.09729-0.09729-0.13471-0.14967-0.01497-0.01497-0.01497-0.02993 0.0075-0.05238 0.15715-0.18709 0.29186-0.39662 0.41908-0.61365 0.0075-0.02245 0.01496-0.0449 0.02245-0.06735 0.02994-0.0449 0.05987-0.0898 0.0898-0.1347-0.05238-0.05238-0.10477-0.10477-0.15715-0.15715-0.27689-0.27689-0.58371-0.61365-0.29934-1.0178 0.0449-0.05986 0.05987-0.05987 0.11225-0.0075 0.16464 0.14967 0.33676 0.29186 0.51636 0.42656l0.0449 0.0449c0.0449 0.02994 0.08981 0.05987 0.1347 0.0898 0.02993-0.07483 0.05987-0.14967 0.0898-0.22451 0.02993-0.07483 0.05987-0.14967 0.0898-0.2245 0.03742-0.11226 0.05987-0.22451 0.05987-0.34424 0-0.02994 0.01496-0.0449 0.05238-0.05238 0.23947-0.05987 0.29934-0.0449 0.48643 0.09729 0.15715 0.15715 0.21702 0.24696 0.19457 0.49391-0.0075 0.23199-0.07484 0.44901-0.17212 0.65107-0.02993 0.07483-0.06735 0.14219-0.10477 0.20954 0.29186 0.29186 0.46398 0.76332 0.19457 1.1225l-0.02245 0.02245c-0.02993 0.02993-0.0449 0.0449-0.05987 0.02993-0.0075-0.0075-0.01497-0.01497-0.02245-0.03741z" fill="url(#a)"/></g></g></svg>
