<?xml version="1.0" encoding="UTF-8" standalone="no"?>
<svg
   xmlns:dc="http://purl.org/dc/elements/1.1/"
   xmlns:cc="http://creativecommons.org/ns#"
   xmlns:rdf="http://www.w3.org/1999/02/22-rdf-syntax-ns#"
   xmlns:svg="http://www.w3.org/2000/svg"
   xmlns="http://www.w3.org/2000/svg"
   xmlns:xlink="http://www.w3.org/1999/xlink"
   xmlns:sodipodi="http://sodipodi.sourceforge.net/DTD/sodipodi-0.dtd"
   xmlns:inkscape="http://www.inkscape.org/namespaces/inkscape"
   width="13.976423mm"
   height="16.287266mm"
   viewBox="0 0 13.976423 16.287266"
   version="1.1"
   id="svg2443"
   inkscape:version="1.0.2 (1.0.2+r75+1)"
   sodipodi:docname="down-arrows.svg">
  <defs
     id="defs2437">
    <linearGradient
       inkscape:collect="always"
       id="linearGradient2273">
      <stop
         style="stop-color:#ff00ff;stop-opacity:1"
         offset="0"
         id="stop2269" />
      <stop
         style="stop-color:#641aff;stop-opacity:1"
         offset="1"
         id="stop2271" />
    </linearGradient>
    <linearGradient
       inkscape:collect="always"
       id="linearGradient2267">
      <stop
         style="stop-color:#ff00ff;stop-opacity:1"
         offset="0"
         id="stop2263" />
      <stop
         style="stop-color:#641aff;stop-opacity:1"
         offset="1"
         id="stop2265" />
    </linearGradient>
    <linearGradient
       inkscape:collect="always"
       id="linearGradient2255">
      <stop
         style="stop-color:#ff00ff;stop-opacity:1"
         offset="0"
         id="stop2251" />
      <stop
         style="stop-color:#641aff;stop-opacity:1"
         offset="1"
         id="stop2253" />
    </linearGradient>
    <linearGradient
       inkscape:collect="always"
       xlink:href="#linearGradient2255"
       id="linearGradient2257"
       x1="-215.70294"
       y1="-48.876255"
       x2="-215.70294"
       y2="-42.7747"
       gradientUnits="userSpaceOnUse"
       gradientTransform="matrix(0.77082442,0,0,0.77082442,-49.792204,-11.46281)" />
    <linearGradient
       inkscape:collect="always"
       xlink:href="#linearGradient2273"
       id="linearGradient2259"
       x1="-215.70294"
       y1="-48.876255"
       x2="-215.70294"
       y2="-42.7747"
       gradientUnits="userSpaceOnUse"
       gradientTransform="matrix(0.77082442,0,0,0.77082442,-49.792204,-11.46281)" />
    <linearGradient
       inkscape:collect="always"
       xlink:href="#linearGradient2267"
       id="linearGradient2261"
       x1="-215.70294"
       y1="-48.876255"
       x2="-215.70294"
       y2="-42.7747"
       gradientUnits="userSpaceOnUse"
       gradientTransform="matrix(0.77082442,0,0,0.77082442,-49.792204,-11.46281)" />
  </defs>
  <sodipodi:namedview
     id="base"
     pagecolor="#ffffff"
     bordercolor="#666666"
     borderopacity="1.0"
     inkscape:pageopacity="0.0"
     inkscape:pageshadow="2"
     inkscape:zoom="6.9929562"
     inkscape:cx="-8.2537782"
     inkscape:cy="22.613456"
     inkscape:document-units="mm"
     inkscape:current-layer="layer1"
     inkscape:document-rotation="0"
     showgrid="false"
     inkscape:pagecheckerboard="true"
     inkscape:showpageshadow="false"
     fit-margin-top="0"
     fit-margin-left="0"
     fit-margin-right="0"
     fit-margin-bottom="0"
     inkscape:window-width="1920"
     inkscape:window-height="1010"
     inkscape:window-x="1440"
     inkscape:window-y="0"
     inkscape:window-maximized="1"
     objecttolerance="1"
     guidetolerance="1" />
  <metadata
     id="metadata2440">
    <rdf:RDF>
      <cc:Work
         rdf:about="">
        <dc:format>image/svg+xml</dc:format>
        <dc:type
           rdf:resource="http://purl.org/dc/dcmitype/StillImage" />
        <dc:title></dc:title>
      </cc:Work>
    </rdf:RDF>
  </metadata>
  <g
     inkscape:label="Layer 1"
     inkscape:groupmode="layer"
     id="layer1"
     transform="translate(222.48954,54.853934)">
    <g
       aria-label="© "
       id="text903"
       style="font-size:10.5833px;line-height:1.25;font-family:'Rebeland Outline';-inkscape-font-specification:'Rebeland Outline';stroke-width:0.264583"
       transform="translate(0.07391245,-0.0172225)">
      <path
         style="fill:#621aff;fill-opacity:1;stroke-width:1.15676"
         d="m -208.58703,-47.016972 c -0.509,-3.840463 -3.51657,-7.819739 -7.68094,-7.819739 -1.89707,0 -3.51657,0.83287 -4.71958,2.406075 -1.06424,1.388119 -1.61949,3.100133 -1.57323,5.043497 0,4.256899 3.10017,8.837694 7.63467,8.837694 2.08219,0 4.02556,-1.064226 5.18231,-2.961324 0.97169,-1.66574 1.34183,-3.516565 1.06421,-5.506203 z"
         id="path905" />
      <path
         style="fill:#eaff00;fill-opacity:1;stroke-width:1.15676"
         d="m -211.22447,-42.389909 c -0.18494,0.323881 -0.41623,0.601519 -0.64777,0.87914 -0.83287,0.832874 -1.85086,1.341849 -3.10013,1.341849 -2.4061,0 -4.25692,-1.804556 -5.22861,-3.886733 -0.50894,-1.064224 -0.78657,-2.174719 -0.74031,-3.331486 -0.0463,-1.480658 0.32397,-2.822508 1.24931,-3.979272 0.92539,-1.156768 2.03588,-1.712018 3.51656,-1.712018 3.2852,0.09256 5.55249,3.424031 5.92263,6.431621 0.18494,1.573199 -0.0927,3.053862 -0.92538,4.395712 z"
         id="path910" />
    </g>
    <g
       id="g868">
      <path
         style="font-size:10.5833px;line-height:1.25;font-family:'Rebeland Outline';-inkscape-font-specification:'Rebeland Outline';stroke-width:0.203947"
         d="m -213.74445,-45.140635 c -0.11421,-0.301841 -0.35894,-0.45684 -0.67711,-0.45684 -0.13868,0.01632 -0.33447,0.09789 -0.81578,0.603682 l -0.16316,0.171316 c -0.20394,-0.456841 -0.36711,-0.717893 -0.93,-0.717893 -0.31815,0 -0.86472,0.130526 -0.92999,0.489473 -0.0163,0.08158 0,0.163156 0.0489,0.220262 0.31815,0.38342 0.79131,0.987101 0.85656,1.125785 0.0244,0.04895 0.0653,0.08974 0.11422,0.11421 0.15499,0.106052 0.57105,0.187631 0.76684,0.187631 0.20395,0 0.38343,-0.04895 0.53026,-0.146841 0.43236,-0.285526 1.085,-1.239996 1.15841,-1.354206 0.0245,-0.02447 0.0326,-0.05711 0.0408,-0.08974 0.0163,-0.05711 0.008,-0.106052 -0.0163,-0.154999 z"
         id="path2217" />
      <path
         style="font-size:10.5833px;line-height:1.25;font-family:'Rebeland Outline';-inkscape-font-specification:'Rebeland Outline';fill:url(#linearGradient2261);fill-opacity:1;stroke-width:0.203947"
         d="m -213.97288,-45.042739 c 0,0 -0.68525,1.011574 -1.08499,1.272627 -0.12236,0.07342 -0.25289,0.106051 -0.39157,0.106051 -0.32632,0 -0.64448,-0.163158 -0.64448,-0.163158 -0.11421,-0.220262 -0.90553,-1.174732 -0.90553,-1.174732 0.0408,-0.171315 0.35895,-0.277367 0.66895,-0.277367 0.20395,0 0.40789,0.04895 0.49763,0.171315 0.22843,0.309999 0.33447,0.807629 0.33447,0.807629 0,0 0.84027,-1.011575 1.10132,-1.044207 0.19579,0 0.33447,0.130526 0.41605,0.301842 z"
         id="path2207" />
      <path
         style="font-size:10.5833px;line-height:1.25;font-family:'Rebeland Outline';-inkscape-font-specification:'Rebeland Outline';stroke-width:0.203947"
         d="m -213.74445,-47.350693 c -0.11421,-0.301841 -0.35894,-0.456841 -0.67711,-0.456841 -0.13868,0.01632 -0.33447,0.09789 -0.81578,0.603683 l -0.16316,0.171315 c -0.20394,-0.456841 -0.36711,-0.717892 -0.93,-0.717892 -0.31815,0 -0.86472,0.130526 -0.92999,0.489472 -0.0163,0.08158 0,0.163157 0.0489,0.220262 0.31815,0.38342 0.79131,0.987102 0.85656,1.125786 0.0244,0.04894 0.0653,0.08974 0.11422,0.11421 0.15499,0.106052 0.57105,0.187631 0.76684,0.187631 0.20395,0 0.38343,-0.04895 0.53026,-0.146842 0.43236,-0.285525 1.085,-1.239995 1.15841,-1.354205 0.0245,-0.02447 0.0326,-0.05711 0.0408,-0.08974 0.0163,-0.05711 0.008,-0.106052 -0.0163,-0.155 z"
         id="path2221" />
      <path
         style="font-size:10.5833px;line-height:1.25;font-family:'Rebeland Outline';-inkscape-font-specification:'Rebeland Outline';fill:url(#linearGradient2257);fill-opacity:1;stroke-width:0.203947"
         d="m -213.97288,-47.252798 c 0,0 -0.68525,1.011575 -1.08499,1.272627 -0.12236,0.07342 -0.25289,0.106051 -0.39157,0.106051 -0.32632,0 -0.64448,-0.163157 -0.64448,-0.163157 -0.11421,-0.220262 -0.90553,-1.174732 -0.90553,-1.174732 0.0408,-0.171316 0.35895,-0.277368 0.66895,-0.277368 0.20395,0 0.40789,0.04895 0.49763,0.171316 0.22843,0.309999 0.33447,0.807628 0.33447,0.807628 0,0 0.84027,-1.011575 1.10132,-1.044206 0.19579,0 0.33447,0.130526 0.41605,0.301841 z"
         id="path2211" />
      <path
         style="font-size:10.5833px;line-height:1.25;font-family:'Rebeland Outline';-inkscape-font-specification:'Rebeland Outline';stroke-width:0.203947"
         d="m -213.74445,-49.560751 c -0.11421,-0.301841 -0.35894,-0.456841 -0.67711,-0.456841 -0.13868,0.01632 -0.33447,0.09789 -0.81578,0.603682 l -0.16316,0.171316 c -0.20394,-0.456841 -0.36711,-0.717893 -0.93,-0.717893 -0.31815,0 -0.86472,0.130526 -0.92999,0.489473 -0.0163,0.08158 0,0.163156 0.0489,0.220262 0.31815,0.383419 0.79131,0.987102 0.85656,1.125785 0.0244,0.04895 0.0653,0.08974 0.11422,0.11421 0.15499,0.106052 0.57105,0.187632 0.76684,0.187632 0.20395,0 0.38343,-0.04895 0.53026,-0.146842 0.43236,-0.285525 1.085,-1.239997 1.15841,-1.354206 0.0245,-0.02447 0.0326,-0.05711 0.0408,-0.08974 0.0163,-0.05711 0.008,-0.106052 -0.0163,-0.154999 z"
         id="path2225" />
      <path
         style="font-size:10.5833px;line-height:1.25;font-family:'Rebeland Outline';-inkscape-font-specification:'Rebeland Outline';fill:url(#linearGradient2259);fill-opacity:1;stroke-width:0.203947"
         d="m -213.97288,-49.462856 c 0,0 -0.68525,1.011574 -1.08499,1.272627 -0.12236,0.07342 -0.25289,0.106051 -0.39157,0.106051 -0.32632,0 -0.64448,-0.163157 -0.64448,-0.163157 -0.11421,-0.220262 -0.90553,-1.174733 -0.90553,-1.174733 0.0408,-0.171315 0.35895,-0.277367 0.66895,-0.277367 0.20395,0 0.40789,0.04895 0.49763,0.171315 0.22843,0.31 0.33447,0.807629 0.33447,0.807629 0,0 0.84027,-1.011576 1.10132,-1.044206 0.19579,0 0.33447,0.130525 0.41605,0.301841 z"
         id="path2213" />
    </g>
    <text
       xml:space="preserve"
       style="font-size:10.5833px;line-height:1.25;font-family:'Rebeland Outline';-inkscape-font-specification:'Rebeland Outline';stroke-width:0.264583"
       x="-247.67467"
       y="-42.170864"
       id="text899"><tspan
         sodipodi:role="line"
         id="tspan897"
         x="-247.67467"
         y="-42.170864"
         style="stroke-width:0.264583" /></text>
  </g>
</svg>
