<?xml version="1.0" encoding="UTF-8" standalone="no"?>
<svg
   xmlns:dc="http://purl.org/dc/elements/1.1/"
   xmlns:cc="http://creativecommons.org/ns#"
   xmlns:rdf="http://www.w3.org/1999/02/22-rdf-syntax-ns#"
   xmlns:svg="http://www.w3.org/2000/svg"
   xmlns="http://www.w3.org/2000/svg"
   xmlns:xlink="http://www.w3.org/1999/xlink"
   xmlns:sodipodi="http://sodipodi.sourceforge.net/DTD/sodipodi-0.dtd"
   xmlns:inkscape="http://www.inkscape.org/namespaces/inkscape"
   width="101.05833mm"
   height="101.05833mm"
   viewBox="0 0 101.05833 101.05833"
   version="1.1"
   id="svg8"
   inkscape:version="1.0.2 (1.0.2+r75+1)"
   sodipodi:docname="favicon-src.svg">
  <defs
     id="defs2">
    <linearGradient
       id="a"
       x1="102.7"
       x2="102.7"
       y1="121.54"
       y2="124.58"
       gradientTransform="translate(-83.275,-113.4084)"
       gradientUnits="userSpaceOnUse"
       xlink:href="#e" />
    <linearGradient
       id="e">
      <stop
         stop-color="#f0f"
         offset="0"
         id="stop834" />
      <stop
         stop-color="#621aff"
         offset="1"
         id="stop836" />
    </linearGradient>
    <linearGradient
       inkscape:collect="always"
       xlink:href="#c"
       id="linearGradient1023"
       gradientUnits="userSpaceOnUse"
       x1="103.17"
       y1="115.88"
       x2="103.17"
       y2="119.12" />
    <linearGradient
       id="c">
      <stop
         stop-color="#00ff95"
         offset="0"
         id="stop840" />
      <stop
         stop-color="#eaff00"
         offset="1"
         id="stop842" />
    </linearGradient>
    <linearGradient
       inkscape:collect="always"
       xlink:href="#c"
       id="linearGradient1013"
       gradientUnits="userSpaceOnUse"
       gradientTransform="translate(-83.275,-113.4084)"
       x1="103.17"
       y1="115.88"
       x2="103.17"
       y2="119.12" />
    <linearGradient
       inkscape:collect="always"
       xlink:href="#e"
       id="linearGradient920"
       gradientUnits="userSpaceOnUse"
       gradientTransform="translate(-83.275,-113.4084)"
       x1="102.7"
       y1="121.54"
       x2="102.7"
       y2="124.58" />
    <linearGradient
       inkscape:collect="always"
       xlink:href="#c"
       id="linearGradient922"
       gradientUnits="userSpaceOnUse"
       x1="103.17"
       y1="115.88"
       x2="103.17"
       y2="119.12" />
  </defs>
  <sodipodi:namedview
     id="base"
     pagecolor="#ffffff"
     bordercolor="#666666"
     borderopacity="1.0"
     inkscape:pageopacity="0.0"
     inkscape:pageshadow="2"
     inkscape:zoom="0.64452047"
     inkscape:cx="-226.40156"
     inkscape:cy="212.38615"
     inkscape:document-units="mm"
     inkscape:current-layer="layer1"
     inkscape:document-rotation="0"
     showgrid="false"
     units="mm"
     inkscape:showpageshadow="false"
     inkscape:pagecheckerboard="true"
     fit-margin-top="0"
     fit-margin-left="0"
     fit-margin-right="0"
     fit-margin-bottom="0"
     inkscape:window-width="1920"
     inkscape:window-height="1010"
     inkscape:window-x="1440"
     inkscape:window-y="0"
     inkscape:window-maximized="1" />
  <metadata
     id="metadata5">
    <rdf:RDF>
      <cc:Work
         rdf:about="">
        <dc:format>image/svg+xml</dc:format>
        <dc:type
           rdf:resource="http://purl.org/dc/dcmitype/StillImage" />
        <dc:title></dc:title>
      </cc:Work>
    </rdf:RDF>
  </metadata>
  <g
     inkscape:label="Layer 1"
     inkscape:groupmode="layer"
     id="layer1"
     transform="translate(-0.62830502,-1.0053228)">
    <rect
       style="fill:#1323b4;fill-opacity:1;stroke:#eaff00;stroke-width:1.05833;stroke-linecap:round;stroke-linejoin:miter;stroke-miterlimit:4;stroke-dasharray:none;stroke-opacity:1"
       id="rect833"
       width="100"
       height="100"
       x="1.1574717"
       y="1.5344894"
       ry="22.118986" />
    <g
       id="g1183"
       transform="matrix(7.2931685,0,0,7.2931685,20.201386,2.6323995)"
       style="stroke-width:0.137115">
      <path
         d="M 5.92,10.88 C 5.8565,10.8482 5.793,10.8271 5.74008,10.8059 5.64483,10.7741 5.56016,10.7424 5.4755,10.70007 5.46492,10.66827 5.45433,10.63657 5.43317,10.60477 5.38025,10.47777 5.32734,10.34018 5.29559,10.2026 5.20034,9.8216 5.13684,9.4406 5.07334,9.0384 5.05217,8.9114 5.03101,8.7844 5.00984,8.6574 4.99926,8.6151 4.99926,8.5727 4.98867,8.51982 4.86167,7.31332 4.04676,6.90062 3.05197,6.49842 2.73447,6.37142 2.42755,6.255 2.14181,6.07508 2.04656,6.02218 1.96189,6.00098 1.89839,6.00098 c -0.47625,0 -0.5715,0.77259 -0.61383,1.1218 -0.03175,0.27517 -0.01058,0.55034 0.02117,0.80433 0.04233,0.3175 0.1905,0.5715 0.41275,0.73025 0,0.4445 0.05292,0.56092 0.254,0.9525 0.27517,0.56091 0.53975,1.143 0.635,1.7568 l 0.01058,0.0635 c 0.02117,0.11641 0.04233,0.22225 0.04233,0.3175 0,0.11641 -0.01058,0.22224 -0.04233,0.33866 -0.05292,0.20108 -0.02117,0.35983 0.11642,0.51858 0.26458,0.30692 0.83608,0.60325 1.2594,0.60325 0.28575,0 0.62441,-0.13758 0.79375,-0.381 0.04233,0.0212 0.08467,0.0423 0.127,0.0635 0.16933,0.0953 0.32808,0.127 0.45508,0.127 0.60325,0 0.94191,-0.66675 1.0054,-1.1853 0.05292,-0.35983 -0.14817,-0.762 -0.4445,-0.89958 z"
         id="path915"
         style="stroke-width:0.0362778" />
      <path
         d="m 5.994,11.78 c -0.04233,0.30692 -0.254,0.85724 -0.635,0.85724 -0.59266,0 -1.016,-0.93132 -1.1959,-1.4182 -0.02117,-0.0741 -0.04233,-0.14816 -0.05292,-0.22225 -0.02117,-0.14816 0.01058,-0.25399 0.08467,-0.33866 0.02117,-0.0212 0.04233,-0.0423 0.05292,-0.0741 v -0.0318 c -0.01058,-0.0212 -0.02117,-0.0106 -0.03175,-0.0106 -0.01058,0 -0.02117,0 -0.03175,0.0106 -0.09525,0.0529 -0.1905,0.0635 -0.29633,0.0635 -0.11642,0 -0.24342,-0.0212 -0.35983,-0.0635 -0.02117,-0.0106 -0.04233,-0.0318 -0.0635,-0.0212 0.02117,0.0635 0.0635,0.0953 0.10583,0.127 0.24342,0.21167 0.37042,0.48683 0.46566,0.78316 0.09525,0.26459 0.22225,0.508 0.35983,0.74083 0.127,0.21167 0.10583,0.41275 -0.0635,0.508 -0.11642,0.0635 -0.23283,0.10583 -0.37042,0.10583 -0.30692,0 -0.75142,-0.22224 -0.97366,-0.44449 -0.05292,-0.0635 -0.0635,-0.0952 -0.04233,-0.17992 0.03175,-0.13758 0.05292,-0.27516 0.05292,-0.42333 0,-0.8255 -0.45508,-1.7674 -0.8255,-2.4977 -0.11642,-0.254 -0.127,-0.33867 -0.127,-0.61383 0,-0.0423 0.02117,-0.0423 0.05292,-0.0423 0.10583,0.0212 0.21167,0.0423 0.32808,0.0847 -0.03175,-0.0529 -0.0635,-0.0741 -0.09525,-0.0952 -0.127,-0.0635 -0.254,-0.127 -0.381,-0.1905 C 1.78186,8.29798 1.67602,8.11811 1.64427,7.88528 1.61252,7.65245 1.59135,7.41962 1.6231,7.19737 1.65485,6.93278 1.70777,6.67878 1.80302,6.45654 1.8136,6.42474 1.83477,6.40364 1.85594,6.40364 c 0.01058,0 0.02117,0.0106 0.04233,0.0212 0.42333,0.26458 0.86783,0.40216 1.3017,0.58208 0.66675,0.27516 1.1112,0.58208 1.3335,1.3017 0.04233,0.14817 0.04233,0.30692 0.0635,0.45508 0.08467,0.52917 0.14817,1.0583 0.28575,1.5875 0.04233,0.16933 0.10583,0.32808 0.16933,0.48683 0.01058,0.0106 0.02117,0.0318 0.01058,0.0529 -0.01058,0.0106 -0.03175,0 -0.04233,0 -0.04233,-0.0106 -0.08467,-0.0212 -0.13758,-0.0318 0.04233,0.0635 0.08467,0.0952 0.127,0.127 0.1905,0.11642 0.381,0.20108 0.5715,0.26458 0.04233,0.0106 0.08467,0.0317 0.127,0.0529 0.13758,0.0635 0.26458,0.30692 0.23283,0.508 z"
         fill="url(#a)"
         id="path917"
         style="fill:url(#linearGradient920);stroke-width:0.0362778" />
      <path
         d="M 3.74,9.68 C 3.6765,9.5848 3.63417,9.47891 3.64475,9.35191 c 0.01058,-0.0529 0,-0.11641 0,-0.17991 C 3.63417,9.1297 3.63417,9.0873 3.62358,9.045 3.60241,8.9603 3.5495,8.89683 3.486,8.88625 3.44367,8.87565 3.38017,8.92855 3.36958,9.00266 3.34841,9.172 3.359,9.34133 3.45425,9.4895 3.52833,9.6165 3.62358,9.70116 3.72942,9.76466 3.74,9.77526 3.76117,9.79646 3.77175,9.77526 3.78233,9.75406 3.76117,9.74346 3.75058,9.73296 3.74,9.72236 3.72941,9.71176 3.71883,9.70126 Z"
         id="path919"
         style="stroke-width:0.0362778" />
    </g>
    <g
       id="g1187"
       transform="matrix(7.0681152,0,0,7.0681152,-45.319524,3.9648058)"
       style="stroke-width:0.14148">
      <path
         d="m 19.342,11.67 -0.0318,-0.0318 c -0.0423,-0.0529 -0.0847,-0.10583 -0.11642,-0.15875 -0.5715,-0.79375 -1.016,-2.0532 -1.1536,-3.0268 -0.0635,-0.41275 -0.0847,-0.75142 -0.0635,-1.0583 0.0106,-0.17992 -0.0318,-0.32808 -0.127,-0.48683 -0.22225,-0.34925 -0.6985,-0.89958 -1.1642,-0.89958 -0.5715,0 -0.73025,0.48683 -0.762,0.96308 -0.01058,0.24341 0.02117,0.47624 0.05292,0.69849 0.04233,0.33867 0.10583,0.64558 0.20108,0.93133 -0.13758,0 -0.26458,0.0318 -0.37042,0.0741 -0.03175,0.0106 -0.0635,0.0212 -0.08467,0.0423 C 15.58481,8.31508 15.43664,7.9235 15.28847,7.54254 15.11914,7.12979 14.97097,6.79112 14.76989,6.47364 14.63231,6.27256 14.37831,5.97623 14.10314,5.97623 c -0.27516,0 -0.56091,0.27517 -0.70908,0.48683 -0.23283,0.3175 -0.35983,0.71967 -0.40216,1.27 -0.02117,0.3175 0.17992,0.45508 0.26458,0.49741 0.09525,0.0423 0.254,0.24342 0.3175,0.32809 l 0.03175,0.0318 c 0.79375,0.99482 1.397,2.6882 1.524,3.9582 0.04233,0.42333 0.60325,0.65616 0.97366,0.65616 0.22225,-0.0106 0.635,-0.10583 0.83608,-0.65616 0.0212,-0.0741 0.0423,-0.14817 0.0635,-0.22225 0.28575,0.40216 0.79375,0.80433 1.3018,0.80433 0.60324,0 1.1007,-0.47625 1.1853,-1.0583 0.0318,-0.15875 -0.0106,-0.30692 -0.10583,-0.42333 z"
         id="path927"
         style="stroke-width:0.0374329" />
      <path
         d="m 19.12,12.01 c -0.0741,0.37041 -0.30692,0.68791 -0.6985,0.75141 -0.0423,0.0106 -0.0741,0.0106 -0.11642,0.0106 -0.81491,0 -1.4182,-1.2594 -1.5769,-1.9791 -0.02117,-0.10583 -0.0635,-0.21166 -0.11642,-0.30691 -0.02117,-0.0318 -0.04233,-0.0529 -0.07408,-0.0741 0,0.0318 0.01058,0.0635 0.02117,0.0952 0.05292,0.1905 0.05292,0.381 0.07408,0.5715 0.02117,0.21166 0.03175,0.42333 0.05292,0.63499 0.02117,0.26459 -0.01058,0.49742 -0.09525,0.71967 -0.09525,0.26458 -0.254,0.39158 -0.48683,0.40217 -0.17992,0 -0.34925,-0.0741 -0.508,-0.21167 -0.03175,-0.0212 -0.05292,-0.0529 -0.05292,-0.10583 -0.15875,-1.4922 -0.80433,-3.3126 -1.7992,-4.4556 -0.07408,-0.0847 -0.15875,-0.15875 -0.24342,-0.20109 -0.05292,-0.0212 -0.0635,-0.0529 -0.0635,-0.11641 0.03175,-0.4445 0.20108,-1.2277 0.6985,-1.4076 0.02117,0 0.03175,-0.0106 0.05292,-0.0106 0.02117,0 0.04233,0.0106 0.0635,0.0212 0.45508,0.27516 1.0901,2.2119 1.27,2.7728 0.08467,0.27517 0.13758,0.56092 0.1905,0.84667 0.02117,0.10583 0.04233,0.21166 0.0635,0.3175 0.04233,-0.17992 -0.01058,-0.381 -0.01058,-0.5715 0,-0.1905 0.01058,-0.381 0.0635,-0.55033 0.03175,-0.0953 0.09525,-0.14817 0.16933,-0.17992 0.0635,-0.0318 0.127,-0.0423 0.1905,-0.0423 0.16933,0 0.33867,0.10583 0.49742,0.26458 0.10583,0.10584 0.17991,0.24342 0.26458,0.35983 0.0529,0.0741 0.10583,0.13759 0.17992,0.17992 -0.0212,-0.0423 -0.0423,-0.0847 -0.0635,-0.11642 C 16.70698,8.99367 16.47415,8.29516 16.36832,7.57546 16.33657,7.3638 16.3154,7.15213 16.32599,6.94047 c 0.02117,-0.254 0.07408,-0.60325 0.40217,-0.60325 0.0635,0 0.11641,0.0212 0.17991,0.0529 0.254,0.15875 0.47625,0.381 0.65616,0.67733 0.0529,0.0847 0.0741,0.15875 0.0635,0.26458 -0.0212,0.381 0.0106,0.762 0.0741,1.143 0.15874,1.0795 0.67733,2.5506 1.3864,3.4078 0.0318,0.0317 0.0423,0.0741 0.0318,0.11642 z"
         fill="url(#a)"
         id="path929"
         style="fill:url(#a);stroke-width:0.0374329" />
    </g>
    <g
       stroke-width="0.035442"
       id="g949"
       transform="matrix(7.4651578,0,0,7.4651578,-612.7281,-840.79414)">
      <path
         d="m 87.711,120.14 c -0.01058,-0.0953 -0.03175,-0.17992 -0.05292,-0.24342 -0.127,-0.34924 -0.27516,-0.67733 -0.39158,-0.92074 -0.07408,-0.14817 -0.17992,-0.254 -0.3175,-0.3175 v -0.0318 c -0.04233,-0.13759 -0.08467,-0.27517 -0.127,-0.41275 -0.17992,-0.52917 -0.37042,-1.0583 -0.56092,-1.5875 l -0.3175,-0.88899 c -0.10583,-0.27517 -0.254,-0.30692 -0.52916,-0.30692 0.07408,-0.0423 0.11642,-0.0953 0.14817,-0.13758 0.11642,-0.17992 0.05292,-0.37042 0.03175,-0.43392 -0.16933,-0.5715 -0.53975,-1.4499 -1.2488,-1.4499 -0.41275,0.0529 -0.68792,0.22225 -0.92075,0.56092 -0.01058,0.0106 -0.02117,0.0212 -0.03175,0.0318 -0.08467,0.12699 -0.127,0.27516 -0.11642,0.43391 0.04233,0.34925 0.23283,0.68791 0.42333,0.98425 l 0.04233,0.0741 c 0.13758,0.21166 0.30692,0.29633 0.55033,0.29633 -0.05292,0.0529 -0.09525,0.11642 -0.11642,0.1905 -0.0635,0.1905 0.02117,0.34925 0.05292,0.41275 0.14817,0.27516 0.26458,0.508 0.37042,0.75141 0.05292,0.11642 0.10583,0.23283 0.15875,0.34925 0.11642,0.27517 0.24342,0.56092 0.381,0.83608 0.09525,0.17992 0.16933,0.381 0.24342,0.59267 -0.11642,0.0953 -0.16933,0.27516 -0.16933,0.42333 -0.01058,0.37041 0.10583,0.67733 0.21167,0.91016 0.14817,0.32808 0.45508,0.58208 0.8255,0.58208 0.09525,0 0.17992,-0.0106 0.24342,-0.0212 h 0.01058 c 0.30692,-0.0529 0.58208,-0.0952 0.85725,-0.0952 0.127,0 0.23283,-0.0529 0.30692,-0.13758 0.05292,-0.0635 0.11642,-0.17992 0.09525,-0.34925 z"
         id="path943"
         style="stroke-width:0.035442" />
      <path
         d="m 87.319,120.34 c -0.30692,0 -0.60325,0.0423 -0.89958,0.0953 -0.0635,0.0106 -0.127,0.0212 -0.20108,0.0212 -0.03175,0 -0.0635,0 -0.09525,-0.0106 -0.15875,-0.0423 -0.27517,-0.14816 -0.35983,-0.33866 -0.10583,-0.23284 -0.17992,-0.47625 -0.16933,-0.74083 0,-0.0318 0.01058,-0.0635 0.02117,-0.0953 0.01058,-0.0423 0.03175,-0.0741 0.0635,-0.0741 0.08467,0 0.1905,0.254 0.21167,0.3175 0.01058,0.0318 0.03175,0.0741 0.07408,0.0847 -0.05292,-0.17992 -0.07408,-0.37042 -0.13758,-0.55034 -0.10583,-0.30691 -0.20108,-0.62441 -0.34925,-0.91016 -0.1905,-0.37042 -0.34925,-0.762 -0.51858,-1.143 -0.11642,-0.26458 -0.24342,-0.51858 -0.37042,-0.77258 -0.05292,-0.0952 -0.04233,-0.127 0.03175,-0.15875 0.15875,-0.0741 0.32808,-0.10583 0.49742,-0.13758 0.13758,-0.0212 0.27516,-0.0423 0.41275,-0.0635 0.04233,-0.0106 0.0635,0.0106 0.08467,0.0529 0.28575,0.8255 0.58208,1.651 0.86783,2.4765 0.0635,0.17992 0.11642,0.37042 0.16933,0.56092 0.01058,0.0529 0.02117,0.0847 0.07408,0.0952 0.08467,0.0106 0.16933,0.0529 0.22225,0.15875 0.13758,0.28575 0.27517,0.58208 0.39158,0.88899 0.02117,0.0529 0.04233,0.10584 0.05292,0.15875 0.01058,0.0423 0,0.0635 -0.03175,0.0635 z"
         fill="url(#d)"
         id="path945"
         style="fill:url(#linearGradient922);stroke-width:0.035442" />
      <path
         d="m 84.303,115.46 c -0.02117,0.0106 -0.03175,0.0106 -0.05292,0.0106 -0.16933,0 -0.43392,-0.53975 -0.48683,-0.66675 -0.05292,-0.10583 -0.09525,-0.21166 -0.10583,-0.32808 -0.01058,-0.0741 0,-0.127 0.03175,-0.17991 0.17992,-0.27517 0.37042,-0.41275 0.70908,-0.45509 0.127,-0.0106 0.23283,0.0952 0.32808,0.1905 0.21167,0.21167 0.42333,0.70909 0.508,1.0054 0.03175,0.11641 0.01058,0.15875 -0.07408,0.16933 -0.30692,0.0529 -0.60325,0.11642 -0.889,0.24342 z"
         fill="url(#d)"
         id="path947"
         style="fill:url(#linearGradient1023);stroke-width:0.035442" />
    </g>
    <g
       id="g1178"
       transform="matrix(7.1707028,0,0,7.1707028,-98.554548,1.6765525)"
       style="stroke-width:0.139456">
      <path
         d="M 21.862,5.73 V 5.603 C 21.8408,5.39134 21.8197,5.19025 21.8408,5.01034 21.862,4.81984 21.7773,4.65051 21.61855,4.54467 c -0.0423,-0.0318 -0.0847,-0.0635 -0.13758,-0.0847 0.0847,-0.14816 0.127,-0.30691 0.15875,-0.45508 0.0318,-0.15875 -0.0106,-0.3175 -0.11642,-0.4445 C 21.4386,3.47569 21.17405,2.77723 21.12114,2.62906 20.96239,2.19515 20.8248,1.7189 20.68722,1.12626 l -0.0106,-0.0529 c -0.0423,-0.16933 -0.0847,-0.35983 -0.16933,-0.55033 -0.127,-0.27516 -0.33867,-0.43391 -0.64558,-0.43391 -0.35984,0 -0.81492,0.13758 -0.92075,0.51858 -0.0423,-0.0106 -0.0847,-0.0106 -0.11642,-0.0106 -0.52916,0 -0.86783,0.55033 -0.97366,1.0054 -0.0741,0.28575 -0.10583,0.60325 -0.10583,0.99483 0,0.381 0.0212,0.75142 0.10583,1.1324 l 0.0106,0.0529 c 0.24341,1.1959 1.1536,3.6512 2.6882,3.6512 0.41275,0 0.76199,-0.17991 1.0583,-0.46566 0.16933,-0.16933 0.26458,-0.40217 0.29633,-0.70908 0.0212,-0.17992 0.0106,-0.35983 0,-0.508 z"
         id="path901"
         style="stroke-width:0.0368974" />
      <path
         d="m 21.534,6.22 c -0.0529,0.508 -0.49742,0.85725 -0.99483,0.85725 -1.0266,0 -1.8521,-1.6828 -2.1272,-2.5718 -0.0847,-0.26458 -0.13759,-0.53975 -0.19051,-0.81491 -0.0212,-0.13758 -0.0423,-0.27517 -0.0635,-0.41275 -0.0212,-0.21167 -0.0212,-0.42333 -0.0212,-0.635 0,-0.49741 0.0529,-1.2912 0.53974,-1.5557 0.0635,-0.0318 0.11642,-0.0529 0.16934,-0.0529 0.16933,0 0.32808,0.14816 0.43391,0.35983 0.0423,0.0741 0.0741,0.15875 0.11642,0.24342 -0.0529,-0.27517 -0.0952,-0.48684 -0.0952,-0.762 0,-0.30692 0.37041,-0.34925 0.60325,-0.34925 0.11641,0.0106 0.21166,0.0847 0.27516,0.22225 0.0741,0.16933 0.11642,0.34925 0.15875,0.52916 0.20108,0.8255 0.43392,1.6933 0.84666,2.4448 0.0212,0.0423 0.0423,0.0847 0.0741,0.11641 0.0318,0.0423 0.0423,0.0847 0.0318,0.13759 -0.0318,0.19049 -0.0741,0.32808 -0.21166,0.46566 -0.10583,0.14817 -0.23283,0.20108 -0.381,0.20108 -0.43392,0 -0.68791,-0.254 -0.84666,-0.64558 -0.0952,-0.22225 -0.16934,-0.45508 -0.24342,-0.6985 -0.0106,-0.0212 -0.0106,-0.0529 -0.0317,-0.0529 -0.0212,-0.0106 -0.0212,0.0212 -0.0318,0.0423 -0.0212,0.0741 -0.0212,0.15875 -0.0318,0.24342 -0.0318,0.47625 0.10583,0.92075 0.28575,1.3547 0.0741,0.16933 0.21166,0.40217 0.37041,0.508 0.0529,0.0423 0.0952,0.0529 0.13759,0.0529 0.0635,0 0.10583,-0.0635 0.127,-0.1905 0.0529,-0.22225 0.32808,-0.52916 0.57149,-0.52916 0.0318,0 0.0635,0.0106 0.0953,0.0212 0.11642,0.0318 0.23284,0.0741 0.34925,0.14816 0.0423,0.0212 0.0635,0.0529 0.0635,0.10584 -0.0212,0.25399 0.0106,0.51858 0.0317,0.78316 0.0106,0.14817 0.0212,0.29633 0.0106,0.4445 z"
         fill="url(#b)"
         id="path903"
         style="fill:url(#linearGradient1013);stroke-width:0.0368974" />
    </g>
  </g>
</svg>
