<?xml version="1.0" encoding="UTF-8" standalone="no"?>
<svg
   xmlns:dc="http://purl.org/dc/elements/1.1/"
   xmlns:cc="http://creativecommons.org/ns#"
   xmlns:rdf="http://www.w3.org/1999/02/22-rdf-syntax-ns#"
   xmlns:svg="http://www.w3.org/2000/svg"
   xmlns="http://www.w3.org/2000/svg"
   xmlns:xlink="http://www.w3.org/1999/xlink"
   xmlns:sodipodi="http://sodipodi.sourceforge.net/DTD/sodipodi-0.dtd"
   xmlns:inkscape="http://www.inkscape.org/namespaces/inkscape"
   width="30.637131mm"
   height="8.3010855mm"
   viewBox="0 0 30.63713 8.3010854"
   version="1.1"
   id="svg2443"
   inkscape:version="1.0.2 (1.0.2+r75+1)"
   sodipodi:docname="free-quote-heading.svg">
  <defs
     id="defs2437">
    <linearGradient
       inkscape:collect="always"
       id="linearGradient7527">
      <stop
         style="stop-color:#00ff93;stop-opacity:1;"
         offset="0"
         id="stop7523" />
      <stop
         style="stop-color:#ebff00;stop-opacity:1"
         offset="1"
         id="stop7525" />
    </linearGradient>
    <linearGradient
       inkscape:collect="always"
       id="linearGradient7521">
      <stop
         style="stop-color:#00ff93;stop-opacity:1;"
         offset="0"
         id="stop7517" />
      <stop
         style="stop-color:#ebff00;stop-opacity:1"
         offset="1"
         id="stop7519" />
    </linearGradient>
    <linearGradient
       inkscape:collect="always"
       id="linearGradient7515">
      <stop
         style="stop-color:#00ff93;stop-opacity:1;"
         offset="0"
         id="stop7511" />
      <stop
         style="stop-color:#ebff00;stop-opacity:1"
         offset="1"
         id="stop7513" />
    </linearGradient>
    <linearGradient
       inkscape:collect="always"
       id="linearGradient7509">
      <stop
         style="stop-color:#00ff93;stop-opacity:1;"
         offset="0"
         id="stop7505" />
      <stop
         style="stop-color:#ebff00;stop-opacity:1"
         offset="1"
         id="stop7507" />
    </linearGradient>
    <linearGradient
       inkscape:collect="always"
       id="linearGradient7503">
      <stop
         style="stop-color:#00ff93;stop-opacity:1;"
         offset="0"
         id="stop7499" />
      <stop
         style="stop-color:#ebff00;stop-opacity:1"
         offset="1"
         id="stop7501" />
    </linearGradient>
    <linearGradient
       inkscape:collect="always"
       id="linearGradient7497">
      <stop
         style="stop-color:#00ff93;stop-opacity:1;"
         offset="0"
         id="stop7493" />
      <stop
         style="stop-color:#ebff00;stop-opacity:1"
         offset="1"
         id="stop7495" />
    </linearGradient>
    <linearGradient
       inkscape:collect="always"
       id="linearGradient7491">
      <stop
         style="stop-color:#00ff93;stop-opacity:1;"
         offset="0"
         id="stop7487" />
      <stop
         style="stop-color:#ebff00;stop-opacity:1"
         offset="1"
         id="stop7489" />
    </linearGradient>
    <linearGradient
       inkscape:collect="always"
       id="linearGradient7485">
      <stop
         style="stop-color:#00ff93;stop-opacity:1;"
         offset="0"
         id="stop7481" />
      <stop
         style="stop-color:#ebff00;stop-opacity:1"
         offset="1"
         id="stop7483" />
    </linearGradient>
    <linearGradient
       inkscape:collect="always"
       id="linearGradient7479">
      <stop
         style="stop-color:#00ff93;stop-opacity:1;"
         offset="0"
         id="stop7475" />
      <stop
         style="stop-color:#ebff00;stop-opacity:1"
         offset="1"
         id="stop7477" />
    </linearGradient>
    <linearGradient
       inkscape:collect="always"
       id="linearGradient7473">
      <stop
         style="stop-color:#00ff93;stop-opacity:1;"
         offset="0"
         id="stop7469" />
      <stop
         style="stop-color:#ebff00;stop-opacity:1"
         offset="1"
         id="stop7471" />
    </linearGradient>
    <linearGradient
       inkscape:collect="always"
       id="linearGradient7445">
      <stop
         style="stop-color:#00ff93;stop-opacity:1;"
         offset="0"
         id="stop7441" />
      <stop
         style="stop-color:#ebff00;stop-opacity:1"
         offset="1"
         id="stop7443" />
    </linearGradient>
    <linearGradient
       inkscape:collect="always"
       xlink:href="#linearGradient7445"
       id="linearGradient7447"
       x1="-175.91415"
       y1="-35.098972"
       x2="-175.91415"
       y2="-30.543118"
       gradientUnits="userSpaceOnUse" />
    <linearGradient
       inkscape:collect="always"
       xlink:href="#linearGradient7527"
       id="linearGradient7449"
       x1="-175.91415"
       y1="-35.098972"
       x2="-175.91415"
       y2="-30.543118"
       gradientUnits="userSpaceOnUse" />
    <linearGradient
       inkscape:collect="always"
       xlink:href="#linearGradient7521"
       id="linearGradient7451"
       x1="-175.91415"
       y1="-35.098972"
       x2="-175.91415"
       y2="-30.543118"
       gradientUnits="userSpaceOnUse" />
    <linearGradient
       inkscape:collect="always"
       xlink:href="#linearGradient7515"
       id="linearGradient7453"
       x1="-175.91415"
       y1="-35.098972"
       x2="-175.91415"
       y2="-30.543118"
       gradientUnits="userSpaceOnUse" />
    <linearGradient
       inkscape:collect="always"
       xlink:href="#linearGradient7509"
       id="linearGradient7455"
       x1="-175.91415"
       y1="-35.098972"
       x2="-175.91415"
       y2="-30.543118"
       gradientUnits="userSpaceOnUse" />
    <linearGradient
       inkscape:collect="always"
       xlink:href="#linearGradient7503"
       id="linearGradient7457"
       x1="-175.91415"
       y1="-35.098972"
       x2="-175.91415"
       y2="-30.543118"
       gradientUnits="userSpaceOnUse" />
    <linearGradient
       inkscape:collect="always"
       xlink:href="#linearGradient7497"
       id="linearGradient7459"
       x1="-175.91415"
       y1="-35.098972"
       x2="-175.91415"
       y2="-30.543118"
       gradientUnits="userSpaceOnUse" />
    <linearGradient
       inkscape:collect="always"
       xlink:href="#linearGradient7491"
       id="linearGradient7461"
       x1="-175.91415"
       y1="-35.098972"
       x2="-175.91415"
       y2="-30.543118"
       gradientUnits="userSpaceOnUse" />
    <linearGradient
       inkscape:collect="always"
       xlink:href="#linearGradient7485"
       id="linearGradient7463"
       x1="-175.91415"
       y1="-35.098972"
       x2="-175.91415"
       y2="-30.543118"
       gradientUnits="userSpaceOnUse" />
    <linearGradient
       inkscape:collect="always"
       xlink:href="#linearGradient7479"
       id="linearGradient7465"
       x1="-175.91415"
       y1="-35.098972"
       x2="-175.91415"
       y2="-30.543118"
       gradientUnits="userSpaceOnUse" />
    <linearGradient
       inkscape:collect="always"
       xlink:href="#linearGradient7473"
       id="linearGradient7467"
       x1="-175.91415"
       y1="-35.098972"
       x2="-175.91415"
       y2="-30.543118"
       gradientUnits="userSpaceOnUse" />
  </defs>
  <sodipodi:namedview
     id="base"
     pagecolor="#ffffff"
     bordercolor="#666666"
     borderopacity="1.0"
     inkscape:pageopacity="0.0"
     inkscape:pageshadow="2"
     inkscape:zoom="11.485926"
     inkscape:cx="59.223981"
     inkscape:cy="55.61744"
     inkscape:document-units="mm"
     inkscape:current-layer="layer1"
     inkscape:document-rotation="0"
     showgrid="false"
     inkscape:pagecheckerboard="true"
     inkscape:showpageshadow="false"
     fit-margin-top="0"
     fit-margin-left="0"
     fit-margin-right="0"
     fit-margin-bottom="0"
     inkscape:window-width="1920"
     inkscape:window-height="1010"
     inkscape:window-x="1440"
     inkscape:window-y="0"
     inkscape:window-maximized="1"
     objecttolerance="1"
     guidetolerance="1" />
  <metadata
     id="metadata2440">
    <rdf:RDF>
      <cc:Work
         rdf:about="">
        <dc:format>image/svg+xml</dc:format>
        <dc:type
           rdf:resource="http://purl.org/dc/dcmitype/StillImage" />
        <dc:title />
      </cc:Work>
    </rdf:RDF>
  </metadata>
  <g
     inkscape:label="Layer 1"
     inkscape:groupmode="layer"
     id="layer1"
     transform="translate(191.69405,37.047416)">
    <g
       id="g3147"
       transform="translate(0.54674289,-0.32860167)">
      <path
         style="font-size:10.5833px;line-height:1.25;font-family:'Rebeland Outline';-inkscape-font-specification:'Rebeland Outline';stroke-width:0.264583"
         d="m -189.35534,-20.645649 c 0.0635,0.783164 0.508,1.598078 1.04775,2.158993 l 0.22225,0.222249 c -0.0317,0.05292 -0.0529,0.116416 -0.0635,0.179916 v 0.0635 c -0.0529,0.264582 -0.0529,0.560915 -0.0106,0.89958 0.0953,0.878414 0.82549,1.428746 1.68274,1.428746 0.43392,0 0.80433,-0.137583 1.12183,-0.444499 0.127,0.04233 0.254,0.0635 0.37042,0.0635 0.45508,0 0.79374,-0.285749 0.86783,-0.751414 0.0529,-0.328083 -0.0423,-0.645581 -0.27517,-0.941914 v 0.07408 c -0.15875,-0.211666 -0.30691,-0.444498 -0.45508,-0.709081 l -0.0635,-0.09525 c -0.16933,-0.317499 -0.32808,-0.560914 -0.73025,-0.560914 l -0.127,0.03175 c 0.0212,-0.02117 0.0423,-0.04233 0.0635,-0.07408 0.11642,-0.148166 0.20109,-0.338665 0.254,-0.571498 0.0317,-0.116416 0.0212,-0.243416 -0.0212,-0.370415 -0.0635,-0.179916 -0.14817,-0.338666 -0.21167,-0.455082 -0.24342,-0.423332 -0.4445,-0.910164 -0.62442,-1.492245 l -0.19049,-0.666748 c -0.0529,-0.1905 -0.1905,-0.412749 -0.49742,-0.412749 -0.0317,0 -0.0635,0.01058 -0.0952,0.01058 -0.24342,0.04233 -0.45508,0.179916 -0.65616,0.412749 -0.10584,0.137583 -0.17992,0.285749 -0.21167,0.444499 l -0.0635,-0.03175 c -0.10583,-0.03175 -0.20108,-0.04233 -0.29633,-0.04233 -0.32808,0 -0.61383,0.169333 -0.81492,0.476249 -0.1905,0.306916 -0.26458,0.698498 -0.22225,1.15358 z"
         id="path3006" />
      <path
         style="font-size:10.5833px;line-height:1.25;font-family:'Rebeland Outline';-inkscape-font-specification:'Rebeland Outline';stroke-width:0.264583"
         d="m -186.25443,-18.973488 c 0.0318,0.01058 0.0635,0.01058 0.10583,0.01058 -0.0318,0.02117 -0.0529,0.03175 -0.0741,0.05292 z"
         id="path3103" />
      <path
         style="font-size:10.5833px;line-height:1.25;font-family:'Rebeland Outline';-inkscape-font-specification:'Rebeland Outline';stroke-width:0.264583"
         d="m -187.25984,-19.640236 c 0.10583,0.02117 0.21166,0.07408 0.32808,0.15875 l 0.0212,0.02117 h -0.0106 c -0.0423,0.01058 -0.0741,0.02117 -0.10583,0.02117 -0.0212,0 -0.0318,-0.01058 -0.0529,-0.01058 -0.0423,-0.01058 -0.11641,-0.03175 -0.17991,-0.190499 z"
         id="path3101" />
      <path
         style="font-size:10.5833px;line-height:1.25;font-family:'Rebeland Outline';-inkscape-font-specification:'Rebeland Outline';fill:#00ff95;fill-opacity:1;stroke-width:0.264583"
         d="m -188.84734,-21.629896 c 0.127,-0.211666 0.29634,-0.306916 0.49742,-0.306916 0.0635,0 0.127,0.01058 0.1905,0.03175 0.23283,0.0635 0.5715,0.423332 0.73024,0.624415 -0.0106,-0.05292 -0.0317,-0.08467 -0.0423,-0.116417 -0.0635,-0.137583 -0.11641,-0.275165 -0.14816,-0.423332 -0.0529,-0.264582 0,-0.476248 0.13758,-0.634998 0.11641,-0.137583 0.254,-0.243416 0.42333,-0.264582 0.11642,0 0.13758,0.02117 0.16933,0.137583 0.22225,0.783164 0.43392,1.523995 0.83608,2.233076 0.0741,0.127 0.13759,0.253999 0.1905,0.391582 0.0212,0.05292 0.0318,0.09525 0.0212,0.148166 -0.0423,0.15875 -0.0952,0.306916 -0.1905,0.423332 -0.0317,0.03175 -0.0635,0.05292 -0.0952,0.05292 -0.0317,0 -0.0635,-0.02117 -0.10583,-0.05292 -0.14817,-0.137583 -0.28575,-0.285749 -0.4445,-0.402165 -0.26458,-0.201083 -0.42333,-0.222249 -0.73025,-0.222249 -0.1905,0.02117 -0.26458,0.232832 -0.16933,0.497415 0.0847,0.253999 0.23283,0.391582 0.42333,0.444498 0.0529,0.01058 0.10583,0.02117 0.15875,0.02117 0.0635,0 0.127,-0.01058 0.17992,-0.02117 0.0317,0 0.0635,0 0.0741,0.03175 0.1905,0.264583 0.32808,0.560915 0.40216,0.888997 0.0317,0.127 -0.0106,0.22225 -0.10583,0.254 -0.0847,0.03175 -0.16933,0.05292 -0.254,0.08467 -0.0529,0.02117 -0.11641,0.05292 -0.10583,0.158749 0.0212,0.148167 0.14817,0.232833 0.28575,0.232833 0.0318,0 0.0635,0 0.0953,-0.01058 0.127,-0.03175 0.26458,-0.15875 0.3175,-0.285749 0.0317,-0.08467 0.0212,-0.179916 0,-0.275166 -0.0106,-0.05292 -0.0212,-0.105833 -0.0212,-0.15875 -0.0212,-0.179916 0.0318,-0.317499 0.127,-0.423332 0.0952,-0.105833 0.21167,-0.148166 0.33867,-0.169332 0.0529,-0.01058 0.10583,0.02117 0.14816,0.07408 0.0952,0.105833 0.15875,0.253999 0.23283,0.380998 0.14817,0.264583 0.30692,0.507999 0.48684,0.740831 0.14816,0.179917 0.24341,0.391582 0.20108,0.645582 l 0.0952,0.01058 c -0.0317,0.201083 -0.127,0.338666 -0.27517,0.391582 -0.0741,0.03175 -0.15875,0.04233 -0.23283,0.04233 -0.21167,0 -0.35983,-0.0635 -0.51858,-0.201082 0.0635,0.116416 0,0.148166 -0.0423,0.190499 -0.27517,0.275166 -0.55034,0.380999 -0.93133,0.380999 -0.67734,0 -1.24883,-0.433916 -1.32292,-1.12183 -0.0317,-0.275166 -0.0423,-0.539748 0,-0.793747 0,-0.02117 0.0106,-0.04233 0.0106,-0.0635 0.0106,-0.09525 0.0529,-0.137583 0.127,-0.137583 0.0423,0 0.0847,0 0.127,0 0.0423,0 0.0847,0 0.12699,0.01058 0.0106,0 0.0212,0.01058 0.0317,-0.01058 -0.0423,-0.03175 -0.0741,-0.0635 -0.11641,-0.08467 -0.75142,-0.518581 -1.41816,-1.534578 -1.50283,-2.434158 -0.0317,-0.349249 0.0106,-0.656165 0.16933,-0.910164 z"
         id="path3099" />
    </g>
    <path
       style="font-size:10.5833px;line-height:1.25;font-family:'Rebeland Outline';-inkscape-font-specification:'Rebeland Outline';stroke:none;stroke-width:0.264583;stroke-opacity:1"
       d="m -181.02621,-32.359016 c -0.13758,-0.158749 -0.26458,-0.328082 -0.381,-0.518582 -0.0106,-0.02117 -0.0212,-0.04233 -0.0317,-0.0635 -0.0529,-0.08467 -0.11641,-0.201083 -0.22225,-0.296333 -0.0952,-0.09525 -0.21166,-0.148166 -0.33866,-0.158749 0.0635,-0.08467 0.11641,-0.179916 0.16933,-0.285749 0.0423,-0.08467 0.0741,-0.22225 0.0212,-0.391582 -0.0529,-0.15875 -0.127,-0.28575 -0.1905,-0.380999 -0.29633,-0.486832 -0.4445,-1.037164 -0.58208,-1.587495 -0.0847,-0.306916 -0.26459,-0.380999 -0.5715,-0.380999 -0.381,0.03175 -0.79375,0.317499 -0.94192,0.666748 -0.0952,-0.04233 -0.30691,-0.07408 -0.40216,-0.07408 -0.70908,0 -1.19591,0.634998 -1.19591,1.312329 0,0.666748 0.40216,1.333496 0.89958,1.756828 0.0318,0.03175 0.0635,0.0635 0.0953,0.09525 -0.0106,0.02117 -0.0212,0.04233 -0.0318,0.0635 v 0.01058 c -0.0106,0.01058 -0.0212,0.02117 -0.0212,0.03175 -0.0847,0.22225 -0.127,0.465666 -0.127,0.751415 0.0212,0.846664 0.84666,1.227662 1.59808,1.227662 0.42333,0 0.81491,-0.105833 1.17475,-0.338665 0.0106,0 0.0212,0 0.0318,0 0.11641,0.03175 0.23283,0.04233 0.34924,0.04233 0.40217,0 0.77258,-0.169333 0.92075,-0.571498 0.0635,-0.169333 0.127,-0.518582 -0.20108,-0.878414 z"
       id="path4025" />
    <path
       style="fill:#000000;stroke:none;stroke-width:0.264583px;stroke-linecap:butt;stroke-linejoin:miter;stroke-opacity:1"
       d="m -187.55545,-32.676221 0.59723,1.333867 -0.4454,0.157858 -0.61411,-0.899376 z"
       id="path4062" />
    <path
       style="font-size:10.5833px;line-height:1.25;font-family:'Rebeland Outline';-inkscape-font-specification:'Rebeland Outline';fill:url(#linearGradient7451);fill-opacity:1;stroke:none;stroke-width:0.264583;stroke-opacity:1"
       d="m -181.16379,-31.575852 c -0.0847,0.253999 -0.29633,0.338666 -0.53975,0.338666 -0.17992,0 -0.37041,-0.05292 -0.51858,-0.15875 0.0529,0.08467 -0.0212,0.105833 -0.0635,0.137583 -0.30692,0.211666 -0.61383,0.306916 -0.98425,0.306916 -0.51858,0 -1.20649,-0.243416 -1.20649,-0.857247 0,-0.211666 0.0212,-0.412749 0.0952,-0.613832 0.0106,-0.02117 0.0212,-0.04233 0.0317,-0.0635 0.0212,-0.07408 0.0741,-0.105833 0.14816,-0.105833 0.0529,0 0.11642,0 0.16933,0 0.0317,0 0.0529,0 0.0847,0 0.0106,0 0.0212,0 0.0317,-0.02117 -0.0317,-0.02117 -0.0635,-0.04233 -0.0952,-0.0635 -0.62441,-0.349249 -1.29116,-1.100663 -1.29116,-1.862661 0,-0.455081 0.29633,-0.920747 0.79375,-0.920747 0.35983,0 0.64558,0.254 0.88899,0.497415 0,-0.04233 -0.0106,-0.0635 -0.0212,-0.08467 -0.0529,-0.105833 -0.0952,-0.211666 -0.10584,-0.328082 -0.0212,-0.201083 0.0635,-0.359832 0.22225,-0.486832 0.13759,-0.105833 0.28575,-0.190499 0.46567,-0.211666 0.0212,0 0.0423,0 0.0529,0 0.0635,0 0.0847,0.02117 0.10584,0.105833 0.0423,0.169333 0.0741,0.338666 0.11641,0.507998 0.11642,0.423332 0.27517,0.825498 0.508,1.195913 0.0635,0.09525 0.11642,0.1905 0.14817,0.296333 0.0106,0.04233 0.0106,0.07408 -0.0106,0.116416 -0.0529,0.126999 -0.127,0.232832 -0.23284,0.317499 -0.0317,0.02117 -0.0635,0.04233 -0.0952,0.04233 -0.0318,0 -0.0635,-0.02117 -0.10583,-0.04233 -0.32808,-0.264583 -0.5715,-0.476249 -1.02658,-0.476249 -0.0318,0 -0.0635,0 -0.0953,0 -0.20108,0.02117 -0.29633,0.1905 -0.23283,0.391582 0.0847,0.243416 0.28575,0.349249 0.52916,0.349249 0.0635,0 0.13759,-0.01058 0.21167,-0.02117 0.0317,0 0.0529,0 0.0741,0.02117 0.16933,0.201083 0.27517,0.423332 0.3175,0.677332 0.0106,0.09525 -0.0423,0.169332 -0.13758,0.190499 -0.0847,0.02117 -0.16933,0.04233 -0.254,0.0635 -0.0635,0.02117 -0.127,0.04233 -0.127,0.116416 0,0.07408 0.0529,0.116416 0.11642,0.148166 0.0529,0.03175 0.11641,0.04233 0.17991,0.04233 0.0317,0 0.0529,-0.01058 0.0847,-0.01058 0.0953,-0.01058 0.3175,-0.105833 0.35983,-0.201083 0.0423,-0.0635 0.0423,-0.137582 0.0317,-0.211666 0,-0.04233 0,-0.08467 0,-0.126999 0,-0.137583 0.0635,-0.243416 0.16933,-0.328082 0.10584,-0.07408 0.22225,-0.105833 0.34925,-0.116417 0.0635,0 0.10583,0.01058 0.14817,0.05292 0.0847,0.08467 0.13758,0.190499 0.20108,0.296332 0.127,0.201083 0.26458,0.391582 0.42333,0.571498 0.127,0.137583 0.20109,0.296333 0.127,0.486832 z"
       id="path4044" />
    <path
       style="font-size:10.5833px;line-height:1.25;font-family:'Rebeland Outline';-inkscape-font-specification:'Rebeland Outline';stroke-width:0.264583"
       d="m -177.90415,-31.829849 c -0.13758,-0.158749 -0.26458,-0.328082 -0.381,-0.518582 -0.0106,-0.02117 -0.0212,-0.04233 -0.0317,-0.0635 -0.0529,-0.08467 -0.11641,-0.201083 -0.22225,-0.296333 -0.0952,-0.09525 -0.21166,-0.148166 -0.33866,-0.158749 0.0635,-0.08467 0.11642,-0.179916 0.16933,-0.285749 0.0423,-0.08467 0.0741,-0.22225 0.0212,-0.391582 -0.0529,-0.15875 -0.127,-0.28575 -0.1905,-0.380999 -0.29633,-0.486832 -0.4445,-1.037164 -0.58208,-1.587495 -0.0847,-0.306916 -0.26458,-0.380999 -0.5715,-0.380999 -0.381,0.03175 -0.79375,0.317499 -0.94191,0.666748 -0.0953,-0.04233 -0.30692,-0.07408 -0.40217,-0.07408 -0.70908,0 -1.19591,0.634998 -1.19591,1.312329 0,0.666748 0.40216,1.333496 0.89958,1.756828 0.0317,0.03175 0.0635,0.0635 0.0952,0.09525 -0.0106,0.02117 -0.0212,0.04233 -0.0318,0.0635 v 0.01058 c -0.0106,0.01058 -0.0212,0.02117 -0.0212,0.03175 -0.0847,0.22225 -0.127,0.465666 -0.127,0.751415 0.0212,0.846664 0.84667,1.227662 1.59808,1.227662 0.42333,0 0.81491,-0.105833 1.17475,-0.338665 0.0106,0 0.0212,0 0.0318,0 0.11641,0.03175 0.23283,0.04233 0.34924,0.04233 0.40217,0 0.77259,-0.169333 0.92075,-0.571498 0.0635,-0.169333 0.127,-0.518582 -0.20108,-0.878414 z"
       id="path4027" />
    <path
       style="font-size:10.5833px;line-height:1.25;font-family:'Rebeland Outline';-inkscape-font-specification:'Rebeland Outline';fill:url(#linearGradient7453);fill-opacity:1;stroke:none;stroke-width:0.264583;stroke-opacity:1"
       d="m -178.04173,-31.046685 c -0.0847,0.253999 -0.29633,0.338666 -0.53975,0.338666 -0.17991,0 -0.37041,-0.05292 -0.51858,-0.15875 0.0529,0.08467 -0.0212,0.105833 -0.0635,0.137583 -0.30692,0.211666 -0.61383,0.306916 -0.98425,0.306916 -0.51858,0 -1.20649,-0.243416 -1.20649,-0.857247 0,-0.211666 0.0212,-0.412749 0.0952,-0.613832 0.0106,-0.02117 0.0212,-0.04233 0.0317,-0.0635 0.0212,-0.07408 0.0741,-0.105833 0.14816,-0.105833 0.0529,0 0.11642,0 0.16934,0 0.0317,0 0.0529,0 0.0847,0 0.0106,0 0.0212,0 0.0317,-0.02117 -0.0317,-0.02117 -0.0635,-0.04233 -0.0952,-0.0635 -0.62441,-0.349249 -1.29116,-1.100663 -1.29116,-1.862661 0,-0.455081 0.29633,-0.920747 0.79375,-0.920747 0.35983,0 0.64558,0.254 0.88899,0.497415 0,-0.04233 -0.0106,-0.0635 -0.0212,-0.08467 -0.0529,-0.105833 -0.0952,-0.211666 -0.10584,-0.328082 -0.0212,-0.201083 0.0635,-0.359832 0.22225,-0.486832 0.13759,-0.105833 0.28575,-0.190499 0.46567,-0.211666 0.0212,0 0.0423,0 0.0529,0 0.0635,0 0.0847,0.02117 0.10583,0.105833 0.0423,0.169333 0.0741,0.338666 0.11641,0.507998 0.11642,0.423332 0.27517,0.825498 0.508,1.195913 0.0635,0.09525 0.11642,0.1905 0.14817,0.296333 0.0106,0.04233 0.0106,0.07408 -0.0106,0.116416 -0.0529,0.126999 -0.127,0.232832 -0.23284,0.317499 -0.0317,0.02117 -0.0635,0.04233 -0.0952,0.04233 -0.0318,0 -0.0635,-0.02117 -0.10583,-0.04233 -0.32808,-0.264583 -0.5715,-0.476249 -1.02658,-0.476249 -0.0318,0 -0.0635,0 -0.0953,0 -0.20108,0.02117 -0.29633,0.1905 -0.23283,0.391582 0.0847,0.243416 0.28575,0.349249 0.52916,0.349249 0.0635,0 0.13759,-0.01058 0.21167,-0.02117 0.0317,0 0.0529,0 0.0741,0.02117 0.16934,0.201083 0.27517,0.423332 0.3175,0.677332 0.0106,0.09525 -0.0423,0.169332 -0.13758,0.190499 -0.0847,0.02117 -0.16933,0.04233 -0.254,0.0635 -0.0635,0.02117 -0.127,0.04233 -0.127,0.116416 0,0.07408 0.0529,0.116416 0.11642,0.148166 0.0529,0.03175 0.11641,0.04233 0.17991,0.04233 0.0317,0 0.0529,-0.01058 0.0847,-0.01058 0.0953,-0.01058 0.3175,-0.105833 0.35983,-0.201083 0.0423,-0.0635 0.0423,-0.137582 0.0317,-0.211666 0,-0.04233 0,-0.08467 0,-0.126999 0,-0.137583 0.0635,-0.243416 0.16933,-0.328082 0.10584,-0.07408 0.22225,-0.105833 0.34925,-0.116417 0.0635,0 0.10584,0.01058 0.14817,0.05292 0.0847,0.08467 0.13758,0.190499 0.20108,0.296332 0.127,0.201083 0.26458,0.391582 0.42333,0.571498 0.127,0.137583 0.20109,0.296333 0.127,0.486832 z"
       id="path4048" />
    <path
       style="fill:#000000;stroke:none;stroke-width:0.264583px;stroke-linecap:butt;stroke-linejoin:miter;stroke-opacity:1"
       d="m -182.13475,-31.076641 0.70813,0.0952 -0.0522,0.46978 -0.8809,-0.278321 z"
       id="path4068" />
    <path
       style="font-size:10.5833px;line-height:1.25;font-family:'Rebeland Outline';-inkscape-font-specification:'Rebeland Outline';stroke-width:0.264583"
       d="m -188.82608,-34.274594 c 0.0423,0.624414 0.37041,0.846664 0.86783,1.09008 0.0106,0.04233 0.0212,0.09525 0.0529,0.148166 0.0741,0.126999 0.13759,0.264582 0.1905,0.402165 0.13759,0.338666 0.26459,0.687915 0.39159,1.02658 l 0.0847,0.232833 c -0.0318,0.02117 -0.0635,0.04233 -0.0847,0.0635 -0.24342,0.222249 -0.21167,0.518581 -0.20109,0.613831 0.0635,0.571498 0.41275,1.100663 1.03717,1.100663 0.0635,0 0.127,0 0.1905,-0.01058 0.0318,0 0.0635,-0.01058 0.0953,-0.02117 0.13758,-0.02117 0.27516,-0.04233 0.40216,-0.04233 0.0953,0 0.16933,-0.02117 0.23283,-0.03175 h 0.0106 c 0.1905,-0.04233 0.32808,-0.179916 0.37041,-0.359832 0.0317,0.01058 0.0635,0.02117 0.0847,0.03175 l 0.0212,0.01058 c 0.13759,0.05292 0.27517,0.08467 0.41275,0.116416 l 0.0952,0.03175 c 0.0847,0.02117 0.15875,0.03175 0.22225,0.03175 0.0741,0 0.13759,-0.01058 0.20109,-0.03175 0.23283,-0.0635 0.38099,-0.253999 0.39158,-0.497415 v -0.158749 h 0.0106 c -0.0635,-0.433915 -0.22225,-1.354663 -0.79375,-1.354663 0.17992,-0.306915 0.26459,-0.645581 0.24342,-1.005413 -0.0423,-0.888997 -0.6985,-1.502829 -1.49225,-1.799161 l -0.11641,-0.04233 c -0.3175,-0.116416 -0.64558,-0.232833 -0.9525,-0.370416 l -0.127,-0.0635 c -0.14817,-0.0635 -0.29633,-0.127 -0.45508,-0.179917 -0.13758,-0.05292 -0.23283,-0.09525 -0.30692,-0.148166 -0.0529,-0.04233 -0.127,-0.09525 -0.21166,-0.137583 -0.0741,-0.03175 -0.14817,-0.05292 -0.22225,-0.05292 -0.35983,0 -0.56092,0.380999 -0.62442,0.687914 -0.0529,0.254 -0.0423,0.497415 -0.0212,0.719665 z"
       id="path4023" />
    <path
       style="font-size:10.5833px;line-height:1.25;font-family:'Rebeland Outline';-inkscape-font-specification:'Rebeland Outline';fill:url(#linearGradient7449);fill-opacity:1;stroke:none;stroke-width:0.264583;stroke-opacity:1"
       d="m -188.41333,-34.941342 c 0.0106,-0.09525 0.10583,-0.391582 0.23283,-0.391582 0.0212,0 0.0423,0.01058 0.0635,0.02117 0.0529,0.02117 0.10583,0.05292 0.14816,0.08467 0.127,0.09525 0.26459,0.158749 0.41275,0.211666 0.1905,0.0635 0.37042,0.148166 0.55033,0.232832 0.35984,0.15875 0.71967,0.296333 1.0795,0.433916 0.64558,0.253999 1.21708,0.740831 1.25941,1.471078 0.0212,0.338666 -0.0741,0.645582 -0.26458,0.920747 -0.0635,0.09525 -0.14817,0.15875 -0.254,0.15875 -0.0317,0 -0.0635,-0.01058 -0.10583,-0.02117 -0.0529,-0.02117 -0.10583,-0.03175 -0.15875,-0.05292 -0.0106,-0.01058 -0.0318,-0.02117 -0.0423,0 -0.0106,0.01058 0,0.02117 0.0106,0.03175 0.21167,0.232832 0.49741,0.338665 0.80433,0.338665 0.0529,0 0.10583,0 0.15875,-0.01058 0.0423,-0.01058 0.0635,0.01058 0.0847,0.04233 0.15875,0.232833 0.26458,0.687915 0.30691,0.973664 v 0.09525 c 0,0.07408 -0.0423,0.127 -0.11641,0.148167 v 0.01058 c -0.0318,0.01058 -0.0529,0.01058 -0.0847,0.01058 -0.0423,0 -0.0952,-0.01058 -0.13758,-0.02117 -0.15875,-0.04233 -0.3175,-0.07408 -0.47625,-0.127 -0.0635,-0.02117 -0.127,-0.04233 -0.17992,-0.08467 -0.0318,-0.03175 -0.0741,-0.02117 -0.10583,-0.04233 -0.23283,-0.116416 -0.508,-0.264582 -0.68792,-0.444498 0.0318,0.08467 0.0847,0.158749 0.13759,0.222249 0.0529,0.0635 0.10583,0.116416 0.15875,0.169333 0.0212,0.02117 0.0317,0.04233 0.0423,0.0635 0.0212,0.08467 0.0423,0.169332 0.0529,0.264582 0.0106,0.08467 -0.0212,0.137583 -0.0952,0.15875 -0.0529,0.01058 -0.10584,0.02117 -0.15875,0.02117 -0.1905,0 -0.37042,0.04233 -0.56092,0.07408 -0.0317,0 -0.0635,0.01058 -0.10583,0.01058 -0.41275,0 -0.64558,-0.391582 -0.66675,-0.772581 -0.0106,-0.116416 0,-0.222249 0.0953,-0.306916 0.0212,-0.02117 0.0529,-0.04233 0.0847,-0.04233 0.0529,-0.01058 0.0952,-0.04233 0.13758,-0.0635 0.0423,-0.02117 0.0423,-0.05292 0.0317,-0.09525 -0.0212,-0.09525 -0.0529,-0.190499 -0.0847,-0.285749 -0.15875,-0.412748 -0.3175,-0.825497 -0.48683,-1.238246 -0.0635,-0.148166 -0.13758,-0.296332 -0.21166,-0.444498 -0.0212,-0.04233 -0.0106,-0.05292 0.0318,-0.05292 0.11641,0 0.22225,0.02117 0.33866,0.04233 -0.0106,-0.03175 -0.0318,-0.04233 -0.0529,-0.05292 -0.11642,-0.0635 -0.24342,-0.105833 -0.37042,-0.15875 -0.14817,-0.0635 -0.29633,-0.116416 -0.43392,-0.201082 -0.24341,-0.148166 -0.38099,-0.370416 -0.40216,-0.666748 -0.0106,-0.211666 -0.0212,-0.423332 0.0212,-0.634998 z"
       id="path4038" />
    <path
       style="font-size:10.5833px;line-height:1.25;font-family:'Rebeland Outline';-inkscape-font-specification:'Rebeland Outline';stroke-width:0.264583"
       d="m -187.01632,-30.45402 c -0.0529,-0.402165 -0.21167,-1.206496 -0.66675,-1.344079 -0.0317,-0.0635 -0.0635,-0.127 -0.0952,-0.190499 0.0106,0 0.0212,0 0.0318,0 0.1905,-0.116417 0.20108,-0.328083 0.21166,-0.402166 0.0317,-0.529165 -0.10583,-0.99483 -0.42333,-1.375829 0.0847,-0.04233 0.15875,-0.105833 0.23283,-0.179916 0.0529,-0.05292 0.14817,-0.169333 0.13759,-0.359832 -0.0106,-0.08467 -0.0212,-0.232833 -0.10584,-0.380999 -0.0318,-0.05292 -0.0635,-0.116416 -0.0953,-0.179916 -0.16933,-0.380999 -0.29633,-0.783164 -0.42333,-1.174746 -0.127,-0.380999 -0.64558,-0.518582 -1.01599,-0.518582 -0.22225,0 -0.48684,0.04233 -0.60325,0.264583 -0.0317,0.05292 -0.0423,0.105833 -0.0423,0.158749 -0.29633,-0.179916 -0.55033,-0.402165 -0.79374,-0.645581 -0.15875,-0.1905 -0.24342,-0.264583 -0.49742,-0.264583 -0.47625,0.07408 -0.52916,0.730248 -0.52916,1.111247 v 0.07408 c 0,0.634998 0.1905,1.777994 0.88899,2.031993 0.13759,0.201083 0.27517,0.391583 0.39159,0.592665 -0.0635,0.04233 -0.11642,0.105833 -0.14817,0.179916 -0.0317,0.07408 -0.0529,0.201083 0.0212,0.359833 0.13758,0.296332 0.37041,0.634998 0.70908,0.698497 0.0952,0 0.35983,0.486832 0.40216,0.582082 -0.0529,0.07408 -0.0953,0.169333 -0.10583,0.296332 -0.0212,0.338666 0.0423,0.656165 0.20108,0.952497 0.0317,0.0635 0.0741,0.105833 0.0952,0.137583 0.27517,0.306916 0.64558,0.433915 1.04775,0.433915 0.32808,0 0.75141,-0.08467 0.97366,-0.338665 0.14817,-0.15875 0.15875,-0.338666 0.14817,-0.455082 z"
       id="path4021" />
    <path
       style="font-size:10.5833px;line-height:1.25;font-family:'Rebeland Outline';-inkscape-font-specification:'Rebeland Outline';fill:url(#linearGradient7447);fill-opacity:1;stroke:none;stroke-width:0.264583;stroke-opacity:1"
       d="m -187.49257,-30.200021 c -0.15875,0.15875 -0.48684,0.22225 -0.70908,0.22225 -0.28575,0 -0.5715,-0.09525 -0.762,-0.306916 -0.0106,-0.02117 -0.0212,-0.04233 -0.0317,-0.0635 -0.127,-0.232833 -0.17992,-0.486832 -0.15875,-0.751414 0.0106,-0.08467 0.0635,-0.127 0.10583,-0.169333 0.0635,-0.0635 0.0635,-0.0635 0.0212,-0.169333 -0.11642,-0.296332 -0.40217,-0.857247 -0.75142,-0.920747 -0.0952,-0.02117 -0.16933,-0.09525 -0.24341,-0.179916 -0.0741,-0.09525 -0.127,-0.201083 -0.17992,-0.306916 -0.0212,-0.04233 -0.0212,-0.0635 0.0106,-0.07408 0.0847,-0.03175 0.15874,-0.08467 0.23283,-0.126999 0.0318,-0.02117 0.0423,-0.04233 0.0212,-0.09525 -0.16933,-0.370416 -0.39158,-0.677331 -0.61383,-0.99483 -0.0212,-0.02117 -0.0423,-0.04233 -0.0635,-0.04233 -0.42333,-0.07408 -0.64558,-0.867831 -0.68791,-1.238246 -0.0212,-0.179917 -0.0212,-0.359833 -0.0212,-0.539749 0,-0.179916 0.0212,-0.560915 0.13759,-0.709081 0.0212,-0.02117 0.0317,-0.03175 0.0529,-0.03175 0.0212,0 0.0317,0.01058 0.0529,0.02117 0.0635,0.05292 0.11641,0.126999 0.17991,0.190499 0.42334,0.433916 0.92075,0.740831 1.47108,0.99483 0.0317,0.02117 0.0635,0.05292 0.0952,0.07408 0.0212,0.01058 0.0423,0.02117 0.0635,0 0.0212,-0.02117 0.0106,-0.04233 0,-0.0635 -0.0423,-0.09525 -0.0847,-0.1905 -0.127,-0.285749 -0.0317,-0.09525 -0.0635,-0.1905 -0.0952,-0.285749 -0.0318,-0.09525 -0.0212,-0.127 0.0529,-0.148167 0.0635,-0.02117 0.13758,-0.03175 0.21167,-0.03175 0.17991,0 0.58208,0.04233 0.65616,0.232833 0.13758,0.412749 0.27517,0.825497 0.4445,1.21708 0.0317,0.07408 0.0635,0.148166 0.10583,0.222249 0.0423,0.07408 0.0529,0.148166 0.0529,0.222249 0,0.127 -0.29633,0.253999 -0.40217,0.264583 -0.11641,0 -0.16933,-0.04233 -0.24341,-0.127 -0.0106,-0.01058 -0.0212,-0.02117 -0.0212,-0.03175 -0.0952,-0.179916 -0.15875,-0.179916 -0.32808,-0.179916 -0.22225,0.03175 -0.4445,0.04233 -0.66675,0.0635 -0.13758,0.01058 -0.27517,0.02117 -0.41275,0.03175 0.13758,0.04233 0.27517,0.08467 0.41275,0.126999 0.0318,0.01058 0.0529,0.03175 0.0741,0.0635 0.11642,0.15875 0.23284,0.317499 0.34925,0.476249 0.0212,0.04233 0.0423,0.04233 0.0847,0.04233 0.17991,-0.0635 0.35983,-0.105833 0.53975,-0.137583 0.13758,0 0.1905,0.01058 0.29633,0.126999 0.254,0.317499 0.35983,0.687915 0.32808,1.111247 -0.0106,0.07408 -0.0212,0.105833 -0.0529,0.105833 -0.0106,0 -0.0317,-0.01058 -0.0635,-0.02117 -0.10584,-0.04233 -0.20109,-0.0635 -0.29634,-0.0635 -0.0423,0 -0.0847,0 -0.127,0.01058 -0.0847,0.01058 -0.16933,0.01058 -0.254,0.04233 0.0106,0.03175 0.0318,0.02117 0.0423,0.02117 0.11641,0.03175 0.23283,0.05292 0.34925,0.137583 0.0423,0.03175 0.0741,0.07408 0.0952,0.126999 0.0847,0.1905 0.17991,0.370416 0.26458,0.560915 0.0212,0.05292 0.0635,0.0635 0.10583,0.0635 0.3175,0 0.45508,0.825497 0.47625,1.047746 0.0106,0.07408 -0.0106,0.116417 -0.0423,0.148167 z"
       id="path4032" />
    <path
       style="font-size:10.5833px;line-height:1.25;font-family:'Rebeland Outline';-inkscape-font-specification:'Rebeland Outline';fill:#000000;fill-opacity:1;stroke-width:0.264583"
       d="m -186.48717,-33.078681 c -0.0106,0 -0.0212,-0.01058 -0.0318,-0.02117 v 0.02117 c 0.0106,0 0.0212,0 0.0318,0 0.0635,0.0635 0.127,0.116416 0.17991,0.179916 0.0317,0.03175 0.0529,0.07408 0.0635,0.126999 l 0.127,0.507999 c 0.0106,0.02117 0.0212,0.04233 0.0529,0.04233 0.0529,0 0.0952,-0.02117 0.127,-0.07408 0.0212,-0.03175 0.0317,-0.0635 0.0529,-0.09525 0.0847,-0.148166 0.0635,-0.328082 -0.0529,-0.444499 -0.14817,-0.148166 -0.33867,-0.211666 -0.55033,-0.243415 z"
       id="path4040" />
    <path
       style="font-style:normal;font-variant:normal;font-weight:normal;font-stretch:normal;font-size:10.5833px;line-height:1.25;font-family:'Rebeland Outline';-inkscape-font-specification:'Rebeland Outline, Normal';font-variant-ligatures:normal;font-variant-caps:normal;font-variant-numeric:normal;font-variant-east-asian:normal;fill:#000000;fill-opacity:1;stroke:none;stroke-width:0.264583"
       d="m -172.29223,-29.974006 c -0.0106,-0.08467 -0.6985,-0.571498 -0.67733,-0.656164 0.11641,-0.560915 0.22225,-0.963081 0.11641,-1.661578 -0.16933,-1.05833 -0.62441,-2.190743 -1.44991,-2.910408 -0.28575,-0.253999 -0.58208,-0.476248 -0.86783,-0.698498 -0.10583,-0.08467 -0.21166,-0.169332 -0.3175,-0.253999 -0.0529,-0.04233 -0.10583,-0.08467 -0.15875,-0.137583 -0.0953,-0.08467 -0.1905,-0.190499 -0.28575,-0.306915 -0.0317,-0.03175 -0.0635,-0.0635 -0.0953,-0.09525 -0.13758,-0.137583 -0.254,-0.222249 -0.45508,-0.222249 -0.64558,0 -1.01599,0.941913 -1.07949,1.460495 -0.0317,0.275166 -0.0529,0.687915 0.15875,1.111247 0.12699,0.253999 0.29633,0.476248 0.50799,0.666747 0.0317,0.03175 0.0635,0.0635 0.0952,0.09525 -0.0106,0.0635 -0.0106,0.137583 0,0.222249 0.15875,1.111247 1.35467,3.704155 2.67758,3.704155 0.0847,0 0.16933,-0.01058 0.254,-0.03175 0.0741,-0.02117 0.45508,0.888996 0.77258,0.931326 0.0317,0 0.0635,0.0106 0.0953,0.0106 0.42333,0 0.762,-0.423334 0.68791,-1.227665 z"
       id="path2361" />
    <path
       style="font-style:normal;font-variant:normal;font-weight:normal;font-stretch:normal;font-size:10.5833px;line-height:1.25;font-family:'Rebeland Outline';-inkscape-font-specification:'Rebeland Outline, Normal';font-variant-ligatures:normal;font-variant-caps:normal;font-variant-numeric:normal;font-variant-east-asian:normal;fill:url(#linearGradient7455);fill-opacity:1;stroke:none;stroke-width:0.264583;stroke-opacity:1"
       d="m -173.06481,-29.159092 c -0.23283,0 -1.00542,-1.555745 -1.04775,-1.534578 0,0 0.21167,0.507998 0.16933,0.518582 -0.0741,0.02117 -0.15875,0.03175 -0.24341,0.03175 -1.016,-0.04233 -2.08491,-2.349492 -2.24366,-3.301989 -0.0106,-0.04233 0,-0.05292 0.0317,-0.04233 0.127,0.05292 0.254,0.105833 0.37041,0.190499 0.0847,0.0635 0.16934,0.105833 0.26459,0.148166 0.0741,0.03175 0.13758,0.08467 0.20108,0.127 -0.0529,-0.08467 -0.127,-0.137583 -0.20108,-0.190499 -0.16934,-0.127 -0.32809,-0.28575 -0.48684,-0.433916 -0.14816,-0.137583 -0.30691,-0.264582 -0.45508,-0.402165 -0.15875,-0.137583 -0.29633,-0.306916 -0.40216,-0.507998 -0.127,-0.243416 -0.127,-0.507999 -0.0953,-0.761998 0.0529,-0.391582 0.32808,-1.12183 0.79375,-1.12183 0.0529,0 0.0953,0.04233 0.13758,0.08467 0.13758,0.148166 0.26458,0.306915 0.41275,0.444498 0.0635,0.05292 0.127,0.105833 0.1905,0.15875 0.39158,0.306915 0.78316,0.592664 1.15358,0.920747 0.71966,0.645581 1.11124,1.640411 1.25941,2.582325 0.0847,0.571498 0.0317,1.100663 -0.16933,1.576911 -0.0847,0.201083 0.85724,0.793748 0.85724,0.857248 -0.0106,0.444498 -0.26458,0.656164 -0.49741,0.656164 z"
       id="path2374" />
    <path
       style="font-style:normal;font-variant:normal;font-weight:normal;font-stretch:normal;font-size:10.5833px;line-height:1.25;font-family:'Rebeland Outline';-inkscape-font-specification:'Rebeland Outline, Normal';font-variant-ligatures:normal;font-variant-caps:normal;font-variant-numeric:normal;font-variant-east-asian:normal;fill:#000000;fill-opacity:1;stroke:none;stroke-width:0.264583"
       d="m -174.39831,-32.302332 c -0.11641,-0.148166 -0.40216,-0.412748 -0.59266,-0.476248 0.0529,0.0635 0.0953,0.137583 0.13758,0.211666 0.0529,0.105833 0.0953,0.211666 0.0953,0.338665 0.0106,0.169333 0.0529,0.338666 0.13758,0.486832 0.0423,0.08467 0.0953,0.127 0.16934,0.137583 0.0106,0 0.0212,0 0.0212,0 0.127,0 0.24342,-0.137583 0.21167,-0.285749 -0.0317,-0.148166 -0.0847,-0.285749 -0.17992,-0.402165 z"
       id="path2376" />
    <path
       style="font-style:normal;font-variant:normal;font-weight:normal;font-stretch:normal;font-size:10.5833px;line-height:1.25;font-family:'Rebeland Outline';-inkscape-font-specification:'Rebeland Outline, Normal';font-variant-ligatures:normal;font-variant-caps:normal;font-variant-numeric:normal;font-variant-east-asian:normal;fill:#000000;fill-opacity:1;stroke:none;stroke-width:0.264583"
       d="m -169.3501,-31.752002 c -0.0423,-0.391583 -0.27517,-1.05833 -0.68792,-1.21708 l -0.0317,-0.01058 c -0.0529,-0.02117 -0.10583,-0.04233 -0.16933,-0.0635 -0.3175,-0.666748 -0.5715,-1.460495 -0.62441,-2.190743 -0.0106,-0.211666 0.0106,-0.380999 0.0635,-0.529165 0.0847,-0.127 0.10583,-0.253999 0.0635,-0.380999 -0.0529,-0.169333 -0.17992,-0.243416 -0.23284,-0.275166 -0.30691,-0.232832 -0.73024,-0.497415 -1.13241,-0.497415 -0.3175,0 -0.68791,0.179916 -0.85725,0.455082 -0.21166,-0.211666 -0.50799,-0.370415 -0.81491,-0.370415 -0.40217,0 -0.71966,0.275166 -0.96308,0.571498 -0.3175,0.380999 -0.39158,0.825497 -0.42333,1.248829 -0.0106,0.211666 0.10583,0.328083 0.15875,0.370416 0.0423,0.04233 0.127,0.08467 0.24341,0.08467 0.0529,0 0.0953,0 0.14817,-0.02117 0.0106,0 0.0212,0 0.0741,0.02117 0.0741,0.04233 0.13758,0.105833 0.21167,0.222249 0.10583,0.179917 0.16933,0.391583 0.23283,0.613832 0.0212,0.09525 0.0423,0.190499 0.0635,0.285749 0.0529,0.211666 0.10583,0.433915 0.1905,0.645581 l 0.0212,0.05292 c 0.3175,0.793747 0.91016,1.767411 1.87324,1.799161 0.30692,0 0.51858,-0.0635 0.73025,-0.275166 0.0741,0.04233 0.15875,0.07408 0.26458,0.08467 0.0317,0 0.0635,0 0.0952,0 0.0847,0.01058 0.17992,0.02117 0.28575,0.02117 h 0.0741 c 0.0741,0 0.14817,0.01058 0.23283,0.01058 0.16934,0 0.34925,-0.02117 0.53975,-0.08467 0.34925,-0.127 0.37042,-0.412749 0.34925,-0.571498 z"
       id="path2363" />
    <path
       style="font-style:normal;font-variant:normal;font-weight:normal;font-stretch:normal;font-size:10.5833px;line-height:1.25;font-family:'Rebeland Outline';-inkscape-font-specification:'Rebeland Outline, Normal';font-variant-ligatures:normal;font-variant-caps:normal;font-variant-numeric:normal;font-variant-east-asian:normal;fill:url(#linearGradient7459);fill-opacity:1;stroke:none;stroke-width:0.264583;stroke-opacity:1"
       d="m -169.8581,-31.540336 c -0.13758,0.05292 -0.27517,0.0635 -0.41275,0.0635 -0.0953,0 -0.1905,-0.01058 -0.28575,-0.01058 -0.10583,0 -0.21166,-0.02117 -0.3175,-0.03175 -0.23283,-0.04233 -0.35983,-0.380999 -0.41275,-0.582081 -0.0212,-0.09525 -0.0317,-0.1905 0,-0.285749 0.0106,-0.02117 0.0212,-0.04233 0,-0.05292 -0.0212,-0.01058 -0.0423,0 -0.0529,0.01058 -0.0529,0.04233 -0.0847,0.105833 -0.10583,0.169333 -0.0318,0.116416 -0.0318,0.232833 -0.0212,0.359832 0.0106,0.08467 0.0212,0.169333 0.0212,0.254 0,0.07408 -0.0318,0.126999 -0.0847,0.169332 -0.10583,0.07408 -0.21167,0.105833 -0.42333,0.105833 -0.81492,-0.03175 -1.31233,-0.93133 -1.56633,-1.608661 -0.10583,-0.296333 -0.16933,-0.603248 -0.254,-0.899581 -0.11642,-0.391582 -0.26458,-0.857247 -0.65617,-1.068913 -0.0741,-0.03175 -0.14816,-0.05292 -0.22224,-0.05292 -0.0423,0 -0.0953,0.01058 -0.13759,0.02117 -0.0317,0.01058 -0.0423,0.01058 -0.0423,-0.03175 0.0529,-0.592664 0.1905,-1.09008 0.73025,-1.418162 0.0953,-0.05292 0.1905,-0.07408 0.27516,-0.07408 0.52917,0 0.77258,0.529165 0.92075,0.952497 0.15875,0.476248 0.254,0.96308 0.32808,1.460495 0.0423,0.254 0.0741,0.507999 0.13759,0.751415 0.0317,0.148166 0.19049,0.550331 0.38099,0.550331 0.0741,0 0.127,-0.05292 0.14817,-0.137583 0.0212,-0.09525 0.0106,-0.190499 -0.0106,-0.285749 -0.0635,-0.328082 -0.16934,-0.645581 -0.30692,-0.952497 -0.0952,-0.211666 -0.20108,-0.423332 -0.29633,-0.634998 -0.127,-0.275166 -0.22225,-0.560915 -0.27517,-0.857247 -0.0318,-0.148166 -0.0212,-0.306916 0,-0.455082 0.0423,-0.296332 0.32809,-0.486832 0.61383,-0.486832 0.3175,0 0.68792,0.254 0.93133,0.433916 0.0318,0.02117 0.0847,0.03175 0.0953,0.07408 0.0106,0.04233 -0.0317,0.07408 -0.0423,0.116416 -0.0953,0.232833 -0.11641,0.476249 -0.0953,0.730248 0.0529,0.857247 0.34925,1.703911 0.73025,2.465909 0.0106,0.03175 0.0317,0.04233 0.0635,0.04233 0.0953,0.01058 0.17992,0.05292 0.26458,0.08467 0.24342,0.105833 0.41275,0.677331 0.4445,0.910164 0.0106,0.105833 -0.0212,0.137583 -0.11642,0.169333 z"
       id="path2380" />
    <path
       style="font-style:normal;font-variant:normal;font-weight:normal;font-stretch:normal;font-size:10.5833px;line-height:1.25;font-family:'Rebeland Outline';-inkscape-font-specification:'Rebeland Outline, Normal';font-variant-ligatures:normal;font-variant-caps:normal;font-variant-numeric:normal;font-variant-east-asian:normal;fill:#000000;fill-opacity:1;stroke:none;stroke-width:0.264583"
       d="m -166.27037,-31.191079 c -0.0741,-0.910164 -0.4445,-1.735662 -1.17475,-2.30716 -0.26458,-0.201082 -0.53975,-0.380999 -0.80433,-0.560915 -0.0952,-0.0635 -0.1905,-0.126999 -0.28575,-0.190499 -0.15875,-0.09525 -0.28575,-0.222249 -0.41275,-0.349249 -0.0317,-0.03175 -0.0635,-0.0635 -0.0953,-0.09525 -0.127,-0.126999 -0.254,-0.179916 -0.43391,-0.179916 -0.59267,0 -1.09008,0.656165 -1.23825,1.164163 -0.0635,0.22225 -0.127,0.550332 0.0423,0.888997 0.10584,0.201083 0.254,0.380999 0.4445,0.529165 0.0317,0.02117 0.0635,0.04233 0.0952,0.0635 -0.0106,0.04233 -0.0106,0.09525 0,0.15875 0.10584,1.068913 1.11125,2.942157 2.34949,2.942157 0.46567,0 0.85725,-0.211666 1.12183,-0.592665 0.29634,-0.433915 0.42334,-0.93133 0.381,-1.492245 z"
       id="path2365" />
    <path
       style="font-style:normal;font-variant:normal;font-weight:normal;font-stretch:normal;font-size:10.5833px;line-height:1.25;font-family:'Rebeland Outline';-inkscape-font-specification:'Rebeland Outline, Normal';font-variant-ligatures:normal;font-variant-caps:normal;font-variant-numeric:normal;font-variant-east-asian:normal;fill:url(#linearGradient7457);fill-opacity:1;stroke:none;stroke-width:0.264583;stroke-opacity:1"
       d="m -166.97945,-29.94225 c -0.20109,0.296332 -0.47625,0.423332 -0.83609,0.423332 -0.95249,-0.04233 -1.65099,-1.481662 -1.86266,-2.307159 -0.0317,-0.09525 -0.0529,-0.201083 -0.0635,-0.306916 0,-0.03175 0.0106,-0.04233 0.0423,-0.03175 0.11641,0.04233 0.23283,0.08467 0.33866,0.148166 0.0741,0.04233 0.15875,0.07408 0.24342,0.105833 0.0635,0.02117 0.127,0.0635 0.1905,0.09525 -0.0529,-0.0635 -0.11642,-0.105833 -0.17992,-0.148166 -0.15875,-0.105833 -0.29633,-0.232833 -0.4445,-0.349249 -0.13758,-0.116417 -0.28575,-0.211666 -0.42333,-0.317499 -0.13758,-0.116417 -0.254,-0.253999 -0.33866,-0.412749 -0.0952,-0.201083 -0.0741,-0.402165 -0.0212,-0.603248 0.0953,-0.338666 0.30692,-0.592665 0.58208,-0.804331 0.0952,-0.0635 0.20108,-0.08467 0.3175,-0.08467 0.0529,0 0.0952,0.03175 0.13758,0.07408 0.127,0.116416 0.24342,0.243416 0.381,0.349249 0.0529,0.04233 0.10583,0.08467 0.16933,0.126999 0.35984,0.243416 0.73025,0.476249 1.06892,0.740831 0.64558,0.476249 0.97366,1.24883 1.02658,2.031994 0.0317,0.455082 -0.0635,0.878414 -0.3175,1.248829 z"
       id="path2384" />
    <path
       style="font-style:normal;font-variant:normal;font-weight:normal;font-stretch:normal;font-size:10.5833px;line-height:1.25;font-family:'Rebeland Outline';-inkscape-font-specification:'Rebeland Outline, Normal';font-variant-ligatures:normal;font-variant-caps:normal;font-variant-numeric:normal;font-variant-east-asian:normal;fill:#000000;fill-opacity:1;stroke:none;stroke-width:0.264583"
       d="m -167.79437,-31.243996 c -0.0952,-0.116416 -0.381,-0.349249 -0.53975,-0.380999 0.0423,0.05292 0.0741,0.105833 0.10584,0.15875 0.0423,0.08467 0.0741,0.169333 0.0635,0.275166 -0.0106,0.137582 0.0212,0.264582 0.0847,0.391582 0.0317,0.0635 0.0847,0.09525 0.15875,0.105833 0.13758,0.01058 0.27517,-0.105833 0.254,-0.232833 -0.0106,-0.116416 -0.0529,-0.222249 -0.13758,-0.317499 z"
       id="path2386" />
    <path
       style="font-style:normal;font-variant:normal;font-weight:normal;font-stretch:normal;font-size:10.5833px;line-height:1.25;font-family:'Rebeland Outline';-inkscape-font-specification:'Rebeland Outline, Normal';font-variant-ligatures:normal;font-variant-caps:normal;font-variant-numeric:normal;font-variant-east-asian:normal;fill:#000000;fill-opacity:1;stroke:none;stroke-width:0.264583"
       d="m -161.84661,-31.677915 c -0.13758,-0.15875 -0.26458,-0.328083 -0.38099,-0.518582 -0.0106,-0.02117 -0.0212,-0.04233 -0.0317,-0.0635 -0.0529,-0.08467 -0.11642,-0.201082 -0.22225,-0.296332 -0.0952,-0.09525 -0.21167,-0.148166 -0.33867,-0.15875 0.0635,-0.08467 0.11642,-0.179916 0.16933,-0.285749 0.0423,-0.08467 0.0741,-0.222249 0.0212,-0.391582 -0.0529,-0.158749 -0.127,-0.285749 -0.1905,-0.380999 -0.29633,-0.486831 -0.4445,-1.037163 -0.58208,-1.587495 -0.0847,-0.306915 -0.26458,-0.380998 -0.5715,-0.380998 -0.381,0.03175 -0.79375,0.317499 -0.94191,0.666748 -0.0953,-0.04233 -0.30692,-0.07408 -0.40217,-0.07408 -0.70908,0 -1.19591,0.634998 -1.19591,1.31233 0,0.666747 0.40217,1.333495 0.89958,1.756827 0.0317,0.03175 0.0635,0.0635 0.0953,0.09525 -0.0106,0.02117 -0.0212,0.04233 -0.0317,0.0635 v 0.01058 c -0.0106,0.01058 -0.0212,0.02117 -0.0212,0.03175 -0.0847,0.222249 -0.127,0.465665 -0.127,0.751414 0.0212,0.846664 0.84667,1.227663 1.59808,1.227663 0.42333,0 0.81492,-0.105833 1.17475,-0.338666 0.0106,0 0.0212,0 0.0317,0 0.11641,0.03175 0.23283,0.04233 0.34925,0.04233 0.40216,0 0.77258,-0.169333 0.92074,-0.571499 0.0635,-0.169332 0.127,-0.518581 -0.20108,-0.878413 z"
       id="path2369" />
    <path
       style="font-style:normal;font-variant:normal;font-weight:normal;font-stretch:normal;font-size:10.5833px;line-height:1.25;font-family:'Rebeland Outline';-inkscape-font-specification:'Rebeland Outline, Normal';font-variant-ligatures:normal;font-variant-caps:normal;font-variant-numeric:normal;font-variant-east-asian:normal;fill:url(#linearGradient7467);fill-opacity:1;stroke:none;stroke-width:0.264583;stroke-opacity:1"
       d="m -161.98419,-30.894751 c -0.0847,0.253999 -0.29633,0.338665 -0.53975,0.338665 -0.17991,0 -0.37041,-0.05292 -0.51858,-0.158749 0.0529,0.08467 -0.0212,0.105833 -0.0635,0.137583 -0.30691,0.211666 -0.61383,0.306916 -0.98424,0.306916 -0.51859,0 -1.2065,-0.243416 -1.2065,-0.857248 0,-0.211666 0.0212,-0.412748 0.0953,-0.613831 0.0106,-0.02117 0.0212,-0.04233 0.0317,-0.0635 0.0212,-0.07408 0.0741,-0.105833 0.14817,-0.105833 0.0529,0 0.11641,0 0.16933,0 0.0317,0 0.0529,0 0.0847,0 0.0106,0 0.0212,0 0.0318,-0.02117 -0.0318,-0.02117 -0.0635,-0.04233 -0.0953,-0.0635 -0.62441,-0.349249 -1.29116,-1.100663 -1.29116,-1.862661 0,-0.455082 0.29633,-0.920747 0.79375,-0.920747 0.35983,0 0.64558,0.253999 0.889,0.497415 0,-0.04233 -0.0106,-0.0635 -0.0212,-0.08467 -0.0529,-0.105833 -0.0953,-0.211666 -0.10583,-0.328083 -0.0212,-0.201082 0.0635,-0.359832 0.22225,-0.486831 0.13758,-0.105833 0.28575,-0.1905 0.46566,-0.211666 0.0212,0 0.0423,0 0.0529,0 0.0635,0 0.0847,0.02117 0.10583,0.105833 0.0423,0.169332 0.0741,0.338665 0.11642,0.507998 0.11641,0.423332 0.27516,0.825497 0.508,1.195913 0.0635,0.09525 0.11641,0.190499 0.14816,0.296332 0.0106,0.04233 0.0106,0.07408 -0.0106,0.116416 -0.0529,0.127 -0.127,0.232833 -0.23283,0.317499 -0.0317,0.02117 -0.0635,0.04233 -0.0953,0.04233 -0.0317,0 -0.0635,-0.02117 -0.10584,-0.04233 -0.32808,-0.264582 -0.57149,-0.476248 -1.02658,-0.476248 -0.0317,0 -0.0635,0 -0.0953,0 -0.20108,0.02117 -0.29633,0.190499 -0.23283,0.391582 0.0847,0.243416 0.28575,0.349249 0.52917,0.349249 0.0635,0 0.13758,-0.01058 0.21166,-0.02117 0.0318,0 0.0529,0 0.0741,0.02117 0.16934,0.201083 0.27517,0.423332 0.3175,0.677331 0.0106,0.09525 -0.0423,0.169333 -0.13758,0.1905 -0.0847,0.02117 -0.16933,0.04233 -0.254,0.0635 -0.0635,0.02117 -0.127,0.04233 -0.127,0.116417 0,0.07408 0.0529,0.116416 0.11642,0.148166 0.0529,0.03175 0.11641,0.04233 0.17991,0.04233 0.0318,0 0.0529,-0.01058 0.0847,-0.01058 0.0953,-0.01058 0.3175,-0.105833 0.35983,-0.201083 0.0423,-0.0635 0.0423,-0.137583 0.0318,-0.211666 0,-0.04233 0,-0.08467 0,-0.127 0,-0.137582 0.0635,-0.243415 0.16934,-0.328082 0.10583,-0.07408 0.22225,-0.105833 0.34924,-0.116416 0.0635,0 0.10584,0.01058 0.14817,0.05292 0.0847,0.08467 0.13758,0.1905 0.20108,0.296333 0.127,0.201082 0.26459,0.391582 0.42334,0.571498 0.127,0.137583 0.20108,0.296332 0.127,0.486832 z"
       id="path2396" />
    <path
       style="font-style:normal;font-variant:normal;font-weight:normal;font-stretch:normal;font-size:10.5833px;line-height:1.25;font-family:'Rebeland Outline';-inkscape-font-specification:'Rebeland Outline, Normal';font-variant-ligatures:normal;font-variant-caps:normal;font-variant-numeric:normal;font-variant-east-asian:normal;fill:#000000;fill-opacity:1;stroke:none;stroke-width:0.264583"
       d="m -165.05331,-36.175819 c -0.0635,-0.127 -0.17992,-0.211666 -0.3175,-0.232833 -0.1905,0 -0.254,0.05292 -0.381,0.179916 -0.0741,0.05292 -0.16934,0.08467 -0.28575,0.09525 -0.32808,0 -0.58208,-0.0635 -0.87842,-0.1905 -0.10583,-0.05292 -0.21166,-0.116416 -0.32808,-0.179916 -0.40216,-0.253999 -0.79375,-0.412748 -1.28058,-0.412748 -0.58208,0 -0.99483,0.264582 -1.14299,0.857247 -0.0741,0.296332 -0.0106,0.582081 0.0423,0.772581 0.0423,0.148166 0.10583,0.275165 0.15875,0.402165 0.0106,0.03175 0.0212,0.0635 0.0317,0.09525 0.10583,0.253999 0.29633,0.645581 0.61383,0.645581 0.0635,0 0.13758,-0.02117 0.20108,-0.05292 0.0106,0 0.0212,0 0.0423,0.01058 0.0847,0.02117 0.16933,0.07408 0.27516,0.158749 0.0212,0.01058 0.0529,0.04233 0.0741,0.07408 0.0317,0.03175 0.0635,0.0635 0.10583,0.09525 0.29633,0.275166 0.49741,0.582082 0.66675,0.952497 -0.0529,0.02117 -0.10584,0.05292 -0.15875,0.08467 -0.26459,0.179916 -0.39159,0.486831 -0.32809,0.814914 0.0847,0.433915 0.37042,1.005413 0.87842,1.005413 0.0635,0 0.127,-0.01058 0.17991,-0.03175 l 0.0423,-0.01058 c 0.0317,-0.01058 0.0635,-0.02117 0.0847,-0.02117 0.127,-0.03175 0.254,-0.04233 0.40217,-0.04233 0.0741,0 0.14817,0.01058 0.23283,0.01058 0.0423,0 0.0847,0 0.127,0 0.0741,0.01058 0.15875,0.02117 0.254,0.02117 0.32808,-0.01058 0.55033,-0.232833 0.56092,-0.560915 v -0.01058 c 0,-0.01058 0,-0.02117 0,-0.03175 0.0212,-0.317499 -0.0318,-0.592665 -0.15875,-0.825497 -0.0847,-0.148167 -0.1905,-0.254 -0.3175,-0.328083 -0.0635,-0.507998 -0.13759,-1.047746 -0.32808,-1.523995 0.66674,0 1.01599,-0.349249 1.06891,-0.984247 0.0212,-0.275166 -0.0317,-0.550331 -0.16933,-0.804331 z"
       id="path2390" />
    <path
       style="font-style:normal;font-variant:normal;font-weight:normal;font-stretch:normal;font-size:10.5833px;line-height:1.25;font-family:'Rebeland Outline';-inkscape-font-specification:'Rebeland Outline, Normal';font-variant-ligatures:normal;font-variant-caps:normal;font-variant-numeric:normal;font-variant-east-asian:normal;fill:url(#linearGradient7461);fill-opacity:1;stroke:none;stroke-width:0.264583;stroke-opacity:1"
       d="m -165.29673,-35.360905 c -0.0423,0.444498 -0.24342,0.624414 -0.67733,0.624414 -0.0741,0 -0.15875,-0.01058 -0.23283,-0.02117 -0.16934,-0.02117 -0.33867,-0.04233 -0.508,-0.0635 -0.0212,0 -0.0423,0 -0.0741,0.01058 0.0529,0.05292 0.11642,0.08467 0.16934,0.127 0.41275,0.391582 0.60325,1.471078 0.60325,2.074327 0,0.04233 0.0106,0.0635 0.0529,0.0635 0.14817,0.01058 0.24342,0.09525 0.30692,0.211666 0.10583,0.1905 0.127,0.402166 0.10583,0.613832 0,0.01058 0,0.02117 0,0.03175 -0.0106,0.126999 -0.0847,0.201082 -0.21167,0.201082 -0.11641,0 -0.23283,-0.02117 -0.34924,-0.02117 -0.0741,0 -0.15875,-0.01058 -0.23284,-0.01058 -0.22225,0 -0.46566,0.02117 -0.67733,0.105833 -0.0423,0 -0.0741,0 -0.11641,0 -0.27517,-0.105833 -0.381,-0.412748 -0.42334,-0.677331 -0.0317,-0.179916 0.0317,-0.338665 0.17992,-0.433915 0.0635,-0.04233 0.13758,-0.07408 0.21167,-0.07408 0.0741,0 0.15874,0.03175 0.23283,0.09525 0.0212,0.01058 0.0318,0.03175 0.0635,0.04233 0,-0.423332 -0.58208,-1.354663 -0.94192,-1.682745 -0.1905,-0.190499 -0.46566,-0.433915 -0.75141,-0.433915 -0.0423,0 -0.0741,0.01058 -0.11642,0.02117 -0.0317,0.01058 -0.0635,0.02117 -0.0847,0.04233 -0.0106,0.01058 -0.0212,0.01058 -0.0318,0.01058 -0.0106,0 -0.0317,-0.01058 -0.0423,-0.03175 -0.17991,-0.264583 -0.32808,-0.550332 -0.42333,-0.846664 -0.0529,-0.179916 -0.0847,-0.370415 -0.0423,-0.550332 0.0741,-0.306915 0.26458,-0.529165 0.59266,-0.560914 0.39159,0 0.65617,0.01058 1.016,0.201082 0.21167,0.105833 0.41275,0.232833 0.62442,0.328083 0.37041,0.158749 0.65616,0.222249 1.05833,0.222249 0.16933,-0.01058 0.32808,-0.05292 0.47624,-0.148166 0.0423,-0.02117 0.0741,-0.05292 0.10584,-0.08467 0.0212,-0.02117 0.0317,-0.02117 0.0529,0.01058 0.0953,0.190499 0.13759,0.391582 0.11642,0.603248 z"
       id="path2392" />
    <path
       style="font-style:normal;font-variant:normal;font-weight:normal;font-stretch:normal;font-size:10.5833px;line-height:1.25;font-family:'Rebeland Outline';-inkscape-font-specification:'Rebeland Outline, Normal';font-variant-ligatures:normal;font-variant-caps:normal;font-variant-numeric:normal;font-variant-east-asian:normal;fill:#000000;fill-opacity:1;stroke:none;stroke-width:0.264583"
       d="m -167.73089,-34.874074 c 0.0106,0 0.0212,0 0.0317,0 0.0212,0 0.14817,-0.01058 0.14817,-0.02117 0,-0.01058 -0.0106,-0.01058 -0.0212,-0.01058 -0.13758,-0.08467 -0.27517,-0.169332 -0.42333,-0.232832 -0.0847,-0.03175 -0.15875,-0.05292 -0.24342,-0.05292 -0.0847,0 -0.17991,0.02117 -0.26458,0.07408 -0.0212,0.01058 -0.0529,0.02117 -0.0529,0.05292 0,0.03175 0.0317,0.03175 0.0529,0.04233 0.34925,0.15875 0.66675,0.391582 0.93133,0.656165 0,-0.01058 0,-0.02117 -0.0106,-0.03175 -0.0635,-0.137583 -0.127,-0.275166 -0.20109,-0.402166 -0.0106,-0.01058 -0.0212,-0.02117 -0.0106,-0.03175 0.0106,-0.01058 0.0317,0 0.0423,0 z"
       id="path2367" />
    <path
       style="font-size:10.5833px;line-height:1.25;font-family:'Rebeland Outline';-inkscape-font-specification:'Rebeland Outline';fill:#000000;fill-opacity:1;stroke-width:0.264583"
       d="m -163.72491,-35.38804 c 0,0.518582 0.22225,1.047747 0.45508,1.502828 l 0.0635,0.127 c 0.0952,0.201083 0.1905,0.412749 0.26458,0.624415 l 0.0106,0.03175 c 0.0212,0.07408 0.0423,0.148166 0.0317,0.190499 -0.0212,0.158749 0.0529,0.349249 0.26458,0.433915 -0.0423,0.0635 -0.0741,0.127 -0.0847,0.201083 -0.0212,0.09525 -0.0318,0.190499 -0.0212,0.296332 0.0317,0.444499 0.20108,1.079497 0.73025,1.12183 h 0.31749 c 0.0423,0 0.0952,0 0.14817,-0.01058 0.22225,-0.03175 0.508,-0.127 0.48683,-0.603248 v 0.02117 c -0.0317,-0.423332 -0.254,-0.99483 -0.635,-1.195913 0.127,-0.158749 0.1905,-0.359832 0.1905,-0.603248 0,-0.201082 -0.0423,-0.412748 -0.127,-0.656164 -0.0318,-0.105833 -0.0635,-0.201083 -0.0953,-0.296333 -0.0741,-0.201082 -0.13758,-0.391582 -0.1905,-0.592664 -0.0635,-0.243416 -0.11641,-0.444499 -0.0952,-0.645582 0,-0.0635 0.0106,-0.137583 0.0317,-0.169332 0.0952,-0.148167 0.0741,-0.285749 0.0529,-0.349249 -0.10583,-0.296333 -0.47625,-0.359832 -0.762,-0.359832 -0.17991,0 -0.33866,0.03175 -0.50799,0.08467 h -0.0106 c -0.37041,0.127 -0.51858,0.476248 -0.51858,0.846664 z"
       id="path4194" />
    <path
       style="font-size:10.5833px;line-height:1.25;font-family:'Rebeland Outline';-inkscape-font-specification:'Rebeland Outline';fill:url(#linearGradient7463);fill-opacity:1;stroke:none;stroke-width:0.264583;stroke-opacity:1"
       d="m -162.38083,-32.011968 c 0,-0.0635 0,-0.126999 0.0106,-0.190499 0.0212,-0.127 0.15875,-0.179916 0.27517,-0.179916 0.10583,0 0.20108,0.04233 0.29633,0.137583 0.20108,0.179916 0.3175,0.529165 0.3175,0.804331 0.0106,0.179916 -0.0317,0.190499 -0.16933,0.211666 l 0.0317,-0.02117 c -0.0635,0.01058 -0.127,0.01058 -0.1905,0.02117 -0.0635,-0.01058 -0.127,-0.02117 -0.1905,-0.02117 -0.27517,-0.03175 -0.35983,-0.550332 -0.381,-0.761998 z"
       id="path4307" />
    <path
       style="font-size:10.5833px;line-height:1.25;font-family:'Rebeland Outline';-inkscape-font-specification:'Rebeland Outline';fill:url(#linearGradient7465);fill-opacity:1;stroke:none;stroke-width:0.264583;stroke-opacity:1"
       d="m -163.33333,-35.38804 c 0,-0.306916 0.11642,-0.476249 0.43392,-0.539748 0.0741,-0.01058 0.14816,-0.02117 0.22225,-0.02117 0.127,0 0.254,0.02117 0.37041,0.0635 0.0318,0.01058 0.0423,0.02117 0.0212,0.05292 -0.0635,0.105833 -0.0847,0.22225 -0.0953,0.338666 -0.0212,0.264582 0.0423,0.518582 0.11642,0.772581 0.0847,0.306915 0.20108,0.603248 0.30691,0.910164 0.0529,0.169332 0.0952,0.349248 0.0952,0.529165 0,0.306915 -0.13758,0.486831 -0.4445,0.486831 -0.0635,0 -0.127,-0.01058 -0.1905,-0.03175 -0.0106,-0.01058 -0.0212,-0.02117 -0.0212,-0.04233 0.0212,-0.137583 -0.0317,-0.264582 -0.0741,-0.391582 -0.0741,-0.232832 -0.16933,-0.455082 -0.27516,-0.666748 -0.127,-0.264582 -0.26458,-0.529165 -0.34925,-0.814914 -0.0635,-0.211666 -0.11642,-0.423332 -0.11642,-0.645581 z"
       id="path4305" />
    <path
       style="font-size:10.5833px;line-height:1.25;font-family:'Rebeland Outline';-inkscape-font-specification:'Rebeland Outline';stroke-width:0.264583"
       d="m -175.36444,-17.978658 c 0.0106,0.02117 0.0212,0.04233 0.0318,0.05292 -0.0423,0.05292 -0.0635,0.105833 -0.0847,0.169332 -0.0317,-0.05292 -0.0635,-0.09525 -0.10583,-0.137582 0.0529,-0.02117 0.10583,-0.05292 0.15875,-0.08467 z"
       id="path3125" />
    <g
       id="g3180"
       transform="translate(-0.52916667,-5.1967e-4)">
      <path
         style="font-size:10.5833px;line-height:1.25;font-family:'Rebeland Outline';-inkscape-font-specification:'Rebeland Outline';stroke-width:0.264583"
         d="m -164.35798,-17.798742 c -0.13759,-0.158749 -0.26459,-0.328082 -0.381,-0.518581 -0.0106,-0.02117 -0.0212,-0.04233 -0.0317,-0.0635 -0.0529,-0.08467 -0.11642,-0.201083 -0.22225,-0.296333 -0.0952,-0.09525 -0.21167,-0.148166 -0.33867,-0.158749 0.0635,-0.08467 0.11642,-0.179916 0.16934,-0.285749 0.0423,-0.08467 0.0741,-0.22225 0.0212,-0.391582 -0.0529,-0.15875 -0.127,-0.285749 -0.1905,-0.380999 -0.29633,-0.486832 -0.4445,-1.037163 -0.58208,-1.587495 -0.0847,-0.306916 -0.26458,-0.380999 -0.5715,-0.380999 -0.381,0.03175 -0.79374,0.317499 -0.94191,0.666748 -0.0953,-0.04233 -0.30692,-0.07408 -0.40217,-0.07408 -0.70908,0 -1.19591,0.634998 -1.19591,1.312329 0,0.666748 0.40217,1.333496 0.89958,1.756828 0.0317,0.03175 0.0635,0.0635 0.0952,0.09525 -0.0106,0.02117 -0.0212,0.04233 -0.0318,0.0635 v 0.01058 c -0.0106,0.01058 -0.0212,0.02117 -0.0212,0.03175 -0.0847,0.222249 -0.127,0.465665 -0.127,0.751414 0.0212,0.846664 0.84667,1.227663 1.59808,1.227663 0.42334,0 0.81492,-0.105833 1.17475,-0.338666 0.0106,0 0.0212,0 0.0318,0 0.11642,0.03175 0.23283,0.04233 0.34925,0.04233 0.40216,0 0.77258,-0.169333 0.92075,-0.571498 0.0635,-0.169333 0.12699,-0.518582 -0.20109,-0.878414 z"
         id="path3020" />
      <path
         style="font-size:10.5833px;line-height:1.25;font-family:'Rebeland Outline';-inkscape-font-specification:'Rebeland Outline';fill:#00ff95;fill-opacity:1;stroke-width:0.264583"
         d="m -164.49557,-17.015578 c -0.0847,0.254 -0.29633,0.338666 -0.53975,0.338666 -0.17991,0 -0.37041,-0.05292 -0.51858,-0.15875 0.0529,0.08467 -0.0212,0.105833 -0.0635,0.137583 -0.30691,0.211666 -0.61383,0.306916 -0.98424,0.306916 -0.51859,0 -1.2065,-0.243416 -1.2065,-0.857247 0,-0.211666 0.0212,-0.412749 0.0952,-0.613832 0.0106,-0.02117 0.0212,-0.04233 0.0317,-0.0635 0.0212,-0.07408 0.0741,-0.105833 0.14817,-0.105833 0.0529,0 0.11641,0 0.16933,0 0.0317,0 0.0529,0 0.0847,0 0.0106,0 0.0212,0 0.0317,-0.02117 -0.0317,-0.02117 -0.0635,-0.04233 -0.0952,-0.0635 -0.62442,-0.349249 -1.29117,-1.100663 -1.29117,-1.862661 0,-0.455081 0.29634,-0.920747 0.79375,-0.920747 0.35983,0 0.64558,0.254 0.889,0.497416 0,-0.04233 -0.0106,-0.0635 -0.0212,-0.08467 -0.0529,-0.105833 -0.0952,-0.211666 -0.10583,-0.328082 -0.0212,-0.201083 0.0635,-0.359832 0.22225,-0.486832 0.13758,-0.105833 0.28575,-0.190499 0.46566,-0.211666 0.0212,0 0.0423,0 0.0529,0 0.0635,0 0.0847,0.02117 0.10583,0.105833 0.0423,0.169333 0.0741,0.338666 0.11642,0.507998 0.11641,0.423332 0.27516,0.825498 0.508,1.195913 0.0635,0.09525 0.11641,0.1905 0.14816,0.296333 0.0106,0.04233 0.0106,0.07408 -0.0106,0.116416 -0.0529,0.127 -0.127,0.232833 -0.23283,0.317499 -0.0317,0.02117 -0.0635,0.04233 -0.0952,0.04233 -0.0318,0 -0.0635,-0.02117 -0.10584,-0.04233 -0.32808,-0.264583 -0.57149,-0.476249 -1.02658,-0.476249 -0.0318,0 -0.0635,0 -0.0953,0 -0.20108,0.02117 -0.29633,0.1905 -0.23283,0.391583 0.0847,0.243415 0.28575,0.349248 0.52917,0.349248 0.0635,0 0.13758,-0.01058 0.21166,-0.02117 0.0317,0 0.0529,0 0.0741,0.02117 0.16933,0.201083 0.27516,0.423332 0.31749,0.677332 0.0106,0.09525 -0.0423,0.169332 -0.13758,0.190499 -0.0847,0.02117 -0.16933,0.04233 -0.254,0.0635 -0.0635,0.02117 -0.127,0.04233 -0.127,0.116416 0,0.07408 0.0529,0.116416 0.11642,0.148166 0.0529,0.03175 0.11642,0.04233 0.17992,0.04233 0.0317,0 0.0529,-0.01058 0.0847,-0.01058 0.0953,-0.01058 0.3175,-0.105833 0.35983,-0.201082 0.0423,-0.0635 0.0423,-0.137583 0.0317,-0.211666 0,-0.04233 0,-0.08467 0,-0.127 0,-0.137583 0.0635,-0.243416 0.16934,-0.328082 0.10583,-0.07408 0.22225,-0.105833 0.34925,-0.116417 0.0635,0 0.10583,0.01058 0.14816,0.05292 0.0847,0.08467 0.13758,0.190499 0.20108,0.296332 0.127,0.201083 0.26459,0.391582 0.42334,0.571498 0.127,0.137583 0.20108,0.296333 0.127,0.486832 z"
         id="path3141" />
    </g>
    <g
       id="g3194">
      <path
         style="font-size:10.5833px;line-height:1.25;font-family:'Rebeland Outline';-inkscape-font-specification:'Rebeland Outline';stroke-width:0.264583"
         d="m -170.37673,-18.400256 c -0.0635,-0.02117 -0.11642,-0.04233 -0.16934,-0.05292 -0.0847,-0.02117 -0.15875,-0.04233 -0.23283,-0.0635 0,-0.01058 -0.0106,-0.02117 -0.0212,-0.03175 -0.0423,-0.08467 -0.0741,-0.179916 -0.0952,-0.275166 -0.0529,-0.275166 -0.0741,-0.560915 -0.0953,-0.867831 -0.0106,-0.09525 -0.0212,-0.190499 -0.0317,-0.285749 0,-0.02117 0,-0.05292 0,-0.08467 0,-1.079497 -0.94191,-1.418162 -1.80974,-1.682745 -0.3175,-0.09525 -0.61383,-0.190499 -0.889,-0.328082 -0.0741,-0.03175 -0.14816,-0.05292 -0.22225,-0.05292 -0.38099,0 -0.59266,0.560914 -0.68791,0.857247 -0.0741,0.232832 -0.0847,0.455082 -0.0847,0.656164 0,0.264583 0.11642,0.486832 0.3175,0.634998 -0.0106,0.0635 -0.0106,0.127 -0.0106,0.201083 0.0106,0.127 0.0423,0.243416 0.10583,0.370416 0.0212,0.05292 0.0529,0.105833 0.0847,0.158749 0.22225,0.402165 0.41275,0.825497 0.45508,1.280579 v 0.05292 c 0.0106,0.08467 0.0106,0.158749 0,0.211666 -0.0106,0.07408 -0.0317,0.148166 -0.0635,0.222249 -0.10583,0.201083 -0.0741,0.402165 0.0847,0.571498 0.27516,0.275166 0.82549,0.476249 1.22766,0.476249 0.16933,0 0.33867,-0.03175 0.51858,-0.09525 0.127,-0.05292 0.23283,-0.127 0.30692,-0.222249 0.0529,0.03175 0.10583,0.0635 0.16933,0.08467 0.14817,0.0635 0.29633,0.09525 0.4445,0.09525 0.508,0 0.92075,-0.444499 1.06891,-0.899581 0.11642,-0.338665 -0.0635,-0.730247 -0.39158,-0.857247 z"
         id="path3016" />
      <path
         style="font-size:10.5833px;line-height:1.25;font-family:'Rebeland Outline';-inkscape-font-specification:'Rebeland Outline';fill:#00ff95;fill-opacity:1;stroke-width:0.264583"
         d="m -170.35553,-17.585342 c -0.10583,0.306916 -0.381,0.645581 -0.74083,0.645581 -0.5715,0 -0.89958,-0.613831 -1.06891,-1.090079 -0.0212,-0.05292 -0.0318,-0.105833 -0.0318,-0.15875 0,-0.105833 0.0423,-0.190499 0.127,-0.253999 0.0212,-0.02117 0.0423,-0.04233 0.0635,-0.0635 0,-0.01058 0,-0.02117 0,-0.03175 0,-0.01058 -0.0106,0 -0.0212,0 -0.0106,0 -0.0212,0 -0.0317,0 -0.10583,0.03175 -0.20108,0.05292 -0.30691,0.05292 -0.11642,0 -0.24342,-0.02117 -0.35984,-0.05292 -0.0212,0 -0.0423,-0.01058 -0.0635,0 0.0212,0.04233 0.0635,0.0635 0.0953,0.08467 0.23284,0.158749 0.3175,0.349248 0.39159,0.603248 0.0741,0.201082 0.16933,0.391582 0.28574,0.571498 0.10584,0.169333 0.0635,0.328082 -0.12699,0.402165 -0.127,0.05292 -0.26459,0.08467 -0.40217,0.08467 -0.0529,0 -0.11642,-0.01058 -0.17992,-0.02117 -0.22225,-0.05292 -0.44449,-0.116416 -0.63499,-0.243416 -0.0423,-0.03175 -0.0847,-0.0635 -0.11642,-0.09525 -0.0529,-0.05292 -0.0529,-0.07408 -0.0212,-0.137583 0.0529,-0.105833 0.0953,-0.211666 0.11642,-0.328082 0.0212,-0.105833 0.0106,-0.211666 0,-0.317499 -0.0212,-0.306915 -0.10583,-0.603248 -0.22225,-0.888997 -0.0952,-0.232833 -0.22225,-0.455082 -0.33867,-0.677331 -0.0423,-0.07408 -0.0741,-0.148166 -0.0847,-0.232833 -0.0106,-0.08467 0,-0.158749 0.0106,-0.243416 0.0106,-0.03175 0.0317,-0.03175 0.0635,-0.03175 0.10583,0.01058 0.21167,0.02117 0.32808,0.05292 -0.0318,-0.04233 -0.0635,-0.05292 -0.0953,-0.0635 -0.11641,-0.05292 -0.23283,-0.105833 -0.34925,-0.158749 -0.16933,-0.07408 -0.25399,-0.211666 -0.25399,-0.391582 0,-0.402166 0.0953,-0.761998 0.33866,-1.09008 0.0212,-0.03175 0.0423,-0.04233 0.0635,-0.04233 0.0106,0 0.0317,0 0.0423,0.01058 0.40217,0.201083 0.83608,0.306916 1.25942,0.444498 0.55033,0.1905 1.02658,0.380999 1.20649,0.994831 0.0317,0.116416 0.0212,0.232832 0.0317,0.349248 0.0318,0.402166 0.0423,0.814915 0.127,1.21708 0.0212,0.127 0.0635,0.243416 0.11642,0.359832 0,0.01058 0.0106,0.02117 0,0.03175 -0.0106,0.01058 -0.0212,0 -0.0317,0 -0.0423,-0.01058 -0.0847,-0.02117 -0.13758,-0.03175 0.0952,0.127 0.51858,0.243416 0.66674,0.285749 0.0423,0.01058 0.0847,0.02117 0.127,0.04233 0.127,0.05292 0.22225,0.232833 0.16934,0.391582 z"
         id="path3129" />
      <path
         style="font-size:10.5833px;line-height:1.25;font-family:'Rebeland Outline';-inkscape-font-specification:'Rebeland Outline';stroke-width:0.264583"
         d="m -172.44044,-19.15167 c -0.0529,-0.07408 -0.0847,-0.148166 -0.0529,-0.243416 0,0 0.0106,-0.105833 0.0106,-0.137583 0,-0.03175 0,-0.0635 -0.0106,-0.09525 -0.0106,-0.0635 -0.0635,-0.116416 -0.127,-0.126999 -0.0423,-0.01058 -0.10584,0.03175 -0.127,0.08467 -0.0423,0.127 -0.0423,0.253999 0.0318,0.370416 0.0635,0.09525 0.15875,0.158749 0.26458,0.211666 0.0106,0.01058 0.0317,0.02117 0.0423,0 0.0106,-0.01058 0,-0.02117 -0.0106,-0.03175 -0.0106,-0.01058 -0.0212,-0.02117 -0.0317,-0.03175 z"
         id="path3131" />
    </g>
    <g
       id="g3187"
       transform="translate(-0.52916667,-0.52916667)">
      <path
         style="font-size:10.5833px;line-height:1.25;font-family:'Rebeland Outline';-inkscape-font-specification:'Rebeland Outline';stroke-width:0.264583"
         d="m -167.63874,-21.195981 c -0.0635,-0.127 -0.17992,-0.211666 -0.3175,-0.232833 -0.1905,0 -0.254,0.05292 -0.381,0.179917 -0.0741,0.05292 -0.16934,0.08467 -0.28575,0.09525 -0.32808,0 -0.58208,-0.0635 -0.87842,-0.190499 -0.10583,-0.05292 -0.21166,-0.116416 -0.32808,-0.179916 -0.40216,-0.253999 -0.79375,-0.412749 -1.28058,-0.412749 -0.58208,0 -0.99483,0.264583 -1.14299,0.857247 -0.0741,0.296333 -0.0106,0.582082 0.0423,0.772581 0.0423,0.148166 0.10583,0.275166 0.15875,0.402166 0.0106,0.03175 0.0212,0.0635 0.0318,0.09525 0.10583,0.253999 0.29633,0.645582 0.61383,0.645582 0.0635,0 0.13758,-0.02117 0.20108,-0.05292 0.0106,0 0.0212,0 0.0423,0.01058 0.0847,0.02117 0.16933,0.07408 0.27516,0.15875 0.0212,0.01058 0.0529,0.04233 0.0741,0.07408 0.0317,0.03175 0.0635,0.0635 0.10583,0.09525 0.29633,0.275165 0.49741,0.582081 0.66675,0.952497 -0.0529,0.02117 -0.10584,0.05292 -0.15875,0.08467 -0.26459,0.179916 -0.39159,0.486832 -0.32809,0.814914 0.0847,0.433915 0.37042,1.005414 0.87842,1.005414 0.0635,0 0.127,-0.01058 0.17991,-0.03175 l 0.0423,-0.01058 c 0.0318,-0.01058 0.0635,-0.02117 0.0847,-0.02117 0.127,-0.03175 0.254,-0.04233 0.40217,-0.04233 0.0741,0 0.14817,0.01058 0.23283,0.01058 0.0423,0 0.0847,0 0.127,0 0.0741,0.01058 0.15875,0.02117 0.254,0.02117 0.32808,-0.01058 0.55033,-0.232832 0.56092,-0.560914 v -0.01058 c 0,-0.01058 0,-0.02117 0,-0.03175 0.0212,-0.317499 -0.0318,-0.592664 -0.15875,-0.825497 -0.0847,-0.148166 -0.1905,-0.253999 -0.3175,-0.328082 -0.0635,-0.507999 -0.13759,-1.047747 -0.32809,-1.523995 0.66675,0 1.016,-0.349249 1.06892,-0.984247 0.0212,-0.275166 -0.0318,-0.550332 -0.16933,-0.804331 z"
         id="path3135" />
      <path
         style="font-size:10.5833px;line-height:1.25;font-family:'Rebeland Outline';-inkscape-font-specification:'Rebeland Outline';fill:#00ff95;fill-opacity:1;stroke-width:0.264583"
         d="m -167.88216,-20.381067 c -0.0423,0.444499 -0.24342,0.624415 -0.67733,0.624415 -0.0741,0 -0.15875,-0.01058 -0.23283,-0.02117 -0.16934,-0.02117 -0.33867,-0.04233 -0.508,-0.0635 -0.0212,0 -0.0423,0 -0.0741,0.01058 0.0529,0.05292 0.11642,0.08467 0.16934,0.126999 0.41275,0.391582 0.60324,1.471079 0.60324,2.074327 0,0.04233 0.0106,0.0635 0.0529,0.0635 0.14817,0.01058 0.24342,0.09525 0.30692,0.211666 0.10583,0.190499 0.127,0.402165 0.10583,0.613831 0,0.01058 0,0.02117 0,0.03175 -0.0106,0.127 -0.0847,0.201083 -0.21167,0.201083 -0.11641,0 -0.23283,-0.02117 -0.34924,-0.02117 -0.0741,0 -0.15875,-0.01058 -0.23284,-0.01058 -0.22225,0 -0.46566,0.02117 -0.67733,0.105833 -0.0423,0 -0.0741,0 -0.11641,0 -0.27517,-0.105833 -0.381,-0.412749 -0.42334,-0.677331 -0.0317,-0.179916 0.0318,-0.338666 0.17992,-0.433916 0.0635,-0.04233 0.13758,-0.07408 0.21167,-0.07408 0.0741,0 0.15874,0.03175 0.23283,0.09525 0.0212,0.01058 0.0317,0.03175 0.0635,0.04233 0,-0.423332 -0.58208,-1.354662 -0.94192,-1.682744 -0.1905,-0.1905 -0.46566,-0.433916 -0.75141,-0.433916 -0.0423,0 -0.0741,0.01058 -0.11642,0.02117 -0.0317,0.01058 -0.0635,0.02117 -0.0847,0.04233 -0.0106,0.01058 -0.0212,0.01058 -0.0317,0.01058 -0.0106,0 -0.0317,-0.01058 -0.0423,-0.03175 -0.17991,-0.264582 -0.32808,-0.550331 -0.42333,-0.846663 -0.0529,-0.179917 -0.0847,-0.370416 -0.0423,-0.550332 0.0741,-0.306916 0.26458,-0.529165 0.59266,-0.560915 0.39159,0 0.65617,0.01058 1.016,0.201083 0.21167,0.105833 0.41275,0.232832 0.62441,0.328082 0.37042,0.15875 0.65617,0.222249 1.05833,0.222249 0.16934,-0.01058 0.32809,-0.05292 0.47625,-0.148166 0.0423,-0.02117 0.0741,-0.05292 0.10584,-0.08467 0.0212,-0.02117 0.0318,-0.02117 0.0529,0.01058 0.0953,0.190499 0.13759,0.391582 0.11642,0.603248 z"
         id="path3137" />
      <path
         style="font-size:10.5833px;line-height:1.25;font-family:'Rebeland Outline';-inkscape-font-specification:'Rebeland Outline';stroke-width:0.264583"
         d="m -170.31632,-19.894235 c 0.0106,0 0.0212,0 0.0318,0 0.0212,0 0.14817,-0.01058 0.14817,-0.02117 0,-0.01058 -0.0106,-0.01058 -0.0212,-0.01058 -0.13758,-0.08467 -0.27517,-0.169333 -0.42333,-0.232833 -0.0847,-0.03175 -0.15875,-0.05292 -0.24342,-0.05292 -0.0847,0 -0.17991,0.02117 -0.26458,0.07408 -0.0212,0.01058 -0.0529,0.02117 -0.0529,0.05292 0,0.03175 0.0317,0.03175 0.0529,0.04233 0.34925,0.158749 0.66675,0.391582 0.93133,0.656164 0,-0.01058 0,-0.02117 -0.0106,-0.03175 -0.0635,-0.137583 -0.127,-0.275165 -0.20109,-0.402165 -0.0106,-0.01058 -0.0212,-0.02117 -0.0106,-0.03175 0.0106,-0.01058 0.0317,0 0.0423,0 z"
         id="path3018" />
    </g>
    <g
       id="g3168">
      <path
         style="font-size:10.5833px;line-height:1.25;font-family:'Rebeland Outline';-inkscape-font-specification:'Rebeland Outline';stroke-width:0.264583"
         d="m -178.67702,-20.592733 c 0.55033,0.328082 1.00542,1.735661 1.04775,2.338909 v 0.07408 c -0.13758,0.08467 -0.22225,0.22225 -0.24342,0.391583 -0.0212,0.148166 -0.0423,0.349248 -0.0212,0.550331 v 0.03175 c 0.0741,0.846664 0.83608,0.96308 1.56633,0.96308 0.49741,0 0.91016,-0.05292 0.99483,-0.656164 0.0106,0.03175 0.0317,0.0635 0.0529,0.09525 0.1905,0.338666 0.53975,0.518582 0.92075,0.518582 0.5715,0 1.55574,-0.349249 1.67216,-0.96308 0.0318,-0.137583 0.0423,-0.275166 0.0212,-0.412749 l -0.0106,0.02117 c -0.0635,-0.476249 -0.28575,-0.857248 -0.74083,-1.037164 -0.0106,-0.01058 -0.0318,-0.02117 -0.0423,-0.02117 -0.58208,-0.582082 -1.03716,-1.481662 -1.19591,-2.27541 -0.0106,-0.03175 -0.0106,-0.05292 -0.0106,-0.0635 0,-0.613832 -1.02658,-0.952497 -1.52399,-0.952497 -0.34925,0.02117 -0.59267,0.243415 -0.64558,0.571498 l -0.15875,-0.127 c -0.27517,-0.222249 -0.55033,-0.328082 -0.83608,-0.328082 -0.48683,0 -0.86783,0.243416 -1.04775,0.698498 -0.10583,0.243416 -0.0318,0.455082 0.20108,0.582081 z"
         id="path3014" />
      <path
         style="font-size:10.5833px;line-height:1.25;font-family:'Rebeland Outline';-inkscape-font-specification:'Rebeland Outline';stroke-width:0.264583;fill:#00ff95;fill-opacity:1"
         d="m -178.55002,-21.047815 c 0.10584,-0.264582 0.28575,-0.412748 0.5715,-0.455082 0.0423,-0.01058 0.0847,-0.01058 0.127,-0.01058 0.52917,0 0.99483,0.624415 1.25941,1.015997 0.127,0.190499 0.21167,0.402165 0.32809,0.592665 0.0212,0.03175 0.0317,0.0635 0.0635,0.09525 v -0.03175 c -0.0635,-0.179916 -0.0953,-0.370415 -0.13759,-0.550331 l -0.127,-0.507999 c -0.0318,-0.137582 -0.0423,-0.275165 -0.0423,-0.412748 0.0106,-0.1905 0.11642,-0.296333 0.30692,-0.306916 0.41274,0 0.78316,0.179916 1.07949,0.455082 0.0423,0.03175 0.0635,0.07408 0.0635,0.127 0,0.04233 0.0106,0.08467 0.0212,0.126999 0.16933,0.783164 0.46566,1.386412 0.92075,2.031994 0.12699,0.190499 0.31749,0.465665 0.53974,0.550331 0.33867,0.127 0.45509,0.391582 0.49742,0.730248 0.0106,0.09525 0.0106,0.190499 -0.0106,0.285749 l 0.0212,-0.01058 c -0.0847,0.412748 -0.92075,0.677331 -1.31233,0.677331 -0.254,0 -0.46566,-0.08467 -0.58208,-0.317499 -0.11642,-0.211666 -0.14816,-0.433915 -0.10583,-0.666748 0.0317,-0.148166 0.30691,-0.232833 0.43391,-0.253999 0.0212,0 0.0423,-0.01058 0.0635,-0.01058 -0.0106,-0.03175 -0.0318,-0.03175 -0.0529,-0.03175 -0.11642,-0.01058 -0.22225,-0.04233 -0.3175,-0.105833 -0.20108,-0.127 -0.43392,-1.195913 -0.47625,-1.449912 -0.0106,-0.03175 -0.0106,-0.0635 -0.0317,-0.08467 -0.0212,0.01058 -0.0212,0.02117 -0.0212,0.03175 -0.0423,0.190499 -0.0423,0.380999 -0.0212,0.571498 0.0106,0.15875 0.0212,0.317499 0.0106,0.476249 -0.0212,0.253999 -0.17992,0.253999 -0.37042,0.253999 -0.11641,-0.02117 -0.21166,-0.08467 -0.26458,-0.190499 -0.14816,-0.317499 -0.381,-0.571499 -0.64558,-0.793748 0.0106,0.05292 0.0317,0.08467 0.0529,0.116416 0.0847,0.127 0.17991,0.254 0.254,0.391582 0.13758,0.243416 0.24341,0.497416 0.26458,0.783165 0.0106,0.09525 0.0423,0.126999 0.13758,0.148166 0.15875,0.03175 0.26458,0.126999 0.3175,0.285749 0.0529,0.169333 0.0529,0.338665 0.0318,0.518582 -0.0106,0.07408 -0.0212,0.148166 -0.0423,0.211666 -0.0317,0.08467 -0.0847,0.137582 -0.17992,0.148166 -0.127,0.02117 -0.254,0.02117 -0.381,0.02117 -0.28575,0 -0.59266,-0.01058 -0.85725,-0.126999 -0.27516,-0.116417 -0.30691,-0.264583 -0.33866,-0.539749 -0.0212,-0.158749 -0.0106,-0.317498 0.0106,-0.476248 0.0212,-0.127 0.13759,-0.169333 0.24342,-0.169333 0.0212,0 0.0529,0.01058 0.0741,0.01058 l 0.254,0.03175 c 0.0317,0 0.0635,-0.01058 0.10583,-0.01058 -0.0635,-0.05292 -0.127,-0.07408 -0.17991,-0.09525 -0.0847,-0.04233 -0.16934,-0.08467 -0.22225,-0.169332 -0.0212,-0.04233 -0.0423,-0.08467 -0.0423,-0.127 -0.0317,-0.793747 -0.61384,-2.317743 -1.25942,-2.688158 -0.0635,-0.03175 -0.0635,-0.03175 -0.0317,-0.09525 z"
         id="path3123" />
    </g>
    <g
       id="g3220"
       transform="rotate(7.8695378,-173.09571,-158.16978)">
      <path
         style="font-size:10.5833px;line-height:1.25;font-family:'Rebeland Outline';-inkscape-font-specification:'Rebeland Outline';stroke-width:0.264583"
         d="m -157.83898,-17.329651 c -0.0106,-0.09525 -0.0318,-0.179916 -0.0529,-0.243416 -0.127,-0.349248 -0.27517,-0.677331 -0.39159,-0.920747 -0.0741,-0.148166 -0.17991,-0.253999 -0.3175,-0.317499 0,-0.01058 0,-0.02117 0,-0.03175 -0.0423,-0.137583 -0.0847,-0.275166 -0.127,-0.412749 -0.17991,-0.529165 -0.37041,-1.05833 -0.56091,-1.587495 -0.10583,-0.296333 -0.21167,-0.592665 -0.3175,-0.888997 -0.10583,-0.275166 -0.254,-0.306916 -0.52916,-0.306916 0.0741,-0.04233 0.11641,-0.09525 0.14816,-0.137583 0.11642,-0.179916 0.0529,-0.370415 0.0318,-0.433915 -0.16933,-0.571498 -0.53975,-1.449912 -1.24883,-1.449912 -0.41275,0.05292 -0.68791,0.222249 -0.92074,0.560915 -0.0106,0.01058 -0.0212,0.02117 -0.0317,0.03175 -0.0847,0.126999 -0.127,0.275165 -0.11642,0.433915 0.0423,0.349249 0.23283,0.687914 0.42333,0.984247 l 0.0423,0.07408 c 0.13759,0.211666 0.30692,0.296332 0.55034,0.296332 -0.0529,0.05292 -0.0953,0.116417 -0.11642,0.1905 -0.0635,0.190499 0.0212,0.349248 0.0529,0.412748 0.14816,0.275166 0.26458,0.507999 0.37041,0.751415 0.0529,0.116416 0.10583,0.232832 0.15875,0.349248 0.11642,0.275166 0.24342,0.560915 0.381,0.836081 0.0952,0.179916 0.16933,0.380999 0.24342,0.592665 -0.11642,0.09525 -0.16934,0.275166 -0.16934,0.423332 -0.0106,0.370415 0.10584,0.677331 0.21167,0.910164 0.14817,0.328082 0.45508,0.582081 0.8255,0.582081 0.0952,0 0.17991,-0.01058 0.24341,-0.02117 h 0.0106 c 0.30691,-0.05292 0.58208,-0.09525 0.85724,-0.09525 0.127,0 0.23284,-0.05292 0.30692,-0.137583 0.0529,-0.0635 0.11641,-0.179916 0.0952,-0.349249 z"
         id="path3207" />
      <path
         style="font-size:10.5833px;line-height:1.25;font-family:'Rebeland Outline';-inkscape-font-specification:'Rebeland Outline';fill:#00ff95;fill-opacity:1;stroke-width:0.264583"
         d="m -158.23056,-17.128568 c -0.30692,0 -0.60325,0.04233 -0.89958,0.09525 -0.0635,0.01058 -0.127,0.02117 -0.20108,0.02117 -0.0317,0 -0.0635,0 -0.0952,-0.01058 -0.15875,-0.04233 -0.27517,-0.148166 -0.35984,-0.338666 -0.10583,-0.232832 -0.17991,-0.476248 -0.16933,-0.740831 0,-0.03175 0.0106,-0.0635 0.0212,-0.09525 0.0106,-0.04233 0.0318,-0.07408 0.0635,-0.07408 0.0847,0 0.1905,0.253999 0.21166,0.317499 0.0106,0.03175 0.0318,0.07408 0.0741,0.08467 -0.0529,-0.179916 -0.0741,-0.370415 -0.13759,-0.550331 -0.10583,-0.306916 -0.20108,-0.624415 -0.34924,-0.910164 -0.1905,-0.370416 -0.34925,-0.761998 -0.51859,-1.142997 -0.11641,-0.264582 -0.24341,-0.518581 -0.37041,-0.77258 -0.0529,-0.09525 -0.0423,-0.127 0.0318,-0.15875 0.15875,-0.07408 0.32808,-0.105833 0.49741,-0.137583 0.13759,-0.02117 0.27517,-0.04233 0.41275,-0.0635 0.0423,-0.01058 0.0635,0.01058 0.0847,0.05292 0.28575,0.825497 0.58208,1.650995 0.86783,2.476492 0.0635,0.179916 0.11642,0.370415 0.16933,0.560915 0.0106,0.05292 0.0212,0.08467 0.0741,0.09525 0.0847,0.01058 0.16934,0.05292 0.22225,0.158749 0.13759,0.285749 0.27517,0.582081 0.39159,0.888997 0.0212,0.05292 0.0423,0.105833 0.0529,0.15875 0.0106,0.04233 0,0.0635 -0.0318,0.0635 z"
         id="path3215" />
      <path
         style="font-size:10.5833px;line-height:1.25;font-family:'Rebeland Outline';-inkscape-font-specification:'Rebeland Outline';fill:#00ff95;fill-opacity:1;stroke-width:0.264583"
         d="m -161.2468,-22.007469 c -0.0212,0.01058 -0.0317,0.01058 -0.0529,0.01058 -0.16933,0 -0.43391,-0.539748 -0.48683,-0.666748 -0.0529,-0.105833 -0.0952,-0.211666 -0.10583,-0.328082 -0.0106,-0.07408 0,-0.127 0.0318,-0.179916 0.17991,-0.275166 0.37041,-0.412749 0.70908,-0.455082 0.127,-0.01058 0.23283,0.09525 0.32808,0.190499 0.21167,0.211666 0.42333,0.709082 0.508,1.005414 0.0318,0.116416 0.0106,0.158749 -0.0741,0.169333 -0.30692,0.05292 -0.60325,0.116416 -0.889,0.243416 z"
         id="path3213" />
    </g>
    <g
       id="g3201">
      <path
         style="font-size:10.5833px;line-height:1.25;font-family:'Rebeland Outline';-inkscape-font-specification:'Rebeland Outline';stroke-width:0.264583"
         d="m -178.9944,-21.195981 c -0.0635,-0.127 -0.17992,-0.211666 -0.3175,-0.232833 -0.1905,0 -0.254,0.05292 -0.381,0.179917 -0.0741,0.05292 -0.16933,0.08467 -0.28575,0.09525 -0.32808,0 -0.58208,-0.0635 -0.87841,-0.190499 -0.10584,-0.05292 -0.21167,-0.116416 -0.32809,-0.179916 -0.40216,-0.253999 -0.79374,-0.412749 -1.28058,-0.412749 -0.58208,0 -0.99483,0.264583 -1.14299,0.857247 -0.0741,0.296333 -0.0106,0.582082 0.0423,0.772581 0.0423,0.148166 0.10583,0.275166 0.15875,0.402166 0.0106,0.03175 0.0212,0.0635 0.0317,0.09525 0.10583,0.253999 0.29633,0.645582 0.61383,0.645582 0.0635,0 0.13759,-0.02117 0.20108,-0.05292 0.0106,0 0.0212,0 0.0423,0.01058 0.0847,0.02117 0.16933,0.07408 0.27516,0.15875 0.0212,0.01058 0.0529,0.04233 0.0741,0.07408 0.0318,0.03175 0.0635,0.0635 0.10583,0.09525 0.29633,0.275165 0.49742,0.582081 0.66675,0.952497 -0.0529,0.02117 -0.10584,0.05292 -0.15875,0.08467 -0.26458,0.179916 -0.39158,0.486832 -0.32808,0.814914 0.0847,0.433915 0.37041,1.005414 0.87841,1.005414 0.0635,0 0.127,-0.01058 0.17992,-0.03175 l 0.0423,-0.01058 c 0.0317,-0.01058 0.0635,-0.02117 0.0847,-0.02117 0.127,-0.03175 0.25399,-0.04233 0.40216,-0.04233 0.0741,0 0.14817,0.01058 0.23283,0.01058 0.0423,0 0.0847,0 0.127,0 0.0741,0.01058 0.15875,0.02117 0.254,0.02117 0.32808,-0.01058 0.55033,-0.232832 0.56092,-0.560914 v -0.01058 c 0,-0.01058 0,-0.02117 0,-0.03175 0.0212,-0.317499 -0.0317,-0.592664 -0.15875,-0.825497 -0.0847,-0.148166 -0.1905,-0.253999 -0.3175,-0.328082 -0.0635,-0.507999 -0.13758,-1.047747 -0.32808,-1.523995 0.66674,0 1.01599,-0.349249 1.06891,-0.984247 0.0212,-0.275166 -0.0317,-0.550332 -0.16933,-0.804331 z"
         id="path3111" />
      <path
         style="font-size:10.5833px;line-height:1.25;font-family:'Rebeland Outline';-inkscape-font-specification:'Rebeland Outline';fill:#00ff95;fill-opacity:1;stroke-width:0.264583"
         d="m -179.23782,-20.381067 c -0.0423,0.444499 -0.24341,0.624415 -0.67733,0.624415 -0.0741,0 -0.15875,-0.01058 -0.23283,-0.02117 -0.16934,-0.02117 -0.33867,-0.04233 -0.508,-0.0635 -0.0212,0 -0.0423,0 -0.0741,0.01058 0.0529,0.05292 0.11641,0.08467 0.16933,0.126999 0.41275,0.391582 0.60325,1.471079 0.60325,2.074327 0,0.04233 0.0106,0.0635 0.0529,0.0635 0.14817,0.01058 0.24342,0.09525 0.30692,0.211666 0.10583,0.190499 0.127,0.402165 0.10583,0.613831 0,0.01058 0,0.02117 0,0.03175 -0.0106,0.127 -0.0847,0.201083 -0.21166,0.201083 -0.11642,0 -0.23284,-0.02117 -0.34925,-0.02117 -0.0741,0 -0.15875,-0.01058 -0.23284,-0.01058 -0.22225,0 -0.46566,0.02117 -0.67733,0.105833 -0.0423,0 -0.0741,0 -0.11641,0 -0.27517,-0.105833 -0.381,-0.412749 -0.42334,-0.677331 -0.0317,-0.179916 0.0318,-0.338666 0.17992,-0.433916 0.0635,-0.04233 0.13758,-0.07408 0.21167,-0.07408 0.0741,0 0.15875,0.03175 0.23283,0.09525 0.0212,0.01058 0.0317,0.03175 0.0635,0.04233 0,-0.423332 -0.58208,-1.354662 -0.94191,-1.682744 -0.1905,-0.1905 -0.46567,-0.433916 -0.75142,-0.433916 -0.0423,0 -0.0741,0.01058 -0.11641,0.02117 -0.0318,0.01058 -0.0635,0.02117 -0.0847,0.04233 -0.0106,0.01058 -0.0212,0.01058 -0.0317,0.01058 -0.0106,0 -0.0318,-0.01058 -0.0423,-0.03175 -0.17992,-0.264582 -0.32809,-0.550331 -0.42334,-0.846663 -0.0529,-0.179917 -0.0847,-0.370416 -0.0423,-0.550332 0.0741,-0.306916 0.26458,-0.529165 0.59267,-0.560915 0.39158,0 0.65616,0.01058 1.01599,0.201083 0.21167,0.105833 0.41275,0.232832 0.62442,0.328082 0.37041,0.15875 0.65616,0.222249 1.05833,0.222249 0.16933,-0.01058 0.32808,-0.05292 0.47625,-0.148166 0.0423,-0.02117 0.0741,-0.05292 0.10583,-0.08467 0.0212,-0.02117 0.0317,-0.02117 0.0529,0.01058 0.0952,0.190499 0.13759,0.391582 0.11642,0.603248 z"
         id="path3113" />
      <path
         style="font-size:10.5833px;line-height:1.25;font-family:'Rebeland Outline';-inkscape-font-specification:'Rebeland Outline';stroke-width:0.264583"
         d="m -181.67198,-19.894235 c 0.0106,0 0.0212,0 0.0318,0 0.0212,0 0.14817,-0.01058 0.14817,-0.02117 0,-0.01058 -0.0106,-0.01058 -0.0212,-0.01058 -0.13758,-0.08467 -0.27516,-0.169333 -0.42333,-0.232833 -0.0847,-0.03175 -0.15875,-0.05292 -0.24342,-0.05292 -0.0847,0 -0.17991,0.02117 -0.26458,0.07408 -0.0212,0.01058 -0.0529,0.02117 -0.0529,0.05292 0,0.03175 0.0318,0.03175 0.0529,0.04233 0.34925,0.158749 0.66675,0.391582 0.93133,0.656164 0,-0.01058 0,-0.02117 -0.0106,-0.03175 -0.0635,-0.137583 -0.127,-0.275165 -0.20108,-0.402165 -0.0106,-0.01058 -0.0212,-0.02117 -0.0106,-0.03175 0.0106,-0.01058 0.0318,0 0.0423,0 z"
         id="path3010" />
    </g>
    <g
       id="g3155">
      <path
         style="font-size:10.5833px;line-height:1.25;font-family:'Rebeland Outline';-inkscape-font-specification:'Rebeland Outline';stroke-width:0.264583"
         d="m -181.619,-17.925741 c -0.11642,-0.137583 -0.23283,-0.254 -0.34925,-0.349249 -0.0741,-0.05292 -0.14817,-0.105833 -0.22225,-0.15875 0.0423,-0.03175 0.0847,-0.07408 0.127,-0.116416 0.16933,-0.179916 0.20108,-0.370416 0.0953,-0.592665 -0.23283,-0.476248 -0.59266,-1.439329 -0.59266,-1.979077 0,-0.158749 0,-0.306916 0.0318,-0.444498 0.0423,-0.148167 0.0212,-0.275166 -0.0635,-0.380999 -0.0847,-0.105833 -0.20109,-0.15875 -0.34925,-0.15875 -0.42333,0 -0.75142,0.243416 -0.9525,0.603248 -0.0741,-0.08467 -0.16933,-0.169332 -0.28575,-0.232832 -0.16933,-0.105833 -0.29633,-0.137583 -0.49741,-0.137583 -0.6985,0.0635 -1.15358,0.476248 -1.29117,1.164163 -0.0317,0.201083 -0.0106,0.380999 0.0106,0.539748 0,0.02117 0,0.04233 0,0.0635 0.0635,0.518582 0.42333,1.301746 0.83608,1.650995 0.0953,0.116416 0.20108,0.211666 0.28575,0.275165 -0.0212,0.03175 -0.0423,0.0635 -0.0635,0.105833 -0.15875,0.317499 -0.1905,0.666748 -0.10584,1.05833 0.0847,0.359833 0.43392,0.867831 0.84667,0.867831 0.127,0 0.22225,-0.05292 0.27516,-0.09525 0.16934,-0.05292 0.3175,-0.0635 0.48684,-0.0635 0.0741,0.01058 0.15875,0.03175 0.25399,0.05292 0.0952,0.02117 0.20109,0.05292 0.3175,0.0635 l 0.0529,0.01058 c 0.0847,0.01058 0.17992,0.01058 0.27517,0.01058 0.0423,0 0.0847,0 0.127,0 0.50799,-0.0635 0.82549,-0.465665 0.89958,-0.96308 0.0529,-0.328082 -0.0212,-0.613831 -0.22225,-0.846664 z"
         id="path3008" />
      <g
         id="g3150">
        <path
           style="font-size:10.5833px;line-height:1.25;font-family:'Rebeland Outline';-inkscape-font-specification:'Rebeland Outline';stroke-width:0.264583;fill:#00ff95;fill-opacity:1"
           d="m -181.84125,-17.195494 c -0.0423,0.306916 -0.22225,0.613832 -0.55033,0.645582 -0.127,0 -0.254,-0.01058 -0.381,-0.02117 -0.20108,-0.02117 -0.39158,-0.09525 -0.59266,-0.116416 -0.0529,0 -0.10584,-0.01058 -0.15875,-0.01058 -0.10584,0 -0.49742,0.04233 -0.58209,0.127 -0.0212,0.02117 -0.0423,0.03175 -0.0741,0.03175 -0.0212,0 -0.0423,-0.01058 -0.0741,-0.03175 -0.21167,-0.127 -0.33867,-0.317499 -0.39158,-0.560915 -0.0635,-0.275166 -0.0635,-0.550331 0.0635,-0.804331 0.0318,-0.0635 0.0741,-0.116416 0.14816,-0.148166 0.0106,0 0.0212,-0.01058 0.0317,-0.01058 0.0212,0 0.0318,0.01058 0.0529,0.02117 0.30691,0.201083 0.64558,0.359833 0.96308,0.560915 0.24341,0.148167 0.37041,0.264583 0.47625,0.518582 0.0106,0.02117 0.0212,0.04233 0.0423,0.04233 0.0212,0 0.0212,-0.02117 0.0212,-0.03175 0,-0.01058 0,-0.02117 0,-0.03175 l -0.0529,0.02117 c 0,0 0,0 0,0 l 0.0529,-0.02117 c 0.0317,-0.137583 -0.0212,-0.253999 -0.0953,-0.359832 -0.14817,-0.211666 -0.37042,-0.328082 -0.58208,-0.455082 -0.35984,-0.211666 -0.74084,-0.391582 -1.06892,-0.645581 -0.0847,-0.07408 -0.16933,-0.148166 -0.24341,-0.232833 -0.0212,-0.02117 -0.0423,-0.04233 -0.0635,-0.0635 -0.33867,-0.296333 -0.64558,-0.963081 -0.70908,-1.407579 -0.0212,-0.169333 -0.0529,-0.338666 -0.0212,-0.507999 0.0952,-0.507998 0.41275,-0.83608 0.94191,-0.86783 0.29634,0 0.51858,0.275166 0.65617,0.518582 0.14816,0.264582 0.29633,0.529165 0.4445,0.793747 0.0318,0.0635 0.0847,0.116416 0.13758,0.169333 -0.0318,-0.105833 -0.0847,-0.201083 -0.11642,-0.306916 -0.0847,-0.253999 -0.14816,-0.507998 -0.10583,-0.783164 0.0423,-0.338666 0.34925,-0.603248 0.68791,-0.603248 0.0529,0 0.0529,0 0.0423,0.05292 -0.0423,0.179916 -0.0423,0.359833 -0.0423,0.539749 0.0106,0.624414 0.35984,1.555745 0.65617,2.148409 0.0423,0.07408 0.0423,0.09525 -0.0106,0.15875 -0.0635,0.0635 -0.13759,0.105833 -0.22225,0.127 -0.0529,0.01058 -0.10584,0.02117 -0.15875,0.03175 -0.0635,0 -0.11642,0 -0.16934,-0.04233 -0.1905,-0.137583 -0.38099,-0.264582 -0.56091,-0.412748 -0.40217,-0.338666 -0.58208,-0.550332 -0.80433,-1.015997 -0.0317,0.03175 -0.0423,0.08467 -0.0317,0.148166 0.0847,0.666748 0.92075,1.238246 1.43933,1.566328 0.21166,0.137583 0.43391,0.264583 0.635,0.423332 0.10583,0.08467 0.20108,0.1905 0.29633,0.296333 0.13758,0.158749 0.16933,0.338665 0.13758,0.539748 z"
           id="path3107" />
      </g>
    </g>
    <path
       style="fill:#000000;stroke:none;stroke-width:0.264583px;stroke-linecap:butt;stroke-linejoin:miter;stroke-opacity:1;fill-opacity:1"
       d="m -181.93242,-19.054407 0.80051,1.209789 -0.53903,0.186408 -0.71558,-0.883577 z"
       id="path3222" />
    <path
       style="fill:#000000;stroke:none;stroke-width:0.264583px;stroke-linecap:butt;stroke-linejoin:miter;stroke-opacity:1"
       d="m -180.09656,-19.566797 0.48965,0.01321 0.38594,1.58649 -0.44149,0.371135 z"
       id="path3224" />
    <path
       style="fill:#000000;stroke:none;stroke-width:0.264583px;stroke-linecap:butt;stroke-linejoin:miter;stroke-opacity:1"
       d="m -178.21584,-20.279589 0.55699,1.015773 0.23355,1.199912 -0.53365,0.153521 -0.37993,-2.317509 z"
       id="path3226" />
    <path
       style="fill:#000000;stroke:none;stroke-width:0.264583px;stroke-linecap:butt;stroke-linejoin:miter;stroke-opacity:1"
       d="m -170.99366,-19.441198 0.7488,1.122229 -0.78942,-0.0798 z"
       id="path3228" />
    <g
       id="g3274"
       transform="rotate(-6.2906109,-164.07267,21.768477)">
      <path
         style="font-size:10.5833px;line-height:1.25;font-family:'Rebeland Outline';-inkscape-font-specification:'Rebeland Outline';stroke-width:0.264583"
         d="m -161.9426,-21.318651 c 0,0.518581 0.22224,1.047746 0.45508,1.502828 l 0.0635,0.127 c 0.0953,0.201083 0.1905,0.412749 0.26458,0.624415 l 0.0106,0.03175 c 0.0212,0.07408 0.0423,0.148167 0.0318,0.1905 -0.0212,0.158749 0.0529,0.349249 0.26459,0.433915 -0.0423,0.0635 -0.0741,0.127 -0.0847,0.201083 -0.0212,0.09525 -0.0318,0.190499 -0.0212,0.296332 0.0317,0.444499 0.20108,1.079497 0.73025,1.12183 h 0.3175 c 0.0423,0 0.0952,0 0.14816,-0.01058 0.22225,-0.03175 0.508,-0.127 0.48684,-0.603248 v 0.02117 c -0.0317,-0.423332 -0.254,-0.99483 -0.635,-1.195913 0.127,-0.158749 0.1905,-0.359832 0.1905,-0.603248 0,-0.201082 -0.0423,-0.412748 -0.127,-0.656164 -0.0318,-0.105833 -0.0635,-0.201083 -0.0953,-0.296333 -0.0741,-0.201082 -0.13758,-0.391582 -0.1905,-0.592664 -0.0635,-0.243416 -0.11642,-0.444499 -0.0952,-0.645582 0,-0.0635 0.0106,-0.137583 0.0317,-0.169333 0.0952,-0.148166 0.0741,-0.285749 0.0529,-0.349248 -0.10584,-0.296333 -0.47625,-0.359833 -0.762,-0.359833 -0.17992,0 -0.33867,0.03175 -0.508,0.08467 h -0.0106 c -0.37042,0.126999 -0.51858,0.476248 -0.51858,0.846664 z"
         id="path3261" />
      <path
         style="font-size:10.5833px;line-height:1.25;font-family:'Rebeland Outline';-inkscape-font-specification:'Rebeland Outline';fill:#00ff95;fill-opacity:1;stroke-width:0.264583"
         d="m -160.59853,-17.942579 c 0,-0.0635 0,-0.126999 0.0106,-0.190499 0.0212,-0.127 0.15875,-0.179916 0.27516,-0.179916 0.10584,0 0.20109,0.04233 0.29634,0.137583 0.20108,0.179916 0.31749,0.529165 0.31749,0.804331 0.0106,0.179916 -0.0318,0.190499 -0.16933,0.211666 l 0.0317,-0.02117 c -0.0635,0.01058 -0.127,0.01058 -0.1905,0.02117 -0.0635,-0.01058 -0.127,-0.02117 -0.1905,-0.02117 -0.27516,-0.03175 -0.35983,-0.550332 -0.381,-0.761998 z"
         id="path3269" />
      <path
         style="font-size:10.5833px;line-height:1.25;font-family:'Rebeland Outline';-inkscape-font-specification:'Rebeland Outline';fill:#00ff95;fill-opacity:1;stroke-width:0.264583"
         d="m -161.55102,-21.318651 c 0,-0.306916 0.11641,-0.476249 0.43391,-0.539749 0.0741,-0.01058 0.14817,-0.02117 0.22225,-0.02117 0.127,0 0.254,0.02117 0.37042,0.0635 0.0317,0.01058 0.0423,0.02117 0.0212,0.05292 -0.0635,0.105833 -0.0847,0.222249 -0.0953,0.338666 -0.0212,0.264582 0.0423,0.518581 0.11642,0.772581 0.0847,0.306915 0.20108,0.603248 0.30692,0.910163 0.0529,0.169333 0.0952,0.349249 0.0952,0.529165 0,0.306916 -0.13759,0.486832 -0.4445,0.486832 -0.0635,0 -0.127,-0.01058 -0.1905,-0.03175 -0.0106,-0.01058 -0.0212,-0.02117 -0.0212,-0.04233 0.0212,-0.137583 -0.0318,-0.264582 -0.0741,-0.391582 -0.0741,-0.232833 -0.16933,-0.455082 -0.27517,-0.666748 -0.127,-0.264582 -0.26458,-0.529165 -0.34925,-0.814914 -0.0635,-0.211666 -0.11641,-0.423332 -0.11641,-0.645581 z"
         id="path3267" />
    </g>
    <path
       style="fill:#000000;stroke:none;stroke-width:0.264583px;stroke-linecap:butt;stroke-linejoin:miter;stroke-opacity:1"
       d="m -165.67006,-19.512879 0.62469,1.067421 -0.27204,0.297074 -0.7473,-0.754226 z"
       id="path3276" />
  </g>
</svg>
