<svg width="39.211mm" height="7.6748mm" version="1.1" viewBox="0 0 39.211 7.6748" xmlns="http://www.w3.org/2000/svg" xmlns:xlink="http://www.w3.org/1999/xlink"><defs><linearGradient id="c"><stop stop-color="#00ff95" offset="0"/><stop stop-color="#eaff00" offset="1"/></linearGradient><linearGradient id="a" x1="-176.06" x2="-176.06" y1="-34.795" y2="-31.315" gradientUnits="userSpaceOnUse"><stop stop-color="#00ff95" offset="0"/><stop stop-color="#eaff00" offset="1"/></linearGradient><linearGradient id="b" x1="-187.16" x2="-187.16" y1="-21.251" y2="-17.772" gradientUnits="userSpaceOnUse" xlink:href="#c"/></defs><g transform="translate(191.69 37.239)"><path d="m-181.03-32.327c-0.13758-0.15875-0.26458-0.32808-0.381-0.51858-0.0106-0.02117-0.0212-0.04233-0.0317-0.0635-0.0529-0.08467-0.11641-0.20108-0.22225-0.29633-0.0952-0.09525-0.21166-0.14817-0.33866-0.15875 0.0635-0.08467 0.11641-0.17992 0.16933-0.28575 0.0423-0.08467 0.0741-0.22225 0.0212-0.39158-0.0529-0.15875-0.127-0.28575-0.1905-0.381-0.29633-0.48683-0.4445-1.0372-0.58208-1.5875-0.0847-0.30692-0.26459-0.381-0.5715-0.381-0.381 0.03175-0.79375 0.3175-0.94192 0.66675-0.0952-0.04233-0.30691-0.07408-0.40216-0.07408-0.70908 0-1.1959 0.635-1.1959 1.3123 0 0.66675 0.40216 1.3335 0.89958 1.7568 0.0318 0.03175 0.0635 0.0635 0.0953 0.09525-0.0106 0.02117-0.0212 0.04233-0.0318 0.0635v0.01058c-0.0106 0.01058-0.0212 0.02117-0.0212 0.03175-0.0847 0.22225-0.127 0.46567-0.127 0.75142 0.0212 0.84666 0.84666 1.2277 1.5981 1.2277 0.42333 0 0.81491-0.10583 1.1748-0.33866h0.0318c0.11641 0.03175 0.23283 0.04233 0.34924 0.04233 0.40217 0 0.77258-0.16933 0.92075-0.5715 0.0635-0.16933 0.127-0.51858-0.20108-0.87841z"/><path d="m-187.56-32.644 0.59723 1.3339-0.4454 0.15786-0.61411-0.89938z"/><path d="m-181.16-31.544c-0.0847 0.254-0.29633 0.33867-0.53975 0.33867-0.17992 0-0.37041-0.05292-0.51858-0.15875 0.0529 0.08467-0.0212 0.10583-0.0635 0.13758-0.30692 0.21167-0.61383 0.30692-0.98425 0.30692-0.51858 0-1.2065-0.24342-1.2065-0.85725 0-0.21167 0.0212-0.41275 0.0952-0.61383 0.0106-0.02117 0.0212-0.04233 0.0317-0.0635 0.0212-0.07408 0.0741-0.10583 0.14816-0.10583h0.16933 0.0847c0.0106 0 0.0212 0 0.0317-0.02117-0.0317-0.02117-0.0635-0.04233-0.0952-0.0635-0.62441-0.34925-1.2912-1.1007-1.2912-1.8627 0-0.45508 0.29633-0.92075 0.79375-0.92075 0.35983 0 0.64558 0.254 0.88899 0.49742 0-0.04233-0.0106-0.0635-0.0212-0.08467-0.0529-0.10583-0.0952-0.21167-0.10584-0.32808-0.0212-0.20108 0.0635-0.35983 0.22225-0.48683 0.13759-0.10583 0.28575-0.1905 0.46567-0.21167h0.0529c0.0635 0 0.0847 0.02117 0.10584 0.10583 0.0423 0.16933 0.0741 0.33867 0.11641 0.508 0.11642 0.42333 0.27517 0.8255 0.508 1.1959 0.0635 0.09525 0.11642 0.1905 0.14817 0.29633 0.0106 0.04233 0.0106 0.07408-0.0106 0.11642-0.0529 0.127-0.127 0.23283-0.23284 0.3175-0.0317 0.02117-0.0635 0.04233-0.0952 0.04233-0.0318 0-0.0635-0.02117-0.10583-0.04233-0.32808-0.26458-0.5715-0.47625-1.0266-0.47625h-0.0953c-0.20108 0.02117-0.29633 0.1905-0.23283 0.39158 0.0847 0.24342 0.28575 0.34925 0.52916 0.34925 0.0635 0 0.13759-0.01058 0.21167-0.02117 0.0317 0 0.0529 0 0.0741 0.02117 0.16933 0.20108 0.27517 0.42333 0.3175 0.67733 0.0106 0.09525-0.0423 0.16933-0.13758 0.1905-0.0847 0.02117-0.16933 0.04233-0.254 0.0635-0.0635 0.02117-0.127 0.04233-0.127 0.11642 0 0.07408 0.0529 0.11642 0.11642 0.14817 0.0529 0.03175 0.11641 0.04233 0.17991 0.04233 0.0317 0 0.0529-0.01058 0.0847-0.01058 0.0953-0.01058 0.3175-0.10583 0.35983-0.20108 0.0423-0.0635 0.0423-0.13758 0.0317-0.21167v-0.127c0-0.13758 0.0635-0.24342 0.16933-0.32808 0.10584-0.07408 0.22225-0.10583 0.34925-0.11642 0.0635 0 0.10583 0.01058 0.14817 0.05292 0.0847 0.08467 0.13758 0.1905 0.20108 0.29633 0.127 0.20108 0.26458 0.39158 0.42333 0.5715 0.127 0.13758 0.20109 0.29633 0.127 0.48683z" fill="url(#a)"/><path d="m-177.9-31.798c-0.13758-0.15875-0.26458-0.32808-0.381-0.51858-0.0106-0.02117-0.0212-0.04233-0.0317-0.0635-0.0529-0.08467-0.11641-0.20108-0.22225-0.29633-0.0952-0.09525-0.21166-0.14817-0.33866-0.15875 0.0635-0.08467 0.11642-0.17992 0.16933-0.28575 0.0423-0.08467 0.0741-0.22225 0.0212-0.39158-0.0529-0.15875-0.127-0.28575-0.1905-0.381-0.29633-0.48683-0.4445-1.0372-0.58208-1.5875-0.0847-0.30692-0.26458-0.381-0.5715-0.381-0.381 0.03175-0.79375 0.3175-0.94191 0.66675-0.0953-0.04233-0.30692-0.07408-0.40217-0.07408-0.70908 0-1.1959 0.635-1.1959 1.3123 0 0.66675 0.40216 1.3335 0.89958 1.7568 0.0317 0.03175 0.0635 0.0635 0.0952 0.09525-0.0106 0.02117-0.0212 0.04233-0.0318 0.0635v0.01058c-0.0106 0.01058-0.0212 0.02117-0.0212 0.03175-0.0847 0.22225-0.127 0.46567-0.127 0.75142 0.0212 0.84666 0.84667 1.2277 1.5981 1.2277 0.42333 0 0.81491-0.10583 1.1748-0.33866h0.0318c0.11641 0.03175 0.23283 0.04233 0.34924 0.04233 0.40217 0 0.77259-0.16933 0.92075-0.5715 0.0635-0.16933 0.127-0.51858-0.20108-0.87841z" stroke-width=".26458"/><path d="m-178.04-31.014c-0.0847 0.254-0.29633 0.33867-0.53975 0.33867-0.17991 0-0.37041-0.05292-0.51858-0.15875 0.0529 0.08467-0.0212 0.10583-0.0635 0.13758-0.30692 0.21167-0.61383 0.30692-0.98425 0.30692-0.51858 0-1.2065-0.24342-1.2065-0.85725 0-0.21167 0.0212-0.41275 0.0952-0.61383 0.0106-0.02117 0.0212-0.04233 0.0317-0.0635 0.0212-0.07408 0.0741-0.10583 0.14816-0.10583h0.16934 0.0847c0.0106 0 0.0212 0 0.0317-0.02117-0.0317-0.02117-0.0635-0.04233-0.0952-0.0635-0.62441-0.34925-1.2912-1.1007-1.2912-1.8627 0-0.45508 0.29633-0.92075 0.79375-0.92075 0.35983 0 0.64558 0.254 0.88899 0.49742 0-0.04233-0.0106-0.0635-0.0212-0.08467-0.0529-0.10583-0.0952-0.21167-0.10584-0.32808-0.0212-0.20108 0.0635-0.35983 0.22225-0.48683 0.13759-0.10583 0.28575-0.1905 0.46567-0.21167h0.0529c0.0635 0 0.0847 0.02117 0.10583 0.10583 0.0423 0.16933 0.0741 0.33867 0.11641 0.508 0.11642 0.42333 0.27517 0.8255 0.508 1.1959 0.0635 0.09525 0.11642 0.1905 0.14817 0.29633 0.0106 0.04233 0.0106 0.07408-0.0106 0.11642-0.0529 0.127-0.127 0.23283-0.23284 0.3175-0.0317 0.02117-0.0635 0.04233-0.0952 0.04233-0.0318 0-0.0635-0.02117-0.10583-0.04233-0.32808-0.26458-0.5715-0.47625-1.0266-0.47625h-0.0953c-0.20108 0.02117-0.29633 0.1905-0.23283 0.39158 0.0847 0.24342 0.28575 0.34925 0.52916 0.34925 0.0635 0 0.13759-0.01058 0.21167-0.02117 0.0317 0 0.0529 0 0.0741 0.02117 0.16934 0.20108 0.27517 0.42333 0.3175 0.67733 0.0106 0.09525-0.0423 0.16933-0.13758 0.1905-0.0847 0.02117-0.16933 0.04233-0.254 0.0635-0.0635 0.02117-0.127 0.04233-0.127 0.11642 0 0.07408 0.0529 0.11642 0.11642 0.14817 0.0529 0.03175 0.11641 0.04233 0.17991 0.04233 0.0317 0 0.0529-0.01058 0.0847-0.01058 0.0953-0.01058 0.3175-0.10583 0.35983-0.20108 0.0423-0.0635 0.0423-0.13758 0.0317-0.21167v-0.127c0-0.13758 0.0635-0.24342 0.16933-0.32808 0.10584-0.07408 0.22225-0.10583 0.34925-0.11642 0.0635 0 0.10584 0.01058 0.14817 0.05292 0.0847 0.08467 0.13758 0.1905 0.20108 0.29633 0.127 0.20108 0.26458 0.39158 0.42333 0.5715 0.127 0.13758 0.20109 0.29633 0.127 0.48683z" fill="url(#a)"/><path d="m-182.13-31.044 0.70813 0.0952-0.0522 0.46978-0.8809-0.27832z"/><path d="m-188.83-34.242c0.0423 0.62441 0.37041 0.84666 0.86783 1.0901 0.0106 0.04233 0.0212 0.09525 0.0529 0.14817 0.0741 0.127 0.13759 0.26458 0.1905 0.40216 0.13759 0.33867 0.26459 0.68792 0.39159 1.0266l0.0847 0.23283c-0.0318 0.02117-0.0635 0.04233-0.0847 0.0635-0.24342 0.22225-0.21167 0.51858-0.20109 0.61383 0.0635 0.5715 0.41275 1.1007 1.0372 1.1007 0.0635 0 0.127 0 0.1905-0.01058 0.0318 0 0.0635-0.01058 0.0953-0.02117 0.13758-0.02117 0.27516-0.04233 0.40216-0.04233 0.0953 0 0.16933-0.02117 0.23283-0.03175h0.0106c0.1905-0.04233 0.32808-0.17992 0.37041-0.35983 0.0317 0.01058 0.0635 0.02117 0.0847 0.03175l0.0212 0.01058c0.13759 0.05292 0.27517 0.08467 0.41275 0.11642l0.0952 0.03175c0.0847 0.02117 0.15875 0.03175 0.22225 0.03175 0.0741 0 0.13759-0.01058 0.20109-0.03175 0.23283-0.0635 0.38099-0.254 0.39158-0.49742v-0.15875h0.0106c-0.0635-0.43392-0.22225-1.3547-0.79375-1.3547 0.17992-0.30692 0.26459-0.64558 0.24342-1.0054-0.0423-0.889-0.6985-1.5028-1.4922-1.7992l-0.11641-0.04233c-0.3175-0.11642-0.64558-0.23283-0.9525-0.37042l-0.127-0.0635c-0.14817-0.0635-0.29633-0.127-0.45508-0.17992-0.13758-0.05292-0.23283-0.09525-0.30692-0.14817-0.0529-0.04233-0.127-0.09525-0.21166-0.13758-0.0741-0.03175-0.14817-0.05292-0.22225-0.05292-0.35983 0-0.56092 0.381-0.62442 0.68791-0.0529 0.254-0.0423 0.49742-0.0212 0.71966z" stroke-width=".26458"/><path d="m-188.41-34.909c0.0106-0.09525 0.10583-0.39158 0.23283-0.39158 0.0212 0 0.0423 0.01058 0.0635 0.02117 0.0529 0.02117 0.10583 0.05292 0.14816 0.08467 0.127 0.09525 0.26459 0.15875 0.41275 0.21167 0.1905 0.0635 0.37042 0.14817 0.55033 0.23283 0.35984 0.15875 0.71967 0.29633 1.0795 0.43392 0.64558 0.254 1.2171 0.74083 1.2594 1.4711 0.0212 0.33867-0.0741 0.64558-0.26458 0.92075-0.0635 0.09525-0.14817 0.15875-0.254 0.15875-0.0317 0-0.0635-0.01058-0.10583-0.02117-0.0529-0.02117-0.10583-0.03175-0.15875-0.05292-0.0106-0.01058-0.0318-0.02117-0.0423 0-0.0106 0.01058 0 0.02117 0.0106 0.03175 0.21167 0.23283 0.49741 0.33866 0.80433 0.33866 0.0529 0 0.10583 0 0.15875-0.01058 0.0423-0.01058 0.0635 0.01058 0.0847 0.04233 0.15875 0.23283 0.26458 0.68792 0.30691 0.97366v0.09525c0 0.07408-0.0423 0.127-0.11641 0.14817v0.01058c-0.0318 0.01058-0.0529 0.01058-0.0847 0.01058-0.0423 0-0.0952-0.01058-0.13758-0.02117-0.15875-0.04233-0.3175-0.07408-0.47625-0.127-0.0635-0.02117-0.127-0.04233-0.17992-0.08467-0.0318-0.03175-0.0741-0.02117-0.10583-0.04233-0.23283-0.11642-0.508-0.26458-0.68792-0.4445 0.0318 0.08467 0.0847 0.15875 0.13759 0.22225 0.0529 0.0635 0.10583 0.11642 0.15875 0.16933 0.0212 0.02117 0.0317 0.04233 0.0423 0.0635 0.0212 0.08467 0.0423 0.16933 0.0529 0.26458 0.0106 0.08467-0.0212 0.13758-0.0952 0.15875-0.0529 0.01058-0.10584 0.02117-0.15875 0.02117-0.1905 0-0.37042 0.04233-0.56092 0.07408-0.0317 0-0.0635 0.01058-0.10583 0.01058-0.41275 0-0.64558-0.39158-0.66675-0.77258-0.0106-0.11642 0-0.22225 0.0953-0.30692 0.0212-0.02117 0.0529-0.04233 0.0847-0.04233 0.0529-0.01058 0.0952-0.04233 0.13758-0.0635 0.0423-0.02117 0.0423-0.05292 0.0317-0.09525-0.0212-0.09525-0.0529-0.1905-0.0847-0.28575-0.15875-0.41275-0.3175-0.8255-0.48683-1.2382-0.0635-0.14817-0.13758-0.29633-0.21166-0.4445-0.0212-0.04233-0.0106-0.05292 0.0318-0.05292 0.11641 0 0.22225 0.02117 0.33866 0.04233-0.0106-0.03175-0.0318-0.04233-0.0529-0.05292-0.11642-0.0635-0.24342-0.10583-0.37042-0.15875-0.14817-0.0635-0.29633-0.11642-0.43392-0.20108-0.24341-0.14817-0.38099-0.37042-0.40216-0.66675-0.0106-0.21167-0.0212-0.42333 0.0212-0.635z" fill="url(#a)"/><path d="m-187.02-30.422c-0.0529-0.40216-0.21167-1.2065-0.66675-1.3441-0.0317-0.0635-0.0635-0.127-0.0952-0.1905h0.0318c0.1905-0.11642 0.20108-0.32808 0.21166-0.40217 0.0317-0.52916-0.10583-0.99483-0.42333-1.3758 0.0847-0.04233 0.15875-0.10583 0.23283-0.17992 0.0529-0.05292 0.14817-0.16933 0.13759-0.35983-0.0106-0.08467-0.0212-0.23283-0.10584-0.381-0.0318-0.05292-0.0635-0.11642-0.0953-0.17992-0.16933-0.381-0.29633-0.78316-0.42333-1.1747-0.127-0.381-0.64558-0.51858-1.016-0.51858-0.22225 0-0.48684 0.04233-0.60325 0.26458-0.0317 0.05292-0.0423 0.10583-0.0423 0.15875-0.29633-0.17992-0.55033-0.40216-0.79374-0.64558-0.15875-0.1905-0.24342-0.26458-0.49742-0.26458-0.47625 0.07408-0.52916 0.73025-0.52916 1.1112v0.07408c0 0.635 0.1905 1.778 0.88899 2.032 0.13759 0.20108 0.27517 0.39158 0.39159 0.59266-0.0635 0.04233-0.11642 0.10583-0.14817 0.17992-0.0317 0.07408-0.0529 0.20108 0.0212 0.35983 0.13758 0.29633 0.37041 0.635 0.70908 0.6985 0.0952 0 0.35983 0.48683 0.40216 0.58208-0.0529 0.07408-0.0953 0.16933-0.10583 0.29633-0.0212 0.33867 0.0423 0.65616 0.20108 0.9525 0.0317 0.0635 0.0741 0.10583 0.0952 0.13758 0.27517 0.30692 0.64558 0.43392 1.0478 0.43392 0.32808 0 0.75141-0.08467 0.97366-0.33866 0.14817-0.15875 0.15875-0.33867 0.14817-0.45508z" stroke-width=".26458"/><path d="m-187.49-30.168c-0.15875 0.15875-0.48684 0.22225-0.70908 0.22225-0.28575 0-0.5715-0.09525-0.762-0.30692-0.0106-0.02117-0.0212-0.04233-0.0317-0.0635-0.127-0.23283-0.17992-0.48683-0.15875-0.75141 0.0106-0.08467 0.0635-0.127 0.10583-0.16933 0.0635-0.0635 0.0635-0.0635 0.0212-0.16933-0.11642-0.29633-0.40217-0.85725-0.75142-0.92075-0.0952-0.02117-0.16933-0.09525-0.24341-0.17992-0.0741-0.09525-0.127-0.20108-0.17992-0.30692-0.0212-0.04233-0.0212-0.0635 0.0106-0.07408 0.0847-0.03175 0.15874-0.08467 0.23283-0.127 0.0318-0.02117 0.0423-0.04233 0.0212-0.09525-0.16933-0.37042-0.39158-0.67733-0.61383-0.99483-0.0212-0.02117-0.0423-0.04233-0.0635-0.04233-0.42333-0.07408-0.64558-0.86783-0.68791-1.2382-0.0212-0.17992-0.0212-0.35983-0.0212-0.53975s0.0212-0.56092 0.13759-0.70908c0.0212-0.02117 0.0317-0.03175 0.0529-0.03175s0.0317 0.01058 0.0529 0.02117c0.0635 0.05292 0.11641 0.127 0.17991 0.1905 0.42334 0.43392 0.92075 0.74083 1.4711 0.99483 0.0317 0.02117 0.0635 0.05292 0.0952 0.07408 0.0212 0.01058 0.0423 0.02117 0.0635 0s0.0106-0.04233 0-0.0635c-0.0423-0.09525-0.0847-0.1905-0.127-0.28575-0.0317-0.09525-0.0635-0.1905-0.0952-0.28575-0.0318-0.09525-0.0212-0.127 0.0529-0.14817 0.0635-0.02117 0.13758-0.03175 0.21167-0.03175 0.17991 0 0.58208 0.04233 0.65616 0.23283 0.13758 0.41275 0.27517 0.8255 0.4445 1.2171 0.0317 0.07408 0.0635 0.14817 0.10583 0.22225 0.0423 0.07408 0.0529 0.14817 0.0529 0.22225 0 0.127-0.29633 0.254-0.40217 0.26458-0.11641 0-0.16933-0.04233-0.24341-0.127-0.0106-0.01058-0.0212-0.02117-0.0212-0.03175-0.0952-0.17992-0.15875-0.17992-0.32808-0.17992-0.22225 0.03175-0.4445 0.04233-0.66675 0.0635-0.13758 0.01058-0.27517 0.02117-0.41275 0.03175 0.13758 0.04233 0.27517 0.08467 0.41275 0.127 0.0318 0.01058 0.0529 0.03175 0.0741 0.0635 0.11642 0.15875 0.23284 0.3175 0.34925 0.47625 0.0212 0.04233 0.0423 0.04233 0.0847 0.04233 0.17991-0.0635 0.35983-0.10583 0.53975-0.13758 0.13758 0 0.1905 0.01058 0.29633 0.127 0.254 0.3175 0.35983 0.68792 0.32808 1.1112-0.0106 0.07408-0.0212 0.10583-0.0529 0.10583-0.0106 0-0.0317-0.01058-0.0635-0.02117-0.10584-0.04233-0.20109-0.0635-0.29634-0.0635-0.0423 0-0.0847 0-0.127 0.01058-0.0847 0.01058-0.16933 0.01058-0.254 0.04233 0.0106 0.03175 0.0318 0.02117 0.0423 0.02117 0.11641 0.03175 0.23283 0.05292 0.34925 0.13758 0.0423 0.03175 0.0741 0.07408 0.0952 0.127 0.0847 0.1905 0.17991 0.37042 0.26458 0.56092 0.0212 0.05292 0.0635 0.0635 0.10583 0.0635 0.3175 0 0.45508 0.8255 0.47625 1.0477 0.0106 0.07408-0.0106 0.11642-0.0423 0.14817z" fill="url(#a)"/><g stroke-width=".26458"><path d="m-186.49-33.046c-0.0106 0-0.0212-0.01058-0.0318-0.02117v0.02117h0.0318c0.0635 0.0635 0.127 0.11642 0.17991 0.17992 0.0317 0.03175 0.0529 0.07408 0.0635 0.127l0.127 0.508c0.0106 0.02117 0.0212 0.04233 0.0529 0.04233 0.0529 0 0.0952-0.02117 0.127-0.07408 0.0212-0.03175 0.0317-0.0635 0.0529-0.09525 0.0847-0.14817 0.0635-0.32808-0.0529-0.4445-0.14817-0.14817-0.33867-0.21167-0.55033-0.24342z"/><path d="m-177.71-34.518c0.0635 0.78316 0.508 1.5981 1.0478 2.159l0.22225 0.22225c-0.0317 0.05292-0.0529 0.11642-0.0635 0.17992v0.0635c-0.0529 0.26458-0.0529 0.56092-0.0106 0.89958 0.0953 0.87841 0.82549 1.4287 1.6827 1.4287 0.43392 0 0.80433-0.13758 1.1218-0.4445 0.127 0.04233 0.254 0.0635 0.37042 0.0635 0.45508 0 0.79374-0.28575 0.86783-0.75141 0.0529-0.32808-0.0423-0.64558-0.27517-0.94191v0.07408c-0.15875-0.21167-0.30691-0.4445-0.45508-0.70908l-0.0635-0.09525c-0.16933-0.3175-0.32808-0.56091-0.73025-0.56091l-0.127 0.03175c0.0212-0.02117 0.0423-0.04233 0.0635-0.07408 0.11642-0.14817 0.20109-0.33866 0.254-0.5715 0.0317-0.11642 0.0212-0.24342-0.0212-0.37042-0.0635-0.17992-0.14817-0.33867-0.21167-0.45508-0.24342-0.42333-0.4445-0.91016-0.62442-1.4922l-0.19049-0.66675c-0.0529-0.1905-0.1905-0.41275-0.49742-0.41275-0.0317 0-0.0635 0.01058-0.0952 0.01058-0.24342 0.04233-0.45508 0.17992-0.65616 0.41275-0.10584 0.13758-0.17992 0.28575-0.21167 0.4445l-0.0635-0.03175c-0.10583-0.03175-0.20108-0.04233-0.29633-0.04233-0.32808 0-0.61383 0.16933-0.81492 0.47625-0.1905 0.30692-0.26458 0.6985-0.22225 1.1536z"/><path d="m-174.61-32.846c0.0318 0.01058 0.0635 0.01058 0.10583 0.01058-0.0318 0.02117-0.0529 0.03175-0.0741 0.05292z"/><path d="m-175.61-33.513c0.10583 0.02117 0.21166 0.07408 0.32808 0.15875l0.0212 0.02117h-0.0106c-0.0423 0.01058-0.0741 0.02117-0.10583 0.02117-0.0212 0-0.0318-0.01058-0.0529-0.01058-0.0423-0.01058-0.11641-0.03175-0.17991-0.1905z"/><path d="m-177.2-35.502c0.127-0.21167 0.29634-0.30692 0.49742-0.30692 0.0635 0 0.127 0.01058 0.1905 0.03175 0.23283 0.0635 0.5715 0.42333 0.73024 0.62442-0.0106-0.05292-0.0317-0.08467-0.0423-0.11642-0.0635-0.13758-0.11641-0.27516-0.14816-0.42333-0.0529-0.26458 0-0.47625 0.13758-0.635 0.11641-0.13758 0.254-0.24342 0.42333-0.26458 0.11642 0 0.13758 0.02117 0.16933 0.13758 0.22225 0.78316 0.43392 1.524 0.83608 2.2331 0.0741 0.127 0.13759 0.254 0.1905 0.39158 0.0212 0.05292 0.0318 0.09525 0.0212 0.14817-0.0423 0.15875-0.0952 0.30692-0.1905 0.42333-0.0317 0.03175-0.0635 0.05292-0.0952 0.05292s-0.0635-0.02117-0.10583-0.05292c-0.14817-0.13758-0.28575-0.28575-0.4445-0.40216-0.26458-0.20108-0.42333-0.22225-0.73025-0.22225-0.1905 0.02117-0.26458 0.23283-0.16933 0.49742 0.0847 0.254 0.23283 0.39158 0.42333 0.4445 0.0529 0.01058 0.10583 0.02117 0.15875 0.02117 0.0635 0 0.127-0.01058 0.17992-0.02117 0.0317 0 0.0635 0 0.0741 0.03175 0.1905 0.26458 0.32808 0.56092 0.40216 0.889 0.0317 0.127-0.0106 0.22225-0.10583 0.254-0.0847 0.03175-0.16933 0.05292-0.254 0.08467-0.0529 0.02117-0.11641 0.05292-0.10583 0.15875 0.0212 0.14817 0.14817 0.23283 0.28575 0.23283 0.0318 0 0.0635 0 0.0953-0.01058 0.127-0.03175 0.26458-0.15875 0.3175-0.28575 0.0317-0.08467 0.0212-0.17992 0-0.27517-0.0106-0.05292-0.0212-0.10583-0.0212-0.15875-0.0212-0.17992 0.0318-0.3175 0.127-0.42333s0.21167-0.14817 0.33867-0.16933c0.0529-0.01058 0.10583 0.02117 0.14816 0.07408 0.0952 0.10583 0.15875 0.254 0.23283 0.381 0.14817 0.26458 0.30692 0.508 0.48684 0.74083 0.14816 0.17992 0.24341 0.39158 0.20108 0.64558l0.0952 0.01058c-0.0317 0.20108-0.127 0.33867-0.27517 0.39158-0.0741 0.03175-0.15875 0.04233-0.23283 0.04233-0.21167 0-0.35983-0.0635-0.51858-0.20108 0.0635 0.11642 0 0.14817-0.0423 0.1905-0.27517 0.27517-0.55034 0.381-0.93133 0.381-0.67734 0-1.2488-0.43392-1.3229-1.1218-0.0317-0.27517-0.0423-0.53975 0-0.79375 0-0.02117 0.0106-0.04233 0.0106-0.0635 0.0106-0.09525 0.0529-0.13758 0.127-0.13758h0.127c0.0423 0 0.0847 0 0.12699 0.01058 0.0106 0 0.0212 0.01058 0.0317-0.01058-0.0423-0.03175-0.0741-0.0635-0.11641-0.08467-0.75142-0.51858-1.4182-1.5346-1.5028-2.4342-0.0317-0.34925 0.0106-0.65616 0.16933-0.91016z" fill="url(#a)"/><path d="m-164.26-31.522c0.0106 0.02117 0.0212 0.04233 0.0318 0.05292-0.0423 0.05292-0.0635 0.10583-0.0847 0.16933-0.0317-0.05292-0.0635-0.09525-0.10583-0.13758 0.0529-0.02117 0.10583-0.05292 0.15875-0.08467z"/><path d="m-153.79-31.343c-0.13759-0.15875-0.26459-0.32808-0.381-0.51858-0.0106-0.02117-0.0212-0.04233-0.0317-0.0635-0.0529-0.08467-0.11642-0.20108-0.22225-0.29633-0.0952-0.09525-0.21167-0.14817-0.33867-0.15875 0.0635-0.08467 0.11642-0.17992 0.16934-0.28575 0.0423-0.08467 0.0741-0.22225 0.0212-0.39158-0.0529-0.15875-0.127-0.28575-0.1905-0.381-0.29633-0.48683-0.4445-1.0372-0.58208-1.5875-0.0847-0.30692-0.26458-0.381-0.5715-0.381-0.381 0.03175-0.79374 0.3175-0.94191 0.66675-0.0953-0.04233-0.30692-0.07408-0.40217-0.07408-0.70908 0-1.1959 0.635-1.1959 1.3123 0 0.66675 0.40217 1.3335 0.89958 1.7568 0.0317 0.03175 0.0635 0.0635 0.0952 0.09525-0.0106 0.02117-0.0212 0.04233-0.0318 0.0635v0.01058c-0.0106 0.01058-0.0212 0.02117-0.0212 0.03175-0.0847 0.22225-0.127 0.46566-0.127 0.75141 0.0212 0.84666 0.84667 1.2277 1.5981 1.2277 0.42334 0 0.81492-0.10583 1.1748-0.33867h0.0318c0.11642 0.03175 0.23283 0.04233 0.34925 0.04233 0.40216 0 0.77258-0.16933 0.92075-0.5715 0.0635-0.16933 0.12699-0.51858-0.20109-0.87841z"/><path d="m-153.92-30.56c-0.0847 0.254-0.29633 0.33867-0.53975 0.33867-0.17991 0-0.37041-0.05292-0.51858-0.15875 0.0529 0.08467-0.0212 0.10583-0.0635 0.13758-0.30691 0.21167-0.61383 0.30692-0.98424 0.30692-0.51859 0-1.2065-0.24342-1.2065-0.85725 0-0.21167 0.0212-0.41275 0.0952-0.61383 0.0106-0.02117 0.0212-0.04233 0.0317-0.0635 0.0212-0.07408 0.0741-0.10583 0.14817-0.10583h0.16933 0.0847c0.0106 0 0.0212 0 0.0317-0.02117-0.0317-0.02117-0.0635-0.04233-0.0952-0.0635-0.62442-0.34925-1.2912-1.1007-1.2912-1.8627 0-0.45508 0.29634-0.92075 0.79375-0.92075 0.35983 0 0.64558 0.254 0.889 0.49742 0-0.04233-0.0106-0.0635-0.0212-0.08467-0.0529-0.10583-0.0952-0.21167-0.10583-0.32808-0.0212-0.20108 0.0635-0.35983 0.22225-0.48683 0.13758-0.10583 0.28575-0.1905 0.46566-0.21167h0.0529c0.0635 0 0.0847 0.02117 0.10583 0.10583 0.0423 0.16933 0.0741 0.33867 0.11642 0.508 0.11641 0.42333 0.27516 0.8255 0.508 1.1959 0.0635 0.09525 0.11641 0.1905 0.14816 0.29633 0.0106 0.04233 0.0106 0.07408-0.0106 0.11642-0.0529 0.127-0.127 0.23283-0.23283 0.3175-0.0317 0.02117-0.0635 0.04233-0.0952 0.04233-0.0318 0-0.0635-0.02117-0.10584-0.04233-0.32808-0.26458-0.57149-0.47625-1.0266-0.47625h-0.0953c-0.20108 0.02117-0.29633 0.1905-0.23283 0.39158 0.0847 0.24342 0.28575 0.34925 0.52917 0.34925 0.0635 0 0.13758-0.01058 0.21166-0.02117 0.0317 0 0.0529 0 0.0741 0.02117 0.16933 0.20108 0.27516 0.42333 0.31749 0.67733 0.0106 0.09525-0.0423 0.16933-0.13758 0.1905-0.0847 0.02117-0.16933 0.04233-0.254 0.0635-0.0635 0.02117-0.127 0.04233-0.127 0.11642 0 0.07408 0.0529 0.11642 0.11642 0.14817 0.0529 0.03175 0.11642 0.04233 0.17992 0.04233 0.0317 0 0.0529-0.01058 0.0847-0.01058 0.0953-0.01058 0.3175-0.10583 0.35983-0.20108 0.0423-0.0635 0.0423-0.13758 0.0317-0.21167v-0.127c0-0.13758 0.0635-0.24342 0.16934-0.32808 0.10583-0.07408 0.22225-0.10583 0.34925-0.11642 0.0635 0 0.10583 0.01058 0.14816 0.05292 0.0847 0.08467 0.13758 0.1905 0.20108 0.29633 0.127 0.20108 0.26459 0.39158 0.42334 0.5715 0.127 0.13758 0.20108 0.29633 0.127 0.48683z" fill="url(#a)"/><path d="m-159.28-31.944c-0.0635-0.02117-0.11642-0.04233-0.16934-0.05292-0.0847-0.02117-0.15875-0.04233-0.23283-0.0635 0-0.01058-0.0106-0.02117-0.0212-0.03175-0.0423-0.08467-0.0741-0.17992-0.0952-0.27517-0.0529-0.27517-0.0741-0.56092-0.0953-0.86783-0.0106-0.09525-0.0212-0.1905-0.0317-0.28575v-0.08467c0-1.0795-0.94191-1.4182-1.8097-1.6827-0.3175-0.09525-0.61383-0.1905-0.889-0.32808-0.0741-0.03175-0.14816-0.05292-0.22225-0.05292-0.38099 0-0.59266 0.56091-0.68791 0.85725-0.0741 0.23283-0.0847 0.45508-0.0847 0.65616 0 0.26458 0.11642 0.48683 0.3175 0.635-0.0106 0.0635-0.0106 0.127-0.0106 0.20108 0.0106 0.127 0.0423 0.24342 0.10583 0.37042 0.0212 0.05292 0.0529 0.10583 0.0847 0.15875 0.22225 0.40216 0.41275 0.8255 0.45508 1.2806v0.05292c0.0106 0.08467 0.0106 0.15875 0 0.21167-0.0106 0.07408-0.0317 0.14817-0.0635 0.22225-0.10583 0.20108-0.0741 0.40216 0.0847 0.5715 0.27516 0.27517 0.82549 0.47625 1.2277 0.47625 0.16933 0 0.33867-0.03175 0.51858-0.09525 0.127-0.05292 0.23283-0.127 0.30692-0.22225 0.0529 0.03175 0.10583 0.0635 0.16933 0.08467 0.14817 0.0635 0.29633 0.09525 0.4445 0.09525 0.508 0 0.92075-0.4445 1.0689-0.89958 0.11642-0.33866-0.0635-0.73025-0.39158-0.85725z"/><path d="m-159.25-31.129c-0.10583 0.30692-0.381 0.64558-0.74083 0.64558-0.5715 0-0.89958-0.61383-1.0689-1.0901-0.0212-0.05292-0.0318-0.10583-0.0318-0.15875 0-0.10583 0.0423-0.1905 0.127-0.254 0.0212-0.02117 0.0423-0.04233 0.0635-0.0635v-0.03175c0-0.01058-0.0106 0-0.0212 0h-0.0317c-0.10583 0.03175-0.20108 0.05292-0.30691 0.05292-0.11642 0-0.24342-0.02117-0.35984-0.05292-0.0212 0-0.0423-0.01058-0.0635 0 0.0212 0.04233 0.0635 0.0635 0.0953 0.08467 0.23284 0.15875 0.3175 0.34925 0.39159 0.60325 0.0741 0.20108 0.16933 0.39158 0.28574 0.5715 0.10584 0.16933 0.0635 0.32808-0.12699 0.40216-0.127 0.05292-0.26459 0.08467-0.40217 0.08467-0.0529 0-0.11642-0.01058-0.17992-0.02117-0.22225-0.05292-0.44449-0.11642-0.63499-0.24342-0.0423-0.03175-0.0847-0.0635-0.11642-0.09525-0.0529-0.05292-0.0529-0.07408-0.0212-0.13758 0.0529-0.10583 0.0953-0.21167 0.11642-0.32808 0.0212-0.10583 0.0106-0.21167 0-0.3175-0.0212-0.30692-0.10583-0.60325-0.22225-0.889-0.0952-0.23283-0.22225-0.45508-0.33867-0.67733-0.0423-0.07408-0.0741-0.14817-0.0847-0.23283-0.0106-0.08467 0-0.15875 0.0106-0.24342 0.0106-0.03175 0.0317-0.03175 0.0635-0.03175 0.10583 0.01058 0.21167 0.02117 0.32808 0.05292-0.0318-0.04233-0.0635-0.05292-0.0953-0.0635-0.11641-0.05292-0.23283-0.10583-0.34925-0.15875-0.16933-0.07408-0.25399-0.21167-0.25399-0.39158 0-0.40217 0.0953-0.762 0.33866-1.0901 0.0212-0.03175 0.0423-0.04233 0.0635-0.04233 0.0106 0 0.0317 0 0.0423 0.01058 0.40217 0.20108 0.83608 0.30692 1.2594 0.4445 0.55033 0.1905 1.0266 0.381 1.2065 0.99483 0.0317 0.11642 0.0212 0.23283 0.0317 0.34925 0.0318 0.40217 0.0423 0.81492 0.127 1.2171 0.0212 0.127 0.0635 0.24342 0.11642 0.35983 0 0.01058 0.0106 0.02117 0 0.03175s-0.0212 0-0.0317 0c-0.0423-0.01058-0.0847-0.02117-0.13758-0.03175 0.0952 0.127 0.51858 0.24342 0.66674 0.28575 0.0423 0.01058 0.0847 0.02117 0.127 0.04233 0.127 0.05292 0.22225 0.23283 0.16934 0.39158z" fill="url(#a)"/><path d="m-161.34-32.695c-0.0529-0.07408-0.0847-0.14817-0.0529-0.24342 0 0 0.0106-0.10583 0.0106-0.13758s0-0.0635-0.0106-0.09525c-0.0106-0.0635-0.0635-0.11642-0.127-0.127-0.0423-0.01058-0.10584 0.03175-0.127 0.08467-0.0423 0.127-0.0423 0.254 0.0318 0.37042 0.0635 0.09525 0.15875 0.15875 0.26458 0.21167 0.0106 0.01058 0.0317 0.02117 0.0423 0 0.0106-0.01058 0-0.02117-0.0106-0.03175s-0.0212-0.02117-0.0317-0.03175z"/><path d="m-157.07-35.269c-0.0635-0.127-0.17992-0.21167-0.3175-0.23283-0.1905 0-0.254 0.05292-0.381 0.17992-0.0741 0.05292-0.16934 0.08467-0.28575 0.09525-0.32808 0-0.58208-0.0635-0.87842-0.1905-0.10583-0.05292-0.21166-0.11642-0.32808-0.17992-0.40216-0.254-0.79375-0.41275-1.2806-0.41275-0.58208 0-0.99483 0.26458-1.143 0.85725-0.0741 0.29633-0.0106 0.58208 0.0423 0.77258 0.0423 0.14817 0.10583 0.27517 0.15875 0.40217 0.0106 0.03175 0.0212 0.0635 0.0318 0.09525 0.10583 0.254 0.29633 0.64558 0.61383 0.64558 0.0635 0 0.13758-0.02117 0.20108-0.05292 0.0106 0 0.0212 0 0.0423 0.01058 0.0847 0.02117 0.16933 0.07408 0.27516 0.15875 0.0212 0.01058 0.0529 0.04233 0.0741 0.07408 0.0317 0.03175 0.0635 0.0635 0.10583 0.09525 0.29633 0.27516 0.49741 0.58208 0.66675 0.9525-0.0529 0.02117-0.10584 0.05292-0.15875 0.08467-0.26459 0.17992-0.39159 0.48683-0.32809 0.81491 0.0847 0.43392 0.37042 1.0054 0.87842 1.0054 0.0635 0 0.127-0.01058 0.17991-0.03175l0.0423-0.01058c0.0318-0.01058 0.0635-0.02117 0.0847-0.02117 0.127-0.03175 0.254-0.04233 0.40217-0.04233 0.0741 0 0.14817 0.01058 0.23283 0.01058h0.127c0.0741 0.01058 0.15875 0.02117 0.254 0.02117 0.32808-0.01058 0.55033-0.23283 0.56092-0.56091v-0.01058-0.03175c0.0212-0.3175-0.0318-0.59266-0.15875-0.8255-0.0847-0.14817-0.1905-0.254-0.3175-0.32808-0.0635-0.508-0.13759-1.0477-0.32809-1.524 0.66675 0 1.016-0.34925 1.0689-0.98425 0.0212-0.27517-0.0318-0.55033-0.16933-0.80433z"/><path d="m-157.31-34.454c-0.0423 0.4445-0.24342 0.62442-0.67733 0.62442-0.0741 0-0.15875-0.01058-0.23283-0.02117-0.16934-0.02117-0.33867-0.04233-0.508-0.0635-0.0212 0-0.0423 0-0.0741 0.01058 0.0529 0.05292 0.11642 0.08467 0.16934 0.127 0.41275 0.39158 0.60324 1.4711 0.60324 2.0743 0 0.04233 0.0106 0.0635 0.0529 0.0635 0.14817 0.01058 0.24342 0.09525 0.30692 0.21167 0.10583 0.1905 0.127 0.40216 0.10583 0.61383v0.03175c-0.0106 0.127-0.0847 0.20108-0.21167 0.20108-0.11641 0-0.23283-0.02117-0.34924-0.02117-0.0741 0-0.15875-0.01058-0.23284-0.01058-0.22225 0-0.46566 0.02117-0.67733 0.10583h-0.11641c-0.27517-0.10583-0.381-0.41275-0.42334-0.67733-0.0317-0.17992 0.0318-0.33867 0.17992-0.43392 0.0635-0.04233 0.13758-0.07408 0.21167-0.07408 0.0741 0 0.15874 0.03175 0.23283 0.09525 0.0212 0.01058 0.0317 0.03175 0.0635 0.04233 0-0.42333-0.58208-1.3547-0.94192-1.6827-0.1905-0.1905-0.46566-0.43392-0.75141-0.43392-0.0423 0-0.0741 0.01058-0.11642 0.02117-0.0317 0.01058-0.0635 0.02117-0.0847 0.04233-0.0106 0.01058-0.0212 0.01058-0.0317 0.01058-0.0106 0-0.0317-0.01058-0.0423-0.03175-0.17991-0.26458-0.32808-0.55033-0.42333-0.84666-0.0529-0.17992-0.0847-0.37042-0.0423-0.55033 0.0741-0.30692 0.26458-0.52916 0.59266-0.56092 0.39159 0 0.65617 0.01058 1.016 0.20108 0.21167 0.10583 0.41275 0.23283 0.62441 0.32808 0.37042 0.15875 0.65617 0.22225 1.0583 0.22225 0.16934-0.01058 0.32809-0.05292 0.47625-0.14817 0.0423-0.02117 0.0741-0.05292 0.10584-0.08467 0.0212-0.02117 0.0318-0.02117 0.0529 0.01058 0.0953 0.1905 0.13759 0.39158 0.11642 0.60325z" fill="url(#a)"/><path d="m-159.74-33.967h0.0318c0.0212 0 0.14817-0.01058 0.14817-0.02117 0-0.01058-0.0106-0.01058-0.0212-0.01058-0.13758-0.08467-0.27517-0.16933-0.42333-0.23283-0.0847-0.03175-0.15875-0.05292-0.24342-0.05292-0.0847 0-0.17991 0.02117-0.26458 0.07408-0.0212 0.01058-0.0529 0.02117-0.0529 0.05292s0.0317 0.03175 0.0529 0.04233c0.34925 0.15875 0.66675 0.39158 0.93133 0.65616 0-0.01058 0-0.02117-0.0106-0.03175-0.0635-0.13758-0.127-0.27516-0.20109-0.40216-0.0106-0.01058-0.0212-0.02117-0.0106-0.03175s0.0317 0 0.0423 0z"/><path d="m-167.58-34.136c0.55033 0.32808 1.0054 1.7357 1.0478 2.3389v0.07408c-0.13758 0.08467-0.22225 0.22225-0.24342 0.39158-0.0212 0.14817-0.0423 0.34925-0.0212 0.55033v0.03175c0.0741 0.84666 0.83608 0.96308 1.5663 0.96308 0.49741 0 0.91016-0.05292 0.99483-0.65616 0.0106 0.03175 0.0317 0.0635 0.0529 0.09525 0.1905 0.33867 0.53975 0.51858 0.92075 0.51858 0.5715 0 1.5557-0.34925 1.6722-0.96308 0.0318-0.13758 0.0423-0.27517 0.0212-0.41275l-0.0106 0.02117c-0.0635-0.47625-0.28575-0.85725-0.74083-1.0372-0.0106-0.01058-0.0318-0.02117-0.0423-0.02117-0.58208-0.58208-1.0372-1.4817-1.1959-2.2754-0.0106-0.03175-0.0106-0.05292-0.0106-0.0635 0-0.61383-1.0266-0.9525-1.524-0.9525-0.34925 0.02117-0.59267 0.24342-0.64558 0.5715l-0.15875-0.127c-0.27517-0.22225-0.55033-0.32808-0.83608-0.32808-0.48683 0-0.86783 0.24342-1.0478 0.6985-0.10583 0.24342-0.0318 0.45508 0.20108 0.58208z"/><path d="m-167.45-34.592c0.10584-0.26458 0.28575-0.41275 0.5715-0.45508 0.0423-0.01058 0.0847-0.01058 0.127-0.01058 0.52917 0 0.99483 0.62442 1.2594 1.016 0.127 0.1905 0.21167 0.40216 0.32809 0.59266 0.0212 0.03175 0.0317 0.0635 0.0635 0.09525v-0.03175c-0.0635-0.17992-0.0953-0.37042-0.13759-0.55033l-0.127-0.508c-0.0318-0.13758-0.0423-0.27516-0.0423-0.41275 0.0106-0.1905 0.11642-0.29633 0.30692-0.30692 0.41274 0 0.78316 0.17992 1.0795 0.45508 0.0423 0.03175 0.0635 0.07408 0.0635 0.127 0 0.04233 0.0106 0.08467 0.0212 0.127 0.16933 0.78316 0.46566 1.3864 0.92075 2.032 0.12699 0.1905 0.31749 0.46566 0.53974 0.55033 0.33867 0.127 0.45509 0.39158 0.49742 0.73025 0.0106 0.09525 0.0106 0.1905-0.0106 0.28575l0.0212-0.01058c-0.0847 0.41275-0.92075 0.67733-1.3123 0.67733-0.254 0-0.46566-0.08467-0.58208-0.3175-0.11642-0.21167-0.14816-0.43392-0.10583-0.66675 0.0317-0.14817 0.30691-0.23283 0.43391-0.254 0.0212 0 0.0423-0.01058 0.0635-0.01058-0.0106-0.03175-0.0318-0.03175-0.0529-0.03175-0.11642-0.01058-0.22225-0.04233-0.3175-0.10583-0.20108-0.127-0.43392-1.1959-0.47625-1.4499-0.0106-0.03175-0.0106-0.0635-0.0317-0.08467-0.0212 0.01058-0.0212 0.02117-0.0212 0.03175-0.0423 0.1905-0.0423 0.381-0.0212 0.5715 0.0106 0.15875 0.0212 0.3175 0.0106 0.47625-0.0212 0.254-0.17992 0.254-0.37042 0.254-0.11641-0.02117-0.21166-0.08467-0.26458-0.1905-0.14816-0.3175-0.381-0.5715-0.64558-0.79375 0.0106 0.05292 0.0317 0.08467 0.0529 0.11642 0.0847 0.127 0.17991 0.254 0.254 0.39158 0.13758 0.24342 0.24341 0.49742 0.26458 0.78316 0.0106 0.09525 0.0423 0.127 0.13758 0.14817 0.15875 0.03175 0.26458 0.127 0.3175 0.28575 0.0529 0.16933 0.0529 0.33866 0.0318 0.51858-0.0106 0.07408-0.0212 0.14817-0.0423 0.21167-0.0317 0.08467-0.0847 0.13758-0.17992 0.14817-0.127 0.02117-0.254 0.02117-0.381 0.02117-0.28575 0-0.59266-0.01058-0.85725-0.127-0.27516-0.11642-0.30691-0.26458-0.33866-0.53975-0.0212-0.15875-0.0106-0.3175 0.0106-0.47625 0.0212-0.127 0.13759-0.16933 0.24342-0.16933 0.0212 0 0.0529 0.01058 0.0741 0.01058l0.254 0.03175c0.0317 0 0.0635-0.01058 0.10583-0.01058-0.0635-0.05292-0.127-0.07408-0.17991-0.09525-0.0847-0.04233-0.16934-0.08467-0.22225-0.16933-0.0212-0.04233-0.0423-0.08467-0.0423-0.127-0.0317-0.79375-0.61384-2.3177-1.2594-2.6882-0.0635-0.03175-0.0635-0.03175-0.0317-0.09525z" fill="url(#a)"/><path d="m-166.16-30.111c3e-3 -0.0958-7e-3 -0.18258-0.0191-0.24837-0.078-0.36335-0.17984-0.70863-0.26183-0.96569-0.0531-0.15692-0.14344-0.27624-0.27104-0.35798 1e-3 -0.01048 3e-3 -0.02097 4e-3 -0.03145-0.0231-0.14208-0.0462-0.28417-0.0693-0.42625-0.10576-0.54881-0.22201-1.0991-0.33827-1.6493-0.0643-0.30803-0.12853-0.61606-0.19279-0.9241-0.0672-0.28706-0.20958-0.3388-0.48215-0.37648 0.0792-0.03179 0.12835-0.07841 0.1656-0.116 0.13996-0.16228 0.10312-0.35968 0.0909-0.42547-0.0895-0.5893-0.33615-1.5102-1.0386-1.6072-0.41611-0.0041-0.71186 0.12597-0.98887 0.42957-0.0119 9e-3 -0.0239 0.01807-0.0358 0.02711-0.10129 0.11421-0.16347 0.25518-0.17473 0.41389-6e-3 0.35175 0.13645 0.71331 0.28458 1.0329l0.0318 0.07917c0.10731 0.22851 0.26346 0.33556 0.50459 0.36889-0.0597 0.04518-0.11035 0.10227-0.14141 0.17277-0.089 0.18001-0.0268 0.34886-4e-3 0.4161 0.10909 0.29286 0.19253 0.53944 0.26404 0.79505 0.0365 0.12256 0.0729 0.24513 0.10943 0.3677 0.0777 0.28851 0.16433 0.58896 0.26294 0.88037 0.0697 0.19126 0.11557 0.4006 0.15998 0.62041-0.12836 0.07841-0.20542 0.24939-0.2257 0.39616-0.0612 0.36548 0.0121 0.68544 0.085 0.93057 0.10186 0.34528 0.3711 0.63891 0.73803 0.68962 0.0943 0.01304 0.17967 0.01415 0.24402 0.01236l0.0105 0.0015c0.31127-0.0104 0.58964-0.01466 0.86221 0.02302 0.1258 0.01739 0.23789-0.02054 0.32287-0.09427 0.0611-0.05566 0.13994-0.16228 0.14212-0.33292z"/><path d="m-166.58-29.965c-0.30403-0.04202-0.60336-0.04066-0.90415-0.02882-0.0644 0.0018-0.1287 0.0036-0.20208-0.0066-0.0314-0.0043-0.0629-0.0087-0.0929-0.02351-0.15146-0.06367-0.25229-0.18445-0.31008-0.38474-0.0729-0.24513-0.11301-0.4964-0.0663-0.75704 4e-3 -0.03145 0.0192-0.06145 0.034-0.09145 0.0163-0.04048 0.0416-0.06903 0.073-0.06469 0.0839 0.0116 0.15392 0.27769 0.16619 0.34349 6e-3 0.0329 0.0214 0.07774 0.0618 0.09402-0.0278-0.18546-0.0227-0.37707-0.0609-0.56399-0.0628-0.31852-0.1137-0.64607-0.22134-0.94941-0.13799-0.39301-0.24163-0.80264-0.35721-1.2032-0.0791-0.27803-0.17011-0.54702-0.26114-0.81602-0.0394-0.1016-0.0245-0.1316 0.0532-0.1529 0.1674-0.05165 0.33948-0.05992 0.51156-0.06818 0.13919-0.0021 0.27838-0.0043 0.41756-0.0064 0.0434-0.0047 0.0615 0.01917 0.0767 0.06402 0.17004 0.85685 0.35055 1.7151 0.52059 2.572 0.0383 0.18692 0.0646 0.38287 0.0909 0.57882 3e-3 0.05387 9e-3 0.08677 0.0604 0.1045 0.0825 0.02208 0.1605 0.07561 0.19842 0.18768 0.0972 0.3019 0.19289 0.61427 0.26619 0.93424 0.0138 0.05532 0.0274 0.11063 0.0307 0.1645 5e-3 0.04338-9e-3 0.0629-0.0402 0.05855z" fill="url(#a)"/><path d="m-168.9-35.211c-0.0225 0.0076-0.0328 0.0061-0.0539 0.0032-0.16774-0.02318-0.35593-0.59408-0.39096-0.72712-0.0379-0.11208-0.0653-0.22271-0.0599-0.33948-3.6e-4 -0.07483 0.0174-0.1258 0.0561-0.17387 0.21589-0.24794 0.42344-0.35815 0.76471-0.35371 0.12726 0.0069 0.2176 0.12623 0.29891 0.23362 0.1807 0.23865 0.32226 0.76037 0.36556 1.0655 0.0156 0.11967-0.0112 0.1587-0.0966 0.15759-0.31128 0.0104-0.61351 0.03272-0.91396 0.1194z" fill="url(#a)"/><path d="m-167.89-34.74c-0.0635-0.127-0.17992-0.21167-0.3175-0.23283-0.1905 0-0.254 0.05292-0.381 0.17992-0.0741 0.05292-0.16933 0.08467-0.28575 0.09525-0.32808 0-0.58208-0.0635-0.87841-0.1905-0.10584-0.05292-0.21167-0.11642-0.32809-0.17992-0.40216-0.254-0.79374-0.41275-1.2806-0.41275-0.58208 0-0.99483 0.26458-1.143 0.85725-0.0741 0.29633-0.0106 0.58208 0.0423 0.77258 0.0423 0.14817 0.10583 0.27517 0.15875 0.40217 0.0106 0.03175 0.0212 0.0635 0.0317 0.09525 0.10583 0.254 0.29633 0.64558 0.61383 0.64558 0.0635 0 0.13759-0.02117 0.20108-0.05292 0.0106 0 0.0212 0 0.0423 0.01058 0.0847 0.02117 0.16933 0.07408 0.27516 0.15875 0.0212 0.01058 0.0529 0.04233 0.0741 0.07408 0.0318 0.03175 0.0635 0.0635 0.10583 0.09525 0.29633 0.27516 0.49742 0.58208 0.66675 0.9525-0.0529 0.02117-0.10584 0.05292-0.15875 0.08467-0.26458 0.17992-0.39158 0.48683-0.32808 0.81491 0.0847 0.43392 0.37041 1.0054 0.87841 1.0054 0.0635 0 0.127-0.01058 0.17992-0.03175l0.0423-0.01058c0.0317-0.01058 0.0635-0.02117 0.0847-0.02117 0.127-0.03175 0.25399-0.04233 0.40216-0.04233 0.0741 0 0.14817 0.01058 0.23283 0.01058h0.127c0.0741 0.01058 0.15875 0.02117 0.254 0.02117 0.32808-0.01058 0.55033-0.23283 0.56092-0.56091v-0.01058-0.03175c0.0212-0.3175-0.0317-0.59266-0.15875-0.8255-0.0847-0.14817-0.1905-0.254-0.3175-0.32808-0.0635-0.508-0.13758-1.0477-0.32808-1.524 0.66674 0 1.016-0.34925 1.0689-0.98425 0.0212-0.27517-0.0317-0.55033-0.16933-0.80433z"/><path d="m-168.14-33.925c-0.0423 0.4445-0.24341 0.62442-0.67733 0.62442-0.0741 0-0.15875-0.01058-0.23283-0.02117-0.16934-0.02117-0.33867-0.04233-0.508-0.0635-0.0212 0-0.0423 0-0.0741 0.01058 0.0529 0.05292 0.11641 0.08467 0.16933 0.127 0.41275 0.39158 0.60325 1.4711 0.60325 2.0743 0 0.04233 0.0106 0.0635 0.0529 0.0635 0.14817 0.01058 0.24342 0.09525 0.30692 0.21167 0.10583 0.1905 0.127 0.40216 0.10583 0.61383v0.03175c-0.0106 0.127-0.0847 0.20108-0.21166 0.20108-0.11642 0-0.23284-0.02117-0.34925-0.02117-0.0741 0-0.15875-0.01058-0.23284-0.01058-0.22225 0-0.46566 0.02117-0.67733 0.10583h-0.11641c-0.27517-0.10583-0.381-0.41275-0.42334-0.67733-0.0317-0.17992 0.0318-0.33867 0.17992-0.43392 0.0635-0.04233 0.13758-0.07408 0.21167-0.07408 0.0741 0 0.15875 0.03175 0.23283 0.09525 0.0212 0.01058 0.0317 0.03175 0.0635 0.04233 0-0.42333-0.58208-1.3547-0.94191-1.6827-0.1905-0.1905-0.46567-0.43392-0.75142-0.43392-0.0423 0-0.0741 0.01058-0.11641 0.02117-0.0318 0.01058-0.0635 0.02117-0.0847 0.04233-0.0106 0.01058-0.0212 0.01058-0.0317 0.01058-0.0106 0-0.0318-0.01058-0.0423-0.03175-0.17992-0.26458-0.32809-0.55033-0.42334-0.84666-0.0529-0.17992-0.0847-0.37042-0.0423-0.55033 0.0741-0.30692 0.26458-0.52916 0.59267-0.56092 0.39158 0 0.65616 0.01058 1.016 0.20108 0.21167 0.10583 0.41275 0.23283 0.62442 0.32808 0.37041 0.15875 0.65616 0.22225 1.0583 0.22225 0.16933-0.01058 0.32808-0.05292 0.47625-0.14817 0.0423-0.02117 0.0741-0.05292 0.10583-0.08467 0.0212-0.02117 0.0317-0.02117 0.0529 0.01058 0.0952 0.1905 0.13759 0.39158 0.11642 0.60325z" fill="url(#a)"/><path d="m-170.57-33.438h0.0318c0.0212 0 0.14817-0.01058 0.14817-0.02117 0-0.01058-0.0106-0.01058-0.0212-0.01058-0.13758-0.08467-0.27516-0.16933-0.42333-0.23283-0.0847-0.03175-0.15875-0.05292-0.24342-0.05292-0.0847 0-0.17991 0.02117-0.26458 0.07408-0.0212 0.01058-0.0529 0.02117-0.0529 0.05292s0.0318 0.03175 0.0529 0.04233c0.34925 0.15875 0.66675 0.39158 0.93133 0.65616 0-0.01058 0-0.02117-0.0106-0.03175-0.0635-0.13758-0.127-0.27516-0.20108-0.40216-0.0106-0.01058-0.0212-0.02117-0.0106-0.03175s0.0318 0 0.0423 0z"/><path d="m-170.52-31.469c-0.11642-0.13758-0.23283-0.254-0.34925-0.34925-0.0741-0.05292-0.14817-0.10583-0.22225-0.15875 0.0423-0.03175 0.0847-0.07408 0.127-0.11642 0.16933-0.17992 0.20108-0.37042 0.0953-0.59266-0.23283-0.47625-0.59266-1.4393-0.59266-1.9791 0-0.15875 0-0.30692 0.0318-0.4445 0.0423-0.14817 0.0212-0.27517-0.0635-0.381s-0.20109-0.15875-0.34925-0.15875c-0.42333 0-0.75142 0.24342-0.9525 0.60325-0.0741-0.08467-0.16933-0.16933-0.28575-0.23283-0.16933-0.10583-0.29633-0.13758-0.49741-0.13758-0.6985 0.0635-1.1536 0.47625-1.2912 1.1642-0.0317 0.20108-0.0106 0.381 0.0106 0.53975v0.0635c0.0635 0.51858 0.42333 1.3017 0.83608 1.651 0.0953 0.11642 0.20108 0.21167 0.28575 0.27516-0.0212 0.03175-0.0423 0.0635-0.0635 0.10583-0.15875 0.3175-0.1905 0.66675-0.10584 1.0583 0.0847 0.35983 0.43392 0.86783 0.84667 0.86783 0.127 0 0.22225-0.05292 0.27516-0.09525 0.16934-0.05292 0.3175-0.0635 0.48684-0.0635 0.0741 0.01058 0.15875 0.03175 0.25399 0.05292 0.0952 0.02117 0.20109 0.05292 0.3175 0.0635l0.0529 0.01058c0.0847 0.01058 0.17992 0.01058 0.27517 0.01058h0.127c0.50799-0.0635 0.82549-0.46566 0.89958-0.96308 0.0529-0.32808-0.0212-0.61383-0.22225-0.84666z"/></g><g transform="translate(11.102 -13.544)" fill="url(#b)"><path d="m-181.84-17.195c-0.0423 0.30692-0.22225 0.61383-0.55033 0.64558-0.127 0-0.254-0.01058-0.381-0.02117-0.20108-0.02117-0.39158-0.09525-0.59266-0.11642-0.0529 0-0.10584-0.01058-0.15875-0.01058-0.10584 0-0.49742 0.04233-0.58209 0.127-0.0212 0.02117-0.0423 0.03175-0.0741 0.03175-0.0212 0-0.0423-0.01058-0.0741-0.03175-0.21167-0.127-0.33867-0.3175-0.39158-0.56092-0.0635-0.27517-0.0635-0.55033 0.0635-0.80433 0.0318-0.0635 0.0741-0.11642 0.14816-0.14817 0.0106 0 0.0212-0.01058 0.0317-0.01058 0.0212 0 0.0318 0.01058 0.0529 0.02117 0.30691 0.20108 0.64558 0.35983 0.96308 0.56092 0.24341 0.14817 0.37041 0.26458 0.47625 0.51858 0.0106 0.02117 0.0212 0.04233 0.0423 0.04233 0.0212 0 0.0212-0.02117 0.0212-0.03175v-0.03175l-0.0529 0.02117 0.0529-0.02117c0.0317-0.13758-0.0212-0.254-0.0953-0.35983-0.14817-0.21167-0.37042-0.32808-0.58208-0.45508-0.35984-0.21167-0.74084-0.39158-1.0689-0.64558-0.0847-0.07408-0.16933-0.14817-0.24341-0.23283-0.0212-0.02117-0.0423-0.04233-0.0635-0.0635-0.33867-0.29633-0.64558-0.96308-0.70908-1.4076-0.0212-0.16933-0.0529-0.33867-0.0212-0.508 0.0952-0.508 0.41275-0.83608 0.94191-0.86783 0.29634 0 0.51858 0.27517 0.65617 0.51858 0.14816 0.26458 0.29633 0.52916 0.4445 0.79375 0.0318 0.0635 0.0847 0.11642 0.13758 0.16933-0.0318-0.10583-0.0847-0.20108-0.11642-0.30692-0.0847-0.254-0.14816-0.508-0.10583-0.78316 0.0423-0.33867 0.34925-0.60325 0.68791-0.60325 0.0529 0 0.0529 0 0.0423 0.05292-0.0423 0.17992-0.0423 0.35983-0.0423 0.53975 0.0106 0.62441 0.35984 1.5557 0.65617 2.1484 0.0423 0.07408 0.0423 0.09525-0.0106 0.15875-0.0635 0.0635-0.13759 0.10583-0.22225 0.127-0.0529 0.01058-0.10584 0.02117-0.15875 0.03175-0.0635 0-0.11642 0-0.16934-0.04233-0.1905-0.13758-0.38099-0.26458-0.56091-0.41275-0.40217-0.33867-0.58208-0.55033-0.80433-1.016-0.0317 0.03175-0.0423 0.08467-0.0317 0.14817 0.0847 0.66675 0.92075 1.2382 1.4393 1.5663 0.21166 0.13758 0.43391 0.26458 0.635 0.42333 0.10583 0.08467 0.20108 0.1905 0.29633 0.29633 0.13758 0.15875 0.16933 0.33866 0.13758 0.53975z" fill="url(#b)" stroke-width=".26458"/></g><g><path d="m-170.83-32.598 0.80051 1.2098-0.53903 0.18641-0.71558-0.88358z"/><path d="m-168.99-33.11 0.48965 0.01321 0.38594 1.5865-0.44149 0.37114z"/><path d="m-167.11-33.823 0.55699 1.0158 0.23355 1.1999-0.53365 0.15352-0.37993-2.3175z"/><path d="m-159.89-32.985 0.7488 1.1222-0.78942-0.0798z"/></g><g stroke-width=".26458"><path d="m-155.57-34.836c0.0568 0.51546 0.3357 1.0171 0.61701 1.4439l0.077 0.11928c0.11676 0.18943 0.23458 0.38939 0.33141 0.59166l0.014 0.0304c0.0292 0.07131 0.0583 0.14264 0.0525 0.18587-4e-3 0.16012 0.0909 0.34135 0.31054 0.40231-0.0351 0.06775-0.0597 0.13436-0.0622 0.20915-0.0106 0.097-0.0107 0.19284 0.0114 0.29687 0.0802 0.43835 0.31815 1.051 0.84878 1.0351l0.31559-0.03479c0.042-0.0046 0.0946-0.01043 0.1461-0.02675 0.21744-0.05591 0.49103-0.1819 0.41781-0.65296l2e-3 0.02104c-0.0779-0.41731-0.36147-0.96101-0.76221-1.1191 0.10884-0.17171 0.14992-0.37854 0.12325-0.62049-0.022-0.19987-0.0873-0.40563-0.19813-0.6383-0.0432-0.10171-0.0852-0.19291-0.12719-0.28411-0.0957-0.19175-0.17966-0.37415-0.2543-0.56822-0.0898-0.23499-0.16442-0.42907-0.16536-0.63126-7e-3 -0.06312-5e-3 -0.13792 0.0129-0.17179 0.0784-0.1577 0.0423-0.29215 0.0143-0.35294-0.13767-0.28295-0.51281-0.30548-0.79684-0.27417-0.17884 0.01971-0.33315 0.06867-0.49566 0.13982l-0.0105 0.0012c-0.35428 0.16682-0.46328 0.5302-0.42269 0.89839z"/><path d="m-153.87-31.628c-7e-3 -0.06312-0.0139-0.12623-0.0103-0.19051 7e-3 -0.12856 0.13808-0.19623 0.25379-0.20898 0.1052-0.0116 0.20452 0.02004 0.30963 0.10428 0.21958 0.1568 0.37356 0.49119 0.40371 0.7647 0.0303 0.17767-0.0107 0.19284-0.14512 0.22894l0.0292-0.02452c-0.062 0.01747-0.12507 0.02443-0.18703 0.04192-0.0643-0.0036-0.12856-0.0071-0.19167-1.69e-4 -0.27698-0.0014-0.41797-0.50759-0.4622-0.71566z" fill="url(#a)"/><path d="m-155.19-34.879c-0.0336-0.30507 0.0635-0.48614 0.37216-0.58404 0.0725-0.01864 0.14496-0.03728 0.21859-0.0454 0.12624-0.01391 0.25479-0.0068 0.37515 0.02253 0.0327 7e-3 0.0444 0.01641 0.0269 0.05028-0.0515 0.11215-0.0598 0.23019-0.0576 0.34707 8e-3 0.26531 0.0989 0.51082 0.20037 0.75517 0.11782 0.29579 0.26597 0.57758 0.4048 0.87105 0.0711 0.16252 0.1329 0.33672 0.15261 0.51555 0.0336 0.30507-0.0834 0.49898-0.38848 0.5326-0.0631 7e-3 -0.12739 0.0034-0.19283-0.01069-0.0117-0.0094-0.0234-0.01872-0.0257-0.03975 6e-3 -0.13908-0.0606-0.2595-0.11656-0.3811-0.0992-0.22331-0.21818-0.43379-0.34657-0.63258-0.15523-0.24907-0.32097-0.49699-0.43644-0.77174-0.0863-0.20343-0.16209-0.40803-0.18645-0.62894z" fill="url(#a)"/></g><path d="m-154.57-33.057 0.62469 1.0674-0.27204 0.29707-0.7473-0.75423z"/></g></svg>
