<svg width="21.323mm" height="7.3659mm" version="1.1" viewBox="0 0 21.323 7.3659" xmlns="http://www.w3.org/2000/svg" xmlns:xlink="http://www.w3.org/1999/xlink"><defs><linearGradient id="a" x1="95.976" x2="95.976" y1="120.41" y2="124.1" gradientUnits="userSpaceOnUse"><stop stop-color="#00ff90" offset="0"/><stop stop-color="#eaff00" offset="1"/></linearGradient><linearGradient id="c" x1="95.976" x2="95.976" y1="120.41" y2="124.1" gradientTransform="translate(-1.7113 .11628)" gradientUnits="userSpaceOnUse"><stop stop-color="#00ff90" offset="0"/><stop stop-color="#eaff00" offset="1"/></linearGradient><linearGradient id="b" x1="95.976" x2="95.976" y1="120.41" y2="124.1" gradientTransform="translate(-1.9878 .417)" gradientUnits="userSpaceOnUse"><stop stop-color="#00ff90" offset="0"/><stop stop-color="#eaff00" offset="1"/></linearGradient></defs><g transform="translate(-84.736 -118.49)" stroke-width=".26458"><path d="m96.317 124.73c0-0.83608-0.33866-1.5134-0.99483-2.0108 0.08467-0.11641 0.13758-0.254 0.15875-0.40216 0.04233-0.22225 0.04233-0.4445 0.03175-0.64558-0.03175-1.2382-0.47625-1.7039-1.5769-2.0532-0.56092-0.22225-0.91016-0.37042-1.3017-0.85725-0.13758-0.17992-0.29633-0.21167-0.40216-0.21167-0.43392 0-0.56092 0.64558-0.58208 0.97367-0.02117 0.34924 0 0.66674 0.0635 0.97366 0.09525 0.47625 0.3175 0.79375 0.65616 0.94191h0.03175c0 0.0529 0.01058 0.11642 0.03175 0.1905 0.04233 0.10584 0.08467 0.21167 0.127 0.3175 0.22225 0.67733 0.48683 1.3018 0.8255 1.9262-0.10583 0.0847-0.20108 0.22225-0.22225 0.46567-0.02117 0.21166-0.01058 0.4445 0.03175 0.70908 0.10583 0.67733 0.52916 0.762 1.1324 0.762 0.09525 0 0.1905 0 0.27517 0.0106 0.27517 0.0318 0.53975 0.0318 0.8255 0.0318 0.127 0 0.24342-0.0212 0.34925-0.0635 0.37042-0.15875 0.59266-0.58208 0.58208-1.1007z"/><path d="m95.418 125.49c-0.26458 0-0.52916 0-0.79375-0.0318-0.13758-0.0106-0.27517-0.0106-0.41275-0.0106-0.34925 0-0.5715-0.0529-0.62442-0.45508-0.03175-0.20108-0.04233-0.40217-0.02117-0.60325 0.02117-0.17992 0.07408-0.24342 0.21167-0.24342 0.08467 0 0.16933 0.0318 0.254 0.0635 0.01058 0 0.03175 0.0106 0.04233-0.0106s0-0.0318-0.01058-0.0423c-0.34925-0.42333-0.66675-1.143-0.86783-1.651-0.127-0.32808-0.23283-0.65616-0.34925-0.98424-0.01058-0.0423 0-0.0529 0.03175-0.0529 0.0635-0.0106 0.127-0.0106 0.20108-0.0106h0.254c0.01058 0 0.03175 0 0.04233-0.0106-0.04233-0.0106-0.07408-0.0318-0.11642-0.0423-0.22225-0.0847-0.4445-0.1905-0.66675-0.28575-0.24342-0.10583-0.37042-0.35983-0.43392-0.66675-0.05292-0.29633-0.0635-0.59266-0.04233-0.88899 0.01058-0.21167 0.05292-0.40217 0.15875-0.55034 0.02117-0.0423 0.05292-0.0635 0.08467-0.0635 0.02117 0 0.05292 0.0212 0.08467 0.0635 0.381 0.48684 0.83608 0.75142 1.3229 0.92075 0.22225 0.0741 0.4445 0.13758 0.65616 0.23283 0.64558 0.28575 0.80433 0.889 0.8255 1.5346 0.01058 0.20108 0.01058 0.39158-0.02117 0.58208-0.03175 0.22225-0.20108 0.41275-0.381 0.42334h-0.03175c-0.01058 0-0.03175-0.0106-0.03175 0.0106s0.02117 0.0317 0.03175 0.0423c0.11642 0.0847 0.22225 0.16933 0.33867 0.254 0.61383 0.41275 0.91016 1.016 0.91016 1.7462 0.01058 0.34924-0.127 0.63499-0.34925 0.73024z" fill="url(#c)"/><path d="m94.815 123.81c-0.15875-0.0741-0.22225-0.14816-0.32808-0.28575 0.01058 0.0847 0.04233 0.14817 0.07408 0.21167 0.04233 0.11641 0.24342 0.508 0.39158 0.508 0.02117 0 0.05292-0.0106 0.08467-0.0318l-0.21167-0.30692 0.21167 0.30692c0.08467-0.0529 0.08467-0.15875 0.01058-0.254-0.0635-0.0741-0.13758-0.11642-0.21167-0.15875z"/><path d="m94.285 121.61c-0.16933-0.13759-0.35983-0.15875-0.53975-0.1905 0.04233 0.0635 0.09525 0.10583 0.14817 0.127 0.127 0.0635 0.20108 0.1905 0.254 0.34924 0.02117 0.0741 0.05292 0.14817 0.10583 0.20109 0.03175 0.0423 0.07408 0.0529 0.10583 0.0529 0.03175 0 0.07408-0.0212 0.09525-0.0741s0.02117-0.11642 0-0.17992c-0.03175-0.127-0.09525-0.22224-0.17992-0.28574z"/><g transform="translate(-.50985 .76198)"><path d="m92.557 123.03c-0.07408-0.91016-0.4445-1.7357-1.1747-2.3072-0.26458-0.20108-0.53975-0.38099-0.80433-0.56091-0.09525-0.0635-0.1905-0.127-0.28575-0.1905-0.15875-0.0953-0.28575-0.22225-0.41275-0.34925-0.03175-0.0318-0.0635-0.0635-0.09525-0.0953-0.127-0.127-0.254-0.17991-0.43392-0.17991-0.59266 0-1.0901 0.65616-1.2382 1.1642-0.0635 0.22225-0.127 0.55033 0.04233 0.889 0.10583 0.20108 0.254 0.38099 0.4445 0.52916 0.03175 0.0212 0.0635 0.0423 0.09525 0.0635-0.01058 0.0423-0.01058 0.0952 0 0.15875 0.10583 1.0689 1.1112 2.9422 2.3495 2.9422 0.46566 0 0.85725-0.21167 1.1218-0.59267 0.29633-0.43391 0.42333-0.93133 0.381-1.4922z"/><path d="m91.848 124.28c-0.20108 0.29634-0.47625 0.42334-0.83608 0.42334-0.9525-0.0423-1.651-1.4817-1.8627-2.3072-0.03175-0.0953-0.05292-0.20109-0.0635-0.30692 0-0.0318 0.01058-0.0423 0.04233-0.0318 0.11642 0.0423 0.23283 0.0847 0.33866 0.14817 0.07408 0.0423 0.15875 0.0741 0.24342 0.10583 0.0635 0.0212 0.127 0.0635 0.1905 0.0953-0.05292-0.0635-0.11642-0.10583-0.17992-0.14817-0.15875-0.10583-0.29633-0.23283-0.4445-0.34925-0.13758-0.11641-0.28575-0.21166-0.42333-0.31749-0.13758-0.11642-0.254-0.254-0.33867-0.41275-0.09525-0.20109-0.07408-0.40217-0.02117-0.60325 0.09525-0.33867 0.30692-0.59267 0.58208-0.80433 0.09525-0.0635 0.20108-0.0847 0.3175-0.0847 0.05292 0 0.09525 0.0318 0.13758 0.0741 0.127 0.11642 0.24342 0.24342 0.381 0.34925 0.05292 0.0423 0.10583 0.0847 0.16933 0.127 0.35983 0.24342 0.73025 0.47625 1.0689 0.74083 0.64558 0.47625 0.97366 1.2488 1.0266 2.032 0.03175 0.45508-0.0635 0.87841-0.3175 1.2488z" fill="url(#a)"/><path d="m91.033 122.98c-0.09525-0.11642-0.381-0.34925-0.53975-0.381 0.04233 0.0529 0.07408 0.10583 0.10583 0.15875 0.04233 0.0847 0.07408 0.16933 0.0635 0.27516-0.01058 0.13759 0.02117 0.26459 0.08467 0.39159 0.03175 0.0635 0.08467 0.0953 0.15875 0.10583 0.13758 0.0106 0.27517-0.10583 0.254-0.23283-0.01058-0.11642-0.05292-0.22225-0.13758-0.3175z"/></g><path d="m89.414 124.68c-0.04233-0.0952-0.09525-0.17992-0.13758-0.26458-0.03175-0.0529-0.0635-0.10584-0.08467-0.15875l-0.01058-0.0212c-0.13758-0.27517-0.26458-0.53975-0.37042-0.81491 0.04233-0.0529 0.07408-0.127 0.08467-0.21167 0.02117-0.15875 0.03175-0.381-0.03175-0.61383-0.09525-0.37042-0.28575-0.47625-0.64558-0.47625 0.05292-0.17992 0.0635-0.37042 0.03175-0.58208-0.02117-0.127-0.05292-0.24342-0.08467-0.35983-0.04233-0.13759-0.08467-0.26459-0.127-0.39159-0.04233-0.10583-0.07408-0.21166-0.10583-0.31749-0.07408-0.26459-0.14817-0.53975-0.21167-0.80434l-0.05292-0.20108c-0.10583-0.46566-0.254-0.97366-0.8255-0.97366-0.33867 0-0.85725 0.15875-0.97366 0.51858-0.97366 0-1.1324 1.2594-1.1324 2.0002 0 0.39159 0.03175 0.762 0.10583 1.143l0.01058 0.0423c0.24342 1.1959 1.1536 3.6618 2.6882 3.6618 0.21167 0 0.46566-0.0635 0.65616-0.17991 0.03175 0.0212 0.0635 0.0317 0.09525 0.0423 0.11642 0.0318 0.23283 0.0423 0.32808 0.0529 0.23283 0 0.42333-0.0106 0.62442-0.13758 0.34925-0.23284 0.33867-0.62442 0.21167-0.91017z"/><path d="m89.033 125.32c-0.09525 0.0635-0.20108 0.0741-0.30692 0.0741h-0.08467c-0.08467-0.0106-0.16933-0.0212-0.254-0.0423-0.0635-0.0212-0.0635-0.0212-0.04233-0.0847 0.03175-0.0953 0.0635-0.1905 0.0635-0.30692 0-0.0318 0-0.0635-0.02117-0.0952-0.03175 0.0423-0.04233 0.10584-0.0635 0.15875-0.14817 0.30692-0.46566 0.45509-0.79375 0.45509-1.0372 0-1.8521-1.6722-2.1272-2.5718-0.08467-0.26458-0.13758-0.53974-0.1905-0.81491-0.02117-0.13758-0.04233-0.27517-0.0635-0.41275-0.02117-0.22225-0.02117-0.43391-0.02117-0.64558 0-0.49741 0.05292-1.2912 0.53975-1.5557 0.0635-0.0423 0.13758-0.0529 0.20108-0.0529 0.16933 0 0.26458 0.0423 0.37042 0.14816 0.04233 0.0635 0.08467 0.127 0.14817 0.16934 0.01058-0.0212 0-0.0423 0-0.0635-0.03175-0.127-0.08467-0.24342-0.10583-0.37042-0.02117-0.14816-0.02117-0.17991 0.07408-0.24341 0.17992-0.11642 0.34925-0.15875 0.56092-0.15875 0.11642 0 0.21167 0.0741 0.27517 0.21166 0.07408 0.16934 0.11642 0.34925 0.15875 0.52917 0.08467 0.3175 0.16933 0.635 0.26458 0.95249 0.07408 0.23284 0.16933 0.46567 0.23283 0.6985 0.03175 0.10584 0.0635 0.21167 0.08467 0.3175 0.04233 0.23283 0.01058 0.42333-0.10583 0.58208-0.08467 0.11642-0.23283 0.17992-0.35983 0.17992-0.22225 0-0.381-0.20108-0.46566-0.39158-0.03175-0.0741-0.0635-0.14817-0.11642-0.20109-0.0635-0.0741-0.127-0.10583-0.1905-0.10583-0.22225 0-0.254 0.45508-0.254 0.60325 0.01058 0.56091 0.17992 1.0583 0.49742 1.4922 0.04233 0.0529 0.08467 0.0952 0.13758 0.127-0.02117-0.0847-0.05292-0.15875-0.09525-0.23283-0.09525-0.16933-0.13758-0.35983-0.15875-0.55033-0.03175-0.21167-0.05292-0.42333-0.04233-0.635 0-0.0847 0.02117-0.15875 0.03175-0.24341 0-0.0318 0.01058-0.0423 0.04233-0.0212 0.32808 0.26458 0.73025 0.28575 1.1324 0.28575 0.127-0.0106 0.254-0.0212 0.381-0.0212 0.11642 0 0.15875 0.0106 0.21167 0.1905 0.04233 0.15875 0.04233 0.3175 0.03175 0.47625 0 0.0106 0 0.0212-0.01058 0.0212-0.05292-0.0741-0.08467-0.15875-0.10583-0.254-0.01058-0.0318-0.01058-0.0847-0.04233-0.0847-0.04233 0-0.03175 0.0635-0.03175 0.0953-0.01058 0.17992 0.04233 0.35983 0.10583 0.52917 0.11642 0.33866 0.27517 0.64558 0.43392 0.96308 0.07408 0.13758 0.15875 0.26458 0.22225 0.41274 0.08467 0.20109 0.0635 0.34925-0.07408 0.4445z" fill="url(#a)"/><path d="m87.71 123.78c-0.10583 0.0529-0.21167 0.11641-0.3175 0.16933-0.01058 0-0.02117 0-0.02117 0.0106 0 0.0212 0.01058 0.0212 0.02117 0.0317 0.0635 0.0318 0.127 0.0741 0.1905 0.10584 0.07408 0.0423 0.127 0.0529 0.21167 0.0529 0.05292-0.0106 0.10583-0.0318 0.11642-0.11641 0.01058-0.0953-0.02117-0.16934-0.0635-0.24342-0.02117-0.0423-0.05292-0.0529-0.07408-0.0529-0.02117 0-0.04233 0.0106-0.0635 0.0212z"/><g transform="translate(-2.3091 .48061)"><path d="m104.21 123.02c0.0529-0.0741 0.0847-0.14817 0.11642-0.22225 0.0741-0.17991 0.0423-0.37041-0.0847-0.508 0 0 0-0.0106-0.0106-0.0318-0.27517-0.47625-0.4445-1.2382-0.52917-1.7674l-0.0106-0.0423c-0.0741-0.49742-0.20108-0.84667-0.77258-0.84667-0.32808 0-0.762 0.0847-0.92075 0.40217-0.0635-0.0212-0.127-0.0212-0.1905-0.0212-0.98424 0-1.2912 1.2912-1.2912 2.0955 0 0.11641 0.0106 0.23283 0.0212 0.34925v0.0423c0.127 1.2277 0.94191 2.8892 2.3707 2.8892 0.93133 0 1.524-0.508 1.524-1.4605 0-0.14816 0-0.28574 0.0318-0.40216 0.0529-0.21167-0.0318-0.41275-0.22225-0.51858z"/><path d="m104.1 123.39c-0.0529 0.20108-0.0529 0.40216-0.0635 0.60324 0 0.68792-0.53975 1.0054-1.1642 1.0054-0.94192 0-1.6616-1.1536-1.8732-1.9897-0.0741-0.29634-0.11641-0.635-0.11641-0.94192 0-0.58208 0.13758-1.4287 0.76199-1.6722 0.0635-0.0212 0.127-0.0423 0.17992-0.0423 0.16933 0 0.3175 0.11642 0.40217 0.27516 0.0318 0.0635 0.0635 0.127 0.0952 0.1905-0.0106-0.0741-0.0212-0.14816-0.0318-0.22225-0.0106-0.11641 0-0.23283 0.0212-0.34924 0.0212-0.0847 0.0741-0.14817 0.15875-0.17992 0.16933-0.0529 0.32808-0.0741 0.49742-0.0741 0.11641 0 0.20108 0.0529 0.254 0.15875 0.0635 0.127 0.0847 0.26458 0.10583 0.40216 0.0953 0.635 0.26458 1.3123 0.58208 1.8732 0.0212 0.0318 0.0423 0.0635 0.0635 0.0952 0.0318 0.0318 0.0423 0.0635 0.0318 0.10583-0.0529 0.127-0.11642 0.254-0.24342 0.33866-0.127 0.127-0.27516 0.1905-0.45508 0.1905-0.0635 0-0.127-0.0106-0.1905-0.0212-0.3175-0.0635-0.48683-0.16934-0.62441-0.47625-0.0741-0.16933-0.127-0.34925-0.17992-0.52917 0-0.0106 0-0.0318-0.0212-0.0318s-0.0212 0.0212-0.0317 0.0318c-0.0318 0.0635-0.0423 0.127-0.0529 0.1905-0.0847 0.35983 0 0.6985 0.13758 1.0372 0.0529 0.127 0.127 0.23283 0.23283 0.32808 0.0318 0.0212 0.0635 0.0423 0.0952 0.0635 0.0529 0.0318 0.0953 0.0423 0.127 0.0423 0.0741 0 0.127-0.0423 0.15875-0.14816 0.0741-0.21167 0.43392-0.42334 0.65617-0.42334 0.0212 0 0.0529 0.0106 0.0741 0.0106 0.11642 0.0212 0.23283 0.0529 0.33867 0.10583 0.0318 0.0212 0.0529 0.0423 0.0423 0.0847z" fill="url(#a)"/></g><g transform="translate(-2.9022 .52272)"><path d="m108.69 123.47c-0.11642-0.16933-0.28575-0.27516-0.48684-0.29633-0.0423-0.14817-0.0741-0.29633-0.11641-0.47625-0.0635-0.254-0.21167-0.508-0.45508-0.61383 0.0106-0.0212 0.0212-0.0423 0.0318-0.0635 0.20108-0.3175 0.1905-0.6985-0.0318-0.99483-0.0529-0.0741-0.11642-0.13758-0.16934-0.1905-0.0212-0.0212-0.0423-0.0423-0.0529-0.0635-0.0317-0.0317-0.0317-0.0529-0.0212-0.0952 0.0318-0.13758 0.0635-0.26458 0.0953-0.40216 0.0741-0.29634-0.0423-0.55034-0.3175-0.6985-0.0317-0.0212-0.0635-0.0318-0.0952-0.0423-0.20108-0.0847-0.41275-0.11641-0.635-0.11641-0.29633 0-0.73024 0.0423-0.89958 0.32808-0.0106 0.0212-0.0212 0.0423-0.0317 0.0635-0.16933-0.22225-0.381-0.42333-0.67733-0.42333-0.0635 0-0.127 0.0106-0.1905 0.0318-0.73024 0.22225-1.1007 0.81491-1.1642 1.5452-0.0106 0.16933 0.0529 0.32808 0.17992 0.4445 0.26458 0.23283 0.56091 0.66675 0.75141 0.96308 0.0529 0.0847 0.10583 0.16933 0.15875 0.254 0.14817 0.24341 0.29633 0.46566 0.40217 0.70908 0.0212 0.0529 0.0423 0.10583 0.0635 0.15875-0.254 0.127-0.45509 0.254-0.46567 0.56091-0.0212 0.30692 0.0635 0.60325 0.24342 0.87842 0.15875 0.23283 0.40216 0.381 0.68791 0.381 0.0635 0 0.11642-0.0106 0.15875-0.0212h0.0318 0.0423c0.0847-0.0106 0.17992-0.0106 0.26459-0.0106h0.10583 0.1905 0.15875c0.21166 0 0.39158-0.0741 0.51858-0.254 0.16933 0.10583 0.34925 0.15875 0.55033 0.15875 0.254 0 0.46567-0.0212 0.66675-0.0741 0.0212-0.0106 0.0423-0.0106 0.0635-0.0106 0.45508-0.10583 0.71966-0.29633 0.71966-0.79375 0-0.29633-0.0952-0.58208-0.27516-0.84666z"/><path d="m108.53 124.55c-0.0318 0.0529-0.0847 0.0741-0.13759 0.0952-0.10583 0.0423-0.22224 0.0635-0.32808 0.0953-0.17991 0.0423-0.37041 0.0529-0.56091 0.0529-0.15875 0-0.29634-0.0529-0.41275-0.14816-0.10583-0.0741-0.14817-0.1905-0.15875-0.3175-0.0106-0.13758 0-0.27517 0.0106-0.41275 0.0317-0.40216-0.15875-0.78316-0.52916-0.94191-0.0318-0.0106-0.0741-0.0106-0.10584-0.0529-0.0318 0.13758-0.0318 0.26458-0.0106 0.39158 0.0106 0.0741 0.0318 0.14817 0.0423 0.22225 0.0106 0.0529 0.0423 0.0953 0.0952 0.127 0.16934 0.0953 0.27517 0.24342 0.30692 0.43392 0.0318 0.1905 0.0635 0.381-0.0106 0.5715-0.0318 0.0847-0.0741 0.15874-0.16934 0.20108-0.0318 0.0106-0.0635 0.0212-0.0953 0.0212-0.10583-0.0106-0.21166-0.0212-0.3175-0.0317-0.15874 0-0.31749 0-0.47624 0.0317-0.0635 0.0106-0.127 0.0212-0.1905 0.0212-0.15875-0.0106-0.27517-0.0847-0.35984-0.21166-0.12699-0.1905-0.19049-0.40217-0.17991-0.635 0.0106-0.14817 0.1905-0.24342 0.32808-0.24342 0.127-0.0106 0.254-0.0106 0.381-0.0106h0.15875c0.0106 0 0.0212 0 0.0318-0.0106-0.0318-0.0317-0.0741-0.0423-0.11642-0.0529-0.0529-0.0106-0.10583-0.0212-0.15875-0.0318-0.0318-0.0106-0.0423-0.0212-0.0529-0.0529-0.0423-0.16933-0.10584-0.33866-0.17992-0.49741-0.23283-0.56092-0.92075-1.6298-1.397-2.0638-0.0423-0.0423-0.0635-0.0847-0.0635-0.13758 0.0318-0.56091 0.35983-1.0372 0.91016-1.1959 0.0318-0.0106 0.0635-0.0106 0.0847-0.0106 0.0635 0 0.127 0.0212 0.19049 0.0635 0.37042 0.28575 0.65617 1.2277 0.78317 1.651 0.0423 0.13758 0.0847 0.27516 0.127 0.41275 0.0106 0.0317 0.0212 0.0423 0.0423 0.0423 0.0106 0 0.0212 0 0.0318-0.0106 0.11642-0.0635 0.23283-0.127 0.29633-0.24342 0.0635-0.10583 0.0529-0.21166-0.0106-0.3175-0.0529-0.0741-0.10583-0.14816-0.16933-0.21166-0.16933-0.20109-0.28575-0.43392-0.32808-0.68792-0.0318-0.17991 0-0.35983 0.0953-0.51858 0.0318-0.0423 0.0847-0.0635 0.13758-0.0741 0.14816-0.0423 0.29633-0.0741 0.45508-0.0741s0.32808 0.0318 0.48683 0.0952c0.0212 0.0106 0.0423 0.0212 0.0635 0.0318 0.11642 0.0635 0.15875 0.14817 0.127 0.28575-0.0318 0.127-0.0741 0.254-0.10583 0.381-0.0529 0.16933-0.0106 0.3175 0.11641 0.4445 0.0635 0.0635 0.127 0.127 0.17992 0.20108 0.127 0.16934 0.13758 0.39159 0.0212 0.5715-0.15875 0.254-0.41275 0.381-0.66675 0.508 0.0106 0.0212 0.0318 0.0106 0.0423 0.0106 0.10584 0 0.21167 0.0106 0.3175 0.0318 0.0952 0.0212 0.1905 0.0106 0.28575 0.0212 0.20108 0.0212 0.34925 0.20108 0.39158 0.39158 0.0423 0.17992 0.0847 0.35983 0.127 0.52917 0.0212 0.0952 0.0212 0.0952-0.0741 0.127-0.0423 0.0106-0.0847 0.0212-0.11642 0.0529-0.0106 0.0106-0.0318 0.0212-0.0212 0.0423 0.0106 0.0212 0.0318 0.0212 0.0529 0.0212h0.22225c0.0423-0.0106 0.0847-0.0106 0.127-0.0106s0.0847 0 0.127 0.0106c0.29633 0.0318 0.43392 0.51858 0.43392 0.762 0 0.0847-0.0212 0.16933-0.0635 0.24342z" fill="url(#a)"/></g><path d="m98.74 123.75c0-0.0106-0.0106-0.0212-0.0212-0.0317-0.0423-0.0847-0.0741-0.17992-0.0952-0.27517-0.0529-0.27516-0.0741-0.56091-0.0953-0.86783-0.0106-0.0953-0.0212-0.1905-0.0318-0.28575v-0.0847c0-1.0795-0.94191-1.4182-1.8097-1.6828-0.3175-0.0953-0.61383-0.1905-0.889-0.32808-0.07408-0.0318-0.14817-0.0529-0.22225-0.0529-0.381 0-0.59266 0.56092-0.68791 0.85725-0.07408 0.23283-0.08467 0.45508-0.08467 0.65617 0 0.26458 0.11642 0.48683 0.3175 0.63499-0.01058 0.0635-0.01058 0.127-0.01058 0.20109 0.01058 0.127 0.04233 0.24341 0.10583 0.37041 0.02117 0.0529 0.05292 0.10584 0.08467 0.15875 0.22225 0.40217 0.41275 0.8255 0.45508 1.2806v0.0529c0.01058 0.0847 0.01058 0.15875 0 0.21166-0.01058 0.0741-0.03175 0.14817-0.0635 0.22225-0.10583 0.20109-0.07408 0.40217 0.08467 0.5715 0.27517 0.27517 0.8255 0.47625 1.2277 0.47625 0.16933 0 0.33866-0.0318 0.51858-0.0953 0.127-0.0529 0.23283-0.127 0.30692-0.22225 0.05292 0.0317 0.10583 0.0635 0.16933 0.0847 0.14816 0.0635 0.29634 0.0953 0.4445 0.0953 0.50799 0 0.92074-0.4445 1.0689-0.89958 0.11642-0.33867-0.0635-0.73025-0.39158-0.85725z"/><path d="m99.163 124.69c-0.10583 0.30692-0.381 0.64558-0.74083 0.64558-0.5715 0-0.89958-0.61383-1.0689-1.0901-0.02117-0.0529-0.03175-0.10583-0.03175-0.15875 0-0.10583 0.04233-0.1905 0.127-0.254 0.02117-0.0212 0.04233-0.0423 0.0635-0.0635v-0.0318c0-0.0106-0.01058 0-0.02117 0h-0.03175c-0.10583 0.0318-0.20108 0.0529-0.30692 0.0529-0.11642 0-0.24342-0.0212-0.35983-0.0529-0.02117 0-0.04233-0.0106-0.0635 0 0.02117 0.0423 0.0635 0.0635 0.09525 0.0847 0.23283 0.15875 0.3175 0.34925 0.39158 0.60325 0.07408 0.20108 0.16933 0.39158 0.28575 0.5715 0.10583 0.16933 0.0635 0.32808-0.127 0.40216-0.127 0.0529-0.26458 0.0847-0.40216 0.0847-0.05292 0-0.11642-0.0106-0.17992-0.0212-0.22225-0.0529-0.4445-0.11642-0.635-0.24342-0.04233-0.0317-0.08467-0.0635-0.11642-0.0952-0.05292-0.0529-0.05292-0.0741-0.02117-0.13759 0.05292-0.10583 0.09525-0.21166 0.11642-0.32808 0.02117-0.10583 0.01058-0.21167 0-0.3175-0.02117-0.30691-0.10583-0.60325-0.22225-0.889-0.09525-0.23283-0.22225-0.45508-0.33867-0.67733-0.04233-0.0741-0.07408-0.14816-0.08467-0.23283-0.01058-0.0847 0-0.15875 0.01058-0.24342 0.01058-0.0318 0.03175-0.0318 0.0635-0.0318 0.10583 0.0106 0.21167 0.0212 0.32808 0.0529-0.03175-0.0423-0.0635-0.0529-0.09525-0.0635-0.11642-0.0529-0.23283-0.10583-0.34925-0.15875-0.16933-0.0741-0.254-0.21166-0.254-0.39158 0-0.40217 0.09525-0.762 0.33866-1.0901 0.02117-0.0318 0.04233-0.0423 0.0635-0.0423 0.01058 0 0.03175 0 0.04233 0.0106 0.40217 0.20108 0.83608 0.30692 1.2594 0.4445 0.55033 0.1905 1.0266 0.381 1.2065 0.99483 0.0318 0.11641 0.0212 0.23283 0.0318 0.34925 0.0317 0.40216 0.0423 0.81491 0.127 1.2171 0.0212 0.127 0.0635 0.24341 0.11642 0.35983 0 0.0106 0.0106 0.0212 0 0.0318s-0.0212 0-0.0318 0c-0.0423-0.0106-0.0847-0.0212-0.13759-0.0318 0.0952 0.127 0.51859 0.24341 0.66675 0.28575 0.0423 0.0106 0.0847 0.0212 0.127 0.0423 0.127 0.0529 0.22225 0.23283 0.16933 0.39158z" fill="url(#b)"/><path d="m97.078 123.12c-0.05292-0.0741-0.08467-0.14816-0.05292-0.24341 0 0 0.01058-0.10584 0.01058-0.13759 0-0.0318 0-0.0635-0.01058-0.0953-0.01058-0.0635-0.0635-0.11641-0.127-0.127-0.04233-0.0106-0.10583 0.0318-0.127 0.0847-0.04233 0.127-0.04233 0.254 0.03175 0.37042 0.0635 0.0953 0.15875 0.15874 0.26458 0.21166 0.01058 0.0106 0.03175 0.0212 0.04233 0 0.01058-0.0106 0-0.0212-0.01058-0.0317-0.01058-0.0106-0.02117-0.0212-0.03175-0.0318z"/></g></svg>
