<svg width="25" height="25" version="1.1" viewBox="0 0 6.6146 6.6147" xmlns="http://www.w3.org/2000/svg" xmlns:cc="http://creativecommons.org/ns#" xmlns:dc="http://purl.org/dc/elements/1.1/" xmlns:rdf="http://www.w3.org/1999/02/22-rdf-syntax-ns#" xmlns:xlink="http://www.w3.org/1999/xlink">
<defs>
<linearGradient id="a" x1="82.227" x2="82.227" y1="63.436" y2="68.186" gradientUnits="userSpaceOnUse">
<stop stop-color="#00ff90" offset="0"/>
<stop stop-color="#eaff00" offset="1"/>
</linearGradient>
</defs>
<g transform="translate(-78.933 -62.44)" stroke-width=".31854">
<path d="m85.522 66.009c-0.12742-0.81546-0.86642-1.1722-1.6182-1.1722-0.17838 0-0.33128 0.01274-0.48418 0.02549-0.81546 0.05096-3.2873 0.14016-3.9753 0.17838-0.06371 0-0.26757 0.01274-0.40773 0.19112-0.14016 0.17838-0.10194 0.38224-0.08919 0.44595 0.16564 0.8282 0.86642 0.9811 1.5799 0.9811h0.38224c0.33128 0 3.0197 0 3.3765-0.02549h0.19112c0.08919 0 0.19112 0 0.29306-0.01274h0.11467c0.06371 0.01274 0.12742 0.02549 0.17838 0.02549 0.12742 0 0.2166-0.03822 0.28031-0.08919 0.08919-0.06371 0.20386-0.19112 0.20386-0.42047v-0.11467z"/>
<path d="m85.522 68.405c-0.12742-0.81546-0.86642-1.1722-1.6182-1.1722-0.17838 0-0.33128 0.01274-0.48418 0.02549-0.81546 0.05096-3.2873 0.14016-3.9753 0.17838-0.06371 0-0.26757 0.01274-0.40773 0.19112-0.14016 0.17838-0.10194 0.38224-0.08919 0.44595 0.16564 0.8282 0.86642 0.9811 1.5799 0.9811h0.38224c0.33128 0 3.0197 0 3.3765-0.02549h0.19112c0.08919 0 0.19112 0 0.29306-0.01274h0.11467c0.06371 0.01274 0.12742 0.02549 0.17838 0.02549 0.12742 0 0.2166-0.03822 0.28031-0.08919 0.08919-0.06371 0.20386-0.19112 0.20386-0.42047v-0.11467z"/>
<path d="m85.522 63.612c-0.12742-0.81546-0.86642-1.1722-1.6182-1.1722-0.17838 0-0.33128 0.01274-0.48418 0.02549-0.81546 0.05096-3.2873 0.14016-3.9753 0.17838-0.06371 0-0.26757 0.01274-0.40773 0.19112-0.14016 0.17838-0.10194 0.38224-0.08919 0.44595 0.16564 0.8282 0.86642 0.9811 1.5799 0.9811h0.38224c0.33128 0 3.0197 0 3.3765-0.02549h0.19112c0.08919 0 0.19112 0 0.29306-0.01274h0.11467c0.06371 0.01274 0.12742 0.02549 0.17838 0.02549 0.12742 0 0.2166-0.03822 0.28031-0.08919 0.08919-0.06371 0.20386-0.19112 0.20386-0.42047v-0.11467z"/>
<g fill="url(#a)">
<path d="m85.012 63.816c-0.03822-0.01274-0.07645-0.01274-0.11467-0.01274-0.05096 0-0.10194 0-0.1529 0.01274-0.07645 0.01274-0.16564 0.01274-0.24209 0.01274h-0.25483c-0.4587 0.02549-3.2491 0.02549-3.7078 0.02549-0.47144 0-1.0193-0.02549-1.1213-0.61159-0.01274-0.08919 0-0.10194 0.08919-0.10194 0.71352-0.02549 3.0962-0.10194 3.9754-0.19112 0.1529-0.01274 0.3058-0.02549 0.47144-0.02549 0.50966 0 1.0958 0.21661 1.1722 0.78997v0.03822c0 0.05096 0 0.07645-0.02549 0.07645-0.01274 0-0.02549 0-0.05096-0.01274z"/>
<path d="m85.012 66.212c-0.03822-0.01274-0.07645-0.01274-0.11467-0.01274-0.05096 0-0.10194 0-0.1529 0.01274-0.07645 0.01274-0.16564 0.01274-0.24209 0.01274h-0.25483c-0.4587 0.02549-3.2491 0.02549-3.7078 0.02549-0.47144 0-1.0193-0.02549-1.1213-0.61159-0.01274-0.08919 0-0.10194 0.08919-0.10194 0.71352-0.02549 3.0962-0.10194 3.9754-0.19112 0.1529-0.01274 0.3058-0.02549 0.47144-0.02549 0.50966 0 1.0958 0.21661 1.1722 0.78997v0.03823c0 0.05096 0 0.07645-0.02549 0.07645-0.01274 0-0.02549 0-0.05096-0.01274z"/>
<path d="m85.012 68.609c-0.03822-0.01274-0.07645-0.01274-0.11467-0.01274-0.05096 0-0.10194 0-0.1529 0.01274-0.07645 0.01274-0.16564 0.01274-0.24209 0.01274h-0.25483c-0.4587 0.02549-3.2491 0.02549-3.7078 0.02549-0.47144 0-1.0193-0.02549-1.1213-0.61159-0.01274-0.08919 0-0.10194 0.08919-0.10194 0.71352-0.02549 3.0962-0.10194 3.9754-0.19112 0.1529-0.01274 0.3058-0.02549 0.47144-0.02549 0.50966 0 1.0958 0.21661 1.1722 0.78997v0.03822c0 0.05096 0 0.07645-0.02549 0.07645-0.01274 0-0.02549 0-0.05096-0.01274z"/>
</g>
</g>
</svg>
