<?xml version="1.0" encoding="UTF-8" standalone="no"?>
<svg
   xmlns:dc="http://purl.org/dc/elements/1.1/"
   xmlns:cc="http://creativecommons.org/ns#"
   xmlns:rdf="http://www.w3.org/1999/02/22-rdf-syntax-ns#"
   xmlns:svg="http://www.w3.org/2000/svg"
   xmlns="http://www.w3.org/2000/svg"
   xmlns:xlink="http://www.w3.org/1999/xlink"
   xmlns:sodipodi="http://sodipodi.sourceforge.net/DTD/sodipodi-0.dtd"
   xmlns:inkscape="http://www.inkscape.org/namespaces/inkscape"
   width="15.917414mm"
   height="12.68084mm"
   viewBox="0 0 15.917414 12.680839"
   version="1.1"
   id="svg4863"
   inkscape:version="1.0.2 (1.0.2+r75+1)"
   sodipodi:docname="learn-more.svg">
  <defs
     id="defs4857">
    <linearGradient
       inkscape:collect="always"
       id="linearGradient2177">
      <stop
         style="stop-color:#beffe3;stop-opacity:1;"
         offset="0"
         id="stop2173" />
      <stop
         style="stop-color:#faffbd;stop-opacity:1"
         offset="1"
         id="stop2175" />
    </linearGradient>
    <linearGradient
       inkscape:collect="always"
       id="linearGradient2171">
      <stop
         style="stop-color:#beffe3;stop-opacity:1;"
         offset="0"
         id="stop2167" />
      <stop
         style="stop-color:#faffbd;stop-opacity:1"
         offset="1"
         id="stop2169" />
    </linearGradient>
    <linearGradient
       inkscape:collect="always"
       id="linearGradient2165">
      <stop
         style="stop-color:#beffe3;stop-opacity:1;"
         offset="0"
         id="stop2161" />
      <stop
         style="stop-color:#faffbd;stop-opacity:1"
         offset="1"
         id="stop2163" />
    </linearGradient>
    <linearGradient
       inkscape:collect="always"
       id="linearGradient2159">
      <stop
         style="stop-color:#beffe3;stop-opacity:1;"
         offset="0"
         id="stop2155" />
      <stop
         style="stop-color:#faffbd;stop-opacity:1"
         offset="1"
         id="stop2157" />
    </linearGradient>
    <linearGradient
       inkscape:collect="always"
       id="linearGradient2153">
      <stop
         style="stop-color:#beffe3;stop-opacity:1;"
         offset="0"
         id="stop2149" />
      <stop
         style="stop-color:#faffbd;stop-opacity:1"
         offset="1"
         id="stop2151" />
    </linearGradient>
    <linearGradient
       inkscape:collect="always"
       id="linearGradient2147">
      <stop
         style="stop-color:#beffe3;stop-opacity:1;"
         offset="0"
         id="stop2143" />
      <stop
         style="stop-color:#faffbd;stop-opacity:1"
         offset="1"
         id="stop2145" />
    </linearGradient>
    <linearGradient
       inkscape:collect="always"
       id="linearGradient2141">
      <stop
         style="stop-color:#beffe3;stop-opacity:1;"
         offset="0"
         id="stop2137" />
      <stop
         style="stop-color:#faffbd;stop-opacity:1"
         offset="1"
         id="stop2139" />
    </linearGradient>
    <linearGradient
       inkscape:collect="always"
       id="linearGradient2135">
      <stop
         style="stop-color:#beffe3;stop-opacity:1;"
         offset="0"
         id="stop2131" />
      <stop
         style="stop-color:#faffbd;stop-opacity:1"
         offset="1"
         id="stop2133" />
    </linearGradient>
    <linearGradient
       inkscape:collect="always"
       id="linearGradient2111">
      <stop
         style="stop-color:#beffe3;stop-opacity:1;"
         offset="0"
         id="stop2107" />
      <stop
         style="stop-color:#faffbd;stop-opacity:1"
         offset="1"
         id="stop2109" />
    </linearGradient>
    <linearGradient
       inkscape:collect="always"
       xlink:href="#linearGradient2111"
       id="linearGradient2113"
       x1="15.120409"
       y1="156.93246"
       x2="15.120409"
       y2="165.87543"
       gradientUnits="userSpaceOnUse" />
    <linearGradient
       inkscape:collect="always"
       xlink:href="#linearGradient2177"
       id="linearGradient2115"
       x1="15.120409"
       y1="156.93246"
       x2="15.120409"
       y2="165.87543"
       gradientUnits="userSpaceOnUse" />
    <linearGradient
       inkscape:collect="always"
       xlink:href="#linearGradient2171"
       id="linearGradient2117"
       x1="15.120409"
       y1="156.93246"
       x2="15.120409"
       y2="165.87543"
       gradientUnits="userSpaceOnUse" />
    <linearGradient
       inkscape:collect="always"
       xlink:href="#linearGradient2165"
       id="linearGradient2119"
       x1="15.120409"
       y1="156.93246"
       x2="15.120409"
       y2="165.87543"
       gradientUnits="userSpaceOnUse" />
    <linearGradient
       inkscape:collect="always"
       xlink:href="#linearGradient2159"
       id="linearGradient2121"
       x1="15.120409"
       y1="156.93246"
       x2="15.120409"
       y2="165.87543"
       gradientUnits="userSpaceOnUse" />
    <linearGradient
       inkscape:collect="always"
       xlink:href="#linearGradient2153"
       id="linearGradient2123"
       x1="15.120409"
       y1="156.93246"
       x2="15.120409"
       y2="165.87543"
       gradientUnits="userSpaceOnUse" />
    <linearGradient
       inkscape:collect="always"
       xlink:href="#linearGradient2147"
       id="linearGradient2125"
       x1="15.120409"
       y1="156.93246"
       x2="15.120409"
       y2="165.87543"
       gradientUnits="userSpaceOnUse" />
    <linearGradient
       inkscape:collect="always"
       xlink:href="#linearGradient2141"
       id="linearGradient2127"
       x1="15.120409"
       y1="156.93246"
       x2="15.120409"
       y2="165.87543"
       gradientUnits="userSpaceOnUse" />
    <linearGradient
       inkscape:collect="always"
       xlink:href="#linearGradient2135"
       id="linearGradient2129"
       x1="15.120409"
       y1="156.93246"
       x2="15.120409"
       y2="165.87543"
       gradientUnits="userSpaceOnUse" />
  </defs>
  <sodipodi:namedview
     id="base"
     pagecolor="#ffffff"
     bordercolor="#666666"
     borderopacity="1.0"
     inkscape:pageopacity="0.0"
     inkscape:pageshadow="2"
     inkscape:zoom="10.165265"
     inkscape:cx="43.144835"
     inkscape:cy="31.090923"
     inkscape:document-units="mm"
     inkscape:current-layer="g5579"
     inkscape:document-rotation="0"
     showgrid="false"
     inkscape:pagecheckerboard="true"
     inkscape:showpageshadow="false"
     objecttolerance="1"
     guidetolerance="1"
     fit-margin-top="0"
     fit-margin-left="0"
     fit-margin-right="0"
     fit-margin-bottom="0"
     inkscape:window-width="1920"
     inkscape:window-height="1010"
     inkscape:window-x="1440"
     inkscape:window-y="0"
     inkscape:window-maximized="1" />
  <metadata
     id="metadata4860">
    <rdf:RDF>
      <cc:Work
         rdf:about="">
        <dc:format>image/svg+xml</dc:format>
        <dc:type
           rdf:resource="http://purl.org/dc/dcmitype/StillImage" />
        <dc:title></dc:title>
      </cc:Work>
    </rdf:RDF>
  </metadata>
  <g
     inkscape:label="Layer 1"
     inkscape:groupmode="layer"
     id="layer1"
     transform="translate(-10.934308,-154.70153)">
    <g
       aria-label="Learn More"
       id="text5428"
       style="font-style:normal;font-variant:normal;font-weight:normal;font-stretch:normal;font-size:10.5833px;line-height:1.25;font-family:'Rebeland Outline';-inkscape-font-specification:'Rebeland Outline, Normal';font-variant-ligatures:normal;font-variant-caps:normal;font-variant-numeric:normal;font-variant-east-asian:normal;stroke-width:0.264583">
      <g
         id="g5579">
        <g
           id="g2201">
          <path
             style="font-style:normal;font-variant:normal;font-weight:normal;font-stretch:normal;font-size:10.5833px;font-family:'Rebeland Outline';-inkscape-font-specification:'Rebeland Outline, Normal';font-variant-ligatures:normal;font-variant-caps:normal;font-variant-numeric:normal;font-variant-east-asian:normal;stroke-width:0.264583"
             d="m 26.690326,160.18476 c -0.09525,-0.24341 -0.28575,-0.41275 -0.53975,-0.47625 -0.08467,-0.15875 -0.169333,-0.32808 -0.264583,-0.508 -0.05292,-0.11641 -0.105834,-0.23283 -0.15875,-0.34925 l -0.0635,-0.13758 c -0.148167,-0.30692 -0.28575,-0.635 -0.338667,-0.98425 -0.03175,-0.20108 -0.01058,-0.381 0.05292,-0.53975 0.07408,-0.16933 0.04233,-0.34925 -0.09525,-0.48683 -0.296334,-0.29634 -0.73025,-0.56092 -1.164167,-0.56092 -0.455083,0 -0.762,0.1905 -0.8255,0.64558 -0.28575,-0.32808 -0.635,-0.60325 -1.090083,-0.60325 -0.687917,0 -1.11125,0.4445 -1.185333,1.10067 -0.02117,0.254 0.07408,0.41275 0.306916,0.508 0.03175,0.0106 0.05292,0.0212 0.07408,0.0318 0.455083,0.41275 0.814916,1.31233 0.963083,1.87325 0,0.0212 0,0.0423 0,0.0635 -0.08467,0.0741 -0.169334,0.1905 -0.211667,0.37042 -0.105833,0.4445 -0.0635,0.889 0.137583,1.36525 0.169334,0.4445 0.5715,0.52916 1.005417,0.52916 0.179917,0 0.34925,-0.0212 0.508,-0.0423 0.03175,0 0.0635,0 0.09525,0 0.169333,-0.0212 0.3175,-0.0529 0.4445,-0.10583 0.09525,-0.0317 0.169333,-0.0847 0.232833,-0.14817 0.243417,0.22225 0.53975,0.254 0.85725,0.254 0.53975,0 1.17475,-0.0106 1.354667,-0.635 0.105833,-0.35983 0.08467,-0.73025 -0.0635,-1.11125 z"
             id="path5438" />
          <path
             style="font-style:normal;font-variant:normal;font-weight:normal;font-stretch:normal;font-size:10.5833px;font-family:'Rebeland Outline';-inkscape-font-specification:'Rebeland Outline, Normal';font-variant-ligatures:normal;font-variant-caps:normal;font-variant-numeric:normal;font-variant-east-asian:normal;fill:url(#linearGradient2129);fill-opacity:1;stroke-width:0.264583"
             d="m 26.415159,161.2431 c -0.05292,0.17991 -0.169333,0.28575 -0.338666,0.30691 -0.201084,0.0317 -0.41275,0.0529 -0.613834,0.0529 -0.254,0 -0.5715,-0.0106 -0.709083,-0.26458 -0.116417,-0.21167 -0.179917,-0.4445 -0.201083,-0.68792 -0.02117,-0.1905 0.08467,-0.32808 0.275166,-0.3175 0.02117,0 0.04233,0 0.0635,0 0.02117,0 0.04233,0.0212 0.05292,-0.0106 0.01058,-0.0212 -0.02117,-0.0318 -0.03175,-0.0423 -0.254,-0.20108 -1.016,-0.68791 -1.322917,-0.68791 -0.02117,0 -0.04233,0 -0.0635,0.0106 0.02117,0.0317 0.05292,0.0423 0.07408,0.0635 0.07408,0.0529 0.148166,0.10583 0.22225,0.15875 0.02117,0.0106 0.03175,0.0317 0.04233,0.0529 0.03175,0.0741 0.05292,0.14816 0.07408,0.22225 0.02117,0.0529 -0.01058,0.10583 -0.0635,0.11641 -0.03175,0.0106 -0.0635,0.0212 -0.09525,0.0317 -0.01058,0 -0.02117,0 -0.02117,0.0106 0,0.0212 0.01058,0.0212 0.02117,0.0317 0.08467,0.0423 0.169334,0.0741 0.254,0.10583 0.137584,0.0529 0.211667,0.15875 0.243417,0.30692 0.05292,0.21166 0.08467,0.42333 0.07408,0.64558 -0.01058,0.0952 -0.05292,0.15875 -0.137583,0.1905 -0.232833,0.0847 -0.687917,0.127 -0.92075,0.127 -0.254,0 -0.508,-0.0423 -0.613833,-0.30692 -0.148167,-0.37041 -0.211667,-0.75141 -0.116417,-1.143 0.02117,-0.0741 0.05292,-0.13758 0.116417,-0.16933 0.01058,-0.0106 0.02117,-0.0106 0.03175,-0.0106 0.01058,0 0.02117,0.0106 0.03175,0.0317 0.02117,0.0847 0.04233,0.16933 0.0635,0.24341 0.01058,0.0212 0.02117,0.0635 0.05292,0.0529 0.02117,0 0.01058,-0.0423 0.01058,-0.0635 0,-0.64558 -0.709084,-2.6035 -1.36525,-2.82575 -0.07408,-0.0317 -0.07408,-0.0317 -0.0635,-0.127 0.02117,-0.40217 0.254,-0.66675 0.656166,-0.73025 0.04233,-0.0106 0.08467,-0.0106 0.127,-0.0106 0.243417,0 0.455084,0.10583 0.645584,0.29633 0.254,0.254 0.465666,0.53975 0.66675,0.84667 0.169333,0.28575 0.6985,1.11125 0.973666,1.27 -0.02117,-0.0635 -0.05292,-0.10584 -0.08467,-0.14817 -0.243417,-0.34925 -0.635,-1.06892 -0.719667,-1.50283 -0.04233,-0.20109 -0.05292,-0.40217 0.02117,-0.60325 0.0635,-0.15875 0.28575,-0.1905 0.433916,-0.1905 0.328084,0 0.677334,0.23283 0.899584,0.45508 0.02117,0.0212 0.03175,0.0423 0.02117,0.0741 -0.09525,0.23284 -0.116416,0.47625 -0.08467,0.73025 0.05292,0.39159 0.201083,0.75142 0.370416,1.10067 0.08467,0.16933 0.15875,0.33867 0.243417,0.508 0.09525,0.20108 0.1905,0.39158 0.296333,0.58208 0.05292,0.0847 0.105834,0.11642 0.1905,0.127 0.137584,0.0212 0.243417,0.0952 0.296334,0.24342 0.105833,0.28575 0.137583,0.5715 0.05292,0.86783 z"
             id="path5471" />
          <path
             style="font-style:normal;font-variant:normal;font-weight:normal;font-stretch:normal;font-size:10.5833px;font-family:'Rebeland Outline';-inkscape-font-specification:'Rebeland Outline, Normal';font-variant-ligatures:normal;font-variant-caps:normal;font-variant-numeric:normal;font-variant-east-asian:normal;stroke-width:0.264583"
             d="m 19.581485,165.61502 c -0.105834,-0.508 -0.3175,-1.00541 -0.804334,-1.23825 -0.01058,0 -0.02117,0 -0.03175,0 -0.04233,-0.13758 -0.137583,-0.22225 -0.201083,-0.27516 l -0.03175,-0.0212 c -0.01058,-0.0106 -0.02117,-0.0212 -0.03175,-0.0318 -0.0635,-0.0847 -0.127,-0.16933 -0.179917,-0.254 -0.518583,-0.79375 -0.910166,-1.60867 -1.143,-2.52942 -0.01058,-0.0423 -0.02117,-0.0847 -0.02117,-0.11641 -0.09525,-0.59267 -1.058334,-1.09009 -1.608667,-1.09009 -0.381,0.0317 -0.582083,0.28575 -0.60325,0.65617 -0.275167,-0.27517 -0.560917,-0.51858 -0.973667,-0.51858 -0.0635,0 -0.127,0.0106 -0.201083,0.0212 -0.296333,0.0635 -0.677333,0.26459 -0.804333,0.889 -0.05292,0.23284 0.01058,0.39159 0.201083,0.52917 0.592667,0.41275 1.322917,2.39183 1.439333,3.2385 0.01058,0.0635 0.03175,0.127 0.05292,0.17992 -0.105833,0.0741 -0.22225,0.22225 -0.211667,0.47625 0,0.17991 0.01058,0.42333 0.0635,0.66675 l 0.01058,0.0423 c 0.09525,0.43392 0.179916,0.70908 0.60325,0.92075 0.306916,0.16933 0.66675,0.22225 1.016,0.22225 0.53975,0 0.92075,-0.127 0.92075,-0.73025 0.201083,0.39158 0.508,0.6985 0.973666,0.6985 0.391584,0 0.889,-0.28575 1.195917,-0.508 0.148167,-0.11642 0.338667,-0.33867 0.359833,-0.73025 0.01058,-0.14817 0,-0.30692 -0.03175,-0.46567 z"
             id="path5440" />
          <path
             style="font-style:normal;font-variant:normal;font-weight:normal;font-stretch:normal;font-size:10.5833px;font-family:'Rebeland Outline';-inkscape-font-specification:'Rebeland Outline, Normal';font-variant-ligatures:normal;font-variant-caps:normal;font-variant-numeric:normal;font-variant-east-asian:normal;fill:url(#linearGradient2119);fill-opacity:1;stroke-width:0.264583"
             d="m 19.211068,166.10186 c -0.01058,0.20108 -0.08467,0.34925 -0.211667,0.4445 -0.22225,0.16933 -0.677333,0.43391 -0.973666,0.43391 -0.28575,0 -0.508,-0.16933 -0.624417,-0.42333 -0.137583,-0.27517 -0.201083,-0.5715 -0.1905,-0.87842 0,-0.0635 0.01058,-0.10583 0.04233,-0.13758 0.09525,-0.10583 0.201084,-0.17992 0.328084,-0.20108 0.02117,0 0.04233,-0.0106 0.0635,-0.0212 -0.01058,-0.0423 -0.03175,-0.0423 -0.05292,-0.0423 -0.1905,-0.0212 -0.381,-0.127 -0.465667,-0.29634 -0.232833,-0.56091 -0.402166,-1.15358 -0.550333,-1.74625 -0.01058,-0.0317 -0.02117,-0.0741 -0.04233,-0.10583 -0.02117,0.0106 -0.02117,0.0318 -0.02117,0.0529 -0.01058,0.254 0.02117,0.508 0.0635,0.762 0.04233,0.21166 0.07408,0.42333 0.08467,0.635 0.01058,0.26458 -0.116417,0.33866 -0.254,0.33866 -0.03175,0 -0.05292,0 -0.08467,-0.0106 -0.116417,-0.0212 -0.211667,-0.10583 -0.275167,-0.24342 -0.15875,-0.34925 -0.4445,-0.78316 -0.740833,-1.03716 0.02117,0.0635 0.04233,0.10583 0.0635,0.14816 0.306917,0.48684 0.582083,0.98425 0.677333,1.55575 0.02117,0.127 0.05292,0.16934 0.148167,0.1905 0.402167,0.10584 0.455083,0.6985 0.455083,1.03717 0,0.0953 0,0.1905 -0.01058,0.27517 -0.02117,0.10583 -0.07408,0.16933 -0.15875,0.1905 -0.127,0.0212 -0.264583,0.0317 -0.391583,0.0317 -0.359834,0 -0.931334,-0.0635 -1.121834,-0.43392 -0.127,-0.27517 -0.169333,-0.74083 -0.169333,-1.03717 0,-0.127 0.07408,-0.22225 0.211667,-0.22225 0.03175,0 0.05292,0.0106 0.07408,0.0106 0.08467,0.0106 0.169333,0.0212 0.254,0.0317 0.03175,0 0.0635,-0.0106 0.105833,-0.0106 -0.0635,-0.0635 -0.127,-0.0952 -0.1905,-0.127 -0.09525,-0.0529 -0.179916,-0.10583 -0.243416,-0.22225 -0.02117,-0.0529 -0.04233,-0.10583 -0.05292,-0.15875 -0.116417,-0.84666 -0.836083,-3.01625 -1.5875,-3.51366 -0.0635,-0.0423 -0.0635,-0.0423 -0.04233,-0.127 0.07408,-0.33867 0.232833,-0.53975 0.508,-0.59267 0.04233,-0.0106 0.07408,-0.0106 0.116416,-0.0106 0.550334,0 1.143,0.91016 1.397,1.32291 0.148167,0.24342 0.264584,0.51859 0.402167,0.77259 0.02117,0.0317 0.04233,0.0741 0.07408,0.11641 0,-0.0212 0,-0.0317 0,-0.0423 -0.08467,-0.23283 -0.137583,-0.47625 -0.211666,-0.70908 -0.0635,-0.22225 -0.137584,-0.4445 -0.201084,-0.66675 -0.05292,-0.17992 -0.08467,-0.35984 -0.09525,-0.53975 -0.02117,-0.254 0.0635,-0.39159 0.254,-0.40217 0.455084,0 0.8255,0.28575 1.121834,0.60325 0.04233,0.0423 0.0635,0.0952 0.07408,0.16933 0.232833,1.143 0.772583,2.18017 1.439333,3.12209 0.03175,0.0212 0.0635,0.0423 0.09525,0.0635 0.08467,0.0635 0.105834,0.0741 0.09525,0.13758 0.01058,0.0212 0.02117,0.0423 0.03175,0.0635 0.05292,0.0529 0.116417,0.0847 0.179917,0.11642 0.381,0.21166 0.518583,0.5715 0.592667,0.98425 0.02117,0.127 0.03175,0.24341 0.02117,0.35983 z"
             id="path5477" />
          <path
             style="font-style:normal;font-variant:normal;font-weight:normal;font-stretch:normal;font-size:10.5833px;font-family:'Rebeland Outline';-inkscape-font-specification:'Rebeland Outline, Normal';font-variant-ligatures:normal;font-variant-caps:normal;font-variant-numeric:normal;font-variant-east-asian:normal;stroke-width:0.230947"
             d="m 26.600359,164.87494 c -0.120093,-0.13857 -0.230948,-0.28638 -0.332564,-0.45266 -0.0092,-0.0185 -0.01848,-0.0369 -0.02771,-0.0554 -0.04619,-0.0739 -0.101617,-0.17553 -0.193995,-0.25867 -0.08314,-0.0832 -0.184758,-0.12933 -0.295613,-0.13857 0.05543,-0.0739 0.101617,-0.15704 0.147806,-0.24942 0.03695,-0.0739 0.06466,-0.194 0.01848,-0.3418 -0.04619,-0.13857 -0.110855,-0.24942 -0.166282,-0.33256 -0.258661,-0.42494 -0.387991,-0.90532 -0.508084,-1.38569 -0.0739,-0.2679 -0.230947,-0.33256 -0.498845,-0.33256 -0.332564,0.0278 -0.692841,0.27714 -0.822172,0.58199 -0.08314,-0.0369 -0.267899,-0.0647 -0.35104,-0.0647 -0.618938,0 -1.04388,0.55427 -1.04388,1.14549 0,0.58199 0.351039,1.16397 0.78522,1.53349 0.02771,0.0277 0.05543,0.0554 0.08314,0.0831 -0.0092,0.0185 -0.01848,0.0369 -0.02771,0.0554 v 0.009 c -0.0092,0.009 -0.01848,0.0185 -0.01848,0.0277 -0.07391,0.194 -0.110854,0.40646 -0.110854,0.65589 0.01848,0.73903 0.739031,1.07159 1.394921,1.07159 0.369515,0 0.711316,-0.0924 1.025405,-0.29561 0.0092,0 0.01848,0 0.02771,0 0.101616,0.0277 0.203233,0.0369 0.30485,0.0369 0.351039,0 0.674366,-0.14781 0.803696,-0.49884 0.05543,-0.14782 0.110855,-0.45267 -0.17552,-0.76675 z"
             id="path5446" />
          <path
             style="font-style:normal;font-variant:normal;font-weight:normal;font-stretch:normal;font-size:10.5833px;font-family:'Rebeland Outline';-inkscape-font-specification:'Rebeland Outline, Normal';font-variant-ligatures:normal;font-variant-caps:normal;font-variant-numeric:normal;font-variant-east-asian:normal;fill:url(#linearGradient2113);fill-opacity:1;stroke-width:0.230947"
             d="m 26.480266,165.55854 c -0.07391,0.22171 -0.258661,0.29561 -0.471132,0.29561 -0.157044,0 -0.323326,-0.0462 -0.452656,-0.13857 0.04619,0.0739 -0.01848,0.0924 -0.05543,0.1201 -0.267899,0.18475 -0.535797,0.26789 -0.859123,0.26789 -0.452656,0 -1.053119,-0.21246 -1.053119,-0.74827 0,-0.18475 0.01848,-0.36027 0.08314,-0.53579 0.0092,-0.0185 0.01848,-0.0369 0.02771,-0.0554 0.01848,-0.0647 0.06466,-0.0924 0.129331,-0.0924 0.04619,0 0.101616,0 0.147806,0 0.02771,0 0.04619,0 0.07391,0 0.0092,0 0.01848,0 0.02771,-0.0185 -0.02771,-0.0185 -0.05543,-0.0369 -0.08314,-0.0554 -0.545035,-0.30485 -1.127022,-0.96074 -1.127022,-1.62587 0,-0.39722 0.258661,-0.80369 0.692841,-0.80369 0.314088,0 0.563511,0.22171 0.775983,0.43418 0,-0.0369 -0.0092,-0.0554 -0.01848,-0.0739 -0.04619,-0.0924 -0.08314,-0.18475 -0.09238,-0.28637 -0.01848,-0.17552 0.05543,-0.31409 0.193996,-0.42494 0.120092,-0.0924 0.249423,-0.16628 0.406467,-0.18476 0.01848,0 0.03695,0 0.04619,0 0.05543,0 0.07391,0.0185 0.09238,0.0924 0.03695,0.14781 0.06466,0.29562 0.101616,0.44342 0.101617,0.36952 0.240185,0.72056 0.443418,1.04388 0.05543,0.0832 0.101617,0.16629 0.129331,0.25866 0.0092,0.0369 0.0092,0.0647 -0.0092,0.10162 -0.04619,0.11086 -0.110855,0.20323 -0.203234,0.27714 -0.02771,0.0185 -0.05543,0.0369 -0.08314,0.0369 -0.02771,0 -0.05543,-0.0185 -0.09238,-0.0369 -0.286375,-0.23095 -0.498846,-0.41571 -0.896075,-0.41571 -0.02771,0 -0.05543,0 -0.08314,0 -0.17552,0.0185 -0.258661,0.16629 -0.203234,0.3418 0.07391,0.21248 0.249423,0.30485 0.461895,0.30485 0.05543,0 0.120092,-0.009 0.184758,-0.0185 0.02771,0 0.04619,0 0.06466,0.0185 0.147806,0.17553 0.240185,0.36952 0.277136,0.59123 0.0092,0.0831 -0.03695,0.14781 -0.120092,0.16629 -0.07391,0.0185 -0.147806,0.0369 -0.221709,0.0554 -0.05543,0.0185 -0.110855,0.0369 -0.110855,0.10161 0,0.0647 0.04619,0.10162 0.101617,0.12934 0.04619,0.0277 0.101617,0.0369 0.157044,0.0369 0.02771,0 0.04619,-0.009 0.07391,-0.009 0.08314,-0.009 0.277136,-0.0924 0.314088,-0.17552 0.03695,-0.0554 0.03695,-0.1201 0.02771,-0.18476 0,-0.0369 0,-0.0739 0,-0.11086 0,-0.12008 0.05543,-0.21247 0.147806,-0.28637 0.09238,-0.0647 0.193996,-0.0924 0.30485,-0.10162 0.05543,0 0.09238,0.009 0.129331,0.0462 0.07391,0.0739 0.120092,0.16628 0.175519,0.25866 0.110855,0.17551 0.230948,0.3418 0.369516,0.49884 0.110855,0.12009 0.17552,0.25866 0.110855,0.42494 z"
             id="path5493" />
          <path
             style="font-style:normal;font-variant:normal;font-weight:normal;font-stretch:normal;font-size:10.5833px;font-family:'Rebeland Outline';-inkscape-font-specification:'Rebeland Outline, Normal';font-variant-ligatures:normal;font-variant-caps:normal;font-variant-numeric:normal;font-variant-east-asian:normal;stroke-width:0.264583"
             d="m 18.451926,157.5703 c 0.04233,0.62442 0.370417,0.84667 0.867834,1.09009 0.01058,0.0423 0.02117,0.0952 0.05292,0.14816 0.07408,0.127 0.137584,0.26459 0.1905,0.40217 0.137584,0.33867 0.264584,0.68792 0.391584,1.02658 l 0.08467,0.23284 c -0.03175,0.0212 -0.0635,0.0423 -0.08467,0.0635 -0.243417,0.22225 -0.211667,0.51858 -0.201084,0.61383 0.0635,0.5715 0.41275,1.10067 1.037167,1.10067 0.0635,0 0.127,0 0.1905,-0.0106 0.03175,0 0.0635,-0.0106 0.09525,-0.0212 0.137583,-0.0212 0.275167,-0.0423 0.402167,-0.0423 0.09525,0 0.169333,-0.0212 0.232833,-0.0317 h 0.01058 c 0.1905,-0.0423 0.328083,-0.17991 0.370417,-0.35983 0.03175,0.0106 0.0635,0.0212 0.08467,0.0318 l 0.02117,0.0106 c 0.137583,0.0529 0.275167,0.0847 0.41275,0.11642 l 0.09525,0.0317 c 0.08467,0.0212 0.15875,0.0317 0.22225,0.0317 0.07408,0 0.137583,-0.0106 0.201083,-0.0317 0.232834,-0.0635 0.381,-0.254 0.391584,-0.49742 v -0.15875 h 0.01058 c -0.0635,-0.43391 -0.22225,-1.35466 -0.79375,-1.35466 0.179917,-0.30692 0.264583,-0.64559 0.243417,-1.00542 -0.04233,-0.889 -0.6985,-1.50283 -1.49225,-1.79917 l -0.116417,-0.0423 c -0.3175,-0.11642 -0.645583,-0.23283 -0.9525,-0.37042 l -0.127,-0.0635 c -0.148166,-0.0635 -0.296333,-0.127 -0.455083,-0.17991 -0.137583,-0.0529 -0.232833,-0.0953 -0.306917,-0.14817 -0.05292,-0.0423 -0.127,-0.0952 -0.211666,-0.13758 -0.07408,-0.0318 -0.148167,-0.0529 -0.22225,-0.0529 -0.359834,0 -0.560917,0.381 -0.624417,0.68792 -0.05292,0.254 -0.04233,0.49741 -0.02117,0.71966 z"
             id="path5436" />
          <path
             style="font-style:normal;font-variant:normal;font-weight:normal;font-stretch:normal;font-size:10.5833px;font-family:'Rebeland Outline';-inkscape-font-specification:'Rebeland Outline, Normal';font-variant-ligatures:normal;font-variant-caps:normal;font-variant-numeric:normal;font-variant-east-asian:normal;fill:url(#linearGradient2127);fill-opacity:1;stroke-width:0.264583"
             d="m 18.864676,156.90355 c 0.01058,-0.0952 0.105834,-0.39158 0.232834,-0.39158 0.02117,0 0.04233,0.0106 0.0635,0.0212 0.05292,0.0212 0.105833,0.0529 0.148166,0.0847 0.127,0.0952 0.264584,0.15875 0.41275,0.21167 0.1905,0.0635 0.370417,0.14817 0.550334,0.23283 0.359833,0.15875 0.719666,0.29634 1.0795,0.43392 0.645583,0.254 1.217083,0.74083 1.259416,1.47108 0.02117,0.33867 -0.07408,0.64559 -0.264583,0.92075 -0.0635,0.0953 -0.148167,0.15875 -0.254,0.15875 -0.03175,0 -0.0635,-0.0106 -0.105834,-0.0212 -0.05292,-0.0212 -0.105833,-0.0318 -0.15875,-0.0529 -0.01058,-0.0106 -0.03175,-0.0212 -0.04233,0 -0.01058,0.0106 0,0.0212 0.01058,0.0317 0.211667,0.23283 0.497417,0.33867 0.804334,0.33867 0.05292,0 0.105833,0 0.15875,-0.0106 0.04233,-0.0106 0.0635,0.0106 0.08467,0.0423 0.15875,0.23283 0.264584,0.68791 0.306917,0.97366 v 0.0953 c 0,0.0741 -0.04233,0.127 -0.116417,0.14817 v 0.0106 c -0.03175,0.0106 -0.05292,0.0106 -0.08467,0.0106 -0.04233,0 -0.09525,-0.0106 -0.137584,-0.0212 -0.15875,-0.0423 -0.3175,-0.0741 -0.47625,-0.127 -0.0635,-0.0212 -0.127,-0.0423 -0.179916,-0.0847 -0.03175,-0.0318 -0.07408,-0.0212 -0.105834,-0.0423 -0.232833,-0.11642 -0.507999,-0.26458 -0.687916,-0.4445 0.03175,0.0847 0.08467,0.15875 0.137583,0.22225 0.05292,0.0635 0.105834,0.11642 0.15875,0.16933 0.02117,0.0212 0.03175,0.0423 0.04233,0.0635 0.02117,0.0847 0.04233,0.16934 0.05292,0.26459 0.01058,0.0847 -0.02117,0.13758 -0.09525,0.15875 -0.05292,0.0106 -0.105833,0.0212 -0.15875,0.0212 -0.1905,0 -0.370416,0.0423 -0.560916,0.0741 -0.03175,0 -0.0635,0.0106 -0.105834,0.0106 -0.41275,0 -0.645583,-0.39158 -0.66675,-0.77258 -0.01058,-0.11642 0,-0.22225 0.09525,-0.30692 0.02117,-0.0212 0.05292,-0.0423 0.08467,-0.0423 0.05292,-0.0106 0.09525,-0.0423 0.137583,-0.0635 0.04233,-0.0212 0.04233,-0.0529 0.03175,-0.0952 -0.02117,-0.0952 -0.05292,-0.1905 -0.08467,-0.28575 -0.15875,-0.41275 -0.3175,-0.8255 -0.486834,-1.23825 -0.0635,-0.14817 -0.137583,-0.29634 -0.211666,-0.4445 -0.02117,-0.0423 -0.01058,-0.0529 0.03175,-0.0529 0.116416,0 0.22225,0.0212 0.338666,0.0423 -0.01058,-0.0318 -0.03175,-0.0423 -0.05292,-0.0529 -0.116417,-0.0635 -0.243417,-0.10584 -0.370417,-0.15875 -0.148167,-0.0635 -0.296333,-0.11642 -0.433917,-0.20109 -0.243416,-0.14816 -0.381,-0.37041 -0.402166,-0.66675 -0.01058,-0.21166 -0.02117,-0.42333 0.02117,-0.635 z"
             id="path5465" />
          <path
             style="font-style:normal;font-variant:normal;font-weight:normal;font-stretch:normal;font-size:10.5833px;font-family:'Rebeland Outline';-inkscape-font-specification:'Rebeland Outline, Normal';font-variant-ligatures:normal;font-variant-caps:normal;font-variant-numeric:normal;font-variant-east-asian:normal;fill:#000000;fill-opacity:1;stroke-width:0.264583"
             d="m 20.790843,158.76622 c -0.01058,0 -0.02117,-0.0106 -0.03175,-0.0212 v 0.0212 c 0.01058,0 0.02117,0 0.03175,0 0.0635,0.0635 0.127,0.11642 0.179917,0.17992 0.03175,0.0317 0.05292,0.0741 0.0635,0.127 l 0.127,0.508 c 0.01058,0.0212 0.02117,0.0423 0.05292,0.0423 0.05292,0 0.09525,-0.0212 0.127,-0.0741 0.02117,-0.0318 0.03175,-0.0635 0.05292,-0.0953 0.08467,-0.14817 0.0635,-0.32809 -0.05292,-0.4445 -0.148166,-0.14817 -0.338666,-0.21167 -0.550333,-0.24342 z"
             id="path5467" />
          <path
             style="font-style:normal;font-variant:normal;font-weight:normal;font-stretch:normal;font-size:10.5833px;font-family:'Rebeland Outline';-inkscape-font-specification:'Rebeland Outline, Normal';font-variant-ligatures:normal;font-variant-caps:normal;font-variant-numeric:normal;font-variant-east-asian:normal;stroke-width:0.230947"
             d="m 21.304287,164.57702 c -0.06466,-0.79446 -0.387991,-1.51501 -1.025405,-2.01386 -0.230946,-0.17552 -0.471132,-0.33256 -0.702078,-0.4896 -0.08314,-0.0554 -0.166282,-0.11086 -0.249423,-0.16628 -0.138569,-0.0831 -0.249423,-0.194 -0.360278,-0.30485 -0.02771,-0.0278 -0.05543,-0.0554 -0.08314,-0.0832 -0.110854,-0.11085 -0.221709,-0.15704 -0.378753,-0.15704 -0.517321,0 -0.951502,0.57275 -1.080833,1.01617 -0.05543,0.19399 -0.110854,0.48036 0.03695,0.77598 0.09238,0.17551 0.221709,0.33256 0.387991,0.46189 0.02771,0.0185 0.05543,0.0369 0.08314,0.0554 -0.0092,0.0369 -0.0092,0.0831 0,0.13857 0.09238,0.93303 0.969978,2.56814 2.050809,2.56814 0.406467,0 0.748269,-0.18476 0.979217,-0.51733 0.25866,-0.37875 0.369515,-0.81293 0.332563,-1.30254 z"
             id="path5442" />
          <path
             style="font-style:normal;font-variant:normal;font-weight:normal;font-stretch:normal;font-size:10.5833px;font-family:'Rebeland Outline';-inkscape-font-specification:'Rebeland Outline, Normal';font-variant-ligatures:normal;font-variant-caps:normal;font-variant-numeric:normal;font-variant-east-asian:normal;fill:url(#linearGradient2117);fill-opacity:1;stroke-width:0.230947"
             d="m 20.68535,165.66709 c -0.175521,0.25867 -0.415705,0.36952 -0.729794,0.36952 -0.831408,-0.0369 -1.441109,-1.29331 -1.625867,-2.01386 -0.02771,-0.0832 -0.04619,-0.17552 -0.05543,-0.2679 0,-0.0277 0.0092,-0.0369 0.03695,-0.0277 0.101617,0.0369 0.203234,0.0739 0.295612,0.12933 0.06466,0.0369 0.138568,0.0647 0.212472,0.0924 0.05543,0.0185 0.110854,0.0554 0.166282,0.0831 -0.04619,-0.0554 -0.101617,-0.0924 -0.157045,-0.12932 -0.138568,-0.0924 -0.25866,-0.20324 -0.387991,-0.30485 -0.120092,-0.10162 -0.249423,-0.18476 -0.369515,-0.27714 -0.120093,-0.10162 -0.221709,-0.22171 -0.295612,-0.36027 -0.08314,-0.17553 -0.06466,-0.35105 -0.01848,-0.52656 0.08314,-0.29562 0.267899,-0.51733 0.508084,-0.70209 0.08314,-0.0554 0.17552,-0.0739 0.277137,-0.0739 0.04619,0 0.08314,0.0278 0.120092,0.0647 0.110854,0.10162 0.212471,0.21247 0.332564,0.30485 0.04619,0.0369 0.09238,0.0739 0.147805,0.11085 0.314088,0.21248 0.637414,0.41571 0.933027,0.64665 0.563511,0.41571 0.849885,1.09008 0.896074,1.77368 0.02771,0.39723 -0.05543,0.76674 -0.277136,1.09007 z"
             id="path5481" />
          <path
             style="font-style:normal;font-variant:normal;font-weight:normal;font-stretch:normal;font-size:10.5833px;font-family:'Rebeland Outline';-inkscape-font-specification:'Rebeland Outline, Normal';font-variant-ligatures:normal;font-variant-caps:normal;font-variant-numeric:normal;font-variant-east-asian:normal;fill:#000000;fill-opacity:1;stroke-width:0.230947"
             d="m 19.974032,164.53083 c -0.08314,-0.10161 -0.332564,-0.30485 -0.471132,-0.33256 0.03695,0.0462 0.06466,0.0924 0.09238,0.13856 0.03695,0.0739 0.06466,0.14782 0.05543,0.24019 -0.0092,0.12009 0.01848,0.23095 0.07391,0.3418 0.02771,0.0554 0.07391,0.0831 0.138568,0.0924 0.120092,0.009 0.240186,-0.0924 0.221709,-0.20324 -0.0092,-0.10161 -0.04619,-0.194 -0.120092,-0.27714 z"
             id="path5483" />
          <path
             style="font-style:normal;font-variant:normal;font-weight:normal;font-stretch:normal;font-size:10.5833px;font-family:'Rebeland Outline';-inkscape-font-specification:'Rebeland Outline, Normal';font-variant-ligatures:normal;font-variant-caps:normal;font-variant-numeric:normal;font-variant-east-asian:normal;stroke-width:0.230947"
             d="m 19.634959,162.72956 c 0.03695,0.54503 0.323326,0.73903 0.757507,0.9515 0.0092,0.0369 0.01848,0.0831 0.04619,0.12933 0.06466,0.11085 0.120092,0.23095 0.166282,0.35104 0.120092,0.29562 0.230947,0.60047 0.341801,0.89607 l 0.07391,0.20324 c -0.02771,0.0185 -0.05543,0.0369 -0.07391,0.0554 -0.212471,0.194 -0.184758,0.45265 -0.175519,0.53579 0.05543,0.49885 0.360277,0.96075 0.905312,0.96075 0.05543,0 0.110854,0 0.166282,-0.009 0.02771,0 0.05543,-0.009 0.08314,-0.0185 0.120092,-0.0185 0.240185,-0.0369 0.351039,-0.0369 0.08314,0 0.147806,-0.0185 0.203234,-0.0277 h 0.0092 c 0.166281,-0.0369 0.286375,-0.15704 0.323326,-0.31409 0.02771,0.009 0.05543,0.0185 0.07391,0.0278 l 0.01848,0.009 c 0.120093,0.0462 0.240186,0.0739 0.360278,0.10162 l 0.08314,0.0277 c 0.07391,0.0185 0.138568,0.0277 0.193995,0.0277 0.06466,0 0.120093,-0.009 0.175521,-0.0277 0.203233,-0.0554 0.332564,-0.22171 0.341801,-0.43418 v -0.13857 h 0.0092 c -0.05543,-0.37875 -0.193995,-1.18244 -0.692841,-1.18244 0.157044,-0.26791 0.230948,-0.56352 0.212471,-0.87761 -0.03695,-0.77598 -0.6097,-1.31177 -1.302541,-1.57044 l -0.101617,-0.0369 c -0.277137,-0.10162 -0.563511,-0.20323 -0.83141,-0.32333 l -0.110853,-0.0554 c -0.129331,-0.0554 -0.258662,-0.11085 -0.39723,-0.15704 -0.120092,-0.0462 -0.203233,-0.0832 -0.267898,-0.12933 -0.04619,-0.0369 -0.110855,-0.0831 -0.184758,-0.12009 -0.06466,-0.0278 -0.129331,-0.0462 -0.193995,-0.0462 -0.314088,0 -0.489609,0.33256 -0.545036,0.60046 -0.04619,0.22171 -0.03695,0.43418 -0.01848,0.62817 z"
             id="path5444" />
          <path
             style="font-style:normal;font-variant:normal;font-weight:normal;font-stretch:normal;font-size:10.5833px;font-family:'Rebeland Outline';-inkscape-font-specification:'Rebeland Outline, Normal';font-variant-ligatures:normal;font-variant-caps:normal;font-variant-numeric:normal;font-variant-east-asian:normal;fill:url(#linearGradient2115);fill-opacity:1;stroke-width:0.230947"
             d="m 19.995237,162.14757 c 0.0092,-0.0831 0.09238,-0.3418 0.203233,-0.3418 0.01848,0 0.03695,0.009 0.05543,0.0185 0.04619,0.0185 0.09238,0.0462 0.129331,0.0739 0.110855,0.0831 0.230947,0.13857 0.360277,0.18476 0.166282,0.0554 0.323326,0.12933 0.48037,0.20323 0.314088,0.13857 0.628176,0.25867 0.942264,0.37876 0.563511,0.2217 1.062357,0.64664 1.099308,1.28406 0.01848,0.29561 -0.06466,0.56351 -0.230947,0.80369 -0.05543,0.0832 -0.129331,0.13857 -0.221709,0.13857 -0.02771,0 -0.05543,-0.009 -0.09238,-0.0185 -0.04619,-0.0185 -0.09238,-0.0278 -0.138568,-0.0462 -0.0092,-0.009 -0.02771,-0.0185 -0.03695,0 -0.0092,0.009 0,0.0185 0.0092,0.0277 0.184757,0.20323 0.43418,0.29562 0.702079,0.29562 0.04619,0 0.09238,0 0.138568,-0.009 0.03695,-0.009 0.05543,0.009 0.07391,0.0369 0.138569,0.20323 0.230947,0.60045 0.267898,0.84988 v 0.0832 c 0,0.0647 -0.03695,0.11086 -0.101616,0.12934 v 0.009 c -0.02771,0.009 -0.04619,0.009 -0.07391,0.009 -0.03695,0 -0.08314,-0.009 -0.120092,-0.0185 -0.138568,-0.0369 -0.277136,-0.0647 -0.415705,-0.11086 -0.05543,-0.0185 -0.110854,-0.0369 -0.157044,-0.0739 -0.02771,-0.0278 -0.06466,-0.0185 -0.09238,-0.0369 -0.203235,-0.10162 -0.443419,-0.23095 -0.600463,-0.388 0.02771,0.0739 0.07391,0.13857 0.120092,0.194 0.04619,0.0554 0.09238,0.10162 0.138568,0.1478 0.01848,0.0185 0.02771,0.0369 0.03695,0.0554 0.01848,0.0739 0.03695,0.14781 0.04619,0.23095 0.0092,0.0739 -0.01848,0.12009 -0.08314,0.13857 -0.04619,0.009 -0.09238,0.0185 -0.138568,0.0185 -0.166282,0 -0.323325,0.0369 -0.489607,0.0647 -0.02771,0 -0.05543,0.009 -0.09238,0.009 -0.360277,0 -0.56351,-0.3418 -0.581985,-0.67436 -0.0092,-0.10162 0,-0.194 0.08314,-0.26791 0.01848,-0.0185 0.04619,-0.0369 0.0739,-0.0369 0.04619,-0.009 0.08314,-0.0369 0.120093,-0.0554 0.03695,-0.0185 0.03695,-0.0462 0.02771,-0.0831 -0.01848,-0.0831 -0.04619,-0.16628 -0.07391,-0.24942 -0.138568,-0.36028 -0.277136,-0.72056 -0.424942,-1.08084 -0.05543,-0.12933 -0.120093,-0.25866 -0.184758,-0.38799 -0.01848,-0.0369 -0.0092,-0.0462 0.02771,-0.0462 0.101617,0 0.193995,0.0185 0.295612,0.0369 -0.0092,-0.0278 -0.02771,-0.0369 -0.04619,-0.0462 -0.101617,-0.0554 -0.212472,-0.0924 -0.323326,-0.13856 -0.12933,-0.0554 -0.258661,-0.10162 -0.378753,-0.17553 -0.212472,-0.12932 -0.332564,-0.32332 -0.35104,-0.58199 -0.0092,-0.18475 -0.01848,-0.36951 0.01848,-0.55427 z"
             id="path5487" />
          <path
             style="font-style:normal;font-variant:normal;font-weight:normal;font-stretch:normal;font-size:10.5833px;font-family:'Rebeland Outline';-inkscape-font-specification:'Rebeland Outline, Normal';font-variant-ligatures:normal;font-variant-caps:normal;font-variant-numeric:normal;font-variant-east-asian:normal;fill:#000000;fill-opacity:1;stroke-width:0.230947"
             d="m 21.676531,163.77344 c -0.0092,0 -0.01848,-0.009 -0.02771,-0.0185 v 0.0185 c 0.0092,0 0.01848,0 0.02771,0 0.05543,0.0554 0.110855,0.10162 0.157044,0.15705 0.02771,0.0277 0.04619,0.0647 0.05543,0.11085 l 0.110854,0.44342 c 0.0092,0.0185 0.01848,0.0369 0.04619,0.0369 0.04619,0 0.08314,-0.0185 0.110854,-0.0647 0.01848,-0.0277 0.02771,-0.0554 0.04619,-0.0832 0.07391,-0.12933 0.05543,-0.28638 -0.04619,-0.38799 -0.12933,-0.12934 -0.295611,-0.18476 -0.480369,-0.21248 z"
             id="path5489" />
          <path
             style="font-style:normal;font-variant:normal;font-weight:normal;font-stretch:normal;font-size:10.5833px;font-family:'Rebeland Outline';-inkscape-font-specification:'Rebeland Outline, Normal';font-variant-ligatures:normal;font-variant-caps:normal;font-variant-numeric:normal;font-variant-east-asian:normal;stroke-width:0.264583"
             d="m 20.431007,160.20554 c -0.0635,-0.0212 -0.116417,-0.0423 -0.169334,-0.0529 -0.08467,-0.0212 -0.15875,-0.0423 -0.232833,-0.0635 0,-0.0106 -0.01058,-0.0212 -0.02117,-0.0317 -0.04233,-0.0847 -0.07408,-0.17992 -0.09525,-0.27517 -0.05292,-0.27517 -0.07408,-0.56092 -0.09525,-0.86783 -0.01058,-0.0952 -0.02117,-0.1905 -0.03175,-0.28575 0,-0.0212 0,-0.0529 0,-0.0847 0,-1.0795 -0.941916,-1.41817 -1.80975,-1.68275 -0.3175,-0.0953 -0.613833,-0.1905 -0.888999,-0.32808 -0.07408,-0.0318 -0.148167,-0.0529 -0.22225,-0.0529 -0.381,0 -0.592667,0.56092 -0.687917,0.85725 -0.07408,0.23283 -0.08467,0.45508 -0.08467,0.65617 0,0.26458 0.116417,0.48683 0.3175,0.635 -0.01058,0.0635 -0.01058,0.127 -0.01058,0.20108 0.01058,0.127 0.04233,0.24342 0.105833,0.37042 0.02117,0.0529 0.05292,0.10583 0.08467,0.15875 0.22225,0.40216 0.41275,0.8255 0.455083,1.28058 v 0.0529 c 0.01058,0.0847 0.01058,0.15875 0,0.21166 -0.01058,0.0741 -0.03175,0.14817 -0.0635,0.22225 -0.105833,0.20109 -0.07408,0.40217 0.08467,0.5715 0.275166,0.27517 0.8255,0.47625 1.227666,0.47625 0.169334,0 0.338667,-0.0317 0.518584,-0.0952 0.127,-0.0529 0.232833,-0.127 0.306916,-0.22225 0.05292,0.0317 0.105834,0.0635 0.169334,0.0847 0.148166,0.0635 0.296333,0.0952 0.4445,0.0952 0.508,0 0.92075,-0.4445 1.068916,-0.89958 0.116417,-0.33867 -0.0635,-0.73025 -0.391583,-0.85725 z"
             id="path5434" />
          <path
             style="font-style:normal;font-variant:normal;font-weight:normal;font-stretch:normal;font-size:10.5833px;font-family:'Rebeland Outline';-inkscape-font-specification:'Rebeland Outline, Normal';font-variant-ligatures:normal;font-variant-caps:normal;font-variant-numeric:normal;font-variant-east-asian:normal;fill:url(#linearGradient2125);fill-opacity:1;stroke-width:0.264583"
             d="m 20.452177,161.02046 c -0.105833,0.30692 -0.381,0.64558 -0.740833,0.64558 -0.5715,0 -0.899583,-0.61383 -1.068917,-1.09008 -0.02117,-0.0529 -0.03175,-0.10583 -0.03175,-0.15875 0,-0.10583 0.04233,-0.1905 0.127,-0.254 0.02117,-0.0212 0.04233,-0.0423 0.0635,-0.0635 0,-0.0106 0,-0.0212 0,-0.0317 0,-0.0106 -0.01058,0 -0.02117,0 -0.01058,0 -0.02117,0 -0.03175,0 -0.105834,0.0317 -0.201084,0.0529 -0.306917,0.0529 -0.116417,0 -0.243417,-0.0212 -0.359833,-0.0529 -0.02117,0 -0.04233,-0.0106 -0.0635,0 0.02117,0.0423 0.0635,0.0635 0.09525,0.0847 0.232833,0.15875 0.3175,0.34925 0.391583,0.60325 0.07408,0.20108 0.169333,0.39158 0.28575,0.5715 0.105833,0.16933 0.0635,0.32808 -0.127,0.40216 -0.127,0.0529 -0.264583,0.0847 -0.402167,0.0847 -0.05292,0 -0.116416,-0.0106 -0.179916,-0.0212 -0.22225,-0.0529 -0.4445,-0.11641 -0.635,-0.24341 -0.04233,-0.0317 -0.08467,-0.0635 -0.116417,-0.0952 -0.05292,-0.0529 -0.05292,-0.0741 -0.02117,-0.13759 0.05292,-0.10583 0.09525,-0.21166 0.116417,-0.32808 0.02117,-0.10583 0.01058,-0.21167 0,-0.3175 -0.02117,-0.30692 -0.105833,-0.60325 -0.22225,-0.889 -0.09525,-0.23283 -0.22225,-0.45508 -0.338666,-0.67733 -0.04233,-0.0741 -0.07408,-0.14817 -0.08467,-0.23284 -0.01058,-0.0847 0,-0.15875 0.01058,-0.24341 0.01058,-0.0317 0.03175,-0.0317 0.0635,-0.0317 0.105834,0.0106 0.211667,0.0212 0.328084,0.0529 -0.03175,-0.0423 -0.0635,-0.0529 -0.09525,-0.0635 -0.116417,-0.0529 -0.232834,-0.10583 -0.34925,-0.15875 -0.169334,-0.0741 -0.254,-0.21166 -0.254,-0.39158 0,-0.40217 0.09525,-0.762 0.338666,-1.09008 0.02117,-0.0317 0.04233,-0.0423 0.0635,-0.0423 0.01058,0 0.03175,0 0.04233,0.0106 0.402166,0.20108 0.836083,0.30691 1.259416,0.4445 0.550333,0.1905 1.026583,0.381 1.2065,0.99483 0.03175,0.11642 0.02117,0.23283 0.03175,0.34925 0.03175,0.40217 0.04233,0.81492 0.127,1.21708 0.02117,0.127 0.0635,0.24342 0.116417,0.35984 0,0.0106 0.01058,0.0212 0,0.0317 -0.01058,0.0106 -0.02117,0 -0.03175,0 -0.04233,-0.0106 -0.08467,-0.0212 -0.137584,-0.0317 0.09525,0.127 0.518584,0.24341 0.66675,0.28575 0.04233,0.0106 0.08467,0.0212 0.127,0.0423 0.127,0.0529 0.22225,0.23283 0.169334,0.39158 z"
             id="path5459" />
          <path
             style="font-style:normal;font-variant:normal;font-weight:normal;font-stretch:normal;font-size:10.5833px;font-family:'Rebeland Outline';-inkscape-font-specification:'Rebeland Outline, Normal';font-variant-ligatures:normal;font-variant-caps:normal;font-variant-numeric:normal;font-variant-east-asian:normal;fill:#000000;fill-opacity:1;stroke-width:0.264583"
             d="m 18.367261,159.45413 c -0.05292,-0.0741 -0.08467,-0.14817 -0.05292,-0.24342 0,0 0.01058,-0.10583 0.01058,-0.13758 0,-0.0317 0,-0.0635 -0.01058,-0.0952 -0.01058,-0.0635 -0.0635,-0.11642 -0.127,-0.127 -0.04233,-0.0106 -0.105833,0.0317 -0.127,0.0847 -0.04233,0.127 -0.04233,0.254 0.03175,0.37042 0.0635,0.0952 0.15875,0.15875 0.264583,0.21167 0.01058,0.0106 0.03175,0.0212 0.04233,0 0.01058,-0.0106 0,-0.0212 -0.01058,-0.0318 -0.01058,-0.0106 -0.02117,-0.0212 -0.03175,-0.0317 z"
             id="path5461" />
          <path
             style="font-style:normal;font-variant:normal;font-weight:normal;font-stretch:normal;font-size:10.5833px;font-family:'Rebeland Outline';-inkscape-font-specification:'Rebeland Outline, Normal';font-variant-ligatures:normal;font-variant-caps:normal;font-variant-numeric:normal;font-variant-east-asian:normal;stroke-width:0.217732"
             d="m 17.744786,158.13383 c -0.113221,-0.13064 -0.217733,-0.26999 -0.313535,-0.42676 -0.0087,-0.0174 -0.01742,-0.0348 -0.02613,-0.0522 -0.04355,-0.0697 -0.0958,-0.16549 -0.182896,-0.24387 -0.07838,-0.0784 -0.174186,-0.12192 -0.278698,-0.13064 0.05226,-0.0697 0.0958,-0.14805 0.139349,-0.23515 0.03483,-0.0697 0.06096,-0.1829 0.01742,-0.32224 -0.04355,-0.13064 -0.104512,-0.23515 -0.156768,-0.31354 -0.24386,-0.40062 -0.365791,-0.85351 -0.479012,-1.30639 -0.06968,-0.25258 -0.217732,-0.31354 -0.470302,-0.31354 -0.313536,0.0262 -0.653199,0.26128 -0.775129,0.54869 -0.07838,-0.0348 -0.25257,-0.061 -0.330954,-0.061 -0.583523,0 -0.984152,0.52256 -0.984152,1.07995 0,0.54869 0.330954,1.09737 0.740292,1.44574 0.02613,0.0261 0.05226,0.0523 0.07838,0.0784 -0.0087,0.0174 -0.01742,0.0348 -0.02613,0.0523 v 0.009 c -0.0087,0.009 -0.01742,0.0175 -0.01742,0.0261 -0.06968,0.1829 -0.104511,0.38321 -0.104511,0.61836 0.01742,0.69674 0.696745,1.01028 1.315105,1.01028 0.348373,0 0.670618,-0.0871 0.966734,-0.2787 0.0087,0 0.01742,0 0.02613,0 0.0958,0.0261 0.191604,0.0348 0.287407,0.0348 0.330954,0 0.635779,-0.13936 0.75771,-0.4703 0.05226,-0.13936 0.104512,-0.42677 -0.165477,-0.72288 z"
             id="path5432" />
          <path
             style="font-style:normal;font-variant:normal;font-weight:normal;font-stretch:normal;font-size:10.5833px;font-family:'Rebeland Outline';-inkscape-font-specification:'Rebeland Outline, Normal';font-variant-ligatures:normal;font-variant-caps:normal;font-variant-numeric:normal;font-variant-east-asian:normal;fill:url(#linearGradient2123);fill-opacity:1;stroke-width:0.217732"
             d="m 17.631565,158.77832 c -0.06968,0.20902 -0.243861,0.27869 -0.444175,0.27869 -0.148058,0 -0.304826,-0.0435 -0.426757,-0.13064 0.04355,0.0697 -0.01742,0.0871 -0.05226,0.11323 -0.252569,0.17418 -0.505139,0.25256 -0.809965,0.25256 -0.426756,0 -0.992861,-0.20031 -0.992861,-0.70545 0,-0.17418 0.01742,-0.33967 0.07838,-0.50514 0.0087,-0.0174 0.01742,-0.0348 0.02613,-0.0523 0.01742,-0.061 0.06096,-0.0871 0.12193,-0.0871 0.04355,0 0.0958,0 0.139349,0 0.02613,0 0.04355,0 0.06968,0 0.0087,0 0.01742,0 0.02613,-0.0174 -0.02613,-0.0174 -0.05226,-0.0348 -0.07838,-0.0523 -0.513848,-0.2874 -1.062535,-0.90577 -1.062535,-1.53284 0,-0.3745 0.24386,-0.75771 0.653198,-0.75771 0.296117,0 0.531268,0.20902 0.731582,0.40934 0,-0.0348 -0.0087,-0.0523 -0.01742,-0.0697 -0.04355,-0.0871 -0.07838,-0.17418 -0.08709,-0.26999 -0.01742,-0.16547 0.05226,-0.29611 0.182895,-0.40062 0.113222,-0.0871 0.235152,-0.15677 0.38321,-0.17419 0.01742,0 0.03484,0 0.04355,0 0.05226,0 0.06968,0.0174 0.08709,0.0871 0.03483,0.13935 0.06096,0.2787 0.0958,0.41805 0.0958,0.34837 0.226441,0.67932 0.418047,0.98415 0.05226,0.0784 0.0958,0.15677 0.12193,0.24386 0.0087,0.0348 0.0087,0.061 -0.0087,0.0958 -0.04355,0.10452 -0.104512,0.19161 -0.191605,0.26128 -0.02613,0.0174 -0.05226,0.0348 -0.07838,0.0348 -0.02613,0 -0.05226,-0.0174 -0.08709,-0.0348 -0.269988,-0.21773 -0.470303,-0.39192 -0.844803,-0.39192 -0.02613,0 -0.05226,0 -0.07838,0 -0.165476,0.0174 -0.24386,0.15677 -0.191604,0.32225 0.06968,0.20031 0.235151,0.2874 0.435465,0.2874 0.05226,0 0.113221,-0.009 0.174186,-0.0174 0.02613,0 0.04355,0 0.06096,0.0174 0.139349,0.16549 0.226442,0.34838 0.261279,0.5574 0.0087,0.0784 -0.03483,0.13935 -0.113221,0.15677 -0.06968,0.0174 -0.139348,0.0348 -0.209023,0.0523 -0.05226,0.0174 -0.104512,0.0348 -0.104512,0.0958 0,0.061 0.04355,0.0958 0.0958,0.12193 0.04355,0.0262 0.0958,0.0348 0.148058,0.0348 0.02613,0 0.04355,-0.009 0.06968,-0.009 0.07838,-0.009 0.261279,-0.0871 0.296116,-0.16548 0.03484,-0.0522 0.03484,-0.11323 0.02613,-0.17419 0,-0.0348 0,-0.0697 0,-0.10451 0,-0.11322 0.05226,-0.20032 0.139349,-0.26999 0.08709,-0.061 0.182896,-0.0871 0.287408,-0.0958 0.05226,0 0.08709,0.009 0.12193,0.0435 0.06968,0.0697 0.113221,0.15677 0.165477,0.24386 0.104512,0.16547 0.217732,0.32224 0.348372,0.4703 0.104512,0.11322 0.165477,0.24386 0.104512,0.40063 z"
             id="path5455" />
          <path
             style="font-style:normal;font-variant:normal;font-weight:normal;font-stretch:normal;font-size:10.5833px;font-family:'Rebeland Outline';-inkscape-font-specification:'Rebeland Outline, Normal';font-variant-ligatures:normal;font-variant-caps:normal;font-variant-numeric:normal;font-variant-east-asian:normal;stroke-width:0.264583"
             d="m 16.316688,160.67057 c -0.02117,-0.20108 -0.08467,-0.37041 -0.137583,-0.51858 l -0.02117,-0.0529 c -0.08467,-0.22225 -0.169333,-0.4445 -0.28575,-0.64558 -0.137583,-0.24342 -0.338667,-0.32808 -0.60325,-0.32808 -0.137583,0 -0.264583,0.0212 -0.381,0.0423 -0.02117,0 -0.04233,0 -0.0635,0 -0.01058,-0.0318 -0.02117,-0.0529 -0.03175,-0.0741 -0.179917,-0.48684 -0.370417,-0.97367 -0.5715,-1.44992 -0.02117,-0.0423 -0.04233,-0.0847 -0.0635,-0.127 0.07408,-0.0317 0.137583,-0.0741 0.201083,-0.127 0.15875,-0.13758 0.211667,-0.33867 0.148167,-0.55033 0,-0.0106 0,-0.0212 0,-0.0317 -0.01058,-0.0212 -0.02117,-0.0529 -0.03175,-0.0847 -0.09525,-0.32808 -0.22225,-0.635 -0.370417,-0.92075 l -0.01058,-0.0212 c -0.22225,-0.42333 -0.402167,-0.62441 -0.8255,-0.83608 -0.381,-0.17992 -0.709083,-0.24342 -1.132417,-0.24342 h -0.04233 c -0.338667,0 -0.656167,0.0529 -0.931333,0.27517 -0.1905,0.15875 -0.264583,0.40217 -0.211667,0.66675 0.0635,0.381 0.5715,1.43933 1.005417,1.5875 0.0635,0.0212 0.137583,0.0423 0.22225,0.0635 0,0.0106 0,0.0212 0,0.0318 0.359833,0.8255 0.687916,1.68275 0.931333,2.55058 -0.08467,0.0847 -0.169333,0.20109 -0.211667,0.35984 -0.137583,0.48683 -0.07408,0.96308 0.179917,1.40758 0.127,0.22225 0.328083,0.34925 0.560917,0.37042 0.137583,0 0.254,-0.0212 0.381,-0.0847 0.306916,-0.127 0.529166,-0.15875 0.85725,-0.15875 0.254,0 0.497416,0.0212 0.709083,0.1905 0.105833,0.0953 0.211667,0.11642 0.296333,0.11642 0.04233,0 0.08467,-0.0106 0.116417,-0.0212 0.08467,-0.0212 0.232833,-0.0953 0.296333,-0.30692 0.105834,-0.37041 0.07408,-0.74083 0.04233,-1.02658 z"
             id="path5430" />
          <path
             style="font-style:normal;font-variant:normal;font-weight:normal;font-stretch:normal;font-size:10.5833px;font-family:'Rebeland Outline';-inkscape-font-specification:'Rebeland Outline, Normal';font-variant-ligatures:normal;font-variant-caps:normal;font-variant-numeric:normal;font-variant-east-asian:normal;fill:url(#linearGradient2121);fill-opacity:1;stroke-width:0.264583"
             d="m 15.925105,161.64424 c -0.01058,0.0318 -0.02117,0.0423 -0.03175,0.0423 -0.01058,0 -0.02117,0 -0.04233,-0.0212 -0.296333,-0.24342 -0.582083,-0.28575 -0.941916,-0.28575 -0.34925,0 -0.709084,0.0423 -1.026584,0.1905 -0.08467,0.0318 -0.116416,0.0423 -0.201083,0.0423 -0.105833,-0.0106 -0.1905,-0.0635 -0.254,-0.17992 -0.201083,-0.37041 -0.243417,-0.75141 -0.137583,-1.12183 0.03175,-0.127 0.116416,-0.20108 0.201083,-0.26458 0.0635,-0.0529 0.0635,-0.0529 0.03175,-0.15875 -0.22225,-0.85725 -0.550333,-1.69334 -0.889,-2.50825 -0.05292,-0.127 -0.116417,-0.254 -0.169333,-0.381 -0.02117,-0.0529 -0.04233,-0.0741 -0.08467,-0.0847 -0.105833,-0.0212 -0.211667,-0.0423 -0.3175,-0.0741 -0.243417,-0.0741 -0.687917,-0.97367 -0.772583,-1.30175 -0.02117,-0.127 0.01058,-0.22225 0.08467,-0.28575 0.211667,-0.17992 0.486834,-0.17992 0.751417,-0.17992 0.47625,0 0.9525,0.127 1.312333,0.45508 0.306917,0.254 0.592667,1.03717 0.687917,1.42875 0.02117,0.0741 0,0.127 -0.04233,0.15875 -0.05292,0.0423 -0.105834,0.0635 -0.169334,0.0635 -0.179916,0 -0.3175,-0.0212 -0.47625,-0.10583 -0.09525,-0.0529 -0.1905,-0.0635 -0.28575,-0.0952 -0.01058,0 -0.03175,-0.0106 -0.03175,0.0106 0,0.0212 0.02117,0.0212 0.03175,0.0317 0.03175,0.0212 0.0635,0.0423 0.09525,0.0635 0.08467,0.0741 0.169334,0.14817 0.254,0.20109 0.169334,0.10583 0.28575,0.27516 0.381,0.49741 0.201084,0.47625 0.391584,0.9525 0.5715,1.43934 0.02117,0.0529 0.04233,0.10583 0.0635,0.15875 0.04233,0.0847 0.04233,0.0847 -0.02117,0.11641 -0.105834,0.0635 -0.22225,0.11642 -0.3175,0.21167 -0.02117,0.0212 -0.07408,0.0423 -0.05292,0.0847 0.01058,0.0212 0.01058,0.0212 0.02117,0.0212 0.02117,0 0.04233,-0.0212 0.0635,-0.0318 0.22225,-0.0847 0.529166,-0.20108 0.751416,-0.254 0.09525,-0.0212 0.179917,-0.0423 0.275167,-0.0423 0.04233,0 0.07408,0 0.116417,0.0106 0.07408,0.0106 0.137583,0.0529 0.1905,0.13759 0.127,0.22225 0.370416,0.81491 0.402166,1.06891 0.04233,0.30692 0.05292,0.60325 -0.03175,0.87842 z"
             id="path5451" />
        </g>
      </g>
    </g>
  </g>
</svg>
