<svg width="35.49mm" height="14.428mm" version="1.1" viewBox="0 0 35.49 14.428" xmlns="http://www.w3.org/2000/svg" xmlns:xlink="http://www.w3.org/1999/xlink"><defs><linearGradient id="a" x1="343.18" x2="343.18" y1="69.804" y2="77.711" gradientTransform="matrix(-1 0 0 1 440.35 29.228)" gradientUnits="userSpaceOnUse"><stop stop-color="#00ff93" offset="0"/><stop stop-color="#ebff00" offset=".619"/><stop stop-color="#641aff" offset="1"/></linearGradient></defs><g transform="translate(-79.773 -95.596)"><path d="m102.69 96.105c-0.26649 3e-6 -0.69038 0.04816-0.69038 0.39946 0 0.31496 0.0484 0.55734 0.10903 0.8723-0.0484-0.09691-0.0848-0.19374-0.13332-0.27854-0.12115-0.24227-0.30279-0.41186-0.49662-0.41186-0.0606 0-0.12108 0.02413-0.19378 0.06046-0.55716 0.30284-0.61804 1.2114-0.61804 1.7808 0 0.24227 8e-5 0.48429 0.0243 0.72657 0.0241 0.15748 0.0487 0.31536 0.0728 0.47284 0.0606 0.31496 0.12118 0.62991 0.21809 0.93276 0.31496 1.0176 1.2594 2.9435 2.4345 2.9435 0.56938 0 1.0784-0.39988 1.139-0.98134l0.0243 0.0124c0.0122-0.16959 2.2e-4 -0.33942-0.0119-0.50901-0.0241-0.30285-0.0609-0.60586-0.0367-0.89659 0-0.0606-0.0238-0.0967-0.0723-0.12092-0.13327-0.0848-0.26672-0.13316-0.39997-0.1695-0.0363-0.0121-0.0727-0.0243-0.10903-0.0243-0.27861 0-0.59365 0.35125-0.65424 0.60564-0.0243 0.14538-0.0725 0.21808-0.1452 0.21808-0.0485 0-0.097-0.012-0.15761-0.0605-0.18172-0.12114-0.33896-0.38754-0.42376-0.58136-0.20592-0.49667-0.3634-1.0057-0.3271-1.5508 0.0122-0.09691 0.0119-0.19374 0.0362-0.27854 0.0122-0.02424 0.0119-0.06068 0.0362-0.04857 0.0241 0 0.0246 0.03623 0.0367 0.06046 0.0848 0.27861 0.16952 0.54504 0.27853 0.79944 0.18171 0.44821 0.47228 0.73897 0.96893 0.73897 0.1696 0 0.31501-0.0604 0.43616-0.22996 0.15746-0.15748 0.20606-0.31474 0.24236-0.53278 0.0122-0.06057 1.3e-4 -0.10916-0.0362-0.15762-0.0363-0.03635-0.0611-0.08487-0.0853-0.13332-0.47247-0.86008-0.73877-1.8534-0.96893-2.7983-0.0485-0.20594-0.0971-0.41183-0.1819-0.60565-0.0727-0.15748-0.18145-0.24214-0.31472-0.25425zm-21.629 0.12092c-0.36208 0.04526-0.64689 0.03874-0.84144 0.31372l-0.1193 0.57817c-9e-3 0.04556 0.21225 0.16769 0.23355 0.21036 0.0606 0.14536 0.36375 0.76326 0.55758 0.76326 0.0241 0 0.0362 2.25e-4 0.0605-0.01188l-0.0367-0.01241c0.32708-0.14536 0.66622-0.21797 1.0175-0.27854 0.0969-0.01212 0.12158-0.06054 0.0853-0.19379-0.0969-0.33919-0.33957-0.90855-0.58188-1.1508-0.109-0.10902-0.22981-0.23018-0.37518-0.21808zm14.851 0.79943c-0.14536 0-0.25403 0.33901-0.26615 0.44804-0.0484 0.24228-0.0364 0.48481-0.0243 0.72709 0.0243 0.33919 0.18132 0.59366 0.4599 0.76326 0.15748 0.09691 0.32753 0.15728 0.49713 0.22996 0.14536 0.06057 0.29051 0.10922 0.42375 0.1819 0.0243 0.01212 0.0484 0.02413 0.0605 0.06046-0.13324-0.02424-0.25432-0.04857-0.38756-0.04857-0.0484 0-0.0604 0.01199-0.0362 0.06046 0.0848 0.1696 0.16965 0.33942 0.24236 0.50901 0.19383 0.47245 0.37534 0.94505 0.55705 1.4175 6e-3 0.0184 0.0122 0.0369 0.018 0.0553 0.0371 0.0461 0.0726 0.094 0.1111 0.13849l0.0249 0.0362c0.37555 0.41187 0.30266 0.8118 0.22995 1.0056-0.0488 0.13237-0.11996 0.2407-0.20566 0.33073 0.0114 0.13593 0.0757 0.22634 0.28215 0.22634 0.0484 0 0.0846-0.0119 0.12092-0.0119 0.21804-0.0363 0.42429-0.0847 0.64233-0.0847 0.0606 0 0.12078-0.0122 0.1814-0.0243 0.0848-0.0242 0.12112-0.085 0.10903-0.1819-0.0122-0.10902-0.0363-0.20591-0.0605-0.30282-0.0122-0.0242-0.0243-0.0486-0.0486-0.0729-0.0606-0.0606-0.12079-0.12111-0.1814-0.19379-0.0606-0.0727-0.12121-0.15734-0.15761-0.25425 0.20595 0.20594 0.52104 0.37577 0.78755 0.50902 0.0363 0.0242 0.0845 0.0117 0.12092 0.0481 0.0606 0.0485 0.13298 0.0729 0.20569 0.0971 0.18169 0.0606 0.36345 0.0968 0.54517 0.1452 0.0485 0.0121 0.10911 0.0243 0.15761 0.0243 0.0363 0 0.0609 2.3e-4 0.0972-0.0119v-0.0124c0.0848-0.0242 0.13282-0.0847 0.13282-0.16949v-0.10904c-0.0485-0.32707-0.1692-0.84815-0.35089-1.1147-0.0241-0.0363-0.0487-0.0602-0.0972-0.0481-0.0606 0.0121-0.12131 0.0119-0.1819 0.0119-0.35131 0-0.67807-0.12107-0.92035-0.38757-0.0122-0.0121-0.0246-0.0241-0.0124-0.0362 0.0122-0.0242 0.0365-0.0121 0.0486 0 0.0606 0.0242 0.12131 0.0362 0.1819 0.0605 0.0484 0.0121 0.0846 0.0243 0.12092 0.0243 0.12115 0 0.21825-0.0729 0.29093-0.1819 0.21807-0.31496 0.32703-0.66604 0.30284-1.0537-0.0485-0.83586-0.70281-1.3934-1.4418-1.6841-0.41185-0.15748-0.82373-0.3149-1.2356-0.49661-0.20592-0.09691-0.4119-0.19397-0.62992-0.26665-0.16962-0.06057-0.32697-0.13282-0.47233-0.24185-0.0485-0.03634-0.1089-0.07292-0.16949-0.09715-0.0241-0.01212-0.0487-0.02429-0.0729-0.02429zm8.4904 0.07286c-0.20593 0.02424-0.41183 0.07259-0.60564 0.1695-0.0196 0.01082-0.047 0.02987-0.0729 0.04754 0.11091 0.42359 0.22455 0.81395 0.35036 1.1607 0.24633-0.07549 0.4985-0.12117 0.75242-0.15865-0.0172-0.15617-0.0167-0.32803 0.0274-0.50436 0.0279-0.11146 0.0674-0.20925 0.11109-0.30076-0.14716-0.22823-0.33832-0.41393-0.56276-0.41393zm-18.225 0.1695c-0.16959 0-0.42388 0.03636-0.49659 0.21808-0.0848 0.23016-0.0728 0.46023-0.0243 0.6904 0.0969 0.49667 0.54512 1.3205 0.82372 1.7203 0.0363 0.04845 0.0729 0.09682 0.0972 0.1695-0.31496-0.1817-0.92083-1.1266-1.1147-1.4537-0.23019-0.3513-0.47255-0.6782-0.76327-0.96893-0.21805-0.21805-0.46035-0.33951-0.73899-0.33951-0.0484 0-0.0968 2.64e-4 -0.1452 0.01241-0.46032 0.07268-0.72718 0.37528-0.75136 0.83561-0.0119 0.10903-0.0119 0.10939 0.0728 0.14573 0.7511 0.25439 1.5627 2.495 1.5627 3.2339 0 0.0242 0.0122 0.0729-0.0119 0.0729-0.0364 0.0121-0.0489-0.0362-0.061-0.0605-0.0241-0.0848-0.0482-0.18163-0.0723-0.27854-0.0122-0.0242-0.0246-0.0367-0.0367-0.0367-0.0122 0-0.0241 2.6e-4 -0.0362 0.0124-0.0726 0.0363-0.10914 0.10898-0.13332 0.19379-0.0494 0.20307-0.0597 0.40341-0.0424 0.60151 0.013 0.0214 0.0272 0.0414 0.0388 0.0646 0.117 0.24467 0.26017 0.56976 0.39222 0.91467 0.1311 0.0624 0.28882 0.0785 0.44752 0.0785 0.26651 0 0.78716-0.0483 1.0537-0.14521 0.0969-0.0363 0.14549-0.10905 0.15761-0.21807 0.0122-0.25439-0.0241-0.49669-0.0848-0.73898-0.0363-0.16959-0.12105-0.29082-0.27853-0.35139-0.0969-0.0363-0.19404-0.0725-0.29093-0.12093-0.0122-0.0121-0.0243-0.0119-0.0243-0.0362 0-0.0121 0.0122-0.0124 0.0243-0.0124 0.0363-0.0121 0.0727-0.0241 0.10903-0.0362 0.0606-0.0121 0.0971-0.0728 0.0729-0.13332-0.0241-0.0848-0.0485-0.16945-0.0847-0.25425-0.0122-0.0242-0.0243-0.0483-0.0486-0.0605-0.0848-0.0606-0.16996-0.12133-0.25476-0.1819-0.0243-0.0242-0.0605-0.0365-0.0847-0.0729 0.0241-0.0121 0.0487-0.0119 0.0729-0.0119 0.35128 0 1.2234 0.55739 1.5141 0.78755 0.0122 0.0121 0.0483 0.0238 0.0362 0.0481-0.0122 0.0363-0.0363 0.0124-0.0605 0.0124h-0.0723c-0.21802-0.0121-0.33944 0.14524-0.31523 0.36329 0.0243 0.27861 0.0967 0.54526 0.22995 0.78754 0.15751 0.29074 0.5211 0.30283 0.81185 0.30283 0.23016 0 0.47265-0.0241 0.70278-0.0605 0.0458-6e-3 0.0868-0.0188 0.1256-0.0351-4e-3 -9e-3 -9e-3 -0.0162-0.013-0.0259-0.22974-0.54403-0.27832-1.0518-0.15812-1.5596-0.0575-0.0205-0.10451-0.054-0.14832-0.12402-0.12113-0.21805-0.23048-0.43595-0.33952-0.66611-0.0969-0.19382-0.18163-0.38805-0.27852-0.58188-0.19386-0.39976-0.36314-0.81114-0.42376-1.2594-0.0101-0.08073-0.0148-0.1604-0.0151-0.23926-0.0741-0.10077-0.10404-0.22801-0.0904-0.39067 0.0151-0.13424 0.0472-0.25741 0.0873-0.37466-0.25302-0.22574-0.60481-0.43718-0.93898-0.43718zm4.4493 0c-0.16957 0-0.42389 0.03636-0.49659 0.21808-0.0848 0.23016-0.0728 0.46023-0.0243 0.6904 0.0969 0.49667 0.54509 1.3205 0.82372 1.7203 0.0362 0.04845 0.073 0.09682 0.0972 0.1695-0.31496-0.1817-0.92083-1.1266-1.1147-1.4537-0.23013-0.3513-0.47254-0.6782-0.76327-0.96893-0.21804-0.21805-0.46034-0.33951-0.73898-0.33951-0.0485 0-0.0967 2.64e-4 -0.1452 0.01241-0.46032 0.07268-0.72665 0.37528-0.75086 0.83561-0.0122 0.10903-0.0124 0.10939 0.0724 0.14573 0.75108 0.25439 1.5627 2.495 1.5627 3.2339 0 0.0242 0.0124 0.0729-0.0119 0.0729-0.0364 0.0121-0.0484-0.0362-0.0605-0.0605-0.0241-0.0848-0.0487-0.18163-0.0729-0.27854-0.0122-0.0242-0.0241-0.0367-0.0362-0.0367-0.0122 0-0.0241 2.6e-4 -0.0362 0.0124-0.0726 0.0363-0.10911 0.10898-0.13332 0.19379-0.10901 0.44821-0.0362 0.88446 0.13332 1.3084 0.12118 0.30284 0.41156 0.35088 0.70229 0.35088 0.26651 0 0.78769-0.0483 1.0542-0.14521 0.0969-0.0363 0.14499-0.10904 0.15711-0.21807 0.0122-0.25439-0.0241-0.49669-0.0847-0.73897-0.0363-0.1696-0.12107-0.29083-0.27855-0.3514-0.0969-0.0363-0.19352-0.0725-0.29041-0.12093-0.0122-0.0121-0.0243-0.0119-0.0243-0.0362 0-0.0121 0.0122-0.0124 0.0243-0.0124 0.0363-0.0121 0.0727-0.0241 0.10904-0.0362 0.0606-0.0121 0.0966-0.0728 0.0723-0.13332-0.0241-0.0848-0.0483-0.16945-0.0847-0.25425-0.0122-0.0242-0.0243-0.0483-0.0486-0.0605-0.0848-0.0606-0.16944-0.12133-0.25424-0.1819-0.0241-0.0242-0.0606-0.0365-0.0847-0.0729 0.0241-0.0121 0.0487-0.0119 0.0728-0.0119 0.35134 0 1.2234 0.55739 1.5141 0.78755 0.0122 0.0121 0.0483 0.0238 0.0362 0.0481-0.0122 0.0363-0.0362 0.0124-0.0605 0.0124h-0.0729c-0.21801-0.0121-0.3389 0.14524-0.31469 0.36329 0.0241 0.27862 0.0967 0.54527 0.22995 0.78754 0.15748 0.29074 0.52112 0.30283 0.81185 0.30283 0.23018 0 0.47212-0.0241 0.70228-0.0605 0.19381-0.0242 0.32697-0.14547 0.38756-0.3514l0.0367 0.0243v-5.3e-4c-0.0497-0.13147-0.0807-0.2755-0.0847-0.43563 0-0.17741 0.0154-0.33972 0.0439-0.49248-7e-3 -0.0216-0.0116-0.0435-0.0196-0.0651-0.0606-0.16959-0.18203-0.25431-0.33951-0.27854-0.0969-0.0121-0.15748-0.0483-0.21809-0.14521-0.12113-0.21805-0.22998-0.43594-0.33899-0.66611-0.0969-0.19382-0.18164-0.38754-0.27855-0.58136-0.19384-0.39976-0.36365-0.81166-0.42426-1.2599-0.0364-0.29073-0.0119-0.56962 0.0971-0.83612 0.0122-0.03634-8e-5 -0.06052-0.0243-0.08475-0.2544-0.25439-0.65439-0.5209-1.0299-0.5209zm15.318 0.04857c-0.37555 0.03634-0.59373 0.29052-0.67852 0.64182-0.0484 0.20594-0.0119 0.424 0.0486 0.62994 0.10904 0.33919 0.27882 0.66609 0.48472 0.96893 0.0122 0.02424 0.0365 0.03669 0.0486 0.03669 0.0122 0 0.0241-2.65e-4 0.0362-0.01241 0.0241-0.02424 0.0609-0.03595 0.0971-0.04806 0.0485-0.01212 0.0843-0.02429 0.13282-0.02429 0.32708 0 0.64238 0.27856 0.86043 0.4966 0.41187 0.37553 1.078 1.4414 1.078 1.926-0.0364-0.0121-0.0487-0.0365-0.0729-0.0486-0.0848-0.0727-0.18135-0.10904-0.26615-0.10904s-0.16965 0.0363-0.24236 0.0847c-0.16967 0.10903-0.24249 0.29067-0.20619 0.49661 0.0485 0.30284 0.16976 0.65452 0.48472 0.77566h0.13332c0.24231-0.0969 0.52076-0.12144 0.77515-0.12144 0.0848 0 0.18185 0.0124 0.26665 0.0124 0.13327 0 0.26622 0.0243 0.39947 0.0243 0.14536 0 0.23027-0.0851 0.24236-0.23047v-0.0362c0.0243-0.24228 2.1e-4 -0.48475-0.12092-0.7028-0.0727-0.13326-0.18177-0.23026-0.35139-0.24237-0.0485 0-0.0605-0.0239-0.0605-0.0724 0-0.69048-0.21796-1.9263-0.6904-2.3745-0.0606-0.04845-0.13319-0.08464-0.19378-0.14521 0.0363-0.01209 0.0605-0.01188 0.0847-0.01188 0.19384 0.02421 0.38754 0.04812 0.58135 0.07235 0.0848 0.01212 0.18184 0.02429 0.26667 0.02429 0.49665 0 0.72662-0.2059 0.77512-0.71468h0.0362c0.0243-0.24228-0.0243-0.47235-0.13335-0.6904-0.0243-0.03634-0.0362-0.03663-0.0605-0.01241-0.0363 0.03634-0.0724 0.07292-0.12091 0.09715-0.1696 0.10903-0.35137 0.15739-0.54518 0.1695-0.46032 0-0.78732-0.07254-1.2113-0.25425-0.24228-0.10903-0.47239-0.25455-0.71467-0.37569-0.41185-0.21805-0.71504-0.22996-1.1632-0.22996zm-10.723 0.0041c-0.19634 0.02822-0.36015 0.12132-0.51212 0.23823-0.18175 0.14536-0.27845 0.32691-0.25424 0.55707 0.0122 0.13325 0.0603 0.25455 0.12091 0.37569 0.0122 0.02424 0.0243 0.04817 0.0243 0.09663-0.27863-0.27862-0.60563-0.56947-1.0175-0.56947-0.56936 0-0.90848 0.5333-0.90848 1.0542 0 0.8722 0.76325 1.7324 1.478 2.1322 0.0364 0.0242 0.0727 0.0481 0.10904 0.0723-0.0122 0.0242-0.0246 0.0243-0.0367 0.0243h-0.29041c-0.0848 0-0.14528 0.0366-0.16949 0.12144-0.0122 0.0242-0.0246 0.0481-0.0367 0.0724-0.0848 0.23016-0.10904 0.46052-0.10904 0.7028 0 0.7026 0.78777 0.98133 1.3813 0.98133 0.0301 0 0.058-4e-3 0.0873-5e-3 0.0692-0.20593 0.15981-0.38612 0.27647-0.54518 0.15803-0.22578 0.80774-0.67225 1.1297-0.46716 0.14153 0.0901 0.19309 0.23433 0.33795 0.47852 0.0167 0.0262 0.0262 0.0495 0.0388 0.0739 0.0568 0.0668 0.10782 0.12138 0.13023 0.11628 0.18685-0.0421 0.33862-0.15063 0.41032-0.36587l0.048-0.0486c0.0848-0.21805 1.6e-4 -0.40011-0.14521-0.55759-0.18171-0.20594-0.33932-0.42354-0.48474-0.65371-0.0726-0.12114-0.13306-0.2426-0.22995-0.33951-0.0485-0.0485-0.0968-0.0605-0.16949-0.0605-0.14536 0.0121-0.27882 0.0485-0.39997 0.13332-0.1211 0.0969-0.19381 0.21821-0.19381 0.37569v0.14521c0.0122 0.0848 0.0124 0.16968-0.0362 0.24236-0.0485 0.10903-0.30284 0.21785-0.41185 0.22996-0.0362 0-0.0608 0.0124-0.0971 0.0124-0.0727 0-0.14507-0.0122-0.20566-0.0486-0.0726-0.0363-0.13335-0.0847-0.13335-0.16949 0-0.0848 0.0725-0.1091 0.14523-0.13333 0.0969-0.0242 0.19402-0.0486 0.29093-0.0729 0.10901-0.0242 0.16971-0.10905 0.15761-0.21808-0.0485-0.29073-0.16999-0.54498-0.3638-0.77514-0.0241-0.0242-0.0484-0.0243-0.0847-0.0243-0.0848 0.0121-0.16968 0.0243-0.24236 0.0243-0.27861 0-0.50877-0.12136-0.60566-0.39998-0.0727-0.23016 0.0365-0.4238 0.26665-0.44803h0.10903c0.52091 0 0.7996 0.24234 1.1751 0.54518 0.0484 0.0242 0.0846 0.0486 0.12094 0.0486 0.0363 0 0.0727-0.0243 0.10904-0.0486 0.12115-0.0969 0.20603-0.21791 0.26665-0.36328 9e-3 -0.01728 0.0108-0.03225 0.014-0.04754-0.0268-0.05351-0.0529-0.1076-0.0827-0.15865-0.0365-0.06057-0.0484-0.12104-0.0605-0.1695-0.56936-0.27862-0.94525-0.53326-0.99375-1.248-0.0243-0.25439-0.0363-0.53299 0.0243-0.82372 6e-3 -0.03023 0.0148-0.06135 0.0238-0.0925zm15.814 0.06821c-0.15748 0-0.2908 0.01251-0.43616 0.06098-0.24223 0.09691-0.37521 0.37554-0.29041 0.62994 0.0241 0.0848 0.0481 0.16945 0.0723 0.25425 0.0363 0.12114 0.0487 0.24238 0.12144 0.3514 0.0848 0.13325 0.18164 0.2662 0.27853 0.39946 0.18171 0.26651 0.3148 0.55711 0.3633 0.88418 0.0122 0.0848 0.0122 0.16997-0.0119 0.25477-0.0241 0.0969-0.0971 0.15709-0.1819 0.15709-0.20592 0-0.4241-0.33913-0.48472-0.49661-0.109-0.30285-0.15748-0.6178-0.21807-0.93276 0-0.01005-4e-3 -0.01217-5e-3 -0.02066-0.13462 0.53056-0.51152 0.82224-1.1467 0.83044 0.28247 0.60182 0.78213 1.6495 1.54 1.6495 0.15748 0 0.31454-0.0605 0.45993-0.1695 0.14533-0.0969 0.46045-0.46063 0.46045-0.64234 0-0.0242 8e-5 -0.0481 0.0243-0.0481 0.0241 0 0.0119 0.0362 0.0119 0.0605v0.0362c0.0241 0.15748 0.0243 0.31507-0.0605 0.46044-0.0241 0.0363-0.0119 0.0486 0.0243 0.0729 0.10904 0.0727 0.15754 0.22997 0.10904 0.33899-0.0363 0.0848-0.13332 0.14521-0.24236 0.14521-0.0241 0-0.0487-0.0119-0.0729-0.0119-0.13324-0.0242-0.21785-0.13316-0.33901-0.1695-0.0241-0.0121-0.0487-0.0124-0.0729-0.0124h-0.0362c-0.10901 0.0363-0.21807 0.0605-0.32711 0.0605-0.12112 0-0.24238-0.0241-0.35141-0.0605-0.0244-0.0121-0.0362-0.0119-0.0605-0.0119-0.0241 0-0.0485 0.0119-0.0848 0.0362-0.1211 0.10903-0.16978 0.25462-0.1819 0.39998-4e-3 0.0637 0 0.12572 3e-3 0.18759 0.0488 0.13461 0.0768 0.28059 0.0889 0.43614 0.0349 0.0973 0.0756 0.19276 0.12763 0.28474 0.0243 0.0484 0.0368 0.0724 0.061 0.0724 0.0241 0 0.036-0.0238 0.0723-0.0481 0.0727-0.0485 0.14567-0.10933 0.23047-0.12144 0.0606-0.0121 0.121-0.0119 0.1695-0.0119 0.13324 0 0.26646 0.0242 0.38758 0.0847 0.14537 0.0606 0.29075 0.1454 0.43614 0.21808 0.13325 0.0727 0.27866 0.1331 0.43614 0.14521 0.59359 0 0.90826-0.93242 0.92038-1.417l0.0243-5.3e-4c0.0241-0.3513-0.0362-0.69021-0.14523-1.0294-0.15748-0.50878-0.38782-0.99317-0.59375-1.4898-0.0969-0.23016-0.19336-0.4603-0.21756-0.71468-0.0241-0.23016 0.0241-0.44852 0.16949-0.64234 0.0364-0.03634 0.0119-0.04812-0.0124-0.07235-0.30284-0.23016-0.62987-0.38809-1.0175-0.38809zm-28.645 1.1488c-0.01-0.0013-0.0198-0.0011-0.032 0.0021-0.15748 0.02421-0.31482 0.04863-0.4723 0.07286-0.19384 0.03634-0.38778 0.07281-0.56949 0.15761-0.0848 0.03634-0.0968 0.07236-0.0362 0.18139 0.14536 0.29073 0.29048 0.58185 0.42375 0.8847 0.19381 0.4361 0.37571 0.88394 0.59376 1.3079 0.16959 0.32707 0.27831 0.69049 0.39946 1.0418 0.0727 0.20593 0.097 0.424 0.15762 0.62993-0.0486-0.0121-0.0727-0.0603-0.0848-0.0966-0.0243-0.0727-0.14547-0.36329-0.24236-0.36329-0.0363 0-0.0602 0.0363-0.0724 0.0848-0.0122 0.0363-0.0243 0.0727-0.0243 0.10903-0.0122 0.30285 0.0727 0.5815 0.1938 0.84801 0.0969 0.21805 0.23014 0.33911 0.41185 0.38758 0.0363 0.0121 0.0727 0.0119 0.10904 0.0119 0.0848 0 0.15727-0.0122 0.22995-0.0243 0.33922-0.0606 0.6786-0.10904 1.0299-0.10904l0.0486-0.0243c0.0363 0 0.0483-0.0239 0.0362-0.0724-0.0122-0.0606-0.0363-0.12133-0.0605-0.1819-0.13327-0.35131-0.29106-0.69044-0.44854-1.0175-0.0606-0.12114-0.15735-0.16979-0.25424-0.1819-0.0605-0.0121-0.0727-0.0485-0.0847-0.10904-0.0606-0.21805-0.1211-0.43589-0.19381-0.64182-0.32707-0.94489-0.66614-1.8896-0.99322-2.8345-0.018-0.03634-0.0367-0.05905-0.0651-0.06305zm24.1 0.26872c0.0969 0 0.18164 0.02413 0.27856 0.06046 0.1696 0.07268 0.32723 0.16974 0.48471 0.26665 0.0122 0 0.0243-2.25e-4 0.0243 0.01188 0 0.01212-0.14531 0.02429-0.1695 0.02429h-0.0367l-0.0238 0.04857c-0.0122 0-0.0365-0.01212-0.0485 0-0.0122 0.01212-2.4e-4 0.02408 0.0119 0.03617 0.0848 0.14537 0.15724 0.30296 0.22995 0.46044 0.0122 0.01212 0.0124 0.02458 0.0124 0.03669-0.30287-0.30285-0.66632-0.56967-1.0661-0.75138-0.0243-0.01212-0.0605-0.01222-0.0605-0.04857 0-0.03634 0.0362-0.04835 0.0605-0.06046 0.0969-0.06057 0.20592-0.08475 0.30281-0.08475zm-1.542 0.09715c-0.20596 0.02424-0.41209 0.04847-0.61804 0.10904-0.0969 0.02424-0.10899 0.06041-0.0605 0.14521 0.12115 0.21805 0.24241 0.43595 0.35142 0.66611 0.15748 0.33918 0.29059 0.69044 0.47231 1.0175 0.13324 0.24227 0.20592 0.52104 0.30284 0.78754 0.0485 0.15748 0.0485 0.32725 0.0848 0.48473-0.0485-0.0121-0.1696-0.25437-0.19381-0.30283-0.0241-0.0363-0.0608-0.0486-0.0971-0.0486s-0.0602 0.0241-0.0724 0.0605c-0.0122 0.0242-0.0243 0.0486-0.0243 0.0729-0.0364 0.23016 0.0241 0.44828 0.12094 0.65422 0.0969 0.21804 0.3031 0.30282 0.53329 0.30282 0.0606 0 0.13298-2.6e-4 0.20566-0.0124 0.31718-0.0438 0.63558-0.0739 0.96171-0.0801-0.0375-0.10446-0.0661-0.20906-0.0853-0.30747-0.0354-0.19809-0.0323-0.32898-0.0151-0.42943-0.0338-0.0738-0.0699-0.14847-0.11006-0.22479-0.0485-0.0969-0.14547-0.1331-0.24236-0.14521-0.0606-0.0121-0.0727-0.0363-0.0848-0.0847-0.0484-0.1696-0.0848-0.33913-0.13333-0.49661-0.17219-0.54372-0.2109-0.72573-0.31366-1.0816-0.0364 0.0091-0.0729 0.0155-0.10647 0.0155-0.36338 0-0.58166-0.44824-0.70279-0.73898l-0.0362-0.10904c-0.034-0.08132-0.0709-0.16402-0.10594-0.24959-0.0106-0.0013-0.0193-0.0063-0.031-0.0047zm-7.1334 0.678c0.21185 0.05472 0.45498 0.16215 0.66609 0.30282 0.1333 0.13325 0.15737 0.33941 0.0605 0.50901-0.0243 0.0363-0.0363 0.0727-0.0605 0.10904-0.0363 0.0606-0.0846 0.0847-0.1452 0.0847-0.0364 0-0.0489-0.0243-0.061-0.0486l-0.1452-0.58136c-0.0122-0.06056-0.0366-0.10887-0.0729-0.14521-0.0731-0.07614-0.17735-0.16827-0.24183-0.23048zm-1.6046 2.9011c-0.0225 0-0.0332 0.0114-0.0558 0.0114-0.35898 0.12985-0.55787 0.55389-0.65939 0.9617-0.0485 0.19489-0.0748 0.38618-0.0858 0.5395 0 0.0677 0.0111 0.10144 0.0677 0.12402 0.0903 0.0452 0.18095 0.12415 0.25993 0.21446 1.0612 1.2192 1.75 3.161 1.9193 4.7527 3e-5 0.0564 0.022 0.0906 0.0558 0.11317 0.16933 0.14676 0.34964 0.22583 0.54157 0.22583 0.24834-0.0113 0.41775-0.14721 0.51935-0.42943 0.0903-0.23707 0.12438-0.48518 0.10179-0.7674-0.0225-0.22577-0.0332-0.4517-0.0558-0.67748-0.0225-0.20319-0.0233-0.40606-0.0796-0.60926-0.0114-0.0339-0.0222-0.0679-0.0222-0.1018 0.0339 0.0226 0.0565 0.0452 0.0791 0.0791 0.0565 0.1016 0.10145 0.21422 0.12404 0.32711 0.16933 0.76764 0.8128 2.111 1.6821 2.111 0.0452 0 0.0789 5.3e-4 0.12404-0.0109 0.41767-0.0677 0.66617-0.40639 0.74517-0.8015v-0.0114c0.0114-0.0452-2.1e-4 -0.0907-0.0341-0.12454-0.75634-0.9144-1.3097-2.4835-1.479-3.6349-0.0678-0.4064-0.10165-0.81265-0.079-1.219 0.0114-0.11289-0.0114-0.19184-0.0677-0.28215-3e-3 -6e-3 -0.0371-0.0513-0.0553-0.0765-0.098-0.0248-0.19606-0.0517-0.29406-0.0894l-0.0243-0.0119c-0.0241-0.0121-0.0609-0.0246-0.0972-0.0367-0.0484 0.20593-0.20568 0.3634-0.42373 0.41186h-0.0119c-0.0727 0.0121-0.15764 0.0367-0.26668 0.0367-0.0436 0-0.09 5e-3 -0.13538 9e-3 8e-3 0.0996 0.0182 0.19909 0.0331 0.29868 0.1129 0.76765 0.36134 1.5127 0.74517 2.19 0.0225 0.0339 0.0451 0.0794 0.0677 0.12454-0.079-0.0451-0.13534-0.11321-0.19172-0.19223-0.0903-0.12418-0.16928-0.27055-0.28215-0.38344-0.16931-0.16933-0.35012-0.28267-0.53073-0.28267-0.0677 0-0.13539 0.0116-0.20309 0.0455-0.079 0.0339-0.14695 0.0901-0.18087 0.19172-0.0564 0.18062-0.0677 0.38384-0.0677 0.58704s0.0566 0.41787 0.0114 0.60978c-0.0228-0.11289-0.0451-0.22611-0.0677-0.33899-0.0565-0.3048-0.11279-0.60928-0.2031-0.90279-0.13631-0.42498-0.51784-1.5905-0.90122-2.3353-0.15637-0.30374-0.31311-0.53767-0.45373-0.6227-0.0225-0.0113-0.0451-0.0222-0.0677-0.0222zm17.424 0.77876c-0.36105 2.7e-4 -0.6881 0.2823-0.73329 0.64337-0.0451 0.29351 0.0228 0.56468 0.11319 0.83561 0.0339 0.11289 0.0901 0.21422 0.12401 0.32711-0.0564-0.0564-0.11284-0.11262-0.14676-0.18035-0.15807-0.28222-0.31637-0.56475-0.47438-0.84697-0.14679-0.25965-0.38364-0.55294-0.69971-0.55294-0.56446 0.0339-0.90297 0.38366-1.0046 0.92552-6e-3 0.0283-0.01 0.0536-0.0146 0.0796 0.0122 0.0186 0.0274 0.0372 0.046 0.0558 0.0564 0.0564 0.12446 0.12459 0.18087 0.20361 0.23707 0.31608 0.24857 0.72225 0.0341 1.0609-0.0114 0.0226-0.0228 0.0451-0.0341 0.0677-3e-3 2e-3 -5e-3 6e-3 -7e-3 8e-3 0.11031 0.32387 0.34454 0.36837 0.57259 0.56792 0.0225 0.0226 0.0451 0.0451 0.0677 0.0677 0.079 0.0903 0.16965 0.16954 0.25993 0.24857 0.34999 0.27093 0.75618 0.46307 1.14 0.68884 0.2258 0.13547 0.46262 0.25945 0.62063 0.48524 0.0759 0.1083 0.12817 0.22828 0.11576 0.37621-6e-3 0.0434 3e-3 0.0665-0.0367 0.0754-0.0225 0-0.0342-0.0229-0.0455-0.0455-0.11289-0.27093-0.24833-0.3949-0.50797-0.55294-0.33869-0.21449-0.69945-0.38392-1.0268-0.59841-0.0225-0.0113-0.0342-0.0227-0.0568-0.0227-0.0114 0-0.0222 0.0114-0.0336 0.0114-0.0212 9e-3 -0.0349 0.0235-0.0517 0.0357 0.043 0.0394 0.0831 0.0833 0.11782 0.13384v-0.0114c0.1919 0.28222 0.29353 0.58721 0.29353 0.9033 0 0.24283-0.0614 0.41471-0.17208 0.54312 3e-3 3e-3 3e-3 7e-3 4e-3 0.01 0.0338 0.0226 0.0565 0.0341 0.0791 0.0341 0.0339 0 0.0565-0.0115 0.0791-0.0341 0.0903-0.0903 0.50824-0.13539 0.62114-0.13539 0.0565 0 0.11258 0.0114 0.16899 0.0114 0.21447 0.0226 0.41801 0.10144 0.63251 0.12402 0.13549 0.0113 0.27072 0.0227 0.40619 0.0227 0.34996-0.0339 0.54184-0.36147 0.58703-0.68885l0.0677-0.0114c0.0339-0.21449 0-0.40634-0.14676-0.57567-0.1016-0.11289-0.20286-0.22543-0.31573-0.31574-0.21447-0.16933-0.45172-0.3049-0.67749-0.45166-0.55316-0.34995-1.445-0.9595-1.5353-1.6707-0.0114-0.0677 2.1e-4 -0.12427 0.0341-0.15813 0.23704 0.49671 0.42886 0.72241 0.85783 1.0836 0.19193 0.15805 0.39521 0.29353 0.59841 0.44028 0.0564 0.0452 0.11266 0.045 0.18034 0.045 0.0564-0.0113 0.11311-0.0223 0.16952-0.0336 0.0903-0.0226 0.16949-0.0677 0.23717-0.13539 0.0565-0.0677 0.056-0.0905 0.0109-0.1695-0.31607-0.63217-0.68842-1.6258-0.69972-2.2918 0-0.19191-1.3e-4 -0.38376 0.0449-0.57567 0.0114-0.0561 0.0111-0.0563-0.0444-0.0563zm-12.41 0.0563c-0.12417 0-0.23688 0.0227-0.33848 0.0904-0.29353 0.22578-0.51957 0.49659-0.62117 0.85783-9e-3 0.0359-0.0156 0.0721-0.0227 0.10801 0.0119 0.11495 0.0233 0.22902 0.0429 0.35605 0.0114 0.0801 0.0289 0.165 0.0444 0.24856 0.0856 0.13999 0.19328 0.26437 0.31935 0.37104 0.14676 0.11289 0.30488 0.21482 0.45164 0.33899 0.15804 0.12418 0.30507 0.2597 0.4744 0.37259 0.0677 0.0452 0.13531 0.0899 0.19172 0.15761-0.0677-0.0339-0.13539-0.0787-0.2031-0.10128-0.0903-0.0339-0.18092-0.068-0.25992-0.11317-0.1129-0.0677-0.23704-0.11247-0.36121-0.15762-0.0338-0.0113-0.045-2.6e-4 -0.045 0.0336 0.0114 0.11289 0.0338 0.22603 0.0677 0.32763 0.22577 0.88053 0.97096 2.4157 1.987 2.4608 0.38381 0 0.67747-0.13556 0.89194-0.45165l0.0109-0.0227c0.27099-0.39511 0.3729-0.84628 0.33898-1.3317-0.0316-0.468-0.15909-0.93059-0.3829-1.3379-0.44016-0.22006-0.74684-0.43718-0.84233-0.92657-0.32528-0.24258-0.67156-0.46436-1.0103-0.69349-0.0677-0.0452-0.12396-0.0902-0.18034-0.13539-0.14677-0.11289-0.2712-0.24841-0.4067-0.37259-0.0451-0.0451-0.0904-0.0791-0.14676-0.0791zm-12.666 0.0568c-0.3048 0-0.60955 0.20274-0.65474 0.51883-0.0225 0.15805-0.0339 0.32772 0 0.48576 0.0564 0.31609 0.15809 0.62065 0.29351 0.91416 0.1016 0.22578 0.21415 0.4517 0.31575 0.67748 0.14676 0.32737 0.25993 0.666 0.32763 1.016 0.0225 0.1016 0.034 0.20329 0.0114 0.30489-0.0225 0.0903-0.0791 0.14676-0.15814 0.14676-0.2032 0-0.37227-0.429-0.40619-0.58705-0.0678-0.25964-0.10155-0.53056-0.14674-0.8015-0.079-0.53058-0.18105-1.05-0.35038-1.558-0.15804-0.45156-0.41741-1.016-0.98185-1.016-0.0903 0-0.19193 0.0226-0.29353 0.0791-0.17711 0.14765-0.25071 0.44149-0.26252 0.80047 0.0629 0.19362 0.11004 0.41144 0.13695 0.66714 0.0114 0.0564 0.0109 0.1016 0.0222 0.14676 0.0225 0.13547 0.0451 0.27071 0.0677 0.40618 0.0677 0.42897 0.13558 0.83538 0.23718 1.2418 0.0339 0.14676 0.0904 0.29397 0.14676 0.42943 0.0228 0.0339 0.0342 0.0674 0.0455 0.10129 0.0903 0.0452 0.18056 0.0793 0.28216 0.11317 0.0564 0.0226 0.12403 0.0452 0.19171 0.0791l0.0114 0.0563c0.31607 0.14675 0.53078 0.57581 0.4744 0.95963 0.28001 0.16477 0.57152 0.33518 0.93842 0.39481 0.2258 0 0.33824-0.0336 0.45114-0.11266 0.0564-0.0452 0.0904-0.10184 0.0904-0.18086 0-0.0903-0.0114-0.18048-0.0228-0.27079-0.0114-0.13546-0.0111-0.25978 0.0228-0.38395 0.0225-0.0677 0.0568-0.1352 0.11316-0.18035 0.0111-0.0113 0.0337-0.0226 0.0563-0.0114 0.0225 0.0113 0.0114 0.0337 0 0.0563-0.0339 0.1016-0.0225 0.20329 0 0.30489 0.0565 0.21449 0.19193 0.57547 0.44029 0.62063 0.11287 0.0113 0.22559 0.0341 0.33848 0.0341 0.1016 0 0.20328 0.0114 0.30488 0.0114 0.0953 0 0.19058-7e-3 0.28578-0.0253-0.0816-0.16204-0.1392-0.33611-0.17002-0.49403-0.0406-0.2099-7e-3 -0.41102 0.0863-0.58032-0.0514-0.0703-0.10748-0.12695-0.16846-0.15348-0.0903-0.0339-0.18056-0.0791-0.28216-0.0904-0.0338 0-0.0564-0.0111-0.0677-0.045-0.22503-0.45005-0.42133-0.92806-0.56224-1.4201-0.30361-0.0447-0.49118-0.42467-0.59738-0.67954-0.0114-0.0339-0.0228-0.0679-0.0341-0.10181-0.0564-0.13546-0.12431-0.27087-0.1695-0.42891-0.0565-0.2032-0.12395-0.50815-0.045-0.82424 0.0458-0.18326 0.11795-0.33382 0.20876-0.45992-0.17402-0.0921-0.3578-0.16071-0.52761-0.16071zm19.52 0.0222c-0.0225 0-0.056 8e-5 -0.0899 0.0114-0.50908 0.14685-0.83799 0.54909-0.93895 1.0434 0.35123 0.29951 0.60616 0.68952 0.69194 1.1627 0.35057 0.4908 0.68236 1.0532 0.83354 1.4175 0.079 0.16934 0.14705 0.3501 0.19225 0.53072 0.0111 0.0339 0.0225 0.045 0.0563 0.0563 0.0564 0.0113 0.113 0.0228 0.16949 0.0341 0.0452 0.0113 0.0901 0.0225 0.12403 0.0563-0.0114 0.0113-0.0228 0.0114-0.0341 0.0114h-0.16899c-0.13549 0-0.27125 8e-5 -0.40669 0.0114-0.087 0-0.18566 0.0388-0.25736 0.10077 0.0534 0.20475 0.0879 0.40621 0.10956 0.55397h-0.0114v0.16898c-3e-3 0.0316-5e-3 0.0622-0.0109 0.092 5e-3 7e-3 7e-3 0.0143 0.0119 0.0212 0.0903 0.13547 0.21463 0.21454 0.38397 0.22583 0.0677 0 0.13538-0.0115 0.20309-0.0227 0.16936-0.0339 0.33864-0.0336 0.50798-0.0336l0.33898 0.0336c0.0339 0 0.0674-0.0115 0.10128-0.0227 0.10168-0.0452 0.14698-0.12415 0.18087-0.21446 0.079-0.2032 0.0453-0.40606 0.0114-0.60926s-0.147-0.36142-0.32764-0.46302c-0.0564-0.0339-0.09-0.079-0.10128-0.13539-0.0111-0.079-0.0342-0.15818-0.0455-0.2372-0.0225-0.13546-0.0225-0.27079 0.0114-0.41754 0.0339 0.0451 0.0793 0.045 0.11316 0.0563 0.39513 0.16933 0.59822 0.57561 0.56433 1.0046-0.0114 0.14675-0.0228 0.29353-0.0114 0.44028 0.0114 0.13547 0.0566 0.25998 0.16949 0.339 0.12417 0.1016 0.27096 0.15813 0.4403 0.15813 0.2032 0 0.40648-0.0117 0.59841-0.0568 0.11287-0.0339 0.23698-0.0561 0.34985-0.10129 0.0565-0.0226 0.11285-0.0453 0.14674-0.1018l0.0677-0.0114c0.0451-0.079 0.0677-0.16911 0.0677-0.25942 0-0.25964-0.14642-0.779-0.46252-0.81287-0.0451-0.0113-0.0907-0.0114-0.13592-0.0114-0.0452 0-0.0902 8e-5 -0.13539 0.0114h-0.23667c-0.0225 0-0.0455-1.6e-4 -0.0568-0.0227-0.0114-0.0226 0.0114-0.0337 0.0228-0.045 0.0339-0.0339 0.0788-0.045 0.12401-0.0563 0.10152-0.0339 0.10168-0.0338 0.0791-0.13539-0.0452-0.18063-0.0903-0.37291-0.13541-0.56482-0.0452-0.2032-0.20305-0.39497-0.41754-0.41755-0.1016-0.0113-0.20328-1.6e-4 -0.30488-0.0227-0.1129-0.0226-0.22612-0.0336-0.33901-0.0336-0.0114 0-0.0337 0.0112-0.045-0.0114 0.27094-0.13547 0.54174-0.27115 0.71107-0.54209 0.12417-0.19191 0.11324-0.42864-0.0222-0.60926-0.0565-0.079-0.12454-0.14673-0.19222-0.21446-0.13552-0.13546-0.18045-0.29377-0.12404-0.47439 0.0339-0.13546 0.0788-0.27071 0.11266-0.40618 0.0338-0.14675-0.0111-0.23716-0.13539-0.30489-0.0225-0.0113-0.0451-0.0228-0.0677-0.0341-0.16934-0.0677-0.35002-0.10129-0.51935-0.10129-0.16934 0-0.32719 0.0339-0.48525 0.0791-0.0565 0.0113-0.11285 0.0339-0.14674 0.0791-0.1016 0.16934-0.1357 0.36103-0.10181 0.55294 0.0451 0.27093 0.16973 0.51932 0.35036 0.73381 0.0677 0.0677 0.12396 0.14681 0.18034 0.22582 0.0677 0.11289 0.0791 0.2256 0.0114 0.33849-0.0677 0.12417-0.19209 0.1922-0.31626 0.25993-0.0114 0.0113-0.0222 0.0108-0.0336 0.0108-0.0225 0-0.0342-0.0111-0.0455-0.045-0.0451-0.14675-0.0902-0.29353-0.13538-0.44028-0.1355-0.45156-0.44-1.4563-0.83511-1.7611-0.0677-0.0452-0.13591-0.0677-0.20359-0.0677zm-18.939 0.0594v9e-3c3e-3 -2e-3 4e-3 -5e-3 6e-3 -8e-3 -3e-3 -5.3e-4 -5e-3 -1e-3 -7e-3 -2e-3zm0.75449 0.076c-0.34997 0.0339-0.55301 0.27104-0.63201 0.59842-0.045 0.19191-0.0114 0.39513 0.045 0.58704 0.1016 0.31609 0.25971 0.62108 0.45164 0.9033 0.0111 0.0226 0.0337 0.0336 0.045 0.0336 0.0114 0 0.0228 5.3e-4 0.0341-0.0109 0.0225-0.0226 0.0565-0.0342 0.0904-0.0455 0.0452-0.0113 0.0788-0.0227 0.12404-0.0227 0.3048 0 0.5983 0.25982 0.8015 0.46302 0.38383 0.34996 1.0046 1.3432 1.0046 1.7947-0.0338-0.0113-0.0451-0.0337-0.0677-0.045-0.0791-0.0677-0.16904-0.10129-0.24805-0.10129-0.079 0-0.15814 0.0334-0.22582 0.0786-0.15803 0.1016-0.22614 0.27111-0.19224 0.46302 0.0452 0.28222 0.15814 0.60955 0.45164 0.72244h0.12404c0.22577-0.0903 0.48535-0.11266 0.72242-0.11266 0.079 0 0.16957 0.0114 0.24857 0.0114 0.12417 0 0.24839 0.0222 0.37259 0.0222 0.13541 0 0.21452-0.079 0.22582-0.21446v-0.0336c0.0225-0.22577 0-0.45154-0.11316-0.65474-0.0678-0.12417-0.16907-0.21453-0.32711-0.22582-0.0452 0-0.0563-0.0225-0.0563-0.0677 0-0.64347-0.20362-1.7951-0.64389-2.2128-0.0564-0.0452-0.12395-0.0789-0.18036-0.13539 0.0338-0.0113 0.0565-0.0114 0.0791-0.0114 0.18063 0.0226 0.36097 0.0451 0.54155 0.0677 0.079 0.0113 0.16957 0.0227 0.24858 0.0227 0.46283 0 0.67722-0.19198 0.72244-0.66611h0.0341c0.0225-0.22578-0.023-0.44017-0.12454-0.64337-0.0225-0.0339-0.0337-0.034-0.0563-0.0114-0.0338 0.0339-0.0675 0.0679-0.11266 0.0904-0.15807 0.1016-0.32735 0.14632-0.50798 0.15761-0.42897 0-0.73403-0.0673-1.1291-0.23668-0.2258-0.1016-0.44035-0.23747-0.66612-0.35036-0.38383-0.2032-0.66595-0.21446-1.0836-0.21446zm-4.979 0.0357c0.0148 0.17949-0.0518 0.30535-0.10953 0.37466-0.0848 0.0969-0.20553 0.15761-0.35089 0.15761-0.31496 0-0.63003 0.0485-0.98134 0.10904h-0.0124c-0.0727 0.0121-0.16952 0.0243-0.27855 0.0243-0.13661 0-0.264-0.0328-0.38188-0.0863 7e-3 0.0659 0.0138 0.13184 0.0228 0.19792 0.034 0.24833 0.14647 0.44048 0.3271 0.54208l0.40669 0.20309c0.0339 0.0226 0.0674 0.0453 0.10129 0.10181-0.12417-0.0452-0.23696-0.0679-0.34984-0.0904-0.0339 0-0.0563-2.1e-4 -0.0563 0.045 0 0.29351 0.0111 0.3838 0.13539 0.65474 0.3951 0.77893 0.88056 1.7839 0.88056 2.6644 0 0.15804-0.0225 0.3049-0.0563 0.45165-0.0225 0.0903-0.0114 0.124 0.045 0.19172 0.23707 0.23707 0.71131 0.47439 1.0387 0.47439 0.14676 0 0.27114-0.0454 0.39534-0.11317 0.18057-0.1016 0.20314-0.3163 0.0677-0.54208-0.14677-0.24836-0.28234-0.50791-0.38394-0.79014-0.1016-0.31609-0.23699-0.60931-0.49662-0.83509-0.0452-0.0339-0.0906-0.0677-0.11317-0.13539 0.0225-0.0113 0.0451 0.0109 0.0677 0.0222 0.12423 0.0451 0.2598 0.0677 0.38397 0.0677 0.1129 0 0.21465-0.0113 0.31625-0.0677 0.0114-0.0113 0.0222-0.0114 0.0336-0.0114s0.0227-0.0112 0.0341 0.0114v0.0341c-0.0114 0.0339-0.0342 0.0565-0.0569 0.0791-0.079 0.0903-0.1125 0.20317-0.0899 0.36122 0.0111 0.079 0.0337 0.15817 0.0563 0.23719 0.1919 0.51929 0.64317 1.5126 1.2754 1.5126 0.4064 0 0.63238-0.58729 0.67749-0.91467l-0.0563 0.0341c0.0339-0.21449-0.10181-0.47436-0.24858-0.54209-0.0452-0.0226-0.0903-0.045-0.13538-0.0563-0.2032-0.0677-0.40659-0.15797-0.60979-0.28215-0.0452-0.0339-0.0903-0.0677-0.13539-0.13539 0.0565 0.0113 0.10155 0.0223 0.14677 0.0336 0.0111 0 0.0342 0.0113 0.0455 0 0.0114-0.0226-5e-5 -0.045-0.0114-0.0563-0.0677-0.16933-0.13579-0.33873-0.18087-0.51935-0.14677-0.56444-0.21408-1.129-0.30438-1.6934-0.0225-0.15804-0.0225-0.32719-0.0677-0.48524-0.2142-0.69361-0.4268-0.9662-0.99012-1.2289zm19.516 0.0816c-0.29107 0.22008-0.62156 0.35399-0.99941 0.35399-0.023 0-0.0524-0.0106-0.0796-0.0181-4e-3 0.12371 2.4e-4 0.24732 7e-3 0.37103 0.0225 0.31609 0.16928 0.55302 0.42892 0.71107 0.14676 0.0903 0.30496 0.14673 0.46302 0.21446 0.13547 0.0564 0.27117 0.10177 0.39534 0.1695 0.0225 0.0113 0.045 0.0224 0.0563 0.0563-0.12417-0.0226-0.23707-0.045-0.36124-0.045-0.0452 0-0.0567 0.0112-0.0341 0.0563 0.079 0.15804 0.15814 0.31634 0.22582 0.47439 0.18066 0.44026 0.35002 0.88007 0.51935 1.3203 0.0339 0.1016 0.0678 0.20329 0.0904 0.30489 0.0111 0.0452 0.0111 0.0792-0.0341 0.1018s-0.0904 0.0564-0.14676 0.0677c-0.0339 0-0.0678 0.0224-0.0904 0.045-0.1016 0.0903-0.11258 0.20346-0.10128 0.32763 0.0225 0.4064 0.2708 0.82424 0.71107 0.82424 0.0452 0 0.0788-0.0114 0.11266-0.0114 0.2032-0.0339 0.39521-0.0791 0.59841-0.0791 0.0564 0 0.11311-0.0115 0.16949-0.0227 0.079-0.0226 0.11311-0.0792 0.10181-0.1695-0.0111-0.1016-0.0342-0.19184-0.0568-0.28215-0.0114-0.0226-0.0222-0.0451-0.045-0.0677-0.0564-0.0564-0.11308-0.11262-0.16949-0.18035-0.0565-0.0677-0.11285-0.14689-0.14677-0.2372 0.19193 0.19191 0.48549 0.3497 0.73382 0.47388 0.0339 0.0226 0.0793 0.0116 0.11317 0.0455 0.0564 0.0451 0.12401 0.0679 0.19171 0.0904 0.16934 0.0564 0.33864 0.0902 0.50798 0.13539 0.0452 0.0113 0.10157 0.0222 0.14676 0.0222 0.0339 0 0.0565 5.3e-4 0.0904-0.0108v-0.0114c0.079-0.0226 0.12403-0.0791 0.12403-0.15813v-0.1018c-0.0451-0.3048-0.15777-0.78983-0.32713-1.0382-0.0225-0.0339-0.0452-0.0568-0.0904-0.0455-0.0564 0.0113-0.11309 0.0114-0.1695 0.0114-0.32736 0-0.63206-0.11287-0.85783-0.36122-0.0114-0.0113-0.0228-0.0228-0.0114-0.0341 0.0114-0.0226 0.0337-0.0113 0.0449 0 0.0564 0.0226 0.11308 0.0343 0.16949 0.0569 0.0452 0.0113 0.0793 0.0222 0.11316 0.0222 0.1129 0 0.2031-0.0674 0.2708-0.16898 0.20326-0.29351 0.30475-0.62113 0.28216-0.98237-0.0452-0.77893-0.65495-1.298-1.3436-1.5689-0.38383-0.14675-0.76755-0.29369-1.1514-0.46302-0.14877-0.07-0.2976-0.13946-0.45164-0.19895zm-10.657 0.2713c0.14052 0.26655 0.19584 0.55449 0.17364 0.84233-0.0503 0.60381-0.35372 0.96318-0.92244 1.0346 0.11025 0.0913 0.22016 0.18295 0.34107 0.26355 0.0677 0.0452 0.13531 0.0904 0.19172 0.15813-0.0677-0.0339-0.13539-0.0792-0.20309-0.1018-0.0903-0.0339-0.18093-0.0675-0.25993-0.11266-0.0833-0.05-0.17306-0.087-0.26406-0.12144 0.1518 0.40582 0.23162 0.84859 0.29041 1.2831 0.3619 0.74022 0.92591 1.4713 1.6221 1.5022 0.3838 0 0.67691-0.13556 0.8914-0.45165l0.0114-0.0222c0.27099-0.39511 0.3729-0.84679 0.33898-1.3322-0.0564-0.83538-0.40637-1.6598-1.095-2.1678-0.35118-0.27436-1.0749-0.74714-1.1162-0.77411zm-3.3714 0.99994c0.0903 0 0.16912 0.023 0.25943 0.0568 0.15803 0.0677 0.30493 0.15774 0.45164 0.24805 0.0114 0 0.0227 8e-5 0.0227 0.0114 0 0.0113-0.13554 0.0227-0.15814 0.0227h-0.0336l-0.0228 0.045c-0.0111 0-0.0342-0.0113-0.0455 0-0.0114 0.0113 8e-5 0.0228 0.0114 0.0341 0.079 0.13546 0.14676 0.28216 0.21447 0.42891 0.0114 0.0113 0.0114 0.0223 0.0114 0.0336-0.28223-0.28222-0.62069-0.53036-0.99322-0.69969-0.0225-0.0113-0.0563-0.0111-0.0563-0.045s0.0337-0.0456 0.0563-0.0568c0.0903-0.0564 0.19185-0.0791 0.28215-0.0791zm-5.6146 0.49713c0.0678 0.0113 0.12417 0.0787 0.14676 0.16898 0.0114 0.0451 0.0109 0.0902 0.0222 0.13539 0 0.0677 0.0114 0.1358 0 0.19224-0.0114 0.13547 0.0341 0.24825 0.10181 0.34985l-0.0228 0.0227 0.0341 0.0336c0.0114 0.0113 0.034 0.0229 0.0227 0.0455-0.0111 0.0226-0.0342-8e-5 -0.0455-0.0114-0.1129-0.0677-0.21452-0.15806-0.29353-0.29352-0.1016-0.15805-0.11303-0.33873-0.0904-0.51935 0.0114-0.079 0.0794-0.13532 0.12454-0.12403zm20.649 0.24805c0.22576 0.0339 0.42899 0.10188 0.58703 0.25993 0.12411 0.12417 0.14663 0.31583 0.0563 0.47387-0.0225 0.0339-0.0337 0.0679-0.0563 0.1018-0.0339 0.0564-0.0795 0.0791-0.13589 0.0791-0.0338 0-0.045-0.0229-0.0563-0.0455l-0.13539-0.54157c-0.0114-0.0564-0.0338-0.10204-0.0677-0.13591-0.0565-0.0677-0.12401-0.12398-0.19171-0.19171zm-11.247 0.75654c0.16931 0.0339 0.47408 0.282 0.57568 0.40618h-0.0114c0.0904 0.1016 0.13547 0.21481 0.14677 0.33899 0.0225 0.13547-0.12404 0.25934-0.2708 0.24805-0.079-0.0113-0.1356-0.0449-0.1695-0.11265-0.0677-0.13547-0.1012-0.27131-0.0899-0.41807 0.0114-0.11288-0.0225-0.20269-0.0677-0.293-0.0339-0.0564-0.068-0.11306-0.11316-0.1695zm8.2098 0c0.1693 0.0339 0.47408 0.282 0.57568 0.40618h-0.0114c0.0904 0.10159 0.13547 0.2143 0.14676 0.33848 0.0225 0.13546-0.12403 0.25985-0.2708 0.24856-0.079-0.0113-0.13507-0.0449-0.16896-0.11265-0.0676-0.13547-0.10173-0.27131-0.0904-0.41807 0.0114-0.11288-0.0225-0.20321-0.0677-0.29352-0.0339-0.0564-0.0681-0.11254-0.11316-0.16898z" fill="url(#a)"/><path d="m102.64 95.596c-0.41185 0-0.93252 0.15766-1.0537 0.59376-0.0485-0.01211-0.097-0.0124-0.13333-0.0124-0.60571 0-0.99351 0.62994-1.1147 1.1508-0.0848 0.32707-0.12092 0.69073-0.12092 1.1389 0 0.28137 0.0128 0.55781 0.046 0.83561-0.23334-0.7388-0.87125-1.2606-1.6154-1.5384l-0.13333-0.04857c-0.3634-0.13325-0.73856-0.26627-1.0898-0.42375l-0.14574-0.07286c-0.16959-0.07268-0.33919-0.1451-0.52088-0.20567-0.15748-0.06057-0.26662-0.10893-0.35142-0.1695-0.0606-0.04846-0.14494-0.10916-0.24183-0.15762-0.0848-0.03634-0.16997-0.06046-0.25477-0.06046-0.22442 0-0.39269 0.13072-0.51316 0.30541-0.0596-0.01476-0.14134-0.01499-0.26561-0.01499-0.43611 0.03634-0.90837 0.3635-1.078 0.76326-0.10903-0.04846-0.35139-0.08475-0.46043-0.08475-0.81163 0-1.3689 0.72694-1.3689 1.5022 0 0.16724 0.0251 0.33386 0.0656 0.49816-0.14735-0.31691-0.27847-0.65201-0.33229-1.0072-0.0363-0.23016-0.0122-0.43582 0.0605-0.61753 0.0848-0.19382 0.0485-0.40011-0.10904-0.55759-0.33917-0.33919-0.83553-0.64182-1.3322-0.64182-0.52091 0-0.87249 0.21808-0.94517 0.73897-0.32708-0.37553-0.72657-0.6904-1.2475-0.6904-0.46239 0-0.81722 0.17852-1.0511 0.47542-0.33004-0.28843-0.76795-0.524-1.2061-0.524-0.52088 0-0.87196 0.21808-0.94464 0.73897-0.32708-0.37553-0.7271-0.6904-1.248-0.6904-0.7874 0-1.2717 0.50881-1.3565 1.2599-4.2e-4 0.0048 3.4e-4 0.0086 0 0.01344-0.0936-0.04063-0.20831-0.05012-0.35555-0.05012 0.0848-0.04846 0.13317-0.10864 0.16949-0.1571 0.13328-0.20594 0.061-0.42444 0.0367-0.49713-0.1938-0.65415-0.61825-1.6593-1.4299-1.6593-0.47244 0.06057-0.78716 0.25417-1.0537 0.64182-0.0121 0.01211-0.0241 0.02458-0.0362 0.03669-0.0969 0.14537-0.14544 0.3149-0.13332 0.49661 0.0485 0.39976 0.26667 0.78736 0.48471 1.1265l0.048 0.08475c0.15748 0.24228 0.35131 0.339 0.62995 0.339-0.0606 0.06057-0.10859 0.13328-0.13282 0.21807-0.0727 0.21805 0.0241 0.39964 0.0605 0.47232 0.16957 0.31496 0.3026 0.58179 0.42373 0.86042 0.0606 0.13325 0.12134 0.2662 0.1819 0.39946 0.13327 0.31496 0.27869 0.64208 0.43617 0.95704 0.10901 0.20594 0.19373 0.43624 0.27852 0.67851-0.13324 0.10903-0.19378 0.31513-0.19378 0.48473-0.0121 0.42399 0.12121 0.77529 0.24236 1.0418 0.0601 0.13315 0.14399 0.25443 0.24495 0.35708-0.0335 0.13087-0.043 0.28416-0.0207 0.46612 0.0452 0.33867 0.20323 0.60943 0.4403 0.77877 0 0.47413 0.0562 0.59826 0.27077 1.016 0.29353 0.59831 0.57589 1.219 0.67749 1.8738l0.0114 0.0677c0.0226 0.12418 0.045 0.2374 0.045 0.339 0 0.12418-0.0111 0.23704-0.045 0.36122-0.0564 0.21449-0.0228 0.3836 0.12401 0.55293 0.28223 0.32739 0.89151 0.64389 1.3431 0.64389 0.3048 0 0.66635-0.14704 0.84696-0.40669 0.0452 0.0226 0.0902 0.0451 0.13541 0.0677 0.1806 0.1016 0.34975 0.1354 0.48524 0.1354 0.46006 0 0.77312-0.36469 0.94049-0.77412 0.3065 0.21703 0.67413 0.3545 1.0816 0.36794 0.3274 0 0.55351-0.0677 0.77928-0.29353 0.079 0.0452 0.16928 0.0791 0.28215 0.0904h0.10131c0.0903 0.0113 0.19198 0.0222 0.30488 0.0222h0.0791c0.079 0 0.15827 0.0114 0.24857 0.0114 0.16555 0 0.34103-0.0207 0.52555-0.076 0.13869 0.13453 0.30985 0.22273 0.51572 0.22273 0.0677 0 0.13528-0.011 0.19172-0.0336l0.0455-0.0114c0.0339-0.0113 0.0678-0.0227 0.0904-0.0227 0.13547-0.0339 0.27089-0.045 0.42892-0.045 0.079 0 0.15775 0.0114 0.24805 0.0114h0.13539c0.079 0.0113 0.1697 0.0222 0.2713 0.0222 0.34996-0.0113 0.58714-0.24846 0.59841-0.59841v-0.045c-4.3e-4 -0.0184-4e-3 -0.0365-5e-3 -0.0548 0.27905 0.27946 0.64196 0.47232 1.1167 0.47232 0.49673 0 0.91409-0.2256 1.1963-0.632 0.3161-0.46285 0.45183-0.99332 0.40669-1.5916l0.0114 0.0222c-0.0362-0.44441-0.14216-0.86804-0.31729-1.2573 0.60042 1.0481 1.0349 2.4115 1.1431 3.4928 0.0451 0.45156 0.64304 0.6997 1.0382 0.6997 0.23707-0.0113 0.67744-0.11268 0.89194-0.6997 0.0226-0.079 0.0452-0.15817 0.0677-0.23719 0.3048 0.42898 0.84669 0.85783 1.3886 0.85783 0.64346 0 1.1742-0.50773 1.2645-1.1286 2.9e-4 -1e-3 2.4e-4 -3e-3 5e-4 -4e-3 0.33647 0.29073 0.71544 0.47801 1.1183 0.47801 0.4967 0 0.91459-0.2256 1.1968-0.632 0.0551-0.0806 0.10268-0.16387 0.14676-0.24857 0.0677 0.6096 0.44037 1.1741 1.1064 1.1741 0.0677 0 0.13536-7e-5 0.20309-0.0114 0.0339 0 0.0674-0.0109 0.10129-0.0222 0.14673-0.0226 0.29395-0.0455 0.42941-0.0455 0.1016 0 0.18032-0.0223 0.24805-0.0336h0.0114c0.2032-0.0452 0.35015-0.19204 0.39531-0.38395 0.0339 0.0113 0.0673 0.0223 0.0899 0.0336l0.0227 0.0114c0.14674 0.0564 0.29353 0.0907 0.44029 0.12454l0.10179 0.0336c0.0903 0.0226 0.16896 0.0341 0.2367 0.0341 0.079 0 0.14671-0.0115 0.21444-0.0341 0.06-0.0164 0.11462-0.0408 0.1633-0.0718 0.1664 0.18892 0.39037 0.30902 0.65111 0.30902 0.0677 0 0.12436-0.0114 0.16952-0.0227h0.0791c0.0903-0.0113 0.19185-0.0114 0.28215-0.0114h0.48525c0.22577 0 0.41799-0.0789 0.55345-0.27078 0.18061 0.11288 0.37256 0.1695 0.58703 0.1695 0.27094 0 0.4966-0.0226 0.71107-0.0791 0.0226-0.0113 0.0452-0.0114 0.0677-0.0114 0.0779-0.0181 0.14835-0.0398 0.21548-0.0636 0.14176 0.13105 0.30763 0.22169 0.48577 0.22169 0.13544 0 0.23707-0.0567 0.2935-0.1018 0.18063-0.0564 0.33875-0.0677 0.51935-0.0677 0.079 0.0113 0.16921 0.0338 0.27081 0.0563 0.1016 0.0226 0.21481 0.0564 0.33898 0.0677l0.0563 0.0114c0.0903 0.0113 0.19193 0.0114 0.29353 0.0114h0.13539c0.54186-0.0677 0.88061-0.49676 0.95964-1.0273 0.0564-0.34996-0.0227-0.65443-0.2372-0.90279l0.0791 0.0563c-0.12417-0.14676-0.24842-0.27099-0.37259-0.37259-0.079-0.0565-0.15817-0.11305-0.2372-0.1695 0.0452-0.0339 0.0902-0.0789 0.13539-0.12402 0.18063-0.19191 0.21471-0.39494 0.10181-0.632-0.24836-0.508-0.63201-1.5352-0.63201-2.111 0-0.16934-2.9e-4 -0.32764 0.0336-0.47439 0.0452-0.15805 0.0226-0.29329-0.0677-0.40618s-0.21453-0.1695-0.37259-0.1695c-0.45154 0-0.80148 0.25955-1.016 0.64337-0.0449-0.0513-0.0992-0.10114-0.15864-0.14831 0.12594-0.0978 0.23077-0.23592 0.33692-0.42168 0.0242-0.0363 0.0482-0.0729 0.0723-0.0971 0.20595-0.32708 0.32718-0.70256 0.35142-1.1266 0.0242-0.37553-0.0362-0.76302-0.16952-1.187v-0.0605c-0.13325-0.41188-0.30295-0.7996-0.46043-1.1751-0.0485-0.12114-0.0967-0.24215-0.1452-0.36328l-0.0119-0.0124c-0.0848-0.19382-0.16958-0.37536-0.19381-0.55707-0.0121-0.13325 0.0121-0.22991 0.0847-0.31471 0.14537-0.19382 0.15725-0.48469-0.0971-0.67851-0.44823-0.37553-0.83603-0.48473-1.4175-0.48473-0.32708 0-0.64156 0.10896-0.84749 0.38758-0.0591 0.04982-0.10165 0.09424-0.13694 0.13591-0.0312-0.01163-0.0629-0.02168-0.0966-0.02687-0.21804 0-0.29078 0.06083-0.43614 0.20619-0.0848 0.06057-0.19386 0.09692-0.32713 0.10904-0.37552 0-0.66643-0.07271-1.0056-0.21807-0.12115-0.06057-0.24194-0.13351-0.37518-0.20619-0.46032-0.29073-0.90882-0.47232-1.4661-0.47232-0.40137 0-0.73054 0.1121-0.96739 0.34778-0.1219-0.29027-0.31626-0.43253-0.8051-0.43253h-0.0243c-0.29065 0.02422-0.51898 0.08308-0.73692 0.19844-0.0138-0.05729-0.0281-0.10299-0.0419-0.16226l-0.0124-0.06046c-0.0485-0.19382-0.0969-0.41188-0.19378-0.62994-0.14536-0.31496-0.38766-0.49661-0.73898-0.49661zm0.0486 0.50901c0.13327 0.01211 0.24201 0.09677 0.31472 0.25425 0.0848 0.19382 0.13346 0.39971 0.1819 0.60565 0.23016 0.94488 0.49647 1.9382 0.96893 2.7983 0.0242 0.04846 0.049 0.09698 0.0853 0.13333 0.0363 0.04846 0.0484 0.09704 0.0362 0.15762-0.0363 0.21805-0.0849 0.3753-0.24236 0.53278-0.12115 0.16959-0.26657 0.22996-0.43617 0.22996-0.49667 0-0.78721-0.29076-0.96893-0.73897-0.10901-0.25439-0.19373-0.52082-0.27852-0.79944-0.0121-0.02423-0.0125-0.06046-0.0367-0.06046-0.0242-0.01211-0.0241 0.02435-0.0362 0.04858-0.0242 0.0848-0.0241 0.18162-0.0362 0.27854-0.0363 0.54512 0.12118 1.0541 0.3271 1.5508 0.0848 0.19382 0.24205 0.46022 0.42376 0.58136 0.0606 0.0485 0.10914 0.0605 0.15761 0.0605 0.0727 0 0.12097-0.0727 0.14521-0.21807 0.0606-0.25439 0.3756-0.60565 0.65421-0.60565 0.0363 0 0.0727 0.0122 0.10906 0.0243 0.13324 0.0363 0.2667 0.0847 0.39997 0.1695 0.0485 0.0242 0.0723 0.0603 0.0723 0.12092-0.0242 0.29073 0.0125 0.59374 0.0367 0.89658 0.0121 0.1696 0.024 0.33942 0.0119 0.50902l-0.0243-0.0124c-0.0606 0.58146-0.56959 0.98133-1.139 0.98133-1.175 0-2.1195-1.9259-2.4345-2.9435-0.0969-0.30284-0.15748-0.6178-0.21807-0.93276-0.0242-0.15748-0.0487-0.31536-0.0729-0.47284-0.0242-0.24228-0.0243-0.48429-0.0243-0.72657 0-0.56935 0.0609-1.4779 0.61807-1.7808 0.0727-0.03634 0.13322-0.06046 0.19378-0.06046 0.19383 0 0.37547 0.16959 0.49662 0.41186 0.0485 0.0848 0.0849 0.18163 0.13333 0.27854-0.0606-0.31496-0.10904-0.55734-0.10904-0.8723 0-0.3513 0.42389-0.39946 0.69038-0.39946zm-21.629 0.12092c0.14536-0.01211 0.26615 0.10905 0.37515 0.21807 0.24231 0.24228 0.48499 0.81164 0.5819 1.1508 0.0363 0.13325 0.0116 0.18167-0.0853 0.19379-0.35129 0.06057-0.69043 0.13317-1.0175 0.27854l0.0367 0.0124c-0.0242 0.01211-0.0363 0.01188-0.0605 0.01188-0.19383 0-0.49702-0.61789-0.55761-0.76326-0.0606-0.12114-0.1088-0.24244-0.12091-0.37569-0.0121-0.0848-1.4e-4 -0.1451 0.0362-0.20567 0.20596-0.31496 0.42421-0.47244 0.81185-0.5209zm14.851 0.79943c0.0242 0 0.0487 0.01217 0.0729 0.02429 0.0606 0.02423 0.12102 0.06081 0.16949 0.09715 0.14536 0.10902 0.30271 0.18128 0.47234 0.24184 0.21804 0.07268 0.42399 0.16974 0.62992 0.26665 0.41187 0.18171 0.82372 0.33913 1.2356 0.49661 0.73896 0.29073 1.3933 0.84828 1.4418 1.6841 0.0242 0.38765-0.0848 0.73872-0.30285 1.0537-0.0727 0.10903-0.16978 0.18191-0.29093 0.18191-0.0363 0-0.0725-0.0122-0.12092-0.0243-0.0606-0.0242-0.12133-0.0362-0.1819-0.0605-0.0121-0.0121-0.0364-0.0242-0.0486 0-0.0121 0.0121 2.9e-4 0.024 0.0124 0.0362 0.24228 0.2665 0.56904 0.38757 0.92036 0.38757 0.0606 0 0.12134 2.2e-4 0.1819-0.0119 0.0485-0.0121 0.0729 0.0117 0.0971 0.0481 0.18169 0.2665 0.30242 0.78758 0.35087 1.1147v0.10903c0 0.0848-0.048 0.14528-0.1328 0.1695v0.0124c-0.0363 0.0121-0.0608 0.0119-0.0971 0.0119-0.0485 0-0.10917-0.0122-0.15761-0.0243-0.18172-0.0485-0.36349-0.0846-0.54518-0.14521-0.0727-0.0242-0.14512-0.0487-0.20568-0.0971-0.0364-0.0363-0.0846-0.0238-0.12092-0.0481-0.26651-0.13325-0.58161-0.30307-0.78756-0.50901 0.0364 0.0969 0.097 0.18157 0.15761 0.25425 0.0606 0.0727 0.12081 0.13322 0.1814 0.19379 0.0242 0.0242 0.0364 0.0486 0.0486 0.0729 0.0242 0.0969 0.0483 0.1938 0.0605 0.30282 0.0121 0.0969-0.0242 0.15767-0.10904 0.1819-0.0606 0.0121-0.12083 0.0243-0.1814 0.0243-0.21804 0-0.42428 0.0484-0.64232 0.0847-0.0363 0-0.0725 0.0119-0.12092 0.0119-0.20643 0-0.27072-0.0904-0.28218-0.22634 0.0857-0.09 0.15693-0.19836 0.20569-0.33073 0.0727-0.19382 0.14557-0.59375-0.22998-1.0056l-0.0248-0.0362c-0.0385-0.0445-0.074-0.0924-0.1111-0.13849-6e-3 -0.0184-0.012-0.0369-0.0181-0.0553-0.18172-0.47244-0.36325-0.94505-0.55708-1.4175-0.0727-0.1696-0.15756-0.33942-0.24236-0.50901-0.0242-0.04846-0.0122-0.06046 0.0362-0.06046 0.13325 0 0.25432 0.02434 0.38756 0.04857-0.0121-0.03634-0.0362-0.04835-0.0605-0.06046-0.13325-0.07268-0.2784-0.12133-0.42376-0.1819-0.1696-0.07268-0.33965-0.13305-0.49713-0.22996-0.2786-0.1696-0.43568-0.42407-0.45992-0.76326-0.0121-0.24228-0.0241-0.48481 0.0243-0.72709 0.0121-0.10902 0.12078-0.44804 0.26614-0.44804zm8.4904 0.07286c0.22444 0 0.41561 0.18569 0.56277 0.41393-0.0437 0.09151-0.0832 0.1893-0.1111 0.30076-0.0441 0.17633-0.0446 0.34819-0.0274 0.50436-0.25392 0.03748-0.50607 0.08316-0.7524 0.15865-0.12581-0.3467-0.23945-0.73706-0.35036-1.1607 0.0259-0.01767 0.0534-0.03672 0.0729-0.04754 0.1938-0.09691 0.3997-0.14527 0.60563-0.1695zm-18.225 0.1695c0.33417 0 0.68593 0.21144 0.93895 0.43718-0.0401 0.11724-0.0722 0.24041-0.0873 0.37466-0.0136 0.16266 0.0163 0.2899 0.0904 0.39067 2.7e-4 0.07886 5e-3 0.15853 0.015 0.23926 0.0606 0.44822 0.22992 0.85959 0.42376 1.2594 0.0969 0.19382 0.18161 0.38805 0.27852 0.58187 0.10904 0.23017 0.21839 0.44806 0.33952 0.66611 0.0438 0.07 0.0908 0.10354 0.14829 0.12403-0.1202 0.50775-0.0716 1.0156 0.15815 1.5596 4e-3 0.01 9e-3 0.0165 0.0129 0.0258-0.0388 0.0164-0.0798 0.0294-0.12557 0.0351-0.23016 0.0363-0.47263 0.0605-0.70279 0.0605-0.29075 0-0.65437-0.0121-0.81185-0.30282-0.13324-0.24228-0.20571-0.50893-0.22995-0.78755-0.0242-0.21805 0.0972-0.3754 0.31523-0.36329h0.0723c0.0242 0 0.0484 0.0239 0.0605-0.0124 0.0121-0.0242-0.0241-0.0359-0.0362-0.0481-0.29072-0.23016-1.1628-0.78754-1.5141-0.78754-0.0242 0-0.0487-2.3e-4 -0.0729 0.0119 0.0242 0.0363 0.0605 0.0486 0.0848 0.0729 0.0848 0.0606 0.16997 0.12133 0.25477 0.1819 0.0242 0.0121 0.0364 0.0362 0.0486 0.0605 0.0363 0.0848 0.0605 0.16945 0.0847 0.25424 0.0242 0.0606-0.0123 0.12121-0.0729 0.13333-0.0363 0.0121-0.0727 0.0241-0.10903 0.0362-0.0121 0-0.0243 2.9e-4 -0.0243 0.0124 0 0.0242 0.0122 0.0241 0.0243 0.0362 0.0969 0.0485 0.19402 0.0846 0.29093 0.12092 0.15748 0.0606 0.2422 0.18181 0.27853 0.3514 0.0606 0.24228 0.0969 0.48458 0.0847 0.73897-0.0121 0.10903-0.0607 0.18174-0.15761 0.21808-0.26652 0.0969-0.78717 0.14521-1.0537 0.14521-0.1587 0-0.31642-0.0162-0.44752-0.0785-0.13205-0.34492-0.27522-0.67-0.39222-0.91467-0.0116-0.0232-0.0258-0.0432-0.0388-0.0646-0.0173-0.1981-7e-3 -0.39844 0.0424-0.60152 0.0242-0.0848 0.0607-0.15744 0.13332-0.19378 0.0121-0.0121 0.0241-0.0124 0.0362-0.0124s0.0245 0.0125 0.0367 0.0367c0.0242 0.0969 0.0482 0.19374 0.0724 0.27853 0.0121 0.0242 0.0246 0.0726 0.061 0.0605 0.0242 0 0.0119-0.0486 0.0119-0.0729 0-0.73894-0.81163-2.9795-1.5627-3.2339-0.0848-0.03634-0.0849-0.0367-0.0729-0.14573 0.0242-0.46033 0.29107-0.76293 0.75139-0.83561 0.0484-0.01211 0.0968-0.0124 0.1452-0.0124 0.27863 0 0.52094 0.12146 0.73898 0.33951 0.29073 0.29073 0.53308 0.61763 0.76325 0.96893 0.19383 0.32708 0.7997 1.272 1.1147 1.4537-0.0242-0.07268-0.0609-0.12104-0.0972-0.1695-0.2786-0.39976-0.72681-1.2236-0.8237-1.7203-0.0485-0.23016-0.0605-0.46023 0.0243-0.6904 0.0727-0.18171 0.327-0.21808 0.4966-0.21808zm4.4493 0c0.37552 0 0.77552 0.26651 1.0299 0.5209 0.0242 0.02423 0.0365 0.04841 0.0243 0.08475-0.10901 0.26651-0.13351 0.54539-0.0971 0.83612 0.0606 0.44822 0.23042 0.86011 0.42426 1.2599 0.0969 0.19382 0.18163 0.38754 0.27855 0.58136 0.10901 0.23016 0.21786 0.44805 0.33898 0.66611 0.0606 0.0969 0.12118 0.13309 0.21807 0.14521 0.15748 0.0242 0.27895 0.10894 0.33952 0.27853 8e-3 0.0216 0.0124 0.0435 0.0197 0.0651-0.0285 0.15276-0.0439 0.31507-0.0439 0.49248 4e-3 0.16013 0.035 0.30416 0.0847 0.43563v5.2e-4l-0.0367-0.0243c-0.0606 0.20593-0.19375 0.32717-0.38758 0.35139-0.23017 0.0363-0.4721 0.0605-0.70229 0.0605-0.29072 0-0.65434-0.0121-0.81182-0.30282-0.13324-0.24228-0.20574-0.50893-0.22997-0.78755-0.0242-0.21805 0.0967-0.3754 0.31472-0.36328h0.0729c0.0242 0 0.0484 0.0239 0.0605-0.0124 0.0121-0.0242-0.0241-0.0359-0.0362-0.0481-0.29072-0.23017-1.1628-0.78755-1.5141-0.78755-0.0242 0-0.0487-2.3e-4 -0.0729 0.0119 0.0242 0.0363 0.0606 0.0486 0.0847 0.0729 0.0848 0.0606 0.16947 0.12133 0.25427 0.1819 0.0242 0.0121 0.0364 0.0362 0.0486 0.0605 0.0364 0.0848 0.0605 0.16945 0.0847 0.25424 0.0242 0.0606-0.0118 0.12122-0.0724 0.13333-0.0363 0.0121-0.0727 0.0241-0.10904 0.0362-0.0121 0-0.0243 2.9e-4 -0.0243 0.0124 0 0.0242 0.0122 0.0241 0.0243 0.0362 0.0969 0.0485 0.19352 0.0846 0.29043 0.12092 0.15748 0.0606 0.24218 0.18181 0.27853 0.3514 0.0606 0.24228 0.0969 0.48459 0.0847 0.73898-0.0121 0.10902-0.0602 0.18173-0.15709 0.21807-0.26651 0.0969-0.78769 0.14521-1.0542 0.14521-0.29073 0-0.58113-0.048-0.70229-0.35088-0.16959-0.42399-0.24233-0.86023-0.13332-1.3084 0.0242-0.0848 0.0607-0.15744 0.13332-0.19379 0.0121-0.0121 0.0241-0.0124 0.0362-0.0124s0.0241 0.0125 0.0362 0.0367c0.0242 0.0969 0.0487 0.19375 0.0728 0.27854 0.0121 0.0242 0.0241 0.0726 0.0605 0.0605 0.0242 0 0.0119-0.0486 0.0119-0.0729 0-0.73895-0.81163-2.9795-1.5627-3.2339-0.0848-0.03634-0.0844-0.0367-0.0723-0.14573 0.0242-0.46033 0.29053-0.76293 0.75086-0.83561 0.0485-0.01211 0.0967-0.0124 0.1452-0.0124 0.27863 0 0.52094 0.12146 0.73898 0.33951 0.29073 0.29073 0.53311 0.61763 0.76324 0.96893 0.19384 0.32708 0.79971 1.272 1.1147 1.4537-0.0242-0.07268-0.0609-0.12104-0.0971-0.1695-0.27863-0.39976-0.72684-1.2236-0.82373-1.7203-0.0485-0.23016-0.0605-0.46023 0.0243-0.6904 0.0727-0.18171 0.32703-0.21808 0.4966-0.21808zm15.318 0.04857c0.44821 0 0.75137 0.01191 1.1632 0.22996 0.24228 0.12114 0.47241 0.26666 0.71469 0.37569 0.42399 0.1817 0.75097 0.25425 1.2113 0.25425 0.19383-0.01211 0.3756-0.06047 0.5452-0.1695 0.0485-0.02423 0.0846-0.06081 0.12091-0.09715 0.0242-0.02423 0.0362-0.02394 0.0605 0.0124 0.10904 0.21805 0.15756 0.44812 0.13332 0.6904h-0.0362c-0.0485 0.50878-0.27848 0.71468-0.77515 0.71468-0.0848 0-0.18185-0.01217-0.26665-0.02429-0.19381-0.02423-0.38754-0.04813-0.58137-0.07235-0.0242 0-0.0484-2.25e-4 -0.0847 0.01188 0.0606 0.06057 0.13322 0.09676 0.19381 0.14521 0.47244 0.44821 0.69038 1.684 0.69038 2.3745 0 0.0485 0.012 0.0724 0.0605 0.0724 0.16962 0.0121 0.27873 0.10911 0.35142 0.24236 0.12112 0.21805 0.14515 0.46053 0.12091 0.7028v0.0362c-0.0121 0.14537-0.097 0.23048-0.24236 0.23048-0.13324 0-0.26622-0.0243-0.39947-0.0243-0.0848 0-0.18184-0.0124-0.26664-0.0124-0.2544 0-0.53287 0.0245-0.77515 0.12144h-0.13333c-0.31496-0.12114-0.43627-0.47282-0.48471-0.77566-0.0363-0.20594 0.0365-0.38759 0.20619-0.49662 0.0727-0.0485 0.15756-0.0847 0.24236-0.0847s0.18134 0.0363 0.26614 0.10903c0.0242 0.0121 0.0365 0.0365 0.0729 0.0486 0-0.48455-0.66612-1.5504-1.078-1.926-0.21804-0.21805-0.53332-0.49661-0.86039-0.49661-0.0485 0-0.0844 0.01217-0.13283 0.02429-0.0363 0.01211-0.0729 0.02383-0.0971 0.04806-0.0121 0.01211-0.0241 0.0124-0.0362 0.0124s-0.0365-0.01246-0.0486-0.03669c-0.20592-0.30284-0.37568-0.62974-0.48471-0.96893-0.0606-0.20593-0.097-0.424-0.0486-0.62994 0.0848-0.3513 0.30297-0.60548 0.67852-0.64182zm-10.723 0.0041c-9e-3 0.03115-0.0176 0.06227-0.0238 0.0925-0.0606 0.29073-0.0486 0.56933-0.0243 0.82372 0.0485 0.71472 0.42439 0.96936 0.99375 1.248 0.0121 0.04846 0.024 0.10893 0.0605 0.1695 0.0298 0.05105 0.0559 0.10514 0.0827 0.15865-3e-3 0.01529-5e-3 0.03027-0.0139 0.04754-0.0606 0.14537-0.14552 0.26638-0.26668 0.36329-0.0363 0.0242-0.0727 0.0486-0.10903 0.0486-0.0363 0-0.0725-0.0243-0.12092-0.0486-0.37552-0.30285-0.65421-0.54519-1.1751-0.54519h-0.10903c-0.23016 0.02423-0.33933 0.21787-0.26665 0.44804 0.0969 0.27862 0.32703 0.39997 0.60563 0.39997 0.0727 0 0.15759-0.0122 0.24239-0.0243 0.0364 0 0.0605 6e-5 0.0847 0.0243 0.19381 0.23017 0.31533 0.48442 0.3638 0.77515 0.0121 0.10903-0.0486 0.19385-0.15761 0.21807-0.0969 0.0242-0.19404 0.0486-0.29093 0.0729-0.0727 0.0242-0.14523 0.0485-0.14523 0.13333 0 0.0848 0.0607 0.13316 0.13332 0.1695 0.0606 0.0363 0.13298 0.0486 0.20569 0.0486 0.0363 0 0.0609-0.0124 0.0971-0.0124 0.10901-0.0121 0.36338-0.12094 0.41185-0.22996 0.0485-0.0727 0.0484-0.15757 0.0362-0.24236v-0.14522c0-0.15748 0.0727-0.27877 0.19378-0.37568 0.12116-0.0848 0.25464-0.12121 0.4-0.13333 0.0727 0 0.12102 0.012 0.16949 0.0605 0.0969 0.0969 0.15727 0.21837 0.22995 0.33951 0.14539 0.23017 0.30303 0.44777 0.48474 0.65371 0.14537 0.15748 0.23001 0.33954 0.14521 0.55759l-0.0481 0.0486c-0.0717 0.21524-0.22344 0.32377-0.41029 0.36587-0.0224 5e-3 -0.0734-0.0494-0.13022-0.11627-0.0125-0.0243-0.0222-0.0477-0.0388-0.0739-0.14486-0.2442-0.19645-0.38838-0.33797-0.47853-0.32192-0.20509-0.97161 0.24138-1.1296 0.46716-0.11666 0.15906-0.20728 0.33926-0.27647 0.54518-0.0294 1e-3 -0.0572 5e-3 -0.0873 5e-3 -0.59356 0-1.3813-0.27873-1.3813-0.98133 0-0.24228 0.0242-0.47264 0.10904-0.7028 0.0121-0.0242 0.0246-0.0481 0.0367-0.0724 0.0242-0.0848 0.0847-0.12144 0.16949-0.12144h0.29048c0.0121 0 0.0246-6e-5 0.0367-0.0243-0.0363-0.0242-0.0727-0.0481-0.10906-0.0724-0.71472-0.39976-1.4779-1.26-1.4779-2.1322 0-0.5209 0.33912-1.0542 0.90848-1.0542 0.41187 0 0.73887 0.29086 1.0175 0.56947 0-0.04846-0.0122-0.0724-0.0243-0.09663-0.0606-0.12114-0.10883-0.24244-0.12092-0.37569-0.0242-0.23016 0.0725-0.4117 0.25424-0.55707 0.15198-0.11691 0.31578-0.21001 0.51213-0.23823zm15.815 0.06821c0.38764 0 0.71469 0.15793 1.0175 0.38809 0.0242 0.02423 0.0488 0.03601 0.0124 0.07235-0.14536 0.19382-0.1937 0.41217-0.16949 0.64234 0.0242 0.25439 0.12065 0.48452 0.21756 0.71468 0.20593 0.49667 0.43628 0.98106 0.59376 1.4898 0.109 0.33918 0.16943 0.67809 0.1452 1.0294l-0.0243 5.2e-4c-0.0121 0.48455-0.32676 1.417-0.92035 1.417-0.15748-0.0121-0.3029-0.0725-0.43614-0.14522-0.14539-0.0727-0.29081-0.1575-0.43617-0.21807-0.12112-0.0606-0.25432-0.0847-0.38756-0.0847-0.0485 0-0.10893-2.3e-4 -0.16949 0.0119-0.0848 0.0121-0.1578 0.073-0.23048 0.12144-0.0363 0.0242-0.0482 0.0481-0.0724 0.0481s-0.0367-0.0239-0.061-0.0724c-0.052-0.092-0.0928-0.18747-0.12767-0.28474-0.0121-0.15555-0.0401-0.30153-0.0889-0.43615-3e-3 -0.0619-6e-3 -0.12389-2e-3 -0.18758 0.0121-0.14537 0.0608-0.29095 0.1819-0.39998 0.0363-0.0242 0.0605-0.0362 0.0847-0.0362s0.0361-2.2e-4 0.0605 0.0119c0.10901 0.0363 0.23027 0.0605 0.35139 0.0605 0.10904 0 0.2181-0.0241 0.32711-0.0605h0.0362c0.0242 0 0.0487 2.9e-4 0.0728 0.0124 0.12116 0.0363 0.20577 0.14527 0.33901 0.1695 0.0242 0 0.0487 0.0119 0.0729 0.0119 0.10904 0 0.20603-0.0604 0.24236-0.14521 0.0485-0.10902 0-0.26631-0.10904-0.339-0.0363-0.0242-0.0485-0.0365-0.0243-0.0729 0.0848-0.14536 0.0847-0.30295 0.0605-0.46043v-0.0362c0-0.0242 0.0123-0.0605-0.0119-0.0605s-0.0243 0.0238-0.0243 0.0481c0 0.18171-0.31509 0.54543-0.46042 0.64234-0.14539 0.10902-0.30245 0.16949-0.45993 0.16949-0.75782 0-1.2575-1.0477-1.54-1.6495 0.63518-0.0082 1.012-0.29988 1.1467-0.83044 1e-3 0.0085 4e-3 0.01062 5e-3 0.02067 0.0606 0.31496 0.10906 0.62991 0.21807 0.93276 0.0606 0.15748 0.27879 0.4966 0.48472 0.49662 0.0848 0 0.15769-0.0602 0.1819-0.1571 0.0242-0.0848 0.024-0.16997 0.0119-0.25477-0.0485-0.32707-0.18156-0.61768-0.36328-0.88418-0.0969-0.13325-0.19375-0.26621-0.27852-0.39946-0.0727-0.10902-0.0851-0.23026-0.12145-0.3514-0.0242-0.0848-0.0482-0.16945-0.0724-0.25425-0.0848-0.25439 0.0482-0.53302 0.29043-0.62994 0.14537-0.04846 0.27866-0.06098 0.43614-0.06098zm-28.646 1.1488c0.0284 4e-3 0.047 0.0267 0.0651 0.06304 0.32708 0.94488 0.66614 1.8896 0.99322 2.8345 0.0727 0.20594 0.13322 0.42377 0.19378 0.64182 0.0121 0.0606 0.0242 0.0969 0.0847 0.10904 0.0969 0.0121 0.1937 0.0608 0.25426 0.1819 0.15748 0.32708 0.31528 0.66621 0.44855 1.0175 0.0242 0.0606 0.0484 0.12133 0.0605 0.1819 0.0121 0.0485 1.3e-4 0.0724-0.0362 0.0724l-0.0486 0.0243c-0.35131 0-0.69072 0.0485-1.0299 0.10904-0.0727 0.0121-0.14515 0.0243-0.22994 0.0243-0.0363 0-0.0727 2.2e-4 -0.10904-0.0119-0.18172-0.0485-0.31496-0.16953-0.41188-0.38758-0.12112-0.2665-0.2059-0.54516-0.19378-0.84801 0-0.0363 0.0122-0.0727 0.0243-0.10903 0.0121-0.0485 0.036-0.0847 0.0723-0.0847 0.0969 0 0.21815 0.2906 0.24238 0.36328 0.0121 0.0363 0.0362 0.0845 0.0848 0.0966-0.0606-0.20593-0.0849-0.424-0.15761-0.62993-0.12116-0.35131-0.22987-0.71472-0.39947-1.0418-0.21804-0.42399-0.39995-0.87183-0.59375-1.3079-0.13327-0.30285-0.2784-0.59397-0.42376-0.8847-0.0606-0.10902-0.0486-0.14504 0.0362-0.18138 0.18172-0.0848 0.37565-0.12127 0.56949-0.15761 0.15748-0.02423 0.31483-0.04864 0.47231-0.07286 0.0121-3e-3 0.0226-0.0034 0.032-0.0021zm24.1 0.26872c-0.0969 0-0.2059 0.02418-0.30282 0.08475-0.0242 0.01211-0.0605 0.02412-0.0605 0.06046s0.0362 0.03646 0.0605 0.04857c0.39976 0.18171 0.76322 0.44853 1.0661 0.75138 0-0.01211-3.2e-4 -0.02458-0.0124-0.03669-0.0727-0.15748-0.14515-0.31507-0.22998-0.46044-0.0121-0.01211-0.024-0.02406-0.0119-0.03617s0.0364 0 0.0486 0l0.0238-0.04857h0.0367c0.0242 0 0.16952-0.01217 0.16952-0.02429 0-0.01211-0.0122-0.01188-0.0243-0.01188-0.15748-0.09691-0.31515-0.19397-0.48475-0.26665-0.0969-0.03634-0.18161-0.06046-0.27852-0.06046zm-1.542 0.09715c0.0117-0.0017 0.0205 0.0034 0.031 0.0047 0.0351 0.08557 0.072 0.16827 0.10594 0.2496l0.0362 0.10904c0.12112 0.29073 0.33938 0.73897 0.70278 0.73897 0.0336 0 0.0701-0.0064 0.10647-0.01551 0.10276 0.35587 0.14147 0.53787 0.31366 1.0816 0.0485 0.15748 0.0849 0.32702 0.13333 0.49661 0.0121 0.0485 0.0241 0.0726 0.0847 0.0847 0.0969 0.0121 0.19392 0.0483 0.24236 0.14521 0.0402 0.0763 0.0763 0.15103 0.1101 0.2248-0.0173 0.10045-0.0204 0.23134 0.015 0.42943 0.0192 0.0984 0.0478 0.20301 0.0853 0.30747-0.32613 6e-3 -0.64453 0.0363-0.96171 0.0801-0.0727 0.0121-0.1451 0.0124-0.20566 0.0124-0.23019 0-0.43641-0.0848-0.53332-0.30282-0.0969-0.20594-0.15727-0.42406-0.12092-0.65423 0-0.0242 0.0122-0.0486 0.0243-0.0729 0.0121-0.0363 0.036-0.0605 0.0723-0.0605s0.073 0.0122 0.0971 0.0486c0.0242 0.0485 0.14534 0.29071 0.19378 0.30283-0.0363-0.15748-0.0362-0.32725-0.0847-0.48473-0.0969-0.2665-0.16957-0.54527-0.30282-0.78755-0.18171-0.32707-0.31485-0.67832-0.47233-1.0175-0.10901-0.23016-0.23024-0.44806-0.35139-0.66611-0.0485-0.0848-0.0364-0.12098 0.0605-0.14521 0.20595-0.06057 0.41212-0.08481 0.61807-0.10904zm-7.1334 0.678c0.0645 0.06221 0.16878 0.15434 0.24185 0.23048 0.0363 0.03634 0.0608 0.08465 0.0729 0.14521l0.1452 0.58136c0.0121 0.0242 0.0246 0.0486 0.061 0.0486 0.0606 0 0.10885-0.0242 0.1452-0.0847 0.0242-0.0363 0.0362-0.0727 0.0605-0.10904 0.0969-0.16959 0.0728-0.37576-0.0605-0.50901-0.21113-0.14067-0.45426-0.2481-0.66611-0.30282zm-1.604 2.9011c0.0226 0 0.0452 0.0109 0.0677 0.0222 0.14062 0.085 0.29734 0.31896 0.45371 0.6227 0.3834 0.74475 0.76493 1.9103 0.90125 2.3353 0.0903 0.29351 0.14663 0.59799 0.20309 0.90279 0.0226 0.11289 0.0451 0.22611 0.0677 0.339 0.0452-0.19191-0.0114-0.40659-0.0114-0.60978 0-0.2032 0.0113-0.40643 0.0677-0.58705 0.0339-0.1016 0.10184-0.15785 0.18087-0.19172 0.0677-0.0339 0.13536-0.0455 0.20309-0.0455 0.18061 0 0.3614 0.11334 0.53071 0.28267 0.11289 0.11289 0.19184 0.25926 0.28217 0.38344 0.0564 0.079 0.11269 0.14708 0.19172 0.19224-0.0226-0.0452-0.0452-0.0907-0.0677-0.12454-0.38383-0.67733-0.63227-1.4224-0.74517-2.19-0.0149-0.0996-0.0245-0.19909-0.0331-0.29869 0.0454-4e-3 0.0918-9e-3 0.13539-9e-3 0.10903 0 0.19396-0.0246 0.26664-0.0367h0.0119c0.21804-0.0485 0.37528-0.20592 0.42373-0.41186 0.0363 0.0121 0.0729 0.0246 0.0971 0.0367l0.0243 0.0119c0.098 0.0377 0.19603 0.0646 0.29403 0.0894 0.0182 0.0252 0.0518 0.0707 0.0553 0.0765 0.0564 0.0903 0.079 0.16926 0.0677 0.28215-0.0226 0.4064 0.0113 0.81265 0.0791 1.219 0.16933 1.1515 0.72263 2.7205 1.479 3.6349 0.0339 0.0339 0.0454 0.0794 0.0341 0.12454v0.0114c-0.079 0.39511-0.32751 0.73377-0.7452 0.80151-0.0451 0.0113-0.0788 0.0108-0.12401 0.0108-0.86927 0-1.5127-1.3434-1.6821-2.111-0.0226-0.11289-0.0675-0.22551-0.12403-0.32711-0.0226-0.0339-0.0452-0.0565-0.0791-0.0791 0 0.0339 0.0114 0.0679 0.0227 0.1018 0.0564 0.2032 0.0565 0.40607 0.0791 0.60927 0.0226 0.22577 0.0338 0.4517 0.0563 0.67748 0.0226 0.28222-0.0115 0.53032-0.10179 0.76739-0.1016 0.28222-0.27101 0.41814-0.51935 0.42943-0.19193 0-0.37224-0.0791-0.54158-0.22582-0.0339-0.0226-0.0563-0.0567-0.0563-0.11317-0.16933-1.5917-0.85809-3.5335-1.9193-4.7527-0.079-0.0903-0.16962-0.1693-0.25992-0.21445-0.0565-0.0226-0.0677-0.0563-0.0677-0.12403 0.011-0.15332 0.0373-0.3446 0.0858-0.5395 0.10152-0.4078 0.30039-0.83185 0.65937-0.9617 0.0226 0 0.0338-0.0114 0.0563-0.0114zm17.423 0.77877c0.0564 0 0.0563-1.1e-4 0.045 0.0563-0.0451 0.19191-0.045 0.38377-0.045 0.57568 0.0113 0.66604 0.38362 1.6597 0.69969 2.2918 0.0451 0.079 0.0456 0.10176-0.0109 0.16949-0.0677 0.0677-0.14687 0.11282-0.2372 0.1354-0.0564 0.0113-0.11306 0.0223-0.16949 0.0336-0.0677 0-0.12391 2e-4 -0.18034-0.045-0.2032-0.14676-0.40651-0.28224-0.59844-0.44029-0.42896-0.36124-0.62076-0.58694-0.8578-1.0836-0.0339 0.0339-0.0454 0.0904-0.0341 0.15813 0.0903 0.71119 0.98214 1.3207 1.5353 1.6707 0.22577 0.14675 0.463 0.28232 0.67747 0.45165 0.11289 0.0903 0.21415 0.20285 0.31575 0.31574 0.14677 0.16933 0.18063 0.36119 0.14677 0.57568l-0.0677 0.0114c-0.0452 0.32738-0.23707 0.65498-0.58703 0.68885-0.13547 0-0.27072-0.0114-0.40619-0.0227-0.2145-0.0226-0.41804-0.10145-0.63251-0.12403-0.0564 0-0.11253-0.0114-0.16899-0.0114-0.1129 0-0.53084 0.0451-0.62114 0.13539-0.0226 0.0226-0.0452 0.0341-0.0791 0.0341-0.0226 0-0.0453-0.0115-0.0791-0.0341-2e-3 -3e-3 -2e-3 -7e-3 -4e-3 -0.01 0.11065-0.12841 0.17209-0.30029 0.17209-0.54312 0-0.31609-0.10163-0.62109-0.29353-0.90331v0.0114c-0.0347-0.0505-0.0748-0.0944-0.11782-0.13384 0.0168-0.0121 0.0305-0.0266 0.0517-0.0357 0.0113 0 0.0223-0.0114 0.0336-0.0114 0.0226 0 0.0344 0.0115 0.0568 0.0227 0.32737 0.21449 0.68813 0.38393 1.0268 0.59841 0.25963 0.15805 0.39507 0.28201 0.50797 0.55294 0.0113 0.0226 0.023 0.0455 0.0455 0.0455 0.0392-9e-3 0.0302-0.032 0.0367-0.0755 0.0124-0.14793-0.0399-0.26791-0.11576-0.3762-0.15801-0.2258-0.39484-0.34978-0.62063-0.48525-0.38381-0.22577-0.79002-0.41791-1.14-0.68884-0.0903-0.079-0.18089-0.15826-0.25992-0.24857-0.0226-0.0226-0.0452-0.0451-0.0677-0.0677-0.22804-0.19955-0.46225-0.24404-0.57256-0.56792 2e-3 -2e-3 5e-3 -6e-3 7e-3 -8e-3 0.0113-0.0226 0.0228-0.0451 0.0341-0.0677 0.21447-0.33866 0.20298-0.74483-0.0341-1.0609-0.0564-0.079-0.12443-0.14717-0.18087-0.20361-0.0186-0.0186-0.0342-0.0372-0.0465-0.0558 5e-3 -0.026 9e-3 -0.0513 0.0145-0.0796 0.1016-0.54186 0.44014-0.89166 1.0046-0.92553 0.31607 0 0.55292 0.2933 0.69969 0.55294 0.15803 0.28222 0.31633 0.56476 0.4744 0.84698 0.0339 0.0677 0.0903 0.1239 0.14673 0.18035-0.0339-0.11289-0.0901-0.21422-0.12401-0.32711-0.0903-0.27093-0.15832-0.5421-0.11316-0.83561 0.0452-0.36124 0.37254-0.64337 0.7338-0.64337zm-12.41 0.0563c0.0564 0 0.1016 0.0339 0.14674 0.0791 0.13549 0.12417 0.25995 0.2597 0.40672 0.37259 0.0564 0.0452 0.1126 0.0902 0.18034 0.13539 0.33872 0.22913 0.685 0.45091 1.0103 0.6935 0.0955 0.48938 0.40214 0.7065 0.8423 0.92655 0.22381 0.40732 0.35132 0.86991 0.38293 1.3379 0.0339 0.48542-0.068 0.93659-0.33898 1.3317l-0.0109 0.0227c-0.21447 0.31608-0.5081 0.45165-0.89191 0.45165-1.016-0.0452-1.7612-1.5803-1.987-2.4608-0.0339-0.1016-0.0564-0.21474-0.0677-0.32763 0-0.0339 0.0112-0.0449 0.045-0.0336 0.12417 0.0452 0.24831 0.0899 0.36121 0.15761 0.079 0.0452 0.16962 0.0793 0.25992 0.11317 0.0677 0.0226 0.13537 0.0674 0.2031 0.10129-0.0564-0.0677-0.12398-0.11246-0.19172-0.15761-0.16933-0.11289-0.31636-0.24841-0.4744-0.37259-0.14676-0.12418-0.30488-0.22611-0.45164-0.339-0.12607-0.10667-0.23379-0.23104-0.31938-0.37103-0.0155-0.0836-0.0331-0.1685-0.0444-0.24857-0.0196-0.12702-0.0309-0.2411-0.0429-0.35605 7e-3 -0.0359 0.0133-0.0721 0.0227-0.108 0.1016-0.36125 0.32763-0.63205 0.62116-0.85783 0.1016-0.0677 0.21431-0.0904 0.33848-0.0904zm-12.666 0.0568c0.16981 0 0.35358 0.0686 0.5276 0.16071-0.0908 0.1261-0.16296 0.27666-0.20878 0.45992-0.079 0.31609-0.0115 0.62104 0.045 0.82424 0.0452 0.15805 0.11305 0.29345 0.16949 0.42892 0.0113 0.0339 0.0228 0.0679 0.0341 0.1018 0.10621 0.25487 0.29377 0.63482 0.59738 0.67954 0.14092 0.49201 0.33721 0.97002 0.56224 1.4201 0.0113 0.0339 0.0339 0.045 0.0677 0.045 0.1016 0.0113 0.19182 0.0566 0.28215 0.0904 0.061 0.0265 0.11705 0.0832 0.16846 0.15348-0.0934 0.1693-0.12692 0.37042-0.0863 0.58033 0.0308 0.15791 0.0884 0.33198 0.17002 0.49402-0.0952 0.0188-0.1905 0.0253-0.28577 0.0253-0.1016 0-0.20328-0.0114-0.30488-0.0114-0.1129 0-0.22561-0.0228-0.33848-0.0341-0.24837-0.0452-0.38386-0.40614-0.4403-0.62063-0.0226-0.1016-0.0339-0.20329 0-0.30489 0.0113-0.0226 0.0226-0.0451 0-0.0563-0.0226-0.0113-0.0451 8e-5 -0.0563 0.0114-0.0564 0.0452-0.0906 0.11261-0.11316 0.18035-0.0339 0.12418-0.0341 0.24849-0.0227 0.38396 0.0113 0.0903 0.0227 0.18047 0.0227 0.27078 0 0.079-0.034 0.13571-0.0904 0.18087-0.1129 0.079-0.22535 0.11265-0.45114 0.11265-0.3669-0.0596-0.65845-0.23004-0.93846-0.39481 0.0564-0.38382-0.1583-0.81287-0.47437-0.95963l-0.0114-0.0563c-0.0677-0.0339-0.13529-0.0565-0.19172-0.0791-0.1016-0.0339-0.19185-0.068-0.28215-0.11317-0.0113-0.0339-0.0229-0.0674-0.0455-0.10128-0.0564-0.13547-0.1129-0.28268-0.14677-0.42943-0.1016-0.4064-0.16946-0.81281-0.2372-1.2418-0.0226-0.13546-0.0452-0.27071-0.0677-0.40618-0.0113-0.0452-0.0109-0.0903-0.0222-0.14676-0.0269-0.2557-0.0741-0.47351-0.13695-0.66714 0.0118-0.35898 0.0854-0.65282 0.26252-0.80047 0.1016-0.0564 0.20322-0.0791 0.29353-0.0791 0.56443 0 0.8238 0.56441 0.98184 1.016 0.16933 0.508 0.27136 1.0275 0.35036 1.558 0.0452 0.27093 0.079 0.54185 0.14676 0.8015 0.0339 0.15804 0.20299 0.58704 0.40619 0.58704 0.079 0 0.13555-0.0564 0.15812-0.14676 0.0226-0.1016 0.0112-0.20329-0.0113-0.30489-0.0677-0.34996-0.18087-0.68858-0.32764-1.016-0.1016-0.22578-0.21415-0.4517-0.31575-0.67748-0.13544-0.29351-0.23707-0.59806-0.2935-0.91416-0.0339-0.15804-0.0226-0.32771 0-0.48575 0.0452-0.31609 0.34994-0.51883 0.65474-0.51883zm19.52 0.0222c0.0677 0 0.13586 0.0225 0.20359 0.0677 0.39511 0.3048 0.69961 1.3096 0.83508 1.7611 0.0452 0.14676 0.0903 0.29353 0.13541 0.44028 0.0113 0.0339 0.0229 0.045 0.0455 0.045 0.0113 0 0.0223 4.4e-4 0.0336-0.0109 0.12417-0.0677 0.24853-0.13575 0.31626-0.25993 0.0677-0.11289 0.0563-0.22559-0.0114-0.33848-0.0564-0.079-0.1126-0.15809-0.18034-0.22582-0.18063-0.21449-0.30522-0.46288-0.35036-0.73381-0.0339-0.19191 1.9e-4 -0.38361 0.10179-0.55294 0.0339-0.0452 0.0903-0.0678 0.14676-0.0791 0.15806-0.0452 0.31591-0.0791 0.48525-0.0791 0.16933 0 0.35001 0.0336 0.51935 0.10129 0.0226 0.0113 0.0452 0.0228 0.0677 0.0341 0.12417 0.0677 0.16923 0.15813 0.13539 0.30489-0.0339 0.13546-0.0788 0.27071-0.11266 0.40617-0.0564 0.18063-0.0115 0.33893 0.12401 0.47439 0.0677 0.0677 0.13579 0.13544 0.19225 0.21446 0.13546 0.18062 0.14637 0.41736 0.0222 0.60927-0.16933 0.27093-0.44013 0.40662-0.71107 0.54208 0.0113 0.0226 0.0337 0.0114 0.045 0.0114 0.1129 0 0.22611 0.011 0.33901 0.0336 0.1016 0.0226 0.20328 0.0114 0.30488 0.0227 0.2145 0.0226 0.37237 0.21435 0.41754 0.41755 0.0451 0.19191 0.0902 0.3842 0.13538 0.56482 0.0226 0.1016 0.0225 0.10153-0.079 0.13539-0.0452 0.0113-0.0901 0.0225-0.12401 0.0563-0.0113 0.0113-0.0341 0.0224-0.0228 0.045s0.0343 0.0227 0.0569 0.0227h0.23667c0.0452-0.0113 0.0902-0.0114 0.13539-0.0114 0.0452 0 0.0908 8e-5 0.13591 0.0114 0.3161 0.0339 0.4625 0.55323 0.4625 0.81287 0 0.0903-0.0226 0.18039-0.0677 0.25942l-0.0677 0.0114c-0.0339 0.0564-0.0903 0.0792-0.14677 0.1018-0.11287 0.0452-0.23696 0.0674-0.34983 0.10129-0.19193 0.0452-0.39521 0.0568-0.59841 0.0568-0.16933 0-0.31612-0.0565-0.44029-0.15813-0.1129-0.079-0.15822-0.20353-0.16949-0.339-0.0113-0.14676 5e-5 -0.29353 0.0113-0.44028 0.0339-0.42898-0.16917-0.83526-0.5643-1.0046-0.0339-0.0113-0.0793-0.0112-0.11317-0.0563-0.0339 0.14675-0.034 0.28208-0.0114 0.41754 0.0113 0.079 0.0343 0.15818 0.0455 0.2372 0.0113 0.0564 0.0449 0.10152 0.10128 0.13539 0.18063 0.1016 0.29377 0.25982 0.32763 0.46302 0.0339 0.2032 0.0676 0.40607-0.0114 0.60927-0.0339 0.0903-0.0792 0.1693-0.18087 0.21445-0.0339 0.0113-0.0674 0.0227-0.10128 0.0227l-0.33899-0.0336c-0.16933 0-0.33864-2.8e-4 -0.508 0.0336-0.0677 0.0113-0.13533 0.0227-0.20307 0.0227-0.16933-0.0113-0.29366-0.0904-0.38396-0.22582-5e-3 -7e-3 -7e-3 -0.0143-0.0119-0.0212 6e-3 -0.0298 9e-3 -0.0604 0.0109-0.092v-0.16896h0.0114c-0.0216-0.14776-0.0562-0.34922-0.10957-0.55398 0.0717-0.062 0.17037-0.10076 0.25734-0.10076 0.13546-0.0113 0.27122-0.0114 0.40671-0.0114h0.16897c0.0113 0 0.0228-8e-5 0.0341-0.0114-0.0339-0.0339-0.0788-0.045-0.12401-0.0563-0.0565-0.0113-0.11306-0.0228-0.16949-0.0341-0.0339-0.0113-0.0451-0.0225-0.0563-0.0563-0.0452-0.18063-0.11322-0.36139-0.19225-0.53072-0.15118-0.36424-0.48299-0.92668-0.83354-1.4175-0.0858-0.47319-0.3407-0.86321-0.69194-1.1627 0.10097-0.49425 0.42987-0.8965 0.93895-1.0433 0.0339-0.0113 0.0673-0.0114 0.0899-0.0114zm-18.939 0.0594c2e-3 5.6e-4 5e-3 9.9e-4 7e-3 2e-3 -2e-3 2e-3 -4e-3 5e-3 -6e-3 8e-3 -4.3e-4 -3e-3 -6.1e-4 -6e-3 -1e-3 -9e-3zm0.75448 0.076c0.4177 0 0.69982 0.0113 1.0837 0.21446 0.22576 0.11289 0.44032 0.24876 0.66611 0.35036 0.3951 0.16934 0.70014 0.23668 1.1291 0.23668 0.18063-0.0113 0.34994-0.056 0.508-0.15762 0.0452-0.0226 0.0788-0.0566 0.11263-0.0904 0.0226-0.0226 0.0338-0.0225 0.0563 0.0114 0.1016 0.20321 0.14714 0.4176 0.12454 0.64338h-0.0341c-0.0452 0.47413-0.25959 0.66611-0.72242 0.66611-0.079 0-0.16955-0.0114-0.24858-0.0227-0.1806-0.0226-0.36094-0.0451-0.54157-0.0677-0.0226 0-0.0453 8e-5 -0.0791 0.0114 0.0564 0.0564 0.1239 0.0902 0.18034 0.13539 0.44027 0.41769 0.64389 1.5693 0.64389 2.2128 0 0.0452 0.0111 0.0677 0.0563 0.0677 0.15806 0.0113 0.25937 0.10165 0.32713 0.22583 0.11287 0.2032 0.13573 0.42896 0.11316 0.65474v0.0336c-0.0113 0.13547-0.0904 0.21446-0.22582 0.21446-0.12419 0-0.24842-0.0222-0.37259-0.0222-0.079 0-0.16954-0.0114-0.24857-0.0114-0.23707 0-0.49665 0.0223-0.72242 0.11265h-0.12404c-0.2935-0.11289-0.40648-0.44021-0.45164-0.72244-0.0339-0.19191 0.0342-0.36142 0.19222-0.46302 0.0677-0.0452 0.14682-0.0785 0.22585-0.0785 0.079 0 0.16901 0.0336 0.24805 0.10129 0.0226 0.0113 0.0339 0.0337 0.0677 0.045 0-0.45156-0.62077-1.4448-1.0046-1.7947-0.2032-0.2032-0.4967-0.46303-0.8015-0.46303-0.0452 0-0.0788 0.0115-0.12401 0.0227-0.0339 0.0113-0.0678 0.0229-0.0904 0.0455-0.0113 0.0113-0.0228 0.0108-0.0341 0.0108s-0.0338-0.011-0.045-0.0336c-0.19192-0.28222-0.35007-0.58721-0.45167-0.9033-0.0564-0.19191-0.09-0.39513-0.045-0.58704 0.079-0.32738 0.28205-0.56455 0.63201-0.59842zm-4.979 0.0357c0.56332 0.26266 0.77591 0.53525 0.99012 1.2289 0.0451 0.15805 0.0451 0.3272 0.0677 0.48524 0.0903 0.56445 0.15761 1.129 0.30437 1.6934 0.0451 0.18062 0.11314 0.35002 0.18087 0.51935 0.0113 0.0113 0.0226 0.0338 0.0113 0.0563-0.0113 0.0113-0.0342 0-0.0454 0-0.0452-0.0113-0.0903-0.0223-0.14677-0.0336 0.0451 0.0677 0.0902 0.10152 0.13539 0.13539 0.2032 0.12418 0.40659 0.21442 0.60979 0.28215 0.0451 0.0113 0.0902 0.0338 0.13538 0.0563 0.14677 0.0677 0.28245 0.3276 0.24855 0.54209l0.0563-0.0341c-0.0451 0.32738-0.27106 0.91467-0.67746 0.91467-0.6322 0-1.0835-0.99328-1.2754-1.5126-0.0226-0.079-0.0451-0.15817-0.0563-0.23719-0.0226-0.15805 0.0109-0.27091 0.0899-0.36122 0.0226-0.0226 0.0456-0.0452 0.0569-0.0791v-0.0341c-0.0113-0.0226-0.0228-0.0114-0.0341-0.0114s-0.0223 8e-5 -0.0336 0.0114c-0.1016 0.0564-0.20335 0.0677-0.31625 0.0677-0.12417 0-0.25977-0.0225-0.38397-0.0677-0.0226-0.0113-0.0452-0.0335-0.0677-0.0222 0.0226 0.0677 0.068 0.10152 0.11317 0.13539 0.25963 0.22578 0.39502 0.519 0.49662 0.83509 0.1016 0.28222 0.23717 0.54178 0.38394 0.79013 0.13546 0.22578 0.11289 0.44049-0.0677 0.54209-0.1242 0.0677-0.24858 0.11317-0.39534 0.11317-0.32737 0-0.80164-0.23732-1.0387-0.47439-0.0564-0.0677-0.0674-0.10141-0.0449-0.19172 0.0339-0.14675 0.0563-0.2936 0.0563-0.45165 0-0.88053-0.48546-1.8855-0.88056-2.6644-0.12419-0.27093-0.13539-0.36122-0.13539-0.65474 0-0.0452 0.0224-0.045 0.0563-0.045 0.11288 0.0226 0.22567 0.0453 0.34984 0.0904-0.0339-0.0564-0.0674-0.0792-0.10129-0.1018l-0.40669-0.20309c-0.18063-0.1016-0.2931-0.29375-0.3271-0.54208-9e-3 -0.0661-0.0162-0.13206-0.0228-0.19793 0.11788 0.0535 0.2453 0.0863 0.3819 0.0863 0.10904 0 0.20585-0.0122 0.27853-0.0243h0.0124c0.35131-0.0606 0.66638-0.10903 0.98134-0.10903 0.14536 0 0.26609-0.0607 0.35089-0.15761 0.0578-0.0693 0.1243-0.19517 0.10954-0.37466zm19.516 0.0816c0.1542 0.0595 0.30324 0.12887 0.45217 0.19895 0.38381 0.16934 0.76751 0.31627 1.1513 0.46302 0.68863 0.27093 1.2984 0.78997 1.3436 1.5689 0.0226 0.36124-0.0789 0.68886-0.28215 0.98237-0.0677 0.1016-0.1579 0.16898-0.2708 0.16898-0.0339 0-0.068-0.0109-0.11316-0.0222-0.0564-0.0226-0.11306-0.0343-0.16949-0.0568-0.0113-0.0113-0.0337-0.0226-0.045 0-0.0113 0.0113 8e-5 0.0228 0.0114 0.0341 0.22576 0.24836 0.53046 0.36122 0.85783 0.36122 0.0564 0 0.11305-8e-5 0.16949-0.0114 0.0452-0.0113 0.0678 0.0116 0.0904 0.0455 0.16934 0.24835 0.28197 0.73338 0.32711 1.0382v0.1018c0 0.079-0.045 0.13555-0.12401 0.15813v0.0114c-0.0339 0.0113-0.0565 0.0109-0.0904 0.0109-0.0452 0-0.1016-0.0109-0.14676-0.0222-0.16933-0.0452-0.33864-0.0789-0.50797-0.13539-0.0677-0.0226-0.13529-0.0453-0.19172-0.0904-0.0339-0.0339-0.0793-0.0229-0.11319-0.0455-0.24834-0.12418-0.54187-0.28196-0.7338-0.47387 0.0339 0.0903 0.0903 0.16946 0.14677 0.23719 0.0564 0.0677 0.11306 0.12391 0.16949 0.18035 0.0226 0.0226 0.0337 0.0451 0.045 0.0677 0.0226 0.0903 0.0457 0.18056 0.0569 0.28216 0.0113 0.0903-0.0228 0.14692-0.10181 0.16949-0.0564 0.0113-0.11306 0.0227-0.16949 0.0227-0.2032 0-0.39521 0.0452-0.59841 0.0791-0.0339 0-0.0675 0.0114-0.11266 0.0114-0.44027 0-0.6885-0.41784-0.71107-0.82424-0.0113-0.12418-3.1e-4 -0.23732 0.10129-0.32763 0.0226-0.0226 0.0565-0.045 0.0904-0.045 0.0564-0.0113 0.1016-0.0451 0.14677-0.0677 0.0451-0.0226 0.0453-0.0566 0.0341-0.1018-0.0226-0.1016-0.0565-0.20329-0.0904-0.30489-0.16934-0.44026-0.33872-0.88007-0.51936-1.3203-0.0677-0.15804-0.14679-0.31635-0.22582-0.47439-0.0226-0.0452-0.0111-0.0563 0.0341-0.0563 0.12417 0 0.23704 0.0224 0.36121 0.045-0.0113-0.0339-0.0338-0.045-0.0563-0.0563-0.12417-0.0677-0.25985-0.11306-0.39532-0.1695-0.15806-0.0677-0.31625-0.12415-0.46302-0.21446-0.25963-0.15804-0.40634-0.39498-0.42891-0.71106-7e-3 -0.12372-0.0108-0.24733-7e-3 -0.37104 0.0272 7e-3 0.0561 0.0181 0.0791 0.0181 0.37801 0 0.70879-0.13375 0.99994-0.35399zm-10.657 0.2713c0.0413 0.027 0.76504 0.49975 1.1162 0.77411 0.68863 0.508 1.0386 1.3324 1.095 2.1678 0.0339 0.48542-0.068 0.93711-0.33899 1.3322l-0.0114 0.0222c-0.2145 0.31609-0.50761 0.45165-0.89141 0.45165-0.69623-0.031-1.2603-0.76202-1.6221-1.5022-0.0588-0.43454-0.13864-0.87732-0.29043-1.2831 0.091 0.0344 0.18082 0.0715 0.26408 0.12144 0.079 0.0452 0.16963 0.0788 0.25993 0.11266 0.0677 0.0226 0.13536 0.0679 0.20309 0.1018-0.0564-0.0677-0.12398-0.11298-0.19171-0.15813-0.12092-0.0806-0.23085-0.17226-0.34108-0.26355 0.5687-0.0714 0.87209-0.43075 0.92242-1.0346 0.0222-0.28784-0.0331-0.57579-0.17362-0.84233zm-3.3714 0.99994c-0.0903 0-0.19185 0.0226-0.28216 0.0791-0.0226 0.0113-0.0563 0.023-0.0563 0.0568 0 0.0339 0.0338 0.0337 0.0563 0.045 0.37254 0.16933 0.71099 0.41748 0.99322 0.6997 0-0.0113-8e-5 -0.0223-0.0114-0.0336-0.0677-0.14676-0.13544-0.29345-0.21445-0.42892-0.0113-0.0113-0.0227-0.0228-0.0114-0.0341s0.0343 0 0.0455 0l0.0227-0.045h0.0336c0.0226 0 0.15811-0.0114 0.15811-0.0227s-0.0114-0.0114-0.0227-0.0114c-0.14673-0.0903-0.2936-0.18031-0.45164-0.24804-0.0903-0.0339-0.16912-0.0568-0.25942-0.0568zm-5.6146 0.49712c-0.0452-0.0113-0.11324 0.045-0.12454 0.12403-0.0226 0.18062-0.0112 0.3613 0.0904 0.51935 0.079 0.13547 0.18063 0.22579 0.29353 0.29352 0.0113 0.0113 0.0342 0.034 0.0454 0.0114 0.0113-0.0226-0.0114-0.0342-0.0227-0.0455l-0.0341-0.0336 0.0227-0.0227c-0.0677-0.1016-0.11309-0.21438-0.10179-0.34985 0.0113-0.0564 0-0.1245 0-0.19223-0.0113-0.0452-0.0109-0.0902-0.0222-0.1354-0.0226-0.0903-0.079-0.15769-0.14677-0.16898zm20.649 0.24805c0.0677 0.0677 0.13525 0.12399 0.19172 0.19172 0.0339 0.0339 0.0564 0.0795 0.0677 0.13591l0.13541 0.54157c0.0113 0.0226 0.0225 0.0455 0.0563 0.0455 0.0564 0 0.10205-0.0226 0.13592-0.0791 0.0226-0.0339 0.0338-0.0679 0.0563-0.1018 0.0903-0.15805 0.0678-0.3497-0.0563-0.47388-0.15804-0.15804-0.36126-0.22606-0.58703-0.25993zm-11.247 0.75655c0.0452 0.0564 0.0793 0.11305 0.11317 0.16949 0.0452 0.0903 0.079 0.18012 0.0677 0.29301-0.0113 0.14675 0.0222 0.28259 0.0899 0.41806 0.0339 0.0677 0.0905 0.10137 0.16949 0.11266 0.14676 0.0113 0.29337-0.11258 0.2708-0.24805-0.0113-0.12418-0.0564-0.2374-0.14676-0.339h0.0114c-0.1016-0.12418-0.40635-0.37231-0.57566-0.40617zm8.2098 0c0.0451 0.0564 0.0793 0.11253 0.11316 0.16898 0.0451 0.0903 0.079 0.18063 0.0677 0.29352-0.0113 0.14675 0.0228 0.2826 0.0904 0.41806 0.0339 0.0677 0.09 0.10137 0.16899 0.11266 0.14676 0.0113 0.29337-0.1131 0.2708-0.24857-0.0113-0.12417-0.0564-0.23688-0.14677-0.33848h0.0113c-0.1016-0.12417-0.40634-0.37231-0.57565-0.40617z" style="font-variant-caps:normal;font-variant-east-asian:normal;font-variant-ligatures:normal;font-variant-numeric:normal"/></g></svg>
