<svg width="31.68mm" height="13.205mm" version="1.1" viewBox="0 0 31.68 13.205" xmlns="http://www.w3.org/2000/svg" xmlns:xlink="http://www.w3.org/1999/xlink"><defs><linearGradient id="a" x1="102.7" x2="102.7" y1="121.54" y2="124.58" gradientTransform="translate(-70.389 -6.6184)" gradientUnits="userSpaceOnUse" xlink:href="#e"/><linearGradient id="e"><stop stop-color="#f0f" offset="0"/><stop stop-color="#621aff" offset="1"/></linearGradient><linearGradient id="d" x1="103.17" x2="103.17" y1="115.88" y2="119.12" gradientUnits="userSpaceOnUse" xlink:href="#c"/><linearGradient id="c"><stop stop-color="#00ff95" offset="0"/><stop stop-color="#eaff00" offset="1"/></linearGradient><linearGradient id="f" x1="57.966" x2="57.966" y1="82.166" y2="85.41" gradientUnits="userSpaceOnUse" xlink:href="#c"/><linearGradient id="b" x1="103.17" x2="103.17" y1="115.88" y2="119.12" gradientTransform="translate(-70.389 -6.6184)" gradientUnits="userSpaceOnUse" xlink:href="#c"/></defs><g transform="translate(-12.886 -106.79)"><g stroke-width=".26458"><path d="m27.199 117.05c-0.07408-0.91017-0.4445-1.7357-1.1747-2.3072-0.26458-0.20108-0.53975-0.381-0.80433-0.56092l-0.28575-0.1905c-0.15875-0.0952-0.50062 0-0.61864 0.0228-0.03175-0.0318-0.01188 0.21651-0.04363 0.18471-0.127-0.127-0.17508 0.21996-0.355 0.21996-0.59266 0-1.0147-0.39577-1.1629 0.11223-0.0635 0.22225-0.127 0.55033 0.04233 0.889 0.10583 0.20108 0.254 0.381 0.4445 0.52916 0.03175 0.0212 0.0635 0.0423 0.09525 0.0635-0.01058 0.0423-0.01058 0.0953 0 0.15875 0.10583 1.0689 1.1112 2.9422 2.3495 2.9422 0.46566 0 0.85725-0.21166 1.1218-0.59266 0.29633-0.43392 0.42333-0.93133 0.381-1.4922z"/><path d="m26.49 118.3c-0.20108 0.29633-0.47625 0.42333-0.83608 0.42333-0.9525-0.0423-1.651-1.4817-1.8627-2.3072-0.03175-0.0952-0.05292-0.20108-0.0635-0.30692 0-0.0318 0.01058-0.0423 0.04233-0.0318 0.11642 0.0423 0.23283 0.0847 0.33867 0.14817 0.07408 0.0423 0.15875 0.0741 0.24342 0.10583 0.0635 0.0212 0.127 0.0635 0.1905 0.0953-0.05292-0.0635-0.11642-0.10583-0.17992-0.14816-0.15875-0.10584-0.29633-0.23284-0.4445-0.34925-0.13758-0.11642-0.28575-0.21167-0.42333-0.3175-0.13758-0.11642-0.254-0.254-0.33866-0.41275-0.09525-0.20108-0.07408-0.40217-0.02117-0.60325 0.09525-0.33866-0.13344-0.0191 0.14173-0.23073 0.09525-0.0635 0.49026 0.0362 0.60668 0.0362 0.05292 0 0.32009-0.18498 0.36243-0.14268 0.127 0.11642 0.16975-0.23435 0.30733-0.12852 0.05292 0.0423 0.10583 0.0847 0.16933 0.127 0.35983 0.24341 0.73025 0.47625 1.0689 0.74083 0.64558 0.47625 0.97366 1.2488 1.0266 2.032 0.03175 0.45509-0.0635 0.87842-0.3175 1.2488z" fill="url(#a)"/><path d="m25.675 117c-0.09525-0.11641-0.381-0.34925-0.53975-0.381 0.04233 0.0529 0.07408 0.10584 0.10583 0.15875 0.04233 0.0847 0.07408 0.16933 0.0635 0.27517-0.01058 0.13758 0.02117 0.26458 0.08467 0.39158 0.03175 0.0635 0.08467 0.0952 0.15875 0.10583 0.13758 0.0106 0.27517-0.10583 0.254-0.23283-0.01058-0.11642-0.05292-0.22225-0.13758-0.3175z"/><path d="m44.402 117.69c-0.11642-0.13758-0.23283-0.254-0.34925-0.34925-0.0741-0.0529-0.14816-0.10583-0.22225-0.15875 0.0423-0.0318 0.0847-0.0741 0.127-0.11641 0.16933-0.17992 0.20108-0.37042 0.0952-0.59267-0.23283-0.47625-0.59266-1.4393-0.59266-1.9791 0-0.15875 0-0.30691 0.0318-0.44449 0.0423-0.14817 0.0212-0.27517-0.0635-0.381-0.0847-0.10584-0.20109-0.15875-0.34925-0.15875-0.42333 0-0.75142 0.24341-0.9525 0.60324-0.0741-0.0847-0.16933-0.16933-0.28575-0.23283-0.16933-0.10583-0.29633-0.13758-0.49741-0.13758-0.6985 0.0635-1.1536 0.47625-1.2912 1.1642-0.0318 0.20108-0.0106 0.381 0.0106 0.53975v0.0635c0.0635 0.51858 0.42334 1.3018 0.83608 1.651 0.0953 0.11641 0.20109 0.21166 0.28575 0.27516-0.0212 0.0318-0.0423 0.0635-0.0635 0.10583-0.15875 0.3175-0.1905 0.66675-0.10583 1.0583 0.0847 0.35984 0.43392 0.86784 0.84666 0.86784 0.127 0 0.22225-0.0529 0.27517-0.0953 0.16933-0.0529 0.3175-0.0635 0.48683-0.0635 0.0741 0.0106 0.15875 0.0318 0.254 0.0529 0.0952 0.0212 0.20108 0.0529 0.3175 0.0635l0.0529 0.0106c0.0847 0.0106 0.17992 0.0106 0.27517 0.0106h0.127c0.50799-0.0635 0.82549-0.46567 0.89958-0.96308 0.0529-0.32809-0.0212-0.61384-0.22225-0.84667z"/><path d="m44.179 118.42c-0.0423 0.30691-0.22225 0.61383-0.55033 0.64558-0.127 0-0.254-0.0106-0.381-0.0212-0.20108-0.0212-0.39158-0.0952-0.59266-0.11642-0.0529 0-0.10584-0.0106-0.15875-0.0106-0.10584 0-0.49742 0.0423-0.58208 0.127-0.0212 0.0212-0.0423 0.0318-0.0741 0.0318-0.0212 0-0.0423-0.0106-0.0741-0.0318-0.21167-0.127-0.33867-0.3175-0.39159-0.56091-0.0635-0.27517-0.0635-0.55033 0.0635-0.80433 0.0318-0.0635 0.0741-0.11642 0.14817-0.14817 0.0106 0 0.0212-0.0106 0.0318-0.0106 0.0212 0 0.0317 0.0106 0.0529 0.0212 0.30692 0.20108 0.64558 0.35983 0.96308 0.56091 0.24342 0.14817 0.37042 0.26459 0.47625 0.51859 0.0106 0.0212 0.0212 0.0423 0.0423 0.0423 0.0212 0 0.0212-0.0212 0.0212-0.0318v-0.0318l-0.0529 0.0212 0.0529-0.0212c0.0318-0.13759-0.0212-0.254-0.0952-0.35984-0.14817-0.21166-0.37042-0.32808-0.58208-0.45508-0.35983-0.21166-0.74083-0.39158-1.0689-0.64558-0.0847-0.0741-0.16933-0.14817-0.24341-0.23283l-0.0635-0.0635c-0.33867-0.29633-0.64558-0.96308-0.70908-1.4076-0.0212-0.16933-0.0529-0.33867-0.0212-0.508 0.0952-0.508 0.41275-0.83608 0.94191-0.86783 0.29633 0 0.51858 0.27517 0.65617 0.51858 0.14816 0.26459 0.29633 0.52917 0.44449 0.79375 0.0318 0.0635 0.0847 0.11642 0.13759 0.16933-0.0317-0.10583-0.0847-0.20108-0.11642-0.30691-0.0847-0.254-0.14817-0.508-0.10583-0.78317 0.0423-0.33866 0.34925-0.60325 0.68791-0.60325 0.0529 0 0.0529 0 0.0423 0.0529-0.0423 0.17992-0.0423 0.35984-0.0423 0.53975 0.0106 0.62442 0.35983 1.5558 0.65617 2.1484 0.0423 0.0741 0.0423 0.0953-0.0106 0.15875-0.0635 0.0635-0.13759 0.10584-0.22225 0.127-0.0529 0.0106-0.10584 0.0212-0.15875 0.0318-0.0635 0-0.11642 0-0.16934-0.0423-0.19049-0.13758-0.38099-0.26458-0.56091-0.41275-0.40217-0.33866-0.58208-0.55033-0.80433-1.016-0.0318 0.0317-0.0423 0.0847-0.0318 0.14816 0.0847 0.66675 0.92075 1.2382 1.4393 1.5663 0.21166 0.13758 0.43391 0.26458 0.63499 0.42333 0.10584 0.0847 0.20109 0.1905 0.29634 0.29633 0.13758 0.15875 0.16933 0.33867 0.13758 0.53975z" fill="url(#a)"/><path d="m21.076 112.1c-0.09525-0.24341-0.28575-0.41275-0.53975-0.47624-0.08467-0.15875-0.16933-0.32809-0.26458-0.508-0.05292-0.11642-0.10583-0.23284-0.15875-0.34925l-0.0635-0.13758c-0.14817-0.30692-0.28575-0.635-0.33867-0.98425-0.03175-0.20108-0.01058-0.381 0.05292-0.53975 0.07408-0.16933 0.04233-0.34925-0.09525-0.48683-0.29633-0.29633-0.73025-0.56092-1.1642-0.56092-0.45508 0-0.762 0.1905-0.8255 0.64558-0.28575-0.32808-0.635-0.60324-1.0901-0.60324-0.68792 0-1.1112 0.4445-1.1853 1.1007-0.02117 0.254 0.07408 0.41275 0.30692 0.508 0.03175 0.0106 0.05292 0.0212 0.07408 0.0318 0.45508 0.41275 0.81491 1.3123 0.96308 1.8732v0.0635c-0.08467 0.0741-0.16933 0.1905-0.21167 0.37042-0.10583 0.4445-0.0635 0.889 0.13758 1.3652 0.16933 0.4445 0.5715 0.52917 1.0054 0.52917 0.17992 0 0.34925-0.0212 0.508-0.0423h0.09525c0.16933-0.0212 0.3175-0.0529 0.4445-0.10583 0.09525-0.0318 0.16933-0.0847 0.23283-0.14817 0.24342 0.22225 0.53975 0.254 0.85725 0.254 0.53975 0 1.1747-0.0106 1.3547-0.635 0.10583-0.35983 0.08467-0.73025-0.0635-1.1112z"/><path d="m20.8 113.16c-0.05292 0.17992-0.16933 0.28575-0.33867 0.30692-0.20108 0.0318-0.41275 0.0529-0.61383 0.0529-0.254 0-0.5715-0.0106-0.70908-0.26458-0.11642-0.21167-0.17992-0.4445-0.20108-0.68792-0.02117-0.1905 0.08467-0.32808 0.27517-0.3175h0.0635c0.02117 0 0.04233 0.0212 0.05292-0.0106 0.01058-0.0212-0.02117-0.0317-0.03175-0.0423-0.254-0.20108-1.016-0.68791-1.3229-0.68791-0.02117 0-0.04233 0-0.0635 0.0106 0.02117 0.0318 0.05292 0.0423 0.07408 0.0635 0.07408 0.0529 0.14817 0.10583 0.22225 0.15875 0.02117 0.0106 0.03175 0.0317 0.04233 0.0529 0.03175 0.0741 0.05292 0.14817 0.07408 0.22225 0.02117 0.0529-0.01058 0.10583-0.0635 0.11642-0.03175 0.0106-0.0635 0.0212-0.09525 0.0317-0.01058 0-0.02117 0-0.02117 0.0106 0 0.0212 0.01058 0.0212 0.02117 0.0318 0.08467 0.0423 0.16933 0.0741 0.254 0.10583 0.13758 0.0529 0.21167 0.15875 0.24342 0.30691 0.05292 0.21167 0.08467 0.42334 0.07408 0.64558-0.01058 0.0952-0.05292 0.15875-0.13758 0.1905-0.23283 0.0847-0.68791 0.127-0.92075 0.127-0.254 0-0.508-0.0423-0.61383-0.30691-0.14817-0.37042-0.21167-0.75142-0.11642-1.143 0.02117-0.0741 0.05292-0.13758 0.11642-0.16933 0.01058-0.0106 0.02117-0.0106 0.03175-0.0106s0.02117 0.0106 0.03175 0.0318c0.02117 0.0847 0.04233 0.16933 0.0635 0.24341 0.01058 0.0212 0.02117 0.0635 0.05292 0.0529 0.02117 0 0.01058-0.0423 0.01058-0.0635 0-0.64558-0.70908-2.6035-1.3652-2.8257-0.07408-0.0318-0.07408-0.0318-0.0635-0.12699 0.02117-0.40217 0.254-0.66675 0.65616-0.73025 0.04233-0.0106 0.08467-0.0106 0.127-0.0106 0.24342 0 0.45508 0.10583 0.64558 0.29633 0.254 0.254 0.46567 0.53975 0.66675 0.84666 0.16933 0.28575 0.6985 1.1112 0.97366 1.27-0.02117-0.0635-0.05292-0.10583-0.08467-0.14817-0.24342-0.34925-0.635-1.0689-0.71966-1.5028-0.04233-0.20108-0.05292-0.40216 0.02117-0.60324 0.0635-0.15875 0.28575-0.1905 0.43392-0.1905 0.32808 0 0.67733 0.23283 0.89958 0.45508 0.02117 0.0212 0.03175 0.0423 0.02117 0.0741-0.09525 0.23283-0.11642 0.47625-0.08467 0.73025 0.05292 0.39158 0.20108 0.75141 0.37042 1.1007 0.08467 0.16933 0.15875 0.33867 0.24342 0.508 0.09525 0.20108 0.1905 0.39158 0.29633 0.58208 0.05292 0.0847 0.10583 0.11642 0.1905 0.127 0.13758 0.0212 0.24342 0.0953 0.29633 0.24342 0.10583 0.28574 0.13758 0.57149 0.05292 0.86783z" fill="url(#b)"/><path d="m24.9 112.1c-0.09525-0.24341-0.28575-0.41275-0.53975-0.47624-0.08467-0.15875-0.16933-0.32809-0.26458-0.508-0.05292-0.11642-0.10583-0.23284-0.15875-0.34925l-0.0635-0.13758c-0.14817-0.30692-0.28575-0.635-0.33867-0.98425-0.03175-0.20108-0.01058-0.381 0.05292-0.53975 0.07408-0.16933 0.04233-0.34925-0.09525-0.48683-0.29633-0.29633-0.73025-0.56092-1.1642-0.56092-0.45508 0-0.762 0.1905-0.8255 0.64558-0.28575-0.32808-0.635-0.60324-1.0901-0.60324-0.68792 0-1.1112 0.4445-1.1853 1.1007-0.02117 0.254 0.07408 0.41275 0.30692 0.508 0.03175 0.0106 0.05292 0.0212 0.07408 0.0318 0.45508 0.41275 0.81491 1.3123 0.96308 1.8732v0.0635c-0.08467 0.0741-0.16933 0.1905-0.21167 0.37042-0.10583 0.4445-0.0635 0.889 0.13758 1.3652 0.16933 0.4445 0.5715 0.52917 1.0054 0.52917 0.17992 0 0.34925-0.0212 0.508-0.0423h0.09525c0.16933-0.0212 0.3175-0.0529 0.4445-0.10583 0.09525-0.0318 0.16933-0.0847 0.23283-0.14817 0.24342 0.22225 0.53975 0.254 0.85725 0.254 0.53975 0 1.1747-0.0106 1.3547-0.635 0.10583-0.35983 0.08467-0.73025-0.0635-1.1112z"/><path d="m24.625 113.16c-0.05292 0.17992-0.16933 0.28575-0.33866 0.30692-0.20108 0.0318-0.41275 0.0529-0.61383 0.0529-0.254 0-0.5715-0.0106-0.70908-0.26458-0.11642-0.21167-0.17992-0.4445-0.20108-0.68792-0.02117-0.1905 0.08467-0.32808 0.27517-0.3175h0.0635c0.02117 0 0.04233 0.0212 0.05292-0.0106 0.01058-0.0212-0.02117-0.0317-0.03175-0.0423-0.254-0.20108-1.016-0.68791-1.3229-0.68791-0.02117 0-0.04233 0-0.0635 0.0106 0.02117 0.0318 0.05292 0.0423 0.07408 0.0635 0.07408 0.0529 0.14817 0.10583 0.22225 0.15875 0.02117 0.0106 0.03175 0.0317 0.04233 0.0529 0.03175 0.0741 0.05292 0.14817 0.07408 0.22225 0.02117 0.0529-0.01058 0.10583-0.0635 0.11642-0.03175 0.0106-0.0635 0.0212-0.09525 0.0317-0.01058 0-0.02117 0-0.02117 0.0106 0 0.0212 0.01058 0.0212 0.02117 0.0318 0.08467 0.0423 0.16933 0.0741 0.254 0.10583 0.13758 0.0529 0.21167 0.15875 0.24342 0.30691 0.05292 0.21167 0.08467 0.42334 0.07408 0.64558-0.01058 0.0952-0.05292 0.15875-0.13758 0.1905-0.23283 0.0847-0.68792 0.127-0.92075 0.127-0.254 0-0.508-0.0423-0.61383-0.30691-0.14817-0.37042-0.21167-0.75142-0.11642-1.143 0.02117-0.0741 0.05292-0.13758 0.11642-0.16933 0.01058-0.0106 0.02117-0.0106 0.03175-0.0106s0.02117 0.0106 0.03175 0.0318c0.02117 0.0847 0.04233 0.16933 0.0635 0.24341 0.01058 0.0212 0.02117 0.0635 0.05292 0.0529 0.02117 0 0.01058-0.0423 0.01058-0.0635 0-0.64558-0.70908-2.6035-1.3652-2.8257-0.07408-0.0318-0.07408-0.0318-0.0635-0.12699 0.02117-0.40217 0.254-0.66675 0.65616-0.73025 0.04233-0.0106 0.08467-0.0106 0.127-0.0106 0.24342 0 0.45508 0.10583 0.64558 0.29633 0.254 0.254 0.46566 0.53975 0.66675 0.84666 0.16933 0.28575 0.6985 1.1112 0.97366 1.27-0.02117-0.0635-0.05292-0.10583-0.08467-0.14817-0.24342-0.34925-0.635-1.0689-0.71966-1.5028-0.04233-0.20108-0.05292-0.40216 0.02117-0.60324 0.0635-0.15875 0.28575-0.1905 0.43392-0.1905 0.32808 0 0.67733 0.23283 0.89958 0.45508 0.02117 0.0212 0.03175 0.0423 0.02117 0.0741-0.09525 0.23283-0.11642 0.47625-0.08467 0.73025 0.05292 0.39158 0.20108 0.75141 0.37042 1.1007 0.08467 0.16933 0.15875 0.33867 0.24342 0.508 0.09525 0.20108 0.1905 0.39158 0.29633 0.58208 0.05292 0.0847 0.10583 0.11642 0.1905 0.127 0.13758 0.0212 0.24342 0.0953 0.29633 0.24342 0.10583 0.28574 0.13758 0.57149 0.05292 0.86783z" fill="url(#b)"/><path d="m28.355 112.3c-0.13758-0.15875-0.26458-0.32809-0.381-0.51858-0.01058-0.0212-0.02117-0.0423-0.03175-0.0635-0.05292-0.0847-0.11642-0.20108-0.22225-0.29633-0.09525-0.0952-0.21167-0.14816-0.33866-0.15875 0.0635-0.0847 0.11642-0.17991 0.16933-0.28575 0.04233-0.0847 0.07408-0.22225 0.02117-0.39158-0.05292-0.15875-0.127-0.28575-0.1905-0.381-0.29633-0.48683-0.4445-1.0372-0.58208-1.5875-0.08467-0.30692-0.26458-0.381-0.5715-0.381-0.381 0.0318-0.79375 0.3175-0.94191 0.66675-0.09525-0.0423-0.30692-0.0741-0.40217-0.0741-0.70908 0-1.1959 0.63499-1.1959 1.3123 0 0.66674 0.40217 1.3335 0.89958 1.7568 0.03175 0.0318 0.0635 0.0635 0.09525 0.0952-0.01058 0.0212-0.02117 0.0423-0.03175 0.0635v0.0106c-0.01058 0.0106-0.02117 0.0212-0.02117 0.0317-0.08467 0.22225-0.127 0.46567-0.127 0.75142 0.02117 0.84666 0.84666 1.2277 1.5981 1.2277 0.42333 0 0.81491-0.10583 1.1747-0.33866h0.03175c0.11642 0.0318 0.23283 0.0423 0.34925 0.0423 0.40216 0 0.77258-0.16934 0.92075-0.5715 0.0635-0.16934 0.127-0.51858-0.20108-0.87842z"/><path d="m28.217 113.08c-0.08467 0.254-0.29633 0.33867-0.53975 0.33867-0.17992 0-0.37042-0.0529-0.51858-0.15875 0.05292 0.0847-0.02117 0.10583-0.0635 0.13758-0.30692 0.21166-0.61383 0.30692-0.98425 0.30692-0.51858 0-1.2065-0.24342-1.2065-0.85725 0-0.21167 0.02117-0.41275 0.09525-0.61383 0.01058-0.0212 0.02117-0.0423 0.03175-0.0635 0.02117-0.0741 0.07408-0.10584 0.14817-0.10584h0.16933 0.08467c0.01058 0 0.02117 0 0.03175-0.0212-0.03175-0.0212-0.0635-0.0423-0.09525-0.0635-0.62442-0.34925-1.2912-1.1007-1.2912-1.8627 0-0.45508 0.29633-0.92075 0.79375-0.92075 0.35983 0 0.64558 0.254 0.889 0.49742 0-0.0423-0.01058-0.0635-0.02117-0.0847-0.05292-0.10583-0.09525-0.21167-0.10583-0.32808-0.02117-0.20108 0.0635-0.35983 0.22225-0.48683 0.13758-0.10584 0.28575-0.1905 0.46566-0.21167h0.05292c0.0635 0 0.08467 0.0212 0.10583 0.10583 0.04233 0.16934 0.07408 0.33867 0.11642 0.508 0.11642 0.42333 0.27516 0.8255 0.508 1.1959 0.0635 0.0953 0.11642 0.19051 0.14817 0.29634 0.01058 0.0423 0.01058 0.0741-0.01058 0.11641-0.05292 0.127-0.127 0.23284-0.23283 0.3175-0.03175 0.0212-0.0635 0.0423-0.09525 0.0423s-0.0635-0.0212-0.10583-0.0423c-0.32808-0.26458-0.5715-0.47625-1.0266-0.47625h-0.09525c-0.20108 0.0212-0.29633 0.1905-0.23283 0.39159 0.08467 0.24341 0.28575 0.34924 0.52916 0.34924 0.0635 0 0.13758-0.0106 0.21167-0.0212 0.03175 0 0.05292 0 0.07408 0.0212 0.16933 0.20109 0.27517 0.42334 0.3175 0.67734 0.01058 0.0952-0.04233 0.16933-0.13758 0.1905-0.08467 0.0212-0.16933 0.0423-0.254 0.0635-0.0635 0.0212-0.127 0.0423-0.127 0.11641 0 0.0741 0.05292 0.11642 0.11642 0.14817 0.05292 0.0317 0.11642 0.0423 0.17992 0.0423 0.03175 0 0.05292-0.0106 0.08467-0.0106 0.09525-0.0106 0.3175-0.10583 0.35983-0.20108 0.04233-0.0635 0.04233-0.13759 0.03175-0.21167v-0.127c0-0.13758 0.0635-0.24342 0.16933-0.32808 0.10583-0.0741 0.22225-0.10583 0.34925-0.11642 0.0635 0 0.10583 0.0106 0.14817 0.0529 0.08467 0.0847 0.13758 0.1905 0.20108 0.29633 0.127 0.20109 0.26458 0.39159 0.42333 0.5715 0.127 0.13758 0.20108 0.29633 0.127 0.48683z" fill="url(#b)"/><path d="m41.669 117.69c-0.11641-0.16933-0.28575-0.27517-0.48683-0.29633-0.0423-0.14817-0.0741-0.29634-0.11642-0.47625-0.0635-0.254-0.21166-0.508-0.45508-0.61383 0.0106-0.0212 0.0212-0.0423 0.0318-0.0635 0.20108-0.3175 0.1905-0.6985-0.0318-0.99483-0.0529-0.0741-0.11642-0.13759-0.16933-0.1905-0.0212-0.0212-0.0423-0.0423-0.0529-0.0635-0.0317-0.0318-0.0317-0.0529-0.0212-0.0952 0.0318-0.13758 0.0635-0.26458 0.0953-0.40217 0.0741-0.29633-0.0423-0.55033-0.3175-0.69849-0.0317-0.0212-0.0635-0.0318-0.0952-0.0423-0.20108-0.0847-0.41275-0.11642-0.635-0.11642-0.29633 0-0.73025 0.0423-0.89958 0.32808-0.0106 0.0212-0.0212 0.0423-0.0318 0.0635-0.16933-0.22225-0.381-0.42333-0.67733-0.42333-0.0635 0-0.127 0.0106-0.1905 0.0318-0.73025 0.22225-1.1007 0.81492-1.1642 1.5452-0.0106 0.16934 0.0529 0.32808 0.17991 0.4445 0.26459 0.23283 0.56092 0.66675 0.75142 0.96308 0.0529 0.0847 0.10583 0.16933 0.15875 0.254 0.14816 0.24342 0.29633 0.46567 0.40216 0.70908 0.0212 0.0529 0.0423 0.10583 0.0635 0.15875-0.254 0.127-0.45508 0.254-0.46566 0.56092-0.0212 0.30691 0.0635 0.60324 0.24341 0.87841 0.15875 0.23283 0.40217 0.381 0.68792 0.381 0.0635 0 0.11641-0.0106 0.15875-0.0212h0.0318 0.0423c0.0847-0.0106 0.17991-0.0106 0.26458-0.0106h0.10583 0.1905 0.15875c0.21167 0 0.39158-0.0741 0.51858-0.254 0.16934 0.10583 0.34925 0.15875 0.55034 0.15875 0.25399 0 0.46566-0.0212 0.66674-0.0741 0.0212-0.0106 0.0423-0.0106 0.0635-0.0106 0.45509-0.10583 0.71967-0.29633 0.71967-0.79375 0-0.29633-0.0952-0.58208-0.27517-0.84666z"/><path d="m41.51 118.77c-0.0318 0.0529-0.0847 0.0741-0.13758 0.0953-0.10583 0.0423-0.22225 0.0635-0.32808 0.0952-0.17992 0.0423-0.37042 0.0529-0.56092 0.0529-0.15875 0-0.29633-0.0529-0.41275-0.14817-0.10583-0.0741-0.14816-0.1905-0.15875-0.3175-0.0106-0.13758 0-0.27516 0.0106-0.41275 0.0317-0.40216-0.15875-0.78316-0.52916-0.94191-0.0318-0.0106-0.0741-0.0106-0.10583-0.0529-0.0318 0.13758-0.0318 0.26458-0.0106 0.39158 0.0106 0.0741 0.0318 0.14817 0.0423 0.22225 0.0106 0.0529 0.0423 0.0952 0.0952 0.127 0.16933 0.0953 0.27516 0.24341 0.30691 0.43391 0.0318 0.1905 0.0635 0.381-0.0106 0.5715-0.0318 0.0847-0.0741 0.15875-0.16933 0.20109-0.0317 0.0106-0.0635 0.0212-0.0952 0.0212-0.10583-0.0106-0.21167-0.0212-0.3175-0.0318-0.15875 0-0.3175 0-0.47625 0.0318-0.0635 0.0106-0.127 0.0212-0.1905 0.0212-0.15875-0.0106-0.27516-0.0847-0.35983-0.21167-0.127-0.1905-0.1905-0.40217-0.17992-0.635 0.0106-0.14816 0.1905-0.24341 0.32809-0.24341 0.127-0.0106 0.254-0.0106 0.38099-0.0106h0.15875c0.0106 0 0.0212 0 0.0318-0.0106-0.0318-0.0318-0.0741-0.0423-0.11642-0.0529-0.0529-0.0106-0.10583-0.0212-0.15875-0.0318-0.0318-0.0106-0.0423-0.0212-0.0529-0.0529-0.0423-0.16934-0.10583-0.33867-0.17992-0.49742-0.23283-0.56091-0.92074-1.6298-1.397-2.0637-0.0423-0.0423-0.0635-0.0847-0.0635-0.13759 0.0318-0.56091 0.35983-1.0372 0.91016-1.1959 0.0318-0.0106 0.0635-0.0106 0.0847-0.0106 0.0635 0 0.127 0.0212 0.1905 0.0635 0.37042 0.28575 0.65617 1.2277 0.78317 1.651 0.0423 0.13758 0.0847 0.27516 0.12699 0.41274 0.0106 0.0318 0.0212 0.0423 0.0423 0.0423 0.0106 0 0.0212 0 0.0317-0.0106 0.11642-0.0635 0.23284-0.127 0.29634-0.24341 0.0635-0.10584 0.0529-0.21167-0.0106-0.3175-0.0529-0.0741-0.10583-0.14817-0.16933-0.21167-0.16934-0.20108-0.28575-0.43391-0.32809-0.68791-0.0318-0.17992 0-0.35983 0.0953-0.51858 0.0318-0.0423 0.0847-0.0635 0.13759-0.0741 0.14816-0.0423 0.29633-0.0741 0.45508-0.0741s0.32808 0.0318 0.48683 0.0952c0.0212 0.0106 0.0423 0.0212 0.0635 0.0318 0.11642 0.0635 0.15875 0.14816 0.127 0.28575-0.0318 0.12699-0.0741 0.25399-0.10583 0.38099-0.0529 0.16934-0.0106 0.3175 0.11641 0.4445 0.0635 0.0635 0.127 0.127 0.17992 0.20109 0.127 0.16933 0.13758 0.39158 0.0212 0.57149-0.15875 0.254-0.41275 0.381-0.66675 0.508 0.0106 0.0212 0.0317 0.0106 0.0423 0.0106 0.10583 0 0.21167 0.0106 0.3175 0.0318 0.0953 0.0212 0.1905 0.0106 0.28575 0.0212 0.20108 0.0212 0.34925 0.20108 0.39158 0.39158 0.0423 0.17992 0.0847 0.35984 0.127 0.52917 0.0212 0.0953 0.0212 0.0953-0.0741 0.127-0.0423 0.0106-0.0847 0.0212-0.11641 0.0529-0.0106 0.0106-0.0318 0.0212-0.0212 0.0423 0.0106 0.0212 0.0317 0.0212 0.0529 0.0212h0.22224c0.0423-0.0106 0.0847-0.0106 0.127-0.0106s0.0847 0 0.127 0.0106c0.29634 0.0318 0.43392 0.51858 0.43392 0.762 0 0.0847-0.0212 0.16933-0.0635 0.24341z" fill="url(#a)"/><path d="m34.932 117.24c-0.0741-0.91016-0.4445-1.7357-1.1748-2.3072-0.26458-0.20108-0.53974-0.381-0.80433-0.56091-0.0953-0.0635-0.1905-0.127-0.28575-0.1905-0.15875-0.0953-0.28574-0.22225-0.41275-0.34925l-0.0952-0.0952c-0.12701-0.127-0.254-0.17992-0.43392-0.17992-0.59267 0-1.0901 0.65617-1.2382 1.1642-0.0635 0.22225-0.127 0.55033 0.0423 0.88899 0.10584 0.20109 0.254 0.381 0.4445 0.52917 0.0318 0.0212 0.0635 0.0423 0.0953 0.0635-0.0106 0.0423-0.0106 0.0953 0 0.15875 0.10584 1.0689 1.1112 2.9422 2.3495 2.9422 0.46567 0 0.85725-0.21167 1.1218-0.59267 0.29634-0.43391 0.42334-0.93133 0.381-1.4922z"/><path d="m34.223 118.49c-0.20108 0.29633-0.47625 0.42333-0.83608 0.42333-0.9525-0.0423-1.651-1.4817-1.8627-2.3072-0.0318-0.0953-0.0529-0.20108-0.0635-0.30691 0-0.0318 0.0106-0.0423 0.0423-0.0318 0.11641 0.0423 0.23283 0.0847 0.33866 0.14816 0.0741 0.0423 0.15875 0.0741 0.24342 0.10584 0.0635 0.0212 0.127 0.0635 0.1905 0.0952-0.0529-0.0635-0.11642-0.10584-0.17992-0.14817-0.15875-0.10583-0.29633-0.23283-0.4445-0.34925-0.13758-0.11641-0.28574-0.21166-0.42333-0.3175-0.13758-0.11641-0.254-0.254-0.33866-0.41275-0.0952-0.20108-0.0741-0.40216-0.0212-0.60324 0.0953-0.33867 0.30691-0.59267 0.58208-0.80434 0.0952-0.0635 0.20108-0.0847 0.3175-0.0847 0.0529 0 0.0953 0.0318 0.13758 0.0741 0.127 0.11642 0.24342 0.24342 0.381 0.34925 0.0529 0.0423 0.10583 0.0847 0.16933 0.127 0.35983 0.24342 0.73025 0.47625 1.0689 0.74083 0.64558 0.47625 0.97366 1.2488 1.0266 2.032 0.0318 0.45508-0.0635 0.87841-0.3175 1.2488z" fill="url(#a)"/><path d="m33.408 117.19c-0.0953-0.11641-0.381-0.34924-0.53975-0.38099 0.0423 0.0529 0.0741 0.10583 0.10583 0.15875 0.0423 0.0847 0.0741 0.16933 0.0635 0.27516-0.0106 0.13758 0.0212 0.26458 0.0847 0.39158 0.0318 0.0635 0.0847 0.0953 0.15875 0.10584 0.13758 0.0106 0.27516-0.10584 0.254-0.23284-0.0106-0.11641-0.0529-0.22225-0.13758-0.3175z"/><path d="m33.239 114.9c0.0423 0.62442 0.37041 0.84667 0.86783 1.0901 0.0106 0.0423 0.0212 0.0953 0.0529 0.14817 0.0741 0.127 0.13758 0.26458 0.1905 0.40216 0.13758 0.33867 0.26458 0.68792 0.39158 1.0266l0.0847 0.23284c-0.0318 0.0212-0.0635 0.0423-0.0847 0.0635-0.24342 0.22225-0.21167 0.51858-0.20109 0.61383 0.0635 0.5715 0.41275 1.1007 1.0372 1.1007 0.0635 0 0.127 0 0.1905-0.0106 0.0318 0 0.0635-0.0106 0.0952-0.0212 0.13758-0.0212 0.27516-0.0423 0.40216-0.0423 0.0952 0 0.16934-0.0212 0.23284-0.0318h0.0106c0.19049-0.0423 0.32808-0.17992 0.37041-0.35983 0.0318 0.0106 0.0635 0.0212 0.0847 0.0318l0.0212 0.0106c0.13758 0.0529 0.27517 0.0847 0.41275 0.11641l0.0952 0.0318c0.0847 0.0212 0.15875 0.0318 0.22225 0.0318 0.0741 0 0.13758-0.0106 0.20108-0.0318 0.23283-0.0635 0.381-0.25399 0.39158-0.49741v-0.15875h0.0106c-0.0635-0.43392-0.22225-1.3547-0.79374-1.3547 0.17991-0.30692 0.26458-0.64558 0.24341-1.0054-0.0423-0.88899-0.6985-1.5028-1.4922-1.7992l-0.11642-0.0423c-0.3175-0.11641-0.64558-0.23283-0.9525-0.37041l-0.127-0.0635c-0.14816-0.0635-0.29633-0.127-0.45508-0.17992-0.13758-0.0529-0.23283-0.0952-0.30691-0.14816-0.0529-0.0423-0.127-0.0953-0.21167-0.13759-0.0741-0.0318-0.14817-0.0529-0.22225-0.0529-0.35983 0-0.56091 0.381-0.62441 0.68792-0.0529 0.254-0.0423 0.49741-0.0212 0.71966z"/><path d="m33.652 114.24c0.0106-0.0953 0.10584-0.39158 0.23284-0.39158 0.0212 0 0.0423 0.0106 0.0635 0.0212 0.0529 0.0212 0.10583 0.0529 0.14816 0.0847 0.127 0.0953 0.26459 0.15875 0.41275 0.21167 0.1905 0.0635 0.37042 0.14816 0.55033 0.23283 0.35983 0.15875 0.71967 0.29633 1.0795 0.43392 0.64558 0.25399 1.2171 0.74083 1.2594 1.4711 0.0212 0.33867-0.0741 0.64559-0.26458 0.92075-0.0635 0.0953-0.14817 0.15875-0.254 0.15875-0.0318 0-0.0635-0.0106-0.10583-0.0212-0.0529-0.0212-0.10583-0.0318-0.15875-0.0529-0.0106-0.0106-0.0318-0.0212-0.0423 0-0.0106 0.0106 0 0.0212 0.0106 0.0318 0.21166 0.23283 0.49741 0.33867 0.80433 0.33867 0.0529 0 0.10583 0 0.15875-0.0106 0.0423-0.0106 0.0635 0.0106 0.0847 0.0423 0.15875 0.23283 0.26458 0.68791 0.30691 0.97366v0.0952c0 0.0741-0.0423 0.127-0.11641 0.14817v0.0106c-0.0317 0.0106-0.0529 0.0106-0.0847 0.0106-0.0423 0-0.0953-0.0106-0.13759-0.0212-0.15875-0.0423-0.3175-0.0741-0.47625-0.127-0.0635-0.0212-0.12699-0.0423-0.17991-0.0847-0.0318-0.0318-0.0741-0.0212-0.10583-0.0423-0.23284-0.11642-0.508-0.26458-0.68792-0.4445 0.0318 0.0847 0.0847 0.15875 0.13758 0.22225 0.0529 0.0635 0.10584 0.11642 0.15875 0.16933 0.0212 0.0212 0.0318 0.0423 0.0423 0.0635 0.0212 0.0847 0.0423 0.16934 0.0529 0.26459 0.0106 0.0847-0.0212 0.13758-0.0953 0.15874-0.0529 0.0106-0.10583 0.0212-0.15875 0.0212-0.19049 0-0.37041 0.0423-0.56091 0.0741-0.0317 0-0.0635 0.0106-0.10583 0.0106-0.41275 0-0.64558-0.39158-0.66675-0.77258-0.0106-0.11641 0-0.22225 0.0952-0.30691 0.0212-0.0212 0.0529-0.0423 0.0847-0.0423 0.0529-0.0106 0.0953-0.0423 0.13758-0.0635 0.0423-0.0212 0.0423-0.0529 0.0318-0.0953-0.0212-0.0952-0.0529-0.1905-0.0847-0.28575-0.15875-0.41275-0.3175-0.8255-0.48683-1.2382-0.0635-0.14816-0.13758-0.29633-0.21167-0.4445-0.0212-0.0423-0.0106-0.0529 0.0318-0.0529 0.11642 0 0.22225 0.0212 0.33867 0.0423-0.0106-0.0318-0.0318-0.0423-0.0529-0.0529-0.11642-0.0635-0.24342-0.10583-0.37042-0.15875-0.14816-0.0635-0.29633-0.11641-0.43391-0.20108-0.24342-0.14816-0.381-0.37041-0.40217-0.66675-0.0106-0.21166-0.0212-0.42333 0.0212-0.63499z" fill="url(#a)"/><path d="m35.578 116.1c0.0635 0.0635 0.12699 0.11642 0.17991 0.17992 0.0318 0.0318 0.0529 0.0741 0.0635 0.127l0.127 0.508c0.0106 0.0212 0.0212 0.0423 0.0529 0.0423 0.0529 0 0.0953-0.0212 0.127-0.0741 0.0212-0.0318 0.0317-0.0635 0.0529-0.0953 0.0847-0.14817 0.0635-0.32808-0.0529-0.4445-0.14817-0.14817-0.33867-0.21167-0.55033-0.24342z"/><path d="m36.961 112.95c-0.0952-0.28575-0.30691-0.86783-0.60325-0.99483-0.0212-0.0952-0.0423-0.1905-0.0741-0.28575-0.127-0.40217-0.254-0.80433-0.38099-1.2065-0.0741-0.23283-0.14817-0.46566-0.22225-0.6985-0.0529-0.15875-0.16934-0.26458-0.30692-0.29633 0.0635-0.10583 0.0741-0.23283 0.0423-0.37041-0.11641-0.47625-0.48683-1.2171-1.0689-1.2171h-0.0212c-0.381 0.0318-0.67733 0.15875-0.96308 0.40216-0.127 0.127-0.21167 0.23283-0.21167 0.43392-0.0106 0.17991 0.0423 0.32808 0.0847 0.42333 0.0741 0.15875 0.16934 0.29633 0.254 0.42333l0.0423 0.0529c0.0953 0.127 0.23283 0.21167 0.381 0.23283-0.0529 0.127-0.0423 0.26459 0.0318 0.40217 0.14817 0.26458 0.28575 0.53975 0.42333 0.81491 0.0953 0.21167 0.1905 0.43392 0.30692 0.64558 0.0529 0.0953 0.0953 0.20109 0.13758 0.3175-0.0635 0.0529-0.11642 0.11642-0.14816 0.20109-0.0212 0.0423-0.0423 0.0952-0.0529 0.14816-0.0635 0.32809 0.0423 0.60325 0.127 0.78317 0.15874 0.33866 0.43391 0.48683 0.79374 0.48683 0.0847 0 0.15875-0.0106 0.22225-0.0212h0.0106c0.3175-0.0423 0.60325-0.0741 0.889-0.0741 0.11641 0 0.22225-0.0423 0.29633-0.127 0.0423-0.0423 0.11642-0.14817 0.11642-0.30692 0-0.0952-0.0212-0.17991-0.0423-0.24341z"/></g><g transform="translate(-25.188 27.091)" fill="url(#f)" stroke-width=".26458"><path d="m61.832 86.039c-0.3175 0-0.62442 0.03175-0.93133 0.07408-0.0635 0.01058-0.127 0.01058-0.17992 0.01058-0.20108 0-0.381-0.07408-0.46566-0.26458-0.08467-0.17992-0.13758-0.37042-0.10583-0.5715 0-0.02117 0.01058-0.04233 0.02117-0.0635 0.01058-0.03175 0.03175-0.05292 0.0635-0.05292s0.0635 0.01058 0.08467 0.04233c0.02117 0.04233 0.127 0.254 0.16933 0.26458-0.03175-0.13758-0.03175-0.28575-0.07408-0.42333-0.08467-0.23283-0.14817-0.47625-0.26458-0.68792-0.15875-0.28575-0.27517-0.59266-0.41275-0.889-0.09525-0.20108-0.20108-0.39158-0.30692-0.58208-0.04233-0.07408-0.03175-0.10583 0.05292-0.127 0.17992-0.05292 0.35983-0.07408 0.53975-0.09525 0.14817-0.02117 0.29633-0.03175 0.4445-0.05292 0.04233 0 0.0635 0.02117 0.07408 0.05292 0.20108 0.635 0.41275 1.2594 0.61383 1.8944 0.04233 0.13758 0.07408 0.28575 0.11642 0.43392 0.01058 0.04233 0.02117 0.0635 0.07408 0.07408 0.08467 0.01058 0.16933 0.04233 0.21167 0.127 0.10583 0.22225 0.21167 0.4445 0.29633 0.67733 0.01058 0.04233 0.02117 0.08467 0.02117 0.127 0 0.03175-0.01058 0.05292-0.04233 0.05292z"/><path d="m59.261 82.346c-0.02117 0.01058-0.04233 0.01058-0.0635 0.01058-0.0635 0-0.11642-0.03175-0.15875-0.08467-0.09525-0.13758-0.1905-0.27517-0.26458-0.42333-0.04233-0.08467-0.0635-0.16933-0.0635-0.26458 0-0.127 0.21167-0.28575 0.30692-0.33866 0.16933-0.08467 0.34925-0.127 0.52916-0.14817 0.37042 0 0.64558 0.5715 0.73025 0.89958 0.02117 0.08467 0 0.11642-0.08467 0.127-0.3175 0.04233-0.635 0.08467-0.94191 0.17992z"/></g><g stroke-width=".26458"><path d="m42.134 111.16c-0.11642-0.35983-0.26458-0.6985-0.40217-1.0266-0.0423-0.10583-0.0847-0.21167-0.127-0.3175l-0.0106-0.0106c-0.0741-0.16933-0.14816-0.32808-0.16933-0.48683-0.0106-0.11642 0.0106-0.20108 0.0741-0.27517 0.127-0.16933 0.13759-0.42333-0.0847-0.59266-0.39158-0.32808-0.73025-0.42333-1.2382-0.42333-0.28575 0-0.59913 0.0712-0.74084 0.33866-0.80234 0.49376-1.1704 0.70579-1.9579 0.86783-0.0423 0.15875 0.0106 0.27517 0.0423 0.32809 0.0423 0.0741 0.12699 0.16933 0.27516 0.21166 0.0423 0.0423 0.0847 0.0953 0.11642 0.15875 0.0847 0.13758 0.14816 0.29633 0.22225 0.46567 0.0318 0.0741 0.0635 0.15875 0.0953 0.24341 0.20108 0.4445 0.45508 0.98425 0.82549 1.3229-0.0635 0.10584-0.10583 0.23284-0.11641 0.381-0.0318 0.34925 0.0529 0.68792 0.24341 1.016 0.0318 0.0529 0.11642 0.20108 0.30692 0.24342 0.0318 0.0106 0.0635 0.0106 0.0847 0.0106 0.14817 0 0.254-0.0847 0.29633-0.11642l0.0424-0.0424c0.10584 0 0.16934 0 0.26458 0.0423 0.0741 0.0318 0.14817 0.0741 0.23284 0.11642 0.0423 0.0212 0.0847 0.0423 0.127 0.0635 0.17991 0.0952 0.34925 0.14816 0.51858 0.16933 0.4445 0 0.64558-0.15875 0.85725-0.52917 0.0212-0.0318 0.0423-0.0635 0.0635-0.0847 0.17991-0.28575 0.28574-0.61383 0.30691-0.98424 0.0212-0.32809-0.0318-0.66675-0.14816-1.0372z"/><path d="m41.901 112.23c-0.0106 0.42333-0.28575 1.2382-0.80434 1.2382-0.13758-0.0106-0.26458-0.0635-0.38099-0.127-0.127-0.0635-0.254-0.13758-0.381-0.1905-0.10584-0.0529-0.22225-0.0741-0.33867-0.0741-0.0423 0-0.0953 0-0.14816 0.0106-0.0741 0.0106-0.13759 0.0635-0.20109 0.10583-0.0318 0.0212-0.0423 0.0423-0.0635 0.0423s-0.0318-0.0212-0.0529-0.0635c-0.13758-0.24341-0.21166-0.508-0.1905-0.79374 0.0106-0.127 0.0529-0.254 0.15875-0.34925 0.0318-0.0212 0.0529-0.0318 0.0741-0.0318s0.0318 0 0.0529 0.0106c0.0952 0.0318 0.20108 0.0529 0.30692 0.0529 0.0953 0 0.1905-0.0212 0.28575-0.0529h0.0318c0.0212 0 0.0423 0 0.0635 0.0106 0.10583 0.0318 0.17991 0.127 0.29633 0.14816 0.0212 0 0.0423 0.0106 0.0635 0.0106 0.0953 0 0.17992-0.0529 0.21167-0.127 0.0423-0.0952 0-0.23283-0.0952-0.29633-0.0318-0.0212-0.0423-0.0318-0.0212-0.0635 0.0741-0.127 0.0741-0.26458 0.0529-0.40217v-0.0318c0-0.0212 0.0106-0.0529-0.0106-0.0529s-0.0212 0.0212-0.0212 0.0423c0 0.15875-0.27517 0.47625-0.40217 0.56092-0.127 0.0953-0.26458 0.14817-0.40217 0.14817-0.67733 0-1.1218-0.96308-1.3652-1.4817-0.11642-0.24341-0.21167-0.49741-0.34925-0.73024-0.0741-0.11642-0.21167-0.28575-0.35983-0.30692-0.0318-0.0106-0.0423-0.0212-0.0318-0.0635 0.28452-0.80452 0.87224-0.53859 1.5557-0.35983 0.11642 0.254 0.15875 0.52916 0.21167 0.79375 0.0529 0.27516 0.0952 0.55033 0.1905 0.81491 0.0529 0.13758 0.24341 0.43392 0.42333 0.43392 0.0741 0 0.13758-0.0529 0.15875-0.13759 0.0212-0.0741 0.0212-0.14816 0.0106-0.22225-0.0423-0.28575-0.15875-0.53975-0.3175-0.77258-0.0847-0.11641-0.16933-0.23283-0.24341-0.34925-0.0635-0.0952-0.0741-0.20108-0.10584-0.30691-0.0212-0.0741-0.0423-0.14817-0.0635-0.22225-0.0741-0.22225 0.0423-0.46567 0.254-0.55033 0.127-0.0423 0.24342-0.0529 0.381-0.0529 0.33867 0 0.62441 0.13758 0.889 0.33866 0.0212 0.0212 0.0423 0.0318 0.0106 0.0635-0.127 0.16933-0.16933 0.35983-0.14817 0.56092 0.0212 0.22225 0.10583 0.42333 0.1905 0.62441 0.17992 0.43392 0.381 0.85725 0.51858 1.3018 0.0953 0.29633 0.14817 0.59266 0.127 0.89958z" fill="url(#b)"/><path d="m34.748 112.52v-0.127c-0.0212-0.21166-0.0423-0.41275-0.0212-0.59266 0.0212-0.1905-0.0635-0.35983-0.22225-0.46567-0.0423-0.0318-0.0847-0.0635-0.13758-0.0847 0.0847-0.14816 0.127-0.30691 0.15875-0.45508 0.0318-0.15875-0.0106-0.3175-0.11642-0.4445-0.0847-0.0847-0.34925-0.78316-0.40216-0.93133-0.15875-0.43391-0.29634-0.91016-0.43392-1.5028l-0.0106-0.0529c-0.0423-0.16933-0.0847-0.35983-0.16933-0.55033-0.127-0.27516-0.33867-0.43391-0.64558-0.43391-0.35984 0-0.81492 0.13758-0.92075 0.51858-0.0423-0.0106-0.0847-0.0106-0.11642-0.0106-0.52916 0-0.86783 0.55033-0.97366 1.0054-0.0741 0.28575-0.10583 0.60325-0.10583 0.99483 0 0.381 0.0212 0.75142 0.10583 1.1324l0.0106 0.0529c0.24341 1.1959 1.1536 3.6512 2.6882 3.6512 0.41275 0 0.76199-0.17991 1.0583-0.46566 0.16933-0.16933 0.26458-0.40217 0.29633-0.70908 0.0212-0.17992 0.0106-0.35983 0-0.508z"/><path d="m34.42 113.01c-0.0529 0.508-0.49742 0.85725-0.99483 0.85725-1.0266 0-1.8521-1.6828-2.1272-2.5718-0.0847-0.26458-0.13759-0.53975-0.19051-0.81491-0.0212-0.13758-0.0423-0.27517-0.0635-0.41275-0.0212-0.21167-0.0212-0.42333-0.0212-0.635 0-0.49741 0.0529-1.2912 0.53974-1.5557 0.0635-0.0318 0.11642-0.0529 0.16934-0.0529 0.16933 0 0.32808 0.14816 0.43391 0.35983 0.0423 0.0741 0.0741 0.15875 0.11642 0.24342-0.0529-0.27517-0.0952-0.48684-0.0952-0.762 0-0.30692 0.37041-0.34925 0.60325-0.34925 0.11641 0.0106 0.21166 0.0847 0.27516 0.22225 0.0741 0.16933 0.11642 0.34925 0.15875 0.52916 0.20108 0.8255 0.43392 1.6933 0.84666 2.4448 0.0212 0.0423 0.0423 0.0847 0.0741 0.11641 0.0318 0.0423 0.0423 0.0847 0.0318 0.13759-0.0318 0.19049-0.0741 0.32808-0.21166 0.46566-0.10583 0.14817-0.23283 0.20108-0.381 0.20108-0.43392 0-0.68791-0.254-0.84666-0.64558-0.0952-0.22225-0.16934-0.45508-0.24342-0.6985-0.0106-0.0212-0.0106-0.0529-0.0317-0.0529-0.0212-0.0106-0.0212 0.0212-0.0318 0.0423-0.0212 0.0741-0.0212 0.15875-0.0318 0.24342-0.0318 0.47625 0.10583 0.92075 0.28575 1.3547 0.0741 0.16933 0.21166 0.40217 0.37041 0.508 0.0529 0.0423 0.0952 0.0529 0.13759 0.0529 0.0635 0 0.10583-0.0635 0.127-0.1905 0.0529-0.22225 0.32808-0.52916 0.57149-0.52916 0.0318 0 0.0635 0.0106 0.0953 0.0212 0.11642 0.0318 0.23284 0.0741 0.34925 0.14816 0.0423 0.0212 0.0635 0.0529 0.0635 0.10584-0.0212 0.25399 0.0106 0.51858 0.0317 0.78316 0.0106 0.14817 0.0212 0.29633 0.0106 0.4445z" fill="url(#b)"/><path d="m39.502 108.7c-0.0635-0.127-0.17991-0.21166-0.31749-0.23283-0.1905 0-0.254 0.0529-0.381 0.17992-0.0741 0.0529-0.16934 0.0847-0.28575 0.0952-0.32808 0-0.58208-0.0635-0.87842-0.19049-0.10583-0.0529-0.21166-0.11642-0.32808-0.17992-0.40216-0.254-0.79375-0.41275-1.2806-0.41275-0.58208 0-0.99483 0.26458-1.143 0.85725-0.0741 0.29633-0.0106 0.58208 0.0423 0.77258 0.0423 0.14817 0.10583 0.27516 0.15875 0.40216 0.0106 0.0317 0.0212 0.0635 0.0318 0.0952 0.10583 0.254 0.29633 0.64559 0.61383 0.64559 0.0635 0 0.13758-0.0212 0.20108-0.0529 0.0106 0 0.0212 0 0.0423 0.0106 0.0847 0.0212 0.16933 0.0741 0.27517 0.15875 0.0212 0.0106 0.0529 0.0423 0.0741 0.0741 0.0318 0.0318 0.0635 0.0635 0.10583 0.0953 0.29633 0.27516 0.49741 0.58208 0.66675 0.95249-0.0529 0.0212-0.10584 0.0529-0.15875 0.0847-0.26459 0.17992-0.39158 0.48684-0.32809 0.81492 0.0847 0.43391 0.37042 1.0054 0.87842 1.0054 0.0635 0 0.127-0.0106 0.17991-0.0318l0.0423-0.0106c0.0318-0.0106 0.0635-0.0212 0.0847-0.0212 0.127-0.0318 0.254-0.0423 0.40217-0.0423 0.0741 0 0.14817 0.0106 0.23283 0.0106h0.127c0.0741 0.0106 0.15875 0.0212 0.254 0.0212 0.32808-0.0106 0.55033-0.23283 0.56092-0.56091v-0.0106-0.0317c0.0212-0.3175-0.0318-0.59267-0.15875-0.8255-0.0847-0.14817-0.1905-0.254-0.3175-0.32808-0.0635-0.508-0.13759-1.0478-0.32809-1.524 0.66675 0 1.016-0.34925 1.0689-0.98424 0.0212-0.27517-0.0318-0.55034-0.16933-0.80433z"/><path d="m39.259 109.51c-0.0423 0.44449-0.24342 0.62441-0.67733 0.62441-0.0741 0-0.15875-0.0106-0.23284-0.0212-0.16933-0.0212-0.33866-0.0423-0.50799-0.0635-0.0212 0-0.0423 0-0.0741 0.0106 0.0529 0.0529 0.11641 0.0847 0.16933 0.127 0.41275 0.39158 0.60325 1.4711 0.60325 2.0743 0 0.0423 0.0106 0.0635 0.0529 0.0635 0.14816 0.0106 0.24341 0.0952 0.30691 0.21166 0.10584 0.1905 0.127 0.40217 0.10584 0.61383v0.0317c-0.0106 0.127-0.0847 0.20109-0.21167 0.20109-0.11642 0-0.23283-0.0212-0.34925-0.0212-0.0741 0-0.15875-0.0106-0.23283-0.0106-0.22225 0-0.46567 0.0212-0.67733 0.10583h-0.11642c-0.27516-0.10583-0.381-0.41275-0.42333-0.67733-0.0317-0.17992 0.0318-0.33867 0.17992-0.43392 0.0635-0.0423 0.13758-0.0741 0.21166-0.0741 0.0741 0 0.15875 0.0318 0.23283 0.0952 0.0212 0.0106 0.0317 0.0318 0.0635 0.0423 0-0.42333-0.58208-1.3547-0.94191-1.6827-0.1905-0.1905-0.46567-0.43392-0.75141-0.43392-0.0423 0-0.0741 0.0106-0.11642 0.0212-0.0318 0.0106-0.0635 0.0212-0.0847 0.0423-0.0106 0.0106-0.0212 0.0106-0.0318 0.0106s-0.0318-0.0106-0.0423-0.0318c-0.17992-0.26458-0.32808-0.55033-0.42333-0.84666-0.0529-0.17992-0.0847-0.37042-0.0423-0.55033 0.0741-0.30692 0.26458-0.52917 0.59266-0.56092 0.39158 0 0.65617 0.0106 1.016 0.20108 0.21166 0.10584 0.41275 0.23284 0.62441 0.32809 0.37042 0.15875 0.65617 0.22225 1.0583 0.22225 0.16934-0.0106 0.32808-0.0529 0.47625-0.14817 0.0423-0.0212 0.0741-0.0529 0.10583-0.0847 0.0212-0.0212 0.0318-0.0212 0.0529 0.0106 0.0953 0.1905 0.13759 0.39158 0.11642 0.60325z" fill="url(#b)"/><path d="m36.824 110h0.0318c0.0212 0 0.14817-0.0106 0.14817-0.0212s-0.0106-0.0106-0.0212-0.0106c-0.13759-0.0847-0.27517-0.16934-0.42334-0.23284-0.0847-0.0318-0.15875-0.0529-0.24341-0.0529-0.0847 0-0.17992 0.0212-0.26458 0.0741-0.0212 0.0106-0.0529 0.0212-0.0529 0.0529 0 0.0318 0.0318 0.0318 0.0529 0.0423 0.34924 0.15875 0.66674 0.39159 0.93133 0.65617 0-0.0106 0-0.0212-0.0106-0.0318-0.0635-0.13758-0.127-0.27517-0.20109-0.40217-0.0106-0.0106-0.0212-0.0212-0.0106-0.0318s0.0318 0 0.0423 0z"/><path d="m22.576 118.61c-0.04233-0.39158-0.27517-1.0583-0.68792-1.2171l-0.03175-0.0106c-0.05292-0.0212-0.10583-0.0423-0.16933-0.0635-0.3175-0.66675-0.5715-1.4605-0.62441-2.1907-0.01058-0.21167 0.01058-0.381 0.0635-0.52917 0.08467-0.127 0.10583-0.25399 0.0635-0.38099-0.05292-0.16934-0.17992-0.24342-0.23283-0.27517-0.30692-0.23283-0.73025-0.49742-1.1324-0.49742-0.3175 0-0.68792 0.17992-0.85725 0.45509-0.21167-0.21167-0.508-0.37042-0.81491-0.37042-0.40216 0-0.71966 0.27517-0.96308 0.5715-0.3175 0.381-0.39158 0.8255-0.42333 1.2488-0.01058 0.21166 0.10583 0.32808 0.15875 0.37042 0.04233 0.0423 0.127 0.0847 0.24342 0.0847 0.05292 0 0.09525 0 0.14817-0.0212 0.01058 0 0.02117 0 0.07408 0.0212 0.07408 0.0423 0.13758 0.10583 0.21167 0.22225 0.10583 0.17991 0.16933 0.39158 0.23283 0.61383 0.02117 0.0952 0.04233 0.1905 0.0635 0.28575 0.05292 0.21166 0.10583 0.43391 0.1905 0.64558l0.02117 0.0529c0.3175 0.79374 0.91016 1.7674 1.8732 1.7992 0.30692 0 0.51858-0.0635 0.73025-0.27516 0.07408 0.0423 0.15875 0.0741 0.26458 0.0847h0.09525c0.08467 0.0106 0.17992 0.0212 0.28575 0.0212h0.07408c0.07408 0 0.14817 0.0106 0.23283 0.0106 0.16933 0 0.34925-0.0212 0.53975-0.0847 0.34925-0.127 0.37042-0.41275 0.34925-0.5715z"/><path d="m22.068 118.82c-0.13758 0.0529-0.27517 0.0635-0.41275 0.0635-0.09525 0-0.1905-0.0106-0.28575-0.0106-0.10583 0-0.21167-0.0212-0.3175-0.0318-0.23283-0.0423-0.35983-0.381-0.41275-0.58208-0.02117-0.0952-0.03175-0.1905 0-0.28575 0.01058-0.0212 0.02117-0.0423 0-0.0529s-0.04233 0-0.05292 0.0106c-0.05292 0.0423-0.08467 0.10583-0.10583 0.16933-0.03175 0.11642-0.03175 0.23284-0.02117 0.35983 0.01058 0.0847 0.02117 0.16934 0.02117 0.254 0 0.0741-0.03175 0.127-0.08467 0.16934-0.10583 0.0741-0.21167 0.10583-0.42333 0.10583-0.81491-0.0318-1.3123-0.93133-1.5663-1.6087-0.10583-0.29633-0.16933-0.60325-0.254-0.89958-0.11642-0.39158-0.26458-0.85725-0.65616-1.0689-0.07408-0.0318-0.14817-0.0529-0.22225-0.0529-0.04233 0-0.09525 0.0106-0.13758 0.0212-0.03175 0.0106-0.04233 0.0106-0.04233-0.0317 0.05292-0.59266 0.1905-1.0901 0.73025-1.4182 0.09525-0.0529 0.1905-0.0741 0.27517-0.0741 0.52916 0 0.77258 0.52917 0.92075 0.9525 0.15875 0.47625 0.254 0.96308 0.32808 1.4605 0.04233 0.254 0.07408 0.508 0.13758 0.75142 0.03175 0.14817 0.1905 0.55033 0.381 0.55033 0.07408 0 0.127-0.0529 0.14817-0.13758 0.02117-0.0953 0.01058-0.1905-0.01058-0.28575-0.0635-0.32808-0.16933-0.64558-0.30692-0.9525-0.09525-0.21166-0.20108-0.42333-0.29633-0.635-0.127-0.27516-0.22225-0.56091-0.27517-0.85724-0.03175-0.14817-0.02117-0.30692 0-0.45509 0.04233-0.29633 0.32808-0.48683 0.61383-0.48683 0.3175 0 0.68792 0.254 0.93133 0.43392 0.03175 0.0212 0.08467 0.0318 0.09525 0.0741s-0.03175 0.0741-0.04233 0.11641c-0.09525 0.23284-0.11642 0.47625-0.09525 0.73025 0.05292 0.85725 0.34925 1.7039 0.73025 2.4659 0.01058 0.0317 0.03175 0.0423 0.0635 0.0423 0.09525 0.0106 0.17992 0.0529 0.26458 0.0847 0.24342 0.10583 0.41275 0.67733 0.4445 0.91016 0.01058 0.10584-0.02117 0.13759-0.11642 0.16934z" fill="url(#a)"/><path d="m18.806 117.67c-0.0635-0.0318-0.127-0.0529-0.17992-0.0741-0.09525-0.0318-0.17992-0.0635-0.26458-0.10583-0.01058-0.0318-0.02117-0.0635-0.04233-0.0953-0.05292-0.127-0.10583-0.26459-0.13758-0.40217-0.09525-0.381-0.15875-0.762-0.22225-1.1642-0.02117-0.127-0.04233-0.254-0.0635-0.381-0.01058-0.0423-0.01058-0.0847-0.02117-0.13758-0.127-1.2065-0.94191-1.6192-1.9367-2.0214-0.3175-0.127-0.62442-0.24342-0.91016-0.42334-0.09525-0.0529-0.17992-0.0741-0.24342-0.0741-0.47625 0-0.5715 0.77259-0.61383 1.1218-0.03175 0.27517-0.01058 0.55034 0.02117 0.80433 0.04233 0.3175 0.1905 0.5715 0.41275 0.73025 0 0.4445 0.05292 0.56092 0.254 0.9525 0.27517 0.56091 0.53975 1.143 0.635 1.7568l0.01058 0.0635c0.02117 0.11641 0.04233 0.22225 0.04233 0.3175 0 0.11641-0.01058 0.22224-0.04233 0.33866-0.05292 0.20108-0.02117 0.35983 0.11642 0.51858 0.26458 0.30692 0.83608 0.60325 1.2594 0.60325 0.28575 0 0.62441-0.13758 0.79375-0.381 0.04233 0.0212 0.08467 0.0423 0.127 0.0635 0.16933 0.0953 0.32808 0.127 0.45508 0.127 0.60325 0 0.94191-0.66675 1.0054-1.1853 0.05292-0.35983-0.14817-0.762-0.4445-0.89958z"/><path d="m18.88 118.57c-0.04233 0.30692-0.254 0.85724-0.635 0.85724-0.59266 0-1.016-0.93132-1.1959-1.4182-0.02117-0.0741-0.04233-0.14816-0.05292-0.22225-0.02117-0.14816 0.01058-0.25399 0.08467-0.33866 0.02117-0.0212 0.04233-0.0423 0.05292-0.0741v-0.0318c-0.01058-0.0212-0.02117-0.0106-0.03175-0.0106s-0.02117 0-0.03175 0.0106c-0.09525 0.0529-0.1905 0.0635-0.29633 0.0635-0.11642 0-0.24342-0.0212-0.35983-0.0635-0.02117-0.0106-0.04233-0.0318-0.0635-0.0212 0.02117 0.0635 0.0635 0.0953 0.10583 0.127 0.24342 0.21167 0.37042 0.48683 0.46566 0.78316 0.09525 0.26459 0.22225 0.508 0.35983 0.74083 0.127 0.21167 0.10583 0.41275-0.0635 0.508-0.11642 0.0635-0.23283 0.10583-0.37042 0.10583-0.30692 0-0.75142-0.22224-0.97366-0.44449-0.05292-0.0635-0.0635-0.0952-0.04233-0.17992 0.03175-0.13758 0.05292-0.27516 0.05292-0.42333 0-0.8255-0.45508-1.7674-0.8255-2.4977-0.11642-0.254-0.127-0.33867-0.127-0.61383 0-0.0423 0.02117-0.0423 0.05292-0.0423 0.10583 0.0212 0.21167 0.0423 0.32808 0.0847-0.03175-0.0529-0.0635-0.0741-0.09525-0.0952-0.127-0.0635-0.254-0.127-0.381-0.1905-0.16933-0.0953-0.27517-0.27517-0.30692-0.508s-0.05292-0.46566-0.02117-0.68791c0.03175-0.26459 0.08467-0.51859 0.17992-0.74083 0.01058-0.0318 0.03175-0.0529 0.05292-0.0529 0.01058 0 0.02117 0.0106 0.04233 0.0212 0.42333 0.26458 0.86783 0.40216 1.3017 0.58208 0.66675 0.27516 1.1112 0.58208 1.3335 1.3017 0.04233 0.14817 0.04233 0.30692 0.0635 0.45508 0.08467 0.52917 0.14817 1.0583 0.28575 1.5875 0.04233 0.16933 0.10583 0.32808 0.16933 0.48683 0.01058 0.0106 0.02117 0.0318 0.01058 0.0529-0.01058 0.0106-0.03175 0-0.04233 0-0.04233-0.0106-0.08467-0.0212-0.13758-0.0318 0.04233 0.0635 0.08467 0.0952 0.127 0.127 0.1905 0.11642 0.381 0.20108 0.5715 0.26458 0.04233 0.0106 0.08467 0.0317 0.127 0.0529 0.13758 0.0635 0.26458 0.30692 0.23283 0.508z" fill="url(#a)"/><path d="m16.626 116.47c-0.0635-0.0952-0.10583-0.20109-0.09525-0.32809 0.01058-0.0529 0-0.11641 0-0.17991-0.01058-0.0423-0.01058-0.0847-0.02117-0.127-0.02117-0.0847-0.07408-0.14817-0.13758-0.15875-0.04233-0.0106-0.10583 0.0423-0.11642 0.11641-0.02117 0.16934-0.01058 0.33867 0.08467 0.48684 0.07408 0.127 0.16933 0.21166 0.27517 0.27516 0.01058 0.0106 0.03175 0.0318 0.04233 0.0106s-0.01058-0.0318-0.02117-0.0423c-0.01058-0.0106-0.02117-0.0212-0.03175-0.0317z"/><path d="m24.751 114.23c-0.0635-0.127-0.17992-0.21167-0.3175-0.23284-0.1905 0-0.254 0.0529-0.381 0.17992-0.07408 0.0529-0.16933 0.0847-0.28575 0.0952-0.32808 0-0.58208-0.0635-0.87841-0.1905-0.10583-0.0529-0.21167-0.11642-0.32808-0.17992-0.40216-0.25399-0.79375-0.41274-1.2806-0.41274-0.58208 0-0.99483 0.26458-1.143 0.85724-0.07408 0.29634-0.01058 0.58208 0.04233 0.77258 0.04233 0.14817 0.10583 0.27517 0.15875 0.40217 0.01058 0.0318 0.02117 0.0635 0.03175 0.0953 0.10583 0.254 0.29633 0.64558 0.61383 0.64558 0.0635 0 0.13758-0.0212 0.20108-0.0529 0.01058 0 0.02117 0 0.04233 0.0106 0.08467 0.0212 0.16933 0.0741 0.27517 0.15875 0.02117 0.0106 0.05292 0.0423 0.07408 0.0741 0.03175 0.0318 0.0635 0.0635 0.10583 0.0953 0.29633 0.27516 0.49742 0.58208 0.66675 0.9525-0.05292 0.0212-0.10583 0.0529-0.15875 0.0847-0.26458 0.17991-0.39158 0.48683-0.32808 0.81491 0.08467 0.43391 0.37042 1.0054 0.87841 1.0054 0.0635 0 0.127-0.0106 0.17992-0.0318l0.04233-0.0106c0.03175-0.0106 0.0635-0.0212 0.08467-0.0212 0.127-0.0318 0.254-0.0423 0.40216-0.0423 0.07408 0 0.14817 0.0106 0.23283 0.0106h0.127c0.07408 0.0106 0.15875 0.0212 0.254 0.0212 0.32808-0.0106 0.55033-0.23283 0.56092-0.56091v-0.0106-0.0318c0.02117-0.3175-0.03175-0.59267-0.15875-0.8255-0.08467-0.14817-0.1905-0.254-0.3175-0.32808-0.0635-0.508-0.13758-1.0478-0.32808-1.524 0.66675 0 1.016-0.34925 1.0689-0.98424 0.02117-0.27517-0.03175-0.55034-0.16933-0.80433z"/><path d="m24.508 115.04c-0.04233 0.4445-0.24342 0.62442-0.67733 0.62442-0.07408 0-0.15875-0.0106-0.23283-0.0212-0.16933-0.0212-0.33867-0.0423-0.508-0.0635-0.02117 0-0.04233 0-0.07408 0.0106 0.05292 0.0529 0.11642 0.0847 0.16933 0.127 0.41275 0.39158 0.60325 1.4711 0.60325 2.0743 0 0.0423 0.01058 0.0635 0.05292 0.0635 0.14817 0.0106 0.24342 0.0952 0.30692 0.21167 0.10583 0.1905 0.127 0.40216 0.10583 0.61383v0.0318c-0.01058 0.127-0.08467 0.20108-0.21167 0.20108-0.11642 0-0.23283-0.0212-0.34925-0.0212-0.07408 0-0.15875-0.0106-0.23283-0.0106-0.22225 0-0.46567 0.0212-0.67733 0.10584h-0.11642c-0.27517-0.10584-0.381-0.41275-0.42333-0.67734-0.03175-0.17991 0.03175-0.33866 0.17992-0.43391 0.0635-0.0423 0.13758-0.0741 0.21167-0.0741 0.07408 0 0.15875 0.0318 0.23283 0.0953 0.02117 0.0106 0.03175 0.0318 0.0635 0.0423 0-0.42333-0.58208-1.3547-0.94191-1.6828-0.1905-0.19049-0.46566-0.43391-0.75141-0.43391-0.04233 0-0.07408 0.0106-0.11642 0.0212-0.03175 0.0106-0.0635 0.0212-0.08467 0.0423-0.01058 0.0106-0.02117 0.0106-0.03175 0.0106s-0.03175-0.0106-0.04233-0.0317c-0.17992-0.26458-0.32808-0.55033-0.42333-0.84666-0.05292-0.17992-0.08467-0.37042-0.04233-0.55034 0.07408-0.30691 0.26458-0.52916 0.59266-0.56091 0.39158 0 0.65616 0.0106 1.016 0.20108 0.21167 0.10583 0.41275 0.23283 0.62442 0.32808 0.37042 0.15875 0.65616 0.22225 1.0583 0.22225 0.16933-0.0106 0.32808-0.0529 0.47625-0.14816 0.04233-0.0212 0.07408-0.0529 0.10583-0.0847 0.02117-0.0212 0.03175-0.0212 0.05292 0.0106 0.09525 0.1905 0.13758 0.39158 0.11642 0.60325z" fill="url(#a)"/><path d="m22.074 115.53h0.03175c0.02117 0 0.14817-0.0106 0.14817-0.0212s-0.01058-0.0106-0.02117-0.0106c-0.13758-0.0847-0.27517-0.16933-0.42333-0.23283-0.08467-0.0318-0.15875-0.0529-0.24342-0.0529-0.08467 0-0.17992 0.0212-0.26458 0.0741-0.02117 0.0106-0.05292 0.0212-0.05292 0.0529 0 0.0318 0.03175 0.0318 0.05292 0.0423 0.34925 0.15875 0.66675 0.39158 0.93133 0.65616 0-0.0106 0-0.0212-0.01058-0.0317-0.0635-0.13758-0.127-0.27516-0.20108-0.40216-0.01058-0.0106-0.02117-0.0212-0.01058-0.0318 0.01058-0.0106 0.03175 0 0.04233 0z"/><path d="m32.228 118.46-0.0318-0.0318c-0.0423-0.0529-0.0847-0.10583-0.11642-0.15875-0.5715-0.79375-1.016-2.0532-1.1536-3.0268-0.0635-0.41275-0.0847-0.75142-0.0635-1.0583 0.0106-0.17992-0.0318-0.32808-0.127-0.48683-0.22225-0.34925-0.6985-0.89958-1.1642-0.89958-0.5715 0-0.73025 0.48683-0.762 0.96308-0.01058 0.24341 0.02117 0.47624 0.05292 0.69849 0.04233 0.33867 0.10583 0.64558 0.20108 0.93133-0.13758 0-0.26458 0.0318-0.37042 0.0741-0.03175 0.0106-0.0635 0.0212-0.08467 0.0423-0.13758-0.40216-0.28575-0.79374-0.43392-1.1747-0.16933-0.41275-0.3175-0.75142-0.51858-1.0689-0.13758-0.20108-0.39158-0.49741-0.66675-0.49741-0.27516 0-0.56091 0.27517-0.70908 0.48683-0.23283 0.3175-0.35983 0.71967-0.40216 1.27-0.02117 0.3175 0.17992 0.45508 0.26458 0.49741 0.09525 0.0423 0.254 0.24342 0.3175 0.32809l0.03175 0.0318c0.79375 0.99482 1.397 2.6882 1.524 3.9582 0.04233 0.42333 0.60325 0.65616 0.97366 0.65616 0.22225-0.0106 0.635-0.10583 0.83608-0.65616 0.0212-0.0741 0.0423-0.14817 0.0635-0.22225 0.28575 0.40216 0.79375 0.80433 1.3018 0.80433 0.60324 0 1.1007-0.47625 1.1853-1.0583 0.0318-0.15875-0.0106-0.30692-0.10583-0.42333z"/><path d="m32.006 118.8c-0.0741 0.37041-0.30692 0.68791-0.6985 0.75141-0.0423 0.0106-0.0741 0.0106-0.11642 0.0106-0.81491 0-1.4182-1.2594-1.5769-1.9791-0.02117-0.10583-0.0635-0.21166-0.11642-0.30691-0.02117-0.0318-0.04233-0.0529-0.07408-0.0741 0 0.0318 0.01058 0.0635 0.02117 0.0952 0.05292 0.1905 0.05292 0.381 0.07408 0.5715 0.02117 0.21166 0.03175 0.42333 0.05292 0.63499 0.02117 0.26459-0.01058 0.49742-0.09525 0.71967-0.09525 0.26458-0.254 0.39158-0.48683 0.40217-0.17992 0-0.34925-0.0741-0.508-0.21167-0.03175-0.0212-0.05292-0.0529-0.05292-0.10583-0.15875-1.4922-0.80433-3.3126-1.7992-4.4556-0.07408-0.0847-0.15875-0.15875-0.24342-0.20109-0.05292-0.0212-0.0635-0.0529-0.0635-0.11641 0.03175-0.4445 0.20108-1.2277 0.6985-1.4076 0.02117 0 0.03175-0.0106 0.05292-0.0106s0.04233 0.0106 0.0635 0.0212c0.45508 0.27516 1.0901 2.2119 1.27 2.7728 0.08467 0.27517 0.13758 0.56092 0.1905 0.84667 0.02117 0.10583 0.04233 0.21166 0.0635 0.3175 0.04233-0.17992-0.01058-0.381-0.01058-0.5715s0.01058-0.381 0.0635-0.55033c0.03175-0.0953 0.09525-0.14817 0.16933-0.17992 0.0635-0.0318 0.127-0.0423 0.1905-0.0423 0.16933 0 0.33867 0.10583 0.49742 0.26458 0.10583 0.10584 0.17991 0.24342 0.26458 0.35983 0.0529 0.0741 0.10583 0.13759 0.17992 0.17992-0.0212-0.0423-0.0423-0.0847-0.0635-0.11642-0.35984-0.63499-0.59267-1.3335-0.6985-2.0532-0.03175-0.21166-0.05292-0.42333-0.04233-0.63499 0.02117-0.254 0.07408-0.60325 0.40217-0.60325 0.0635 0 0.11641 0.0212 0.17991 0.0529 0.254 0.15875 0.47625 0.381 0.65616 0.67733 0.0529 0.0847 0.0741 0.15875 0.0635 0.26458-0.0212 0.381 0.0106 0.762 0.0741 1.143 0.15874 1.0795 0.67733 2.5506 1.3864 3.4078 0.0318 0.0317 0.0423 0.0741 0.0318 0.11642z" fill="url(#a)"/><path d="m26.358 109.35c0.04233 0.62441 0.37042 0.84666 0.86783 1.0901 0.01058 0.0423 0.02117 0.0953 0.05292 0.14817 0.07408 0.12699 0.13758 0.26458 0.1905 0.40216 0.13758 0.33867 0.26458 0.68792 0.39158 1.0266l0.08467 0.23283c-0.03175 0.0212-0.0635 0.0423-0.08467 0.0635-0.24342 0.22225-0.21167 0.51858-0.20108 0.61383 0.0635 0.5715 0.41275 1.1007 1.0372 1.1007 0.0635 0 0.127 0 0.1905-0.0106 0.03175 0 0.0635-0.0106 0.09525-0.0212 0.13758-0.0212 0.27517-0.0423 0.40216-0.0423 0.09525 0 0.16933-0.0212 0.23283-0.0318h0.0106c0.1905-0.0423 0.32808-0.17992 0.37042-0.35984 0.0318 0.0106 0.0635 0.0212 0.0847 0.0318l0.0212 0.0106c0.13758 0.0529 0.27516 0.0847 0.41274 0.11642l0.0952 0.0317c0.0847 0.0212 0.15875 0.0318 0.22225 0.0318 0.0741 0 0.13759-0.0106 0.20109-0.0318 0.23283-0.0635 0.381-0.254 0.39158-0.49741v-0.15875h0.0106c-0.0635-0.43392-0.22225-1.3547-0.79375-1.3547 0.17992-0.30692 0.26458-0.64559 0.24342-1.0054-0.0423-0.889-0.6985-1.5028-1.4922-1.7992l-0.11642-0.0423c-0.3175-0.11641-0.64558-0.23283-0.9525-0.37041l-0.127-0.0635c-0.14817-0.0635-0.29633-0.12701-0.45508-0.17992-0.13758-0.0529-0.23283-0.0952-0.30692-0.14817-0.05292-0.0423-0.127-0.0953-0.21167-0.13758-0.07408-0.0318-0.14817-0.0529-0.22225-0.0529-0.35983 0-0.56092 0.381-0.62442 0.68791-0.05292 0.254-0.04233 0.49742-0.02117 0.71967z"/><path d="m26.771 108.69c0.01058-0.0953 0.10583-0.39158 0.23283-0.39158 0.02117 0 0.04233 0.0106 0.0635 0.0212 0.05292 0.0212 0.10583 0.0529 0.14817 0.0847 0.127 0.0952 0.26458 0.15875 0.41275 0.21166 0.1905 0.0635 0.37042 0.14817 0.55033 0.23284 0.35983 0.15875 0.71966 0.29633 1.0795 0.43391 0.64558 0.254 1.2171 0.74083 1.2594 1.4711 0.0212 0.33867-0.0741 0.64558-0.26458 0.92075-0.0635 0.0952-0.14817 0.15875-0.254 0.15875-0.0318 0-0.0635-0.0106-0.10584-0.0212-0.0529-0.0212-0.10583-0.0318-0.15875-0.0529-0.0106-0.0106-0.0318-0.0212-0.0423 0-0.0106 0.0106 0 0.0212 0.0106 0.0318 0.21167 0.23283 0.49742 0.33866 0.80433 0.33866 0.0529 0 0.10584 0 0.15875-0.0106 0.0423-0.0106 0.0635 0.0106 0.0847 0.0423 0.15875 0.23284 0.26459 0.68792 0.30692 0.97367v0.0953c0 0.0741-0.0423 0.127-0.11642 0.14816v0.0106c-0.0318 0.0106-0.0529 0.0106-0.0847 0.0106-0.0423 0-0.0952-0.0106-0.13758-0.0212-0.15875-0.0423-0.3175-0.0741-0.47625-0.127-0.0635-0.0212-0.127-0.0423-0.17991-0.0847-0.0317-0.0318-0.0741-0.0212-0.10584-0.0423-0.23283-0.11641-0.508-0.26458-0.68791-0.4445 0.03175 0.0847 0.08467 0.15875 0.13758 0.22225 0.05292 0.0635 0.10583 0.11642 0.15875 0.16934 0.02117 0.0212 0.03175 0.0423 0.04233 0.0635 0.02117 0.0847 0.04233 0.16933 0.05292 0.26458 0.0106 0.0847-0.0212 0.13758-0.09525 0.15875-0.05292 0.0106-0.10583 0.0212-0.15875 0.0212-0.1905 0-0.37042 0.0423-0.56092 0.0741-0.03175 0-0.0635 0.0106-0.10583 0.0106-0.41275 0-0.64558-0.39158-0.66675-0.77258-0.01058-0.11642 0-0.22225 0.09525-0.30692 0.02117-0.0212 0.05292-0.0423 0.08467-0.0423 0.05292-0.0106 0.09525-0.0423 0.13758-0.0635 0.04233-0.0212 0.04233-0.0529 0.03175-0.0953-0.02117-0.0952-0.05292-0.1905-0.08467-0.28575-0.15875-0.41275-0.3175-0.8255-0.48683-1.2382-0.0635-0.14817-0.13758-0.29634-0.21167-0.4445-0.02117-0.0423-0.01058-0.0529 0.03175-0.0529 0.11642 0 0.22225 0.0212 0.33866 0.0423-0.01058-0.0318-0.03175-0.0423-0.05292-0.0529-0.11642-0.0635-0.24342-0.10584-0.37042-0.15875-0.14817-0.0635-0.29633-0.11642-0.43392-0.20108-0.24342-0.14817-0.381-0.37042-0.40216-0.66675-0.01058-0.21167-0.02117-0.42333 0.02117-0.635z" fill="url(#b)"/><path d="m28.697 110.55c0.0635 0.0635 0.127 0.11642 0.17992 0.17992 0.03175 0.0317 0.05292 0.0741 0.0635 0.127l0.127 0.508c0.01058 0.0212 0.02117 0.0423 0.05292 0.0423 0.05292 0 0.09525-0.0212 0.127-0.0741 0.02117-0.0317 0.03175-0.0635 0.05292-0.0952 0.08467-0.14817 0.0635-0.32809-0.05292-0.4445-0.14817-0.14817-0.33866-0.21167-0.55033-0.24342z"/></g><path d="m15.667 109.49 0.76302 0.8051 0.54556 1.4834-0.53545 0.48402z"/><path d="m19.702 109.6 1.1299 2.0991-0.48684 0.0551-0.80994-2.0396z"/><g transform="translate(-70.389 -6.6184)"><g stroke-width=".26458"><path d="m87.711 120.14c-0.01058-0.0953-0.03175-0.17992-0.05292-0.24342-0.127-0.34924-0.27516-0.67733-0.39158-0.92074-0.07408-0.14817-0.17992-0.254-0.3175-0.3175v-0.0318c-0.04233-0.13759-0.08467-0.27517-0.127-0.41275-0.17992-0.52917-0.37042-1.0583-0.56092-1.5875l-0.3175-0.88899c-0.10583-0.27517-0.254-0.30692-0.52916-0.30692 0.07408-0.0423 0.11642-0.0953 0.14817-0.13758 0.11642-0.17992 0.05292-0.37042 0.03175-0.43392-0.16933-0.5715-0.53975-1.4499-1.2488-1.4499-0.41275 0.0529-0.68792 0.22225-0.92075 0.56092-0.01058 0.0106-0.02117 0.0212-0.03175 0.0318-0.08467 0.12699-0.127 0.27516-0.11642 0.43391 0.04233 0.34925 0.23283 0.68791 0.42333 0.98425l0.04233 0.0741c0.13758 0.21166 0.30692 0.29633 0.55033 0.29633-0.05292 0.0529-0.09525 0.11642-0.11642 0.1905-0.0635 0.1905 0.02117 0.34925 0.05292 0.41275 0.14817 0.27516 0.26458 0.508 0.37042 0.75141 0.05292 0.11642 0.10583 0.23283 0.15875 0.34925 0.11642 0.27517 0.24342 0.56092 0.381 0.83608 0.09525 0.17992 0.16933 0.381 0.24342 0.59267-0.11642 0.0953-0.16933 0.27516-0.16933 0.42333-0.01058 0.37041 0.10583 0.67733 0.21167 0.91016 0.14817 0.32808 0.45508 0.58208 0.8255 0.58208 0.09525 0 0.17992-0.0106 0.24342-0.0212h0.01058c0.30692-0.0529 0.58208-0.0952 0.85725-0.0952 0.127 0 0.23283-0.0529 0.30692-0.13758 0.05292-0.0635 0.11642-0.17992 0.09525-0.34925z"/><path d="m87.319 120.34c-0.30692 0-0.60325 0.0423-0.89958 0.0953-0.0635 0.0106-0.127 0.0212-0.20108 0.0212-0.03175 0-0.0635 0-0.09525-0.0106-0.15875-0.0423-0.27517-0.14816-0.35983-0.33866-0.10583-0.23284-0.17992-0.47625-0.16933-0.74083 0-0.0318 0.01058-0.0635 0.02117-0.0953 0.01058-0.0423 0.03175-0.0741 0.0635-0.0741 0.08467 0 0.1905 0.254 0.21167 0.3175 0.01058 0.0318 0.03175 0.0741 0.07408 0.0847-0.05292-0.17992-0.07408-0.37042-0.13758-0.55034-0.10583-0.30691-0.20108-0.62441-0.34925-0.91016-0.1905-0.37042-0.34925-0.762-0.51858-1.143-0.11642-0.26458-0.24342-0.51858-0.37042-0.77258-0.05292-0.0952-0.04233-0.127 0.03175-0.15875 0.15875-0.0741 0.32808-0.10583 0.49742-0.13758 0.13758-0.0212 0.27516-0.0423 0.41275-0.0635 0.04233-0.0106 0.0635 0.0106 0.08467 0.0529 0.28575 0.8255 0.58208 1.651 0.86783 2.4765 0.0635 0.17992 0.11642 0.37042 0.16933 0.56092 0.01058 0.0529 0.02117 0.0847 0.07408 0.0952 0.08467 0.0106 0.16933 0.0529 0.22225 0.15875 0.13758 0.28575 0.27517 0.58208 0.39158 0.88899 0.02117 0.0529 0.04233 0.10584 0.05292 0.15875 0.01058 0.0423 0 0.0635-0.03175 0.0635z" fill="url(#d)"/><path d="m84.303 115.46c-0.02117 0.0106-0.03175 0.0106-0.05292 0.0106-0.16933 0-0.43392-0.53975-0.48683-0.66675-0.05292-0.10583-0.09525-0.21166-0.10583-0.32808-0.01058-0.0741 0-0.127 0.03175-0.17991 0.17992-0.27517 0.37042-0.41275 0.70908-0.45509 0.127-0.0106 0.23283 0.0952 0.32808 0.1905 0.21167 0.21167 0.42333 0.70909 0.508 1.0054 0.03175 0.11641 0.01058 0.15875-0.07408 0.16933-0.30692 0.0529-0.60325 0.11642-0.889 0.24342z" fill="url(#d)"/></g><path d="m87.694 120.41c-0.01842-1e-3 -0.26908 0.23215-0.26908 0.23215l0.25925 0.21833 0.22054-0.28992z"/></g><g><path d="m18.962 113.47-0.34466 0.29955 0.33616 0.32607 0.33328-0.39073z"/><path d="m21.237 116.02 0.71656 0.58773 0.63117 0.97343-0.54657 0.23862-0.64497-0.50087-0.33704-1.2237z"/><path d="m22.801 113.41 0.70722 0.33415 0.91224-0.073 0.44977-0.26523 1.2288 0.57935-0.10317 0.91389-1.2728-0.8194-1.1699 0.40022-1.4467-0.57743z"/><path d="m27.544 110.82 0.29889 0.75243-0.63931-0.14624z"/><path d="m27.76 113.62 0.38603-0.0529 0.83686 0.4369 0.23536 1.5198-0.74939 0.14883z"/><path d="m30.988 110.84 1.0231 2.404 1.403 0.8715-0.0217 0.70705-1.6982-1.1349-0.93842 0.58687-0.14036-0.68627 0.65948-0.28843-0.40667-1.3181-0.50464-0.14705z"/><path d="m34.388 110.92 0.33517 0.55562 0.24312 0.63476-0.30137 0.11532-0.4797-1.0862z"/><path d="m34.771 112.96 0.48067 0.43996 1.699 0.0243 0.50749 0.41334-0.78776 1.0272-2.468-1.0499z"/><path d="m38.032 113.58 0.88089 0.081-0.36917 0.6141z"/><path d="m38.675 111.59 0.15856 0.62829 0.43208-0.10605-0.34845-0.5496z"/><path d="m35.825 110.58 0.43466 1.4916 0.46307 0.43419 0.61065-0.58973-1.0239-1.3494z"/><path d="m39.141 113.42 1.1909 1.6e-4 0.72285 0.43323-0.70503 0.44483-0.54456-0.46827-0.72961-0.11015z"/><path d="m37.692 116.78 0.47414 0.8446-0.83184-0.28396z"/></g></g></svg>
