<?xml version="1.0" encoding="UTF-8" standalone="no"?>
<svg
   xmlns:dc="http://purl.org/dc/elements/1.1/"
   xmlns:cc="http://creativecommons.org/ns#"
   xmlns:rdf="http://www.w3.org/1999/02/22-rdf-syntax-ns#"
   xmlns:svg="http://www.w3.org/2000/svg"
   xmlns="http://www.w3.org/2000/svg"
   xmlns:xlink="http://www.w3.org/1999/xlink"
   xmlns:sodipodi="http://sodipodi.sourceforge.net/DTD/sodipodi-0.dtd"
   xmlns:inkscape="http://www.inkscape.org/namespaces/inkscape"
   width="27.242939mm"
   height="7.7011151mm"
   viewBox="0 0 27.242939 7.7011151"
   version="1.1"
   id="svg8"
   inkscape:version="1.0.1 (3bc2e813f5, 2020-09-07)"
   sodipodi:docname="our-story.svg">
  <title
     id="title3286">Our Story</title>
  <defs
     id="defs2">
    <linearGradient
       inkscape:collect="always"
       id="linearGradient3284">
      <stop
         style="stop-color:#00ff90;stop-opacity:1;"
         offset="0"
         id="stop3280" />
      <stop
         style="stop-color:#eaff00;stop-opacity:1"
         offset="1"
         id="stop3282" />
    </linearGradient>
    <linearGradient
       inkscape:collect="always"
       id="linearGradient3278">
      <stop
         style="stop-color:#00ff90;stop-opacity:1;"
         offset="0"
         id="stop3274" />
      <stop
         style="stop-color:#eaff00;stop-opacity:1"
         offset="1"
         id="stop3276" />
    </linearGradient>
    <linearGradient
       inkscape:collect="always"
       id="linearGradient3272">
      <stop
         style="stop-color:#00ff90;stop-opacity:1;"
         offset="0"
         id="stop3268" />
      <stop
         style="stop-color:#eaff00;stop-opacity:1"
         offset="1"
         id="stop3270" />
    </linearGradient>
    <linearGradient
       inkscape:collect="always"
       id="linearGradient3266">
      <stop
         style="stop-color:#00ff90;stop-opacity:1;"
         offset="0"
         id="stop3262" />
      <stop
         style="stop-color:#eaff00;stop-opacity:1"
         offset="1"
         id="stop3264" />
    </linearGradient>
    <linearGradient
       inkscape:collect="always"
       id="linearGradient3260">
      <stop
         style="stop-color:#00ff90;stop-opacity:1;"
         offset="0"
         id="stop3256" />
      <stop
         style="stop-color:#eaff00;stop-opacity:1"
         offset="1"
         id="stop3258" />
    </linearGradient>
    <linearGradient
       inkscape:collect="always"
       id="linearGradient3254">
      <stop
         style="stop-color:#00ff90;stop-opacity:1;"
         offset="0"
         id="stop3250" />
      <stop
         style="stop-color:#eaff00;stop-opacity:1"
         offset="1"
         id="stop3252" />
    </linearGradient>
    <linearGradient
       inkscape:collect="always"
       id="linearGradient3248">
      <stop
         style="stop-color:#00ff90;stop-opacity:1;"
         offset="0"
         id="stop3244" />
      <stop
         style="stop-color:#eaff00;stop-opacity:1"
         offset="1"
         id="stop3246" />
    </linearGradient>
    <linearGradient
       inkscape:collect="always"
       id="linearGradient3226">
      <stop
         style="stop-color:#00ff90;stop-opacity:1;"
         offset="0"
         id="stop3222" />
      <stop
         style="stop-color:#eaff00;stop-opacity:1"
         offset="1"
         id="stop3224" />
    </linearGradient>
    <linearGradient
       inkscape:collect="always"
       xlink:href="#linearGradient3226"
       id="linearGradient3228"
       x1="103.01032"
       y1="32.683128"
       x2="103.01032"
       y2="36.947174"
       gradientUnits="userSpaceOnUse" />
    <linearGradient
       inkscape:collect="always"
       xlink:href="#linearGradient3284"
       id="linearGradient3230"
       x1="103.01032"
       y1="32.683128"
       x2="103.01032"
       y2="36.947174"
       gradientUnits="userSpaceOnUse" />
    <linearGradient
       inkscape:collect="always"
       xlink:href="#linearGradient3278"
       id="linearGradient3232"
       x1="103.01032"
       y1="32.683128"
       x2="103.01032"
       y2="36.947174"
       gradientUnits="userSpaceOnUse" />
    <linearGradient
       inkscape:collect="always"
       xlink:href="#linearGradient3272"
       id="linearGradient3234"
       x1="103.01032"
       y1="32.683128"
       x2="103.01032"
       y2="36.947174"
       gradientUnits="userSpaceOnUse" />
    <linearGradient
       inkscape:collect="always"
       xlink:href="#linearGradient3266"
       id="linearGradient3236"
       x1="103.01032"
       y1="32.683128"
       x2="103.01032"
       y2="36.947174"
       gradientUnits="userSpaceOnUse" />
    <linearGradient
       inkscape:collect="always"
       xlink:href="#linearGradient3260"
       id="linearGradient3238"
       x1="103.01032"
       y1="32.683128"
       x2="103.01032"
       y2="36.947174"
       gradientUnits="userSpaceOnUse" />
    <linearGradient
       inkscape:collect="always"
       xlink:href="#linearGradient3254"
       id="linearGradient3240"
       x1="103.01032"
       y1="32.683128"
       x2="103.01032"
       y2="36.947174"
       gradientUnits="userSpaceOnUse" />
    <linearGradient
       inkscape:collect="always"
       xlink:href="#linearGradient3248"
       id="linearGradient3242"
       x1="103.01032"
       y1="32.683128"
       x2="103.01032"
       y2="36.947174"
       gradientUnits="userSpaceOnUse" />
  </defs>
  <sodipodi:namedview
     id="base"
     pagecolor="#ffffff"
     bordercolor="#666666"
     borderopacity="1.0"
     inkscape:pageopacity="0.0"
     inkscape:pageshadow="2"
     inkscape:zoom="5.6"
     inkscape:cx="94.217265"
     inkscape:cy="-21.220401"
     inkscape:document-units="mm"
     inkscape:current-layer="layer1"
     inkscape:document-rotation="0"
     showgrid="false"
     inkscape:pagecheckerboard="true"
     inkscape:showpageshadow="false"
     inkscape:window-width="2560"
     inkscape:window-height="1506"
     inkscape:window-x="-11"
     inkscape:window-y="-11"
     inkscape:window-maximized="1"
     fit-margin-top="0"
     fit-margin-left="0"
     fit-margin-right="0"
     fit-margin-bottom="0" />
  <metadata
     id="metadata5">
    <rdf:RDF>
      <cc:Work
         rdf:about="">
        <dc:format>image/svg+xml</dc:format>
        <dc:type
           rdf:resource="http://purl.org/dc/dcmitype/StillImage" />
        <dc:title>Our Story</dc:title>
      </cc:Work>
    </rdf:RDF>
  </metadata>
  <g
     inkscape:label="Layer 1"
     inkscape:groupmode="layer"
     id="layer1"
     transform="translate(-90.698295,-30.900252)">
    <path
       style="font-style:normal;font-variant:normal;font-weight:normal;font-stretch:normal;font-size:10.5833px;line-height:1.25;font-family:'Rebeland Outline';-inkscape-font-specification:'Rebeland Outline, Normal';font-variant-ligatures:normal;font-variant-caps:normal;font-variant-numeric:normal;font-variant-east-asian:normal;fill:#000000;fill-opacity:1;stroke:none;stroke-width:0.343033"
       d="m 96.547308,35.925712 c -0.09607,-1.180032 -0.576297,-2.250295 -1.523069,-2.991245 -0.34303,-0.260704 -0.699789,-0.493967 -1.042818,-0.727229 -0.123428,-0.08233 -0.246985,-0.164655 -0.370477,-0.246983 -0.20582,-0.123492 -0.370476,-0.288147 -0.535132,-0.452803 -0.0411,-0.04116 -0.08233,-0.08233 -0.123557,-0.123492 -0.164656,-0.164655 -0.329312,-0.233262 -0.562566,-0.233262 -0.7684,0 -1.413295,0.850721 -1.605398,1.509343 -0.08233,0.288148 -0.164656,0.713508 0.05484,1.152589 0.137222,0.260705 0.329313,0.493967 0.576297,0.686065 0.0411,0.02745 0.08233,0.05488 0.123427,0.08233 -0.01374,0.05488 -0.01374,0.123492 0,0.205821 0.137222,1.385851 1.440741,3.814521 3.046126,3.814521 0.603743,0 1.111429,-0.274426 1.454458,-0.768393 0.384206,-0.562573 0.548862,-1.207474 0.493968,-1.934703 z"
       id="path2365" />
    <path
       style="font-style:normal;font-variant:normal;font-weight:normal;font-stretch:normal;font-size:10.5833px;line-height:1.25;font-family:'Rebeland Outline';-inkscape-font-specification:'Rebeland Outline, Normal';font-variant-ligatures:normal;font-variant-caps:normal;font-variant-numeric:normal;font-variant-east-asian:normal;fill:url(#linearGradient3242);fill-opacity:1;stroke:none;stroke-width:0.343033;stroke-opacity:1"
       d="m 95.627982,37.544825 c -0.260714,0.384196 -0.61746,0.548852 -1.083995,0.548852 -1.234908,-0.05488 -2.140517,-1.920982 -2.414948,-2.991243 -0.0411,-0.123493 -0.06859,-0.260706 -0.08233,-0.397919 0,-0.04116 0.01374,-0.05488 0.05484,-0.04116 0.150926,0.05488 0.301866,0.109776 0.439075,0.192098 0.09607,0.05488 0.20582,0.09604 0.315595,0.137213 0.08233,0.02745 0.164656,0.08233 0.246984,0.123493 -0.06858,-0.08233 -0.150939,-0.137214 -0.233267,-0.192098 -0.20582,-0.137213 -0.384193,-0.30187 -0.576297,-0.452804 -0.178373,-0.150935 -0.370476,-0.274426 -0.548849,-0.411639 -0.178373,-0.150935 -0.329312,-0.329311 -0.439074,-0.535131 -0.123428,-0.260705 -0.09607,-0.521409 -0.02749,-0.782114 0.123557,-0.439082 0.397923,-0.768393 0.754669,-1.042819 0.123428,-0.08233 0.260702,-0.109775 0.411641,-0.109775 0.06859,0 0.123427,0.04116 0.178373,0.09605 0.164656,0.150934 0.315595,0.31559 0.493968,0.452803 0.06858,0.05488 0.137209,0.109775 0.219537,0.164655 0.466535,0.31559 0.946773,0.617459 1.385861,0.960491 0.836997,0.617459 1.262355,1.619114 1.330966,2.63449 0.0411,0.590017 -0.08233,1.138869 -0.411641,1.619114 z"
       id="path2384" />
    <path
       style="font-style:normal;font-variant:normal;font-weight:normal;font-stretch:normal;font-size:10.5833px;line-height:1.25;font-family:'Rebeland Outline';-inkscape-font-specification:'Rebeland Outline, Normal';font-variant-ligatures:normal;font-variant-caps:normal;font-variant-numeric:normal;font-variant-east-asian:normal;fill:#000000;fill-opacity:1;stroke:none;stroke-width:0.343033"
       d="m 94.571434,35.857105 c -0.123427,-0.150934 -0.493968,-0.452804 -0.699788,-0.493968 0.05484,0.06861 0.09607,0.137213 0.137222,0.205821 0.05484,0.109775 0.09607,0.219541 0.08233,0.356754 -0.01374,0.178375 0.02749,0.343032 0.109814,0.507688 0.0411,0.08233 0.109814,0.123492 0.20582,0.137213 0.178373,0.01372 0.356759,-0.137213 0.329312,-0.301869 -0.01374,-0.150934 -0.06858,-0.288147 -0.178373,-0.411639 z"
       id="path2386" />
    <path
       style="font-style:normal;font-variant:normal;font-weight:normal;font-stretch:normal;font-size:10.5833px;line-height:1.25;font-family:'Rebeland Outline';-inkscape-font-specification:'Rebeland Outline, Normal';font-variant-ligatures:normal;font-variant-caps:normal;font-variant-numeric:normal;font-variant-east-asian:normal;fill:#000000;fill-opacity:1;stroke:none;stroke-width:0.264583"
       d="m 100.35092,37.721796 c -0.0423,-0.391583 -0.27518,-1.05833 -0.687925,-1.21708 l -0.0317,-0.01058 c -0.0529,-0.02117 -0.10583,-0.04233 -0.16933,-0.0635 -0.3175,-0.666748 -0.5715,-1.460495 -0.62441,-2.190743 -0.0106,-0.211666 0.0106,-0.380999 0.0635,-0.529165 0.0847,-0.127 0.10583,-0.253999 0.0635,-0.380999 -0.0529,-0.169333 -0.17992,-0.243416 -0.23284,-0.275166 -0.30691,-0.232832 -0.73024,-0.497415 -1.13241,-0.497415 -0.3175,0 -0.68791,0.179916 -0.85725,0.455082 -0.21166,-0.211666 -0.50799,-0.370415 -0.81491,-0.370415 -0.40217,0 -0.71966,0.275166 -0.96308,0.571498 -0.3175,0.380999 -0.39158,0.825497 -0.42333,1.248829 -0.0106,0.211666 0.10583,0.328083 0.15875,0.370416 0.0423,0.04233 0.127,0.08467 0.24341,0.08467 0.0529,0 0.0953,0 0.14817,-0.02117 0.0106,0 0.0212,0 0.0741,0.02117 0.0741,0.04233 0.13758,0.105833 0.21167,0.222249 0.10583,0.179917 0.16933,0.391583 0.23283,0.613832 0.0212,0.09525 0.0423,0.190499 0.0635,0.285749 0.0529,0.211666 0.10583,0.433915 0.1905,0.645581 l 0.0212,0.05292 c 0.3175,0.793747 0.91016,1.767411 1.87324,1.799161 0.30692,0 0.51858,-0.0635 0.73025,-0.275166 0.0741,0.04233 0.15875,0.07408 0.26458,0.08467 0.0317,0 0.0635,0 0.0952,0 0.0847,0.01058 0.17992,0.02117 0.28575,0.02117 h 0.0741 c 0.0741,0 0.14817,0.01058 0.23283,0.01058 0.16934,0 0.34925,-0.02117 0.53975,-0.08467 0.349255,-0.127 0.370425,-0.412749 0.349255,-0.571498 z"
       id="path2363" />
    <path
       style="font-style:normal;font-variant:normal;font-weight:normal;font-stretch:normal;font-size:10.5833px;line-height:1.25;font-family:'Rebeland Outline';-inkscape-font-specification:'Rebeland Outline, Normal';font-variant-ligatures:normal;font-variant-caps:normal;font-variant-numeric:normal;font-variant-east-asian:normal;fill:url(#linearGradient3240);fill-opacity:1;stroke:none;stroke-width:0.264583;stroke-opacity:1"
       d="m 99.842915,37.933462 c -0.13758,0.05292 -0.27517,0.0635 -0.41275,0.0635 -0.0953,0 -0.1905,-0.01058 -0.28575,-0.01058 -0.10583,0 -0.21166,-0.02117 -0.3175,-0.03175 -0.23283,-0.04233 -0.35983,-0.380999 -0.41275,-0.582081 -0.0212,-0.09525 -0.0317,-0.1905 0,-0.285749 0.0106,-0.02117 0.0212,-0.04233 0,-0.05292 -0.0212,-0.01058 -0.0423,0 -0.0529,0.01058 -0.0529,0.04233 -0.0847,0.105833 -0.10583,0.169333 -0.0318,0.116416 -0.0318,0.232833 -0.0212,0.359832 0.0106,0.08467 0.0212,0.169333 0.0212,0.254 0,0.07408 -0.0318,0.126999 -0.0847,0.169332 -0.10583,0.07408 -0.21167,0.105833 -0.42333,0.105833 -0.81492,-0.03175 -1.31233,-0.93133 -1.56633,-1.608661 -0.10583,-0.296333 -0.16933,-0.603248 -0.254,-0.899581 -0.11642,-0.391582 -0.26458,-0.857247 -0.65617,-1.068913 -0.0741,-0.03175 -0.14816,-0.05292 -0.22224,-0.05292 -0.0423,0 -0.0953,0.01058 -0.13759,0.02117 -0.0317,0.01058 -0.0423,0.01058 -0.0423,-0.03175 0.0529,-0.592664 0.1905,-1.09008 0.73025,-1.418162 0.0953,-0.05292 0.1905,-0.07408 0.27516,-0.07408 0.52917,0 0.77258,0.529165 0.92075,0.952497 0.15875,0.476248 0.254,0.96308 0.32808,1.460495 0.0423,0.254 0.0741,0.507999 0.13759,0.751415 0.0317,0.148166 0.19049,0.550331 0.38099,0.550331 0.0741,0 0.127,-0.05292 0.14817,-0.137583 0.0212,-0.09525 0.0106,-0.190499 -0.0106,-0.285749 -0.0635,-0.328082 -0.16934,-0.645581 -0.30692,-0.952497 -0.0952,-0.211666 -0.20108,-0.423332 -0.29633,-0.634998 -0.127,-0.275166 -0.22225,-0.560915 -0.27517,-0.857247 -0.0318,-0.148166 -0.0212,-0.306916 0,-0.455082 0.0423,-0.296332 0.32809,-0.486832 0.61383,-0.486832 0.3175,0 0.68792,0.254 0.93133,0.433916 0.0318,0.02117 0.0847,0.03175 0.0953,0.07408 0.0106,0.04233 -0.0317,0.07408 -0.0423,0.116416 -0.0953,0.232833 -0.11641,0.476249 -0.0953,0.730248 0.0529,0.857247 0.34925,1.703911 0.73025,2.465909 0.0106,0.03175 0.0317,0.04233 0.0635,0.04233 0.0953,0.01058 0.17992,0.05292 0.26458,0.08467 0.24342,0.105833 0.41275,0.677331 0.4445,0.910164 0.0106,0.105833 -0.0212,0.137583 -0.11642,0.169333 z"
       id="path2380" />
    <path
       style="font-style:normal;font-variant:normal;font-weight:normal;font-stretch:normal;font-size:10.5833px;line-height:1.25;font-family:'Rebeland Outline';-inkscape-font-specification:'Rebeland Outline, Normal';font-variant-ligatures:normal;font-variant-caps:normal;font-variant-numeric:normal;font-variant-east-asian:normal;fill:#000000;fill-opacity:1;stroke:none;stroke-width:0.264583"
       d="m 111.48852,35.804047 c -0.0741,-0.910164 -0.4445,-1.735661 -1.17474,-2.307159 -0.26459,-0.201083 -0.53975,-0.380999 -0.80433,-0.560915 -0.0953,-0.0635 -0.1905,-0.127 -0.28575,-0.1905 -0.15875,-0.09525 -0.28575,-0.222249 -0.41275,-0.349248 -0.0317,-0.03175 -0.0635,-0.0635 -0.0952,-0.09525 -0.127,-0.127 -0.254,-0.179916 -0.43392,-0.179916 -0.59266,0 -1.09008,0.656164 -1.23824,1.164163 -0.0635,0.222249 -0.127,0.550331 0.0423,0.888997 0.10583,0.201083 0.254,0.380999 0.4445,0.529165 0.0317,0.02117 0.0635,0.04233 0.0953,0.0635 -0.0106,0.04233 -0.0106,0.09525 0,0.158749 0.10583,1.068913 1.11125,2.942158 2.34949,2.942158 0.46567,0 0.85725,-0.211666 1.12183,-0.592665 0.29633,-0.433916 0.42333,-0.931331 0.381,-1.492246 z"
       id="path1493" />
    <path
       style="font-style:normal;font-variant:normal;font-weight:normal;font-stretch:normal;font-size:10.5833px;line-height:1.25;font-family:'Rebeland Outline';-inkscape-font-specification:'Rebeland Outline, Normal';font-variant-ligatures:normal;font-variant-caps:normal;font-variant-numeric:normal;font-variant-east-asian:normal;fill:url(#linearGradient3230);fill-opacity:1;stroke:none;stroke-width:0.264583"
       d="m 110.77944,37.052876 c -0.20108,0.296333 -0.47625,0.423332 -0.83608,0.423332 -0.9525,-0.04233 -1.65099,-1.481662 -1.86266,-2.307159 -0.0317,-0.09525 -0.0529,-0.201083 -0.0635,-0.306916 0,-0.03175 0.0106,-0.04233 0.0423,-0.03175 0.11642,0.04233 0.23284,0.08467 0.33867,0.148166 0.0741,0.04233 0.15875,0.07408 0.24342,0.105833 0.0635,0.02117 0.127,0.0635 0.19049,0.09525 -0.0529,-0.0635 -0.11641,-0.105833 -0.17991,-0.148166 -0.15875,-0.105833 -0.29633,-0.232832 -0.4445,-0.349249 -0.13758,-0.116416 -0.28575,-0.211666 -0.42333,-0.317499 -0.13758,-0.116416 -0.254,-0.253999 -0.33867,-0.412748 -0.0952,-0.201083 -0.0741,-0.402166 -0.0212,-0.603248 0.0953,-0.338666 0.30691,-0.592665 0.58208,-0.804331 0.0953,-0.0635 0.20108,-0.08467 0.3175,-0.08467 0.0529,0 0.0953,0.03175 0.13758,0.07408 0.127,0.116417 0.24342,0.243416 0.381,0.349249 0.0529,0.04233 0.10583,0.08467 0.16933,0.127 0.35983,0.243416 0.73025,0.476248 1.06891,0.740831 0.64559,0.476248 0.97367,1.248829 1.02658,2.031993 0.0317,0.455082 -0.0635,0.878414 -0.31749,1.24883 z"
       id="path1529" />
    <path
       style="font-style:normal;font-variant:normal;font-weight:normal;font-stretch:normal;font-size:10.5833px;line-height:1.25;font-family:'Rebeland Outline';-inkscape-font-specification:'Rebeland Outline, Normal';font-variant-ligatures:normal;font-variant-caps:normal;font-variant-numeric:normal;font-variant-east-asian:normal;fill:#000000;fill-opacity:1;stroke:none;stroke-width:0.264583"
       d="m 109.96453,35.751131 c -0.0953,-0.116417 -0.381,-0.349249 -0.53975,-0.380999 0.0423,0.05292 0.0741,0.105833 0.10583,0.158749 0.0423,0.08467 0.0741,0.169333 0.0635,0.275166 -0.0106,0.137583 0.0212,0.264583 0.0847,0.391582 0.0317,0.0635 0.0847,0.09525 0.15875,0.105833 0.13758,0.01058 0.27516,-0.105833 0.254,-0.232832 -0.0106,-0.116417 -0.0529,-0.22225 -0.13759,-0.317499 z"
       id="path1531" />
    <path
       style="font-style:normal;font-variant:normal;font-weight:normal;font-stretch:normal;font-size:10.5833px;line-height:1.25;font-family:'Rebeland Outline';-inkscape-font-specification:'Rebeland Outline, Normal';font-variant-ligatures:normal;font-variant-caps:normal;font-variant-numeric:normal;font-variant-east-asian:normal;fill:#000000;fill-opacity:1;stroke:none;stroke-width:0.264583"
       d="m 117.7886,35.62848 c -0.11642,-0.359832 -0.26458,-0.698498 -0.40216,-1.02658 -0.0423,-0.105833 -0.0847,-0.211666 -0.127,-0.317499 l -0.0106,-0.01058 c -0.0741,-0.169333 -0.14816,-0.328083 -0.16933,-0.486832 -0.0106,-0.116417 0.0106,-0.201083 0.0741,-0.275166 0.127,-0.169333 0.13759,-0.423332 -0.0847,-0.592665 -0.39159,-0.328082 -0.73025,-0.423332 -1.23825,-0.423332 -0.28575,0 -0.56091,0.09525 -0.74083,0.338666 -0.23283,-0.15875 -0.41275,-0.275166 -0.70908,-0.275166 -0.635,0 -1.09008,0.571498 -1.24883,1.142996 -0.0423,0.15875 0.0106,0.275166 0.0423,0.328083 0.0423,0.07408 0.127,0.169332 0.27517,0.211666 0.0423,0.04233 0.0847,0.09525 0.11641,0.158749 0.0847,0.137583 0.14817,0.296333 0.22225,0.465665 0.0317,0.07408 0.0635,0.15875 0.0952,0.243416 0.20109,0.444499 0.45508,0.984247 0.8255,1.322913 -0.0635,0.105833 -0.10583,0.232832 -0.11642,0.380998 -0.0317,0.349249 0.0529,0.687915 0.24342,1.015997 0.0317,0.05292 0.11642,0.201083 0.30692,0.243416 0.0317,0.01058 0.0635,0.01058 0.0847,0.01058 0.14817,0 0.254,-0.08467 0.29633,-0.116416 l 0.0106,-0.01058 c 0.0106,-0.01058 0.0212,-0.02117 0.0317,-0.03175 0.10583,0 0.16933,0 0.26458,0.04233 0.0741,0.03175 0.14817,0.07408 0.23283,0.116416 0.0423,0.02117 0.0847,0.04233 0.127,0.0635 0.17992,0.09525 0.34925,0.148166 0.51858,0.169333 0.4445,0 0.64559,-0.15875 0.85725,-0.529165 0.0212,-0.03175 0.0423,-0.0635 0.0635,-0.08467 0.17992,-0.285749 0.28575,-0.613832 0.30692,-0.984247 0.0212,-0.328083 -0.0318,-0.666748 -0.14817,-1.037164 z"
       id="path1497" />
    <path
       style="font-style:normal;font-variant:normal;font-weight:normal;font-stretch:normal;font-size:10.5833px;line-height:1.25;font-family:'Rebeland Outline';-inkscape-font-specification:'Rebeland Outline, Normal';font-variant-ligatures:normal;font-variant-caps:normal;font-variant-numeric:normal;font-variant-east-asian:normal;fill:url(#linearGradient3228);fill-opacity:1;stroke:none;stroke-width:0.264583"
       d="m 117.55577,36.697393 c -0.0106,0.423332 -0.28575,1.238246 -0.80433,1.238246 -0.13759,-0.01058 -0.26459,-0.0635 -0.381,-0.126999 -0.127,-0.0635 -0.254,-0.137583 -0.381,-0.1905 -0.10583,-0.05292 -0.22225,-0.07408 -0.33867,-0.07408 -0.0423,0 -0.0953,0 -0.14816,0.01058 -0.0741,0.01058 -0.13759,0.0635 -0.20108,0.105833 -0.0317,0.02117 -0.0423,0.04233 -0.0635,0.04233 -0.0212,0 -0.0317,-0.02117 -0.0529,-0.0635 -0.13758,-0.243416 -0.21167,-0.507999 -0.1905,-0.793748 0.0106,-0.126999 0.0529,-0.253999 0.15875,-0.349249 0.0317,-0.02117 0.0529,-0.03175 0.0741,-0.03175 0.0212,0 0.0317,0 0.0529,0.01058 0.0953,0.03175 0.20108,0.05292 0.30691,0.05292 0.0953,0 0.1905,-0.02117 0.28575,-0.05292 0.0106,0 0.0212,0 0.0317,0 0.0212,0 0.0423,0 0.0635,0.01058 0.10584,0.03175 0.17992,0.127 0.29634,0.148166 0.0212,0 0.0423,0.01058 0.0635,0.01058 0.0952,0 0.17991,-0.05292 0.21166,-0.127 0.0423,-0.09525 0,-0.232833 -0.0952,-0.296332 -0.0317,-0.02117 -0.0423,-0.03175 -0.0212,-0.0635 0.0741,-0.127 0.0741,-0.264583 0.0529,-0.402166 0,-0.01058 0,-0.02117 0,-0.03175 0,-0.02117 0.0106,-0.05292 -0.0106,-0.05292 -0.0212,0 -0.0212,0.02117 -0.0212,0.04233 0,0.15875 -0.27516,0.476249 -0.40216,0.560915 -0.127,0.09525 -0.26459,0.148166 -0.40217,0.148166 -0.67733,0 -1.12183,-0.96308 -1.36525,-1.481662 -0.11641,-0.243415 -0.21166,-0.497415 -0.34924,-0.730247 -0.0741,-0.116417 -0.21167,-0.285749 -0.35984,-0.306916 -0.0317,-0.01058 -0.0423,-0.02117 -0.0317,-0.0635 0.10584,-0.402165 0.43392,-0.86783 0.89958,-0.86783 0.32809,0 0.53975,0.222249 0.65617,0.507998 0.11642,0.253999 0.15875,0.529165 0.21167,0.793748 0.0529,0.275165 0.0952,0.550331 0.19049,0.814914 0.0529,0.137582 0.24342,0.433915 0.42334,0.433915 0.0741,0 0.13758,-0.05292 0.15875,-0.137583 0.0212,-0.07408 0.0212,-0.148166 0.0106,-0.222249 -0.0423,-0.285749 -0.15875,-0.539749 -0.3175,-0.772581 -0.0847,-0.116416 -0.16933,-0.232833 -0.24342,-0.349249 -0.0635,-0.09525 -0.0741,-0.201083 -0.10583,-0.306916 -0.0212,-0.07408 -0.0423,-0.148166 -0.0635,-0.222249 -0.0741,-0.222249 0.0423,-0.465665 0.254,-0.550332 0.127,-0.04233 0.24342,-0.05292 0.381,-0.05292 0.33867,0 0.62441,0.137583 0.889,0.338665 0.0212,0.02117 0.0423,0.03175 0.0106,0.0635 -0.127,0.169333 -0.16933,0.359832 -0.14817,0.560915 0.0212,0.222249 0.10584,0.423332 0.1905,0.624415 0.17992,0.433915 0.381,0.857247 0.51858,1.301746 0.0953,0.296332 0.14817,0.592664 0.127,0.89958 z"
       id="path1541" />
    <path
       style="font-style:normal;font-variant:normal;font-weight:normal;font-stretch:normal;font-size:10.5833px;line-height:1.25;font-family:'Rebeland Outline';-inkscape-font-specification:'Rebeland Outline, Normal';font-variant-ligatures:normal;font-variant-caps:normal;font-variant-numeric:normal;font-variant-east-asian:normal;fill:#000000;fill-opacity:1;stroke:none;stroke-width:0.264583"
       d="m 104.19399,30.900252 c -0.49742,0 -0.70943,0.275066 -0.88934,0.687814 -0.0741,-0.08467 -0.15849,-0.169313 -0.25374,-0.243396 -0.20108,-0.137583 -0.29636,-0.179835 -0.55036,-0.179835 -0.79375,0.09525 -1.12191,0.708962 -1.14308,1.460376 -0.0106,0.232833 0.032,0.455456 0.0744,0.645956 0.0106,0.03175 0.0212,0.06333 0.0315,0.09508 0.13758,0.613833 0.55002,1.545315 1.0051,2.000395 0,0 0.0106,0.01034 0.0212,0.03152 0.10583,0.148166 0.22256,0.264668 0.31781,0.349332 0.0318,0.03175 0.0633,0.06334 0.0951,0.09509 -0.0423,0.07408 -0.0739,0.158998 -0.0951,0.254248 -0.0952,0.370414 -0.0846,0.772502 0.0424,1.238166 0.10584,0.370416 0.45495,1.01596 0.91004,1.01596 0.127,0 0.24347,-0.0528 0.32813,-0.137459 0.0847,-0.04233 0.17995,-0.06356 0.28578,-0.06356 0.0317,0 0.0636,-2.44e-4 0.10594,0.01034 0.0635,0.01058 0.14787,0.03181 0.23254,0.06356 0.10583,0.03175 0.22233,0.06358 0.34933,0.08475 l 0.0527,0.01085 c 0.13758,0.03175 0.26498,0.03152 0.40256,0.03152 0.59267,-0.04233 0.81494,-0.677212 0.81494,-1.195793 0,-0.370416 -0.0953,-0.677211 -0.28577,-0.931209 l 0.0212,-0.04237 c -0.22225,-0.306914 -0.49741,-0.529397 -0.79375,-0.762228 0.0953,-0.0635 0.17989,-0.147899 0.24339,-0.25373 0.11642,-0.1905 0.12698,-0.349541 0.0212,-0.561208 -0.29636,-0.592664 -0.8047,-1.915543 -0.88937,-2.603457 -0.0212,-0.201084 -0.0423,-0.423418 -0.0212,-0.613916 0.0106,-0.0635 0.0217,-0.222086 -0.10543,-0.359669 -0.0847,-0.08467 -0.19056,-0.127124 -0.32814,-0.127124 z"
       id="path1489" />
    <path
       style="font-style:normal;font-variant:normal;font-weight:normal;font-stretch:normal;font-size:10.5833px;line-height:1.25;font-family:'Rebeland Outline';-inkscape-font-specification:'Rebeland Outline, Normal';font-variant-ligatures:normal;font-variant-caps:normal;font-variant-numeric:normal;font-variant-east-asian:normal;fill:url(#linearGradient3234);fill-opacity:1;stroke:none;stroke-width:0.264583"
       d="m 104.1516,31.281625 c 0.0529,0 0.0525,0.0104 0.0419,0.0739 -0.0212,0.232833 0,0.465833 0.032,0.698666 0.11642,0.836081 0.53962,1.957756 0.93123,2.740917 0.0423,0.09525 0.0423,0.116604 0,0.190688 -0.0529,0.07408 -0.11663,0.126627 -0.19069,0.147793 -0.0529,0.02117 -0.10575,0.0318 -0.15867,0.04238 -0.0847,0 -0.11631,-0.01064 -0.17981,-0.06356 -0.74083,-0.603248 -1.16414,-0.973649 -1.56633,-1.830896 -0.0317,0.04233 -0.0319,0.116356 -0.0108,0.201023 0.15875,0.783164 1.03722,1.534728 1.62989,2.000392 0.22225,0.179917 0.45548,0.338937 0.66714,0.54002 0.32809,0.328081 0.52917,0.592172 0.52917,1.079005 0,0.264581 -0.0743,0.476642 -0.19068,0.667142 l 0.0744,0.04238 c -0.0635,0.10583 -0.1696,0.13721 -0.27544,0.147793 -0.127,0 -0.25386,-0.01034 -0.38086,-0.03152 -0.20106,-0.03175 -0.39164,-0.127146 -0.59272,-0.148312 -0.0423,0 -0.0848,-0.01035 -0.12713,-0.01035 -0.17992,0 -0.34923,0.04194 -0.50798,0.126609 -0.0318,0.01058 -0.0636,0.03205 -0.0847,0.05323 -0.0212,0.02117 -0.0421,0.03152 -0.0527,0.03152 -0.23283,0 -0.48659,-0.560608 -0.53951,-0.740524 -0.0952,-0.349248 -0.12708,-0.698728 -0.0424,-1.026811 0.0212,-0.08467 0.0636,-0.158689 0.1271,-0.201023 0.0106,-0.01058 0.0212,-0.02119 0.0315,-0.02119 0.0106,0 0.0318,0.01061 0.0424,0.02119 0.33867,0.264584 0.68763,0.47619 1.0263,0.73019 0.28575,0.22225 0.38129,0.338545 0.54004,0.666625 0.0106,0.02117 0.0212,0.04238 0.0424,0.04238 0.0212,0 0.0103,-0.03154 0.0103,-0.05271 0.0212,-0.1905 -0.053,-0.349478 -0.14832,-0.497645 -0.17989,-0.275166 -0.41259,-0.433461 -0.64543,-0.592211 -0.381,-0.275167 -0.77239,-0.497708 -1.13223,-0.825791 -0.0952,-0.08467 -0.19076,-0.179687 -0.27543,-0.296106 -0.41275,-0.412747 -0.836,-1.323208 -0.95239,-1.884122 -0.0423,-0.211666 -0.0952,-0.423436 -0.0848,-0.635103 0.0212,-0.539747 0.21195,-1.026356 0.80462,-1.089856 0.10581,0 0.19024,0.04219 0.2749,0.116272 0.17992,0.127 0.30681,0.328353 0.42323,0.540019 0.17992,0.338664 0.3601,0.677294 0.54001,1.015958 0.0423,0.08467 0.0955,0.147857 0.14833,0.211357 -0.0423,-0.137583 -0.10626,-0.264459 -0.15917,-0.402042 -0.11639,-0.3175 -0.2222,-0.645523 -0.2222,-0.994773 0,-0.349247 0.22257,-0.782896 0.60357,-0.782896 z"
       id="path1519" />
    <path
       style="font-style:normal;font-variant:normal;font-weight:normal;font-stretch:normal;font-size:10.5833px;line-height:1.25;font-family:'Rebeland Outline';-inkscape-font-specification:'Rebeland Outline, Normal';font-variant-ligatures:normal;font-variant-caps:normal;font-variant-numeric:normal;font-variant-east-asian:normal;fill:#000000;fill-opacity:1;stroke:none;stroke-width:0.264583"
       d="m 108.72339,33.00672 c -0.0635,-0.127 -0.17991,-0.211666 -0.3175,-0.232833 -0.1905,0 -0.254,0.05292 -0.38099,0.179917 -0.0741,0.05292 -0.16934,0.08467 -0.28575,0.09525 -0.32809,0 -0.58209,-0.0635 -0.87842,-0.190499 -0.10583,-0.05292 -0.21166,-0.116416 -0.32808,-0.179916 -0.40217,-0.253999 -0.79375,-0.412749 -1.28058,-0.412749 -0.58208,0 -0.99483,0.264583 -1.143,0.857247 -0.0741,0.296333 -0.0106,0.582082 0.0423,0.772581 0.0423,0.148166 0.10583,0.275166 0.15875,0.402166 0.0106,0.03175 0.0212,0.0635 0.0317,0.09525 0.10583,0.254 0.29633,0.645582 0.61383,0.645582 0.0635,0 0.13758,-0.02117 0.20108,-0.05292 0.0106,0 0.0212,0 0.0423,0.01058 0.0847,0.02117 0.16934,0.07408 0.27517,0.15875 0.0212,0.01058 0.0529,0.04233 0.0741,0.07408 0.0317,0.03175 0.0635,0.0635 0.10584,0.09525 0.29633,0.275165 0.49741,0.582081 0.66674,0.952497 -0.0529,0.02117 -0.10583,0.05292 -0.15875,0.08467 -0.26458,0.179916 -0.39158,0.486832 -0.32808,0.814914 0.0847,0.433915 0.37042,1.005414 0.87842,1.005414 0.0635,0 0.127,-0.01058 0.17991,-0.03175 l 0.0423,-0.01058 c 0.0318,-0.01058 0.0635,-0.02117 0.0847,-0.02117 0.127,-0.03175 0.254,-0.04233 0.40217,-0.04233 0.0741,0 0.14816,0.01058 0.23283,0.01058 0.0423,0 0.0847,0 0.127,0 0.0741,0.01058 0.15875,0.02117 0.254,0.02117 0.32808,-0.01058 0.55033,-0.232832 0.56091,-0.560914 v -0.01058 c 0,-0.01058 0,-0.02117 0,-0.03175 0.0212,-0.317499 -0.0317,-0.592664 -0.15875,-0.825497 -0.0847,-0.148166 -0.1905,-0.253999 -0.3175,-0.328082 -0.0635,-0.507999 -0.13758,-1.047747 -0.32808,-1.523995 0.66675,0 1.016,-0.349249 1.06892,-0.984247 0.0212,-0.275166 -0.0317,-0.550332 -0.16934,-0.804331 z"
       id="path1523" />
    <path
       style="font-style:normal;font-variant:normal;font-weight:normal;font-stretch:normal;font-size:10.5833px;line-height:1.25;font-family:'Rebeland Outline';-inkscape-font-specification:'Rebeland Outline, Normal';font-variant-ligatures:normal;font-variant-caps:normal;font-variant-numeric:normal;font-variant-east-asian:normal;fill:url(#linearGradient3232);fill-opacity:1;stroke:none;stroke-width:0.264583"
       d="m 108.47998,33.821634 c -0.0423,0.444499 -0.24342,0.624415 -0.67733,0.624415 -0.0741,0 -0.15875,-0.01058 -0.23284,-0.02117 -0.16933,-0.02117 -0.33866,-0.04233 -0.508,-0.0635 -0.0212,0 -0.0423,0 -0.0741,0.01058 0.0529,0.05292 0.11642,0.08467 0.16933,0.126999 0.41275,0.391582 0.60325,1.471079 0.60325,2.074327 0,0.04233 0.0106,0.0635 0.0529,0.0635 0.14817,0.01058 0.24342,0.09525 0.30691,0.211666 0.10584,0.190499 0.127,0.402165 0.10584,0.613831 0,0.01058 0,0.02117 0,0.03175 -0.0106,0.127 -0.0847,0.201083 -0.21167,0.201083 -0.11641,0 -0.23283,-0.02117 -0.34925,-0.02117 -0.0741,0 -0.15875,-0.01058 -0.23283,-0.01058 -0.22225,0 -0.46566,0.02117 -0.67733,0.105833 -0.0423,0 -0.0741,0 -0.11642,0 -0.27516,-0.105833 -0.381,-0.412749 -0.42333,-0.677331 -0.0318,-0.179916 0.0317,-0.338666 0.17992,-0.433916 0.0635,-0.04233 0.13758,-0.07408 0.21166,-0.07408 0.0741,0 0.15875,0.03175 0.23284,0.09525 0.0212,0.01058 0.0317,0.03175 0.0635,0.04233 0,-0.423332 -0.58209,-1.354662 -0.94192,-1.682744 -0.1905,-0.1905 -0.46566,-0.433916 -0.75141,-0.433916 -0.0423,0 -0.0741,0.01058 -0.11642,0.02117 -0.0317,0.01058 -0.0635,0.02117 -0.0847,0.04233 -0.0106,0.01058 -0.0212,0.01058 -0.0318,0.01058 -0.0106,0 -0.0317,-0.01058 -0.0423,-0.03175 -0.17991,-0.264583 -0.32808,-0.550332 -0.42333,-0.846664 -0.0529,-0.179917 -0.0847,-0.370416 -0.0423,-0.550332 0.0741,-0.306916 0.26458,-0.529165 0.59266,-0.560915 0.39158,0 0.65617,0.01058 1.016,0.201083 0.21166,0.105833 0.41275,0.232832 0.62441,0.328082 0.37042,0.15875 0.65617,0.222249 1.05833,0.222249 0.16934,-0.01058 0.32808,-0.05292 0.47625,-0.148166 0.0423,-0.02117 0.0741,-0.05292 0.10583,-0.08467 0.0212,-0.02117 0.0317,-0.02117 0.0529,0.01058 0.0952,0.190499 0.13758,0.391582 0.11642,0.603248 z"
       id="path1525" />
    <path
       style="font-style:normal;font-variant:normal;font-weight:normal;font-stretch:normal;font-size:10.5833px;line-height:1.25;font-family:'Rebeland Outline';-inkscape-font-specification:'Rebeland Outline, Normal';font-variant-ligatures:normal;font-variant-caps:normal;font-variant-numeric:normal;font-variant-east-asian:normal;fill:#000000;fill-opacity:1;stroke:none;stroke-width:0.264583"
       d="m 106.04582,34.308466 c 0.0106,0 0.0212,0 0.0317,0 0.0212,0 0.14816,-0.01058 0.14816,-0.02117 0,-0.01058 -0.0106,-0.01058 -0.0212,-0.01058 -0.13759,-0.08467 -0.27517,-0.169333 -0.42333,-0.232833 -0.0847,-0.03175 -0.15875,-0.05292 -0.24342,-0.05292 -0.0847,0 -0.17992,0.02117 -0.26458,0.07408 -0.0212,0.01058 -0.0529,0.02117 -0.0529,0.05292 0,0.03175 0.0317,0.03175 0.0529,0.04233 0.34925,0.158749 0.66675,0.391582 0.93133,0.656164 0,-0.01058 0,-0.02117 -0.0106,-0.03175 -0.0635,-0.137582 -0.127,-0.275165 -0.20108,-0.402165 -0.0106,-0.01058 -0.0212,-0.02117 -0.0106,-0.03175 0.0106,-0.01058 0.0317,0 0.0423,0 z"
       id="path1491" />
    <path
       style="font-style:normal;font-variant:normal;font-weight:normal;font-stretch:normal;font-size:10.5833px;line-height:1.25;font-family:'Rebeland Outline';-inkscape-font-specification:'Rebeland Outline, Normal';font-variant-ligatures:normal;font-variant-caps:normal;font-variant-numeric:normal;font-variant-east-asian:normal;fill:#000000;fill-opacity:1;stroke:none;stroke-width:0.264583"
       d="m 109.74851,33.465516 c 0.0423,0.624415 0.37041,0.846664 0.86783,1.09008 0.0106,0.04233 0.0212,0.09525 0.0529,0.148166 0.0741,0.127 0.13759,0.264582 0.1905,0.402165 0.13759,0.338666 0.26459,0.687915 0.39159,1.02658 l 0.0847,0.232833 c -0.0317,0.02117 -0.0635,0.04233 -0.0847,0.0635 -0.24342,0.222249 -0.21167,0.518581 -0.20109,0.613831 0.0635,0.571498 0.41275,1.100663 1.03717,1.100663 0.0635,0 0.127,0 0.1905,-0.01058 0.0317,0 0.0635,-0.01058 0.0952,-0.02117 0.13758,-0.02117 0.27516,-0.04233 0.40216,-0.04233 0.0952,0 0.16933,-0.02117 0.23283,-0.03175 h 0.0106 c 0.1905,-0.04233 0.32808,-0.179916 0.37041,-0.359832 0.0317,0.01058 0.0635,0.02117 0.0847,0.03175 l 0.0212,0.01058 c 0.13758,0.05292 0.27516,0.08467 0.41274,0.116417 l 0.0952,0.03175 c 0.0847,0.02117 0.15875,0.03175 0.22225,0.03175 0.0741,0 0.13759,-0.01058 0.20109,-0.03175 0.23283,-0.0635 0.38099,-0.254 0.39158,-0.497416 v -0.158749 h 0.0106 c -0.0635,-0.433915 -0.22225,-1.354662 -0.79375,-1.354662 0.17992,-0.306916 0.26459,-0.645582 0.24342,-1.005414 -0.0423,-0.888997 -0.6985,-1.502828 -1.49225,-1.799161 l -0.11641,-0.04233 c -0.3175,-0.116416 -0.64558,-0.232833 -0.9525,-0.370416 l -0.127,-0.0635 c -0.14816,-0.0635 -0.29633,-0.127 -0.45508,-0.179916 -0.13758,-0.05292 -0.23283,-0.09525 -0.30692,-0.148167 -0.0529,-0.04233 -0.127,-0.09525 -0.21166,-0.137582 -0.0741,-0.03175 -0.14817,-0.05292 -0.22225,-0.05292 -0.35983,0 -0.56092,0.380999 -0.62442,0.687914 -0.0529,0.254 -0.0423,0.497416 -0.0212,0.719665 z"
       id="path1495" />
    <path
       style="font-style:normal;font-variant:normal;font-weight:normal;font-stretch:normal;font-size:10.5833px;line-height:1.25;font-family:'Rebeland Outline';-inkscape-font-specification:'Rebeland Outline, Normal';font-variant-ligatures:normal;font-variant-caps:normal;font-variant-numeric:normal;font-variant-east-asian:normal;fill:url(#linearGradient3236);fill-opacity:1;stroke:none;stroke-width:0.264583"
       d="m 110.16126,32.798768 c 0.0106,-0.09525 0.10583,-0.391582 0.23283,-0.391582 0.0212,0 0.0423,0.01058 0.0635,0.02117 0.0529,0.02117 0.10583,0.05292 0.14816,0.08467 0.127,0.09525 0.26459,0.158749 0.41275,0.211666 0.1905,0.0635 0.37042,0.148166 0.55034,0.232832 0.35983,0.15875 0.71966,0.296333 1.07949,0.433916 0.64558,0.253999 1.21708,0.740831 1.25941,1.471078 0.0212,0.338666 -0.0741,0.645582 -0.26458,0.920747 -0.0635,0.09525 -0.14816,0.15875 -0.254,0.15875 -0.0318,0 -0.0635,-0.01058 -0.10583,-0.02117 -0.0529,-0.02117 -0.10583,-0.03175 -0.15875,-0.05292 -0.0106,-0.01058 -0.0317,-0.02117 -0.0423,0 -0.0106,0.01058 0,0.02117 0.0106,0.03175 0.21167,0.232832 0.49742,0.338665 0.80433,0.338665 0.0529,0 0.10583,0 0.15875,-0.01058 0.0423,-0.01058 0.0635,0.01058 0.0847,0.04233 0.15875,0.232833 0.26458,0.687915 0.30691,0.973664 v 0.09525 c 0,0.07408 -0.0423,0.126999 -0.11641,0.148166 v 0.01058 c -0.0317,0.01058 -0.0529,0.01058 -0.0847,0.01058 -0.0423,0 -0.0952,-0.01058 -0.13758,-0.02117 -0.15875,-0.04233 -0.3175,-0.07408 -0.47625,-0.127 -0.0635,-0.02117 -0.127,-0.04233 -0.17992,-0.08467 -0.0317,-0.03175 -0.0741,-0.02117 -0.10583,-0.04233 -0.23283,-0.116417 -0.508,-0.264583 -0.68791,-0.444499 0.0317,0.08467 0.0847,0.158749 0.13758,0.222249 0.0529,0.0635 0.10583,0.116417 0.15875,0.169333 0.0212,0.02117 0.0317,0.04233 0.0423,0.0635 0.0212,0.08467 0.0423,0.169333 0.0529,0.264582 0.0106,0.08467 -0.0212,0.137583 -0.0953,0.15875 -0.0529,0.01058 -0.10584,0.02117 -0.15875,0.02117 -0.1905,0 -0.37042,0.04233 -0.56092,0.07408 -0.0317,0 -0.0635,0.01058 -0.10583,0.01058 -0.41275,0 -0.64558,-0.391582 -0.66675,-0.772581 -0.0106,-0.116416 0,-0.222249 0.0953,-0.306916 0.0212,-0.02117 0.0529,-0.04233 0.0847,-0.04233 0.0529,-0.01058 0.0952,-0.04233 0.13758,-0.0635 0.0423,-0.02117 0.0423,-0.05292 0.0317,-0.09525 -0.0212,-0.09525 -0.0529,-0.1905 -0.0847,-0.28575 -0.15874,-0.412748 -0.31749,-0.825497 -0.48683,-1.238246 -0.0635,-0.148166 -0.13758,-0.296332 -0.21166,-0.444498 -0.0212,-0.04233 -0.0106,-0.05292 0.0317,-0.05292 0.11641,0 0.22225,0.02117 0.33866,0.04233 -0.0106,-0.03175 -0.0317,-0.04233 -0.0529,-0.05292 -0.11642,-0.0635 -0.24342,-0.105833 -0.37042,-0.158749 -0.14817,-0.0635 -0.29633,-0.116417 -0.43391,-0.201083 -0.24342,-0.148166 -0.381,-0.370416 -0.40217,-0.666748 -0.0106,-0.211666 -0.0212,-0.423332 0.0212,-0.634998 z"
       id="path1535" />
    <path
       style="font-style:normal;font-variant:normal;font-weight:normal;font-stretch:normal;font-size:10.5833px;line-height:1.25;font-family:'Rebeland Outline';-inkscape-font-specification:'Rebeland Outline, Normal';font-variant-ligatures:normal;font-variant-caps:normal;font-variant-numeric:normal;font-variant-east-asian:normal;fill:#000000;fill-opacity:1;stroke:none;stroke-width:0.264583"
       d="m 112.08742,34.661429 c -0.0106,0 -0.0212,-0.01058 -0.0317,-0.02117 v 0.02117 c 0.0106,0 0.0212,0 0.0317,0 0.0635,0.0635 0.127,0.116416 0.17991,0.179916 0.0318,0.03175 0.0529,0.07408 0.0635,0.126999 l 0.127,0.507999 c 0.0106,0.02117 0.0212,0.04233 0.0529,0.04233 0.0529,0 0.0953,-0.02117 0.127,-0.07408 0.0212,-0.03175 0.0317,-0.0635 0.0529,-0.09525 0.0847,-0.148166 0.0635,-0.328082 -0.0529,-0.444498 -0.14817,-0.148167 -0.33867,-0.211666 -0.55033,-0.243416 z"
       id="path1537" />
    <path
       style="font-size:10.5833px;line-height:1.25;font-family:'Rebeland Outline';-inkscape-font-specification:'Rebeland Outline';stroke-width:0.264583"
       d="m 97.812997,33.805416 c 0.0423,0.624414 0.37041,0.846664 0.86783,1.09008 0.0106,0.04233 0.0212,0.09525 0.0529,0.148166 0.0741,0.126999 0.13759,0.264582 0.1905,0.402165 0.13759,0.338666 0.26459,0.687915 0.39159,1.02658 l 0.0847,0.232833 c -0.0318,0.02117 -0.0635,0.04233 -0.0847,0.0635 -0.24342,0.222249 -0.21167,0.518581 -0.20109,0.613831 0.0635,0.571498 0.41275,1.100663 1.037173,1.100663 0.0635,0 0.127,0 0.1905,-0.01058 0.0318,0 0.0635,-0.01058 0.0953,-0.02117 0.13758,-0.02117 0.27516,-0.04233 0.40216,-0.04233 0.0953,0 0.16933,-0.02117 0.23283,-0.03175 h 0.0106 c 0.1905,-0.04233 0.32808,-0.179916 0.37041,-0.359832 0.0317,0.01058 0.0635,0.02117 0.0847,0.03175 l 0.0212,0.01058 c 0.13759,0.05292 0.27517,0.08467 0.41275,0.116416 l 0.0952,0.03175 c 0.0847,0.02117 0.15875,0.03175 0.22225,0.03175 0.0741,0 0.13759,-0.01058 0.20109,-0.03175 0.23283,-0.0635 0.38099,-0.253999 0.39158,-0.497415 v -0.158749 h 0.0106 c -0.0635,-0.433915 -0.22225,-1.354663 -0.79375,-1.354663 0.17992,-0.306915 0.26459,-0.645581 0.24342,-1.005413 -0.0423,-0.888997 -0.6985,-1.502829 -1.49225,-1.799161 l -0.11641,-0.04233 c -0.3175,-0.116416 -0.64558,-0.232833 -0.952503,-0.370416 l -0.127,-0.0635 c -0.14817,-0.0635 -0.29633,-0.127 -0.45508,-0.179917 -0.13758,-0.05292 -0.23283,-0.09525 -0.30692,-0.148166 -0.0529,-0.04233 -0.127,-0.09525 -0.21166,-0.137583 -0.0741,-0.03175 -0.14817,-0.05292 -0.22225,-0.05292 -0.35983,0 -0.56092,0.380999 -0.62442,0.687914 -0.0529,0.254 -0.0423,0.497415 -0.0212,0.719665 z"
       id="path4023" />
    <path
       style="font-size:10.5833px;line-height:1.25;font-family:'Rebeland Outline';-inkscape-font-specification:'Rebeland Outline';fill:url(#linearGradient3238);fill-opacity:1;stroke:none;stroke-width:0.264583;stroke-opacity:1"
       d="m 98.225747,33.138668 c 0.0106,-0.09525 0.10583,-0.391582 0.23283,-0.391582 0.0212,0 0.0423,0.01058 0.0635,0.02117 0.0529,0.02117 0.10583,0.05292 0.14816,0.08467 0.127,0.09525 0.26459,0.158749 0.41275,0.211666 0.1905,0.0635 0.37042,0.148166 0.55033,0.232832 0.35984,0.15875 0.719673,0.296333 1.079503,0.433916 0.64558,0.253999 1.21708,0.740831 1.25941,1.471078 0.0212,0.338666 -0.0741,0.645582 -0.26458,0.920747 -0.0635,0.09525 -0.14817,0.15875 -0.254,0.15875 -0.0317,0 -0.0635,-0.01058 -0.10583,-0.02117 -0.0529,-0.02117 -0.10583,-0.03175 -0.15875,-0.05292 -0.0106,-0.01058 -0.0318,-0.02117 -0.0423,0 -0.0106,0.01058 0,0.02117 0.0106,0.03175 0.21167,0.232832 0.49741,0.338665 0.80433,0.338665 0.0529,0 0.10583,0 0.15875,-0.01058 0.0423,-0.01058 0.0635,0.01058 0.0847,0.04233 0.15875,0.232833 0.26458,0.687915 0.30691,0.973664 v 0.09525 c 0,0.07408 -0.0423,0.127 -0.11641,0.148167 v 0.01058 c -0.0318,0.01058 -0.0529,0.01058 -0.0847,0.01058 -0.0423,0 -0.0952,-0.01058 -0.13758,-0.02117 -0.15875,-0.04233 -0.3175,-0.07408 -0.47625,-0.127 -0.0635,-0.02117 -0.127,-0.04233 -0.17992,-0.08467 -0.0318,-0.03175 -0.0741,-0.02117 -0.10583,-0.04233 -0.23283,-0.116416 -0.508,-0.264582 -0.68792,-0.444498 0.0318,0.08467 0.0847,0.158749 0.13759,0.222249 0.0529,0.0635 0.10583,0.116416 0.15875,0.169333 0.0212,0.02117 0.0317,0.04233 0.0423,0.0635 0.0212,0.08467 0.0423,0.169332 0.0529,0.264582 0.0106,0.08467 -0.0212,0.137583 -0.0952,0.15875 -0.0529,0.01058 -0.10584,0.02117 -0.15875,0.02117 -0.1905,0 -0.37042,0.04233 -0.56092,0.07408 -0.0317,0 -0.0635,0.01058 -0.10583,0.01058 -0.412753,0 -0.645583,-0.391582 -0.666753,-0.772581 -0.0106,-0.116416 0,-0.222249 0.0953,-0.306916 0.0212,-0.02117 0.0529,-0.04233 0.0847,-0.04233 0.0529,-0.01058 0.0952,-0.04233 0.13758,-0.0635 0.0423,-0.02117 0.0423,-0.05292 0.0317,-0.09525 -0.0212,-0.09525 -0.0529,-0.190499 -0.0847,-0.285749 -0.15875,-0.412748 -0.3175,-0.825497 -0.48683,-1.238246 -0.0635,-0.148166 -0.13758,-0.296332 -0.21166,-0.444498 -0.0212,-0.04233 -0.0106,-0.05292 0.0318,-0.05292 0.11641,0 0.22225,0.02117 0.33866,0.04233 -0.0106,-0.03175 -0.0318,-0.04233 -0.0529,-0.05292 -0.11642,-0.0635 -0.24342,-0.105833 -0.37042,-0.15875 -0.14817,-0.0635 -0.29633,-0.116416 -0.43392,-0.201082 -0.24341,-0.148166 -0.38099,-0.370416 -0.40216,-0.666748 -0.0106,-0.211666 -0.0212,-0.423332 0.0212,-0.634998 z"
       id="path4038" />
    <path
       style="font-size:10.5833px;line-height:1.25;font-family:'Rebeland Outline';-inkscape-font-specification:'Rebeland Outline';fill:#000000;fill-opacity:1;stroke-width:0.264583"
       d="m 100.15191,35.001329 c -0.0106,0 -0.0212,-0.01058 -0.0318,-0.02117 v 0.02117 c 0.0106,0 0.0212,0 0.0318,0 0.0635,0.0635 0.127,0.116416 0.17991,0.179916 0.0317,0.03175 0.0529,0.07408 0.0635,0.126999 l 0.127,0.507999 c 0.0106,0.02117 0.0212,0.04233 0.0529,0.04233 0.0529,0 0.0952,-0.02117 0.127,-0.07408 0.0212,-0.03175 0.0317,-0.0635 0.0529,-0.09525 0.0847,-0.148166 0.0635,-0.328082 -0.0529,-0.444499 -0.14817,-0.148166 -0.33867,-0.211666 -0.55033,-0.243415 z"
       id="path4040" />
    <path
       style="fill:#000000;stroke:none;stroke-width:0.264583px;stroke-linecap:butt;stroke-linejoin:miter;stroke-opacity:1"
       d="m 102.3517,34.937139 0.73081,0.952148 -0.23386,1.302938 -0.91456,-1.081606 z"
       id="path3288" />
    <path
       style="fill:#000000;stroke:none;stroke-width:0.264583px;stroke-linecap:butt;stroke-linejoin:miter;stroke-opacity:1"
       d="m 105.00351,35.400683 0.50949,-0.476072 1.12336,1.486685 -0.67652,0.133636 v 0 z"
       id="path3290" />
    <path
       style="fill:#000000;stroke:none;stroke-width:0.264583px;stroke-linecap:butt;stroke-linejoin:miter;stroke-opacity:1"
       d="m 114.12826,35.308809 0.80181,1.190186 -0.27144,0.167042 v 0 l -0.82269,-0.864449 z"
       id="path3292" />
  </g>
</svg>
