<svg width="210mm" height="297mm" version="1.1" viewBox="0 0 210 297" xmlns="http://www.w3.org/2000/svg" xmlns:xlink="http://www.w3.org/1999/xlink"><defs><linearGradient id="a" x1="37.322" x2="37.322" y1="155.65" y2="159.42" gradientUnits="userSpaceOnUse"><stop stop-color="#00ff90" offset="0"/><stop stop-color="#eaff00" offset="1"/></linearGradient></defs><g stroke-width=".26458"><path d="m47.742 159.17c-0.09525-0.24342-0.28575-0.41275-0.53975-0.47625-0.08467-0.15875-0.16933-0.32808-0.26458-0.508-0.05292-0.11642-0.10583-0.23283-0.15875-0.34925l-0.0635-0.13758c-0.14817-0.30692-0.28575-0.635-0.33866-0.98425-0.03175-0.20108-0.01058-0.381 0.05292-0.53975 0.07408-0.16933 0.04233-0.34924-0.09525-0.48683-0.29633-0.29633-0.73025-0.56091-1.1642-0.56091-0.45508 0-0.762 0.1905-0.8255 0.64558-0.28575-0.32808-0.635-0.60325-1.0901-0.60325-0.68791 0-1.1112 0.4445-1.1853 1.1007-0.02117 0.254 0.07408 0.41275 0.30692 0.508 0.03175 0.0106 0.05292 0.0212 0.07408 0.0318 0.45508 0.41275 0.81491 1.3123 0.96308 1.8732v0.0635c-0.08467 0.0741-0.16933 0.1905-0.21167 0.37041-0.10583 0.4445-0.0635 0.889 0.13758 1.3652 0.16933 0.4445 0.5715 0.52916 1.0054 0.52916 0.17992 0 0.34925-0.0212 0.508-0.0423h0.09525c0.16933-0.0212 0.3175-0.0529 0.4445-0.10583 0.09525-0.0317 0.16933-0.0847 0.23283-0.14817 0.24342 0.22225 0.53975 0.254 0.85725 0.254 0.53975 0 1.1747-0.0106 1.3547-0.635 0.10583-0.35983 0.08467-0.73025-0.0635-1.1112z"/><path d="m47.467 160.23c-0.05292 0.17991-0.16933 0.28575-0.33867 0.30691-0.20108 0.0318-0.41275 0.0529-0.61383 0.0529-0.254 0-0.5715-0.0106-0.70908-0.26458-0.11642-0.21167-0.17992-0.4445-0.20108-0.68792-0.02117-0.1905 0.08467-0.32808 0.27517-0.3175h0.0635c0.02117 0 0.04233 0.0212 0.05292-0.0106 0.01058-0.0212-0.02117-0.0317-0.03175-0.0423-0.254-0.20109-1.016-0.68792-1.3229-0.68792-0.02117 0-0.04233 0-0.0635 0.0106 0.02117 0.0318 0.05292 0.0423 0.07408 0.0635 0.07408 0.0529 0.14817 0.10583 0.22225 0.15875 0.02117 0.0106 0.03175 0.0317 0.04233 0.0529 0.03175 0.0741 0.05292 0.14817 0.07408 0.22225 0.02117 0.0529-0.01058 0.10583-0.0635 0.11642-0.03175 0.0106-0.0635 0.0212-0.09525 0.0317-0.01058 0-0.02117 0-0.02117 0.0106 0 0.0212 0.01058 0.0212 0.02117 0.0318 0.08467 0.0423 0.16933 0.0741 0.254 0.10583 0.13758 0.0529 0.21167 0.15875 0.24342 0.30692 0.05292 0.21167 0.08467 0.42333 0.07408 0.64558-0.01058 0.0952-0.05292 0.15875-0.13758 0.1905-0.23283 0.0847-0.68791 0.127-0.92075 0.127-0.254 0-0.508-0.0423-0.61383-0.30692-0.14817-0.37041-0.21167-0.75141-0.11642-1.143 0.02117-0.0741 0.05292-0.13759 0.11642-0.16934 0.01058-0.0106 0.02117-0.0106 0.03175-0.0106s0.02117 0.0106 0.03175 0.0318c0.02117 0.0847 0.04233 0.16933 0.0635 0.24342 0.01058 0.0212 0.02117 0.0635 0.05292 0.0529 0.02117 0 0.01058-0.0423 0.01058-0.0635 0-0.64558-0.70908-2.6035-1.3652-2.8257-0.07408-0.0317-0.07408-0.0317-0.0635-0.127 0.02117-0.40216 0.254-0.66674 0.65616-0.73024 0.04233-0.0106 0.08467-0.0106 0.127-0.0106 0.24342 0 0.45508 0.10584 0.64558 0.29633 0.254 0.254 0.46567 0.53975 0.66675 0.84667 0.16933 0.28575 0.6985 1.1112 0.97366 1.27-0.02117-0.0635-0.05292-0.10583-0.08467-0.14816-0.24342-0.34925-0.635-1.0689-0.71966-1.5028-0.04233-0.20108-0.05292-0.40217 0.02117-0.60325 0.0635-0.15875 0.28575-0.1905 0.43392-0.1905 0.32808 0 0.67733 0.23284 0.89958 0.45508 0.02117 0.0212 0.03175 0.0423 0.02117 0.0741-0.09525 0.23283-0.11642 0.47625-0.08467 0.73025 0.05292 0.39158 0.20108 0.75141 0.37042 1.1007 0.08467 0.16933 0.15875 0.33866 0.24342 0.508 0.09525 0.20108 0.1905 0.39158 0.29633 0.58208 0.05292 0.0847 0.10583 0.11641 0.1905 0.127 0.13758 0.0212 0.24342 0.0952 0.29633 0.24341 0.10583 0.28575 0.13758 0.5715 0.05292 0.86783z" fill="url(#a)"/><path d="m43.949 159.23c-0.13758-0.15875-0.26458-0.32808-0.381-0.51858-0.01058-0.0212-0.02117-0.0423-0.03175-0.0635-0.05292-0.0847-0.11642-0.20108-0.22225-0.29633-0.09525-0.0952-0.21167-0.14817-0.33867-0.15875 0.0635-0.0847 0.11642-0.17992 0.16933-0.28575 0.04233-0.0847 0.07408-0.22225 0.02117-0.39158-0.05292-0.15875-0.127-0.28575-0.1905-0.381-0.29633-0.48683-0.4445-1.0372-0.58208-1.5875-0.08467-0.30692-0.26458-0.381-0.5715-0.381-0.381 0.0318-0.79375 0.3175-0.94191 0.66674-0.09525-0.0423-0.30692-0.0741-0.40217-0.0741-0.70908 0-1.1959 0.635-1.1959 1.3123 0 0.66675 0.40217 1.3335 0.89958 1.7568 0.03175 0.0318 0.0635 0.0635 0.09525 0.0952-0.01058 0.0212-0.02117 0.0423-0.03175 0.0635v0.0106c-0.01058 0.0106-0.02117 0.0212-0.02117 0.0317-0.08467 0.22225-0.127 0.46567-0.127 0.75142 0.02117 0.84666 0.84666 1.2277 1.5981 1.2277 0.42333 0 0.81491-0.10583 1.1747-0.33867h0.03175c0.11642 0.0318 0.23283 0.0423 0.34925 0.0423 0.40216 0 0.77258-0.16934 0.92075-0.5715 0.0635-0.16934 0.127-0.51858-0.20108-0.87842z"/><path d="m43.811 160.02c-0.08467 0.254-0.29633 0.33866-0.53975 0.33866-0.17992 0-0.37042-0.0529-0.51858-0.15875 0.05292 0.0847-0.02117 0.10584-0.0635 0.13759-0.30692 0.21166-0.61383 0.30691-0.98425 0.30691-0.51858 0-1.2065-0.24341-1.2065-0.85724 0-0.21167 0.02117-0.41275 0.09525-0.61384 0.01058-0.0212 0.02117-0.0423 0.03175-0.0635 0.02117-0.0741 0.07408-0.10583 0.14817-0.10583h0.16933 0.08467c0.01058 0 0.02117 0 0.03175-0.0212-0.03175-0.0212-0.0635-0.0423-0.09525-0.0635-0.62442-0.34924-1.2912-1.1007-1.2912-1.8627 0-0.45508 0.29633-0.92074 0.79375-0.92074 0.35983 0 0.64558 0.254 0.889 0.49741 0-0.0423-0.01058-0.0635-0.02117-0.0847-0.05292-0.10584-0.09525-0.21167-0.10583-0.32809-0.02117-0.20108 0.0635-0.35983 0.22225-0.48683 0.13758-0.10583 0.28575-0.1905 0.46566-0.21166h0.05292c0.0635 0 0.08467 0.0212 0.10583 0.10583 0.04233 0.16933 0.07408 0.33866 0.11642 0.508 0.11642 0.42333 0.27517 0.82549 0.508 1.1959 0.0635 0.0952 0.11642 0.1905 0.14817 0.29633 0.01058 0.0423 0.01058 0.0741-0.01058 0.11642-0.05292 0.127-0.127 0.23283-0.23283 0.3175-0.03175 0.0212-0.0635 0.0423-0.09525 0.0423s-0.0635-0.0212-0.10583-0.0423c-0.32808-0.26458-0.5715-0.47625-1.0266-0.47625h-0.09525c-0.20108 0.0212-0.29633 0.1905-0.23283 0.39158 0.08467 0.24342 0.28575 0.34925 0.52916 0.34925 0.0635 0 0.13758-0.0106 0.21167-0.0212 0.03175 0 0.05292 0 0.07408 0.0212 0.16933 0.20108 0.27516 0.42333 0.3175 0.67733 0.01058 0.0952-0.04233 0.16933-0.13758 0.1905-0.08467 0.0212-0.16933 0.0423-0.254 0.0635-0.0635 0.0212-0.127 0.0423-0.127 0.11642 0 0.0741 0.05292 0.11641 0.11642 0.14816 0.05292 0.0317 0.11642 0.0423 0.17992 0.0423 0.03175 0 0.05292-0.0106 0.08467-0.0106 0.09525-0.0106 0.3175-0.10583 0.35983-0.20108 0.04233-0.0635 0.04233-0.13758 0.03175-0.21167v-0.127c0-0.13758 0.0635-0.24341 0.16933-0.32808 0.10583-0.0741 0.22225-0.10583 0.34925-0.11641 0.0635 0 0.10583 0.0106 0.14817 0.0529 0.08467 0.0847 0.13758 0.1905 0.20108 0.29633 0.127 0.20109 0.26458 0.39159 0.42333 0.5715 0.127 0.13759 0.20108 0.29634 0.127 0.48683z" fill="url(#a)"/><path d="m49.905 158.58c-0.10583-1.143-1.0372-1.8838-1.9262-2.4659-0.17992-0.127-0.37042-0.254-0.55033-0.38099-0.04233-0.0317-0.08467-0.0635-0.127-0.0952-0.1905-0.13759-0.37042-0.26459-0.508-0.42334-0.09525-0.10583-0.21167-0.16933-0.35983-0.16933-0.51858 0-0.71966 0.86783-0.75141 1.2806-0.01058 0.21167 0.01058 0.40217 0.07408 0.5715 0.15875 0.45508 0.47625 0.65616 0.86783 0.889 0.02117 0.0106 0.04233 0.0212 0.0635 0.0317v0.0318c0.14817 0.33866 0.28575 0.68791 0.37042 1.0477-0.30692 0.0529-0.508 0.10583-0.635 0.41275-0.07408 0.17992-0.0635 0.34925-0.04233 0.47625 0.04233 0.30691 0.1905 0.87841 0.53975 0.96308 0.02117 0 0.05292 0.0106 0.08467 0.0106 0.0635 0 0.127-0.0106 0.20108-0.0529 0.1905 0 0.39158 0.0423 0.64558 0.13758 0.15875 0.0529 0.33866 0.11642 0.53975 0.14817 0.07408 0.0106 0.13758 0.0212 0.20108 0.0212 0.45508 0 0.8255-0.42333 0.99483-0.80433 0.23283-0.52916 0.32808-1.0795 0.27516-1.6298z"/><path d="m49.238 160.05c-0.10583 0.23283-0.37042 0.5715-0.65616 0.5715-0.04233 0-0.08467-0.0106-0.13758-0.0212-0.16933-0.0317-0.32808-0.0847-0.48683-0.13758-0.26458-0.0953-0.508-0.14817-0.79375-0.14817-0.05292 0-0.10583 0.0106-0.14817 0.0423-0.01058 0.0106-0.03175 0.0106-0.04233 0.0106s-0.03175-0.0106-0.04233-0.0317c-0.11642-0.17992-0.16933-0.381-0.20108-0.59266-0.01058-0.0953-0.02117-0.1905 0.02117-0.28575 0.03175-0.0847 0.08467-0.13759 0.16933-0.15875 0.0635-0.0106 0.127-0.0212 0.1905-0.0212 0.07408 0 0.14817 0.0106 0.22225 0.0318 0.03175 0.0106 0.05292 0.0106 0.0635 0.0106 0.04233 0 0.04233-0.0212 0.04233-0.0953 0-0.0529-0.01058-0.10583-0.02117-0.15875-0.05292-0.31749-0.15875-0.61383-0.26458-0.91016-0.05292-0.14817-0.10583-0.29633-0.15875-0.4445-0.01058-0.0317 0-0.0423 0.02117-0.0423h0.02117c0.01058 0.0106 0.03175 0.0106 0.05292 0.0106h0.03175c-0.05292-0.0318-0.09525-0.0529-0.13758-0.0847-0.11642-0.0741-0.23283-0.127-0.34925-0.1905-0.24342-0.14817-0.45508-0.32809-0.55033-0.60325-0.05292-0.13758-0.0635-0.27517-0.05292-0.42333 0.02117-0.30692 0.09525-0.68792 0.3175-0.91017 0.03175-0.0317 0.04233-0.0423 0.0635-0.0423s0.04233 0.0106 0.0635 0.0423c0.20108 0.23284 0.45508 0.39158 0.6985 0.5715 0.381 0.28575 0.79375 0.53975 1.1747 0.8255 0.5715 0.41275 1.0901 1.016 1.143 1.7462 0.04233 0.49742-0.04233 0.97367-0.24342 1.4288z" fill="url(#a)"/><path d="m47.968 158.05c-0.01058 0-0.03175-0.0106-0.04233 0-0.01058 0.0212 0.01058 0.0317 0.02117 0.0423 0.01058 0.0106 0.02117 0.0212 0.03175 0.0318 0.127 0.0952 0.24342 0.20108 0.26458 0.37042 0.01058 0.0529 0.02117 0.10583 0.02117 0.15875 0.01058 0.127 0.04233 0.24341 0.09525 0.35983 0.02117 0.0635 0.07408 0.0952 0.127 0.0952 0.01058 0 0.03175-0.0106 0.04233-0.0106 0.08467-0.0212 0.14817-0.11641 0.14817-0.21166 0-0.42333-0.32808-0.68792-0.70908-0.81492z"/><path d="m40.779 158.84c-0.22225-0.30692-0.49742-0.52916-0.79375-0.762 0.09525-0.0635 0.17992-0.14816 0.24342-0.254 0.11642-0.1905 0.127-0.34925 0.02117-0.56091-0.29633-0.59267-0.80433-1.9156-0.889-2.6035-0.02117-0.20109-0.04233-0.42334-0.02117-0.61383 0.01058-0.0635 0.02117-0.22225-0.10583-0.35984-0.08467-0.0847-0.1905-0.127-0.32808-0.127-0.49742 0-0.70908 0.27517-0.889 0.68792-0.07408-0.0847-0.15875-0.16933-0.254-0.24342-0.20108-0.13758-0.29633-0.17991-0.55033-0.17991-0.79375 0.0952-1.1218 0.70908-1.143 1.4605-0.01058 0.23283 0.03175 0.45508 0.07408 0.64558 0.01058 0.0318 0.02117 0.0635 0.03175 0.0953 0.13758 0.61383 0.55033 1.5452 1.0054 2.0002 0 0 0.01058 0.0106 0.02117 0.0317 0.10583 0.14816 0.22225 0.26458 0.3175 0.34924 0.03175 0.0317 0.0635 0.0635 0.09525 0.0952-0.04233 0.0741-0.07408 0.15875-0.09525 0.254-0.09525 0.37042-0.08467 0.77258 0.04233 1.2382 0.10583 0.37042 0.45508 1.016 0.91016 1.016 0.127 0 0.24342-0.0529 0.32808-0.13759 0.08467-0.0423 0.17992-0.0635 0.28575-0.0635 0.03175 0 0.0635 0 0.10583 0.0106 0.0635 0.0106 0.14817 0.0317 0.23283 0.0635 0.10583 0.0318 0.22225 0.0635 0.34925 0.0847l0.05292 0.0106c0.13758 0.0317 0.26458 0.0317 0.40216 0.0317 0.59266-0.0423 0.81491-0.67733 0.81491-1.1959 0-0.37041-0.09525-0.67733-0.28575-0.93133z"/><path d="m40.472 160.47c-0.0635 0.10583-0.16933 0.13758-0.27517 0.14816-0.127 0-0.254-0.0106-0.381-0.0317-0.20108-0.0317-0.39158-0.127-0.59266-0.14816-0.04233 0-0.08467-0.0106-0.127-0.0106-0.17992 0-0.34925 0.0423-0.508 0.12699-0.03175 0.0106-0.0635 0.0317-0.08467 0.0529s-0.04233 0.0317-0.05292 0.0317c-0.23283 0-0.48683-0.56091-0.53975-0.74083-0.09525-0.34925-0.127-0.6985-0.04233-1.0266 0.02117-0.0847 0.0635-0.15875 0.127-0.20108 0.01058-0.0106 0.02117-0.0212 0.03175-0.0212s0.03175 0.0106 0.04233 0.0212c0.33867 0.26458 0.68791 0.47625 1.0266 0.73024 0.28575 0.22225 0.381 0.33867 0.53975 0.66675 0.01058 0.0212 0.02117 0.0423 0.04233 0.0423 0.02117 0 0.01058-0.0318 0.01058-0.0529 0.02117-0.1905-0.05292-0.34925-0.14817-0.49742-0.17992-0.27516-0.41275-0.43391-0.64558-0.59266-0.381-0.27517-0.77258-0.49742-1.1324-0.8255-0.09525-0.0847-0.1905-0.17991-0.27516-0.29633-0.41275-0.41275-0.83608-1.3229-0.9525-1.8838-0.04233-0.21166-0.09525-0.42333-0.08467-0.635 0.02117-0.53974 0.21167-1.0266 0.80433-1.0901 0.10583 0 0.1905 0.0423 0.27517 0.11642 0.17992 0.127 0.30692 0.32808 0.42333 0.53975 0.17992 0.33866 0.35983 0.67733 0.53975 1.016 0.04233 0.0847 0.09525 0.14816 0.14817 0.21166-0.04233-0.13758-0.10583-0.26458-0.15875-0.40216-0.11642-0.3175-0.22225-0.64558-0.22225-0.99483s0.22225-0.78317 0.60325-0.78317c0.05292 0 0.05292 0.0106 0.04233 0.0741-0.02117 0.23283 0 0.46566 0.03175 0.69849 0.11642 0.83608 0.53975 1.9579 0.93133 2.7411 0.04233 0.0953 0.04233 0.11641 0 0.1905-0.05292 0.0741-0.11642 0.127-0.1905 0.14816-0.05292 0.0212-0.10583 0.0318-0.15875 0.0423-0.08467 0-0.11642-0.0106-0.17992-0.0635-0.74083-0.60325-1.1642-0.97367-1.5663-1.8309-0.03175 0.0423-0.03175 0.11641-0.01058 0.20108 0.15875 0.78316 1.0372 1.5346 1.6298 2.0002 0.22225 0.17992 0.45508 0.33867 0.66675 0.53975 0.32808 0.32808 0.52916 0.59267 0.52916 1.0795 0 0.26458-0.07408 0.47625-0.1905 0.66675z" fill="url(#a)"/></g></svg>
