<?xml version="1.0" encoding="UTF-8" standalone="no"?>
<svg
   xmlns:dc="http://purl.org/dc/elements/1.1/"
   xmlns:cc="http://creativecommons.org/ns#"
   xmlns:rdf="http://www.w3.org/1999/02/22-rdf-syntax-ns#"
   xmlns:svg="http://www.w3.org/2000/svg"
   xmlns="http://www.w3.org/2000/svg"
   xmlns:xlink="http://www.w3.org/1999/xlink"
   xmlns:sodipodi="http://sodipodi.sourceforge.net/DTD/sodipodi-0.dtd"
   xmlns:inkscape="http://www.inkscape.org/namespaces/inkscape"
   width="22.952078mm"
   height="7.4507098mm"
   viewBox="0 0 22.952078 7.4507098"
   version="1.1"
   id="svg908"
   inkscape:version="1.0.2 (1.0.2+r75+1)"
   sodipodi:docname="services.svg">
  <defs
     id="defs902">
    <linearGradient
       inkscape:collect="always"
       id="linearGradient3371">
      <stop
         style="stop-color:#00ff93;stop-opacity:1;"
         offset="0"
         id="stop3367" />
      <stop
         style="stop-color:#ebff00;stop-opacity:1"
         offset="1"
         id="stop3369" />
    </linearGradient>
    <linearGradient
       inkscape:collect="always"
       id="linearGradient3365">
      <stop
         style="stop-color:#00ff93;stop-opacity:1;"
         offset="0"
         id="stop3361" />
      <stop
         style="stop-color:#ebff00;stop-opacity:1"
         offset="1"
         id="stop3363" />
    </linearGradient>
    <linearGradient
       inkscape:collect="always"
       id="linearGradient3359">
      <stop
         style="stop-color:#00ff93;stop-opacity:1;"
         offset="0"
         id="stop3355" />
      <stop
         style="stop-color:#ebff00;stop-opacity:1"
         offset="1"
         id="stop3357" />
    </linearGradient>
    <linearGradient
       inkscape:collect="always"
       id="linearGradient3353">
      <stop
         style="stop-color:#00ff93;stop-opacity:1;"
         offset="0"
         id="stop3349" />
      <stop
         style="stop-color:#ebff00;stop-opacity:1"
         offset="1"
         id="stop3351" />
    </linearGradient>
    <linearGradient
       inkscape:collect="always"
       id="linearGradient3347">
      <stop
         style="stop-color:#00ff93;stop-opacity:1;"
         offset="0"
         id="stop3343" />
      <stop
         style="stop-color:#ebff00;stop-opacity:1"
         offset="1"
         id="stop3345" />
    </linearGradient>
    <linearGradient
       inkscape:collect="always"
       id="linearGradient3341">
      <stop
         style="stop-color:#00ff93;stop-opacity:1;"
         offset="0"
         id="stop3337" />
      <stop
         style="stop-color:#ebff00;stop-opacity:1"
         offset="1"
         id="stop3339" />
    </linearGradient>
    <linearGradient
       inkscape:collect="always"
       id="linearGradient3335">
      <stop
         style="stop-color:#00ff93;stop-opacity:1;"
         offset="0"
         id="stop3331" />
      <stop
         style="stop-color:#ebff00;stop-opacity:1"
         offset="1"
         id="stop3333" />
    </linearGradient>
    <linearGradient
       inkscape:collect="always"
       id="linearGradient3329">
      <stop
         style="stop-color:#00ff93;stop-opacity:1;"
         offset="0"
         id="stop3325" />
      <stop
         style="stop-color:#ebff00;stop-opacity:1"
         offset="1"
         id="stop3327" />
    </linearGradient>
    <linearGradient
       inkscape:collect="always"
       id="linearGradient3305">
      <stop
         style="stop-color:#00ff93;stop-opacity:1;"
         offset="0"
         id="stop3301" />
      <stop
         style="stop-color:#ebff00;stop-opacity:1"
         offset="1"
         id="stop3303" />
    </linearGradient>
    <linearGradient
       inkscape:collect="always"
       xlink:href="#linearGradient3305"
       id="linearGradient3307"
       x1="-405.31"
       y1="119.21425"
       x2="-405.31"
       y2="126.23765"
       gradientUnits="userSpaceOnUse" />
    <linearGradient
       inkscape:collect="always"
       xlink:href="#linearGradient3371"
       id="linearGradient3309"
       x1="-405.31"
       y1="119.21425"
       x2="-405.31"
       y2="126.23765"
       gradientUnits="userSpaceOnUse" />
    <linearGradient
       inkscape:collect="always"
       xlink:href="#linearGradient3365"
       id="linearGradient3311"
       x1="-405.31"
       y1="119.21425"
       x2="-405.31"
       y2="126.23765"
       gradientUnits="userSpaceOnUse" />
    <linearGradient
       inkscape:collect="always"
       xlink:href="#linearGradient3359"
       id="linearGradient3313"
       x1="-405.31"
       y1="119.21425"
       x2="-405.31"
       y2="126.23765"
       gradientUnits="userSpaceOnUse" />
    <linearGradient
       inkscape:collect="always"
       xlink:href="#linearGradient3353"
       id="linearGradient3315"
       x1="-405.31"
       y1="119.21425"
       x2="-405.31"
       y2="126.23765"
       gradientUnits="userSpaceOnUse" />
    <linearGradient
       inkscape:collect="always"
       xlink:href="#linearGradient3347"
       id="linearGradient3317"
       x1="-405.31"
       y1="119.21425"
       x2="-405.31"
       y2="126.23765"
       gradientUnits="userSpaceOnUse" />
    <linearGradient
       inkscape:collect="always"
       xlink:href="#linearGradient3341"
       id="linearGradient3319"
       x1="-405.31"
       y1="119.21425"
       x2="-405.31"
       y2="126.23765"
       gradientUnits="userSpaceOnUse" />
    <linearGradient
       inkscape:collect="always"
       xlink:href="#linearGradient3335"
       id="linearGradient3321"
       x1="-405.31"
       y1="119.21425"
       x2="-405.31"
       y2="126.23765"
       gradientUnits="userSpaceOnUse" />
    <linearGradient
       inkscape:collect="always"
       xlink:href="#linearGradient3329"
       id="linearGradient3323"
       x1="-405.31"
       y1="119.21425"
       x2="-405.31"
       y2="126.23765"
       gradientUnits="userSpaceOnUse" />
  </defs>
  <sodipodi:namedview
     id="base"
     pagecolor="#ffffff"
     bordercolor="#666666"
     borderopacity="1.0"
     inkscape:pageopacity="0.0"
     inkscape:pageshadow="2"
     inkscape:zoom="8.2600037"
     inkscape:cx="39.354011"
     inkscape:cy="19.719024"
     inkscape:document-units="mm"
     inkscape:current-layer="text1481"
     inkscape:document-rotation="0"
     showgrid="false"
     showborder="true"
     inkscape:pagecheckerboard="true"
     objecttolerance="20"
     guidetolerance="20"
     fit-margin-top="0"
     fit-margin-left="0"
     fit-margin-right="0"
     fit-margin-bottom="0"
     inkscape:showpageshadow="false"
     inkscape:window-width="1920"
     inkscape:window-height="1010"
     inkscape:window-x="1440"
     inkscape:window-y="0"
     inkscape:window-maximized="1" />
  <metadata
     id="metadata905">
    <rdf:RDF>
      <cc:Work
         rdf:about="">
        <dc:format>image/svg+xml</dc:format>
        <dc:type
           rdf:resource="http://purl.org/dc/dcmitype/StillImage" />
        <dc:title></dc:title>
      </cc:Work>
    </rdf:RDF>
  </metadata>
  <g
     inkscape:label="Layer 1"
     inkscape:groupmode="layer"
     id="layer1"
     transform="translate(415.44147,-117.6697)">
    <g
       aria-label="Story"
       id="text1473"
       style="font-style:normal;font-variant:normal;font-weight:normal;font-stretch:normal;font-size:10.5833px;line-height:1.25;font-family:'Rebeland Outline';-inkscape-font-specification:'Rebeland Outline, Normal';font-variant-ligatures:normal;font-variant-caps:normal;font-variant-numeric:normal;font-variant-east-asian:normal;fill:#000000;fill-opacity:1;stroke:none;stroke-width:0.264583" />
    <g
       aria-label="Quote"
       id="text1477"
       style="font-style:normal;font-variant:normal;font-weight:normal;font-stretch:normal;font-size:10.5833px;line-height:1.25;font-family:'Rebeland Outline';-inkscape-font-specification:'Rebeland Outline, Normal';font-variant-ligatures:normal;font-variant-caps:normal;font-variant-numeric:normal;font-variant-east-asian:normal;fill:#000000;fill-opacity:1;stroke:none;stroke-width:0.264583" />
    <g
       aria-label="Services"
       id="text1481"
       style="font-style:normal;font-variant:normal;font-weight:normal;font-stretch:normal;font-size:10.5833px;line-height:1.25;font-family:'Rebeland Outline';-inkscape-font-specification:'Rebeland Outline, Normal';font-variant-ligatures:normal;font-variant-caps:normal;font-variant-numeric:normal;font-variant-east-asian:normal;fill:#000000;fill-opacity:1;stroke:none;stroke-width:0.264583">
      <g
         id="g3391">
        <path
           style="font-style:normal;font-variant:normal;font-weight:normal;font-stretch:normal;font-size:10.5833px;font-family:'Rebeland Outline';-inkscape-font-specification:'Rebeland Outline, Normal';font-variant-ligatures:normal;font-variant-caps:normal;font-variant-numeric:normal;font-variant-east-asian:normal;stroke-width:0.264583"
           d="m -410.73025,122.95077 c -0.22225,-0.30692 -0.49741,-0.52917 -0.79375,-0.762 0.0953,-0.0635 0.17992,-0.14816 0.24342,-0.254 0.11642,-0.1905 0.127,-0.34925 0.0212,-0.56091 -0.29634,-0.59267 -0.80433,-1.91558 -0.889,-2.60349 -0.0212,-0.20109 -0.0423,-0.42334 -0.0212,-0.61384 0.0106,-0.0635 0.0212,-0.22224 -0.10583,-0.35983 -0.0847,-0.0847 -0.1905,-0.127 -0.32808,-0.127 -0.49742,0 -0.70908,0.27517 -0.889,0.68792 -0.0741,-0.0847 -0.15875,-0.16934 -0.254,-0.24342 -0.20108,-0.13758 -0.29633,-0.17991 -0.55033,-0.17991 -0.79375,0.0952 -1.12183,0.70908 -1.143,1.46049 -0.0106,0.23283 0.0317,0.45508 0.0741,0.64558 0.0106,0.0317 0.0212,0.0635 0.0317,0.0952 0.13758,0.61383 0.55033,1.54516 1.00541,2.00025 0,0 0.0106,0.0106 0.0212,0.0318 0.10583,0.14816 0.22225,0.26458 0.3175,0.34924 0.0317,0.0317 0.0635,0.0635 0.0952,0.0952 -0.0423,0.0741 -0.0741,0.15875 -0.0952,0.254 -0.0953,0.37042 -0.0847,0.77258 0.0423,1.23825 0.10583,0.37041 0.45508,1.016 0.91016,1.016 0.127,0 0.24342,-0.0529 0.32809,-0.13759 0.0847,-0.0423 0.17991,-0.0635 0.28574,-0.0635 0.0317,0 0.0635,0 0.10584,0.0106 0.0635,0.0106 0.14816,0.0318 0.23283,0.0635 0.10583,0.0317 0.22225,0.0635 0.34925,0.0847 l 0.0529,0.0106 c 0.13758,0.0318 0.26458,0.0318 0.40216,0.0318 0.59267,-0.0423 0.81491,-0.67734 0.81491,-1.19592 0,-0.37041 -0.0953,-0.67733 -0.28574,-0.93133 z"
           id="path3188" />
        <path
           style="font-style:normal;font-variant:normal;font-weight:normal;font-stretch:normal;font-size:10.5833px;font-family:'Rebeland Outline';-inkscape-font-specification:'Rebeland Outline, Normal';font-variant-ligatures:normal;font-variant-caps:normal;font-variant-numeric:normal;font-variant-east-asian:normal;fill:url(#linearGradient3307);fill-opacity:1;stroke-width:0.264583"
           d="m -411.03716,124.5806 c -0.0635,0.10583 -0.16934,0.13758 -0.27517,0.14816 -0.127,0 -0.254,-0.0106 -0.381,-0.0317 -0.20108,-0.0318 -0.39158,-0.127 -0.59266,-0.14816 -0.0423,0 -0.0847,-0.0106 -0.127,-0.0106 -0.17992,0 -0.34925,0.0423 -0.508,0.127 -0.0317,0.0106 -0.0635,0.0318 -0.0847,0.0529 -0.0212,0.0212 -0.0423,0.0318 -0.0529,0.0318 -0.23284,0 -0.48684,-0.56091 -0.53975,-0.74083 -0.0953,-0.34925 -0.127,-0.6985 -0.0423,-1.02658 0.0212,-0.0847 0.0635,-0.15875 0.127,-0.20108 0.0106,-0.0106 0.0212,-0.0212 0.0317,-0.0212 0.0106,0 0.0318,0.0106 0.0423,0.0212 0.33866,0.26458 0.68791,0.47625 1.02658,0.73024 0.28575,0.22225 0.381,0.33867 0.53975,0.66675 0.0106,0.0212 0.0212,0.0423 0.0423,0.0423 0.0212,0 0.0106,-0.0318 0.0106,-0.0529 0.0212,-0.1905 -0.0529,-0.34925 -0.14816,-0.49742 -0.17992,-0.27516 -0.41275,-0.43391 -0.64559,-0.59266 -0.38099,-0.27517 -0.77258,-0.49742 -1.13241,-0.8255 -0.0953,-0.0847 -0.1905,-0.17991 -0.27516,-0.29633 -0.41275,-0.41275 -0.83608,-1.32291 -0.9525,-1.88383 -0.0423,-0.21166 -0.0952,-0.42333 -0.0847,-0.635 0.0212,-0.53974 0.21167,-1.02658 0.80433,-1.09008 0.10584,0 0.1905,0.0423 0.27517,0.11642 0.17992,0.127 0.30691,0.32808 0.42333,0.53975 0.17992,0.33866 0.35983,0.67733 0.53975,1.016 0.0423,0.0847 0.0952,0.14816 0.14817,0.21166 -0.0423,-0.13758 -0.10584,-0.26458 -0.15875,-0.40216 -0.11642,-0.3175 -0.22225,-0.64559 -0.22225,-0.99483 0,-0.34925 0.22225,-0.78317 0.60324,-0.78317 0.0529,0 0.0529,0.0106 0.0423,0.0741 -0.0212,0.23284 0,0.46567 0.0318,0.6985 0.11641,0.83608 0.53975,1.95791 0.93133,2.74108 0.0423,0.0953 0.0423,0.11641 0,0.1905 -0.0529,0.0741 -0.11642,0.127 -0.1905,0.14816 -0.0529,0.0212 -0.10583,0.0318 -0.15875,0.0423 -0.0847,0 -0.11642,-0.0106 -0.17992,-0.0635 -0.74083,-0.60325 -1.16416,-0.97367 -1.56632,-1.83091 -0.0317,0.0423 -0.0317,0.11641 -0.0106,0.20108 0.15875,0.78316 1.03717,1.53458 1.62983,2.00024 0.22225,0.17992 0.45508,0.33867 0.66675,0.53975 0.32808,0.32808 0.52916,0.59266 0.52916,1.0795 0,0.26458 -0.0741,0.47625 -0.1905,0.66674 z"
           id="path3243" />
        <path
           style="font-style:normal;font-variant:normal;font-weight:normal;font-stretch:normal;font-size:10.5833px;font-family:'Rebeland Outline';-inkscape-font-specification:'Rebeland Outline, Normal';font-variant-ligatures:normal;font-variant-caps:normal;font-variant-numeric:normal;font-variant-east-asian:normal;stroke-width:0.264583"
           d="m -407.85161,121.73368 c -0.13759,-0.15875 -0.26459,-0.32808 -0.381,-0.51858 -0.0106,-0.0212 -0.0212,-0.0423 -0.0318,-0.0635 -0.0529,-0.0847 -0.11642,-0.20108 -0.22225,-0.29633 -0.0953,-0.0952 -0.21167,-0.14817 -0.33867,-0.15875 0.0635,-0.0847 0.11642,-0.17992 0.16934,-0.28575 0.0423,-0.0847 0.0741,-0.22225 0.0212,-0.39158 -0.0529,-0.15875 -0.127,-0.28575 -0.1905,-0.381 -0.29633,-0.48683 -0.4445,-1.03716 -0.58208,-1.58749 -0.0847,-0.30692 -0.26458,-0.381 -0.5715,-0.381 -0.381,0.0318 -0.79374,0.3175 -0.94191,0.66674 -0.0952,-0.0423 -0.30692,-0.0741 -0.40217,-0.0741 -0.70908,0 -1.19591,0.635 -1.19591,1.31233 0,0.66675 0.40217,1.3335 0.89958,1.75683 0.0317,0.0318 0.0635,0.0635 0.0952,0.0952 -0.0106,0.0212 -0.0212,0.0423 -0.0317,0.0635 v 0.0106 c -0.0106,0.0106 -0.0212,0.0212 -0.0212,0.0317 -0.0847,0.22225 -0.12699,0.46567 -0.12699,0.75141 0.0212,0.84667 0.84666,1.22767 1.59807,1.22767 0.42334,0 0.81492,-0.10584 1.17475,-0.33867 0.0106,0 0.0212,0 0.0317,0 0.11642,0.0318 0.23283,0.0423 0.34925,0.0423 0.40216,0 0.77258,-0.16934 0.92075,-0.5715 0.0635,-0.16934 0.127,-0.51858 -0.20109,-0.87842 z"
           id="path3190" />
        <path
           style="font-style:normal;font-variant:normal;font-weight:normal;font-stretch:normal;font-size:10.5833px;font-family:'Rebeland Outline';-inkscape-font-specification:'Rebeland Outline, Normal';font-variant-ligatures:normal;font-variant-caps:normal;font-variant-numeric:normal;font-variant-east-asian:normal;fill:url(#linearGradient3309);fill-opacity:1;stroke-width:0.264583"
           d="m -407.9892,122.51685 c -0.0847,0.254 -0.29633,0.33866 -0.53974,0.33866 -0.17992,0 -0.37042,-0.0529 -0.51859,-0.15875 0.0529,0.0847 -0.0212,0.10584 -0.0635,0.13759 -0.30691,0.21166 -0.61383,0.30691 -0.98424,0.30691 -0.51858,0 -1.2065,-0.24341 -1.2065,-0.85725 0,-0.21166 0.0212,-0.41274 0.0952,-0.61383 0.0106,-0.0212 0.0212,-0.0423 0.0318,-0.0635 0.0212,-0.0741 0.0741,-0.10583 0.14817,-0.10583 0.0529,0 0.11641,0 0.16933,0 0.0317,0 0.0529,0 0.0847,0 0.0106,0 0.0212,0 0.0318,-0.0212 -0.0318,-0.0212 -0.0635,-0.0423 -0.0953,-0.0635 -0.62442,-0.34924 -1.29117,-1.10066 -1.29117,-1.86266 0,-0.45508 0.29634,-0.92074 0.79375,-0.92074 0.35983,0 0.64558,0.254 0.889,0.49741 0,-0.0423 -0.0106,-0.0635 -0.0212,-0.0847 -0.0529,-0.10584 -0.0952,-0.21167 -0.10583,-0.32809 -0.0212,-0.20108 0.0635,-0.35983 0.22225,-0.48683 0.13758,-0.10583 0.28575,-0.1905 0.46566,-0.21166 0.0212,0 0.0423,0 0.0529,0 0.0635,0 0.0847,0.0212 0.10583,0.10583 0.0423,0.16933 0.0741,0.33866 0.11642,0.508 0.11641,0.42333 0.27516,0.82549 0.508,1.19591 0.0635,0.0952 0.11641,0.1905 0.14816,0.29633 0.0106,0.0423 0.0106,0.0741 -0.0106,0.11642 -0.0529,0.127 -0.127,0.23283 -0.23283,0.3175 -0.0317,0.0212 -0.0635,0.0423 -0.0952,0.0423 -0.0317,0 -0.0635,-0.0212 -0.10584,-0.0423 -0.32808,-0.26459 -0.57149,-0.47625 -1.02658,-0.47625 -0.0317,0 -0.0635,0 -0.0952,0 -0.20108,0.0212 -0.29633,0.1905 -0.23283,0.39158 0.0847,0.24342 0.28575,0.34925 0.52917,0.34925 0.0635,0 0.13758,-0.0106 0.21166,-0.0212 0.0317,0 0.0529,0 0.0741,0.0212 0.16933,0.20108 0.27516,0.42333 0.3175,0.67733 0.0106,0.0952 -0.0423,0.16933 -0.13759,0.1905 -0.0847,0.0212 -0.16933,0.0423 -0.254,0.0635 -0.0635,0.0212 -0.127,0.0423 -0.127,0.11642 0,0.0741 0.0529,0.11641 0.11642,0.14816 0.0529,0.0317 0.11642,0.0423 0.17992,0.0423 0.0318,0 0.0529,-0.0106 0.0847,-0.0106 0.0952,-0.0106 0.3175,-0.10583 0.35983,-0.20108 0.0423,-0.0635 0.0423,-0.13758 0.0317,-0.21167 0,-0.0423 0,-0.0847 0,-0.127 0,-0.13758 0.0635,-0.24341 0.16934,-0.32808 0.10583,-0.0741 0.22225,-0.10583 0.34925,-0.11641 0.0635,0 0.10583,0.0106 0.14816,0.0529 0.0847,0.0847 0.13759,0.1905 0.20109,0.29633 0.12699,0.20109 0.26458,0.39159 0.42333,0.5715 0.127,0.13759 0.20108,0.29633 0.127,0.48683 z"
           id="path3247" />
        <path
           style="font-style:normal;font-variant:normal;font-weight:normal;font-stretch:normal;font-size:10.5833px;font-family:'Rebeland Outline';-inkscape-font-specification:'Rebeland Outline, Normal';font-variant-ligatures:normal;font-variant-caps:normal;font-variant-numeric:normal;font-variant-east-asian:normal;stroke-width:0.264583"
           d="m -409.48145,120.4426 c 0.0423,0.62441 0.37042,0.84666 0.86783,1.09008 0.0106,0.0423 0.0212,0.0952 0.0529,0.14816 0.0741,0.127 0.13758,0.26458 0.1905,0.40217 0.13758,0.33866 0.26458,0.68791 0.39158,1.02658 l 0.0847,0.23283 c -0.0318,0.0212 -0.0635,0.0423 -0.0847,0.0635 -0.24342,0.22225 -0.21167,0.51858 -0.20108,0.61383 0.0635,0.5715 0.41275,1.10066 1.03716,1.10066 0.0635,0 0.127,0 0.1905,-0.0106 0.0318,0 0.0635,-0.0106 0.0953,-0.0212 0.13758,-0.0212 0.27517,-0.0423 0.40216,-0.0423 0.0953,0 0.16934,-0.0212 0.23284,-0.0318 h 0.0106 c 0.1905,-0.0423 0.32808,-0.17991 0.37042,-0.35983 0.0317,0.0106 0.0635,0.0212 0.0847,0.0318 l 0.0212,0.0106 c 0.13758,0.0529 0.27517,0.0847 0.41275,0.11642 l 0.0953,0.0318 c 0.0847,0.0212 0.15875,0.0318 0.22225,0.0318 0.0741,0 0.13758,-0.0106 0.20108,-0.0318 0.23283,-0.0635 0.381,-0.254 0.39158,-0.49742 v -0.15875 h 0.0106 c -0.0635,-0.43391 -0.22224,-1.35466 -0.79374,-1.35466 0.17991,-0.30691 0.26458,-0.64558 0.24341,-1.00541 -0.0423,-0.889 -0.69849,-1.50283 -1.49224,-1.79916 l -0.11642,-0.0423 c -0.3175,-0.11641 -0.64558,-0.23283 -0.9525,-0.37041 l -0.12699,-0.0635 c -0.14817,-0.0635 -0.29634,-0.127 -0.45509,-0.17992 -0.13758,-0.0529 -0.23283,-0.0952 -0.30691,-0.14816 -0.0529,-0.0423 -0.127,-0.0953 -0.21167,-0.13759 -0.0741,-0.0318 -0.14816,-0.0529 -0.22225,-0.0529 -0.35983,0 -0.56091,0.381 -0.62441,0.68791 -0.0529,0.254 -0.0423,0.49742 -0.0212,0.71967 z"
           id="path3192" />
        <path
           style="font-style:normal;font-variant:normal;font-weight:normal;font-stretch:normal;font-size:10.5833px;font-family:'Rebeland Outline';-inkscape-font-specification:'Rebeland Outline, Normal';font-variant-ligatures:normal;font-variant-caps:normal;font-variant-numeric:normal;font-variant-east-asian:normal;fill:url(#linearGradient3311);fill-opacity:1;stroke-width:0.264583"
           d="m -409.0687,119.77585 c 0.0106,-0.0952 0.10583,-0.39158 0.23283,-0.39158 0.0212,0 0.0423,0.0106 0.0635,0.0212 0.0529,0.0212 0.10584,0.0529 0.14817,0.0847 0.127,0.0952 0.26458,0.15875 0.41275,0.21166 0.1905,0.0635 0.37041,0.14817 0.55033,0.23284 0.35983,0.15875 0.71966,0.29633 1.0795,0.43391 0.64558,0.254 1.21707,0.74083 1.25941,1.47108 0.0212,0.33867 -0.0741,0.64558 -0.26458,0.92075 -0.0635,0.0952 -0.14817,0.15875 -0.254,0.15875 -0.0318,0 -0.0635,-0.0106 -0.10584,-0.0212 -0.0529,-0.0212 -0.10583,-0.0318 -0.15875,-0.0529 -0.0106,-0.0106 -0.0318,-0.0212 -0.0423,0 -0.0106,0.0106 0,0.0212 0.0106,0.0318 0.21167,0.23284 0.49742,0.33867 0.80433,0.33867 0.0529,0 0.10584,0 0.15875,-0.0106 0.0423,-0.0106 0.0635,0.0106 0.0847,0.0423 0.15875,0.23283 0.26458,0.68791 0.30692,0.97366 v 0.0953 c 0,0.0741 -0.0423,0.127 -0.11642,0.14817 v 0.0106 c -0.0318,0.0106 -0.0529,0.0106 -0.0847,0.0106 -0.0423,0 -0.0953,-0.0106 -0.13758,-0.0212 -0.15875,-0.0423 -0.3175,-0.0741 -0.47625,-0.127 -0.0635,-0.0212 -0.127,-0.0423 -0.17991,-0.0847 -0.0317,-0.0318 -0.0741,-0.0212 -0.10584,-0.0423 -0.23283,-0.11642 -0.508,-0.26458 -0.68791,-0.4445 0.0317,0.0847 0.0847,0.15875 0.13758,0.22225 0.0529,0.0635 0.10583,0.11642 0.15875,0.16933 0.0212,0.0212 0.0317,0.0423 0.0423,0.0635 0.0212,0.0847 0.0423,0.16934 0.0529,0.26459 0.0106,0.0847 -0.0212,0.13758 -0.0952,0.15875 -0.0529,0.0106 -0.10583,0.0212 -0.15875,0.0212 -0.1905,0 -0.37041,0.0423 -0.56091,0.0741 -0.0317,0 -0.0635,0.0106 -0.10584,0.0106 -0.41275,0 -0.64558,-0.39158 -0.66674,-0.77258 -0.0106,-0.11642 0,-0.22225 0.0953,-0.30692 0.0212,-0.0212 0.0529,-0.0423 0.0847,-0.0423 0.0529,-0.0106 0.0953,-0.0423 0.13758,-0.0635 0.0423,-0.0212 0.0423,-0.0529 0.0317,-0.0952 -0.0212,-0.0953 -0.0529,-0.1905 -0.0847,-0.28575 -0.15875,-0.41275 -0.3175,-0.8255 -0.48683,-1.23825 -0.0635,-0.14816 -0.13759,-0.29633 -0.21167,-0.44449 -0.0212,-0.0423 -0.0106,-0.0529 0.0318,-0.0529 0.11642,0 0.22225,0.0212 0.33867,0.0423 -0.0106,-0.0318 -0.0317,-0.0423 -0.0529,-0.0529 -0.11642,-0.0635 -0.24342,-0.10584 -0.37042,-0.15875 -0.14816,-0.0635 -0.29633,-0.11642 -0.43391,-0.20109 -0.24342,-0.14816 -0.381,-0.37041 -0.40217,-0.66674 -0.0106,-0.21167 -0.0212,-0.42334 0.0212,-0.635 z"
           id="path3251" />
        <path
           style="font-style:normal;font-variant:normal;font-weight:normal;font-stretch:normal;font-size:10.5833px;font-family:'Rebeland Outline';-inkscape-font-specification:'Rebeland Outline, Normal';font-variant-ligatures:normal;font-variant-caps:normal;font-variant-numeric:normal;font-variant-east-asian:normal;fill:#000000;fill-opacity:1;stroke-width:0.264583"
           d="m -407.14254,121.63851 c -0.0106,0 -0.0212,-0.0106 -0.0317,-0.0212 v 0.0212 c 0.0106,0 0.0212,0 0.0317,0 0.0635,0.0635 0.127,0.11642 0.17992,0.17991 0.0318,0.0317 0.0529,0.0741 0.0635,0.127 l 0.127,0.508 c 0.0106,0.0212 0.0212,0.0423 0.0529,0.0423 0.0529,0 0.0952,-0.0212 0.127,-0.0741 0.0212,-0.0318 0.0317,-0.0635 0.0529,-0.0952 0.0847,-0.14816 0.0635,-0.32808 -0.0529,-0.4445 -0.14816,-0.14816 -0.33866,-0.21166 -0.55033,-0.24341 z"
           id="path3253" />
        <path
           style="font-style:normal;font-variant:normal;font-weight:normal;font-stretch:normal;font-size:10.5833px;font-family:'Rebeland Outline';-inkscape-font-specification:'Rebeland Outline, Normal';font-variant-ligatures:normal;font-variant-caps:normal;font-variant-numeric:normal;font-variant-east-asian:normal;stroke-width:0.264583"
           d="m -407.14256,119.20424 c 0.0212,0.26459 0.22225,0.39159 0.40216,0.40217 0.40217,0 1.25942,1.651 1.42875,2.00024 -0.127,0.127 -0.1905,0.3175 -0.1905,0.49742 0,0.66675 0.40217,1.43933 1.15358,1.43933 0.0741,0 0.14817,-0.0106 0.22225,-0.0212 0.16933,-0.0318 0.34925,-0.0423 0.55033,-0.0423 0.10583,0 0.22225,0 0.33867,0.0106 0.0529,0 0.0953,0.0106 0.14816,0.0106 0.381,0 0.73025,-0.14816 0.74083,-0.59266 0.0106,-0.48683 -0.1905,-0.87841 -0.41275,-1.22766 v 0.0212 c -0.0529,-0.0847 -0.127,-0.14816 -0.21166,-0.1905 l -0.0317,-0.0953 c -0.0529,-0.23283 -0.0635,-0.47624 -0.0635,-0.70908 0,-0.42333 0.0317,-1.34408 0.23283,-1.65099 0.0952,-0.14817 0.0952,-0.33867 -0.0106,-0.48683 -0.29633,-0.43392 -0.67733,-0.89958 -1.24883,-0.89958 -0.46567,0 -0.68792,0.39158 -0.77258,0.80433 -0.26458,-0.43392 -0.5715,-0.77258 -1.11125,-0.77258 -0.55033,0 -0.889,0.49741 -1.06891,0.96308 -0.0529,0.14816 -0.10583,0.32808 -0.0953,0.53974 z"
           id="path3194" />
        <path
           style="font-style:normal;font-variant:normal;font-weight:normal;font-stretch:normal;font-size:10.5833px;font-family:'Rebeland Outline';-inkscape-font-specification:'Rebeland Outline, Normal';font-variant-ligatures:normal;font-variant-caps:normal;font-variant-numeric:normal;font-variant-east-asian:normal;fill:url(#linearGradient3313);fill-opacity:1;stroke-width:0.264583"
           d="m -406.65573,118.77033 c 0.10583,-0.3175 0.34925,-0.70908 0.73025,-0.70908 0.0741,0 0.15875,0.0106 0.23283,0.0423 0.508,0.1905 0.93133,1.29116 1.11125,1.75683 0.16933,0.41275 0.34925,0.8255 0.49741,1.24883 l 0.0317,0.0635 c 0.0106,-0.0635 -0.0106,-0.11642 -0.0212,-0.16933 -0.0635,-0.29634 -0.11642,-0.59267 -0.17992,-0.889 -0.0529,-0.26458 -0.11642,-0.52917 -0.15875,-0.79375 -0.0423,-0.26458 -0.0741,-0.52916 -0.0318,-0.79375 0.0423,-0.20108 0.127,-0.49741 0.381,-0.49741 0.0317,0 0.0635,0 0.10583,0.0106 0.39158,0.0529 0.64558,0.41275 0.84667,0.71967 0.0106,0.0212 0.0212,0.0423 0,0.0635 -0.27517,0.41274 -0.3175,1.38641 -0.3175,1.86266 0,0.43391 0.0317,0.91016 0.27516,1.28058 0,0.0106 0,0.0212 0,0.0318 v -0.0318 c 0,-0.0423 0,-0.0847 -0.0106,-0.13759 0.0423,0.0106 0.0635,0.0423 0.0847,0.0741 0.19049,0.30691 0.34924,0.62441 0.33866,1.00541 0,0.127 -0.0529,0.1905 -0.16933,0.21167 v -0.0212 c -0.0952,0 -0.1905,0 -0.28575,0 -0.11642,-0.0106 -0.24342,-0.0106 -0.35983,-0.0106 -0.21167,0 -0.41275,0.0106 -0.62442,0.0529 -0.0529,0.0106 -0.0953,0.0106 -0.14816,0.0106 -0.53975,0 -0.78317,-0.5715 -0.78317,-1.04775 0,-0.0635 0.0106,-0.11642 0.0317,-0.16933 0.0212,-0.0423 0.0529,-0.0635 0.0953,-0.0741 0.0952,-0.0106 0.17992,-0.0212 0.27517,-0.0212 0.0635,0 0.11641,0 0.17991,0.0106 -0.0212,-0.0423 -0.0635,-0.0635 -0.0953,-0.0847 -0.10583,-0.0317 -0.20108,-0.0847 -0.24341,-0.1905 -0.254,-0.56091 -1.13242,-2.32832 -1.82033,-2.36007 -0.0317,0 -0.0317,-0.0212 -0.0317,-0.0529 -0.0106,-0.13758 0.0212,-0.26458 0.0635,-0.39158 z"
           id="path3257" />
        <path
           style="font-style:normal;font-variant:normal;font-weight:normal;font-stretch:normal;font-size:10.5833px;font-family:'Rebeland Outline';-inkscape-font-specification:'Rebeland Outline, Normal';font-variant-ligatures:normal;font-variant-caps:normal;font-variant-numeric:normal;font-variant-east-asian:normal;stroke-width:0.264583"
           d="m -398.9723,121.08812 c 0.0529,-0.0741 0.0847,-0.14816 0.11642,-0.22225 0.0741,-0.17991 0.0423,-0.37041 -0.0847,-0.508 0,0 0,-0.0106 -0.0106,-0.0318 -0.27516,-0.47624 -0.4445,-1.23824 -0.52916,-1.76741 l -0.0106,-0.0423 c -0.0741,-0.49742 -0.20108,-0.84666 -0.77258,-0.84666 -0.32808,0 -0.762,0.0847 -0.92075,0.40216 -0.0635,-0.0212 -0.12699,-0.0212 -0.19049,-0.0212 -0.98425,0 -1.29117,1.29117 -1.29117,2.0955 0,0.11641 0.0106,0.23283 0.0212,0.34925 v 0.0423 c 0.127,1.22766 0.94191,2.88924 2.37066,2.88924 0.93133,0 1.52399,-0.508 1.52399,-1.46049 0,-0.14817 0,-0.28575 0.0318,-0.40217 0.0529,-0.21167 -0.0318,-0.41275 -0.22225,-0.51858 z"
           id="path3198" />
        <path
           style="font-style:normal;font-variant:normal;font-weight:normal;font-stretch:normal;font-size:10.5833px;font-family:'Rebeland Outline';-inkscape-font-specification:'Rebeland Outline, Normal';font-variant-ligatures:normal;font-variant-caps:normal;font-variant-numeric:normal;font-variant-east-asian:normal;fill:url(#linearGradient3319);fill-opacity:1;stroke-width:0.264583"
           d="m -399.07813,121.45854 c -0.0529,0.20108 -0.0529,0.40216 -0.0635,0.60325 0,0.68791 -0.53975,1.00541 -1.16416,1.00541 -0.94192,0 -1.66158,-1.15358 -1.87325,-1.98966 -0.0741,-0.29633 -0.11641,-0.635 -0.11641,-0.94192 0,-0.58208 0.13758,-1.42874 0.762,-1.67216 0.0635,-0.0212 0.127,-0.0423 0.17991,-0.0423 0.16933,0 0.3175,0.11642 0.40217,0.27517 0.0318,0.0635 0.0635,0.127 0.0953,0.1905 -0.0106,-0.0741 -0.0212,-0.14817 -0.0317,-0.22225 -0.0106,-0.11642 0,-0.23284 0.0212,-0.34925 0.0212,-0.0847 0.0741,-0.14817 0.15875,-0.17992 0.16934,-0.0529 0.32809,-0.0741 0.49742,-0.0741 0.11641,0 0.20108,0.0529 0.254,0.15875 0.0635,0.127 0.0847,0.26458 0.10583,0.40216 0.0953,0.635 0.26458,1.31233 0.58208,1.87325 0.0212,0.0318 0.0423,0.0635 0.0635,0.0953 0.0318,0.0317 0.0423,0.0635 0.0318,0.10583 -0.0529,0.127 -0.11641,0.254 -0.24341,0.33867 -0.127,0.12699 -0.27517,0.19049 -0.45509,0.19049 -0.0635,0 -0.127,-0.0106 -0.1905,-0.0212 -0.31749,-0.0635 -0.48683,-0.16933 -0.62441,-0.47625 -0.0741,-0.16933 -0.127,-0.34925 -0.17992,-0.52917 0,-0.0106 0,-0.0318 -0.0212,-0.0318 -0.0212,0 -0.0212,0.0212 -0.0317,0.0318 -0.0318,0.0635 -0.0423,0.127 -0.0529,0.1905 -0.0847,0.35984 0,0.6985 0.13758,1.03717 0.0529,0.127 0.127,0.23283 0.23284,0.32808 0.0317,0.0212 0.0635,0.0423 0.0952,0.0635 0.0529,0.0317 0.0953,0.0423 0.127,0.0423 0.0741,0 0.127,-0.0423 0.15874,-0.14816 0.0741,-0.21167 0.43392,-0.42334 0.65617,-0.42334 0.0212,0 0.0529,0.0106 0.0741,0.0106 0.11642,0.0212 0.23284,0.0529 0.33867,0.10583 0.0317,0.0212 0.0529,0.0423 0.0423,0.0847 z"
           id="path3267" />
        <path
           style="font-style:normal;font-variant:normal;font-weight:normal;font-stretch:normal;font-size:10.5833px;font-family:'Rebeland Outline';-inkscape-font-specification:'Rebeland Outline, Normal';font-variant-ligatures:normal;font-variant-caps:normal;font-variant-numeric:normal;font-variant-east-asian:normal;stroke-width:0.264583"
           d="m -400.3071,124.09224 c -0.0953,-0.28575 -0.30691,-0.86783 -0.60324,-0.99483 -0.0212,-0.0952 -0.0423,-0.1905 -0.0741,-0.28575 -0.127,-0.40216 -0.254,-0.80433 -0.381,-1.20649 -0.0741,-0.23284 -0.14816,-0.46567 -0.22224,-0.6985 -0.0529,-0.15875 -0.16934,-0.26459 -0.30692,-0.29634 0.0635,-0.10583 0.0741,-0.23283 0.0423,-0.37041 -0.11641,-0.47625 -0.48683,-1.21708 -1.06891,-1.21708 0,0 -0.0106,0 -0.0212,0 -0.381,0.0318 -0.67733,0.15875 -0.96308,0.40217 -0.127,0.127 -0.21166,0.23283 -0.21166,0.43391 -0.0106,0.17992 0.0423,0.32808 0.0847,0.42333 0.0741,0.15875 0.16934,0.29634 0.254,0.42333 l 0.0423,0.0529 c 0.0953,0.127 0.23283,0.21167 0.38099,0.23283 -0.0529,0.127 -0.0423,0.26459 0.0317,0.40217 0.14817,0.26458 0.28575,0.53975 0.42334,0.81491 0.0953,0.21167 0.1905,0.43392 0.30691,0.64558 0.0529,0.0953 0.0953,0.20109 0.13758,0.3175 -0.0635,0.0529 -0.11641,0.11642 -0.14816,0.20109 -0.0212,0.0423 -0.0423,0.0952 -0.0529,0.14816 -0.0635,0.32808 0.0423,0.60325 0.127,0.78317 0.15875,0.33866 0.43392,0.48683 0.79375,0.48683 0.0847,0 0.15875,-0.0106 0.22225,-0.0212 h 0.0106 c 0.3175,-0.0423 0.60325,-0.0741 0.889,-0.0741 0.11642,0 0.22225,-0.0423 0.29633,-0.127 0.0423,-0.0423 0.11642,-0.14817 0.11642,-0.30692 0,-0.0952 -0.0212,-0.17991 -0.0423,-0.24341 z"
           id="path3196" />
        <path
           style="font-style:normal;font-variant:normal;font-weight:normal;font-stretch:normal;font-size:10.5833px;font-family:'Rebeland Outline';-inkscape-font-specification:'Rebeland Outline, Normal';font-variant-ligatures:normal;font-variant-caps:normal;font-variant-numeric:normal;font-variant-east-asian:normal;fill:url(#linearGradient3315);fill-opacity:1;stroke-width:0.264583"
           d="m -403.19634,120.57859 c -0.0212,0.0106 -0.0423,0.0106 -0.0635,0.0106 -0.0635,0 -0.11641,-0.0318 -0.15875,-0.0847 -0.0953,-0.13758 -0.19049,-0.27516 -0.26458,-0.42333 -0.0423,-0.0847 -0.0635,-0.16933 -0.0635,-0.26458 0,-0.127 0.21167,-0.28575 0.30692,-0.33867 0.16933,-0.0847 0.34925,-0.127 0.52916,-0.14816 0.37042,0 0.64558,0.57149 0.73025,0.89958 0.0212,0.0847 0,0.11641 -0.0847,0.127 -0.31749,0.0423 -0.63499,0.0847 -0.94191,0.17991 z"
           id="path3261" />
        <path
           style="font-style:normal;font-variant:normal;font-weight:normal;font-stretch:normal;font-size:10.5833px;font-family:'Rebeland Outline';-inkscape-font-specification:'Rebeland Outline, Normal';font-variant-ligatures:normal;font-variant-caps:normal;font-variant-numeric:normal;font-variant-east-asian:normal;fill:url(#linearGradient3317);fill-opacity:1;stroke-width:0.264583"
           d="m -400.62459,124.27216 c -0.3175,0 -0.62442,0.0318 -0.93133,0.0741 -0.0635,0.0106 -0.127,0.0106 -0.17992,0.0106 -0.20108,0 -0.381,-0.0741 -0.46567,-0.26458 -0.0847,-0.17992 -0.13758,-0.37041 -0.10583,-0.5715 0,-0.0212 0.0106,-0.0423 0.0212,-0.0635 0.0106,-0.0318 0.0317,-0.0529 0.0635,-0.0529 0.0317,0 0.0635,0.0106 0.0847,0.0423 0.0212,0.0423 0.127,0.254 0.16934,0.26458 -0.0317,-0.13758 -0.0317,-0.28575 -0.0741,-0.42333 -0.0847,-0.23283 -0.14816,-0.47625 -0.26458,-0.68791 -0.15875,-0.28575 -0.27516,-0.59267 -0.41275,-0.889 -0.0952,-0.20108 -0.20108,-0.39158 -0.30691,-0.58208 -0.0423,-0.0741 -0.0317,-0.10584 0.0529,-0.127 0.17992,-0.0529 0.35984,-0.0741 0.53975,-0.0953 0.14817,-0.0212 0.29633,-0.0317 0.4445,-0.0529 0.0423,0 0.0635,0.0212 0.0741,0.0529 0.20109,0.635 0.41275,1.25941 0.61383,1.89441 0.0423,0.13758 0.0741,0.28575 0.11642,0.43391 0.0106,0.0423 0.0212,0.0635 0.0741,0.0741 0.0847,0.0106 0.16934,0.0423 0.21167,0.127 0.10583,0.22225 0.21167,0.44449 0.29633,0.67733 0.0106,0.0423 0.0212,0.0847 0.0212,0.127 0,0.0318 -0.0106,0.0529 -0.0423,0.0529 z"
           id="path3263" />
        <path
           style="font-style:normal;font-variant:normal;font-weight:normal;font-stretch:normal;font-size:10.5833px;font-family:'Rebeland Outline';-inkscape-font-specification:'Rebeland Outline, Normal';font-variant-ligatures:normal;font-variant-caps:normal;font-variant-numeric:normal;font-variant-east-asian:normal;stroke-width:0.264583"
           d="m -395.2999,121.73368 c -0.13758,-0.15875 -0.26458,-0.32808 -0.38099,-0.51858 -0.0106,-0.0212 -0.0212,-0.0423 -0.0317,-0.0635 -0.0529,-0.0847 -0.11642,-0.20108 -0.22225,-0.29633 -0.0953,-0.0952 -0.21167,-0.14817 -0.33867,-0.15875 0.0635,-0.0847 0.11642,-0.17992 0.16933,-0.28575 0.0423,-0.0847 0.0741,-0.22225 0.0212,-0.39158 -0.0529,-0.15875 -0.127,-0.28575 -0.1905,-0.381 -0.29633,-0.48683 -0.4445,-1.03716 -0.58208,-1.58749 -0.0847,-0.30692 -0.26458,-0.381 -0.5715,-0.381 -0.381,0.0318 -0.79375,0.3175 -0.94191,0.66674 -0.0952,-0.0423 -0.30692,-0.0741 -0.40217,-0.0741 -0.70908,0 -1.19591,0.635 -1.19591,1.31233 0,0.66675 0.40216,1.3335 0.89958,1.75683 0.0317,0.0318 0.0635,0.0635 0.0952,0.0952 -0.0106,0.0212 -0.0212,0.0423 -0.0317,0.0635 v 0.0106 c -0.0106,0.0106 -0.0212,0.0212 -0.0212,0.0317 -0.0847,0.22225 -0.127,0.46567 -0.127,0.75141 0.0212,0.84667 0.84667,1.22767 1.59808,1.22767 0.42333,0 0.81492,-0.10584 1.17475,-0.33867 0.0106,0 0.0212,0 0.0317,0 0.11641,0.0318 0.23283,0.0423 0.34925,0.0423 0.40216,0 0.77258,-0.16934 0.92074,-0.5715 0.0635,-0.16934 0.127,-0.51858 -0.20108,-0.87842 z"
           id="path3200" />
        <path
           style="font-style:normal;font-variant:normal;font-weight:normal;font-stretch:normal;font-size:10.5833px;font-family:'Rebeland Outline';-inkscape-font-specification:'Rebeland Outline, Normal';font-variant-ligatures:normal;font-variant-caps:normal;font-variant-numeric:normal;font-variant-east-asian:normal;fill:url(#linearGradient3321);fill-opacity:1;stroke-width:0.264583"
           d="m -395.43748,122.51685 c -0.0847,0.254 -0.29633,0.33866 -0.53975,0.33866 -0.17991,0 -0.37041,-0.0529 -0.51858,-0.15875 0.0529,0.0847 -0.0212,0.10584 -0.0635,0.13759 -0.30691,0.21166 -0.61383,0.30691 -0.98425,0.30691 -0.51858,0 -1.20649,-0.24341 -1.20649,-0.85725 0,-0.21166 0.0212,-0.41274 0.0953,-0.61383 0.0106,-0.0212 0.0212,-0.0423 0.0317,-0.0635 0.0212,-0.0741 0.0741,-0.10583 0.14816,-0.10583 0.0529,0 0.11642,0 0.16934,0 0.0317,0 0.0529,0 0.0847,0 0.0106,0 0.0212,0 0.0317,-0.0212 -0.0317,-0.0212 -0.0635,-0.0423 -0.0952,-0.0635 -0.62441,-0.34924 -1.29116,-1.10066 -1.29116,-1.86266 0,-0.45508 0.29633,-0.92074 0.79375,-0.92074 0.35983,0 0.64558,0.254 0.889,0.49741 0,-0.0423 -0.0106,-0.0635 -0.0212,-0.0847 -0.0529,-0.10584 -0.0952,-0.21167 -0.10583,-0.32809 -0.0212,-0.20108 0.0635,-0.35983 0.22225,-0.48683 0.13758,-0.10583 0.28574,-0.1905 0.46566,-0.21166 0.0212,0 0.0423,0 0.0529,0 0.0635,0 0.0847,0.0212 0.10583,0.10583 0.0423,0.16933 0.0741,0.33866 0.11642,0.508 0.11641,0.42333 0.27516,0.82549 0.50799,1.19591 0.0635,0.0952 0.11642,0.1905 0.14817,0.29633 0.0106,0.0423 0.0106,0.0741 -0.0106,0.11642 -0.0529,0.127 -0.127,0.23283 -0.23284,0.3175 -0.0317,0.0212 -0.0635,0.0423 -0.0952,0.0423 -0.0317,0 -0.0635,-0.0212 -0.10584,-0.0423 -0.32808,-0.26459 -0.5715,-0.47625 -1.02658,-0.47625 -0.0317,0 -0.0635,0 -0.0952,0 -0.20108,0.0212 -0.29633,0.1905 -0.23283,0.39158 0.0847,0.24342 0.28575,0.34925 0.52916,0.34925 0.0635,0 0.13759,-0.0106 0.21167,-0.0212 0.0317,0 0.0529,0 0.0741,0.0212 0.16934,0.20108 0.27517,0.42333 0.3175,0.67733 0.0106,0.0952 -0.0423,0.16933 -0.13758,0.1905 -0.0847,0.0212 -0.16933,0.0423 -0.254,0.0635 -0.0635,0.0212 -0.127,0.0423 -0.127,0.11642 0,0.0741 0.0529,0.11641 0.11642,0.14816 0.0529,0.0317 0.11641,0.0423 0.17991,0.0423 0.0317,0 0.0529,-0.0106 0.0847,-0.0106 0.0952,-0.0106 0.3175,-0.10583 0.35983,-0.20108 0.0423,-0.0635 0.0423,-0.13758 0.0317,-0.21167 0,-0.0423 0,-0.0847 0,-0.127 0,-0.13758 0.0635,-0.24341 0.16933,-0.32808 0.10584,-0.0741 0.22225,-0.10583 0.34925,-0.11641 0.0635,0 0.10584,0.0106 0.14817,0.0529 0.0847,0.0847 0.13758,0.1905 0.20108,0.29633 0.127,0.20109 0.26459,0.39159 0.42333,0.5715 0.127,0.13759 0.20109,0.29633 0.127,0.48683 z"
           id="path3271" />
        <path
           style="font-style:normal;font-variant:normal;font-weight:normal;font-stretch:normal;font-size:10.5833px;font-family:'Rebeland Outline';-inkscape-font-specification:'Rebeland Outline, Normal';font-variant-ligatures:normal;font-variant-caps:normal;font-variant-numeric:normal;font-variant-east-asian:normal;stroke-width:0.264583"
           d="m -392.65408,121.8501 c -0.11642,-0.13758 -0.23284,-0.254 -0.34925,-0.34925 -0.0741,-0.0529 -0.14817,-0.10583 -0.22225,-0.15874 0.0423,-0.0318 0.0847,-0.0741 0.127,-0.11642 0.16933,-0.17992 0.20108,-0.37042 0.0953,-0.59267 -0.23283,-0.47624 -0.59267,-1.43932 -0.59267,-1.97907 0,-0.15875 0,-0.30692 0.0317,-0.4445 0.0423,-0.14817 0.0212,-0.27517 -0.0635,-0.381 -0.0847,-0.10583 -0.20108,-0.15875 -0.34925,-0.15875 -0.42333,0 -0.75141,0.24342 -0.95249,0.60325 -0.0741,-0.0847 -0.16933,-0.16933 -0.28575,-0.23283 -0.16933,-0.10584 -0.29633,-0.13759 -0.49742,-0.13759 -0.69849,0.0635 -1.15358,0.47625 -1.29116,1.16417 -0.0317,0.20108 -0.0106,0.38099 0.0106,0.53974 0,0.0212 0,0.0423 0,0.0635 0.0635,0.51859 0.42334,1.30175 0.83609,1.651 0.0952,0.11641 0.20108,0.21166 0.28574,0.27516 -0.0212,0.0318 -0.0423,0.0635 -0.0635,0.10584 -0.15875,0.3175 -0.1905,0.66675 -0.10583,1.05833 0.0847,0.35983 0.43392,0.86783 0.84667,0.86783 0.12699,0 0.22224,-0.0529 0.27516,-0.0952 0.16933,-0.0529 0.3175,-0.0635 0.48683,-0.0635 0.0741,0.0106 0.15875,0.0318 0.254,0.0529 0.0953,0.0212 0.20108,0.0529 0.3175,0.0635 l 0.0529,0.0106 c 0.0847,0.0106 0.17991,0.0106 0.27516,0.0106 0.0423,0 0.0847,0 0.127,0 0.508,-0.0635 0.8255,-0.46566 0.89958,-0.96308 0.0529,-0.32808 -0.0212,-0.61383 -0.22225,-0.84666 z"
           id="path3202" />
        <path
           style="font-style:normal;font-variant:normal;font-weight:normal;font-stretch:normal;font-size:10.5833px;font-family:'Rebeland Outline';-inkscape-font-specification:'Rebeland Outline, Normal';font-variant-ligatures:normal;font-variant-caps:normal;font-variant-numeric:normal;font-variant-east-asian:normal;fill:url(#linearGradient3323);fill-opacity:1;stroke-width:0.264583"
           d="m -392.87633,122.58035 c -0.0423,0.30692 -0.22225,0.61383 -0.55033,0.64558 -0.127,0 -0.254,-0.0106 -0.381,-0.0212 -0.20109,-0.0212 -0.39158,-0.0953 -0.59267,-0.11642 -0.0529,0 -0.10583,-0.0106 -0.15875,-0.0106 -0.10583,0 -0.49741,0.0423 -0.58208,0.127 -0.0212,0.0212 -0.0423,0.0318 -0.0741,0.0318 -0.0212,0 -0.0423,-0.0106 -0.0741,-0.0318 -0.21167,-0.127 -0.33867,-0.3175 -0.39159,-0.56092 -0.0635,-0.27516 -0.0635,-0.55033 0.0635,-0.80433 0.0317,-0.0635 0.0741,-0.11642 0.14817,-0.14817 0.0106,0 0.0212,-0.0106 0.0317,-0.0106 0.0212,0 0.0317,0.0106 0.0529,0.0212 0.30691,0.20108 0.64558,0.35983 0.96308,0.56091 0.24341,0.14817 0.37041,0.26458 0.47624,0.51858 0.0106,0.0212 0.0212,0.0423 0.0423,0.0423 0.0212,0 0.0212,-0.0212 0.0212,-0.0318 0,-0.0106 0,-0.0212 0,-0.0318 l -0.0529,0.0212 c 0,0 0,0 0,0 l 0.0529,-0.0212 c 0.0317,-0.13759 -0.0212,-0.254 -0.0953,-0.35983 -0.14816,-0.21167 -0.37041,-0.32809 -0.58208,-0.45509 -0.35983,-0.21166 -0.74083,-0.39158 -1.06891,-0.64558 -0.0847,-0.0741 -0.16933,-0.14816 -0.24342,-0.23283 -0.0212,-0.0212 -0.0423,-0.0423 -0.0635,-0.0635 -0.33866,-0.29633 -0.64558,-0.96308 -0.70908,-1.40758 -0.0212,-0.16933 -0.0529,-0.33866 -0.0212,-0.508 0.0953,-0.508 0.41275,-0.83608 0.94191,-0.86783 0.29633,0 0.51858,0.27517 0.65616,0.51858 0.14817,0.26459 0.29634,0.52917 0.4445,0.79375 0.0317,0.0635 0.0847,0.11642 0.13759,0.16933 -0.0317,-0.10583 -0.0847,-0.20108 -0.11642,-0.30691 -0.0847,-0.254 -0.14817,-0.508 -0.10583,-0.78317 0.0423,-0.33866 0.34925,-0.60324 0.68791,-0.60324 0.0529,0 0.0529,0 0.0423,0.0529 -0.0423,0.17992 -0.0423,0.35983 -0.0423,0.53975 0.0106,0.62442 0.35983,1.55575 0.65617,2.14841 0.0423,0.0741 0.0423,0.0953 -0.0106,0.15875 -0.0635,0.0635 -0.13758,0.10583 -0.22225,0.127 -0.0529,0.0106 -0.10583,0.0212 -0.15875,0.0317 -0.0635,0 -0.11641,0 -0.16933,-0.0423 -0.1905,-0.13759 -0.381,-0.26459 -0.56091,-0.41275 -0.40217,-0.33867 -0.58209,-0.55033 -0.80433,-1.016 -0.0317,0.0317 -0.0423,0.0847 -0.0317,0.14817 0.0847,0.66674 0.92074,1.23824 1.43932,1.56633 0.21167,0.13758 0.43392,0.26458 0.635,0.42333 0.10584,0.0847 0.20109,0.1905 0.29633,0.29633 0.13759,0.15875 0.16934,0.33867 0.13759,0.53975 z"
           id="path3275" />
      </g>
    </g>
  </g>
</svg>
