<?xml version="1.0" encoding="UTF-8" standalone="no"?>
<svg
   xmlns:dc="http://purl.org/dc/elements/1.1/"
   xmlns:cc="http://creativecommons.org/ns#"
   xmlns:rdf="http://www.w3.org/1999/02/22-rdf-syntax-ns#"
   xmlns:svg="http://www.w3.org/2000/svg"
   xmlns="http://www.w3.org/2000/svg"
   xmlns:xlink="http://www.w3.org/1999/xlink"
   xmlns:sodipodi="http://sodipodi.sourceforge.net/DTD/sodipodi-0.dtd"
   xmlns:inkscape="http://www.inkscape.org/namespaces/inkscape"
   width="15.002621mm"
   height="7.7471147mm"
   viewBox="0 0 15.002621 7.7471147"
   version="1.1"
   id="svg1665"
   inkscape:version="1.0.2 (1.0.2+r75+1)"
   sodipodi:docname="story.svg">
  <defs
     id="defs1659">
    <linearGradient
       inkscape:collect="always"
       xlink:href="#linearGradient1581"
       id="linearGradient1559"
       x1="-402.65207"
       y1="64.978027"
       x2="-402.64526"
       y2="72.042839"
       gradientUnits="userSpaceOnUse" />
    <linearGradient
       inkscape:collect="always"
       id="linearGradient1581">
      <stop
         style="stop-color:#00ff93;stop-opacity:1;"
         offset="0"
         id="stop1577" />
      <stop
         style="stop-color:#ebff00;stop-opacity:1"
         offset="1"
         id="stop1579" />
    </linearGradient>
    <linearGradient
       inkscape:collect="always"
       xlink:href="#linearGradient1581"
       id="linearGradient1555"
       x1="-1521.8346"
       y1="245.58624"
       x2="-1521.809"
       y2="272.2879"
       gradientUnits="userSpaceOnUse" />
    <linearGradient
       inkscape:collect="always"
       xlink:href="#linearGradient1581"
       id="linearGradient2291"
       gradientUnits="userSpaceOnUse"
       x1="-402.65207"
       y1="64.978027"
       x2="-402.64526"
       y2="72.042839" />
    <linearGradient
       inkscape:collect="always"
       xlink:href="#linearGradient1581"
       id="linearGradient2293"
       gradientUnits="userSpaceOnUse"
       x1="-402.65207"
       y1="64.978027"
       x2="-402.64526"
       y2="72.042839" />
    <linearGradient
       inkscape:collect="always"
       xlink:href="#linearGradient1581"
       id="linearGradient2295"
       gradientUnits="userSpaceOnUse"
       x1="-402.65207"
       y1="64.978027"
       x2="-402.64526"
       y2="72.042839" />
  </defs>
  <sodipodi:namedview
     id="base"
     pagecolor="#ffffff"
     bordercolor="#666666"
     borderopacity="1.0"
     inkscape:pageopacity="0.0"
     inkscape:pageshadow="2"
     inkscape:zoom="5.6"
     inkscape:cx="9.8234468"
     inkscape:cy="41.986442"
     inkscape:document-units="mm"
     inkscape:current-layer="layer1"
     inkscape:document-rotation="0"
     showgrid="false"
     fit-margin-top="0"
     fit-margin-left="0"
     fit-margin-right="0"
     fit-margin-bottom="0"
     inkscape:showpageshadow="false"
     inkscape:pagecheckerboard="true"
     inkscape:window-width="1920"
     inkscape:window-height="1010"
     inkscape:window-x="1440"
     inkscape:window-y="0"
     inkscape:window-maximized="1" />
  <metadata
     id="metadata1662">
    <rdf:RDF>
      <cc:Work
         rdf:about="">
        <dc:format>image/svg+xml</dc:format>
        <dc:type
           rdf:resource="http://purl.org/dc/dcmitype/StillImage" />
        <dc:title></dc:title>
      </cc:Work>
    </rdf:RDF>
  </metadata>
  <g
     inkscape:label="Layer 1"
     inkscape:groupmode="layer"
     id="layer1"
     transform="translate(130.72155,29.575939)">
    <g
       id="g1611"
       style="font-style:normal;font-variant:normal;font-weight:normal;font-stretch:normal;font-size:10.5833px;line-height:1.25;font-family:'Rebeland Outline';-inkscape-font-specification:'Rebeland Outline, Normal';font-variant-ligatures:normal;font-variant-caps:normal;font-variant-numeric:normal;font-variant-east-asian:normal;fill:#000000;fill-opacity:1;stroke:none;stroke-width:0.264583"
       transform="translate(280.11392,-93.153969)">
      <path
         style="font-style:normal;font-variant:normal;font-weight:normal;font-stretch:normal;font-size:10.5833px;font-family:'Rebeland Outline';-inkscape-font-specification:'Rebeland Outline, Normal';font-variant-ligatures:normal;font-variant-caps:normal;font-variant-numeric:normal;font-variant-east-asian:normal;stroke-width:0.999999"
         d="m -1542.0371,240.29492 c -1.88,0 -2.6813,1.03962 -3.3613,2.59961 -0.2801,-0.32001 -0.599,-0.63992 -0.959,-0.91992 -0.76,-0.52 -1.1201,-0.67969 -2.0801,-0.67969 -3,0.36 -4.2403,2.67954 -4.3203,5.51953 -0.04,0.88 0.121,1.72141 0.2812,2.44141 0.04,0.12 0.08,0.23937 0.1192,0.35937 0.52,2.32 2.0788,5.84056 3.7988,7.56055 0,0 0.04,0.0391 0.08,0.11914 0.4,0.56 0.8412,1.00032 1.2012,1.32031 0.1201,0.12 0.2391,0.23938 0.3593,0.35938 -0.1598,0.27999 -0.2792,0.60094 -0.3593,0.96094 -0.3599,1.39999 -0.3199,2.91969 0.1601,4.67968 0.4,1.4 1.7195,3.83985 3.4395,3.83985 0.48,0 0.9202,-0.19955 1.2402,-0.51953 0.3201,-0.15999 0.6801,-0.24024 1.0801,-0.24024 0.1198,0 0.2403,-9.2e-4 0.4004,0.0391 0.24,0.04 0.5589,0.12023 0.8789,0.24023 0.4,0.12 0.8403,0.2403 1.3203,0.32031 l 0.1992,0.041 c 0.52,0.12 1.0015,0.11914 1.5215,0.11914 2.24,-0.15999 3.0801,-2.55954 3.0801,-4.51953 0,-1.4 -0.3603,-2.55954 -1.0801,-3.51953 l 0.08,-0.16016 c -0.84,-1.15999 -1.88,-2.00087 -3,-2.88086 0.3602,-0.24 0.6799,-0.55899 0.9199,-0.95898 0.44,-0.72 0.4799,-1.3211 0.08,-2.1211 -1.1201,-2.23999 -3.0414,-7.23985 -3.3614,-9.83984 -0.08,-0.76 -0.1598,-1.60032 -0.08,-2.32031 0.04,-0.24 0.082,-0.83938 -0.3985,-1.35938 -0.3201,-0.32001 -0.7202,-0.48047 -1.2402,-0.48047 z"
         transform="scale(0.26458333)"
         id="path1489" />
      <path
         style="font-style:normal;font-variant:normal;font-weight:normal;font-stretch:normal;font-size:10.5833px;font-family:'Rebeland Outline';-inkscape-font-specification:'Rebeland Outline, Normal';font-variant-ligatures:normal;font-variant-caps:normal;font-variant-numeric:normal;font-variant-east-asian:normal;stroke-width:0.264583"
         d="m -401.34061,69.261401 c -0.0741,-0.910164 -0.4445,-1.735661 -1.17474,-2.307159 -0.26459,-0.201083 -0.53975,-0.380999 -0.80433,-0.560915 -0.0953,-0.0635 -0.1905,-0.127 -0.28575,-0.1905 -0.15875,-0.09525 -0.28575,-0.222249 -0.41275,-0.349248 -0.0317,-0.03175 -0.0635,-0.0635 -0.0952,-0.09525 -0.127,-0.127 -0.254,-0.179916 -0.43392,-0.179916 -0.59266,0 -1.09008,0.656164 -1.23824,1.164163 -0.0635,0.222249 -0.127,0.550331 0.0423,0.888997 0.10583,0.201083 0.254,0.380999 0.4445,0.529165 0.0317,0.02117 0.0635,0.04233 0.0953,0.0635 -0.0106,0.04233 -0.0106,0.09525 0,0.158749 0.10583,1.068913 1.11125,2.942158 2.34949,2.942158 0.46567,0 0.85725,-0.211666 1.12183,-0.592665 0.29633,-0.433916 0.42333,-0.931331 0.381,-1.492246 z"
         id="path1493" />
      <path
         style="font-style:normal;font-variant:normal;font-weight:normal;font-stretch:normal;font-size:10.5833px;font-family:'Rebeland Outline';-inkscape-font-specification:'Rebeland Outline, Normal';font-variant-ligatures:normal;font-variant-caps:normal;font-variant-numeric:normal;font-variant-east-asian:normal;fill:url(#linearGradient2291);fill-opacity:1;stroke-width:0.264583"
         d="m -402.04969,70.51023 c -0.20108,0.296333 -0.47625,0.423332 -0.83608,0.423332 -0.9525,-0.04233 -1.65099,-1.481662 -1.86266,-2.307159 -0.0317,-0.09525 -0.0529,-0.201083 -0.0635,-0.306916 0,-0.03175 0.0106,-0.04233 0.0423,-0.03175 0.11642,0.04233 0.23284,0.08467 0.33867,0.148166 0.0741,0.04233 0.15875,0.07408 0.24342,0.105833 0.0635,0.02117 0.127,0.0635 0.19049,0.09525 -0.0529,-0.0635 -0.11641,-0.105833 -0.17991,-0.148166 -0.15875,-0.105833 -0.29633,-0.232832 -0.4445,-0.349249 -0.13758,-0.116416 -0.28575,-0.211666 -0.42333,-0.317499 -0.13758,-0.116416 -0.254,-0.253999 -0.33867,-0.412748 -0.0952,-0.201083 -0.0741,-0.402166 -0.0212,-0.603248 0.0953,-0.338666 0.30691,-0.592665 0.58208,-0.804331 0.0953,-0.0635 0.20108,-0.08467 0.3175,-0.08467 0.0529,0 0.0953,0.03175 0.13758,0.07408 0.127,0.116417 0.24342,0.243416 0.381,0.349249 0.0529,0.04233 0.10583,0.08467 0.16933,0.127 0.35983,0.243416 0.73025,0.476248 1.06891,0.740831 0.64559,0.476248 0.97367,1.248829 1.02658,2.031993 0.0317,0.455082 -0.0635,0.878414 -0.31749,1.24883 z"
         id="path1529" />
      <path
         style="font-style:normal;font-variant:normal;font-weight:normal;font-stretch:normal;font-size:10.5833px;font-family:'Rebeland Outline';-inkscape-font-specification:'Rebeland Outline, Normal';font-variant-ligatures:normal;font-variant-caps:normal;font-variant-numeric:normal;font-variant-east-asian:normal;stroke-width:0.264583"
         d="m -403.95469,64.985742 c 0.0423,0.624415 0.37041,0.846664 0.86783,1.09008 0.0106,0.04233 0.0212,0.09525 0.0529,0.148166 0.0741,0.127 0.13759,0.264582 0.1905,0.402165 0.13759,0.338666 0.26459,0.687915 0.39159,1.02658 l 0.0847,0.232833 c -0.0317,0.02117 -0.0635,0.04233 -0.0847,0.0635 -0.24342,0.222249 -0.21167,0.518581 -0.20109,0.613831 0.0635,0.571498 0.41275,1.100663 1.03717,1.100663 0.0635,0 0.127,0 0.1905,-0.01058 0.0317,0 0.0635,-0.01058 0.0952,-0.02117 0.13758,-0.02117 0.27516,-0.04233 0.40216,-0.04233 0.0952,0 0.16933,-0.02117 0.23283,-0.03175 h 0.0106 c 0.1905,-0.04233 0.32808,-0.179916 0.37041,-0.359832 0.0317,0.01058 0.0635,0.02117 0.0847,0.03175 l 0.0212,0.01058 c 0.13758,0.05292 0.27516,0.08467 0.41274,0.116417 l 0.0952,0.03175 c 0.0847,0.02117 0.15875,0.03175 0.22225,0.03175 0.0741,0 0.13759,-0.01058 0.20109,-0.03175 0.23283,-0.0635 0.38099,-0.254 0.39158,-0.497416 V 68.73223 h 0.0106 c -0.0635,-0.433915 -0.22225,-1.354662 -0.79375,-1.354662 0.17992,-0.306916 0.26459,-0.645582 0.24342,-1.005414 -0.0423,-0.888997 -0.6985,-1.502828 -1.49225,-1.799161 l -0.11641,-0.04233 c -0.3175,-0.116416 -0.64558,-0.232833 -0.9525,-0.370416 l -0.127,-0.0635 c -0.14816,-0.0635 -0.29633,-0.127 -0.45508,-0.179916 -0.13758,-0.05292 -0.23283,-0.09525 -0.30692,-0.148167 -0.0529,-0.04233 -0.127,-0.09525 -0.21166,-0.137582 -0.0741,-0.03175 -0.14817,-0.05292 -0.22225,-0.05292 -0.35983,0 -0.56092,0.380999 -0.62442,0.687914 -0.0529,0.254 -0.0423,0.497416 -0.0212,0.719665 z"
         id="path1495" />
      <path
         style="font-style:normal;font-variant:normal;font-weight:normal;font-stretch:normal;font-size:10.5833px;font-family:'Rebeland Outline';-inkscape-font-specification:'Rebeland Outline, Normal';font-variant-ligatures:normal;font-variant-caps:normal;font-variant-numeric:normal;font-variant-east-asian:normal;fill:url(#linearGradient2293);fill-opacity:1;stroke-width:0.264583"
         d="m -403.54194,64.318994 c 0.0106,-0.09525 0.10583,-0.391582 0.23283,-0.391582 0.0212,0 0.0423,0.01058 0.0635,0.02117 0.0529,0.02117 0.10583,0.05292 0.14816,0.08467 0.127,0.09525 0.26459,0.158749 0.41275,0.211666 0.1905,0.0635 0.37042,0.148166 0.55034,0.232832 0.35983,0.15875 0.71966,0.296333 1.07949,0.433916 0.64558,0.253999 1.21708,0.740831 1.25941,1.471078 0.0212,0.338666 -0.0741,0.645582 -0.26458,0.920747 -0.0635,0.09525 -0.14816,0.15875 -0.254,0.15875 -0.0318,0 -0.0635,-0.01058 -0.10583,-0.02117 -0.0529,-0.02117 -0.10583,-0.03175 -0.15875,-0.05292 -0.0106,-0.01058 -0.0317,-0.02117 -0.0423,0 -0.0106,0.01058 0,0.02117 0.0106,0.03175 0.21167,0.232832 0.49742,0.338665 0.80433,0.338665 0.0529,0 0.10583,0 0.15875,-0.01058 0.0423,-0.01058 0.0635,0.01058 0.0847,0.04233 0.15875,0.232833 0.26458,0.687915 0.30691,0.973664 v 0.09525 c 0,0.07408 -0.0423,0.126999 -0.11641,0.148166 v 0.01058 c -0.0317,0.01058 -0.0529,0.01058 -0.0847,0.01058 -0.0423,0 -0.0952,-0.01058 -0.13758,-0.02117 -0.15875,-0.04233 -0.3175,-0.07408 -0.47625,-0.127 -0.0635,-0.02117 -0.127,-0.04233 -0.17992,-0.08467 -0.0317,-0.03175 -0.0741,-0.02117 -0.10583,-0.04233 -0.23283,-0.116417 -0.508,-0.264583 -0.68791,-0.444499 0.0317,0.08467 0.0847,0.158749 0.13758,0.222249 0.0529,0.0635 0.10583,0.116417 0.15875,0.169333 0.0212,0.02117 0.0317,0.04233 0.0423,0.0635 0.0212,0.08467 0.0423,0.169333 0.0529,0.264582 0.0106,0.08467 -0.0212,0.137583 -0.0953,0.15875 -0.0529,0.01058 -0.10584,0.02117 -0.15875,0.02117 -0.1905,0 -0.37042,0.04233 -0.56092,0.07408 -0.0317,0 -0.0635,0.01058 -0.10583,0.01058 -0.41275,0 -0.64558,-0.391582 -0.66675,-0.772581 -0.0106,-0.116416 0,-0.222249 0.0953,-0.306916 0.0212,-0.02117 0.0529,-0.04233 0.0847,-0.04233 0.0529,-0.01058 0.0952,-0.04233 0.13758,-0.0635 0.0423,-0.02117 0.0423,-0.05292 0.0317,-0.09525 -0.0212,-0.09525 -0.0529,-0.1905 -0.0847,-0.28575 -0.15874,-0.412748 -0.31749,-0.825497 -0.48683,-1.238246 -0.0635,-0.148166 -0.13758,-0.296332 -0.21166,-0.444498 -0.0212,-0.04233 -0.0106,-0.05292 0.0317,-0.05292 0.11641,0 0.22225,0.02117 0.33866,0.04233 -0.0106,-0.03175 -0.0317,-0.04233 -0.0529,-0.05292 -0.11642,-0.0635 -0.24342,-0.105833 -0.37042,-0.158749 -0.14817,-0.0635 -0.29633,-0.116417 -0.43391,-0.201083 -0.24342,-0.148166 -0.381,-0.370416 -0.40217,-0.666748 -0.0106,-0.211666 -0.0212,-0.423332 0.0212,-0.634998 z"
         id="path1535" />
      <path
         style="font-style:normal;font-variant:normal;font-weight:normal;font-stretch:normal;font-size:10.5833px;font-family:'Rebeland Outline';-inkscape-font-specification:'Rebeland Outline, Normal';font-variant-ligatures:normal;font-variant-caps:normal;font-variant-numeric:normal;font-variant-east-asian:normal;fill:#000000;fill-opacity:1;stroke-width:0.264583"
         d="m -402.8646,69.208485 c -0.0953,-0.116417 -0.381,-0.349249 -0.53975,-0.380999 0.0423,0.05292 0.0741,0.105833 0.10583,0.158749 0.0423,0.08467 0.0741,0.169333 0.0635,0.275166 -0.0106,0.137583 0.0212,0.264583 0.0847,0.391582 0.0317,0.0635 0.0847,0.09525 0.15875,0.105833 0.13758,0.01058 0.27516,-0.105833 0.254,-0.232832 -0.0106,-0.116417 -0.0529,-0.22225 -0.13759,-0.317499 z"
         id="path1531" />
      <path
         style="font-style:normal;font-variant:normal;font-weight:normal;font-stretch:normal;font-size:10.5833px;font-family:'Rebeland Outline';-inkscape-font-specification:'Rebeland Outline, Normal';font-variant-ligatures:normal;font-variant-caps:normal;font-variant-numeric:normal;font-variant-east-asian:normal;stroke-width:0.264583"
         d="m -395.98548,68.636987 c -0.11642,-0.359832 -0.26458,-0.698498 -0.40216,-1.02658 -0.0423,-0.105833 -0.0847,-0.211666 -0.127,-0.317499 l -0.0106,-0.01058 c -0.0741,-0.169333 -0.14816,-0.328083 -0.16933,-0.486832 -0.0106,-0.116417 0.0106,-0.201083 0.0741,-0.275166 0.127,-0.169333 0.13759,-0.423332 -0.0847,-0.592665 -0.39159,-0.328082 -0.73025,-0.423332 -1.23825,-0.423332 -0.28575,0 -0.56091,0.09525 -0.74083,0.338666 -0.23283,-0.15875 -0.41275,-0.275166 -0.70908,-0.275166 -0.635,0 -1.09008,0.571498 -1.24883,1.142996 -0.0423,0.15875 0.0106,0.275166 0.0423,0.328083 0.0423,0.07408 0.127,0.169332 0.27517,0.211666 0.0423,0.04233 0.0847,0.09525 0.11641,0.158749 0.0847,0.137583 0.14817,0.296333 0.22225,0.465665 0.0317,0.07408 0.0635,0.15875 0.0952,0.243416 0.20109,0.444499 0.45508,0.984247 0.8255,1.322913 -0.0635,0.105833 -0.10583,0.232832 -0.11642,0.380998 -0.0317,0.349249 0.0529,0.687915 0.24342,1.015997 0.0317,0.05292 0.11642,0.201083 0.30692,0.243416 0.0317,0.01058 0.0635,0.01058 0.0847,0.01058 0.14817,0 0.254,-0.08467 0.29633,-0.116416 l 0.0106,-0.01058 c 0.0106,-0.01058 0.0212,-0.02117 0.0317,-0.03175 0.10583,0 0.16933,0 0.26458,0.04233 0.0741,0.03175 0.14817,0.07408 0.23283,0.116416 0.0423,0.02117 0.0847,0.04233 0.127,0.0635 0.17992,0.09525 0.34925,0.148166 0.51858,0.169333 0.4445,0 0.64559,-0.15875 0.85725,-0.529165 0.0212,-0.03175 0.0423,-0.0635 0.0635,-0.08467 0.17992,-0.285749 0.28575,-0.613832 0.30692,-0.984247 0.0212,-0.328083 -0.0318,-0.666748 -0.14817,-1.037164 z"
         id="path1497" />
      <path
         style="font-style:normal;font-variant:normal;font-weight:normal;font-stretch:normal;font-size:10.5833px;font-family:'Rebeland Outline';-inkscape-font-specification:'Rebeland Outline, Normal';font-variant-ligatures:normal;font-variant-caps:normal;font-variant-numeric:normal;font-variant-east-asian:normal;fill:url(#linearGradient2295);fill-opacity:1;stroke-width:0.264583"
         d="m -396.21831,69.7059 c -0.0106,0.423332 -0.28575,1.238246 -0.80433,1.238246 -0.13759,-0.01058 -0.26459,-0.0635 -0.381,-0.126999 -0.127,-0.0635 -0.254,-0.137583 -0.381,-0.1905 -0.10583,-0.05292 -0.22225,-0.07408 -0.33867,-0.07408 -0.0423,0 -0.0953,0 -0.14816,0.01058 -0.0741,0.01058 -0.13759,0.0635 -0.20108,0.105833 -0.0317,0.02117 -0.0423,0.04233 -0.0635,0.04233 -0.0212,0 -0.0317,-0.02117 -0.0529,-0.0635 -0.13758,-0.243416 -0.21167,-0.507999 -0.1905,-0.793748 0.0106,-0.126999 0.0529,-0.253999 0.15875,-0.349249 0.0317,-0.02117 0.0529,-0.03175 0.0741,-0.03175 0.0212,0 0.0317,0 0.0529,0.01058 0.0953,0.03175 0.20108,0.05292 0.30691,0.05292 0.0953,0 0.1905,-0.02117 0.28575,-0.05292 0.0106,0 0.0212,0 0.0317,0 0.0212,0 0.0423,0 0.0635,0.01058 0.10584,0.03175 0.17992,0.127 0.29634,0.148166 0.0212,0 0.0423,0.01058 0.0635,0.01058 0.0952,0 0.17991,-0.05292 0.21166,-0.127 0.0423,-0.09525 0,-0.232833 -0.0952,-0.296332 -0.0317,-0.02117 -0.0423,-0.03175 -0.0212,-0.0635 0.0741,-0.127 0.0741,-0.264583 0.0529,-0.402166 0,-0.01058 0,-0.02117 0,-0.03175 0,-0.02117 0.0106,-0.05292 -0.0106,-0.05292 -0.0212,0 -0.0212,0.02117 -0.0212,0.04233 0,0.15875 -0.27516,0.476249 -0.40216,0.560915 -0.127,0.09525 -0.26459,0.148166 -0.40217,0.148166 -0.67733,0 -1.12183,-0.96308 -1.36525,-1.481662 -0.11641,-0.243415 -0.21166,-0.497415 -0.34924,-0.730247 -0.0741,-0.116417 -0.21167,-0.285749 -0.35984,-0.306916 -0.0317,-0.01058 -0.0423,-0.02117 -0.0317,-0.0635 0.10584,-0.402165 0.43392,-0.86783 0.89958,-0.86783 0.32809,0 0.53975,0.222249 0.65617,0.507998 0.11642,0.253999 0.15875,0.529165 0.21167,0.793748 0.0529,0.275165 0.0952,0.550331 0.19049,0.814914 0.0529,0.137582 0.24342,0.433915 0.42334,0.433915 0.0741,0 0.13758,-0.05292 0.15875,-0.137583 0.0212,-0.07408 0.0212,-0.148166 0.0106,-0.222249 -0.0423,-0.285749 -0.15875,-0.539749 -0.3175,-0.772581 -0.0847,-0.116416 -0.16933,-0.232833 -0.24342,-0.349249 -0.0635,-0.09525 -0.0741,-0.201083 -0.10583,-0.306916 -0.0212,-0.07408 -0.0423,-0.148166 -0.0635,-0.222249 -0.0741,-0.222249 0.0423,-0.465665 0.254,-0.550332 0.127,-0.04233 0.24342,-0.05292 0.381,-0.05292 0.33867,0 0.62441,0.137583 0.889,0.338665 0.0212,0.02117 0.0423,0.03175 0.0106,0.0635 -0.127,0.169333 -0.16933,0.359832 -0.14817,0.560915 0.0212,0.222249 0.10584,0.423332 0.1905,0.624415 0.17992,0.433915 0.381,0.857247 0.51858,1.301746 0.0953,0.296332 0.14817,0.592664 0.127,0.89958 z"
         id="path1541" />
      <path
         style="font-style:normal;font-variant:normal;font-weight:normal;font-stretch:normal;font-size:10.5833px;font-family:'Rebeland Outline';-inkscape-font-specification:'Rebeland Outline, Normal';font-variant-ligatures:normal;font-variant-caps:normal;font-variant-numeric:normal;font-variant-east-asian:normal;fill:url(#linearGradient1555);fill-opacity:1;stroke-width:0.999999"
         d="m -1542.1973,241.73633 c 0.2,0 0.1983,0.0393 0.1582,0.27929 -0.08,0.88 0,1.76063 0.1211,2.64063 0.44,3.15999 2.0395,7.39939 3.5196,10.35937 0.1598,0.36 0.1598,0.44071 0,0.72071 -0.2,0.27999 -0.4408,0.47859 -0.7207,0.55859 -0.2,0.08 -0.3997,0.12017 -0.5997,0.16016 -0.3201,0 -0.4396,-0.0402 -0.6796,-0.24024 -2.8,-2.27999 -4.3999,-3.67993 -5.92,-6.91992 -0.1198,0.15999 -0.1207,0.43977 -0.041,0.75977 0.6,2.95999 3.9202,5.80055 6.1602,7.56054 0.84,0.68 1.7215,1.28102 2.5215,2.04102 1.24,1.23999 2,2.23813 2,4.07813 0,0.99999 -0.2808,1.80148 -0.7207,2.52148 l 0.2812,0.16016 c -0.24,0.39999 -0.641,0.51859 -1.041,0.55859 -0.48,0 -0.9595,-0.0391 -1.4395,-0.11914 -0.7599,-0.12 -1.4802,-0.48055 -2.2402,-0.56055 -0.1599,0 -0.3206,-0.0391 -0.4805,-0.0391 -0.68,0 -1.3199,0.1585 -1.9199,0.47852 -0.1202,0.04 -0.2402,0.12115 -0.3203,0.20117 -0.08,0.08 -0.1591,0.11914 -0.1992,0.11914 -0.88,0 -1.8391,-2.11883 -2.0391,-2.79883 -0.3598,-1.31999 -0.4803,-2.64086 -0.1601,-3.88086 0.08,-0.32001 0.2404,-0.59977 0.4804,-0.75977 0.04,-0.04 0.08,-0.0801 0.1192,-0.0801 0.04,0 0.1201,0.0401 0.1601,0.0801 1.28,1 2.5989,1.79977 3.8789,2.75977 1.08,0.84 1.4411,1.27954 2.0411,2.51953 0.04,0.08 0.08,0.16016 0.1601,0.16016 0.08,0 0.039,-0.11921 0.039,-0.19922 0.08,-0.72 -0.2005,-1.32086 -0.5606,-1.88086 -0.6799,-1.04 -1.5594,-1.63828 -2.4394,-2.23828 -1.44,-1.04 -2.9193,-1.8811 -4.2793,-3.1211 -0.3598,-0.32001 -0.721,-0.67913 -1.041,-1.11914 -1.56,-1.55999 -3.1597,-5.0011 -3.5996,-7.12109 -0.1599,-0.8 -0.36,-1.60039 -0.3204,-2.40039 0.08,-2.03999 0.8011,-3.87914 3.0411,-4.11914 0.3999,0 0.719,0.15944 1.039,0.43945 0.68,0.48 1.1596,1.24102 1.5996,2.04102 0.68,1.27999 1.361,2.55985 2.041,3.83984 0.1599,0.32001 0.3608,0.55883 0.5606,0.79883 -0.1599,-0.52 -0.4016,-0.99953 -0.6016,-1.51953 -0.4399,-1.2 -0.8398,-2.43977 -0.8398,-3.75977 0,-1.31999 0.8412,-2.95898 2.2812,-2.95898 z"
         transform="scale(0.26458333)"
         id="path1519" />
      <path
         style="font-style:normal;font-variant:normal;font-weight:normal;font-stretch:normal;font-size:10.5833px;font-family:'Rebeland Outline';-inkscape-font-specification:'Rebeland Outline, Normal';font-variant-ligatures:normal;font-variant-caps:normal;font-variant-numeric:normal;font-variant-east-asian:normal;stroke-width:0.264583"
         d="m -403.63715,64.318992 c -0.0635,-0.127 -0.17991,-0.211666 -0.3175,-0.232833 -0.1905,0 -0.254,0.05292 -0.38099,0.179917 -0.0741,0.05292 -0.16934,0.08467 -0.28575,0.09525 -0.32809,0 -0.58209,-0.0635 -0.87842,-0.190499 -0.10583,-0.05292 -0.21166,-0.116416 -0.32808,-0.179916 -0.40217,-0.253999 -0.79375,-0.412749 -1.28058,-0.412749 -0.58208,0 -0.99483,0.264583 -1.143,0.857247 -0.0741,0.296333 -0.0106,0.582082 0.0423,0.772581 0.0423,0.148166 0.10583,0.275166 0.15875,0.402166 0.0106,0.03175 0.0212,0.0635 0.0317,0.09525 0.10583,0.254 0.29633,0.645582 0.61383,0.645582 0.0635,0 0.13758,-0.02117 0.20108,-0.05292 0.0106,0 0.0212,0 0.0423,0.01058 0.0847,0.02117 0.16934,0.07408 0.27517,0.15875 0.0212,0.01058 0.0529,0.04233 0.0741,0.07408 0.0317,0.03175 0.0635,0.0635 0.10584,0.09525 0.29633,0.275165 0.49741,0.582081 0.66674,0.952497 -0.0529,0.02117 -0.10583,0.05292 -0.15875,0.08467 -0.26458,0.179916 -0.39158,0.486832 -0.32808,0.814914 0.0847,0.433915 0.37042,1.005414 0.87842,1.005414 0.0635,0 0.127,-0.01058 0.17991,-0.03175 l 0.0423,-0.01058 c 0.0318,-0.01058 0.0635,-0.02117 0.0847,-0.02117 0.127,-0.03175 0.254,-0.04233 0.40217,-0.04233 0.0741,0 0.14816,0.01058 0.23283,0.01058 0.0423,0 0.0847,0 0.127,0 0.0741,0.01058 0.15875,0.02117 0.254,0.02117 0.32808,-0.01058 0.55033,-0.232832 0.56091,-0.560914 v -0.01058 c 0,-0.01058 0,-0.02117 0,-0.03175 0.0212,-0.317499 -0.0317,-0.592664 -0.15875,-0.825497 -0.0847,-0.148166 -0.1905,-0.253999 -0.3175,-0.328082 -0.0635,-0.507999 -0.13758,-1.047747 -0.32808,-1.523995 0.66675,0 1.016,-0.349249 1.06892,-0.984247 0.0212,-0.275166 -0.0317,-0.550332 -0.16934,-0.804331 z"
         id="path1523" />
      <path
         style="font-style:normal;font-variant:normal;font-weight:normal;font-stretch:normal;font-size:10.5833px;font-family:'Rebeland Outline';-inkscape-font-specification:'Rebeland Outline, Normal';font-variant-ligatures:normal;font-variant-caps:normal;font-variant-numeric:normal;font-variant-east-asian:normal;fill:url(#linearGradient1559);fill-opacity:1;stroke-width:0.264583"
         d="m -403.88056,65.133906 c -0.0423,0.444499 -0.24342,0.624415 -0.67733,0.624415 -0.0741,0 -0.15875,-0.01058 -0.23284,-0.02117 -0.16933,-0.02117 -0.33866,-0.04233 -0.508,-0.0635 -0.0212,0 -0.0423,0 -0.0741,0.01058 0.0529,0.05292 0.11642,0.08467 0.16933,0.126999 0.41275,0.391582 0.60325,1.471079 0.60325,2.074327 0,0.04233 0.0106,0.0635 0.0529,0.0635 0.14817,0.01058 0.24342,0.09525 0.30691,0.211666 0.10584,0.190499 0.127,0.402165 0.10584,0.613831 0,0.01058 0,0.02117 0,0.03175 -0.0106,0.127 -0.0847,0.201083 -0.21167,0.201083 -0.11641,0 -0.23283,-0.02117 -0.34925,-0.02117 -0.0741,0 -0.15875,-0.01058 -0.23283,-0.01058 -0.22225,0 -0.46566,0.02117 -0.67733,0.105833 -0.0423,0 -0.0741,0 -0.11642,0 -0.27516,-0.105833 -0.381,-0.412749 -0.42333,-0.677331 -0.0318,-0.179916 0.0317,-0.338666 0.17992,-0.433916 0.0635,-0.04233 0.13758,-0.07408 0.21166,-0.07408 0.0741,0 0.15875,0.03175 0.23284,0.09525 0.0212,0.01058 0.0317,0.03175 0.0635,0.04233 0,-0.423332 -0.58209,-1.354662 -0.94192,-1.682744 -0.1905,-0.1905 -0.46566,-0.433916 -0.75141,-0.433916 -0.0423,0 -0.0741,0.01058 -0.11642,0.02117 -0.0317,0.01058 -0.0635,0.02117 -0.0847,0.04233 -0.0106,0.01058 -0.0212,0.01058 -0.0318,0.01058 -0.0106,0 -0.0317,-0.01058 -0.0423,-0.03175 -0.17991,-0.264583 -0.32808,-0.550332 -0.42333,-0.846664 -0.0529,-0.179917 -0.0847,-0.370416 -0.0423,-0.550332 0.0741,-0.306916 0.26458,-0.529165 0.59266,-0.560915 0.39158,0 0.65617,0.01058 1.016,0.201083 0.21166,0.105833 0.41275,0.232832 0.62441,0.328082 0.37042,0.15875 0.65617,0.222249 1.05833,0.222249 0.16934,-0.01058 0.32808,-0.05292 0.47625,-0.148166 0.0423,-0.02117 0.0741,-0.05292 0.10583,-0.08467 0.0212,-0.02117 0.0317,-0.02117 0.0529,0.01058 0.0952,0.190499 0.13758,0.391582 0.11642,0.603248 z"
         id="path1525" />
      <path
         style="font-style:normal;font-variant:normal;font-weight:normal;font-stretch:normal;font-size:10.5833px;font-family:'Rebeland Outline';-inkscape-font-specification:'Rebeland Outline, Normal';font-variant-ligatures:normal;font-variant-caps:normal;font-variant-numeric:normal;font-variant-east-asian:normal;stroke-width:0.264583"
         d="m -406.31472,65.620738 c 0.0106,0 0.0212,0 0.0317,0 0.0212,0 0.14816,-0.01058 0.14816,-0.02117 0,-0.01058 -0.0106,-0.01058 -0.0212,-0.01058 -0.13759,-0.08467 -0.27517,-0.169333 -0.42333,-0.232833 -0.0847,-0.03175 -0.15875,-0.05292 -0.24342,-0.05292 -0.0847,0 -0.17992,0.02117 -0.26458,0.07408 -0.0212,0.01058 -0.0529,0.02117 -0.0529,0.05292 0,0.03175 0.0317,0.03175 0.0529,0.04233 0.34925,0.158749 0.66675,0.391582 0.93133,0.656164 0,-0.01058 0,-0.02117 -0.0106,-0.03175 -0.0635,-0.137582 -0.127,-0.275165 -0.20108,-0.402165 -0.0106,-0.01058 -0.0212,-0.02117 -0.0106,-0.03175 0.0106,-0.01058 0.0317,0 0.0423,0 z"
         id="path1491" />
      <path
         style="font-style:normal;font-variant:normal;font-weight:normal;font-stretch:normal;font-size:10.5833px;font-family:'Rebeland Outline';-inkscape-font-specification:'Rebeland Outline, Normal';font-variant-ligatures:normal;font-variant-caps:normal;font-variant-numeric:normal;font-variant-east-asian:normal;fill:#000000;fill-opacity:1;stroke-width:0.264583"
         d="m -401.61578,66.181655 c -0.0106,0 -0.0212,-0.01058 -0.0317,-0.02117 v 0.02117 c 0.0106,0 0.0212,0 0.0317,0 0.0635,0.0635 0.127,0.116416 0.17991,0.179916 0.0318,0.03175 0.0529,0.07408 0.0635,0.126999 l 0.127,0.507999 c 0.0106,0.02117 0.0212,0.04233 0.0529,0.04233 0.0529,0 0.0953,-0.02117 0.127,-0.07408 0.0212,-0.03175 0.0317,-0.0635 0.0529,-0.09525 0.0847,-0.148166 0.0635,-0.328082 -0.0529,-0.444498 -0.14817,-0.148167 -0.33867,-0.211666 -0.55033,-0.243416 z"
         id="path1537" />
      <path
         style="fill:#000000;fill-opacity:1;stroke:#000000;stroke-width:0.264583px;stroke-linecap:butt;stroke-linejoin:miter;stroke-opacity:1"
         d="m -405.93274,67.733674 -0.62952,0.909349 -0.6835,-0.631537 0.43796,-0.387281 -0.47834,-1.494766 0.76044,0.320273 0.59026,0.962284 z"
         id="path1544" />
      <path
         style="fill:#000000;fill-opacity:1;stroke:#000000;stroke-width:0.264583px;stroke-linecap:butt;stroke-linejoin:miter;stroke-opacity:1"
         d="m -403.65354,65.434577 0.78377,0.663583 0.34677,0.821185 -0.52721,-0.102315 -1.06905,-0.87921 z"
         id="path1546" />
    </g>
  </g>
</svg>
