<svg width="31.394mm" height="7.3447mm" version="1.1" viewBox="0 0 31.394 7.3447" xmlns="http://www.w3.org/2000/svg" xmlns:xlink="http://www.w3.org/1999/xlink"><defs><linearGradient id="a" x1="75.675" x2="75.675" y1="140.07" y2="143.3" gradientUnits="userSpaceOnUse"><stop stop-color="#f0f" offset="0"/><stop stop-color="#621aff" offset="1"/></linearGradient></defs><g transform="translate(-72.729 -138.21)"><g transform="translate(-3.7753 .05284)" stroke-width=".26458"><path d="m100.07 143.48c-0.0318-0.39159-0.11642-0.80433-0.27517-1.2488-0.20108-0.5715-0.46566-1.143-0.71966-1.6933l-0.01058-0.0212c-0.10583-0.23283-0.20108-0.45508-0.24342-0.68791-0.04233-0.20108-0.03175-0.35983 0.03175-0.48683 0.03175-0.0741 0.127-0.3175-0.10583-0.52917-0.381-0.34925-0.73025-0.53975-1.2594-0.53975-0.30692 0-0.58208 0.127-0.75141 0.39159-0.02117-0.0212-0.04233-0.0317-0.0635-0.0423-0.20108-0.17991-0.42333-0.26458-0.65616-0.26458-0.73025 0-1.0583 0.8255-1.1218 1.4393-0.02117 0.22225 0.09525 0.41275 0.30692 0.47625 0 0 0.01058 0 0.02117 0.0106 0.0635 0.0635 0.11642 0.13758 0.16933 0.23283 0.10583 0.1905 0.20108 0.40217 0.29633 0.62442 0.04233 0.0952 0.08467 0.20108 0.127 0.29633 0.26458 0.58208 0.59266 1.2912 1.0689 1.7357-0.07408 0.14817-0.10583 0.32808-0.09525 0.55033 0.02117 0.34925 0.22225 1.3864 0.68792 1.4288 0.1905 0 0.254-0.0423 0.381-0.16933l0.01058-0.0106c0.14817 0 0.33866 0.127 0.4445 0.21167 0.04233 0.0318 0.08467 0.0635 0.127 0.0847 0.1905 0.127 0.37042 0.20109 0.55033 0.22225 0.04233 0.0106 0.07408 0.0106 0.10583 0.0106 0.46566 0 0.65616-0.42334 0.78316-0.80433 0.13758-0.33867 0.1905-0.74083 0.15875-1.1853z"/><path d="m99.529 144.56c-0.05292 0.13759-0.09525 0.28575-0.17992 0.41275-0.08467 0.127-0.15875 0.13758-0.29633 0.13758-0.13758-0.0212-0.26458-0.0847-0.39158-0.16933-0.127-0.0847-0.254-0.17991-0.39158-0.254-0.11642-0.0635-0.23283-0.0952-0.34925-0.0952-0.15875 0-0.21167 0.0529-0.3175 0.15875-0.02117 0.0318-0.04233 0.0423-0.05292 0.0423-0.02117 0-0.03175-0.0212-0.0635-0.0635-0.16933-0.30692-0.27517-0.64559-0.28575-1.0054-0.01058-0.16933 0.01058-0.32808 0.10583-0.4445 0.02117-0.0317 0.04233-0.0423 0.07408-0.0423 0.01058 0 0.02117 0 0.04233 0.0106 0.10583 0.0423 0.21167 0.0635 0.30692 0.0635s0.17992-0.0212 0.26458-0.0635c0.01058-0.0106 0.03175-0.0106 0.04233-0.0106 0.02117 0 0.03175 0 0.05292 0.0106 0.10583 0.0317 0.1905 0.14817 0.30692 0.17992 0.02117 0.0106 0.04233 0.0106 0.0635 0.0106 0.09525 0 0.15875-0.0529 0.17992-0.15875 0.02117-0.127-0.04233-0.29633-0.14817-0.37041-0.03175-0.0212-0.04233-0.0423-0.02117-0.0847 0.05292-0.15875 0.03175-0.32808-0.01058-0.508v-0.0317c-0.01058-0.0212-0.04233 0.0741-0.05292 0.10584-0.09525 0.30691-0.30692 0.81491-0.6985 0.81491-0.37042 0-0.68791-0.37041-0.87841-0.64558-0.26458-0.381-0.46566-0.81491-0.66675-1.2488-0.14817-0.3175-0.27517-0.64558-0.4445-0.94191-0.08467-0.15875-0.22225-0.35984-0.40216-0.42334-0.03175-0.0106-0.04233-0.0318-0.04233-0.0847 0.04233-0.39158 0.254-1.0901 0.75142-1.0901 0.33866 0 0.60325 0.381 0.73025 0.65616 0.14817 0.32809 0.22225 0.67733 0.30692 1.0266 0.08467 0.34925 0.15875 0.6985 0.29633 1.0372 0.05292 0.14816 0.29633 0.56091 0.47625 0.56091 0.07408 0 0.13758-0.0635 0.14817-0.16933 0.01058-0.0952 0-0.1905-0.02117-0.28575-0.07408-0.37042-0.22225-0.6985-0.41275-0.99483-0.09525-0.14817-0.1905-0.29633-0.28575-0.45508-0.07408-0.11642-0.09525-0.254-0.13758-0.381-0.03175-0.0952-0.0635-0.1905-0.09525-0.28575-0.09525-0.27517-0.02117-0.58208 0.17992-0.68792 0.11642-0.0529 0.22225-0.0635 0.34925-0.0635 0.33867 0 0.635 0.17991 0.92075 0.44449 0.02117 0.0212 0.04233 0.0423 0.02117 0.0847-0.10583 0.21167-0.11642 0.45508-0.0635 0.71966 0.05292 0.27517 0.16933 0.52917 0.27517 0.78317 0.23283 0.55033 0.48683 1.0901 0.68791 1.6616 0.127 0.37041 0.22225 0.75141 0.254 1.143 0.02117 0.37042-0.01058 0.71967-0.127 1.0266z" fill="url(#a)"/></g><g transform="translate(-5.2393 .081578)" stroke-width=".26458"><path d="m106.69 140.47c0 0.51858 0.22225 1.0477 0.45508 1.5028l0.0635 0.127c0.0953 0.20109 0.1905 0.41275 0.26458 0.62442l0.0106 0.0317c0.0212 0.0741 0.0423 0.14817 0.0318 0.1905-0.0212 0.15875 0.0529 0.34925 0.26458 0.43391-0.0423 0.0635-0.0741 0.127-0.0847 0.20109-0.0212 0.0952-0.0317 0.1905-0.0212 0.29633 0.0318 0.4445 0.20108 1.0795 0.73024 1.1218h0.3175c0.0423 0 0.0952 0 0.14817-0.0106 0.22225-0.0317 0.508-0.127 0.48683-0.60325v0.0212c-0.0317-0.42333-0.254-0.99483-0.635-1.1959 0.127-0.15875 0.1905-0.35983 0.1905-0.60325 0-0.20108-0.0423-0.41275-0.127-0.65616-0.0317-0.10583-0.0635-0.20108-0.0952-0.29633-0.0741-0.20109-0.13758-0.39159-0.1905-0.59267-0.0635-0.24341-0.11641-0.4445-0.0953-0.64558 0-0.0635 0.0106-0.13758 0.0318-0.16933 0.0953-0.14817 0.0741-0.28575 0.0529-0.34925-0.10583-0.29633-0.47625-0.35983-0.762-0.35983-0.17991 0-0.33866 0.0317-0.508 0.0847h-0.0106c-0.37041 0.127-0.51858 0.47625-0.51858 0.84667z"/><path d="m108.04 143.84c0-0.0635 0-0.127 0.0106-0.1905 0.0212-0.127 0.15875-0.17992 0.27517-0.17992 0.10583 0 0.20108 0.0423 0.29633 0.13759 0.20108 0.17991 0.3175 0.52916 0.3175 0.80433 0.0106 0.17991-0.0318 0.1905-0.16933 0.21166l0.0318-0.0212c-0.0635 0.0106-0.127 0.0106-0.1905 0.0212-0.0635-0.0106-0.127-0.0212-0.1905-0.0212-0.27517-0.0317-0.35984-0.55034-0.381-0.762z" fill="url(#a)"/><path d="m107.09 140.47c0-0.30692 0.11642-0.47625 0.43392-0.53975 0.0741-0.0106 0.14816-0.0212 0.22225-0.0212 0.127 0 0.25399 0.0212 0.37041 0.0635 0.0318 0.0106 0.0423 0.0212 0.0212 0.0529-0.0635 0.10583-0.0847 0.22225-0.0952 0.33866-0.0212 0.26459 0.0423 0.51858 0.11641 0.77258 0.0847 0.30692 0.20109 0.60325 0.30692 0.91017 0.0529 0.16933 0.0953 0.34925 0.0953 0.52916 0 0.30692-0.13758 0.48683-0.4445 0.48683-0.0635 0-0.127-0.0106-0.1905-0.0317-0.0106-0.0106-0.0212-0.0212-0.0212-0.0423 0.0212-0.13758-0.0318-0.26458-0.0741-0.39158-0.0741-0.23283-0.16933-0.45508-0.27516-0.66675-0.127-0.26458-0.26459-0.52916-0.34925-0.81491-0.0635-0.21167-0.11642-0.42333-0.11642-0.64558z" fill="url(#a)"/></g><g transform="translate(-4.3743 .58882)" stroke-width=".26458"><path d="m103.36 142.79c-0.0741-0.91016-0.4445-1.7357-1.1747-2.3072-0.26459-0.20108-0.53975-0.381-0.80433-0.56092-0.0953-0.0635-0.1905-0.12699-0.28575-0.19049-0.15875-0.0953-0.28575-0.22225-0.41275-0.34925-0.0318-0.0317-0.0635-0.0635-0.0953-0.0952-0.127-0.127-0.254-0.17992-0.43392-0.17992-0.59266 0-1.0901 0.65617-1.2382 1.1642-0.0635 0.22225-0.127 0.55034 0.04233 0.889 0.10583 0.20108 0.254 0.381 0.4445 0.52917 0.03175 0.0212 0.0635 0.0423 0.09525 0.0635-0.01058 0.0423-0.01058 0.0953 0 0.15875 0.10583 1.0689 1.1112 2.9422 2.3495 2.9422 0.46567 0 0.85725-0.21166 1.1218-0.59266 0.29633-0.43392 0.42333-0.93133 0.381-1.4922z"/><path d="m102.65 144.03c-0.20108 0.29633-0.47625 0.42333-0.83608 0.42333-0.9525-0.0423-1.651-1.4817-1.8627-2.3072-0.03175-0.0952-0.05292-0.20108-0.0635-0.30691 0-0.0318 0.01058-0.0423 0.04233-0.0318 0.11642 0.0423 0.23284 0.0847 0.33867 0.14816 0.0741 0.0423 0.15875 0.0741 0.24341 0.10583 0.0635 0.0212 0.127 0.0635 0.1905 0.0952-0.0529-0.0635-0.11641-0.10583-0.17991-0.14816-0.15875-0.10583-0.29633-0.23283-0.4445-0.34925-0.13759-0.11642-0.28575-0.21167-0.42334-0.3175-0.13758-0.11642-0.254-0.254-0.33867-0.41275-0.09525-0.20108-0.07408-0.40216-0.02117-0.60325 0.09525-0.33866 0.30692-0.59266 0.58208-0.80433 0.09525-0.0635 0.20108-0.0847 0.3175-0.0847 0.0529 0 0.0952 0.0317 0.13758 0.0741 0.127 0.11642 0.24341 0.24342 0.381 0.34925 0.0529 0.0423 0.10583 0.0847 0.16933 0.127 0.35983 0.24341 0.73025 0.47625 1.0689 0.74083 0.64558 0.47625 0.97367 1.2488 1.0266 2.032 0.0318 0.45508-0.0635 0.87842-0.3175 1.2488z" fill="url(#a)"/><path d="m101.84 142.73c-0.0952-0.11641-0.381-0.34925-0.53975-0.381 0.0423 0.0529 0.0741 0.10584 0.10583 0.15875 0.0423 0.0847 0.0741 0.16934 0.0635 0.27517-0.0106 0.13758 0.0212 0.26458 0.0847 0.39158 0.0318 0.0635 0.0847 0.0952 0.15875 0.10583 0.13758 0.0106 0.27516-0.10583 0.254-0.23283-0.0106-0.11641-0.0529-0.22225-0.13759-0.3175z"/></g><g transform="translate(-4.7852 .28986)"><path d="m107.76 144.34c-0.0423-0.39158-0.27516-1.0583-0.68791-1.2171l-0.0318-0.0106c-0.0529-0.0212-0.10583-0.0423-0.16933-0.0635-0.3175-0.66675-0.5715-1.4605-0.62442-2.1907-0.0106-0.21167 0.0106-0.381 0.0635-0.52917 0.0847-0.127 0.10584-0.254 0.0635-0.381-0.0529-0.16933-0.17991-0.24341-0.23283-0.27516-0.30692-0.23283-0.73025-0.49742-1.1324-0.49742-0.3175 0-0.68792 0.17992-0.85725 0.45509-0.21167-0.21167-0.508-0.37042-0.81491-0.37042-0.40217 0-0.71967 0.27517-0.96308 0.5715-0.3175 0.381-0.39159 0.8255-0.42334 1.2488-0.0106 0.21166 0.10584 0.32808 0.15875 0.37041 0.0423 0.0423 0.127 0.0847 0.24342 0.0847 0.0529 0 0.0953 0 0.14816-0.0212 0.0106 0 0.0212 0 0.0741 0.0212 0.0741 0.0423 0.13758 0.10583 0.21166 0.22225 0.10584 0.17991 0.16934 0.39158 0.23284 0.61383 0.0212 0.0952 0.0423 0.1905 0.0635 0.28575 0.0529 0.21167 0.10583 0.43391 0.1905 0.64558l0.0212 0.0529c0.3175 0.79374 0.91017 1.7674 1.8732 1.7992 0.30691 0 0.51858-0.0635 0.73024-0.27517 0.0741 0.0423 0.15875 0.0741 0.26459 0.0847h0.0953c0.0847 0.0106 0.17991 0.0212 0.28575 0.0212h0.0741c0.0741 0 0.14816 0.0106 0.23283 0.0106 0.16933 0 0.34925-0.0212 0.53975-0.0847 0.34925-0.127 0.37041-0.41275 0.34925-0.5715z" stroke-width=".26458"/><path d="m107.25 144.55c-0.13759 0.0529-0.27517 0.0635-0.41275 0.0635-0.0953 0-0.1905-0.0106-0.28575-0.0106-0.10583 0-0.21167-0.0212-0.3175-0.0317-0.23283-0.0423-0.35983-0.381-0.41275-0.58208-0.0212-0.0952-0.0318-0.1905 0-0.28575 0.0106-0.0212 0.0212-0.0423 0-0.0529s-0.0423 0-0.0529 0.0106c-0.0529 0.0423-0.0847 0.10584-0.10583 0.16934-0.0318 0.11641-0.0318 0.23283-0.0212 0.35983 0.0106 0.0847 0.0212 0.16933 0.0212 0.254 0 0.0741-0.0318 0.127-0.0847 0.16933-0.10583 0.0741-0.21166 0.10583-0.42333 0.10583-0.81491-0.0318-1.3123-0.93133-1.5663-1.6087-0.10583-0.29633-0.16933-0.60325-0.25399-0.89958-0.11642-0.39158-0.26459-0.85725-0.65617-1.0689-0.0741-0.0318-0.14817-0.0529-0.22225-0.0529-0.0423 0-0.0952 0.0106-0.13758 0.0212-0.0317 0.0106-0.0423 0.0106-0.0423-0.0317 0.0529-0.59267 0.19049-1.0901 0.73024-1.4182 0.0953-0.0529 0.1905-0.0741 0.27517-0.0741 0.52916 0 0.77258 0.52917 0.92075 0.9525 0.15875 0.47625 0.254 0.96308 0.32808 1.4605 0.0423 0.254 0.0741 0.508 0.13758 0.75142 0.0318 0.14817 0.1905 0.55033 0.381 0.55033 0.0741 0 0.127-0.0529 0.14817-0.13758 0.0212-0.0952 0.0106-0.1905-0.0106-0.28575-0.0635-0.32808-0.16933-0.64558-0.30691-0.9525-0.0952-0.21166-0.20109-0.42333-0.29634-0.635-0.12699-0.27516-0.22224-0.56091-0.27516-0.85724-0.0317-0.14817-0.0212-0.30692 0-0.45509 0.0423-0.29633 0.32808-0.48683 0.61383-0.48683 0.3175 0 0.68791 0.254 0.93133 0.43392 0.0318 0.0212 0.0847 0.0317 0.0952 0.0741 0.0106 0.0423-0.0318 0.0741-0.0423 0.11642-0.0953 0.23283-0.11642 0.47625-0.0953 0.73025 0.0529 0.85724 0.34925 1.7039 0.73025 2.4659 0.0106 0.0317 0.0318 0.0423 0.0635 0.0423 0.0953 0.0106 0.17992 0.0529 0.26459 0.0847 0.24341 0.10584 0.41275 0.67733 0.4445 0.91017 0.0106 0.10583-0.0212 0.13758-0.11642 0.16933z" fill="url(#a)" stroke-width=".26458"/></g><g transform="translate(-1.3216 .18468)" stroke-width=".26458"><path d="m85.855 143.21c-0.0635-0.0212-0.11642-0.0423-0.16933-0.0529-0.08467-0.0212-0.15875-0.0423-0.23283-0.0635 0-0.0106-0.01058-0.0212-0.02117-0.0318-0.04233-0.0847-0.07408-0.17991-0.09525-0.27516-0.05292-0.27517-0.07408-0.56092-0.09525-0.86783-0.01058-0.0952-0.02117-0.1905-0.03175-0.28575v-0.0847c0-1.0795-0.94191-1.4182-1.8097-1.6827-0.3175-0.0952-0.61383-0.1905-0.889-0.32808-0.07408-0.0317-0.14817-0.0529-0.22225-0.0529-0.381 0-0.59266 0.56091-0.68792 0.85725-0.07408 0.23283-0.08467 0.45508-0.08467 0.65616 0 0.26458 0.11642 0.48683 0.3175 0.635-0.01058 0.0635-0.01058 0.127-0.01058 0.20108 0.01058 0.127 0.04233 0.24342 0.10583 0.37042 0.02117 0.0529 0.05292 0.10583 0.08467 0.15875 0.22225 0.40216 0.41275 0.82549 0.45508 1.2806v0.0529c0.01058 0.0847 0.01058 0.15875 0 0.21167-0.01058 0.0741-0.03175 0.14816-0.0635 0.22225-0.10583 0.20108-0.07408 0.40216 0.08467 0.5715 0.27516 0.27516 0.8255 0.47624 1.2277 0.47624 0.16933 0 0.33867-0.0318 0.51858-0.0953 0.127-0.0529 0.23283-0.12699 0.30692-0.22224 0.05292 0.0318 0.10583 0.0635 0.16933 0.0847 0.14817 0.0635 0.29633 0.0952 0.4445 0.0952 0.508 0 0.92075-0.4445 1.0689-0.89958 0.11642-0.33866-0.0635-0.73025-0.39158-0.85725z"/><path d="m85.877 144.02c-0.10583 0.30692-0.381 0.64559-0.74083 0.64559-0.5715 0-0.89958-0.61384-1.0689-1.0901-0.02117-0.0529-0.03175-0.10584-0.03175-0.15875 0-0.10584 0.04233-0.1905 0.127-0.254 0.02117-0.0212 0.04233-0.0423 0.0635-0.0635v-0.0318c0-0.0106-0.01058 0-0.02117 0h-0.03175c-0.10583 0.0318-0.20108 0.0529-0.30692 0.0529-0.11642 0-0.24342-0.0212-0.35983-0.0529-0.02117 0-0.04233-0.0106-0.0635 0 0.02117 0.0423 0.0635 0.0635 0.09525 0.0847 0.23283 0.15875 0.3175 0.34925 0.39158 0.60325 0.07408 0.20109 0.16933 0.39158 0.28575 0.5715 0.10583 0.16933 0.0635 0.32808-0.127 0.40217-0.127 0.0529-0.26458 0.0847-0.40217 0.0847-0.05292 0-0.11642-0.0106-0.17992-0.0212-0.22225-0.0529-0.4445-0.11642-0.635-0.24342-0.04233-0.0317-0.08467-0.0635-0.11642-0.0952-0.05292-0.0529-0.05292-0.0741-0.02117-0.13758 0.05292-0.10584 0.09525-0.21167 0.11642-0.32808 0.02117-0.10584 0.01058-0.21167 0-0.3175-0.02117-0.30692-0.10583-0.60325-0.22225-0.889-0.09525-0.23283-0.22225-0.45508-0.33866-0.67733-0.04233-0.0741-0.07408-0.14817-0.08467-0.23283-0.01058-0.0847 0-0.15875 0.01058-0.24342 0.01058-0.0318 0.03175-0.0318 0.0635-0.0318 0.10583 0.0106 0.21167 0.0212 0.32808 0.0529-0.03175-0.0423-0.0635-0.0529-0.09525-0.0635-0.11642-0.0529-0.23283-0.10584-0.34925-0.15875-0.16933-0.0741-0.254-0.21167-0.254-0.39159 0-0.40216 0.09525-0.76199 0.33867-1.0901 0.02117-0.0318 0.04233-0.0423 0.0635-0.0423 0.01058 0 0.03175 0 0.04233 0.0106 0.40216 0.20109 0.83608 0.30692 1.2594 0.4445 0.55033 0.1905 1.0266 0.381 1.2065 0.99483 0.03175 0.11642 0.02117 0.23284 0.03175 0.34925 0.03175 0.40217 0.04233 0.81492 0.127 1.2171 0.02117 0.127 0.0635 0.24342 0.11642 0.35983 0 0.0106 0.01058 0.0212 0 0.0318s-0.02117 0-0.03175 0c-0.04233-0.0106-0.08467-0.0212-0.13758-0.0318 0.09525 0.127 0.51858 0.24342 0.66675 0.28575 0.04233 0.0106 0.08467 0.0212 0.127 0.0423 0.127 0.0529 0.22225 0.23283 0.16933 0.39158z" fill="url(#a)"/><path d="m83.792 142.46c-0.05292-0.0741-0.08467-0.14817-0.05292-0.24342 0 0 0.01058-0.10583 0.01058-0.13758 0-0.0317 0-0.0635-0.01058-0.0952-0.01058-0.0635-0.0635-0.11642-0.127-0.127-0.04233-0.0106-0.10583 0.0318-0.127 0.0847-0.04233 0.127-0.04233 0.254 0.03175 0.37042 0.0635 0.0952 0.15875 0.15875 0.26458 0.21167 0.01058 0.0106 0.03175 0.0212 0.04233 0 0.01058-0.0106 0-0.0212-0.01058-0.0317-0.01058-0.0106-0.02117-0.0212-0.03175-0.0318z"/></g><g transform="translate(-2.0599 .23308)" stroke-width=".26458"><path d="m90.533 143.21c-0.09525-0.24342-0.28575-0.41275-0.53975-0.47625-0.08467-0.15875-0.16933-0.32808-0.26458-0.508-0.05292-0.11641-0.10583-0.23283-0.15875-0.34924l-0.0635-0.13759c-0.14817-0.30691-0.28575-0.635-0.33867-0.98424-0.03175-0.20109-0.01058-0.381 0.05292-0.53975 0.07408-0.16934 0.04233-0.34925-0.09525-0.48683-0.29633-0.29634-0.73025-0.56092-1.1642-0.56092-0.45508 0-0.762 0.1905-0.8255 0.64558-0.28575-0.32808-0.635-0.60325-1.0901-0.60325-0.68792 0-1.1112 0.4445-1.1853 1.1007-0.02117 0.254 0.07408 0.41275 0.30692 0.508 0.03175 0.0106 0.05292 0.0212 0.07408 0.0317 0.45508 0.41274 0.81491 1.3123 0.96308 1.8732v0.0635c-0.08467 0.0741-0.16933 0.1905-0.21167 0.37041-0.10583 0.4445-0.0635 0.889 0.13758 1.3652 0.16933 0.4445 0.5715 0.52917 1.0054 0.52917 0.17992 0 0.34925-0.0212 0.508-0.0423h0.09525c0.16933-0.0212 0.3175-0.0529 0.4445-0.10583 0.09525-0.0318 0.16933-0.0847 0.23283-0.14817 0.24342 0.22225 0.53975 0.254 0.85725 0.254 0.53975 0 1.1747-0.0106 1.3547-0.635 0.10583-0.35983 0.08467-0.73024-0.0635-1.1112z"/><path d="m90.258 144.27c-0.05292 0.17992-0.16933 0.28575-0.33867 0.30692-0.20108 0.0317-0.41275 0.0529-0.61383 0.0529-0.254 0-0.5715-0.0106-0.70908-0.26458-0.11642-0.21167-0.17992-0.4445-0.20108-0.68791-0.02117-0.1905 0.08467-0.32809 0.27517-0.3175h0.0635c0.02117 0 0.04233 0.0212 0.05292-0.0106 0.01058-0.0212-0.02117-0.0317-0.03175-0.0423-0.254-0.20108-1.016-0.68791-1.3229-0.68791-0.02117 0-0.04233 0-0.0635 0.0106 0.02117 0.0318 0.05292 0.0423 0.07408 0.0635 0.07408 0.0529 0.14817 0.10583 0.22225 0.15875 0.02117 0.0106 0.03175 0.0318 0.04233 0.0529 0.03175 0.0741 0.05292 0.14816 0.07408 0.22224 0.02117 0.0529-0.01058 0.10584-0.0635 0.11642-0.03175 0.0106-0.0635 0.0212-0.09525 0.0317-0.01058 0-0.02117 0-0.02117 0.0106 0 0.0212 0.01058 0.0212 0.02117 0.0318 0.08467 0.0423 0.16933 0.0741 0.254 0.10584 0.13758 0.0529 0.21167 0.15875 0.24342 0.30691 0.05292 0.21167 0.08467 0.42333 0.07408 0.64558-0.01058 0.0953-0.05292 0.15875-0.13758 0.1905-0.23283 0.0847-0.68792 0.127-0.92075 0.127-0.254 0-0.508-0.0423-0.61383-0.30691-0.14817-0.37042-0.21167-0.75142-0.11642-1.143 0.02117-0.0741 0.05292-0.13758 0.11642-0.16933 0.01058-0.0106 0.02117-0.0106 0.03175-0.0106s0.02117 0.0106 0.03175 0.0318c0.02117 0.0847 0.04233 0.16934 0.0635 0.24342 0.01058 0.0212 0.02117 0.0635 0.05292 0.0529 0.02117 0 0.01058-0.0423 0.01058-0.0635 0-0.64558-0.70908-2.6035-1.3652-2.8257-0.07408-0.0317-0.07408-0.0317-0.0635-0.127 0.02117-0.40217 0.254-0.66675 0.65616-0.73025 0.04233-0.0106 0.08467-0.0106 0.127-0.0106 0.24342 0 0.45508 0.10583 0.64558 0.29633 0.254 0.254 0.46566 0.53975 0.66675 0.84666 0.16933 0.28575 0.6985 1.1112 0.97366 1.27-0.02117-0.0635-0.05292-0.10584-0.08467-0.14817-0.24342-0.34925-0.635-1.0689-0.71966-1.5028-0.04233-0.20108-0.05292-0.40216 0.02117-0.60324 0.0635-0.15875 0.28575-0.1905 0.43392-0.1905 0.32808 0 0.67733 0.23283 0.89958 0.45508 0.02117 0.0212 0.03175 0.0423 0.02117 0.0741-0.09525 0.23283-0.11642 0.47625-0.08467 0.73025 0.05292 0.39158 0.20108 0.75141 0.37042 1.1007 0.08467 0.16933 0.15875 0.33867 0.24342 0.508 0.09525 0.20108 0.1905 0.39158 0.29633 0.58208 0.05292 0.0847 0.10583 0.11642 0.1905 0.127 0.13758 0.0212 0.24342 0.0952 0.29633 0.24342 0.10583 0.28575 0.13758 0.5715 0.05292 0.86783z" fill="url(#a)"/></g><g transform="translate(-2.7721 .20527)" stroke-width=".26458"><path d="m94.343 143.23c-0.11642-0.16934-0.28575-0.27517-0.48683-0.29633-0.04233-0.14817-0.07408-0.29634-0.11642-0.47625-0.0635-0.254-0.21167-0.508-0.45508-0.61383 0.01058-0.0212 0.02117-0.0423 0.03175-0.0635 0.20108-0.3175 0.1905-0.6985-0.03175-0.99483-0.05292-0.0741-0.11642-0.13759-0.16933-0.1905-0.02117-0.0212-0.04233-0.0423-0.05292-0.0635-0.03175-0.0318-0.03175-0.0529-0.02117-0.0952 0.03175-0.13759 0.0635-0.26459 0.09525-0.40217 0.07408-0.29633-0.04233-0.55033-0.3175-0.6985-0.03175-0.0212-0.0635-0.0318-0.09525-0.0423-0.20108-0.0847-0.41275-0.11642-0.635-0.11642-0.29633 0-0.73025 0.0423-0.89958 0.32809-0.01058 0.0212-0.02117 0.0423-0.03175 0.0635-0.16933-0.22225-0.381-0.42334-0.67733-0.42334-0.0635 0-0.127 0.0106-0.1905 0.0318-0.73025 0.22225-1.1007 0.81492-1.1642 1.5452-0.01058 0.16933 0.05292 0.32808 0.17992 0.44449 0.26458 0.23284 0.56092 0.66675 0.75142 0.96308 0.05292 0.0847 0.10583 0.16934 0.15875 0.254 0.14817 0.24342 0.29633 0.46567 0.40217 0.70908 0.02117 0.0529 0.04233 0.10584 0.0635 0.15875-0.254 0.127-0.45508 0.254-0.46566 0.56092-0.02117 0.30691 0.0635 0.60325 0.24342 0.87841 0.15875 0.23284 0.40217 0.381 0.68792 0.381 0.0635 0 0.11642-0.0106 0.15875-0.0212h0.03175 0.04233c0.08467-0.0106 0.17992-0.0106 0.26458-0.0106h0.10583 0.1905 0.15875c0.21167 0 0.39158-0.0741 0.51858-0.254 0.16933 0.10584 0.34925 0.15875 0.55033 0.15875 0.254 0 0.46566-0.0212 0.66675-0.0741 0.02117-0.0106 0.04233-0.0106 0.0635-0.0106 0.45508-0.10584 0.71966-0.29634 0.71966-0.79375 0-0.29633-0.09525-0.58208-0.27517-0.84667z"/><path d="m94.184 144.31c-0.03175 0.0529-0.08467 0.0741-0.13758 0.0953-0.10583 0.0423-0.22225 0.0635-0.32808 0.0952-0.17992 0.0423-0.37042 0.0529-0.56091 0.0529-0.15875 0-0.29633-0.0529-0.41275-0.14817-0.10583-0.0741-0.14817-0.1905-0.15875-0.3175-0.01058-0.13758 0-0.27516 0.01058-0.41274 0.03175-0.40217-0.15875-0.78317-0.52916-0.94192-0.03175-0.0106-0.07408-0.0106-0.10583-0.0529-0.03175 0.13758-0.03175 0.26458-0.01058 0.39158 0.01058 0.0741 0.03175 0.14816 0.04233 0.22225 0.01058 0.0529 0.04233 0.0952 0.09525 0.127 0.16933 0.0952 0.27517 0.24341 0.30692 0.43391s0.0635 0.381-0.01058 0.5715c-0.03175 0.0847-0.07408 0.15875-0.16933 0.20108-0.03175 0.0106-0.0635 0.0212-0.09525 0.0212-0.10583-0.0106-0.21167-0.0212-0.3175-0.0317-0.15875 0-0.3175 0-0.47625 0.0317-0.0635 0.0106-0.127 0.0212-0.1905 0.0212-0.15875-0.0106-0.27516-0.0847-0.35983-0.21167-0.127-0.1905-0.1905-0.40217-0.17992-0.635 0.01058-0.14816 0.1905-0.24341 0.32808-0.24341 0.127-0.0106 0.254-0.0106 0.381-0.0106h0.15875c0.01058 0 0.02117 0 0.03175-0.0106-0.03175-0.0317-0.07408-0.0423-0.11642-0.0529-0.05292-0.0106-0.10583-0.0212-0.15875-0.0317-0.03175-0.0106-0.04233-0.0212-0.05292-0.0529-0.04233-0.16934-0.10583-0.33867-0.17992-0.49742-0.23283-0.56091-0.92075-1.6298-1.397-2.0637-0.04233-0.0423-0.0635-0.0847-0.0635-0.13758 0.03175-0.56092 0.35983-1.0372 0.91016-1.1959 0.03175-0.0106 0.0635-0.0106 0.08467-0.0106 0.0635 0 0.127 0.0212 0.1905 0.0635 0.37042 0.28575 0.65616 1.2277 0.78316 1.651 0.04233 0.13759 0.08467 0.27517 0.127 0.41275 0.01058 0.0318 0.02117 0.0423 0.04233 0.0423 0.01058 0 0.02117 0 0.03175-0.0106 0.11642-0.0635 0.23283-0.127 0.29633-0.24341 0.0635-0.10584 0.05292-0.21167-0.01058-0.3175-0.05292-0.0741-0.10583-0.14817-0.16933-0.21167-0.16933-0.20108-0.28575-0.43391-0.32808-0.68791-0.03175-0.17992 0-0.35984 0.09525-0.51858 0.03175-0.0423 0.08467-0.0635 0.13758-0.0741 0.14817-0.0423 0.29633-0.0741 0.45508-0.0741 0.15875 0 0.32808 0.0317 0.48683 0.0952 0.02117 0.0106 0.04233 0.0212 0.0635 0.0318 0.11642 0.0635 0.15875 0.14816 0.127 0.28575-0.03175 0.127-0.07408 0.254-0.10583 0.381-0.05292 0.16933-0.01058 0.3175 0.11642 0.4445 0.0635 0.0635 0.127 0.12699 0.17992 0.20108 0.127 0.16933 0.13758 0.39158 0.02117 0.5715-0.15875 0.254-0.41275 0.38099-0.66675 0.50799 0.01058 0.0212 0.03175 0.0106 0.04233 0.0106 0.10583 0 0.21167 0.0106 0.3175 0.0318 0.09525 0.0212 0.1905 0.0106 0.28575 0.0212 0.20108 0.0212 0.34925 0.20109 0.39158 0.39159 0.04233 0.17991 0.08467 0.35983 0.127 0.52916 0.02117 0.0952 0.02117 0.0952-0.07408 0.127-0.04233 0.0106-0.08467 0.0212-0.11642 0.0529-0.01058 0.0106-0.03175 0.0212-0.02117 0.0423 0.01058 0.0212 0.03175 0.0212 0.05292 0.0212h0.22225c0.04233-0.0106 0.08467-0.0106 0.127-0.0106 0.04233 0 0.08467 0 0.127 0.0106 0.29633 0.0317 0.43392 0.51858 0.43392 0.76199 0 0.0847-0.02117 0.16934-0.0635 0.24342z" fill="url(#a)"/></g><g transform="translate(-.9247 .4178)" stroke-width=".26458"><path d="m82.903 144.08c-0.04233-0.381-0.20108-0.67733-0.46566-0.87841-0.10583-0.0741-0.1905-0.17992-0.28575-0.33867-0.01058-0.0212-0.02117-0.0317-0.02117-0.0423 0-0.0952 0-0.17992-0.01058-0.26458-0.02117-0.381-0.22225-0.58209-0.39158-0.67733-0.01058-0.0106-0.02117-0.0212-0.03175-0.0317-0.02117-0.0106-0.05292-0.0318-0.08467-0.0529-0.02117-0.0635-0.04233-0.127-0.0635-0.1905-0.01058-0.0212-0.02117-0.0423-0.03175-0.0635-0.11642-0.33867-0.17992-0.6985-0.1905-1.0795-0.01058-0.15875 0-0.32808 0.03175-0.508 0.04233-0.19049-0.02117-0.37041-0.17992-0.48683-0.254-0.17991-0.48683-0.27516-0.80433-0.27516-0.52916 0-0.8255 0.30691-0.99483 0.77258-0.22225-0.41275-0.51858-0.77258-1.0372-0.77258-0.508 0-0.97366 0.39158-1.1959 0.82549-0.09525 0.20109-0.05292 0.42334 0.11642 0.56092 0.254 0.32808 0.48683 0.68791 0.67733 1.0583v0.0212 0.0106c-0.0635 0.23283-0.07408 0.46566-0.08467 0.635-0.01058 0.254 0.08467 0.47625 0.26458 0.62441 0.15875 0.127 0.33867 0.21167 0.53975 0.254h0.03175c0.01058 0.0212 0.02117 0.0423 0.03175 0.0635 0.01058 0.0317 0.02117 0.0635 0.03175 0.0952-0.13758 0.0741-0.23283 0.20108-0.27516 0.381-0.05292 0.22225-0.04233 0.43391 0.02117 0.635 0.20108 0.62441 0.93133 0.6985 1.4817 0.6985 0.24342 0 0.53975-0.0952 0.6985-0.28575 0.0635 0.0423 0.127 0.0847 0.20108 0.11641 0.32808 0.15875 0.78316 0.17992 1.1324 0.17992 0.381 0 0.762-0.1905 0.8255-0.60325 0.03175-0.15875 0.02117-0.30692 0.01058-0.40217z"/><path d="m82.469 144.39c-0.02117 0.21167-0.27517 0.28575-0.45508 0.28575-0.4445 0-1.1536 0-1.3123-0.52917-0.04233-0.15874-0.05292-0.31749-0.0635-0.47624 0-0.127 0.13758-0.13759 0.23283-0.13759 0.01058 0 0.02117 0 0.03175-0.0106 0-0.0212-0.01058-0.0212-0.02117-0.0318-0.0635-0.0317-0.127-0.0741-0.17992-0.11642-0.03175-0.0318-0.05292-0.0635-0.0635-0.10583-0.02117-0.127-0.05292-0.3175-0.21167-0.3175-0.08467 0-0.16933-0.0106-0.254-0.0212-0.127-0.0212-0.254-0.0318-0.381-0.0318h-0.21167-0.10583-0.04233c-0.02117 0-0.04233 0-0.04233 0.0212 0 0.0317 0.05292 0.0317 0.08467 0.0317 0.23283 0.0318 0.65616 0.11642 0.65616 0.41275 0.01058 0.127 0.05292 0.23283 0.16933 0.29633 0.05292 0.0318 0.08467 0.0953 0.10583 0.15875 0.05292 0.15875 0.09525 0.3175 0.08467 0.48683 0 0.28575-0.20108 0.40217-0.46567 0.40217-0.32808 0-0.64558-0.0106-0.94191-0.17992-0.10583-0.0529-0.15875-0.13758-0.1905-0.24341-0.04233-0.14817-0.04233-0.29633-0.01058-0.4445 0.02117-0.10583 0.0635-0.14817 0.16933-0.15875 0.11642-0.0106 0.22225-0.0212 0.33866-0.0212 0.07408 0 0.15875 0.0106 0.23283 0.0106h0.09525c0.03175 0 0.07408 0 0.10583-0.0106-0.03175-0.0317-0.0635-0.0317-0.08467-0.0317-0.16933-0.0318-0.32808-0.0952-0.48683-0.16933-0.03175-0.0106-0.04233-0.0317-0.05292-0.0635-0.07408-0.13758-0.10583-0.28575-0.16933-0.42333-0.02117-0.0529-0.04233-0.0952-0.10583-0.10583-0.30692-0.0635-0.66675-0.17992-0.66675-0.55034 0.01058-0.13758 0.05292-0.53974 0.127-0.65616 0.02117-0.0423 0.01058-0.0741-0.01058-0.11642-0.22225-0.42333-0.46567-0.83608-0.762-1.2171-0.02117-0.0212-0.04233-0.0423-0.0635-0.0635-0.03175-0.0318-0.03175-0.0635-0.01058-0.10583 0.15875-0.29633 0.48683-0.61383 0.84666-0.61383 0.51858 0 0.80433 0.70908 0.9525 1.1112 0.13758 0.34924 0.24342 0.70908 0.35983 1.0689 0.01058 0.0317 0.02117 0.0635 0.03175 0.0952s0 0.0423-0.03175 0.0317c-0.0635-0.0212-0.127-0.0317-0.1905-0.0529-0.01058 0-0.03175-0.0106-0.04233 0-0.01058 0.0212 0.01058 0.0317 0.02117 0.0423 0.22225 0.15874 0.46566 0.26458 0.74083 0.28574 0.02117 0 0.04233 0.0106 0.05292-0.0106 0.01058-0.0212-0.01058-0.0423-0.02117-0.0529-0.20108-0.34924-0.48683-0.99483-0.508-1.4076-0.02117-0.29634-0.01058-0.58209 0.16933-0.83609 0.13758-0.21166 0.32808-0.26458 0.5715-0.26458 0.1905 0.0106 0.34925 0.0847 0.49742 0.20109 0.03175 0.0317 0.04233 0.0635 0.03175 0.10583-0.04233 0.20108-0.0635 0.40216-0.05292 0.60325 0.01058 0.53974 0.13758 0.94191 0.30692 1.4393 0.03175 0.0952 0.09525 0.15874 0.17992 0.20108 0.03175 0.0212 0.0635 0.0423 0.09525 0.0635 0.14817 0.0847 0.20108 0.22225 0.21167 0.381 0.01058 0.0847 0.01058 0.16933 0.01058 0.254 0 0.20108 0.3175 0.57149 0.46566 0.67733 0.20108 0.14816 0.28575 0.35983 0.3175 0.60324 0.01058 0.0952 0.01058 0.1905-0.01058 0.28575z" fill="url(#a)"/></g><g stroke-width=".26458"><path d="m72.88 140.18c0.0635 0.16933 0.13758 0.32808 0.21167 0.47625l0.0635 0.127c0.08467 0.17991 0.1905 0.35983 0.3175 0.56091 0.09525 0.14817 0.22225 0.1905 0.30692 0.20108 0.10583 0 0.17992-0.0106 0.27517-0.0635 0.15875 0.0635 0.28575 0.17992 0.381 0.30692 0.03175 0.0423 0.0635 0.0847 0.10583 0.127 0.381 0.41275 0.66675 0.92075 0.86783 1.4287-0.0635 0.0318-0.127 0.0741-0.17992 0.127-0.22225 0.22225-0.29633 0.56092-0.20108 0.92075 0.11642 0.4445 0.42333 1.1642 0.96308 1.1642 0.07408 0 0.14817-0.0212 0.21167-0.0529l0.03175-0.0317c0.02117-0.0106 0.05292-0.0212 0.0635-0.0212 0.11642-0.0317 0.24342-0.0529 0.39158-0.0529 0.0635 0 0.127 0.0106 0.20108 0.0106h0.11642c0.07408 0.0106 0.15875 0.0212 0.254 0.0212 0.15875-0.0106 0.29633-0.0741 0.39158-0.17991 0.07408-0.0847 0.15875-0.23283 0.13758-0.47625h-0.01058v-0.0318c-0.02117-0.45508-0.16933-1.0901-0.59266-1.3441-0.10583-0.635-0.28575-1.5557-0.58208-2.1378 0.43392 0 0.79375-0.24341 0.889-0.67733 0.04233-0.1905 0.04233-0.381 0.03175-0.53975-0.01058-0.32808-0.15875-1.1747-0.60325-1.1747-0.07408 0-0.254 0.0212-0.37042 0.22225-0.01058 0.0212-0.02117 0.0318-0.02117 0.0318-0.05292 0.0529-0.11642 0.0741-0.21167 0.0847-0.3175 0-0.5715-0.0847-0.84666-0.24341-0.11642-0.0635-0.23283-0.14817-0.35983-0.23283l-0.28575-0.1905c-0.34925-0.22225-0.70908-0.32809-1.0583-0.32809-0.66675 0-0.98425 0.43392-1.0372 1.0901-0.02117 0.32809 0.0635 0.64558 0.14817 0.87842z"/><path d="m73.081 139.35c0.03175-0.40217 0.1905-0.68792 0.508-0.73025 0.05292-0.0106 0.10583-0.0106 0.15875-0.0106 0.29633 0 0.58208 0.0952 0.86783 0.27516 0.22225 0.13758 0.43392 0.29633 0.65616 0.42333 0.35983 0.20109 0.65616 0.28575 1.0583 0.28575 0.15875-0.0106 0.30692-0.0635 0.43392-0.17991 0.04233-0.0317 0.07408-0.0741 0.10583-0.11642 0.01058-0.0212 0.02117-0.0318 0.03175-0.0318 0 0 0.01058 0.0106 0.02117 0.0318 0.127 0.24342 0.20108 0.49742 0.21167 0.77258 0.01058 0.14817 0.01058 0.29633-0.02117 0.43392-0.0635 0.28575-0.30692 0.37041-0.5715 0.37041-0.07408 0-0.13758-0.0106-0.21167-0.0212-0.16933-0.0317-0.33867-0.0635-0.508-0.0847h-0.04233-0.03175c0.0635 0.0635 0.127 0.10583 0.17992 0.16933 0.48683 0.508 0.83608 2.0002 0.87841 2.6564 0 0.0529 0.01058 0.0847 0.05292 0.0952 0.381 0.0635 0.508 0.77258 0.51858 1.0689v0.0635c0.01058 0.14817-0.05292 0.23284-0.16933 0.24342-0.10583 0-0.21167-0.0212-0.3175-0.0212-0.08467 0-0.16933-0.0106-0.254-0.0106-0.27517 0-0.39158 0.0423-0.62442 0.13758-0.01058 0.0106-0.03175 0.0212-0.05292 0.0212-0.01058 0-0.03175-0.0106-0.05292-0.0212-0.29633-0.127-0.46566-0.58208-0.52916-0.86783-0.0635-0.23283-0.02117-0.43391 0.10583-0.56091 0.05292-0.0529 0.11642-0.0847 0.17992-0.0847 0.07408 0 0.15875 0.0423 0.24342 0.127 0.02117 0.0212 0.03175 0.0529 0.0635 0.0635-0.01058-0.0741-0.03175-0.127-0.05292-0.17992-0.1905-0.56091-0.43392-1.0795-0.75141-1.5452-0.16933-0.22225-0.381-0.49741-0.58208-0.6985-0.13758-0.127-0.28575-0.23283-0.4445-0.28575-0.05292-0.0212-0.10583-0.0318-0.15875-0.0318-0.03175 0-0.0635 0-0.08467 0.0106-0.03175 0.0106-0.0635 0.0212-0.08467 0.0423-0.01058 0.0106-0.02117 0.0212-0.03175 0.0212-0.02117 0-0.03175-0.0106-0.04233-0.0317-0.21167-0.3175-0.41275-0.70908-0.52916-1.0795-0.08467-0.23283-0.14817-0.48683-0.127-0.71966z" fill="url(#a)"/><path d="m73.939 140.52c0.01058 0.0317 0.04233 0.0317 0.0635 0.0423 0.28575 0.15875 0.55033 0.37041 0.80433 0.62441l0.1905 0.1905c-0.01058-0.0212-0.02117-0.0423-0.03175-0.0529-0.07408-0.17991-0.15875-0.34925-0.254-0.51858l0.03175 0.0317c-0.01058-0.0106-0.02117-0.0212-0.01058-0.0423 0.01058-0.0212 0.03175-0.0106 0.04233-0.0106 0.02117 0.0106 0.03175 0.0106 0.05292 0.0106 0.03175 0 0.07408-0.0106 0.10583-0.0106 0.01058 0 0.02117 0 0.02117-0.0212s-0.01058-0.0212-0.02117-0.0318c-0.14817-0.10583-0.29633-0.22225-0.45508-0.29633-0.08467-0.0423-0.16933-0.0635-0.24342-0.0635-0.09525 0-0.17992 0.0317-0.254 0.0952-0.02117 0.0106-0.05292 0.0212-0.04233 0.0529z"/></g></g></svg>
