<?xml version="1.0" encoding="UTF-8" standalone="no"?>
<svg
   xmlns:dc="http://purl.org/dc/elements/1.1/"
   xmlns:cc="http://creativecommons.org/ns#"
   xmlns:rdf="http://www.w3.org/1999/02/22-rdf-syntax-ns#"
   xmlns:svg="http://www.w3.org/2000/svg"
   xmlns="http://www.w3.org/2000/svg"
   xmlns:xlink="http://www.w3.org/1999/xlink"
   xmlns:sodipodi="http://sodipodi.sourceforge.net/DTD/sodipodi-0.dtd"
   xmlns:inkscape="http://www.inkscape.org/namespaces/inkscape"
   width="30.127647mm"
   height="10.238829mm"
   viewBox="0 0 30.127647 10.238829"
   version="1.1"
   id="svg2443"
   inkscape:version="1.0.2 (1.0.2+r75+1)"
   sodipodi:docname="what-we-do.svg">
  <defs
     id="defs2437">
    <linearGradient
       inkscape:collect="always"
       id="linearGradient7219">
      <stop
         style="stop-color:#00ff93;stop-opacity:1;"
         offset="0"
         id="stop7215" />
      <stop
         style="stop-color:#ebff00;stop-opacity:1"
         offset="1"
         id="stop7217" />
    </linearGradient>
    <linearGradient
       inkscape:collect="always"
       id="linearGradient7213">
      <stop
         style="stop-color:#00ff93;stop-opacity:1;"
         offset="0"
         id="stop7209" />
      <stop
         style="stop-color:#ebff00;stop-opacity:1"
         offset="1"
         id="stop7211" />
    </linearGradient>
    <linearGradient
       inkscape:collect="always"
       id="linearGradient7207">
      <stop
         style="stop-color:#00ff93;stop-opacity:1;"
         offset="0"
         id="stop7203" />
      <stop
         style="stop-color:#ebff00;stop-opacity:1"
         offset="1"
         id="stop7205" />
    </linearGradient>
    <linearGradient
       inkscape:collect="always"
       id="linearGradient7201">
      <stop
         style="stop-color:#00ff93;stop-opacity:1;"
         offset="0"
         id="stop7197" />
      <stop
         style="stop-color:#ebff00;stop-opacity:1"
         offset="1"
         id="stop7199" />
    </linearGradient>
    <linearGradient
       inkscape:collect="always"
       id="linearGradient7195">
      <stop
         style="stop-color:#00ff93;stop-opacity:1;"
         offset="0"
         id="stop7191" />
      <stop
         style="stop-color:#ebff00;stop-opacity:1"
         offset="1"
         id="stop7193" />
    </linearGradient>
    <linearGradient
       inkscape:collect="always"
       id="linearGradient7189">
      <stop
         style="stop-color:#00ff93;stop-opacity:1;"
         offset="0"
         id="stop7185" />
      <stop
         style="stop-color:#ebff00;stop-opacity:1"
         offset="1"
         id="stop7187" />
    </linearGradient>
    <linearGradient
       inkscape:collect="always"
       id="linearGradient7183">
      <stop
         style="stop-color:#00ff93;stop-opacity:1;"
         offset="0"
         id="stop7179" />
      <stop
         style="stop-color:#ebff00;stop-opacity:1"
         offset="1"
         id="stop7181" />
    </linearGradient>
    <linearGradient
       inkscape:collect="always"
       id="linearGradient7161">
      <stop
         style="stop-color:#00ff93;stop-opacity:1;"
         offset="0"
         id="stop7157" />
      <stop
         style="stop-color:#ebff00;stop-opacity:1"
         offset="1"
         id="stop7159" />
    </linearGradient>
    <linearGradient
       inkscape:collect="always"
       xlink:href="#linearGradient7161"
       id="linearGradient7163"
       x1="-182.48868"
       y1="-56.96822"
       x2="-182.48868"
       y2="-49.899082"
       gradientUnits="userSpaceOnUse" />
    <linearGradient
       inkscape:collect="always"
       xlink:href="#linearGradient7219"
       id="linearGradient7165"
       x1="-182.48868"
       y1="-56.96822"
       x2="-182.48868"
       y2="-49.899082"
       gradientUnits="userSpaceOnUse" />
    <linearGradient
       inkscape:collect="always"
       xlink:href="#linearGradient7213"
       id="linearGradient7167"
       x1="-182.48868"
       y1="-56.96822"
       x2="-182.48868"
       y2="-49.899082"
       gradientUnits="userSpaceOnUse" />
    <linearGradient
       inkscape:collect="always"
       xlink:href="#linearGradient7207"
       id="linearGradient7169"
       x1="-182.48868"
       y1="-56.96822"
       x2="-182.48868"
       y2="-49.899082"
       gradientUnits="userSpaceOnUse" />
    <linearGradient
       inkscape:collect="always"
       xlink:href="#linearGradient7201"
       id="linearGradient7171"
       x1="-182.48868"
       y1="-56.96822"
       x2="-182.48868"
       y2="-49.899082"
       gradientUnits="userSpaceOnUse" />
    <linearGradient
       inkscape:collect="always"
       xlink:href="#linearGradient7195"
       id="linearGradient7173"
       x1="-182.48868"
       y1="-56.96822"
       x2="-182.48868"
       y2="-49.899082"
       gradientUnits="userSpaceOnUse" />
    <linearGradient
       inkscape:collect="always"
       xlink:href="#linearGradient7189"
       id="linearGradient7175"
       x1="-182.48868"
       y1="-56.96822"
       x2="-182.48868"
       y2="-49.899082"
       gradientUnits="userSpaceOnUse" />
    <linearGradient
       inkscape:collect="always"
       xlink:href="#linearGradient7183"
       id="linearGradient7177"
       x1="-182.48868"
       y1="-56.96822"
       x2="-182.48868"
       y2="-49.899082"
       gradientUnits="userSpaceOnUse" />
  </defs>
  <sodipodi:namedview
     id="base"
     pagecolor="#ffffff"
     bordercolor="#666666"
     borderopacity="1.0"
     inkscape:pageopacity="0.0"
     inkscape:pageshadow="2"
     inkscape:zoom="7.5425786"
     inkscape:cx="67.965448"
     inkscape:cy="30.142655"
     inkscape:document-units="mm"
     inkscape:current-layer="layer1"
     inkscape:document-rotation="0"
     showgrid="false"
     inkscape:pagecheckerboard="true"
     inkscape:showpageshadow="false"
     fit-margin-top="0"
     fit-margin-left="0"
     fit-margin-right="0"
     fit-margin-bottom="0"
     inkscape:window-width="1920"
     inkscape:window-height="1010"
     inkscape:window-x="1440"
     inkscape:window-y="0"
     inkscape:window-maximized="1"
     objecttolerance="1"
     guidetolerance="1" />
  <metadata
     id="metadata2440">
    <rdf:RDF>
      <cc:Work
         rdf:about="">
        <dc:format>image/svg+xml</dc:format>
        <dc:type
           rdf:resource="http://purl.org/dc/dcmitype/StillImage" />
        <dc:title></dc:title>
      </cc:Work>
    </rdf:RDF>
  </metadata>
  <g
     inkscape:label="Layer 1"
     inkscape:groupmode="layer"
     id="layer1"
     transform="translate(199.70555,58.714451)">
    <g
       id="g7061" />
    <g
       id="g7243">
      <path
         style="font-size:10.5833px;line-height:1.25;font-family:'Rebeland Outline';-inkscape-font-specification:'Rebeland Outline';stroke-width:0.264583"
         d="m -193.35392,-52.703133 -0.0318,-0.03175 c -0.0423,-0.05292 -0.0847,-0.105833 -0.11641,-0.158749 -0.5715,-0.793748 -1.016,-2.053161 -1.15358,-3.026824 -0.0635,-0.412749 -0.0847,-0.751414 -0.0635,-1.05833 0.0106,-0.179916 -0.0318,-0.328082 -0.127,-0.486832 -0.22225,-0.349249 -0.6985,-0.89958 -1.16416,-0.89958 -0.5715,0 -0.73025,0.486831 -0.762,0.96308 -0.0106,0.243416 0.0212,0.476248 0.0529,0.698498 0.0423,0.338665 0.10584,0.645581 0.20109,0.93133 -0.13759,0 -0.26459,0.03175 -0.37042,0.07408 -0.0317,0.01058 -0.0635,0.02117 -0.0847,0.04233 -0.13759,-0.402165 -0.28575,-0.793747 -0.43392,-1.174746 -0.16933,-0.412749 -0.3175,-0.751414 -0.51858,-1.068913 -0.13758,-0.201083 -0.39158,-0.497415 -0.66675,-0.497415 -0.27517,0 -0.56091,0.275166 -0.70908,0.486832 -0.23283,0.317499 -0.35983,0.719664 -0.40217,1.269995 -0.0212,0.317499 0.17992,0.455082 0.26459,0.497416 0.0952,0.04233 0.254,0.243415 0.3175,0.328082 l 0.0318,0.03175 c 0.79374,0.99483 1.39699,2.688158 1.52399,3.958154 0.0423,0.423332 0.60325,0.656164 0.97366,0.656164 0.22225,-0.01058 0.635,-0.105833 0.83608,-0.656164 0.0212,-0.07408 0.0423,-0.148166 0.0635,-0.222249 0.28575,0.402165 0.79375,0.80433 1.30175,0.80433 0.60325,0 1.10066,-0.476248 1.18533,-1.05833 0.0317,-0.158749 -0.0106,-0.306915 -0.10583,-0.423332 z"
         id="path6986" />
      <path
         style="font-size:10.5833px;line-height:1.25;font-family:'Rebeland Outline';-inkscape-font-specification:'Rebeland Outline';fill:url(#linearGradient7163);fill-opacity:1;stroke-width:0.264583"
         d="m -193.57617,-52.364467 c -0.0741,0.370415 -0.30691,0.687914 -0.69849,0.751414 -0.0423,0.01058 -0.0741,0.01058 -0.11642,0.01058 -0.81491,0 -1.41816,-1.259413 -1.57691,-1.979077 -0.0212,-0.105833 -0.0635,-0.211666 -0.11642,-0.306916 -0.0212,-0.03175 -0.0423,-0.05292 -0.0741,-0.07408 0,0.03175 0.0106,0.0635 0.0212,0.09525 0.0529,0.190499 0.0529,0.380999 0.0741,0.571498 0.0212,0.211666 0.0318,0.423332 0.0529,0.634998 0.0212,0.264583 -0.0106,0.497415 -0.0952,0.719665 -0.0952,0.264582 -0.254,0.391582 -0.48684,0.402165 -0.17991,0 -0.34924,-0.07408 -0.50799,-0.211666 -0.0317,-0.02117 -0.0529,-0.05292 -0.0529,-0.105833 -0.15875,-1.492245 -0.80433,-3.312573 -1.79916,-4.455569 -0.0741,-0.08467 -0.15875,-0.15875 -0.24342,-0.201083 -0.0529,-0.02117 -0.0635,-0.05292 -0.0635,-0.116416 0.0317,-0.444499 0.20109,-1.227663 0.6985,-1.407579 0.0212,0 0.0318,-0.01058 0.0529,-0.01058 0.0212,0 0.0423,0.01058 0.0635,0.02117 0.45508,0.275166 1.09008,2.21191 1.26999,2.772825 0.0847,0.275166 0.13759,0.560915 0.1905,0.846664 0.0212,0.105833 0.0423,0.211666 0.0635,0.317499 0.0423,-0.179916 -0.0106,-0.380999 -0.0106,-0.571498 0,-0.1905 0.0106,-0.380999 0.0635,-0.550332 0.0317,-0.09525 0.0952,-0.148166 0.16933,-0.179916 0.0635,-0.03175 0.127,-0.04233 0.1905,-0.04233 0.16933,0 0.33867,0.105833 0.49742,0.264582 0.10583,0.105833 0.17991,0.243416 0.26458,0.359832 0.0529,0.07408 0.10583,0.137583 0.17991,0.179916 -0.0212,-0.04233 -0.0423,-0.08467 -0.0635,-0.116416 -0.35983,-0.634998 -0.59266,-1.333496 -0.69849,-2.05316 -0.0317,-0.211666 -0.0529,-0.423332 -0.0423,-0.634998 0.0212,-0.253999 0.0741,-0.603248 0.40217,-0.603248 0.0635,0 0.11641,0.02117 0.17991,0.05292 0.254,0.15875 0.47625,0.380999 0.65617,0.677332 0.0529,0.08467 0.0741,0.158749 0.0635,0.264582 -0.0212,0.380999 0.0106,0.761998 0.0741,1.142996 0.15875,1.079497 0.67733,2.550576 1.38641,3.407823 0.0318,0.03175 0.0423,0.07408 0.0318,0.116416 z"
         id="path7021" />
      <path
         style="font-size:10.5833px;line-height:1.25;font-family:'Rebeland Outline';-inkscape-font-specification:'Rebeland Outline';stroke-width:0.264583"
         d="m -189.82833,-52.506199 c -0.0423,-0.380999 -0.20108,-0.677331 -0.46566,-0.878414 -0.10584,-0.07408 -0.1905,-0.179916 -0.28575,-0.338665 -0.0106,-0.02117 -0.0212,-0.03175 -0.0212,-0.04233 0,-0.09525 0,-0.179916 -0.0106,-0.264582 -0.0212,-0.380999 -0.22225,-0.582082 -0.39158,-0.677331 -0.0106,-0.01058 -0.0212,-0.02117 -0.0317,-0.03175 -0.0212,-0.01058 -0.0529,-0.03175 -0.0847,-0.05292 -0.0212,-0.0635 -0.0423,-0.126999 -0.0635,-0.190499 -0.0106,-0.02117 -0.0212,-0.04233 -0.0318,-0.0635 -0.11642,-0.338665 -0.17992,-0.698498 -0.1905,-1.079496 -0.0106,-0.15875 0,-0.328083 0.0317,-0.507999 0.0423,-0.190499 -0.0212,-0.370415 -0.17992,-0.486832 -0.25399,-0.179916 -0.48683,-0.275165 -0.80433,-0.275165 -0.52916,0 -0.82549,0.306915 -0.99483,0.77258 -0.22225,-0.412748 -0.51858,-0.77258 -1.03716,-0.77258 -0.508,0 -0.97366,0.391582 -1.19591,0.825497 -0.0953,0.201083 -0.0529,0.423332 0.11641,0.560915 0.254,0.328082 0.48684,0.687914 0.67733,1.05833 0,0.01058 0,0.02117 0,0.02117 v 0.01058 c -0.0635,0.232832 -0.0741,0.465665 -0.0847,0.634998 -0.0106,0.253999 0.0847,0.476248 0.26458,0.624414 0.15875,0.127 0.33867,0.211666 0.53975,0.254 0.0106,0 0.0212,0 0.0317,0 0.0106,0.02117 0.0212,0.04233 0.0318,0.0635 0.0106,0.03175 0.0212,0.0635 0.0317,0.09525 -0.13758,0.07408 -0.23283,0.201083 -0.27517,0.380999 -0.0529,0.222249 -0.0423,0.433915 0.0212,0.634998 0.20108,0.624415 0.93133,0.698498 1.48166,0.698498 0.24342,0 0.53975,-0.09525 0.6985,-0.285749 0.0635,0.04233 0.127,0.08467 0.20108,0.116416 0.32808,0.158749 0.78317,0.179916 1.13242,0.179916 0.38099,0 0.76199,-0.190499 0.82549,-0.603248 0.0318,-0.15875 0.0212,-0.306916 0.0106,-0.402166 z"
         id="path6988" />
      <path
         style="font-size:10.5833px;line-height:1.25;font-family:'Rebeland Outline';-inkscape-font-specification:'Rebeland Outline';fill:url(#linearGradient7165);fill-opacity:1;stroke-width:0.264583"
         d="m -190.26224,-52.1887 c -0.0212,0.211666 -0.27517,0.285749 -0.45508,0.285749 -0.4445,0 -1.15358,0 -1.31233,-0.529165 -0.0423,-0.158749 -0.0529,-0.317499 -0.0635,-0.476248 0,-0.127 0.13758,-0.137583 0.23283,-0.137583 0.0106,0 0.0212,0 0.0318,-0.01058 0,-0.02117 -0.0106,-0.02117 -0.0212,-0.03175 -0.0635,-0.03175 -0.127,-0.07408 -0.17991,-0.116417 -0.0317,-0.03175 -0.0529,-0.0635 -0.0635,-0.105833 -0.0212,-0.126999 -0.0529,-0.317499 -0.21167,-0.317499 -0.0847,0 -0.16933,-0.01058 -0.254,-0.02117 -0.127,-0.02117 -0.254,-0.03175 -0.381,-0.03175 -0.0741,0 -0.13758,0 -0.21166,0 -0.0318,0 -0.0741,0 -0.10584,0 -0.0106,0 -0.0318,0 -0.0423,0 -0.0212,0 -0.0423,0 -0.0423,0.02117 0,0.03175 0.0529,0.03175 0.0847,0.03175 0.23284,0.03175 0.65617,0.116417 0.65617,0.412749 0.0106,0.127 0.0529,0.232833 0.16933,0.296332 0.0529,0.03175 0.0847,0.09525 0.10583,0.15875 0.0529,0.158749 0.0952,0.317499 0.0847,0.486832 0,0.285749 -0.20108,0.402165 -0.46567,0.402165 -0.32808,0 -0.64558,-0.01058 -0.94191,-0.179916 -0.10583,-0.05292 -0.15875,-0.137583 -0.1905,-0.243416 -0.0423,-0.148166 -0.0423,-0.296332 -0.0106,-0.444499 0.0212,-0.105833 0.0635,-0.148166 0.16933,-0.158749 0.11642,-0.01058 0.22225,-0.02117 0.33867,-0.02117 0.0741,0 0.15875,0.01058 0.23283,0.01058 0.0318,0 0.0635,0 0.0952,0 0.0318,0 0.0741,0 0.10583,-0.01058 -0.0317,-0.03175 -0.0635,-0.03175 -0.0847,-0.03175 -0.16934,-0.03175 -0.32809,-0.09525 -0.48684,-0.169332 -0.0317,-0.01058 -0.0423,-0.03175 -0.0529,-0.0635 -0.0741,-0.137583 -0.10584,-0.285749 -0.16934,-0.423332 -0.0212,-0.05292 -0.0423,-0.09525 -0.10583,-0.105833 -0.30691,-0.0635 -0.66675,-0.179916 -0.66675,-0.550332 0.0106,-0.137583 0.0529,-0.539748 0.127,-0.656164 0.0212,-0.04233 0.0106,-0.07408 -0.0106,-0.116417 -0.22225,-0.423332 -0.46566,-0.83608 -0.762,-1.217079 -0.0212,-0.02117 -0.0423,-0.04233 -0.0635,-0.0635 -0.0317,-0.03175 -0.0317,-0.0635 -0.0106,-0.105833 0.15875,-0.296332 0.48683,-0.613831 0.84666,-0.613831 0.51859,0 0.80433,0.709081 0.9525,1.111246 0.13758,0.349249 0.24342,0.709081 0.35983,1.068914 0.0106,0.03175 0.0212,0.0635 0.0317,0.09525 0.0106,0.03175 0,0.04233 -0.0317,0.03175 -0.0635,-0.02117 -0.127,-0.03175 -0.1905,-0.05292 -0.0106,0 -0.0317,-0.01058 -0.0423,0 -0.0106,0.02117 0.0106,0.03175 0.0212,0.04233 0.22225,0.158749 0.46566,0.264582 0.74083,0.285749 0.0212,0 0.0423,0.01058 0.0529,-0.01058 0.0106,-0.02117 -0.0106,-0.04233 -0.0212,-0.05292 -0.20109,-0.349249 -0.48683,-0.99483 -0.508,-1.407579 -0.0212,-0.296332 -0.0106,-0.582081 0.16933,-0.83608 0.13758,-0.211666 0.32808,-0.264583 0.5715,-0.264583 0.1905,0.01058 0.34925,0.08467 0.49742,0.201083 0.0317,0.03175 0.0423,0.0635 0.0317,0.105833 -0.0423,0.201082 -0.0635,0.402165 -0.0529,0.603248 0.0106,0.539748 0.13758,0.941914 0.30691,1.439329 0.0317,0.09525 0.0952,0.158749 0.17992,0.201082 0.0317,0.02117 0.0635,0.04233 0.0952,0.0635 0.14817,0.08467 0.20108,0.222249 0.21167,0.380999 0.0106,0.08467 0.0106,0.169333 0.0106,0.253999 0,0.201083 0.3175,0.571498 0.46566,0.677331 0.20109,0.148166 0.28575,0.359832 0.3175,0.603248 0.0106,0.09525 0.0106,0.1905 -0.0106,0.285749 z"
         id="path7025" />
      <path
         style="font-size:10.5833px;line-height:1.25;font-family:'Rebeland Outline';-inkscape-font-specification:'Rebeland Outline';stroke-width:0.264583"
         d="m -187.40413,-53.539368 c -0.0635,-0.02117 -0.11642,-0.04233 -0.16934,-0.05292 -0.0847,-0.02117 -0.15875,-0.04233 -0.23283,-0.0635 0,-0.01058 -0.0106,-0.02117 -0.0212,-0.03175 -0.0423,-0.08467 -0.0741,-0.179916 -0.0953,-0.275165 -0.0529,-0.275166 -0.0741,-0.560915 -0.0952,-0.867831 -0.0106,-0.09525 -0.0212,-0.190499 -0.0317,-0.285749 0,-0.02117 0,-0.05292 0,-0.08467 0,-1.079496 -0.94192,-1.418162 -1.80975,-1.682744 -0.3175,-0.09525 -0.61383,-0.1905 -0.889,-0.328082 -0.0741,-0.03175 -0.14816,-0.05292 -0.22224,-0.05292 -0.381,0 -0.59267,0.560915 -0.68792,0.857247 -0.0741,0.232833 -0.0847,0.455082 -0.0847,0.656165 0,0.264582 0.11642,0.486832 0.3175,0.634998 -0.0106,0.0635 -0.0106,0.126999 -0.0106,0.201083 0.0106,0.126999 0.0423,0.243415 0.10583,0.370415 0.0212,0.05292 0.0529,0.105833 0.0847,0.15875 0.22225,0.402165 0.41275,0.825497 0.45508,1.280579 v 0.05292 c 0.0106,0.08467 0.0106,0.15875 0,0.211666 -0.0106,0.07408 -0.0317,0.148166 -0.0635,0.22225 -0.10583,0.201082 -0.0741,0.402165 0.0847,0.571498 0.27516,0.275166 0.8255,0.476248 1.22766,0.476248 0.16933,0 0.33867,-0.03175 0.51858,-0.09525 0.127,-0.05292 0.23283,-0.127 0.30692,-0.22225 0.0529,0.03175 0.10583,0.0635 0.16933,0.08467 0.14817,0.0635 0.29633,0.09525 0.4445,0.09525 0.508,0 0.92075,-0.444498 1.06891,-0.89958 0.11642,-0.338666 -0.0635,-0.730248 -0.39158,-0.857247 z"
         id="path6990" />
      <path
         style="font-size:10.5833px;line-height:1.25;font-family:'Rebeland Outline';-inkscape-font-specification:'Rebeland Outline';fill:url(#linearGradient7167);fill-opacity:1;stroke-width:0.264583"
         d="m -187.38293,-52.724453 c -0.10583,0.306915 -0.38099,0.645581 -0.74083,0.645581 -0.5715,0 -0.89958,-0.613832 -1.06891,-1.09008 -0.0212,-0.05292 -0.0318,-0.105833 -0.0318,-0.15875 0,-0.105833 0.0423,-0.190499 0.127,-0.253999 0.0212,-0.02117 0.0423,-0.04233 0.0635,-0.0635 0,-0.01058 0,-0.02117 0,-0.03175 0,-0.01058 -0.0106,0 -0.0212,0 -0.0106,0 -0.0212,0 -0.0317,0 -0.10583,0.03175 -0.20108,0.05292 -0.30691,0.05292 -0.11642,0 -0.24342,-0.02117 -0.35984,-0.05292 -0.0212,0 -0.0423,-0.01058 -0.0635,0 0.0212,0.04233 0.0635,0.0635 0.0952,0.08467 0.23284,0.158749 0.3175,0.349249 0.39159,0.603248 0.0741,0.201083 0.16933,0.391582 0.28575,0.571498 0.10583,0.169333 0.0635,0.328083 -0.127,0.402166 -0.127,0.05292 -0.26459,0.08467 -0.40217,0.08467 -0.0529,0 -0.11642,-0.01058 -0.17992,-0.02117 -0.22224,-0.05292 -0.44449,-0.116416 -0.63499,-0.243415 -0.0423,-0.03175 -0.0847,-0.0635 -0.11642,-0.09525 -0.0529,-0.05292 -0.0529,-0.07408 -0.0212,-0.137583 0.0529,-0.105833 0.0952,-0.211666 0.11642,-0.328082 0.0212,-0.105833 0.0106,-0.211666 0,-0.317499 -0.0212,-0.306916 -0.10583,-0.603248 -0.22225,-0.888997 -0.0952,-0.232833 -0.22225,-0.455082 -0.33866,-0.677332 -0.0423,-0.07408 -0.0741,-0.148166 -0.0847,-0.232832 -0.0106,-0.08467 0,-0.15875 0.0106,-0.243416 0.0106,-0.03175 0.0317,-0.03175 0.0635,-0.03175 0.10583,0.01058 0.21167,0.02117 0.32808,0.05292 -0.0318,-0.04233 -0.0635,-0.05292 -0.0953,-0.0635 -0.11641,-0.05292 -0.23283,-0.105833 -0.34924,-0.15875 -0.16934,-0.07408 -0.254,-0.211666 -0.254,-0.391582 0,-0.402165 0.0953,-0.761998 0.33866,-1.09008 0.0212,-0.03175 0.0423,-0.04233 0.0635,-0.04233 0.0106,0 0.0317,0 0.0423,0.01058 0.40216,0.201083 0.83608,0.306916 1.25941,0.444499 0.55033,0.190499 1.02658,0.380999 1.20649,0.99483 0.0317,0.116416 0.0212,0.232833 0.0317,0.349249 0.0318,0.402165 0.0423,0.814914 0.127,1.217079 0.0212,0.127 0.0635,0.243416 0.11642,0.359833 0,0.01058 0.0106,0.02117 0,0.03175 -0.0106,0.01058 -0.0212,0 -0.0318,0 -0.0423,-0.01058 -0.0847,-0.02117 -0.13758,-0.03175 0.0952,0.126999 0.51858,0.243415 0.66674,0.285749 0.0423,0.01058 0.0847,0.02117 0.127,0.04233 0.127,0.05292 0.22225,0.232832 0.16934,0.391582 z"
         id="path7029" />
      <path
         style="font-size:10.5833px;line-height:1.25;font-family:'Rebeland Outline';-inkscape-font-specification:'Rebeland Outline';fill:#000000;fill-opacity:1;stroke-width:0.264583"
         d="m -189.46784,-54.290782 c -0.0529,-0.07408 -0.0847,-0.148166 -0.0529,-0.243416 0,0 0.0106,-0.105833 0.0106,-0.137583 0,-0.03175 0,-0.0635 -0.0106,-0.09525 -0.0106,-0.0635 -0.0635,-0.116417 -0.127,-0.127 -0.0423,-0.01058 -0.10584,0.03175 -0.127,0.08467 -0.0423,0.126999 -0.0423,0.253999 0.0318,0.370415 0.0635,0.09525 0.15875,0.15875 0.26458,0.211666 0.0106,0.01058 0.0317,0.02117 0.0423,0 0.0106,-0.01058 0,-0.02117 -0.0106,-0.03175 -0.0106,-0.01058 -0.0212,-0.02117 -0.0317,-0.03175 z"
         id="path7031" />
      <path
         style="font-size:10.5833px;line-height:1.25;font-family:'Rebeland Outline';-inkscape-font-specification:'Rebeland Outline';fill:#00000f;fill-opacity:1;stroke-width:0.264583"
         d="m -184.24358,-56.57442 c -0.0493,-0.133164 -0.15578,-0.230014 -0.29023,-0.266049 -0.18936,-0.02076 -0.25825,0.02492 -0.39834,0.13732 -0.0794,0.04453 -0.17755,0.06571 -0.29443,0.06354 -0.32612,-0.03576 -0.57169,-0.126562 -0.85241,-0.285101 -0.0994,-0.06414 -0.19772,-0.138792 -0.30653,-0.214602 -0.37208,-0.296316 -0.74403,-0.496797 -1.22796,-0.549855 -0.57862,-0.06344 -1.01774,0.154582 -1.22962,0.727568 -0.10595,0.28649 -0.074,0.577458 -0.0422,0.772589 0.0259,0.151893 0.0752,0.285061 0.11397,0.417071 0.007,0.03272 0.0142,0.06543 0.0212,0.09815 0.0775,0.26402 0.22421,0.674032 0.53982,0.708635 0.0631,0.0069 0.13907,-0.006 0.20566,-0.03069 0.0105,0.0012 0.0211,0.0023 0.0409,0.01513 0.0819,0.03027 0.16025,0.09209 0.25623,0.187793 0.0199,0.01283 0.048,0.04784 0.0656,0.08172 0.0281,0.03502 0.0562,0.07004 0.0948,0.106217 0.26458,0.305823 0.43102,0.632827 0.55897,1.01949 -0.0549,0.01528 -0.11097,0.04107 -0.16703,0.06686 -0.28261,0.150009 -0.44231,0.441255 -0.41494,0.774304 0.0369,0.440561 0.25862,1.039794 0.7636,1.095159 0.0631,0.0069 0.12739,0.0033 0.18231,-0.01195 l 0.0432,-0.0059 c 0.0328,-0.0071 0.0654,-0.01412 0.0865,-0.01181 0.1297,-0.01772 0.2571,-0.0144 0.40438,0.0018 0.0737,0.0081 0.14613,0.02667 0.23029,0.03589 0.042,0.0046 0.0842,0.0092 0.12624,0.01384 0.0725,0.01859 0.1555,0.03834 0.25018,0.04873 0.32729,0.02524 0.57244,-0.171466 0.61871,-0.49644 l 0.001,-0.01052 c 0.001,-0.01052 0.002,-0.02104 0.003,-0.03156 0.0557,-0.313297 0.033,-0.592601 -0.0678,-0.837883 -0.068,-0.156514 -0.16168,-0.273248 -0.27985,-0.360731 -0.008,-0.511892 -0.0226,-1.056499 -0.16003,-1.550673 0.66278,0.07267 1.048,-0.236439 1.16981,-0.861886 0.0511,-0.271217 0.0284,-0.550519 -0.0807,-0.817995 z"
         id="path7035" />
      <path
         style="font-size:10.5833px;line-height:1.25;font-family:'Rebeland Outline';-inkscape-font-specification:'Rebeland Outline';fill:url(#linearGradient7169);fill-opacity:1;stroke-width:0.264583"
         d="m -184.57436,-55.79089 c -0.0905,0.43724 -0.31001,0.594166 -0.74135,0.546875 -0.0737,-0.0081 -0.15665,-0.02782 -0.22914,-0.04642 -0.16601,-0.0395 -0.33203,-0.07899 -0.49805,-0.118487 -0.0211,-0.0023 -0.042,-0.0046 -0.0748,0.0024 0.0468,0.05837 0.10649,0.09685 0.15448,0.144698 0.36761,0.434234 0.43933,1.528062 0.37358,2.127716 -0.005,0.04208 0.004,0.06428 0.0457,0.06889 0.14614,0.02667 0.23159,0.121213 0.28203,0.243856 0.0844,0.200899 0.0824,0.413612 0.0383,0.62171 -0.001,0.01052 -0.002,0.02104 -0.003,0.03156 -0.0244,0.125088 -0.10611,0.190653 -0.23232,0.176816 -0.11572,-0.01269 -0.22914,-0.04642 -0.34486,-0.05911 -0.0737,-0.0081 -0.15665,-0.02782 -0.23029,-0.03589 -0.22093,-0.02422 -0.4652,-0.02971 -0.68484,0.03138 -0.0421,-0.0046 -0.0737,-0.0081 -0.11572,-0.01269 -0.26199,-0.135193 -0.33374,-0.451813 -0.34698,-0.719434 -0.0119,-0.182299 0.0685,-0.333182 0.22613,-0.411722 0.0677,-0.03516 0.14483,-0.05864 0.21848,-0.05057 0.0737,0.0081 0.15434,0.04886 0.22106,0.120059 0.0199,0.01283 0.0281,0.03502 0.0585,0.049 0.0461,-0.42081 -0.43097,-1.410033 -0.7529,-1.775377 -0.16861,-0.210127 -0.41561,-0.482083 -0.69966,-0.513226 -0.042,-0.0046 -0.0748,0.0024 -0.11802,0.0084 -0.0328,0.0071 -0.0654,0.01412 -0.0888,0.03285 -0.0117,0.0094 -0.0222,0.0082 -0.0327,0.0071 -0.0105,-0.0012 -0.0304,-0.01397 -0.0386,-0.03617 -0.15001,-0.282616 -0.26616,-0.582812 -0.32854,-0.88776 -0.033,-0.184609 -0.0438,-0.37744 0.0179,-0.551664 0.10711,-0.29701 0.32068,-0.497177 0.65027,-0.492979 0.38925,0.04268 0.6511,0.08203 0.98802,0.310615 0.19888,0.128271 0.38492,0.27643 0.58495,0.394181 0.3509,0.198174 0.62803,0.292439 1.0278,0.336271 0.16947,0.0079 0.33189,-0.01685 0.48956,-0.09538 0.0444,-0.01643 0.0794,-0.04453 0.11443,-0.07263 0.0234,-0.01873 0.0339,-0.01758 0.0514,0.01628 0.074,0.199752 0.0941,0.404245 0.05,0.612343 z"
         id="path7037" />
      <path
         style="font-size:10.5833px;line-height:1.25;font-family:'Rebeland Outline';-inkscape-font-specification:'Rebeland Outline';fill:#000000;fill-opacity:1;stroke-width:0.264583"
         d="m -187.04708,-55.572251 c 0.0105,0.0012 0.0211,0.0023 0.0316,0.0035 0.0211,0.0023 0.14844,0.0056 0.1496,-0.0049 0.001,-0.01052 -0.009,-0.01167 -0.0199,-0.01283 -0.12753,-0.09916 -0.25506,-0.198312 -0.39543,-0.277583 -0.0807,-0.04079 -0.15203,-0.06991 -0.2362,-0.07913 -0.0842,-0.0092 -0.18115,0.0014 -0.27108,0.0448 -0.0222,0.0082 -0.0549,0.01528 -0.0583,0.04684 -0.003,0.03156 0.028,0.03502 0.048,0.04784 0.32987,0.195868 0.6201,0.461917 0.85427,0.75376 0.001,-0.01052 0.002,-0.02104 -0.007,-0.03272 -0.0481,-0.143685 -0.0962,-0.287369 -0.15605,-0.421686 -0.009,-0.01167 -0.0188,-0.02335 -0.007,-0.03272 0.0117,-0.0094 0.0315,0.0035 0.042,0.0046 z"
         id="path6992" />
      <path
         style="font-size:10.5833px;line-height:1.25;font-family:'Rebeland Outline';-inkscape-font-specification:'Rebeland Outline';stroke-width:0.264583"
         d="m -178.06352,-50.010194 -0.0317,-0.03175 c -0.0423,-0.05292 -0.0847,-0.105833 -0.11642,-0.158749 -0.5715,-0.793748 -1.016,-2.053161 -1.15358,-3.026824 -0.0635,-0.412749 -0.0847,-0.751414 -0.0635,-1.05833 0.0106,-0.179916 -0.0317,-0.328082 -0.127,-0.486832 -0.22225,-0.349249 -0.6985,-0.89958 -1.16416,-0.89958 -0.5715,0 -0.73025,0.486831 -0.762,0.96308 -0.0106,0.243416 0.0212,0.476248 0.0529,0.698498 0.0423,0.338665 0.10583,0.645581 0.20108,0.93133 -0.13758,0 -0.26458,0.03175 -0.37041,0.07408 -0.0317,0.01058 -0.0635,0.02117 -0.0847,0.04233 -0.13758,-0.402165 -0.28575,-0.793747 -0.43392,-1.174746 -0.16933,-0.412749 -0.3175,-0.751414 -0.51858,-1.068913 -0.13758,-0.201083 -0.39158,-0.497415 -0.66675,-0.497415 -0.27516,0 -0.56091,0.275166 -0.70908,0.486832 -0.23283,0.317499 -0.35983,0.719664 -0.40216,1.269995 -0.0212,0.317499 0.17991,0.455082 0.26458,0.497416 0.0952,0.04233 0.254,0.243415 0.3175,0.328082 l 0.0317,0.03175 c 0.79375,0.99483 1.39699,2.688158 1.52399,3.958154 0.0423,0.423332 0.60325,0.656164 0.97367,0.656164 0.22225,-0.01058 0.635,-0.105833 0.83608,-0.656164 0.0212,-0.07408 0.0423,-0.148166 0.0635,-0.222249 0.28575,0.402165 0.79375,0.80433 1.30174,0.80433 0.60325,0 1.10067,-0.476248 1.18533,-1.05833 0.0317,-0.158749 -0.0106,-0.306915 -0.10583,-0.423332 z"
         id="path6994" />
      <path
         style="font-size:10.5833px;line-height:1.25;font-family:'Rebeland Outline';-inkscape-font-specification:'Rebeland Outline';fill:url(#linearGradient7171);fill-opacity:1;stroke-width:0.264583"
         d="m -178.28577,-49.671528 c -0.0741,0.370415 -0.30692,0.687914 -0.6985,0.751414 -0.0423,0.01058 -0.0741,0.01058 -0.11642,0.01058 -0.81491,0 -1.41816,-1.259413 -1.57691,-1.979077 -0.0212,-0.105833 -0.0635,-0.211666 -0.11641,-0.306916 -0.0212,-0.03175 -0.0423,-0.05292 -0.0741,-0.07408 0,0.03175 0.0106,0.0635 0.0212,0.09525 0.0529,0.190499 0.0529,0.380999 0.0741,0.571498 0.0212,0.211666 0.0317,0.423332 0.0529,0.634998 0.0212,0.264583 -0.0106,0.497415 -0.0952,0.719665 -0.0953,0.264582 -0.254,0.391582 -0.48683,0.402165 -0.17992,0 -0.34925,-0.07408 -0.508,-0.211666 -0.0317,-0.02117 -0.0529,-0.05292 -0.0529,-0.105833 -0.15875,-1.492245 -0.80433,-3.312573 -1.79916,-4.455569 -0.0741,-0.08467 -0.15875,-0.15875 -0.24341,-0.201083 -0.0529,-0.02117 -0.0635,-0.05292 -0.0635,-0.116416 0.0317,-0.444499 0.20108,-1.227663 0.69849,-1.407579 0.0212,0 0.0317,-0.01058 0.0529,-0.01058 0.0212,0 0.0423,0.01058 0.0635,0.02117 0.45508,0.275166 1.09008,2.21191 1.27,2.772825 0.0847,0.275166 0.13758,0.560915 0.1905,0.846664 0.0212,0.105833 0.0423,0.211666 0.0635,0.317499 0.0423,-0.179916 -0.0106,-0.380999 -0.0106,-0.571498 0,-0.1905 0.0106,-0.380999 0.0635,-0.550332 0.0317,-0.09525 0.0952,-0.148166 0.16933,-0.179916 0.0635,-0.03175 0.127,-0.04233 0.1905,-0.04233 0.16934,0 0.33867,0.105833 0.49742,0.264582 0.10583,0.105833 0.17992,0.243416 0.26458,0.359832 0.0529,0.07408 0.10583,0.137583 0.17992,0.179916 -0.0212,-0.04233 -0.0423,-0.08467 -0.0635,-0.116416 -0.35983,-0.634998 -0.59267,-1.333496 -0.6985,-2.05316 -0.0318,-0.211666 -0.0529,-0.423332 -0.0423,-0.634998 0.0212,-0.253999 0.0741,-0.603248 0.40216,-0.603248 0.0635,0 0.11642,0.02117 0.17992,0.05292 0.254,0.15875 0.47625,0.380999 0.65616,0.677332 0.0529,0.08467 0.0741,0.158749 0.0635,0.264582 -0.0212,0.380999 0.0106,0.761998 0.0741,1.142996 0.15875,1.079497 0.67733,2.550576 1.38641,3.407823 0.0317,0.03175 0.0423,0.07408 0.0317,0.116416 z"
         id="path7041" />
      <path
         style="font-size:10.5833px;line-height:1.25;font-family:'Rebeland Outline';-inkscape-font-specification:'Rebeland Outline';stroke-width:0.264583"
         d="m -175.49504,-51.173974 c -0.13759,-0.15875 -0.26459,-0.328083 -0.381,-0.518582 -0.0106,-0.02117 -0.0212,-0.04233 -0.0317,-0.0635 -0.0529,-0.08467 -0.11642,-0.201082 -0.22225,-0.296332 -0.0952,-0.09525 -0.21167,-0.148166 -0.33867,-0.15875 0.0635,-0.08467 0.11642,-0.179916 0.16933,-0.285749 0.0423,-0.08467 0.0741,-0.222249 0.0212,-0.391582 -0.0529,-0.158749 -0.127,-0.285749 -0.1905,-0.380999 -0.29633,-0.486831 -0.4445,-1.037163 -0.58208,-1.587495 -0.0847,-0.306915 -0.26458,-0.380998 -0.5715,-0.380998 -0.381,0.03175 -0.79375,0.317499 -0.94191,0.666747 -0.0953,-0.04233 -0.30692,-0.07408 -0.40217,-0.07408 -0.70908,0 -1.19591,0.634998 -1.19591,1.31233 0,0.666747 0.40217,1.333495 0.89958,1.756827 0.0317,0.03175 0.0635,0.0635 0.0952,0.09525 -0.0106,0.02117 -0.0212,0.04233 -0.0318,0.0635 v 0.01058 c -0.0106,0.01058 -0.0212,0.02117 -0.0212,0.03175 -0.0847,0.222249 -0.127,0.465665 -0.127,0.751414 0.0212,0.846664 0.84667,1.227663 1.59808,1.227663 0.42333,0 0.81492,-0.105833 1.17475,-0.338666 0.0106,0 0.0212,0 0.0318,0 0.11642,0.03175 0.23283,0.04233 0.34925,0.04233 0.40216,0 0.77258,-0.169333 0.92074,-0.571499 0.0635,-0.169332 0.127,-0.518581 -0.20108,-0.878413 z"
         id="path6996" />
      <path
         style="font-size:10.5833px;line-height:1.25;font-family:'Rebeland Outline';-inkscape-font-specification:'Rebeland Outline';fill:url(#linearGradient7173);fill-opacity:1;stroke-width:0.264583"
         d="m -175.63263,-50.39081 c -0.0847,0.253999 -0.29633,0.338665 -0.53975,0.338665 -0.17991,0 -0.37041,-0.05292 -0.51858,-0.158749 0.0529,0.08467 -0.0212,0.105833 -0.0635,0.137583 -0.30691,0.211666 -0.61383,0.306916 -0.98424,0.306916 -0.51859,0 -1.2065,-0.243416 -1.2065,-0.857248 0,-0.211666 0.0212,-0.412748 0.0952,-0.613831 0.0106,-0.02117 0.0212,-0.04233 0.0317,-0.0635 0.0212,-0.07408 0.0741,-0.105833 0.14817,-0.105833 0.0529,0 0.11641,0 0.16933,0 0.0318,0 0.0529,0 0.0847,0 0.0106,0 0.0212,0 0.0317,-0.02117 -0.0317,-0.02117 -0.0635,-0.04233 -0.0952,-0.0635 -0.62441,-0.349249 -1.29116,-1.100663 -1.29116,-1.862661 0,-0.455082 0.29633,-0.920747 0.79375,-0.920747 0.35983,0 0.64558,0.253999 0.889,0.497415 0,-0.04233 -0.0106,-0.0635 -0.0212,-0.08467 -0.0529,-0.105833 -0.0952,-0.211666 -0.10583,-0.328083 -0.0212,-0.201082 0.0635,-0.359832 0.22225,-0.486831 0.13758,-0.105833 0.28575,-0.1905 0.46566,-0.211666 0.0212,0 0.0423,0 0.0529,0 0.0635,0 0.0847,0.02117 0.10583,0.105833 0.0423,0.169332 0.0741,0.338665 0.11642,0.507998 0.11641,0.423332 0.27516,0.825497 0.508,1.195913 0.0635,0.09525 0.11641,0.190499 0.14816,0.296332 0.0106,0.04233 0.0106,0.07408 -0.0106,0.116416 -0.0529,0.127 -0.127,0.232833 -0.23283,0.317499 -0.0317,0.02117 -0.0635,0.04233 -0.0952,0.04233 -0.0318,0 -0.0635,-0.02117 -0.10584,-0.04233 -0.32808,-0.264582 -0.57149,-0.476248 -1.02658,-0.476248 -0.0318,0 -0.0635,0 -0.0953,0 -0.20108,0.02117 -0.29633,0.190499 -0.23283,0.391582 0.0847,0.243416 0.28575,0.349249 0.52917,0.349249 0.0635,0 0.13758,-0.01058 0.21166,-0.02117 0.0317,0 0.0529,0 0.0741,0.02117 0.16933,0.201083 0.27516,0.423332 0.31749,0.677331 0.0106,0.09525 -0.0423,0.169333 -0.13758,0.190499 -0.0847,0.02117 -0.16933,0.04233 -0.254,0.0635 -0.0635,0.02117 -0.127,0.04233 -0.127,0.116417 0,0.07408 0.0529,0.116416 0.11642,0.148166 0.0529,0.03175 0.11642,0.04233 0.17992,0.04233 0.0317,0 0.0529,-0.01058 0.0847,-0.01058 0.0953,-0.01058 0.3175,-0.105833 0.35983,-0.201083 0.0423,-0.0635 0.0423,-0.137583 0.0317,-0.211666 0,-0.04233 0,-0.08467 0,-0.127 0,-0.137583 0.0635,-0.243416 0.16934,-0.328082 0.10583,-0.07408 0.22225,-0.105833 0.34925,-0.116416 0.0635,0 0.10583,0.01058 0.14816,0.05292 0.0847,0.08467 0.13758,0.1905 0.20108,0.296333 0.127,0.201082 0.26459,0.391582 0.42334,0.571498 0.127,0.137583 0.20108,0.296332 0.127,0.486832 z"
         id="path7045" />
      <path
         style="font-size:10.5833px;line-height:1.25;font-family:'Rebeland Outline';-inkscape-font-specification:'Rebeland Outline';stroke-width:0.264583"
         d="m -172.33956,-54.290632 c -0.23283,-1.365245 -1.14299,-2.222493 -2.15899,-3.04799 -0.20108,-0.15875 -0.40217,-0.328082 -0.59267,-0.497415 -0.0423,-0.03175 -0.0847,-0.0635 -0.127,-0.09525 -0.21166,-0.179916 -0.41274,-0.349249 -0.58208,-0.571498 -0.10583,-0.137583 -0.23283,-0.211666 -0.381,-0.211666 -0.40216,0.03175 -0.52916,0.582081 -0.58208,0.89958 -0.0423,0.264583 -0.0317,0.529165 -0.0212,0.730248 0.0741,0.761998 0.40216,1.333496 1.05833,1.725078 0.0317,0.02117 0.0635,0.04233 0.0952,0.0635 0.0106,0.02117 0.0212,0.04233 0.0317,0.07408 0.0741,0.201083 0.14816,0.402165 0.21166,0.571498 0.11642,0.306916 0.23283,0.634998 0.32808,0.973664 -0.31749,0.05292 -0.52916,0.179916 -0.59266,0.539748 -0.0423,0.190499 -0.0106,0.370415 0.0212,0.518582 0.0635,0.306915 0.254,1.079496 0.65616,1.111246 0.10583,0 0.17992,-0.01058 0.27517,-0.0635 0.15875,0 0.33866,0.05292 0.57149,0.15875 0.20109,0.09525 0.52917,0.243416 0.762,0.243416 0.52917,0 0.83608,-0.603248 0.93133,-1.047747 0.14817,-0.666748 0.15875,-1.344079 0.0423,-2.02141 z"
         id="path7049" />
      <path
         style="font-size:10.5833px;line-height:1.25;font-family:'Rebeland Outline';-inkscape-font-specification:'Rebeland Outline';fill:url(#linearGradient7175);fill-opacity:1;stroke-width:0.264583"
         d="m -172.80522,-52.290388 c -0.0529,0.264582 -0.23284,0.740831 -0.56092,0.740831 -0.0423,0 -0.0847,0 -0.127,-0.01058 -0.16933,-0.04233 -0.32808,-0.116417 -0.48683,-0.1905 -0.26458,-0.116416 -0.49741,-0.201083 -0.79375,-0.201083 -0.0529,0 -0.10583,0.01058 -0.14816,0.05292 -0.0106,0.02117 -0.0212,0.02117 -0.0317,0.02117 -0.0953,0 -0.30692,-0.719665 -0.32809,-0.825498 -0.0318,-0.126999 -0.0529,-0.253999 -0.0318,-0.380999 0.0423,-0.211666 0.17992,-0.232832 0.37042,-0.232832 0.0635,0 0.127,0.01058 0.1905,0.03175 0.0317,0.01058 0.0529,0.02117 0.0741,0.02117 0.0317,0 0.0423,-0.04233 0.0317,-0.137583 0,-0.285749 -0.3175,-1.132413 -0.42333,-1.418162 -0.0741,-0.190499 -0.14817,-0.380999 -0.22225,-0.571498 -0.0212,-0.04233 -0.0106,-0.05292 0.0106,-0.05292 0,0 0.0106,0 0.0212,0 0.0106,0.01058 0.0318,0.01058 0.0529,0.01058 0.0106,0 0.0212,0 0.0318,0 -0.0529,-0.04233 -0.0953,-0.07408 -0.13759,-0.105833 -0.11641,-0.09525 -0.24341,-0.169333 -0.37041,-0.253999 -0.48683,-0.349249 -0.70908,-0.761998 -0.74083,-1.344079 -0.0106,-0.22225 -0.0106,-0.433916 0.0212,-0.645582 0.0318,-0.190499 0.0741,-0.380998 0.16933,-0.529165 0.0212,-0.04233 0.0318,-0.05292 0.0529,-0.05292 0.0212,0 0.0318,0.01058 0.0635,0.05292 0.22225,0.296333 0.48684,0.507999 0.74084,0.740831 0.41274,0.370416 0.84666,0.698498 1.25941,1.068914 0.65616,0.603248 1.20649,1.396995 1.35466,2.285992 0.11642,0.656165 0.0953,1.28058 -0.0423,1.883828 z"
         id="path7051" />
      <path
         style="font-size:10.5833px;line-height:1.25;font-family:'Rebeland Outline';-inkscape-font-specification:'Rebeland Outline';fill:#000000;fill-opacity:1;stroke-width:0.264583"
         d="m -173.55664,-54.248302 c -0.16933,-0.370415 -0.42333,-0.571498 -0.71966,-0.698497 -0.0106,-0.01058 -0.0317,-0.02117 -0.0423,0 -0.0106,0.02117 0.0106,0.03175 0.0212,0.04233 0.0212,0.01058 0.0423,0.02117 0.0635,0.03175 0.26458,0.222249 0.28575,0.359832 0.33867,0.698498 0.0106,0.126999 0.0847,0.592664 0.26458,0.592664 0.0106,0 0.0212,0 0.0423,-0.01058 0.0847,-0.03175 0.13759,-0.15875 0.11642,-0.285749 -0.0212,-0.127 -0.0423,-0.253999 -0.0952,-0.370416 z"
         id="path6998" />
      <path
         style="font-size:10.5833px;line-height:1.25;font-family:'Rebeland Outline';-inkscape-font-specification:'Rebeland Outline';stroke-width:0.264583"
         d="m -169.63102,-52.845463 c 0.14967,-0.900826 -0.009,-1.791655 -0.57783,-2.523715 -0.20768,-0.259437 -0.43078,-0.500921 -0.64361,-0.739827 -0.0769,-0.08476 -0.15386,-0.169549 -0.23079,-0.254324 -0.13079,-0.131027 -0.22305,-0.28512 -0.31532,-0.439213 -0.023,-0.03851 -0.0461,-0.07705 -0.0692,-0.115558 -0.0923,-0.154092 -0.20257,-0.236331 -0.37707,-0.280123 -0.57484,-0.144263 -1.21701,0.371092 -1.48438,0.827745 -0.11568,0.200108 -0.25713,0.502867 -0.17536,0.872555 0.0537,0.220798 0.15362,0.431366 0.30233,0.621446 0.0256,0.02825 0.0513,0.05651 0.0769,0.08476 -0.0206,0.03848 -0.0335,0.0898 -0.0386,0.153975 -0.15754,1.062524 0.36167,3.124157 1.56267,3.425558 0.45166,0.113349 0.88299,0.0034 1.23235,-0.301774 0.39304,-0.348732 0.6373,-0.800273 0.73277,-1.354623 z"
         id="path7000" />
      <path
         style="font-size:10.5833px;line-height:1.25;font-family:'Rebeland Outline';-inkscape-font-specification:'Rebeland Outline';fill:url(#linearGradient7177);fill-opacity:1;stroke-width:0.264583"
         d="m -170.62277,-51.806795 c -0.26716,0.238474 -0.56496,0.294677 -0.91397,0.207088 -0.91354,-0.272903 -1.24068,-1.838967 -1.24505,-2.691159 -0.008,-0.100101 -0.002,-0.207911 0.0131,-0.313141 0.008,-0.03079 0.0206,-0.03848 0.0488,-0.0205 0.10261,0.06939 0.20522,0.138797 0.29241,0.226143 0.0616,0.05909 0.13594,0.110494 0.21034,0.161901 0.0564,0.03599 0.10772,0.0925 0.16158,0.138755 -0.0359,-0.07447 -0.0872,-0.130988 -0.13844,-0.187504 -0.12822,-0.141291 -0.23074,-0.29796 -0.34612,-0.446941 -0.10511,-0.146404 -0.22563,-0.274854 -0.33332,-0.410993 -0.1051,-0.146404 -0.18453,-0.308186 -0.228,-0.482768 -0.0434,-0.218208 0.026,-0.408106 0.12627,-0.590265 0.17487,-0.305283 0.44194,-0.500134 0.76036,-0.638454 0.10779,-0.03842 0.21564,-0.03318 0.32856,-0.0048 0.0513,0.01288 0.0846,0.05397 0.11541,0.105341 0.0948,0.143828 0.17685,0.295346 0.28453,0.431484 0.041,0.05393 0.082,0.107884 0.13332,0.164396 0.28977,0.323684 0.59237,0.639676 0.85645,0.978736 0.51024,0.619066 0.64039,1.448269 0.50109,2.220759 -0.08,0.449111 -0.2754,0.836538 -0.61193,1.133986 z"
         id="path7055" />
      <path
         style="font-size:10.5833px;line-height:1.25;font-family:'Rebeland Outline';-inkscape-font-specification:'Rebeland Outline';fill:#000000;fill-opacity:1;stroke-width:0.264583"
         d="m -171.09631,-53.267747 c -0.064,-0.136087 -0.28453,-0.431484 -0.43077,-0.500921 0.0281,0.06162 0.0461,0.120687 0.064,0.179738 0.0204,0.09242 0.0307,0.182277 -0.005,0.282347 -0.0438,0.130864 -0.0438,0.261784 -0.0132,0.400421 0.0153,0.06931 0.059,0.113002 0.12821,0.141292 0.13087,0.04375 0.29266,-0.03567 0.30304,-0.164004 0.0181,-0.115495 0.003,-0.228441 -0.0562,-0.341438 z"
         id="path7057" />
    </g>
  </g>
</svg>
